<?xml version="1.0" encoding="utf-8"?>
<!-- Generator: Adobe Illustrator 23.0.6, SVG Export Plug-In . SVG Version: 6.00 Build 0)  -->
<svg version="1.1" id="Learning_-_Private_Session" xmlns="http://www.w3.org/2000/svg" xmlns:xlink="http://www.w3.org/1999/xlink"
	 x="0px" y="0px" viewBox="0 0 344 436" style="enable-background:new 0 0 344 436;" xml:space="preserve">
<style type="text/css">
	.st0{opacity:0.3;}
	.st1{fill:#78B46F;}
	.st2{fill:#002638;}
	.st3{fill:#C3CFD9;}
	.st4{fill:#F2F2F2;}
	.st5{fill:#6290B0;}
	.st6{fill:#52618A;}
	.st7{fill:#EEC192;}
	.st8{fill:#FFFFFF;}
	.st9{fill:#B2811E;}
</style>
<g id="Circle_Back_2_" class="st0">
	<circle class="st1" cx="167.5" cy="218" r="158.9"/>
</g>
<g>
	<g>
		<path class="st1" d="M297.8,259.4c3.7,0,6.7-3,6.7-6.7v-25.6c0-4.7-3.9-8.6-8.6-8.6h-4.3v-8.3c0-6.9-5.7-12.6-12.6-12.6
			c-6.9,0-12.6,5.7-12.6,12.6v16.5H261c-3.7,0-6.7,3-6.7,6.7V247c0,3.7,3,6.7,6.7,6.7h0.5v7.7c0,3.4,2.6,6.3,6,6.7v7.9H267
			c-3.7,0-6.7,3-6.7,6.7v12.4c0,3.7,3,6.7,6.7,6.7h3.3v6.2c0,3.7,3,6.7,6.7,6.7h8.1c3.7,0,6.7-3,6.7-6.7v-6.2h4.1
			c3.7,0,6.7-3,6.7-6.7v-12.4c0-3.7-3-6.7-6.7-6.7h-1.2v-16.5H297.8z"/>
		<path class="st2" d="M285.2,315H277c-3.9,0-7-3.1-7-7v-5.9h-3c-3.9,0-7-3.1-7-7v-12.4c0-3.9,3.1-7,7-7h0.2v-7.4
			c-3.4-0.5-6-3.4-6-6.9V254H261c-3.9,0-7-3.1-7-7v-13.5c0-3.9,3.1-7,7-7h5.2v-16.2c0-7.1,5.8-12.9,12.9-12.9s12.9,5.8,12.9,12.9v8
			h4c4.9,0,8.9,4,8.9,8.9v25.6c0,3.9-3.1,7-7,7H295v15.9h0.9c3.9,0,7,3.1,7,7v12.4c0,3.9-3.1,7-7,7h-3.8v5.9
			C292.2,311.9,289,315,285.2,315z M267,276.2c-3.5,0-6.4,2.9-6.4,6.4v12.4c0,3.5,2.9,6.4,6.4,6.4h3.3c0.2,0,0.3,0.1,0.3,0.3v6.2
			c0,3.5,2.9,6.4,6.4,6.4h8.1c3.5,0,6.4-2.9,6.4-6.4v-6.2c0-0.2,0.1-0.3,0.3-0.3h4.1c3.5,0,6.4-2.9,6.4-6.4v-12.4
			c0-3.5-2.9-6.4-6.4-6.4h-1.2c-0.2,0-0.3-0.1-0.3-0.3v-16.5c0-0.2,0.1-0.3,0.3-0.3h3.1c3.5,0,6.4-2.9,6.4-6.4v-25.6
			c0-4.6-3.7-8.3-8.3-8.3h-4.3c-0.2,0-0.3-0.1-0.3-0.3v-8.3c0-6.8-5.5-12.3-12.3-12.3s-12.3,5.5-12.3,12.3v16.5
			c0,0.2-0.1,0.3-0.3,0.3H261c-3.5,0-6.4,2.9-6.4,6.4V247c0,3.5,2.9,6.4,6.4,6.4h0.5c0.2,0,0.3,0.1,0.3,0.3v7.7c0,3.3,2.5,6,5.7,6.4
			c0.2,0,0.3,0.1,0.3,0.3v7.9c0,0.2-0.1,0.3-0.3,0.3H267z"/>
	</g>
	<g>
		<path class="st2" d="M285.2,315H277c-3.9,0-7-3.1-7-7v-5.9h-3c-3.9,0-7-3.1-7-7v-12.4c0-3.9,3.1-7,7-7h0.2v-7.4
			c-3.4-0.5-6-3.4-6-6.9V254H261c-3.9,0-7-3.1-7-7v-13.5c0-3.9,3.1-7,7-7h5.2v-16.2c0-7.1,5.8-12.9,12.9-12.9s12.9,5.8,12.9,12.9v8
			h4c4.9,0,8.9,4,8.9,8.9v25.6c0,3.9-3.1,7-7,7H295v15.9h0.9c3.9,0,7,3.1,7,7v12.4c0,3.9-3.1,7-7,7h-3.8v5.9
			C292.2,311.9,289,315,285.2,315z M267,276.2c-3.5,0-6.4,2.9-6.4,6.4v12.4c0,3.5,2.9,6.4,6.4,6.4h3.3c0.2,0,0.3,0.1,0.3,0.3v6.2
			c0,3.5,2.9,6.4,6.4,6.4h8.1c3.5,0,6.4-2.9,6.4-6.4v-6.2c0-0.2,0.1-0.3,0.3-0.3h4.1c3.5,0,6.4-2.9,6.4-6.4v-12.4
			c0-3.5-2.9-6.4-6.4-6.4h-1.2c-0.2,0-0.3-0.1-0.3-0.3v-16.5c0-0.2,0.1-0.3,0.3-0.3h3.1c3.5,0,6.4-2.9,6.4-6.4v-25.6
			c0-4.6-3.7-8.3-8.3-8.3h-4.3c-0.2,0-0.3-0.1-0.3-0.3v-8.3c0-6.8-5.5-12.3-12.3-12.3s-12.3,5.5-12.3,12.3v16.5
			c0,0.2-0.1,0.3-0.3,0.3H261c-3.5,0-6.4,2.9-6.4,6.4V247c0,3.5,2.9,6.4,6.4,6.4h0.5c0.2,0,0.3,0.1,0.3,0.3v7.7c0,3.3,2.5,6,5.7,6.4
			c0.2,0,0.3,0.1,0.3,0.3v7.9c0,0.2-0.1,0.3-0.3,0.3H267z"/>
	</g>
	<g>
		<polygon class="st3" points="266.5,226.8 266.5,240.7 271.9,230.2 		"/>
	</g>
	<g>
		<polygon class="st2" points="266.5,226.8 266.5,240.7 271.9,230.2 		"/>
		<path class="st2" d="M266.5,241C266.5,241,266.4,241,266.5,241c-0.2,0-0.3-0.2-0.3-0.3v-13.9c0-0.1,0.1-0.2,0.2-0.3
			c0.1-0.1,0.2,0,0.3,0l5.4,3.4c0.1,0.1,0.2,0.3,0.1,0.4l-5.4,10.5C266.7,240.9,266.6,241,266.5,241z M266.8,227.4v12.1l4.7-9.1
			L266.8,227.4z"/>
	</g>
	<g>
		<polygon class="st2" points="291.6,218.5 291.6,234.7 286.6,222 		"/>
		<path class="st2" d="M291.6,235c-0.1,0-0.2-0.1-0.3-0.2l-5.1-12.7c-0.1-0.1,0-0.3,0.1-0.4l5.1-3.5c0.1-0.1,0.2-0.1,0.3,0
			c0.1,0.1,0.2,0.2,0.2,0.3v16.2C291.9,234.9,291.8,235,291.6,235C291.7,235,291.6,235,291.6,235z M286.9,222.1l4.4,11v-14
			L286.9,222.1z"/>
	</g>
	<g>
		<path class="st2" d="M291.6,235c-0.1,0-0.2-0.1-0.3-0.2l-5.1-12.7c-0.1-0.1,0-0.3,0.1-0.4l5.1-3.5c0.1-0.1,0.2-0.1,0.3,0
			c0.1,0.1,0.2,0.2,0.2,0.3v16.2C291.9,234.9,291.8,235,291.6,235C291.7,235,291.6,235,291.6,235z M286.9,222.1l4.4,11v-14
			L286.9,222.1z"/>
	</g>
	<g>
		<polygon class="st3" points="261.5,253.7 269,253.7 261.5,258.2 		"/>
	</g>
	<g>
		<polygon class="st2" points="261.5,253.7 269,253.7 261.5,258.2 		"/>
		<path class="st2" d="M261.5,258.5c-0.1,0-0.1,0-0.2,0c-0.1-0.1-0.2-0.2-0.2-0.3v-4.5c0-0.2,0.1-0.3,0.3-0.3h7.6
			c0.1,0,0.3,0.1,0.3,0.2c0,0.1,0,0.3-0.1,0.3l-7.6,4.5C261.6,258.5,261.5,258.5,261.5,258.5z M261.8,254v3.6l6.2-3.6H261.8z"/>
	</g>
	<g>
		<polygon class="st3" points="267.5,268 274.4,268 267.5,272.9 		"/>
	</g>
	<g>
		<polygon class="st2" points="267.5,268 274.4,268 267.5,272.9 		"/>
		<path class="st2" d="M267.5,273.2c0,0-0.1,0-0.1,0c-0.1-0.1-0.2-0.2-0.2-0.3V268c0-0.2,0.1-0.3,0.3-0.3h7c0.1,0,0.3,0.1,0.3,0.2
			c0,0.1,0,0.3-0.1,0.3l-7,4.9C267.6,273.2,267.5,273.2,267.5,273.2z M267.8,268.3v4l5.7-4H267.8z"/>
	</g>
	<g>
		<polygon class="st2" points="294.7,259.4 288.6,259.4 294.7,275.9 		"/>
		<path class="st2" d="M294.7,276.2c-0.1,0-0.2-0.1-0.3-0.2l-6.2-16.5c0-0.1,0-0.2,0-0.3c0.1-0.1,0.2-0.1,0.3-0.1h6.2
			c0.2,0,0.3,0.1,0.3,0.3v16.5C295,276.1,294.9,276.2,294.7,276.2C294.8,276.2,294.8,276.2,294.7,276.2z M289,259.7l5.4,14.5v-14.5
			H289z"/>
	</g>
	<g>
		<path class="st2" d="M294.7,276.2c-0.1,0-0.2-0.1-0.3-0.2l-6.2-16.5c0-0.1,0-0.2,0-0.3c0.1-0.1,0.2-0.1,0.3-0.1h6.2
			c0.2,0,0.3,0.1,0.3,0.3v16.5C295,276.1,294.9,276.2,294.7,276.2C294.8,276.2,294.8,276.2,294.7,276.2z M289,259.7l5.4,14.5v-14.5
			H289z"/>
	</g>
	<g>
		<polygon class="st2" points="270.3,301.8 275,301.8 270.3,308 		"/>
		<path class="st2" d="M270.3,308.3C270.3,308.3,270.3,308.3,270.3,308.3c-0.2-0.1-0.3-0.2-0.3-0.3v-6.2c0-0.2,0.1-0.3,0.3-0.3h4.7
			c0.1,0,0.2,0.1,0.3,0.2s0,0.2,0,0.3l-4.7,6.2C270.5,308.3,270.4,308.3,270.3,308.3z M270.6,302.1v5l3.7-5H270.6z"/>
	</g>
	<g>
		<path class="st2" d="M270.3,308.3C270.3,308.3,270.3,308.3,270.3,308.3c-0.2-0.1-0.3-0.2-0.3-0.3v-6.2c0-0.2,0.1-0.3,0.3-0.3h4.7
			c0.1,0,0.2,0.1,0.3,0.2s0,0.2,0,0.3l-4.7,6.2C270.5,308.3,270.4,308.3,270.3,308.3z M270.6,302.1v5l3.7-5H270.6z"/>
	</g>
	<g>
		<polygon class="st2" points="291.9,301.8 288.8,301.8 291.9,308 		"/>
		<path class="st2" d="M291.9,308.3c-0.1,0-0.2-0.1-0.3-0.2l-3-6.2c0-0.1,0-0.2,0-0.3c0.1-0.1,0.2-0.1,0.3-0.1h3
			c0.2,0,0.3,0.1,0.3,0.3v6.2C292.2,308.1,292.1,308.3,291.9,308.3C291.9,308.3,291.9,308.3,291.9,308.3z M289.3,302.1l2.2,4.6v-4.6
			H289.3z"/>
	</g>
	<g>
		<path class="st2" d="M291.9,308.3c-0.1,0-0.2-0.1-0.3-0.2l-3-6.2c0-0.1,0-0.2,0-0.3c0.1-0.1,0.2-0.1,0.3-0.1h3
			c0.2,0,0.3,0.1,0.3,0.3v6.2C292.2,308.1,292.1,308.3,291.9,308.3C291.9,308.3,291.9,308.3,291.9,308.3z M289.3,302.1l2.2,4.6v-4.6
			H289.3z"/>
	</g>
	<g>
		<path class="st4" d="M249.1,309.7l7.9,35.3c1.3,6,6.7,10.3,12.8,10.3h19.4c6.1,0,11.5-4.3,12.8-10.3l7.9-35.3
			c0.4-1.6-0.9-3.1-2.5-3.1h-55.7C249.9,306.5,248.7,308,249.1,309.7"/>
		<path class="st2" d="M289.1,355.6h-19.4c-6.3,0-11.7-4.3-13.1-10.5l-7.9-35.3l0,0c-0.2-0.9,0-1.7,0.6-2.4c0.5-0.7,1.4-1.1,2.2-1.1
			h55.7c0.9,0,1.7,0.4,2.2,1.1c0.5,0.7,0.8,1.6,0.6,2.4l-7.9,35.3C300.8,351.3,295.5,355.6,289.1,355.6z M249.4,309.6l7.9,35.3
			c1.3,5.9,6.5,10,12.5,10h19.4c6,0,11.2-4.1,12.5-10l7.9-35.3c0.2-0.7,0-1.4-0.4-1.9c-0.4-0.5-1.1-0.8-1.8-0.8h-55.7
			c-0.7,0-1.3,0.3-1.8,0.8C249.4,308.2,249.2,308.9,249.4,309.6L249.4,309.6z"/>
	</g>
	<g>
		<path class="st2" d="M289.1,355.6h-19.4c-6.3,0-11.7-4.3-13.1-10.5l-7.9-35.3l0,0c-0.2-0.9,0-1.7,0.6-2.4c0.5-0.7,1.4-1.1,2.2-1.1
			h55.7c0.9,0,1.7,0.4,2.2,1.1c0.5,0.7,0.8,1.6,0.6,2.4l-7.9,35.3C300.8,351.3,295.5,355.6,289.1,355.6z M249.4,309.6l7.9,35.3
			c1.3,5.9,6.5,10,12.5,10h19.4c6,0,11.2-4.1,12.5-10l7.9-35.3c0.2-0.7,0-1.4-0.4-1.9c-0.4-0.5-1.1-0.8-1.8-0.8h-55.7
			c-0.7,0-1.3,0.3-1.8,0.8C249.4,308.2,249.2,308.9,249.4,309.6L249.4,309.6z"/>
	</g>
	<g>
		<path class="st2" d="M274.8,206.1c0.8,0.8,1.5,1.5,2.3,2.3c0.3,0.3,0.7-0.2,0.4-0.4c-0.8-0.8-1.5-1.5-2.3-2.3
			C274.9,205.4,274.5,205.8,274.8,206.1"/>
	</g>
	<g>
		<path class="st2" d="M281.2,205.3v2.5c0,0.4,0.6,0.4,0.6,0v-2.5C281.8,204.9,281.2,204.9,281.2,205.3"/>
	</g>
	<g>
		<path class="st2" d="M284.6,209.8v2.3c0,0.4,0.6,0.4,0.6,0v-2.3C285.2,209.4,284.6,209.4,284.6,209.8"/>
	</g>
	<g>
		<path class="st2" d="M274.7,214.7v2.3c0,0.4,0.6,0.4,0.6,0v-2.3C275.3,214.3,274.7,214.3,274.7,214.7"/>
	</g>
	<g>
		<path class="st2" d="M282.4,217.5c-0.8,0.8-1.5,1.5-2.3,2.3c-0.3,0.3,0.2,0.7,0.4,0.4c0.8-0.8,1.5-1.5,2.3-2.3
			C283.1,217.7,282.7,217.3,282.4,217.5"/>
	</g>
	<g>
		<path class="st2" d="M271,208.7v2.3c0,0.4,0.6,0.4,0.6,0v-2.3C271.6,208.3,271,208.3,271,208.7"/>
	</g>
	<g>
		<path class="st2" d="M279.9,199.5l-2,2c-0.1,0.1-0.1,0.3,0,0.4c0.1,0.1,0.3,0.1,0.4,0l2-2c0.1-0.1,0.1-0.3,0-0.4
			C280.2,199.3,280,199.3,279.9,199.5"/>
	</g>
	<g>
		<path class="st2" d="M271.6,201.9v2c0,0.2,0.1,0.3,0.3,0.3c0.2,0,0.3-0.1,0.3-0.3v-2c0-0.2-0.1-0.3-0.3-0.3
			C271.7,201.6,271.6,201.8,271.6,201.9"/>
	</g>
	<g>
		<path class="st2" d="M268.3,215.4l2,2c0.1,0.1,0.3,0.1,0.4,0c0.1-0.1,0.1-0.3,0-0.4l-2-2c-0.1-0.1-0.3-0.1-0.4,0
			C268.1,215.1,268.1,215.3,268.3,215.4"/>
	</g>
	<g>
		<path class="st2" d="M268.3,206.7c0.4,0.4,0.8,0.8,1.1,1.1c0.1,0.1,0.3,0.1,0.4,0c0.1-0.1,0.1-0.3,0-0.4c-0.4-0.4-0.8-0.8-1.1-1.1
			c-0.1-0.1-0.3-0.1-0.4,0C268.2,206.4,268.1,206.5,268.3,206.7"/>
	</g>
	<g>
		<path class="st2" d="M287.4,206.7v-1.4c0-0.2-0.1-0.3-0.3-0.3c-0.2,0-0.3,0.1-0.3,0.3v1.4c0,0.2,0.1,0.3,0.3,0.3
			C287.3,207,287.4,206.9,287.4,206.7"/>
	</g>
	<g>
		<path class="st2" d="M283.7,203.1h2c0.2,0,0.3-0.1,0.3-0.3c0-0.2-0.1-0.3-0.3-0.3h-2c-0.2,0-0.3,0.1-0.3,0.3
			C283.4,202.9,283.6,203.1,283.7,203.1"/>
	</g>
	<g>
		<path class="st2" d="M280.6,212.9h-1.7c-0.2,0-0.3,0.1-0.3,0.3c0,0.2,0.1,0.3,0.3,0.3h1.7c0.2,0,0.3-0.1,0.3-0.3
			C280.9,213.1,280.8,212.9,280.6,212.9"/>
	</g>
	<g>
		<path class="st2" d="M278.3,225.1v4.2c0,0.4,0.6,0.4,0.6,0v-4.2C279,224.7,278.3,224.7,278.3,225.1"/>
	</g>
	<g>
		<path class="st2" d="M270.2,224.8v1.4c0,0.2,0.1,0.3,0.3,0.3c0.2,0,0.3-0.1,0.3-0.3v-1.4c0-0.2-0.1-0.3-0.3-0.3
			C270.3,224.5,270.2,224.7,270.2,224.8"/>
	</g>
	<g>
		<path class="st2" d="M277,222.6l-2,2c-0.1,0.1-0.1,0.3,0,0.4c0.1,0.1,0.3,0.1,0.4,0l2-2c0.1-0.1,0.1-0.3,0-0.4
			C277.3,222.5,277.1,222.5,277,222.6"/>
	</g>
	<g>
		<path class="st2" d="M268.8,220.8c0.6,0.6,1.1,1.1,1.7,1.7c0.1,0.1,0.3,0.1,0.4,0c0.1-0.1,0.1-0.3,0-0.4c-0.6-0.6-1.1-1.1-1.7-1.7
			c-0.1-0.1-0.3-0.1-0.4,0C268.7,220.5,268.7,220.7,268.8,220.8"/>
	</g>
	<g>
		<path class="st2" d="M284.9,226.8v2.8c0,0.4,0.6,0.4,0.6,0v-2.8C285.5,226.4,284.9,226.4,284.9,226.8"/>
	</g>
	<g>
		<path class="st2" d="M289.1,216c0.3-0.3,0.6-0.6,0.8-0.8c0.1-0.1,0.1-0.3,0-0.4c-0.1-0.1-0.3-0.1-0.4,0c-0.3,0.3-0.6,0.6-0.8,0.8
			c-0.1,0.1-0.1,0.3,0,0.4C288.7,216.1,288.9,216.1,289.1,216"/>
	</g>
	<g>
		<path class="st2" d="M275.2,234.4v1.4c0,0.2,0.1,0.3,0.3,0.3c0.2,0,0.3-0.1,0.3-0.3v-1.4c0-0.2-0.1-0.3-0.3-0.3
			C275.4,234.1,275.2,234.3,275.2,234.4"/>
	</g>
	<g>
		<path class="st2" d="M280.9,238c0.6-0.6,1.1-1.1,1.7-1.7c0.1-0.1,0.1-0.3,0-0.4c-0.1-0.1-0.3-0.1-0.4,0c-0.6,0.6-1.1,1.1-1.7,1.7
			c-0.1,0.1-0.1,0.3,0,0.4C280.5,238.2,280.7,238.2,280.9,238"/>
	</g>
	<g>
		<path class="st2" d="M287.8,235.5l2,2c0.1,0.1,0.3,0.1,0.4,0c0.1-0.1,0.1-0.3,0-0.4l-2-2c-0.1-0.1-0.3-0.1-0.4,0
			C287.6,235.2,287.6,235.4,287.8,235.5"/>
	</g>
	<g>
		<path class="st2" d="M295.7,236.8c-0.6,0.6-1.1,1.1-1.7,1.7c-0.1,0.1-0.1,0.3,0,0.4c0.1,0.1,0.3,0.1,0.4,0
			c0.6-0.6,1.1-1.1,1.7-1.7c0.1-0.1,0.1-0.3,0-0.4C296,236.6,295.8,236.6,295.7,236.8"/>
	</g>
	<g>
		<path class="st2" d="M296.8,230.1c0.4,0.4,0.8,0.8,1.1,1.1c0.1,0.1,0.3,0.1,0.4,0c0.1-0.1,0.1-0.3,0-0.4c-0.4-0.4-0.8-0.8-1.1-1.1
			c-0.1-0.1-0.3-0.1-0.4,0C296.7,229.8,296.7,230,296.8,230.1"/>
	</g>
	<g>
		<path class="st2" d="M300.7,226.8h1.1c0.2,0,0.3-0.1,0.3-0.3c0-0.2-0.1-0.3-0.3-0.3h-1.1c-0.2,0-0.3,0.1-0.3,0.3
			C300.4,226.7,300.5,226.8,300.7,226.8"/>
	</g>
	<g>
		<path class="st2" d="M299,222.3V220c0-0.4-0.6-0.4-0.6,0v2.3C298.4,222.7,299,222.7,299,222.3"/>
	</g>
	<g>
		<path class="st2" d="M294,225.3c0.3,0.3,0.6,0.6,0.8,0.8c0.1,0.1,0.3,0.1,0.4,0c0.1-0.1,0.1-0.3,0-0.4c-0.3-0.3-0.6-0.6-0.8-0.8
			c-0.1-0.1-0.3-0.1-0.4,0C293.9,225,293.9,225.2,294,225.3"/>
	</g>
	<g>
		<path class="st2" d="M295.7,219.5c-0.4,0.4-0.8,0.8-1.1,1.1c-0.1,0.1-0.1,0.3,0,0.4c0.1,0.1,0.3,0.1,0.4,0
			c0.4-0.4,0.8-0.8,1.1-1.1c0.1-0.1,0.1-0.3,0-0.4C296,219.4,295.8,219.4,295.7,219.5"/>
	</g>
	<g>
		<path class="st2" d="M301.1,237.2c0.4,0.4,0.8,0.8,1.1,1.1c0.1,0.1,0.3,0.1,0.4,0c0.1-0.1,0.1-0.3,0-0.4c-0.4-0.4-0.8-0.8-1.1-1.1
			c-0.1-0.1-0.3-0.1-0.4,0C300.9,236.9,300.9,237.1,301.1,237.2"/>
	</g>
	<g>
		<path class="st2" d="M301,243.5v2.8c0,0.4,0.6,0.4,0.6,0v-2.8C301.6,243.1,301,243.1,301,243.5"/>
	</g>
	<g>
		<path class="st2" d="M293.7,252.7c0.3,0.3,0.6,0.6,0.8,0.8c0.1,0.1,0.3,0.1,0.4,0c0.1-0.1,0.1-0.3,0-0.4c-0.3-0.3-0.6-0.6-0.8-0.8
			c-0.1-0.1-0.3-0.1-0.4,0C293.6,252.4,293.6,252.6,293.7,252.7"/>
	</g>
	<g>
		<path class="st2" d="M297.3,252.2v2.3c0,0.4,0.6,0.4,0.6,0v-2.3C297.9,251.8,297.3,251.8,297.3,252.2"/>
	</g>
	<g>
		<path class="st2" d="M293.4,245.2c-0.9,0.9-1.9,1.9-2.8,2.8c-0.3,0.3,0.2,0.7,0.4,0.4c0.9-0.9,1.9-1.9,2.8-2.8
			C294.1,245.4,293.7,245,293.4,245.2"/>
	</g>
	<g>
		<path class="st2" d="M285.5,248.6c-0.6,0.6-1.1,1.1-1.7,1.7c-0.1,0.1-0.1,0.3,0,0.4c0.1,0.1,0.3,0.1,0.4,0l1.7-1.7
			c0.1-0.1,0.1-0.3,0-0.4C285.8,248.5,285.6,248.5,285.5,248.6"/>
	</g>
	<g>
		<path class="st2" d="M280.3,246.9v2.5c0,0.4,0.6,0.4,0.6,0v-2.5C280.9,246.5,280.3,246.5,280.3,246.9"/>
	</g>
	<g>
		<path class="st2" d="M261.2,233.5c0.6,0.6,1.1,1.1,1.7,1.7c0.1,0.1,0.3,0.1,0.4,0c0.1-0.1,0.1-0.3,0-0.4c-0.6-0.6-1.1-1.1-1.7-1.7
			c-0.1-0.1-0.3-0.1-0.4,0C261.1,233.2,261.1,233.4,261.2,233.5"/>
	</g>
	<g>
		<path class="st2" d="M262.6,230.1c0.6,0.6,1.1,1.1,1.7,1.7c0.1,0.1,0.3,0.1,0.4,0c0.1-0.1,0.1-0.3,0-0.4c-0.6-0.6-1.1-1.1-1.7-1.7
			c-0.1-0.1-0.3-0.1-0.4,0C262.5,229.8,262.5,230,262.6,230.1"/>
	</g>
	<g>
		<path class="st2" d="M262.8,239h2c0.2,0,0.3-0.1,0.3-0.3c0-0.2-0.1-0.3-0.3-0.3h-2c-0.2,0-0.3,0.1-0.3,0.3
			C262.5,238.8,262.7,239,262.8,239"/>
	</g>
	<g>
		<path class="st2" d="M264,248.8c0.5,0.5,0.9,0.9,1.4,1.4c0.1,0.1,0.3,0.1,0.4,0c0.1-0.1,0.1-0.3,0-0.4c-0.5-0.5-0.9-0.9-1.4-1.4
			c-0.1-0.1-0.3-0.1-0.4,0C263.9,248.5,263.9,248.7,264,248.8"/>
	</g>
	<g>
		<path class="st2" d="M270.5,246.5c0.3,0.3,0.6,0.6,0.8,0.8c0.1,0.1,0.3,0.1,0.4,0c0.1-0.1,0.1-0.3,0-0.4c-0.3-0.3-0.6-0.6-0.8-0.8
			c-0.1-0.1-0.3-0.1-0.4,0C270.4,246.2,270.4,246.4,270.5,246.5"/>
	</g>
	<g>
		<path class="st2" d="M273.6,242.3l2,2c0.1,0.1,0.3,0.1,0.4,0c0.1-0.1,0.1-0.3,0-0.4l-2-2c-0.1-0.1-0.3-0.1-0.4,0
			C273.5,242,273.5,242.2,273.6,242.3"/>
	</g>
	<g>
		<path class="st2" d="M272.1,237.8c0.4-0.4,0.8-0.8,1.1-1.1c0.1-0.1,0.1-0.3,0-0.4c-0.1-0.1-0.3-0.1-0.4,0
			c-0.4,0.4-0.8,0.8-1.1,1.1c-0.1,0.1-0.1,0.3,0,0.4C271.8,237.9,272,237.9,272.1,237.8"/>
	</g>
	<g>
		<path class="st2" d="M275,253.1v2.5c0,0.4,0.6,0.4,0.6,0v-2.5C275.6,252.7,275,252.7,275,253.1"/>
	</g>
	<g>
		<path class="st2" d="M278.9,257v2c0,0.2,0.1,0.3,0.3,0.3c0.2,0,0.3-0.1,0.3-0.3v-2c0-0.2-0.1-0.3-0.3-0.3
			C279.1,256.7,278.9,256.9,278.9,257"/>
	</g>
	<g>
		<path class="st2" d="M268.5,259.9h3.1c0.4,0,0.4-0.6,0-0.6h-3.1C268.1,259.3,268.1,259.9,268.5,259.9"/>
	</g>
	<g>
		<path class="st2" d="M275.5,260.2v1.7c0,0.2,0.1,0.3,0.3,0.3c0.2,0,0.3-0.1,0.3-0.3v-1.7c0-0.2-0.1-0.3-0.3-0.3
			C275.7,259.9,275.5,260,275.5,260.2"/>
	</g>
	<g>
		<path class="st2" d="M279.3,266l2,2c0.1,0.1,0.3,0.1,0.4,0c0.1-0.1,0.1-0.3,0-0.4l-2-2c-0.1-0.1-0.3-0.1-0.4,0
			C279.2,265.7,279.2,265.9,279.3,266"/>
	</g>
	<g>
		<path class="st2" d="M284.2,264.6l1.7-1.7c0.1-0.1,0.1-0.3,0-0.4c-0.1-0.1-0.3-0.1-0.4,0c-0.6,0.6-1.1,1.1-1.7,1.7
			c-0.1,0.1-0.1,0.3,0,0.4C283.9,264.7,284.1,264.7,284.2,264.6"/>
	</g>
	<g>
		<path class="st2" d="M286.5,256.7c0.6-0.6,1.1-1.1,1.7-1.7c0.1-0.1,0.1-0.3,0-0.4c-0.1-0.1-0.3-0.1-0.4,0
			c-0.6,0.6-1.1,1.1-1.7,1.7c-0.1,0.1-0.1,0.3,0,0.4C286.2,256.8,286.4,256.8,286.5,256.7"/>
	</g>
	<g>
		<path class="st2" d="M264.5,261.9v2c0,0.2,0.1,0.3,0.3,0.3c0.2,0,0.3-0.1,0.3-0.3v-2c0-0.2-0.1-0.3-0.3-0.3
			C264.6,261.6,264.5,261.7,264.5,261.9"/>
	</g>
	<g>
		<path class="st2" d="M268.3,263.5c0.5,0.5,0.9,0.9,1.4,1.4c0.1,0.1,0.3,0.1,0.4,0c0.1-0.1,0.1-0.3,0-0.4c-0.5-0.5-0.9-0.9-1.4-1.4
			c-0.1-0.1-0.3-0.1-0.4,0C268.2,263.2,268.1,263.4,268.3,263.5"/>
	</g>
	<g>
		<path class="st2" d="M271.6,255.6h-1.4c-0.2,0-0.3,0.1-0.3,0.3c0,0.2,0.1,0.3,0.3,0.3h1.4c0.2,0,0.3-0.1,0.3-0.3
			C271.9,255.7,271.8,255.6,271.6,255.6"/>
	</g>
	<g>
		<path class="st2" d="M285.1,244c0.5-0.5,0.9-0.9,1.4-1.4c0.1-0.1,0.1-0.3,0-0.4c-0.1-0.1-0.3-0.1-0.4,0c-0.5,0.5-0.9,0.9-1.4,1.4
			c-0.1,0.1-0.1,0.3,0,0.4C284.8,244.1,285,244.1,285.1,244"/>
	</g>
	<g>
		<path class="st2" d="M288.6,271.5c-0.8,0.8-1.5,1.5-2.3,2.3c-0.3,0.3,0.2,0.7,0.4,0.4c0.8-0.8,1.5-1.5,2.3-2.3
			C289.3,271.7,288.9,271.2,288.6,271.5"/>
	</g>
	<g>
		<path class="st2" d="M280.9,276.5v2.3c0,0.4,0.6,0.4,0.6,0v-2.3C281.5,276.2,280.9,276.2,280.9,276.5"/>
	</g>
	<g>
		<path class="st2" d="M275,276.3c-0.4,0.4-0.8,0.8-1.1,1.1c-0.1,0.1-0.1,0.3,0,0.4c0.1,0.1,0.3,0.1,0.4,0c0.4-0.4,0.8-0.8,1.1-1.1
			c0.1-0.1,0.1-0.3,0-0.4C275.4,276.2,275.2,276.2,275,276.3"/>
	</g>
	<g>
		<path class="st2" d="M275.9,273.7c0.6,0.6,1.1,1.1,1.7,1.7c0.1,0.1,0.3,0.1,0.4,0c0.1-0.1,0.1-0.3,0-0.4c-0.6-0.6-1.1-1.1-1.7-1.7
			c-0.1-0.1-0.3-0.1-0.4,0C275.8,273.3,275.8,273.5,275.9,273.7"/>
	</g>
	<g>
		<path class="st2" d="M268.5,280.3c-0.8,0.8-1.7,1.7-2.5,2.5c-0.3,0.3,0.2,0.7,0.4,0.4c0.8-0.8,1.7-1.7,2.5-2.5
			C269.3,280.4,268.8,280,268.5,280.3"/>
	</g>
	<g>
		<path class="st2" d="M271,273.4v1.1c0,0.2,0.1,0.3,0.3,0.3c0.2,0,0.3-0.1,0.3-0.3v-1.1c0-0.2-0.1-0.3-0.3-0.3
			C271.1,273.1,271,273.3,271,273.4"/>
	</g>
	<g>
		<path class="st2" d="M262.8,280.2v1.7c0,0.2,0.1,0.3,0.3,0.3c0.2,0,0.3-0.1,0.3-0.3v-1.7c0-0.2-0.1-0.3-0.3-0.3
			C262.9,279.9,262.8,280.1,262.8,280.2"/>
	</g>
	<g>
		<path class="st2" d="M263.1,290.4h2.5c0.4,0,0.4-0.6,0-0.6h-2.5C262.7,289.8,262.7,290.4,263.1,290.4"/>
	</g>
	<g>
		<path class="st2" d="M268,287.5c0.4,0.4,0.8,0.8,1.1,1.1c0.1,0.1,0.3,0.1,0.4,0c0.1-0.1,0.1-0.3,0-0.4c-0.4-0.4-0.8-0.8-1.1-1.1
			c-0.1-0.1-0.3-0.1-0.4,0C267.9,287.2,267.9,287.4,268,287.5"/>
	</g>
	<g>
		<path class="st2" d="M269.9,293.5v0.8c0,0.2,0.1,0.3,0.3,0.3c0.2,0,0.3-0.1,0.3-0.3v-0.8c0-0.2-0.1-0.3-0.3-0.3
			C270,293.2,269.9,293.3,269.9,293.5"/>
	</g>
	<g>
		<path class="st2" d="M264.2,295.2v1.4c0,0.2,0.1,0.3,0.3,0.3c0.2,0,0.3-0.1,0.3-0.3v-1.4c0-0.2-0.1-0.3-0.3-0.3
			C264.4,294.9,264.2,295,264.2,295.2"/>
	</g>
	<g>
		<path class="st2" d="M279.3,290.9l2,2c0.1,0.1,0.3,0.1,0.4,0c0.1-0.1,0.1-0.3,0-0.4l-2-2c-0.1-0.1-0.3-0.1-0.4,0
			C279.2,290.6,279.2,290.8,279.3,290.9"/>
	</g>
	<g>
		<path class="st2" d="M286.5,288.7v2c0,0.2,0.1,0.3,0.3,0.3c0.2,0,0.3-0.1,0.3-0.3v-2c0-0.2-0.1-0.3-0.3-0.3
			C286.7,288.4,286.5,288.5,286.5,288.7"/>
	</g>
	<g>
		<path class="st2" d="M292.8,285.9v2.8c0,0.4,0.6,0.4,0.6,0v-2.8C293.4,285.5,292.8,285.5,292.8,285.9"/>
	</g>
	<g>
		<path class="st2" d="M296.5,284.1c0.6,0.6,1.1,1.1,1.7,1.7c0.1,0.1,0.3,0.1,0.4,0c0.1-0.1,0.1-0.3,0-0.4c-0.6-0.6-1.1-1.1-1.7-1.7
			c-0.1-0.1-0.3-0.1-0.4,0C296.4,283.8,296.4,284,296.5,284.1"/>
	</g>
	<g>
		<path class="st2" d="M298.1,279.6c0.3-0.3,0.6-0.6,0.8-0.8c0.1-0.1,0.1-0.3,0-0.4c-0.1-0.1-0.3-0.1-0.4,0
			c-0.3,0.3-0.6,0.6-0.8,0.8c-0.1,0.1-0.1,0.3,0,0.4C297.8,279.7,298,279.7,298.1,279.6"/>
	</g>
	<g>
		<path class="st2" d="M287.5,277.9l1.7,1.7c0.1,0.1,0.3,0.1,0.4,0c0.1-0.1,0.1-0.3,0-0.4c-0.6-0.6-1.1-1.1-1.7-1.7
			c-0.1-0.1-0.3-0.1-0.4,0C287.4,277.6,287.4,277.8,287.5,277.9"/>
	</g>
	<g>
		<path class="st2" d="M285.8,281.4c-0.4,0.4-0.8,0.8-1.1,1.1c-0.1,0.1-0.1,0.3,0,0.4c0.1,0.1,0.3,0.1,0.4,0
			c0.4-0.4,0.8-0.8,1.1-1.1c0.1-0.1,0.1-0.3,0-0.4C286.1,281.3,285.9,281.3,285.8,281.4"/>
	</g>
	<g>
		<path class="st2" d="M275.8,285v1.7c0,0.2,0.1,0.3,0.3,0.3c0.2,0,0.3-0.1,0.3-0.3V285c0-0.2-0.1-0.3-0.3-0.3
			C275.9,284.7,275.8,284.9,275.8,285"/>
	</g>
	<g>
		<path class="st2" d="M275,295.1c0.6,0.6,1.1,1.1,1.7,1.7c0.1,0.1,0.3,0.1,0.4,0c0.1-0.1,0.1-0.3,0-0.4c-0.6-0.6-1.1-1.1-1.7-1.7
			c-0.1-0.1-0.3-0.1-0.4,0C274.9,294.8,274.9,295,275,295.1"/>
	</g>
	<g>
		<path class="st2" d="M279.2,298.9v2.5c0,0.4,0.6,0.4,0.6,0v-2.5C279.8,298.5,279.2,298.5,279.2,298.9"/>
	</g>
	<g>
		<path class="st2" d="M275.5,303.4v1.4c0,0.2,0.1,0.3,0.3,0.3c0.2,0,0.3-0.1,0.3-0.3v-1.4c0-0.2-0.1-0.3-0.3-0.3
			C275.7,303.1,275.5,303.2,275.5,303.4"/>
	</g>
	<g>
		<path class="st2" d="M283.2,305.1v-1.4c0-0.2-0.1-0.3-0.3-0.3c-0.2,0-0.3,0.1-0.3,0.3v1.4c0,0.2,0.1,0.3,0.3,0.3
			C283.1,305.4,283.2,305.3,283.2,305.1"/>
	</g>
	<g>
		<path class="st2" d="M290.2,298.7c-0.5-0.5-0.9-0.9-1.4-1.4c-0.1-0.1-0.3-0.1-0.4,0c-0.1,0.1-0.1,0.3,0,0.4
			c0.5,0.5,0.9,0.9,1.4,1.4c0.1,0.1,0.3,0.1,0.4,0C290.3,299,290.3,298.8,290.2,298.7"/>
	</g>
	<g>
		<path class="st2" d="M296.8,294.1c-0.6,0.6-1.1,1.1-1.7,1.7c-0.1,0.1-0.1,0.3,0,0.4c0.1,0.1,0.3,0.1,0.4,0
			c0.6-0.6,1.1-1.1,1.7-1.7c0.1-0.1,0.1-0.3,0-0.4C297.1,294,296.9,294,296.8,294.1"/>
	</g>
	<g>
		<path class="st2" d="M299.5,296.3v1.1c0,0.2,0.1,0.3,0.3,0.3c0.2,0,0.3-0.1,0.3-0.3v-1.1c0-0.2-0.1-0.3-0.3-0.3
			C299.7,296,299.5,296.2,299.5,296.3"/>
	</g>
	<g>
		<path class="st2" d="M299.5,291.2c0.4-0.4,0.8-0.8,1.1-1.1c0.1-0.1,0.1-0.3,0-0.4c-0.1-0.1-0.3-0.1-0.4,0
			c-0.4,0.4-0.8,0.8-1.1,1.1c-0.1,0.1-0.1,0.3,0,0.4C299.2,291.3,299.4,291.3,299.5,291.2"/>
	</g>
	<g>
		<path class="st2" d="M284.1,295.8c-0.6,0.6-1.1,1.1-1.7,1.7c-0.1,0.1-0.1,0.3,0,0.4c0.1,0.1,0.3,0.1,0.4,0
			c0.6-0.6,1.1-1.1,1.7-1.7c0.1-0.1,0.1-0.3,0-0.4C284.4,295.7,284.2,295.7,284.1,295.8"/>
	</g>
	<g>
		<path class="st2" d="M279.4,285.2c0.5-0.5,0.9-0.9,1.4-1.4c0.1-0.1,0.1-0.3,0-0.4c-0.1-0.1-0.3-0.1-0.4,0
			c-0.5,0.5-0.9,0.9-1.4,1.4c-0.1,0.1-0.1,0.3,0,0.4C279.1,285.4,279.3,285.4,279.4,285.2"/>
	</g>
	<g>
		<path class="st2" d="M286.3,269.5v-2.3c0-0.4-0.6-0.4-0.6,0v2.3C285.7,269.9,286.3,269.9,286.3,269.5"/>
	</g>
	<g>
		<path class="st2" d="M289.7,267.8v-1.7c0-0.2-0.1-0.3-0.3-0.3c-0.2,0-0.3,0.1-0.3,0.3v1.7c0,0.2,0.1,0.3,0.3,0.3
			C289.6,268.1,289.7,268,289.7,267.8"/>
	</g>
	<g>
		<path class="st2" d="M297.1,242.1c-0.4,0.4-0.8,0.8-1.1,1.1c-0.1,0.1-0.1,0.3,0,0.4c0.1,0.1,0.3,0.1,0.4,0
			c0.4-0.4,0.8-0.8,1.1-1.1c0.1-0.1,0.1-0.3,0-0.4C297.4,242,297.2,242,297.1,242.1"/>
	</g>
	<g>
		<path class="st2" d="M290.8,241.2v1.7c0,0.2,0.1,0.3,0.3,0.3c0.2,0,0.3-0.1,0.3-0.3v-1.7c0-0.2-0.1-0.3-0.3-0.3
			C290.9,240.9,290.8,241,290.8,241.2"/>
	</g>
	<g>
		<path class="st2" d="M280.4,233h1.4c0.2,0,0.3-0.1,0.3-0.3c0-0.2-0.1-0.3-0.3-0.3h-1.4c-0.2,0-0.3,0.1-0.3,0.3
			C280.1,232.9,280.2,233,280.4,233"/>
	</g>
	<g>
		<path class="st2" d="M285.1,301.1c0.4-0.4,0.8-0.8,1.1-1.1c0.1-0.1,0.1-0.3,0-0.4c-0.1-0.1-0.3-0.1-0.4,0
			c-0.4,0.4-0.8,0.8-1.1,1.1c-0.1,0.1-0.1,0.3,0,0.4C284.8,301.2,285,301.2,285.1,301.1"/>
	</g>
	<g>
		<path class="st2" d="M291,294.6c0.4-0.4,0.8-0.8,1.1-1.1c0.1-0.1,0.1-0.3,0-0.4c-0.1-0.1-0.3-0.1-0.4,0c-0.4,0.4-0.8,0.8-1.1,1.1
			c-0.1,0.1-0.1,0.3,0,0.4C290.7,294.7,290.9,294.7,291,294.6"/>
	</g>
	<g>
		<path class="st2" d="M292.8,277.7v2.3c0,0.4,0.6,0.4,0.6,0v-2.3C293.4,277.3,292.8,277.3,292.8,277.7"/>
	</g>
	<g>
		<path class="st2" d="M271.8,283.9v2.8c0,0.4,0.6,0.4,0.6,0v-2.8C272.5,283.5,271.8,283.5,271.8,283.9"/>
	</g>
	<g>
		<path class="st2" d="M270.2,299.2h1.7c0.2,0,0.3-0.1,0.3-0.3c0-0.2-0.1-0.3-0.3-0.3h-1.7c-0.2,0-0.3,0.1-0.3,0.3
			C269.9,299,270,299.2,270.2,299.2"/>
	</g>
	<g>
		<path class="st2" d="M287.5,303.7c-0.5,0.5-0.9,0.9-1.4,1.4c-0.1,0.1-0.1,0.3,0,0.4c0.1,0.1,0.3,0.1,0.4,0
			c0.5-0.5,0.9-0.9,1.4-1.4c0.1-0.1,0.1-0.3,0-0.4C287.8,303.6,287.6,303.6,287.5,303.7"/>
	</g>
</g>
<g id="Cup">
	<g>
		<g>
			<path class="st2" d="M185.2,167.6c-1.3,0.2-2.6,0.1-3.9,0c-1.2-0.1-2.4-0.1-3.5,0.1c-1.1,0.2-2.1,0.7-2.9,1.4
				c-0.9,0.8-1.3,1.9-1.5,3c-0.7,3.9-0.3,9,3.1,11.6c1.1,0.8,2.5,1.3,3.8,1.5c1.5,0.3,3,0.5,4.6,0.8c0.6,0.1,1.2-0.2,1.3-0.7
				c0.1-0.5-0.2-1.2-0.7-1.3c-1.3-0.2-2.5-0.4-3.8-0.6c-1.1-0.2-2.2-0.4-3.1-0.9c-1.5-0.8-2.4-2.2-2.9-3.8c-0.5-1.7-0.5-3.5-0.3-5.3
				c0.1-0.9,0.3-1.9,0.8-2.6c0.6-0.6,1.3-0.9,2.1-1.1c1-0.2,2.2-0.1,3.3,0c1.4,0.1,2.8,0.2,4.3,0c0.6-0.1,0.9-0.8,0.7-1.3
				C186.4,167.7,185.8,167.4,185.2,167.6L185.2,167.6z"/>
		</g>
	</g>
	<g>
		<path class="st1" d="M186.3,195h21.5c2.2,0,4-1.8,4-4v-27.9h-27.4c-1.2,0-2.1,1-2.1,2.1v25.7C182.2,193.1,184.1,195,186.3,195z"/>
		<path class="st2" d="M207.6,195.3h-21.1c-2.5,0-4.6-2-4.6-4.6v-25.4c0-1.4,1.2-2.6,2.6-2.6h25c1.4,0,2.6,1.2,2.6,2.6v25.4
			C212.1,193.2,210.1,195.3,207.6,195.3z M184.5,163.4c-1.1,0-2,0.9-2,2v25.4c0,2.2,1.8,3.9,3.9,3.9h21.1c2.2,0,3.9-1.8,3.9-3.9
			v-25.4c0-1.1-0.9-2-2-2H184.5z"/>
	</g>
	<g>
		<path class="st4" d="M197.3,158.9c0,0,6.9-5.2,7.6-11.4c0.7-6.2-5.9-9.3-6.6-14.2c-0.7-4.8,2.1-9.3,2.1-9.3s-6.6,5.2-6.6,11.4
			c0,6.2,4.8,7.3,5.5,11.4C200.4,153,197.3,158.9,197.3,158.9z"/>
		<path class="st2" d="M197.3,159.2c-0.1,0-0.1,0-0.2-0.1c-0.1-0.1-0.1-0.2-0.1-0.4c0-0.1,3-5.9,2-11.9c-0.3-1.7-1.3-2.8-2.4-4.1
			c-1.5-1.7-3.2-3.7-3.2-7.4c0-6.3,6.4-11.4,6.7-11.7c0.1-0.1,0.3-0.1,0.4,0c0.1,0.1,0.1,0.3,0.1,0.4c0,0-2.7,4.5-2,9.1
			c0.3,2,1.6,3.7,3,5.5c1.9,2.5,4,5.1,3.6,8.8c-0.4,3.3-2.5,6.3-4.1,8.2c-1.8,2.1-3.5,3.4-3.6,3.4
			C197.4,159.2,197.4,159.2,197.3,159.2z M199.4,125.4c-1.9,1.8-5.2,5.7-5.2,10.1c0,3.5,1.5,5.3,3,7c1.1,1.3,2.2,2.5,2.5,4.4
			c0.8,4.6-0.7,9-1.5,11.1c1.9-1.7,6-5.8,6.5-10.4c0.4-3.4-1.6-5.9-3.4-8.3c-1.5-1.9-2.8-3.6-3.1-5.8
			C197.6,130.1,198.6,127.1,199.4,125.4z"/>
	</g>
</g>
<g id="Computer">
	<g>
		<path class="st4" d="M213.4,175.6H323c2.4,0,4.3-1.8,4.6-4.1l7.6-73.3c0.3-2.7-1.8-5.1-4.6-5.1H221c-2.4,0-4.3,1.8-4.6,4.1
			l-7.6,73.3C208.6,173.2,210.7,175.6,213.4,175.6z"/>
		<path class="st2" d="M323,175.9H213.4c-1.4,0-2.7-0.6-3.6-1.6c-0.9-1-1.4-2.4-1.2-3.8l7.6-73.3c0.3-2.5,2.4-4.4,4.9-4.4h109.5
			c1.4,0,2.7,0.6,3.6,1.6c0.9,1,1.4,2.4,1.2,3.8l-7.6,73.3C327.6,174,325.5,175.9,323,175.9z M221,93.4c-2.2,0-4,1.7-4.3,3.8
			l-7.6,73.3c-0.1,1.2,0.3,2.4,1.1,3.3c0.8,0.9,2,1.4,3.2,1.4H323c2.2,0,4-1.7,4.3-3.8l7.6-73.3c0.1-1.2-0.3-2.4-1.1-3.3
			c-0.8-0.9-2-1.4-3.2-1.4H221z"/>
	</g>
	<g>
		<path class="st4" d="M215.8,175.6H323c2.4,0,4.3-1.8,4.6-4.1l7.6-73.3c0.3-2.7-1.8-5.1-4.6-5.1H224.3L215.8,175.6z"/>
		<path class="st2" d="M323,175.9H215.8c-0.1,0-0.2,0-0.2-0.1c-0.1-0.1-0.1-0.2-0.1-0.2l8.5-82.5c0-0.2,0.1-0.3,0.3-0.3h106.2
			c1.4,0,2.7,0.6,3.6,1.6c0.9,1,1.4,2.4,1.2,3.8l-7.6,73.3C327.6,174,325.5,175.9,323,175.9z M216.1,175.3H323c2.2,0,4-1.7,4.3-3.8
			l7.6-73.3c0.1-1.2-0.3-2.4-1.1-3.3c-0.8-0.9-2-1.4-3.2-1.4H224.6L216.1,175.3z"/>
	</g>
	<g>
		<path class="st4" d="M260.7,195h41l-11.8-33c-0.5-1.3-1.7-2.2-3.2-2.2h-21.5c-0.6,0-1.2,0.2-1.7,0.5c-0.3,0.2-0.6,0.4-0.9,0.7
			c-0.4,0.5-0.7,1.1-0.8,1.8c0,0.1,0,0.2,0,0.2l-1,26L260.7,195z"/>
		<path class="st2" d="M301.7,195.3h-41c-0.1,0-0.2,0-0.2-0.1c-0.1-0.1-0.1-0.1-0.1-0.2l1.2-32c0-0.1,0-0.2,0-0.3
			c0.1-0.7,0.4-1.4,0.9-2c0.3-0.3,0.6-0.6,0.9-0.8c0.6-0.3,1.2-0.5,1.8-0.5h21.5c1.5,0,2.9,1,3.5,2.4l11.8,33c0,0.1,0,0.2,0,0.3
			C301.9,195.2,301.8,195.3,301.7,195.3z M261.1,194.6h40.2l-11.6-32.6c-0.4-1.2-1.6-2-2.9-2h-21.5c-0.5,0-1.1,0.1-1.5,0.4
			c-0.3,0.2-0.6,0.4-0.8,0.6c-0.4,0.5-0.7,1.1-0.7,1.7c0,0.1,0,0.1,0,0.2L261.1,194.6z"/>
	</g>
	<g>
		<g>
			<path class="st2" d="M278.7,125.9c-0.8-2.6,1.5-5.6,4.2-5.4c-0.1-0.2-0.2-0.3-0.3-0.5c-0.7,1.9-1.8,3.6-3.3,5
				c-0.3,0.3,0.2,0.8,0.5,0.5c1.6-1.5,2.8-3.3,3.5-5.3c0.1-0.2-0.1-0.4-0.3-0.5c-3.2-0.2-5.8,3.3-4.9,6.3
				C278.1,126.5,278.8,126.3,278.7,125.9L278.7,125.9z"/>
		</g>
	</g>
	<g>
		<path class="st2" d="M261.5,175.6h-5.1l5.5-12.9c0,0.1,0,0.2,0,0.2L261.5,175.6z"/>
		<path class="st2" d="M261.5,176h-5.1c-0.1,0-0.3-0.1-0.3-0.2c-0.1-0.1-0.1-0.3,0-0.4l5.5-12.9c0.1-0.2,0.3-0.3,0.5-0.2
			c0.2,0.1,0.3,0.3,0.3,0.5c0,0.1,0,0.1,0,0.2l-0.5,12.6C261.9,175.8,261.7,176,261.5,176z M257,175.2h4l0.4-10.3L257,175.2z"/>
	</g>
	<g>
		<g>
			<path class="st2" d="M281.4,129.2c-0.6-1.2-2.4-1.6-3.6-1.6c-0.7,0-1.3,0.2-2,0.5c-0.4,0.2-0.8,0.4-1.2,0.6
				c-0.4,0.3-0.7,0.8-0.9,1.2c-0.9,1.8-1.1,4.1,0.1,5.8c1.1,1.6,3,2.2,4.9,1.7c2-0.6,4-2.3,3.7-4.5c-0.1-0.5-0.8-0.3-0.7,0.2
				c0.3,1.7-1.4,3-2.9,3.5c-1.6,0.6-3.3,0.3-4.4-1.2c-1.1-1.4-1-3.4-0.3-5c0.4-0.8,0.8-1.4,1.6-1.7c0.5-0.2,1-0.5,1.6-0.6
				c1.1-0.1,2.8,0.1,3.4,1.2C281,129.9,281.6,129.6,281.4,129.2L281.4,129.2z"/>
		</g>
	</g>
</g>
<g id="Dropshiper">
	<g>
		<g>
			<path class="st4" d="M47.3,354.3H172c2,0,3.6-1.6,3.6-3.6l0,0c0-9.6-7.8-17.4-17.4-17.4H61.1c-9.6,0-17.4,7.8-17.4,17.4l0,0
				C43.7,352.7,45.3,354.3,47.3,354.3z"/>
			<path class="st2" d="M173.5,354.7H45.8c-1.4,0-2.5-1.1-2.5-2.5v-8.5c0-5.9,4.8-10.6,10.6-10.6h111.3c5.9,0,10.6,4.8,10.6,10.6
				v8.5C175.9,353.5,174.8,354.7,173.5,354.7z M54,333.6c-5.5,0-10,4.5-10,10v8.5c0,1,0.8,1.9,1.9,1.9h127.6c1,0,1.9-0.8,1.9-1.9
				v-8.5c0-5.5-4.5-10-10-10H54z"/>
		</g>
		<g>
			<path class="st4" d="M90.8,284.7h37.7c8.8,0,15.9-7.1,15.9-15.9l0,0H74.9l0,0C74.9,277.6,82,284.7,90.8,284.7z"/>
			<path class="st2" d="M128.5,285H90.8c-8.9,0-16.2-7.3-16.2-16.2c0-0.2,0.1-0.3,0.3-0.3h69.4c0.2,0,0.3,0.1,0.3,0.3
				C144.7,277.7,137.4,285,128.5,285z M75.3,269.1c0.2,8.4,7.1,15.3,15.6,15.3h37.7c8.5,0,15.4-6.8,15.6-15.3H75.3z"/>
		</g>
		<g>
			<path class="st4" d="M102.1,284.7h15.2v48.2c0,4.2-3.4,7.6-7.6,7.6h0c-4.2,0-7.6-3.4-7.6-7.6V284.7z"/>
			<path class="st2" d="M113.1,340.8h-6.9c-2.5,0-4.4-2-4.4-4.4v-51.7c0-0.2,0.1-0.3,0.3-0.3h15.2c0.2,0,0.3,0.1,0.3,0.3v51.7
				C117.6,338.8,115.6,340.8,113.1,340.8z M102.4,285v51.4c0,2.1,1.7,3.8,3.8,3.8h6.9c2.1,0,3.8-1.7,3.8-3.8V285H102.4z"/>
		</g>
		<g>
			<path class="st5" d="M29.3,256h101.8l-19.8-150.6H19.2c-5.1,0-9.1,4.5-8.4,9.6L29.3,256z"/>
			<path class="st2" d="M131.1,256.3H29.3c-0.2,0-0.3-0.1-0.3-0.3L10.4,115c-0.3-2.5,0.4-5,2.1-7c1.7-1.9,4.1-3,6.6-3h92.1
				c0.2,0,0.3,0.1,0.3,0.3l19.8,150.6c0,0.1,0,0.2-0.1,0.2C131.3,256.3,131.2,256.3,131.1,256.3z M29.6,255.7h101.2l-19.8-150H19.2
				c-2.4,0-4.6,1-6.2,2.8c-1.6,1.8-2.3,4.1-2,6.5L29.6,255.7z"/>
		</g>
		<g>
			<polygon class="st5" points="39.2,256 131.1,256 111.3,105.4 19.4,105.4 			"/>
			<path class="st2" d="M131.1,256.3H39.2c-0.2,0-0.3-0.1-0.3-0.3L19.1,105.4c0-0.1,0-0.2,0.1-0.2c0.1-0.1,0.1-0.1,0.2-0.1h91.9
				c0.2,0,0.3,0.1,0.3,0.3l19.8,150.6c0,0.1,0,0.2-0.1,0.2C131.3,256.3,131.2,256.3,131.1,256.3z M39.5,255.7h91.3l-19.8-150H19.8
				L39.5,255.7z"/>
		</g>
		<g>
			<path class="st5" d="M80.5,116.5h-35c-5.6,0-10.3-4.2-11-9.8l0,0c-0.8-6.6,4.4-12.3,11-12.3h35c5.6,0,10.3,4.2,11,9.8l0,0
				C92.3,110.8,87.1,116.5,80.5,116.5z"/>
			<path class="st2" d="M80.5,116.8h-35c-5.8,0-10.6-4.3-11.3-10.1c-0.4-3.2,0.7-6.4,2.8-8.9c2.2-2.4,5.2-3.8,8.5-3.8h35
				c5.8,0,10.6,4.3,11.3,10.1c0.4,3.2-0.7,6.4-2.8,8.9C86.8,115.5,83.8,116.8,80.5,116.8z M45.5,94.7c-3.1,0-6,1.3-8,3.6
				c-2,2.3-3,5.3-2.7,8.4c0.6,5.4,5.2,9.5,10.7,9.5h35c3.1,0,6-1.3,8-3.6c2-2.3,3-5.3,2.7-8.4c-0.6-5.4-5.2-9.5-10.7-9.5H45.5z"/>
		</g>
		<g>
			<path class="st5" d="M29.3,256h169.3v12.8H42.1C35.1,268.8,29.3,263.1,29.3,256L29.3,256z"/>
			<path class="st2" d="M198.6,269.1H42.1c-7.2,0-13.1-5.9-13.1-13.1c0-0.2,0.1-0.3,0.3-0.3h169.3c0.2,0,0.3,0.1,0.3,0.3v12.8
				C198.9,269,198.8,269.1,198.6,269.1z M29.6,256.3c0.2,6.8,5.7,12.2,12.5,12.2h156.1v-12.2H29.6z"/>
		</g>
		<g>
			<rect x="102.1" y="284.7" class="st2" width="15.2" height="6.3"/>
			<path class="st2" d="M117.3,291.4h-15.2c-0.2,0-0.4-0.2-0.4-0.4v-6.3c0-0.2,0.2-0.4,0.4-0.4h15.2c0.2,0,0.4,0.2,0.4,0.4v6.3
				C117.7,291.2,117.5,291.4,117.3,291.4z M102.5,290.5h14.4v-5.5h-14.4V290.5z"/>
		</g>
		<g>
			<path class="st2" d="M76.1,274.8c-0.8-1.8-1.2-3.9-1.2-6h69.4c0,2.1-0.4,4.1-1.2,6H76.1z"/>
			<path class="st2" d="M143.2,275.2H76.1c-0.2,0-0.3-0.1-0.4-0.3c-0.8-2-1.2-4-1.2-6.1c0-0.2,0.2-0.4,0.4-0.4h69.4
				c0.1,0,0.2,0,0.3,0.1c0.1,0.1,0.1,0.2,0.1,0.3c0,2.1-0.4,4.2-1.2,6.1C143.5,275.1,143.4,275.2,143.2,275.2z M76.4,274.4h66.5
				c0.6-1.7,1-3.4,1-5.2H75.4C75.4,271,75.7,272.7,76.4,274.4z"/>
		</g>
		<g>
			
				<rect x="119.3" y="256" transform="matrix(-1 -1.224647e-16 1.224647e-16 -1 317.906 524.7994)" class="st5" width="79.3" height="12.8"/>
			<path class="st2" d="M198.6,269.1h-79.3c-0.2,0-0.3-0.1-0.3-0.3V256c0-0.2,0.1-0.3,0.3-0.3h79.3c0.2,0,0.3,0.1,0.3,0.3v12.8
				C198.9,269,198.8,269.1,198.6,269.1z M119.6,268.5h78.7v-12.2h-78.7V268.5z"/>
		</g>
		<g>
			<g>
				<path class="st2" d="M42.3,98.2c3.7,1.7,5.1,6.7,3.5,10.3c-0.4,1-1.1,2-2,2.7c-0.4,0.3,0.1,0.8,0.5,0.5
					c3.5-2.7,3.7-8.3,1.2-11.8c-0.7-1-1.7-1.8-2.8-2.3C42.3,97.4,41.9,98,42.3,98.2L42.3,98.2z"/>
			</g>
		</g>
	</g>
	<g>
		<g>
			<path class="st4" d="M91.7,157.3l47.2-62.8l39.7,33.5c12.5,10.5,4.9,31-11.5,30.7L91.7,157.3z"/>
			<path class="st2" d="M167.5,158.9c-0.1,0-0.2,0-0.3,0l-75.4-1.3c-0.1,0-0.2-0.1-0.3-0.2c-0.1-0.1,0-0.2,0-0.3l47.2-62.8
				c0.1-0.1,0.1-0.1,0.2-0.1c0.1,0,0.2,0,0.2,0.1l39.7,33.5c5.9,5,7.9,12.5,5.2,19.7C181.3,154.5,175,158.9,167.5,158.9z M92.3,157
				l74.8,1.3c8.9,0.2,14.2-5.6,16.3-11.1c2-5.5,1.8-13.3-5-19.1L139,94.9L92.3,157z"/>
		</g>
		<g>
			<g>
				<path class="st2" d="M128.8,354.3h33.6l9.2-27.3l29.8-88.1l-44.5-12.8l-25.9,96l-8.1,24C121.5,350.2,124.5,354.3,128.8,354.3z"
					/>
				<path class="st2" d="M162.4,354.8h-33.6c-2.2,0-4.1-1-5.4-2.8c-1.3-1.8-1.6-3.9-0.9-6l8.1-24l25.9-96c0-0.1,0.1-0.2,0.2-0.2
					c0.1-0.1,0.2-0.1,0.3,0l44.5,12.8c0.1,0,0.2,0.1,0.2,0.2c0.1,0.1,0.1,0.2,0,0.3l-39,115.4C162.7,354.6,162.5,354.8,162.4,354.8z
					 M157.2,226.6l-25.8,95.6l-8.1,24.1c-0.6,1.8-0.3,3.7,0.8,5.2c1.1,1.5,2.8,2.4,4.7,2.4h33.3l38.8-114.7L157.2,226.6z"/>
			</g>
			<g>
				<path class="st2" d="M128.8,354.3h56.3c3.1,0,5.6-2.5,5.6-5.6v0c0-11-8.2-20.3-19.1-21.7l0,0l-27-3.4l-13.5-1.5l-8.1,24
					C121.5,350.2,124.5,354.3,128.8,354.3z"/>
				<path class="st2" d="M185.1,354.8h-56.3c-2.2,0-4.1-1-5.4-2.8c-1.3-1.8-1.6-3.9-0.9-6l8.1-24c0.1-0.2,0.2-0.3,0.4-0.3l13.5,1.5
					l27,3.4c11.1,1.4,19.5,10.9,19.5,22.1C191.1,352,188.4,354.8,185.1,354.8z M131.3,322.6l-8,23.7c-0.6,1.8-0.3,3.7,0.8,5.2
					c1.1,1.5,2.8,2.4,4.7,2.4h56.3c2.9,0,5.2-2.3,5.2-5.2c0-10.8-8.1-19.9-18.7-21.3l-27-3.4L131.3,322.6z"/>
			</g>
		</g>
		<g>
			<path class="st4" d="M84.9,256h60.5V151.3c0-25.3-20.7-45.9-45.9-45.9l-23.3,1.2c-6.1,13.5-18.6,7.1-18.6,17.2v104.8
				C57.5,243.7,69.8,256,84.9,256z"/>
			<path class="st2" d="M145.4,256.3H84.9c-15.3,0-27.7-12.4-27.7-27.7V123.8c0-5.1,3.2-6.2,6.9-7.5c3.9-1.3,8.7-3,11.8-9.8
				c0-0.1,0.1-0.2,0.3-0.2l23.3-1.2c25.5,0,46.3,20.7,46.3,46.3V256C145.7,256.2,145.6,256.3,145.4,256.3z M76.3,106.9
				c-3.2,6.9-8.1,8.6-12.1,10c-3.7,1.3-6.5,2.2-6.5,6.9v104.8c0,14.9,12.1,27.1,27.1,27.1h60.2V151.3c0-25.2-20.5-45.6-45.6-45.6
				L76.3,106.9z"/>
		</g>
		<g>
			<g>
				
					<rect x="111.6" y="84.6" transform="matrix(0.9179 -0.3968 0.3968 0.9179 -30.2581 56.405)" class="st6" width="19.1" height="33.5"/>
				<path class="st2" d="M118.8,121l-13.6-31.5l18.3-7.9l13.6,31.5L118.8,121z M106.3,90l13,30l16.8-7.3l-13-30L106.3,90z"/>
			</g>
			<g>
				
					<rect x="111.7" y="85" transform="matrix(0.9179 -0.3968 0.3968 0.9179 -30.5312 56.016)" class="st6" width="16.8" height="33.5"/>
				<path class="st2" d="M118.8,121l-13.6-31.5l16.2-7l13.6,31.5L118.8,121z M106.3,90l13,30l14.7-6.3l-13-30L106.3,90z"/>
			</g>
			<g>
				<path class="st7" d="M119.4,91.2l4.8,11.2c2.3,5.2,8.2,7.7,13.4,5.5v0c2.2-0.9,3.2-3.5,2.2-5.7l-7.2-16.6
					c-1-2.2-3.5-3.3-5.7-2.3l-5.3,2.3C119.5,86.4,118.5,89,119.4,91.2z"/>
				<path class="st2" d="M133.7,109.1c-1.3,0-2.7-0.3-4-0.8c-2.6-1.1-4.7-3.1-5.8-5.8l-4.8-11.2c-0.5-1.2-0.5-2.5-0.1-3.7
					c0.5-1.2,1.3-2.1,2.5-2.6l5.3-2.3c2.4-1,5.2,0.1,6.2,2.5l7.2,16.6c0.5,1.2,0.5,2.5,0.1,3.7c-0.5,1.2-1.3,2.1-2.5,2.6
					C136.5,108.8,135.1,109.1,133.7,109.1z M128.6,83.3c-0.5,0-1,0.1-1.5,0.3l-5.3,2.3c-1,0.4-1.7,1.2-2.1,2.2
					c-0.4,1-0.4,2.1,0.1,3.1l0,0l4.8,11.2c2.2,5,7.9,7.4,12.8,5.3c1-0.4,1.7-1.2,2.1-2.2c0.4-1,0.4-2.1-0.1-3.1l-7.2-16.6
					C131.6,84.2,130.2,83.3,128.6,83.3z"/>
			</g>
		</g>
		<g>
			<g>
				<path class="st7" d="M108.5,117.1L108.5,117.1c7.1,0.9,13.6-4,14.5-10.9l2.4-18.6c0.5-3.5-2.1-6.7-5.7-7.2l-16.6-2.1
					c-4-0.5-7.7,2.3-8.2,6.2l-1.7,13.2C92,107.1,98.8,115.9,108.5,117.1z"/>
				<path class="st2" d="M110.1,117.6c-0.6,0-1.1,0-1.7-0.1l0,0c-4.8-0.6-9.1-3-12.1-6.9c-2.9-3.7-4.1-8.3-3.5-12.9l1.7-13.2
					c0.5-4.1,4.4-7.1,8.6-6.5l16.6,2.1c1.9,0.2,3.5,1.2,4.6,2.7c1.1,1.4,1.6,3.2,1.4,5l-2.4,18.6
					C122.5,112.8,116.7,117.6,110.1,117.6z M102.2,78.6c-3.4,0-6.4,2.5-6.8,5.9l-1.7,13.2c-0.6,4.4,0.6,8.8,3.4,12.3
					c2.8,3.7,6.9,6,11.5,6.6h0l0,0c6.8,0.9,13.1-3.9,14-10.6l2.4-18.6c0.2-1.6-0.2-3.1-1.2-4.4c-1-1.3-2.5-2.1-4.1-2.3l-16.6-2.1
					C102.8,78.6,102.5,78.6,102.2,78.6z"/>
			</g>
			<g>
				<path class="st2" d="M91.2,77.8L91.2,77.8c-0.4,2.9,1.7,5.6,4.6,6l23.4,3c5.8,0.7,11.2-3.4,11.9-9.3l0.3-2.3
					c0.4-2.9-1.7-5.6-4.6-6l-21.2-2.7C98.6,65.7,92.1,70.7,91.2,77.8z"/>
				<path class="st2" d="M120.5,87.4c-0.5,0-0.9,0-1.4-0.1l-23.4-3c-3.1-0.4-5.4-3.3-5-6.5l0,0c0.5-3.6,2.3-6.7,5.1-8.9
					c2.8-2.2,6.3-3.1,9.8-2.7l21.2,2.7c3.1,0.4,5.4,3.3,5,6.5l-0.3,2.3c-0.4,2.9-1.9,5.6-4.2,7.4C125.3,86.6,123,87.4,120.5,87.4z
					 M91.6,77.9c-0.3,2.7,1.6,5.2,4.3,5.6l23.4,3c2.7,0.3,5.4-0.4,7.5-2.1c2.2-1.7,3.6-4.1,3.9-6.9l0.3-2.3c0.3-2.7-1.6-5.2-4.3-5.6
					L105.5,67c-3.3-0.4-6.5,0.5-9.2,2.5C93.7,71.6,92,74.5,91.6,77.9L91.6,77.9z"/>
			</g>
			<g>
				<path class="st2" d="M96.6,76.3l5.3,1.5c1.8,0.5,2.8,2.7,2.2,5l-5.7,20.6c-0.6,2.2-2.6,3.6-4.4,3.1l-1.2-0.3
					c-7.3-2-11.2-11-8.7-20l0.3-1.2C86.1,78.8,91.5,74.9,96.6,76.3z"/>
				<path class="st2" d="M94.6,107c-0.3,0-0.6,0-0.9-0.1l-1.2-0.3c-7.5-2.1-11.5-11.3-9-20.5l0.3-1.2c1-3.5,3.2-6.5,6-8.1
					c2.1-1.2,4.5-1.6,6.7-0.9l0,0l5.3,1.5c2,0.6,3.1,3,2.4,5.5l-5.7,20.6c-0.4,1.3-1.2,2.5-2.3,3.1C95.8,106.8,95.2,107,94.6,107z
					 M94.5,76.4c-1.4,0-2.8,0.4-4.1,1.1c-2.6,1.5-4.7,4.3-5.6,7.6l-0.3,1.2c-2.4,8.8,1.3,17.6,8.4,19.5l1.2,0.3
					c0.7,0.2,1.3,0.1,2-0.3c0.9-0.5,1.6-1.4,1.9-2.6l5.7-20.6c0.6-2-0.3-4-1.9-4.5l-5.3-1.5C95.8,76.5,95.1,76.4,94.5,76.4z"/>
			</g>
			<g>
				<path class="st7" d="M102.7,91.6c-3.2-4.6-7.1-2.3-7.5-0.1L95,93c-0.6,3.1,1.5,6.1,4.6,6.7l1.2,0.2"/>
				<path class="st2" d="M100.8,100.3C100.7,100.3,100.7,100.3,100.8,100.3l-1.3-0.2c-1.6-0.3-3-1.2-3.9-2.6c-0.9-1.4-1.3-3-1-4.6
					l0.3-1.5c0.2-1.3,1.5-2.5,2.9-2.8c1.1-0.2,3.2-0.2,5.3,2.8c0.1,0.2,0.1,0.4-0.1,0.6c-0.2,0.1-0.4,0.1-0.6-0.1
					c-1.3-1.9-2.9-2.8-4.4-2.4c-1.3,0.3-2.2,1.3-2.3,2.2l-0.3,1.5c-0.3,1.4,0,2.8,0.9,4c0.8,1.2,2,2,3.4,2.2l1.2,0.2
					c0.2,0,0.4,0.3,0.3,0.5C101.1,100.2,100.9,100.3,100.8,100.3z"/>
			</g>
		</g>
		<g>
			<g>
				<path class="st2" d="M170.9,217.2c15.4,0,29.1,9.8,34.1,24.4l28.6,84.6l9.5,28.1h-37.8c-2.7,0-5-1.7-5.9-4.2l-9.8-29.1l-26.9-65
					H85.3c-18.9,0-27.8-15.3-27.8-34.3v-4.5H170.9z"/>
				<path class="st2" d="M243.1,354.8h-37.8c-2.8,0-5.4-1.8-6.3-4.5l-9.8-29.1l-26.7-64.7H85.3c-17.4,0-28.2-13.3-28.2-34.7v-4.5
					c0-0.2,0.2-0.4,0.4-0.4h113.4c15.6,0,29.4,9.9,34.4,24.7l28.6,84.6l9.5,28.1c0,0.1,0,0.3-0.1,0.4
					C243.3,354.7,243.2,354.8,243.1,354.8z M57.9,217.6v4.1c0,9.7,2.3,18,6.7,24c4.8,6.5,11.9,9.9,20.6,9.9h77.4
					c0.2,0,0.3,0.1,0.4,0.3l26.9,65l9.9,29.2c0.8,2.4,3,3.9,5.5,3.9h37.2l-9.3-27.5l-28.6-84.6c-4.9-14.4-18.4-24.2-33.7-24.2H57.9z
					"/>
			</g>
			<g>
				<path class="st2" d="M189.6,321l9.8,29.1c0.9,2.5,3.2,4.2,5.9,4.2h48.1c3.1,0,5.6-2.5,5.6-5.6l0,0c0-11-8.2-20.3-19.1-21.7
					l-6.3-0.8l-20.7-2.6L189.6,321z"/>
				<path class="st2" d="M253.4,354.8h-48.1c-2.8,0-5.4-1.8-6.3-4.5l-9.8-29.1c0-0.1,0-0.3,0.1-0.4c0.1-0.1,0.2-0.2,0.4-0.1
					l23.3,2.7l27,3.4c11.1,1.4,19.5,10.9,19.5,22.1C259.4,352,256.7,354.8,253.4,354.8z M190.2,321.5l9.6,28.5
					c0.8,2.4,3,3.9,5.5,3.9h48.1c2.9,0,5.2-2.3,5.2-5.2c0-10.8-8.1-19.9-18.8-21.2l-27-3.4L190.2,321.5z"/>
			</g>
		</g>
		<g>
			<g>
				<polygon class="st2" points="91,132.5 57.6,174 57.6,196.1 100.5,194 				"/>
				<path class="st2" d="M57.6,196.5c-0.1,0-0.2,0-0.3-0.1c-0.1-0.1-0.1-0.2-0.1-0.3v-22c0-0.1,0-0.2,0.1-0.3l33.4-41.6
					c0.1-0.1,0.3-0.2,0.4-0.1c0.2,0,0.3,0.2,0.3,0.3l9.5,61.5c0,0.1,0,0.2-0.1,0.3c-0.1,0.1-0.2,0.1-0.3,0.1L57.6,196.5
					C57.6,196.5,57.6,196.5,57.6,196.5z M58,174.2v21.5l42-2l-9.3-60.2L58,174.2z"/>
			</g>
			<g>
				<path class="st4" d="M91,132.5V165l32.3,4.1c4.5,0.6,7.8,4.4,7.8,8.9v17H91H77.2c-12.5,0-22.5-10.1-22.5-22.5v-11.1v-28.9
					c0-14.9,12.1-27,27-27H91"/>
				<path class="st2" d="M131.1,195.3H77.2c-12.6,0-22.9-10.3-22.9-22.9v-40.1c0-15,12.2-27.3,27.3-27.3H91c0.2,0,0.3,0.1,0.3,0.3
					c0,0.2-0.1,0.3-0.3,0.3h-9.5c-14.7,0-26.6,12-26.6,26.6v40.1c0,12.3,10,22.2,22.2,22.2h53.6v-16.7c0-4.3-3.2-8-7.5-8.5L91,165.3
					c-0.2,0-0.3-0.1-0.3-0.3v-32.5c0-0.2,0.1-0.3,0.3-0.3c0.2,0,0.3,0.1,0.3,0.3v32.2l32,4.1c4.6,0.6,8.1,4.5,8.1,9.2v17
					C131.4,195.1,131.3,195.3,131.1,195.3z"/>
			</g>
			<g>
				<path class="st7" d="M157.1,195h-32.6c-5.9,0-10.8-4.9-10.8-10.8l0,0c0-5.9,4.9-10.8,10.8-10.8h33.1c5.7,0,10.3,4.6,10.3,10.3
					v0.5C168,190.1,163.1,195,157.1,195z"/>
				<path class="st2" d="M157.1,195.4h-32.6c-6.2,0-11.2-5-11.2-11.2c0-6.2,5-11.2,11.2-11.2h33.1c5.9,0,10.7,4.8,10.7,10.7v0.5
					C168.4,190.3,163.3,195.4,157.1,195.4z M124.5,173.7c-5.7,0-10.4,4.7-10.4,10.4s4.7,10.4,10.4,10.4h32.6
					c5.7,0,10.4-4.7,10.4-10.4v-0.5c0-5.5-4.4-9.9-9.9-9.9H124.5z"/>
			</g>
			<g>
				<path class="st4" d="M170.3,195h-37.2l0,0c0-7.4,6-13.4,13.4-13.4h10.4C164.3,181.6,170.3,187.6,170.3,195L170.3,195z"/>
				<path class="st2" d="M170.3,195.3h-37.2c-0.2,0-0.3-0.1-0.3-0.3c0-7.5,6.1-13.7,13.7-13.7h10.4c7.5,0,13.7,6.1,13.7,13.7
					C170.6,195.1,170.4,195.3,170.3,195.3z M133.4,194.6H170c-0.2-7.1-6-12.8-13.1-12.8h-10.4C139.4,181.9,133.5,187.6,133.4,194.6z
					"/>
			</g>
			<g>
				<path class="st7" d="M143.9,195h-17.8c-0.8,0-1.4-0.6-1.4-1.4v-16.6c0-2,1.6-3.6,3.6-3.6h18.5c1.1,0,2,0.9,2,2v14.7
					C148.8,192.8,146.6,195,143.9,195z"/>
				<path class="st2" d="M143.9,195.4h-17.4c-1.2,0-2.2-1-2.2-2.2v-16.4c0-2.1,1.7-3.9,3.9-3.9h18.7c1.3,0,2.4,1.1,2.4,2.4V190
					C149.2,193,146.8,195.4,143.9,195.4z M128.1,173.7c-1.7,0-3,1.4-3,3v16.4c0,0.7,0.6,1.3,1.3,1.3h17.4c2.5,0,4.5-2,4.5-4.5v-14.7
					c0-0.9-0.7-1.6-1.6-1.6H128.1z"/>
			</g>
			<g>
				<path class="st7" d="M149.9,185.1L149.9,185.1c-2.4,0-4.4-2-4.4-4.4v-3c0-2.4,2-4.4,4.4-4.4h2.5c2.4,0,4.4,2,4.4,4.4v0.5
					C156.7,182,153.6,185.1,149.9,185.1z"/>
				<path class="st2" d="M149.9,185.5c-2.6,0-4.8-2.1-4.8-4.8v-3c0-2.6,2.1-4.8,4.8-4.8h2.5c2.6,0,4.8,2.1,4.8,4.8v0.5
					C157.1,182.2,153.9,185.5,149.9,185.5z M149.9,173.7c-2.2,0-4,1.8-4,4v3c0,2.2,1.8,4,4,4c3.5,0,6.4-2.9,6.4-6.4v-0.5
					c0-2.2-1.8-4-4-4H149.9z"/>
			</g>
			<g>
				<g>
					<path class="st2" d="M140.1,178.9c0,5,0,10,0,15c0,0.5,0.7,0.5,0.7,0c0-5,0-10,0-15C140.8,178.4,140.1,178.4,140.1,178.9
						L140.1,178.9z"/>
				</g>
			</g>
			<g>
				<g>
					<path class="st2" d="M133,178.9c0,5,0,10,0,15c0,0.5,0.7,0.5,0.7,0c0-5,0-10,0-15C133.8,178.4,133,178.4,133,178.9L133,178.9z"
						/>
				</g>
			</g>
		</g>
		<g>
			<g>
				<g>
					<path class="st2" d="M79.6,110.8c4.5,2.1,8,6,9.6,10.7c0.4,1.3,0.7,2.7,0.9,4.1c0,0.5,0.8,0.5,0.7,0c-0.5-5.1-3.1-9.9-7.1-13.1
						c-1.1-0.9-2.4-1.7-3.7-2.3C79.6,110,79.2,110.6,79.6,110.8L79.6,110.8z"/>
				</g>
			</g>
			<g>
				<g>
					<path class="st2" d="M117.6,118.2c-0.9,3.1-2.1,6.1-3.7,8.9c0.2,0,0.4,0,0.6,0c-1.6-3.5-3.2-7-4.8-10.5c-0.1-0.2-0.5-0.2-0.6,0
						c-2,3.4-4,6.8-5.9,10.2c0.2,0,0.4,0,0.6,0c-3.6-4.8-7.2-9.6-10.7-14.4c-1-1.4-2.1-2.8-3.1-4.1c-0.3-0.4-0.9,0-0.6,0.4
						c3.6,4.8,7.2,9.6,10.7,14.4c1,1.4,2.1,2.8,3.1,4.1c0.2,0.2,0.5,0.3,0.6,0c2-3.4,4-6.8,5.9-10.2c-0.2,0-0.4,0-0.6,0
						c1.6,3.5,3.2,7,4.8,10.5c0.1,0.2,0.5,0.2,0.6,0c1.6-2.9,2.8-5.9,3.8-9.1C118.4,117.9,117.8,117.7,117.6,118.2L117.6,118.2z"/>
				</g>
			</g>
			<g>
				<g>
					<path class="st2" d="M85.4,164.3c-2.6,0-5.2,0.6-7.6,1.8c-0.4,0.2,0,0.8,0.4,0.6c2.2-1.1,4.7-1.7,7.2-1.7
						C85.8,165,85.8,164.3,85.4,164.3L85.4,164.3z"/>
				</g>
			</g>
			<g>
				<g>
					<path class="st2" d="M85.7,166c-2.4,1.3-4.4,3.3-5.6,5.8c-0.2,0.4,0.4,0.8,0.6,0.4c1.1-2.4,3-4.3,5.3-5.5
						C86.5,166.5,86.1,165.8,85.7,166L85.7,166z"/>
				</g>
			</g>
			<g>
				<g>
					<path class="st2" d="M137.6,133.3c5.6,4.4,12.3,7.4,19.4,8.5c2,0.3,4,0.5,6,0.5c0.5,0,0.5-0.7,0-0.7c-7,0-13.9-1.9-20-5.4
						c-1.7-1-3.4-2.1-4.9-3.3C137.8,132.5,137.3,133,137.6,133.3L137.6,133.3z"/>
				</g>
			</g>
			<g>
				<g>
					<path class="st2" d="M150.1,139.8c2.2,2.1,4.3,4.3,6.5,6.4c0.3,0.3,0.8-0.2,0.5-0.5c-2.2-2.1-4.3-4.3-6.5-6.4
						C150.2,138.9,149.7,139.4,150.1,139.8L150.1,139.8z"/>
				</g>
			</g>
			<g>
				<g>
					<path class="st2" d="M108.3,117.6c0,0.2,0,0.4,0,0.6c0,0.1,0,0.2,0.1,0.3c0.1,0.1,0.2,0.1,0.3,0.1c0.1,0,0.2,0,0.3-0.1
						c0.1-0.1,0.1-0.2,0.1-0.3c0-0.2,0-0.4,0-0.6c0-0.1,0-0.2-0.1-0.3c-0.1-0.1-0.2-0.1-0.3-0.1c-0.1,0-0.2,0-0.3,0.1
						C108.3,117.4,108.3,117.5,108.3,117.6L108.3,117.6z"/>
				</g>
			</g>
			<g>
				<g>
					<path class="st2" d="M108.3,117.1c1,6.4,1.8,12.8,2.5,19.3c0.7,6.4,1.3,12.8,1.7,19.3c0.3,3.6,0.5,7.3,0.6,10.9
						c0,0.5,0.7,0.5,0.7,0c-0.3-6.5-0.7-13-1.3-19.5c-0.6-6.5-1.3-12.9-2.1-19.3c-0.5-3.6-1-7.2-1.5-10.8
						C108.9,116.4,108.3,116.6,108.3,117.1L108.3,117.1z"/>
				</g>
			</g>
			<g>
				<g>
					<path class="st2" d="M75.9,206.9c-0.3,3,0.4,6.1,1.9,8.7c0.2,0.4,0.8,0,0.6-0.4c-1.4-2.5-2-5.5-1.8-8.4
						C76.6,206.4,75.9,206.4,75.9,206.9L75.9,206.9z"/>
				</g>
			</g>
			<g>
				<g>
					<path class="st8" d="M165.7,254.5c1.9,5.7,3.8,11.5,5.6,17.2c1.9,5.7,3.7,11.4,5.6,17.2c1,3.2,2.1,6.5,3.1,9.7
						c0.1,0.4,0.8,0.2,0.7-0.2c-1.9-5.8-3.7-11.5-5.6-17.3c-1.9-5.7-3.7-11.4-5.6-17.2c-1.1-3.2-2.1-6.5-3.2-9.7
						C166.2,253.9,165.5,254.1,165.7,254.5L165.7,254.5z"/>
				</g>
			</g>
			<g>
				<g>
					<path class="st8" d="M150.2,254.9c5.3,0,10.6,0,15.9,0c0.5,0,0.5-0.7,0-0.7c-5.3,0-10.6,0-15.9,0
						C149.7,254.2,149.7,254.9,150.2,254.9L150.2,254.9z"/>
				</g>
			</g>
			<g>
				<g>
					<path class="st8" d="M171.5,242.6c3.8,10.5,7.4,21,10.8,31.6c3.5,10.5,6.8,21.1,9.9,31.7c1.8,6,3.5,11.9,5.2,17.9
						c0.1,0.4,0.8,0.3,0.7-0.2c-3-10.7-6.2-21.4-9.5-32c-3.3-10.6-6.7-21.1-10.3-31.6c-2-5.9-4.1-11.8-6.2-17.7
						C172.1,241.9,171.4,242.1,171.5,242.6L171.5,242.6z"/>
				</g>
			</g>
			<g>
				<g>
					<path class="st8" d="M171,241.1c-6.7-0.5-13.3-1-20-1.5c-6.7-0.5-13.3-1-20-1.5s-13.3-1-20-1.5c-6.1-0.5-12.5-0.7-18.3-2.9
						c-4.6-1.8-9.1-5.1-10.9-9.9c-0.2-0.6-0.4-1.2-0.5-1.8c-0.1-0.4-0.8-0.3-0.7,0.2c1.2,4.9,5,8.8,9.4,11
						c5.4,2.8,11.6,3.3,17.6,3.8c6.7,0.5,13.5,1,20.2,1.5c6.8,0.5,13.6,1,20.4,1.5c6.8,0.5,13.6,1,20.4,1.5c0.8,0.1,1.7,0.1,2.5,0.2
						C171.5,241.9,171.5,241.2,171,241.1L171,241.1z"/>
				</g>
			</g>
			<g>
				<g>
					<path class="st8" d="M167.9,325.7c-8.3,0.2-16.5,0.2-24.8,0c-2.3-0.1-4.7-0.1-7-0.2c-0.5,0-0.5,0.7,0,0.7
						c8.3,0.3,16.5,0.4,24.8,0.3c2.3,0,4.7-0.1,7-0.1C168.4,326.4,168.4,325.7,167.9,325.7L167.9,325.7z"/>
				</g>
			</g>
			<g>
				<g>
					<path class="st8" d="M167.5,270.3c-1.9,7.2-3.9,14.3-5.8,21.5c-1.9,7.2-3.9,14.4-5.8,21.6c-1.1,4-2.2,8.1-3.3,12.1
						c-0.1,0.4,0.6,0.6,0.7,0.2c1.9-7.2,3.9-14.3,5.8-21.5c1.9-7.2,3.9-14.4,5.8-21.6c1.1-4,2.2-8.1,3.3-12.1
						C168.3,270.1,167.6,269.9,167.5,270.3L167.5,270.3z"/>
				</g>
			</g>
			<g>
				<g>
					<path class="st8" d="M171.6,320.5c-10.1-1.1-20.3-1.6-30.5-1.6c-2.9,0-5.8,0.1-8.6,0.2c-0.5,0-0.5,0.7,0,0.7
						c10.2-0.4,20.4-0.2,30.5,0.6c2.9,0.2,5.7,0.5,8.6,0.8C172,321.3,172,320.5,171.6,320.5L171.6,320.5z"/>
				</g>
			</g>
			<g>
				<g>
					<path class="st8" d="M231,325.5c-9.5-1.2-19.1-1.8-28.6-1.7c-2.7,0-5.4,0.1-8.1,0.3c-0.5,0-0.5,0.7,0,0.7
						c9.6-0.5,19.1-0.3,28.7,0.5c2.7,0.2,5.4,0.5,8.1,0.9C231.4,326.2,231.4,325.5,231,325.5L231,325.5z"/>
				</g>
			</g>
			<g>
				<g>
					<path class="st8" d="M229.2,318.4c-10.1-2.3-20.5-3-30.8-2.2c-2.9,0.2-5.7,0.6-8.6,1.1c-0.5,0.1-0.3,0.8,0.2,0.7
						c10.1-1.7,20.4-1.8,30.6-0.4c2.8,0.4,5.6,0.9,8.4,1.5C229.5,319.2,229.6,318.5,229.2,318.4L229.2,318.4z"/>
				</g>
			</g>
			<g>
				<g>
					<path class="st8" d="M171,331.9c4.5,0.5,8.4,4.4,8.9,8.9c0,0.5,0.8,0.5,0.7,0c-0.5-4.9-4.7-9.1-9.6-9.6
						C170.5,331.1,170.6,331.8,171,331.9L171,331.9z"/>
				</g>
			</g>
			<g>
				<g>
					<path class="st8" d="M245,332.8c4.2,0.8,7.7,4,8.9,8.1c0.1,0.4,0.8,0.3,0.7-0.2c-1.3-4.3-5-7.7-9.4-8.6
						C244.7,332,244.5,332.7,245,332.8L245,332.8z"/>
				</g>
			</g>
			<g>
				<g>
					<path class="st8" d="M256.6,349.6c-7.2,0-14.3,0-21.5,0c-7.2,0-14.3,0-21.5,0c-4,0-8.1,0-12.1,0c-0.5,0-0.5,0.7,0,0.7
						c7.2,0,14.3,0,21.5,0c7.2,0,14.3,0,21.5,0c4,0,8.1,0,12.1,0C257.1,350.3,257.1,349.6,256.6,349.6L256.6,349.6z"/>
				</g>
			</g>
			<g>
				<g>
					<path class="st8" d="M186.3,349c-7.5,0-15.1,0-22.6,0c-7.6,0-15.1,0-22.7,0c-4.2,0-8.5,0-12.7,0c-0.5,0-0.5,0.7,0,0.7
						c7.5,0,15.1,0,22.6,0c7.6,0,15.1,0,22.7,0c4.2,0,8.5,0,12.7,0C186.7,349.7,186.7,349,186.3,349L186.3,349z"/>
				</g>
			</g>
			<g>
				<g>
					<path class="st8" d="M130.5,336.7c3.4,2.2,5.7,6.1,5.9,10.2c0,0.5,0.7,0.5,0.7,0c-0.2-4.4-2.6-8.4-6.3-10.8
						C130.5,335.9,130.1,336.5,130.5,336.7L130.5,336.7z"/>
				</g>
			</g>
			<g>
				<g>
					<path class="st8" d="M200.9,340.5c4.2,0.6,7.9,3.3,9.7,7.1c0.2,0.4,0.8,0.1,0.6-0.4c-1.8-4-5.8-6.9-10.1-7.5
						C200.6,339.8,200.4,340.5,200.9,340.5L200.9,340.5z"/>
				</g>
			</g>
			<g>
				<g>
					<path class="st8" d="M70.4,231.7c-2.7,2.7-6.3,4.2-10.1,4.3c-0.5,0-0.5,0.7,0,0.7c4-0.1,7.8-1.7,10.6-4.5
						C71.3,231.9,70.8,231.4,70.4,231.7L70.4,231.7z"/>
				</g>
			</g>
			<g>
				<g>
					<path class="st2" d="M112.6,171.6c-4.3,3.1-6,9.2-4.3,14.1c0.5,1.4,1.2,2.7,2.2,3.9c0.3,0.3,0.8-0.2,0.5-0.5
						c-3.3-3.7-3.4-9.6-0.9-13.8c0.7-1.2,1.7-2.2,2.8-3C113.4,172,113,171.3,112.6,171.6L112.6,171.6z"/>
				</g>
			</g>
			<g>
				<g>
					<path class="st2" d="M60.2,177.9c4.2,1.2,7.3,5.1,8,9.4c0.2,1.2,0.2,2.5-0.1,3.7c-0.1,0.4,0.6,0.6,0.7,0.2
						c0.9-4.6-1.2-9.4-4.9-12.2c-1.1-0.8-2.2-1.4-3.5-1.7C60,177.1,59.8,177.8,60.2,177.9L60.2,177.9z"/>
				</g>
			</g>
			<g>
				<g>
					<path class="st2" d="M180.5,133.2c-3.8,3.8-5.3,9.5-4.3,14.7c0.3,1.5,0.8,2.9,1.5,4.2c0.2,0.4,0.8,0,0.6-0.4
						c-2.4-4.5-2.3-10.1,0.1-14.6c0.7-1.3,1.5-2.4,2.6-3.5C181.3,133.4,180.8,132.9,180.5,133.2L180.5,133.2z"/>
				</g>
			</g>
			<g>
				<g>
					<path class="st2" d="M117.7,96.2c1,2.5,1.5,5.2,1.5,8c0,0.5,0.7,0.5,0.7,0c0.1-2.8-0.4-5.6-1.5-8.1
						C118.2,95.6,117.5,95.8,117.7,96.2L117.7,96.2z"/>
				</g>
			</g>
			<g>
				<g>
					<path class="st2" d="M115.2,107.4c-1.8,0.4-3.8-0.3-5.1-1.7c-0.1-0.1-0.4-0.1-0.5,0c-1.8,1.9-0.7,5.6,1.9,6.1
						c0.4,0.1,0.6-0.6,0.2-0.7c-2-0.4-3-3.4-1.6-4.9c-0.2,0-0.3,0-0.5,0c1.4,1.6,3.7,2.3,5.8,1.9C115.9,108,115.7,107.4,115.2,107.4
						L115.2,107.4z"/>
				</g>
			</g>
		</g>
	</g>
</g>
<g id="Table">
	<g>
		<polygon class="st9" points="64.9,354.3 55.7,354.3 106.5,204.3 115.7,204.3 172.5,204.3 180,204.3 181.7,204.3 232.5,354.3 
			223.3,354.3 179.1,223.9 109.1,223.9 		"/>
		<path class="st2" d="M232.5,354.8h-9.2c-0.2,0-0.3-0.1-0.4-0.3l-44-130.2h-69.5l-44,130.2c-0.1,0.2-0.2,0.3-0.4,0.3h-9.2
			c-0.1,0-0.3-0.1-0.3-0.2s-0.1-0.2-0.1-0.4l50.8-150.1c0.1-0.2,0.2-0.3,0.4-0.3h75.2c0.2,0,0.3,0.1,0.4,0.3l50.8,150.1
			c0,0.1,0,0.3-0.1,0.4C232.7,354.7,232.6,354.8,232.5,354.8z M223.6,353.9h8.3l-50.5-149.2h-74.6L56.3,353.9h8.3l44-130.2
			c0.1-0.2,0.2-0.3,0.4-0.3h70.1c0.2,0,0.3,0.1,0.4,0.3L223.6,353.9z"/>
	</g>
	<g>
		<polygon class="st9" points="58.3,354.3 49.1,354.3 99.9,204.3 109.1,204.3 165.9,204.3 173.4,204.3 175.1,204.3 225.8,354.3 
			216.7,354.3 172.5,223.9 102.5,223.9 		"/>
		<path class="st2" d="M225.8,354.8h-9.2c-0.2,0-0.3-0.1-0.4-0.3l-44-130.2h-69.5l-44,130.2c-0.1,0.2-0.2,0.3-0.4,0.3h-9.2
			c-0.1,0-0.3-0.1-0.3-0.2c-0.1-0.1-0.1-0.2-0.1-0.4l50.8-150.1c0.1-0.2,0.2-0.3,0.4-0.3h75.2c0.2,0,0.3,0.1,0.4,0.3l50.8,150.1
			c0,0.1,0,0.3-0.1,0.4C226.1,354.7,226,354.8,225.8,354.8z M217,353.9h8.3l-50.5-149.2h-74.6L49.7,353.9H58l44-130.2
			c0.1-0.2,0.2-0.3,0.4-0.3h70.1c0.2,0,0.3,0.1,0.4,0.3L217,353.9z"/>
	</g>
	<g>
		<polygon class="st2" points="99.9,204.3 106.5,204.3 109.1,204.3 115.7,204.3 165.9,204.3 172.5,204.3 173.4,204.3 175.1,204.3 
			180,204.3 181.7,204.3 185.3,214.8 178.7,214.8 102.9,214.8 96.3,214.8 		"/>
		<path class="st2" d="M185.3,215.3H96.3c-0.1,0-0.3-0.1-0.3-0.2c-0.1-0.1-0.1-0.2-0.1-0.4l3.6-10.6c0.1-0.2,0.2-0.3,0.4-0.3h81.8
			c0.2,0,0.3,0.1,0.4,0.3l3.6,10.6c0,0.1,0,0.3-0.1,0.4C185.5,215.2,185.4,215.3,185.3,215.3z M96.9,214.4h87.8l-3.3-9.7h-81.2
			L96.9,214.4z"/>
	</g>
	<g>
		<polyline class="st9" points="298.7,205.5 68.2,205.5 68.2,195 298.7,195 		"/>
		<path class="st2" d="M298.7,205.9H68.2c-0.2,0-0.4-0.2-0.4-0.4V195c0-0.2,0.2-0.4,0.4-0.4h230.5c0.2,0,0.4,0.2,0.4,0.4
			s-0.2,0.4-0.4,0.4H68.6v9.7h230.1c0.2,0,0.4,0.2,0.4,0.4S299,205.9,298.7,205.9z"/>
	</g>
</g>
</svg>
