<?xml version="1.0" encoding="utf-8"?>
<!-- Generator: Adobe Illustrator 23.0.6, SVG Export Plug-In . SVG Version: 6.00 Build 0)  -->
<svg version="1.1" id="Learning_-_Private_Session" xmlns="http://www.w3.org/2000/svg" xmlns:xlink="http://www.w3.org/1999/xlink"
	 x="0px" y="0px" viewBox="0 0 344 436" style="enable-background:new 0 0 344 436;" xml:space="preserve">
<style type="text/css">
	.st0{opacity:0.2;}
	.st1{fill:#78B46F;}
	.st2{clip-path:url(#SVGID_2_);}
	.st3{fill:#5A84C6;}
	.st4{clip-path:url(#SVGID_4_);}
	.st5{fill:none;}
	.st6{fill:#17005E;}
	.st7{fill:#002638;}
	.st8{fill:#D89E64;}
	.st9{fill:#F2F2F2;}
	.st10{fill:#FFFFFF;}
	.st11{fill:#FAD1E8;}
</style>
<g>
	<g id="Circle_Back_2_" class="st0">
		<circle class="st1" cx="186" cy="235.1" r="118.8"/>
	</g>
	<g id="Girl_2_">
		<g>
			<g>
				<g>
					<g>
						<defs>
							<path id="SVGID_1_" d="M249.1,215.6l-5.7-13.1c-3.6-8.3-11.8-13.6-20.8-13.6h-39.2c-13.2,0-25.6,6.4-33.2,17.2l0,0l-5.1,7.2
								c-5.3,7.5-3.6,17.7,3.7,23.2l6.8,5l5.8,77.5h79l2.7-98.6l4-0.9C248.9,219.1,249.8,217.2,249.1,215.6z"/>
						</defs>
						<clipPath id="SVGID_2_">
							<use xlink:href="#SVGID_1_"  style="overflow:visible;"/>
						</clipPath>
						<g class="st2">
							<path class="st3" d="M249.1,215.6l-5.7-13.1c-3.6-8.3-11.8-13.6-20.8-13.6h-39.2c-13.2,0-25.6,6.4-33.2,17.2l0,0l-5.1,7.2
								c-5.3,7.5-3.6,17.7,3.7,23.2l6.8,5l5.8,77.5h79l2.7-98.6l4-0.9C248.9,219.1,249.8,217.2,249.1,215.6z"/>
						</g>
					</g>
					<g>
						<defs>
							<path id="SVGID_3_" d="M249.1,215.6l-5.7-13.1c-3.6-8.3-11.8-13.6-20.8-13.6h-39.2c-13.2,0-25.6,6.4-33.2,17.2l0,0l-5.1,7.2
								c-5.3,7.5-3.6,17.7,3.7,23.2l6.8,5l5.8,77.5h79l2.7-98.6l4-0.9C248.9,219.1,249.8,217.2,249.1,215.6z"/>
						</defs>
						<clipPath id="SVGID_4_">
							<use xlink:href="#SVGID_3_"  style="overflow:visible;"/>
						</clipPath>
						<g class="st4">
							<g>
								<line class="st5" x1="127.2" y1="155.6" x2="127.2" y2="318.5"/>
								<path class="st6" d="M127.2,318.8c-0.2,0-0.3-0.1-0.3-0.3V155.6c0-0.2,0.1-0.3,0.3-0.3s0.3,0.1,0.3,0.3v162.9
									C127.5,318.6,127.4,318.8,127.2,318.8z"/>
							</g>
							<g>
								<line class="st5" x1="148" y1="155.6" x2="148" y2="318.5"/>
								<path class="st6" d="M148,318.8c-0.2,0-0.3-0.1-0.3-0.3V155.6c0-0.2,0.1-0.3,0.3-0.3s0.3,0.1,0.3,0.3v162.9
									C148.3,318.6,148.2,318.8,148,318.8z"/>
							</g>
							<g>
								<line class="st5" x1="137.6" y1="155.6" x2="137.6" y2="318.5"/>
								<path class="st6" d="M137.6,318.8c-0.2,0-0.3-0.1-0.3-0.3V155.6c0-0.2,0.1-0.3,0.3-0.3s0.3,0.1,0.3,0.3v162.9
									C137.9,318.6,137.8,318.8,137.6,318.8z"/>
							</g>
							<g>
								<line class="st5" x1="262.5" y1="155.6" x2="262.5" y2="318.5"/>
								<path class="st6" d="M262.5,318.8c-0.2,0-0.3-0.1-0.3-0.3V155.6c0-0.2,0.1-0.3,0.3-0.3c0.2,0,0.3,0.1,0.3,0.3v162.9
									C262.8,318.6,262.6,318.8,262.5,318.8z"/>
							</g>
							<g>
								<line class="st5" x1="252.1" y1="155.6" x2="252.1" y2="318.5"/>
								<path class="st6" d="M252.1,318.8c-0.2,0-0.3-0.1-0.3-0.3V155.6c0-0.2,0.1-0.3,0.3-0.3s0.3,0.1,0.3,0.3v162.9
									C252.4,318.6,252.2,318.8,252.1,318.8z"/>
							</g>
							<g>
								<line class="st5" x1="241.6" y1="155.6" x2="241.6" y2="318.5"/>
								<path class="st6" d="M241.6,318.8c-0.2,0-0.3-0.1-0.3-0.3V155.6c0-0.2,0.1-0.3,0.3-0.3s0.3,0.1,0.3,0.3v162.9
									C242,318.6,241.8,318.8,241.6,318.8z"/>
							</g>
							<g>
								<line class="st5" x1="231.2" y1="155.6" x2="231.2" y2="318.5"/>
								<path class="st6" d="M231.2,318.8c-0.2,0-0.3-0.1-0.3-0.3V155.6c0-0.2,0.1-0.3,0.3-0.3s0.3,0.1,0.3,0.3v162.9
									C231.6,318.6,231.4,318.8,231.2,318.8z"/>
							</g>
							<g>
								<line class="st5" x1="220.8" y1="155.6" x2="220.8" y2="318.5"/>
								<path class="st6" d="M220.8,318.8c-0.2,0-0.3-0.1-0.3-0.3V155.6c0-0.2,0.1-0.3,0.3-0.3s0.3,0.1,0.3,0.3v162.9
									C221.1,318.6,221,318.8,220.8,318.8z"/>
							</g>
							<g>
								<line class="st5" x1="210.4" y1="155.6" x2="210.4" y2="318.5"/>
								<path class="st6" d="M210.4,318.8c-0.2,0-0.3-0.1-0.3-0.3V155.6c0-0.2,0.1-0.3,0.3-0.3s0.3,0.1,0.3,0.3v162.9
									C210.7,318.6,210.6,318.8,210.4,318.8z"/>
							</g>
							<g>
								<line class="st5" x1="200" y1="155.6" x2="200" y2="318.5"/>
								<path class="st6" d="M200,318.8c-0.2,0-0.3-0.1-0.3-0.3V155.6c0-0.2,0.1-0.3,0.3-0.3s0.3,0.1,0.3,0.3v162.9
									C200.3,318.6,200.2,318.8,200,318.8z"/>
							</g>
							<g>
								<line class="st5" x1="189.6" y1="155.6" x2="189.6" y2="318.5"/>
								<path class="st6" d="M189.6,318.8c-0.2,0-0.3-0.1-0.3-0.3V155.6c0-0.2,0.1-0.3,0.3-0.3s0.3,0.1,0.3,0.3v162.9
									C189.9,318.6,189.8,318.8,189.6,318.8z"/>
							</g>
							<g>
								<line class="st5" x1="179.2" y1="155.6" x2="179.2" y2="318.5"/>
								<path class="st6" d="M179.2,318.8c-0.2,0-0.3-0.1-0.3-0.3V155.6c0-0.2,0.1-0.3,0.3-0.3s0.3,0.1,0.3,0.3v162.9
									C179.5,318.6,179.4,318.8,179.2,318.8z"/>
							</g>
							<g>
								<line class="st5" x1="168.8" y1="155.6" x2="168.8" y2="318.5"/>
								<path class="st6" d="M168.8,318.8c-0.2,0-0.3-0.1-0.3-0.3V155.6c0-0.2,0.1-0.3,0.3-0.3s0.3,0.1,0.3,0.3v162.9
									C169.1,318.6,169,318.8,168.8,318.8z"/>
							</g>
							<g>
								<line class="st5" x1="158.4" y1="155.6" x2="158.4" y2="318.5"/>
								<path class="st6" d="M158.4,318.8c-0.2,0-0.3-0.1-0.3-0.3V155.6c0-0.2,0.1-0.3,0.3-0.3s0.3,0.1,0.3,0.3v162.9
									C158.7,318.6,158.6,318.8,158.4,318.8z"/>
							</g>
							<g>
								<line class="st5" x1="272.9" y1="155.6" x2="272.9" y2="318.5"/>
								<path class="st6" d="M272.9,318.8c-0.2,0-0.3-0.1-0.3-0.3V155.6c0-0.2,0.1-0.3,0.3-0.3s0.3,0.1,0.3,0.3v162.9
									C273.2,318.6,273,318.8,272.9,318.8z"/>
							</g>
							<g>
								<line class="st5" x1="281.5" y1="164.2" x2="118.6" y2="164.2"/>
								<path class="st6" d="M281.5,164.5H118.6c-0.2,0-0.3-0.1-0.3-0.3s0.1-0.3,0.3-0.3h162.9c0.2,0,0.3,0.1,0.3,0.3
									S281.7,164.5,281.5,164.5z"/>
							</g>
							<g>
								<line class="st5" x1="281.5" y1="185" x2="118.6" y2="185"/>
								<path class="st6" d="M281.5,185.3H118.6c-0.2,0-0.3-0.1-0.3-0.3s0.1-0.3,0.3-0.3h162.9c0.2,0,0.3,0.1,0.3,0.3
									S281.7,185.3,281.5,185.3z"/>
							</g>
							<g>
								<line class="st5" x1="281.5" y1="174.6" x2="118.6" y2="174.6"/>
								<path class="st6" d="M281.5,174.9H118.6c-0.2,0-0.3-0.1-0.3-0.3s0.1-0.3,0.3-0.3h162.9c0.2,0,0.3,0.1,0.3,0.3
									C281.8,174.7,281.7,174.9,281.5,174.9z"/>
							</g>
							<g>
								<line class="st5" x1="281.5" y1="299.4" x2="118.6" y2="299.4"/>
								<path class="st6" d="M281.5,299.7H118.6c-0.2,0-0.3-0.1-0.3-0.3s0.1-0.3,0.3-0.3h162.9c0.2,0,0.3,0.1,0.3,0.3
									S281.7,299.7,281.5,299.7z"/>
							</g>
							<g>
								<line class="st5" x1="281.5" y1="289" x2="118.6" y2="289"/>
								<path class="st6" d="M281.5,289.3H118.6c-0.2,0-0.3-0.1-0.3-0.3s0.1-0.3,0.3-0.3h162.9c0.2,0,0.3,0.1,0.3,0.3
									S281.7,289.3,281.5,289.3z"/>
							</g>
							<g>
								<line class="st5" x1="281.5" y1="278.6" x2="118.6" y2="278.6"/>
								<path class="st6" d="M281.5,278.9H118.6c-0.2,0-0.3-0.1-0.3-0.3s0.1-0.3,0.3-0.3h162.9c0.2,0,0.3,0.1,0.3,0.3
									S281.7,278.9,281.5,278.9z"/>
							</g>
							<g>
								<line class="st5" x1="281.5" y1="268.2" x2="118.6" y2="268.2"/>
								<path class="st6" d="M281.5,268.5H118.6c-0.2,0-0.3-0.1-0.3-0.3s0.1-0.3,0.3-0.3h162.9c0.2,0,0.3,0.1,0.3,0.3
									S281.7,268.5,281.5,268.5z"/>
							</g>
							<g>
								<line class="st5" x1="281.5" y1="257.8" x2="118.6" y2="257.8"/>
								<path class="st6" d="M281.5,258.1H118.6c-0.2,0-0.3-0.1-0.3-0.3s0.1-0.3,0.3-0.3h162.9c0.2,0,0.3,0.1,0.3,0.3
									S281.7,258.1,281.5,258.1z"/>
							</g>
							<g>
								<line class="st5" x1="281.5" y1="247.4" x2="118.6" y2="247.4"/>
								<path class="st6" d="M281.5,247.7H118.6c-0.2,0-0.3-0.1-0.3-0.3s0.1-0.3,0.3-0.3h162.9c0.2,0,0.3,0.1,0.3,0.3
									C281.8,247.6,281.7,247.7,281.5,247.7z"/>
							</g>
							<g>
								<line class="st5" x1="281.5" y1="237" x2="118.6" y2="237"/>
								<path class="st6" d="M281.5,237.3H118.6c-0.2,0-0.3-0.1-0.3-0.3s0.1-0.3,0.3-0.3h162.9c0.2,0,0.3,0.1,0.3,0.3
									S281.7,237.3,281.5,237.3z"/>
							</g>
							<g>
								<line class="st5" x1="281.5" y1="226.6" x2="118.6" y2="226.6"/>
								<path class="st6" d="M281.5,226.9H118.6c-0.2,0-0.3-0.1-0.3-0.3s0.1-0.3,0.3-0.3h162.9c0.2,0,0.3,0.1,0.3,0.3
									S281.7,226.9,281.5,226.9z"/>
							</g>
							<g>
								<line class="st5" x1="281.5" y1="216.2" x2="118.6" y2="216.2"/>
								<path class="st6" d="M281.5,216.5H118.6c-0.2,0-0.3-0.1-0.3-0.3s0.1-0.3,0.3-0.3h162.9c0.2,0,0.3,0.1,0.3,0.3
									S281.7,216.5,281.5,216.5z"/>
							</g>
							<g>
								<line class="st5" x1="281.5" y1="205.8" x2="118.6" y2="205.8"/>
								<path class="st6" d="M281.5,206.1H118.6c-0.2,0-0.3-0.1-0.3-0.3s0.1-0.3,0.3-0.3h162.9c0.2,0,0.3,0.1,0.3,0.3
									S281.7,206.1,281.5,206.1z"/>
							</g>
							<g>
								<line class="st5" x1="281.5" y1="195.4" x2="118.6" y2="195.4"/>
								<path class="st6" d="M281.5,195.7H118.6c-0.2,0-0.3-0.1-0.3-0.3s0.1-0.3,0.3-0.3h162.9c0.2,0,0.3,0.1,0.3,0.3
									S281.7,195.7,281.5,195.7z"/>
							</g>
							<g>
								<line class="st5" x1="281.5" y1="309.8" x2="118.6" y2="309.8"/>
								<path class="st6" d="M281.5,310.2H118.6c-0.2,0-0.3-0.1-0.3-0.3s0.1-0.3,0.3-0.3h162.9c0.2,0,0.3,0.1,0.3,0.3
									S281.7,310.2,281.5,310.2z"/>
							</g>
						</g>
					</g>
				</g>
				<g>
					<path class="st6" d="M240.4,319.3h-79c-0.2,0-0.3-0.1-0.3-0.3l-5.8-77.4l-6.7-4.9c-7.4-5.5-9.1-16.1-3.8-23.6l5.1-7.2
						c7.7-10.9,20.2-17.3,33.4-17.3h39.2c9.1,0,17.4,5.4,21.1,13.8l5.7,13.1l0,0c0.4,0.9,0.3,1.8-0.1,2.6c-0.4,0.8-1.2,1.4-2.1,1.6
						l-3.8,0.9l-2.7,98.4C240.7,319.2,240.6,319.3,240.4,319.3z M161.8,318.7h78.4l2.7-98.3c0-0.1,0.1-0.3,0.2-0.3l4-0.9
						c0.7-0.2,1.3-0.6,1.7-1.3c0.3-0.7,0.4-1.4,0.1-2.1l-5.7-13.1c-3.5-8.2-11.6-13.4-20.5-13.4h-39.2c-13.1,0-25.4,6.4-32.9,17.1
						l-5.1,7.2c-5.1,7.3-3.5,17.5,3.7,22.7l6.8,5c0.1,0.1,0.1,0.1,0.1,0.2L161.8,318.7z"/>
				</g>
			</g>
			<g>
				<polygon class="st7" points="241.5,280.4 241.9,265 218.2,283.4 				"/>
				<path class="st7" d="M218.2,283.7c-0.1,0-0.2-0.1-0.3-0.2s0-0.3,0.1-0.4l23.7-18.4c0.1-0.1,0.2-0.1,0.3,0s0.2,0.2,0.2,0.3
					l-0.4,15.4c0,0.2-0.1,0.3-0.3,0.3L218.2,283.7L218.2,283.7z M241.6,265.7L219.3,283l21.9-2.8L241.6,265.7z M241.5,280.4
					L241.5,280.4L241.5,280.4z"/>
			</g>
			<g>
				<path class="st7" d="M205.7,188.9h-22.3c-2.7,0-5.4,0.3-8.1,0.8c2.2,6.2,8.1,10.7,15,10.7C197.6,200.4,203.8,195.5,205.7,188.9z
					"/>
				<path class="st7" d="M190.4,200.7c-6.9,0-13.1-4.4-15.3-10.9c0-0.1,0-0.2,0-0.3s0.1-0.1,0.2-0.1c2.7-0.5,5.4-0.8,8.1-0.8h22.3
					c0.1,0,0.2,0,0.2,0.1c0.1,0.1,0.1,0.2,0,0.3C204,195.9,197.6,200.7,190.4,200.7z M175.8,189.9c2.3,6.1,8.1,10.1,14.6,10.1
					c6.8,0,12.8-4.5,14.9-10.9h-21.9C180.9,189.2,178.3,189.4,175.8,189.9z"/>
			</g>
			<g>
				<polygon class="st7" points="216,227.1 212.3,213 213.7,249.3 223.8,255.8 				"/>
				<path class="st7" d="M223.8,256.1c-0.1,0-0.1,0-0.2,0l-10-6.5c-0.1-0.1-0.1-0.1-0.1-0.2L212,213c0-0.2,0.1-0.3,0.3-0.3
					s0.3,0.1,0.3,0.2l3.7,14.1l7.8,28.7c0,0.1,0,0.3-0.1,0.3C223.9,256.1,223.8,256.1,223.8,256.1z M214,249.1l9.2,6l-7.6-28l0,0
					l-3-11.4L214,249.1z"/>
			</g>
			<g>
				<polygon class="st7" points="155.7,241.5 185.6,239.7 173,247.8 				"/>
				<path class="st7" d="M173,248.1h-0.1l-17.3-6.4c-0.1-0.1-0.2-0.2-0.2-0.3s0.1-0.3,0.3-0.3l29.9-1.8c0.1,0,0.3,0.1,0.3,0.2
					c0,0.1,0,0.3-0.1,0.4l-12.6,8.2C173.1,248.1,173,248.1,173,248.1z M157.2,241.7l15.8,5.8l11.5-7.4L157.2,241.7z"/>
			</g>
		</g>
		<g>
			<g>
				<polygon class="st1" points="159.3,295.3 155.5,319 251.2,319 241.2,293.8 				"/>
				<path class="st7" d="M251.2,319.3h-95.6c-0.1,0-0.2,0-0.2-0.1c-0.1-0.1-0.1-0.2-0.1-0.2l3.7-23.7c0-0.1,0.1-0.3,0.3-0.3
					l81.9-1.5c0.1,0,0.2,0.1,0.3,0.2l10,25.2c0,0.1,0,0.2,0,0.3C251.4,319.2,251.3,319.3,251.2,319.3z M155.9,318.7h94.8l-9.8-24.6
					l-81.4,1.5L155.9,318.7z"/>
			</g>
			<g>
				<g>
					<path class="st6" d="M158.1,302.4c5.5-0.2,11-0.4,16.5-0.6c5.6-0.2,11.1-0.4,16.7-0.6c5.6-0.2,11.2-0.4,16.8-0.6
						s11.2-0.4,16.8-0.6c5.5-0.2,11-0.4,16.5-0.6c0.7,0,1.3-0.1,2-0.1c0.4,0,0.4-0.6,0-0.6c-5.5,0.2-11,0.4-16.5,0.6
						c-5.6,0.2-11.1,0.4-16.7,0.6c-5.6,0.2-11.2,0.4-16.8,0.6s-11.2,0.4-16.8,0.6c-5.5,0.2-11,0.4-16.5,0.6c-0.7,0-1.3,0.1-2,0.1
						C157.8,301.8,157.8,302.4,158.1,302.4L158.1,302.4z"/>
				</g>
			</g>
			<g>
				<g>
					<path class="st6" d="M226.9,295c1.2,6.4,2.6,12.8,4.2,19.1c0.4,1.8,0.9,3.6,1.4,5.3c0.1,0.4,0.6,0.2,0.6-0.2
						c-1.7-6.3-3.2-12.7-4.5-19.1c-0.4-1.8-0.7-3.6-1.1-5.4C227.4,294.4,226.8,294.6,226.9,295L226.9,295z"/>
				</g>
			</g>
		</g>
		<g>
			<path class="st6" d="M276.3,319.6H93.7c-3,0-5.5-2.5-5.5-5.5V158.3c0-3,2.5-5.5,5.5-5.5h182.6c3,0,5.5,2.5,5.5,5.5V314
				C281.8,317.1,279.3,319.6,276.3,319.6z M93.7,154c-2.4,0-4.3,1.9-4.3,4.3V314c0,2.4,1.9,4.3,4.3,4.3h182.6c2.4,0,4.3-1.9,4.3-4.3
				V158.3c0-2.4-1.9-4.3-4.3-4.3H93.7z"/>
		</g>
		<g>
			<g>
				<path class="st8" d="M153.8,262.4l3.1-4.7l-1.2-16.3l-6.8-5c-2.2-1.6-3.8-3.6-5-5.8l-9.7,13.5L110,215.2l-0.1-2
					c-0.2-3.4-1.8-6.7-4.4-8.9l-0.7-0.6l-3.1-11.6c-0.3-1.1-1.6-1.4-2.4-0.7c-2.7,2.5-3.7,5.1-4.1,8.5l0.3,3.7
					c-0.3,2.3-2.1,4.1-4.5,4.3l-7.7,0.7L77,208l-3.6-1.6c-2.5-1.1-5.5-0.1-6.8,2.4l8.5,4.8l6.1,0.7l-0.4,3l1.7,7.2l16.3,3l20,33.4
					C126.2,274.3,145.2,275.2,153.8,262.4z"/>
				<path class="st6" d="M136.8,271.8c-0.3,0-0.7,0-1,0c-7.3-0.3-13.8-4.4-17.3-10.8l-19.9-33.2l-16.2-2.9c-0.1,0-0.2-0.1-0.2-0.2
					l-1.7-7.2v-0.1l0.3-2.7l-5.8-0.6h-0.1l-8.5-4.8c-0.1-0.1-0.2-0.3-0.1-0.4c1.3-2.6,4.5-3.8,7.2-2.5l3.6,1.6l6.2,0.7L91,208
					c2.1-0.2,3.9-1.9,4.2-4l-0.3-3.7c0,0,0,0,0-0.1c0.5-3.9,1.7-6.4,4.2-8.7c0.5-0.4,1.1-0.6,1.7-0.4c0.6,0.2,1,0.6,1.2,1.2
					l3.1,11.5l0.6,0.5c2.7,2.3,4.3,5.6,4.5,9.1l0.1,1.9l24,28.5l9.5-13.2c0.1-0.1,0.2-0.1,0.3-0.1s0.2,0.1,0.3,0.2
					c1.2,2.3,2.8,4.2,4.9,5.7l6.8,5c0.1,0.1,0.1,0.1,0.1,0.2l1.2,16.3c0,0.1,0,0.1-0.1,0.2l-3.1,4.7l0,0
					C150.1,268.4,143.8,271.8,136.8,271.8z M82.8,224.2l16.1,2.9c0.1,0,0.2,0.1,0.2,0.1l20,33.4c3.4,6.3,9.7,10.2,16.8,10.5
					c7.1,0.3,13.7-3,17.7-8.9l3.1-4.6l-1.2-16.1l-6.7-4.9c-2-1.5-3.6-3.3-4.8-5.5l-9.4,13.1c-0.1,0.1-0.1,0.1-0.2,0.1
					c-0.1,0-0.2,0-0.2-0.1l-24.3-28.9c0-0.1-0.1-0.1-0.1-0.2l-0.1-2c-0.2-3.4-1.7-6.5-4.3-8.7l-0.7-0.6c0,0-0.1-0.1-0.1-0.2
					l-3.1-11.6c-0.1-0.4-0.4-0.7-0.8-0.8s-0.8,0-1.1,0.3c-2.4,2.2-3.6,4.6-4,8.3l0.3,3.7c0,0,0,0,0,0.1c-0.3,2.4-2.3,4.4-4.7,4.6
					l-7.7,0.7c0,0,0,0-0.1,0l-6.3-0.7H77l-3.6-1.6c-2.3-1-5-0.2-6.2,2l8.2,4.6l6.1,0.7c0.1,0,0.2,0.1,0.2,0.1
					c0.1,0.1,0.1,0.1,0.1,0.2l-0.4,2.9L82.8,224.2z M153.8,262.4L153.8,262.4L153.8,262.4z"/>
			</g>
			<g>
				<path class="st8" d="M82.9,218.5l-12.2,0.2l-6-4.2c-0.8-0.5-1-1.6-0.5-2.4l0,0c1.5-2.3,4.6-2.9,6.8-1.3l1.8,1.3l11.3,0.9"/>
				<path class="st6" d="M70.7,219.1c-0.1,0-0.1,0-0.2-0.1l-6-4.2c-0.9-0.6-1.2-1.9-0.5-2.8c0.8-1.2,2-2,3.3-2.2
					c1.4-0.3,2.8,0,3.9,0.8l1.8,1.2l11.2,0.9c0.2,0,0.3,0.2,0.3,0.3c0,0.2-0.2,0.3-0.3,0.3l-11.3-0.9c-0.1,0-0.1,0-0.2-0.1l-1.8-1.3
					c-1-0.7-2.3-1-3.5-0.7c-1.2,0.2-2.3,0.9-2.9,2c-0.4,0.7-0.3,1.5,0.4,2l5.9,4.1l12.1-0.2c0.2,0,0.3,0.1,0.3,0.3s-0.1,0.3-0.3,0.3
					L70.7,219.1L70.7,219.1z"/>
			</g>
			<g>
				<path class="st8" d="M84,224.5l-7.4,0.6l-8.7-5.2c-0.3-0.2-0.5-0.6-0.4-0.9l0,0c0.7-2.7,3.7-4.1,6.2-2.8l4.2,2.6l6.3-0.2"/>
				<path class="st6" d="M76.6,225.4c-0.1,0-0.1,0-0.2,0l-8.7-5.2c-0.4-0.3-0.7-0.8-0.5-1.3c0.3-1.4,1.3-2.5,2.6-3.1
					c1.3-0.6,2.8-0.5,4,0.1l4.2,2.6l6.2-0.2c0.2,0,0.3,0.1,0.3,0.3s-0.1,0.3-0.3,0.3l-6.3,0.2c-0.1,0-0.1,0-0.2,0l-4.2-2.6
					c-1.1-0.6-2.3-0.6-3.5-0.1c-1.1,0.5-1.9,1.5-2.2,2.7c-0.1,0.2,0,0.5,0.3,0.6l8.6,5.2l7.3-0.6c0.2,0,0.3,0.1,0.3,0.3
					s-0.1,0.3-0.3,0.3L76.6,225.4L76.6,225.4z"/>
			</g>
			<g>
				<polygon class="st7" points="112.3,250 107,230 98.8,227.4 				"/>
				<path class="st7" d="M112.3,250.3c-0.1,0-0.2-0.1-0.3-0.1l-13.5-22.5c-0.1-0.1-0.1-0.2,0-0.3s0.2-0.1,0.3-0.1l8.2,2.6
					c0.1,0,0.2,0.1,0.2,0.2l5.3,19.9C112.5,250.1,112.5,250.3,112.3,250.3C112.4,250.3,112.4,250.3,112.3,250.3z M99.5,228l12,19.9
					l-4.7-17.7L99.5,228z"/>
			</g>
			<g>
				<path class="st7" d="M156.7,255.1l-1-13.6l-6.8-5c-2.2-1.6-3.8-3.6-5-5.8l-2,2.8L156.7,255.1z"/>
				<path class="st7" d="M156.7,255.4c-0.1,0-0.2,0-0.3-0.1l-14.8-21.6c-0.1-0.1-0.1-0.2,0-0.4l2-2.8c0.1-0.1,0.2-0.1,0.3-0.1
					s0.2,0.1,0.3,0.2c1.2,2.3,2.8,4.2,4.9,5.7l6.8,5c0.1,0.1,0.1,0.1,0.1,0.2l1,13.6c0,0.1-0.1,0.3-0.2,0.3
					C156.8,255.4,156.7,255.4,156.7,255.4z M142.3,233.5l14,20.5l-0.9-12.3l-6.7-4.9c-2-1.5-3.6-3.3-4.8-5.5L142.3,233.5z"/>
			</g>
		</g>
		<g>
			<g>
				<circle class="st7" cx="180.8" cy="144.4" r="11.7"/>
				<path class="st7" d="M180.8,156.4c-6.6,0-12-5.4-12-12s5.4-12,12-12s12,5.4,12,12C192.9,151,187.5,156.4,180.8,156.4z
					 M180.8,133c-6.3,0-11.4,5.1-11.4,11.4c0,6.3,5.1,11.4,11.4,11.4c6.3,0,11.4-5.1,11.4-11.4C192.3,138.1,187.1,133,180.8,133z"/>
			</g>
			<g>
				<circle class="st7" cx="194.9" cy="141.9" r="11.7"/>
				<path class="st7" d="M194.9,154c-6.6,0-12-5.4-12-12s5.4-12,12-12s12,5.4,12,12C207,148.6,201.6,154,194.9,154z M194.9,130.5
					c-6.3,0-11.4,5.1-11.4,11.4c0,6.3,5.1,11.4,11.4,11.4c6.3,0,11.4-5.1,11.4-11.4C206.3,135.6,201.2,130.5,194.9,130.5z"/>
			</g>
			<g>
				<circle class="st7" cx="204.8" cy="147.6" r="9.3"/>
				<path class="st7" d="M204.8,157.2c-5.3,0-9.6-4.3-9.6-9.6s4.3-9.6,9.6-9.6s9.6,4.3,9.6,9.6C214.4,152.9,210.1,157.2,204.8,157.2
					z M204.8,138.6c-4.9,0-9,4-9,9s4,9,9,9c4.9,0,9-4,9-9S209.7,138.6,204.8,138.6z"/>
			</g>
			<g>
				<circle class="st7" cx="208.7" cy="166.1" r="15"/>
				<path class="st7" d="M208.7,181.4c-8.4,0-15.3-6.8-15.3-15.3c0-8.4,6.8-15.3,15.3-15.3c8.4,0,15.3,6.8,15.3,15.3
					C224,174.5,217.2,181.4,208.7,181.4z M208.7,151.5c-8.1,0-14.6,6.6-14.6,14.6c0,8.1,6.6,14.6,14.6,14.6
					c8.1,0,14.6-6.6,14.6-14.6C223.4,158.1,216.8,151.5,208.7,151.5z"/>
			</g>
			<g>
				<path class="st8" d="M184.7,141.3c0.1,3.8,3.2,6.9,7,6.9c1.5,0,2.9-0.5,4.1-1.3c1.9,2.3,4.8,3.8,8,3.8h1.2
					c1.9,0,3.6,1.3,3.8,3.2c0.3,2.3-1.5,4.2-3.7,4.2h-1.4v2.4c0,1.4-0.4,2.8-1.2,4l-7.3,10.9c-0.9,1.4-2.3,2.5-3.9,3
					c-2.7,0.8-5.5,0.1-7.3-1.8l-5.6-5.6c-1.4-1.4-2.1-3.2-2.1-5.1v-14.8C176.4,146.2,180,142.1,184.7,141.3z"/>
				<path class="st6" d="M189.2,179.1c-2,0-3.9-0.8-5.3-2.2l-5.6-5.6c-1.4-1.4-2.2-3.3-2.2-5.3v-14.8c0-5,3.6-9.3,8.5-10.2
					c0.1,0,0.2,0,0.2,0.1c0.1,0.1,0.1,0.1,0.1,0.2c0.1,3.6,3.1,6.6,6.7,6.6c1.4,0,2.8-0.4,3.9-1.3c0.1-0.1,0.3-0.1,0.4,0.1
					c1.9,2.3,4.8,3.7,7.8,3.7h1.2c2.1,0,3.9,1.5,4.1,3.5c0.2,1.1-0.2,2.3-1,3.2s-1.9,1.4-3,1.4h-1.1v2.1c0,1.5-0.4,2.9-1.3,4.2
					l-7.3,10.9c-1,1.5-2.5,2.7-4.1,3.2C190.7,179,190,179.1,189.2,179.1z M184.4,141.7c-4.5,0.9-7.7,4.9-7.7,9.5V166
					c0,1.8,0.7,3.6,2,4.9l5.6,5.6c1.8,1.8,4.5,2.5,7,1.7c1.5-0.5,2.8-1.5,3.7-2.9l7.3-10.9c0.8-1.1,1.2-2.5,1.2-3.8v-2.4
					c0-0.2,0.1-0.3,0.3-0.3h1.4c1,0,1.9-0.4,2.6-1.2c0.6-0.7,0.9-1.7,0.8-2.7c-0.2-1.7-1.7-2.9-3.5-2.9h-1.2c-3.1,0-6-1.3-8.1-3.7
					c-1.2,0.8-2.6,1.2-4,1.2C187.9,148.5,184.6,145.5,184.4,141.7z"/>
			</g>
			<g>
				<g>
					<path class="st6" d="M205.2,153.1c-0.7,0.2-1.3,0.3-2,0.5c-0.2,0-0.3,0.3-0.1,0.5c0.7,0.5,1.3,1.1,1.8,1.7
						c0.1,0.1,0.3,0.1,0.4,0c0.1-0.1,0.1-0.3,0-0.4c-0.5-0.6-1.1-1.2-1.8-1.7c0,0.2-0.1,0.3-0.1,0.5c0.7-0.2,1.3-0.3,2-0.5
						c0.2,0,0.2-0.2,0.2-0.4C205.5,153.2,205.4,153.1,205.2,153.1L205.2,153.1z"/>
				</g>
			</g>
			<g>
				<g>
					<path class="st6" d="M187.6,152.1c0,1.2,0,2.5,0,3.7c0,0.4,0.6,0.4,0.6,0c0-1.2,0-2.5,0-3.7
						C188.2,151.7,187.6,151.7,187.6,152.1L187.6,152.1z"/>
				</g>
			</g>
			<g>
				<g>
					<path class="st6" d="M179.4,152.7c0,1,0,2,0,3c0,0.4,0.6,0.4,0.6,0c0-1,0-2,0-3C180,152.3,179.4,152.3,179.4,152.7L179.4,152.7
						z"/>
				</g>
			</g>
			<g>
				<g>
					<path class="st6" d="M182.9,152.7c-0.9,1.9-1.9,3.9-2.8,5.8c-0.3,0.7-0.5,1.4,0,2.1c0.4,0.6,1.1,0.9,1.8,1.1
						c0.3,0.1,0.5-0.4,0.2-0.6c-0.6-0.2-1.2-0.5-1.6-1c-0.5-0.7,0.2-1.6,0.5-2.3c0.8-1.6,1.6-3.3,2.4-4.9
						C183.6,152.6,183.1,152.3,182.9,152.7L182.9,152.7z"/>
				</g>
			</g>
			<g>
				<g>
					<path class="st6" d="M184.3,167.8c2.4-1.3,4.8-2.5,7.3-3.8c-0.1,0-0.3-0.1-0.4-0.1c0.6,1.4,0.1,3.1-1.1,3.9
						c-0.3,0.2,0,0.7,0.3,0.5c1.5-1.1,2-3,1.3-4.7c-0.1-0.1-0.3-0.2-0.4-0.1c-2.4,1.3-4.8,2.5-7.3,3.8
						C183.7,167.5,184,168,184.3,167.8L184.3,167.8z"/>
				</g>
			</g>
		</g>
		<g>
			<polygon class="st7" points="210,291.2 211.5,294.7 220.9,287.5 			"/>
			<path class="st7" d="M211.5,295L211.5,295c-0.2,0-0.2-0.1-0.3-0.2l-1.5-3.5c0-0.1,0-0.2,0-0.2c0-0.1,0.1-0.1,0.2-0.2l10.9-3.7
				c0.1,0,0.3,0,0.4,0.1c0.1,0.1,0,0.3-0.1,0.4l-9.4,7.2C211.7,295,211.6,295,211.5,295z M210.4,291.4l1.2,2.9l7.6-5.9L210.4,291.4z
				"/>
		</g>
		<g>
			<g>
				<g>
					<path class="st8" d="M193.3,293.6l-13.6,8.2c-1.2,0.7-1.3,2.4-0.2,3.3l0,0c1.2,1,2.8,1.4,4.3,1.3l9.1-0.9L193.3,293.6z"/>
					<path class="st6" d="M183.2,306.7c-1.4,0-2.8-0.5-3.9-1.4c-0.6-0.5-0.9-1.2-0.9-2s0.5-1.5,1.1-1.8l13.6-8.2
						c0.1-0.1,0.2-0.1,0.3,0s0.2,0.2,0.2,0.3l-0.4,11.9c0,0.2-0.1,0.3-0.3,0.3l-9.1,0.9C183.6,306.7,183.4,306.7,183.2,306.7z
						 M192.9,294.2l-13.1,7.9c-0.5,0.3-0.8,0.8-0.8,1.4s0.2,1.1,0.6,1.5c1.2,0.9,2.6,1.3,4.1,1.2l8.8-0.8L192.9,294.2z"/>
				</g>
			</g>
			<g>
				<polygon class="st7" points="186.5,306.1 192.8,305.5 193.3,293.6 188,296.8 				"/>
				<path class="st7" d="M186.5,306.4c-0.1,0-0.2,0-0.2-0.1c-0.1-0.1-0.1-0.2-0.1-0.3l1.4-9.3c0-0.1,0.1-0.2,0.1-0.2l5.3-3.2
					c0.1-0.1,0.2-0.1,0.3,0s0.2,0.2,0.2,0.3l-0.4,11.9c0,0.2-0.1,0.3-0.3,0.3L186.5,306.4L186.5,306.4z M188.2,297l-1.4,8.8l5.7-0.5
					l0.4-11.1L188.2,297z"/>
			</g>
			<g>
				<path class="st8" d="M251.2,247.9l-8.1-27.5l-27.1,6.7l7.8,28.7l-27.1,31.1c-1.2,1.4-2.1,2.9-2.8,4.6l-6.3,15.5l-1.9,8.4
					c-0.4,1.7,0.1,3.5,1.3,4.8l3.3,3.5c0.8,0.9,2.2,0.8,2.9-0.2c1.1-1.6,1.2-3.6,0.3-5.3l-1.3-2.2l2.6-7.5l12.5,2.7l4.3-16.5
					l32.3-24.8C250.5,264.7,253.4,256,251.2,247.9z"/>
				<path class="st6" d="M191.7,324.7c-0.6,0-1.2-0.2-1.6-0.7l-3.3-3.5c-1.3-1.4-1.8-3.2-1.4-5.1l1.9-8.4l0,0l6.3-15.5
					c0.7-1.7,1.6-3.3,2.9-4.7l27-31l-7.7-28.6c0-0.1,0-0.2,0-0.2c0-0.1,0.1-0.1,0.2-0.1l27.1-6.7c0.2,0,0.3,0.1,0.4,0.2l8.1,27.5
					l0,0c2.3,8.3-0.7,17.1-7.5,22.3L211.9,295l-4.2,16.4c0,0.2-0.2,0.3-0.4,0.2L195,309l-2.4,7.1l1.2,2.1c1,1.8,0.9,4-0.3,5.6
					c-0.4,0.5-1,0.9-1.6,0.9C191.8,324.7,191.7,324.7,191.7,324.7z M187.8,307.1l-1.9,8.4c-0.4,1.6,0.1,3.3,1.2,4.5l3.3,3.5
					c0.3,0.3,0.8,0.5,1.3,0.5s0.9-0.3,1.2-0.7c1-1.5,1.1-3.4,0.2-4.9l-1.3-2.2c0-0.1-0.1-0.2,0-0.3l2.6-7.5c0.1-0.1,0.2-0.2,0.4-0.2
					l12.2,2.6l4.2-16.2c0-0.1,0.1-0.1,0.1-0.2l32.3-24.8c6.6-5.1,9.5-13.6,7.3-21.7l-8-27.2l-26.5,6.5l7.7,28.4c0,0.1,0,0.2-0.1,0.3
					L196.9,287c-1.2,1.3-2.1,2.8-2.7,4.5L187.8,307.1z"/>
			</g>
			<g>
				<path class="st8" d="M194.1,307.5l-2.5,8.6c-0.4,1.4-0.3,2.8,0.3,4.1l3,6.2c0.6,1.2,2.1,1.4,3,0.5l0,0c1.5-1.5,2.1-3.6,1.6-5.6
					l-1.3-5.2l1.5-6.9"/>
				<path class="st6" d="M196.5,327.7c-0.1,0-0.2,0-0.4,0c-0.7-0.1-1.3-0.6-1.6-1.2l-3-6.2c-0.7-1.4-0.8-2.9-0.3-4.3l2.5-8.6
					c0-0.2,0.2-0.3,0.4-0.2c0.2,0,0.3,0.2,0.2,0.4l-2.5,8.6c-0.4,1.3-0.3,2.7,0.3,3.9l3,6.2c0.2,0.5,0.6,0.8,1.1,0.9s1-0.1,1.4-0.4
					c1.4-1.4,1.9-3.4,1.5-5.3l-1.3-5.2v-0.1l1.5-6.9c0-0.2,0.2-0.3,0.4-0.2c0.2,0,0.3,0.2,0.2,0.4l-1.5,6.8l1.3,5.1
					c0.5,2.1-0.1,4.4-1.6,5.9C197.6,327.5,197.1,327.7,196.5,327.7z"/>
			</g>
			<g>
				<path class="st8" d="M199.6,309.2l-1.7,8.3c-0.2,1.2,0.2,2.4,1.2,3l4.1,2.9c0.6,0.4,1.5,0.3,2-0.3l0,0c1.1-1.3,0.9-3.2-0.3-4.3
					l-1.4-1.4l4.2-7.2"/>
				<path class="st6" d="M204,324c-0.4,0-0.7-0.1-1-0.3l-4.1-2.9c-1.1-0.8-1.6-2.1-1.3-3.4l1.7-8.3c0-0.2,0.2-0.3,0.4-0.2
					c0.2,0,0.3,0.2,0.2,0.4l-1.7,8.3c-0.2,1,0.2,2.1,1.1,2.7l4.1,2.9c0.5,0.4,1.2,0.3,1.6-0.2c1-1.1,0.9-2.9-0.2-3.9l-1.4-1.4
					c-0.1-0.1-0.1-0.3-0.1-0.4l4.2-7.2c0.1-0.1,0.3-0.2,0.4-0.1c0.1,0.1,0.2,0.3,0.1,0.4l-4,7l1.3,1.2c1.3,1.2,1.5,3.3,0.3,4.7
					C205.1,323.7,204.5,324,204,324z"/>
			</g>
			<g>
				<polygon class="st7" points="243.1,220.4 216,227.1 245,226.7 				"/>
				<path class="st7" d="M216,227.4c-0.2,0-0.3-0.1-0.3-0.3s0.1-0.3,0.2-0.3l27.1-6.7c0.2,0,0.3,0.1,0.4,0.2l1.9,6.3
					c0,0.1,0,0.2,0,0.3c-0.1,0.1-0.1,0.1-0.2,0.1L216,227.4L216,227.4z M242.9,220.8l-24.2,6l25.9-0.4L242.9,220.8z"/>
			</g>
		</g>
	</g>
	<g id="Chat">
		<g>
			<path class="st9" d="M96,82.3v23.9c0,2.1,1.7,3.9,3.9,3.9h77.8l8.6,9.2c0.9,1,2.6,0.3,2.6-1v-8.2V90.4v-8.1
				c0-2.1-1.7-3.9-3.9-3.9H99.9C97.8,78.4,96,80.2,96,82.3z"/>
			<path class="st7" d="M187.4,120.1c-0.5,0-1-0.2-1.3-0.6l-8.5-9.1H99.9c-2.3,0-4.2-1.9-4.2-4.2V82.3c0-2.3,1.9-4.2,4.2-4.2H185
				c2.3,0,4.2,1.9,4.2,4.2v36c0,0.8-0.4,1.4-1.1,1.7C187.8,120,187.6,120.1,187.4,120.1z M99.9,78.7c-2,0-3.6,1.6-3.6,3.6v23.9
				c0,2,1.6,3.6,3.6,3.6h77.8c0.1,0,0.2,0,0.2,0.1l8.6,9.2c0.4,0.4,0.9,0.4,1.3,0.3c0.4-0.1,0.8-0.5,0.8-1.1v-36
				c0-2-1.6-3.6-3.6-3.6H99.9z"/>
		</g>
		<g>
			<g>
				<path class="st6" d="M102.1,86.3c9.7,0,19.3,0,29,0c9.6,0,19.2,0,28.8,0c5.4,0,10.8,0,16.3,0c0.4,0,0.4-0.6,0-0.6
					c-9.7,0-19.3,0-29,0c-9.6,0-19.2,0-28.8,0c-5.4,0-10.8,0-16.3,0C101.7,85.7,101.7,86.3,102.1,86.3L102.1,86.3z"/>
			</g>
		</g>
		<g>
			<g>
				<path class="st6" d="M102.1,93.9c10.4,0,20.8,0,31.2,0c10.3,0,20.7,0,31,0c5.8,0,11.7,0,17.5,0c0.4,0,0.4-0.6,0-0.6
					c-10.4,0-20.8,0-31.2,0c-10.3,0-20.7,0-31,0c-5.8,0-11.7,0-17.5,0C101.7,93.3,101.7,93.9,102.1,93.9L102.1,93.9z"/>
			</g>
		</g>
		<g>
			<g>
				<path class="st6" d="M102.1,101.5c10.5,0,20.9,0,31.4,0c10.4,0,20.8,0,31.2,0c5.9,0,11.7,0,17.6,0c0.4,0,0.4-0.6,0-0.6
					c-10.5,0-20.9,0-31.4,0c-10.4,0-20.8,0-31.2,0c-5.9,0-11.7,0-17.6,0C101.7,100.9,101.7,101.5,102.1,101.5L102.1,101.5z"/>
			</g>
		</g>
	</g>
	<g id="Icon">
		<g>
			<g>
				<circle class="st10" cx="280.7" cy="235.8" r="15.9"/>
				<path class="st7" d="M280.7,252.1c-9,0-16.2-7.3-16.2-16.2c0-9,7.3-16.2,16.2-16.2s16.2,7.3,16.2,16.2
					C297,244.8,289.7,252.1,280.7,252.1z M280.7,220.2c-8.6,0-15.6,7-15.6,15.6s7,15.6,15.6,15.6s15.6-7,15.6-15.6
					C296.4,227.2,289.3,220.2,280.7,220.2z"/>
			</g>
			<g>
				<path class="st3" d="M284.8,231.4h-8.1h-0.2c-3.3,0-6,2.7-6,6l0,0v1.3c0,0.9,0.7,1.6,1.6,1.6h3.1c0.9,0,1.6-0.7,1.6-1.6v-1.3
					h8.1v1.3c0,0.9,0.7,1.6,1.6,1.6h3.1c0.9,0,1.6-0.7,1.6-1.6v-1.3l0,0c0-3.3-2.7-6-6-6H284.8z"/>
			</g>
		</g>
		<g>
			<g>
				<circle class="st10" cx="280.7" cy="279.1" r="15.9"/>
				<path class="st7" d="M280.7,295.3c-9,0-16.2-7.3-16.2-16.2s7.3-16.2,16.2-16.2s16.2,7.3,16.2,16.2S289.7,295.3,280.7,295.3z
					 M280.7,263.4c-8.6,0-15.6,7-15.6,15.6s7,15.6,15.6,15.6s15.6-7,15.6-15.6S289.3,263.4,280.7,263.4z"/>
			</g>
			<g>
				<path class="st3" d="M284.8,274.7h-8.1h-0.2c-3.3,0-6,2.7-6,6l0,0v1.3c0,0.9,0.7,1.6,1.6,1.6h3.1c0.9,0,1.6-0.7,1.6-1.6v-1.3
					h8.1v1.3c0,0.9,0.7,1.6,1.6,1.6h3.1c0.9,0,1.6-0.7,1.6-1.6v-1.3l0,0c0-3.3-2.7-6-6-6H284.8z"/>
			</g>
			<g>
				<g>
					<path class="st11" d="M272.6,270.9c5.4,5.4,10.8,10.8,16.3,16.3"/>
				</g>
				<g>
					<g>
						<path class="st6" d="M272.3,271.2c4.2,4.2,8.4,8.4,12.7,12.7c1.2,1.2,2.4,2.4,3.6,3.6c0.4,0.4,1-0.2,0.6-0.6
							c-4.2-4.2-8.4-8.4-12.7-12.7c-1.2-1.2-2.4-2.4-3.6-3.6C272.5,270.2,271.9,270.9,272.3,271.2L272.3,271.2z"/>
					</g>
				</g>
			</g>
		</g>
		<g>
			<g>
				<circle class="st10" cx="280.7" cy="192.6" r="15.9"/>
				<path class="st7" d="M280.7,208.9c-9,0-16.2-7.3-16.2-16.2s7.3-16.2,16.2-16.2s16.2,7.3,16.2,16.2S289.7,208.9,280.7,208.9z
					 M280.7,177c-8.6,0-15.6,7-15.6,15.6s7,15.6,15.6,15.6s15.6-7,15.6-15.6C296.4,184,289.3,177,280.7,177z"/>
			</g>
			<g>
				<g>
					<path class="st3" d="M280.7,196.8h-6c-0.7,0-1.2-0.5-1.2-1.2v-6c0-0.7,0.5-1.2,1.2-1.2h6c0.7,0,1.2,0.5,1.2,1.2v6
						C281.9,196.3,281.4,196.8,280.7,196.8z"/>
				</g>
				<g>
					<path class="st3" d="M286.8,196.5l-3.4-3.4c-0.3-0.3-0.3-0.7,0-1l3.4-3.4c0.4-0.4,1.2-0.1,1.2,0.5v6.7
						C288,196.6,287.2,196.9,286.8,196.5z"/>
				</g>
			</g>
		</g>
	</g>
	<g id="Memphis_element_4_">
		<g>
			<g>
				<path class="st3" d="M11.7,213.1l-4.5-4.5c-1.2-1.2-1.2-3.1,0-4.3l0,0c1.2-1.2,3.1-1.2,4.3,0l4.5,4.5c1.2,1.2,1.2,3.1,0,4.3l0,0
					C14.9,214.3,12.9,214.3,11.7,213.1z"/>
			</g>
		</g>
		<g>
			<g>
				<path class="st7" d="M267.7,123.2l-4.5-4.5c-1.2-1.2-1.2-3.1,0-4.3l0,0c1.2-1.2,3.1-1.2,4.3,0l4.5,4.5c1.2,1.2,1.2,3.1,0,4.3
					l0,0C270.9,124.4,268.9,124.4,267.7,123.2z"/>
			</g>
		</g>
		<g>
			<g>
				<path class="st3" d="M317.4,314.8l7.3-7.3c1.2-1.2,3.2-1.2,4.4,0l0,0c1.2,1.2,1.2,3.2,0,4.4l-7.3,7.3c-1.2,1.2-3.2,1.2-4.4,0
					l0,0C316.2,318,316.2,316,317.4,314.8z"/>
			</g>
		</g>
		<g>
			<g>
				<path class="st7" d="M42.2,339.2l5.9-5.9c1-1,2.5-1,3.5,0l0,0c1,1,1,2.5,0,3.5l-5.9,5.9c-1,1-2.5,1-3.5,0l0,0
					C41.3,341.8,41.3,340.2,42.2,339.2z"/>
			</g>
		</g>
		<g>
			<g>
				<circle class="st7" cx="139.1" cy="188.9" r="5.1"/>
			</g>
		</g>
		<g>
			<g>
				<circle class="st1" cx="316.3" cy="166.1" r="4.4"/>
			</g>
		</g>
		<g>
			<g>
				<circle class="st1" cx="89.2" cy="78.7" r="4.4"/>
			</g>
		</g>
		<g>
			<g>
				<path class="st1" d="M222.7,375.4l-3.9-3.9c-0.2-0.2-0.5-0.3-0.7-0.3c-0.3,0-0.5,0.1-0.7,0.3l-3.1,3.1l-3.1-3.1l0,0l-0.1-0.1
					c0,0-0.1,0-0.1-0.1c0,0,0,0-0.1,0h-0.1c0,0,0,0-0.1,0s-0.1,0-0.2,0l0,0l0,0c-0.1,0-0.1,0-0.2,0c0,0,0,0-0.1,0h-0.1
					c0,0,0,0-0.1,0c0,0-0.1,0-0.1,0.1c-0.1,0-0.1,0.1-0.2,0.1l-3.1,3.1l-3.1-3.1c-0.4-0.4-1.1-0.4-1.5,0s-0.4,1.1,0,1.5l3.9,3.9
					c0.2,0.2,0.5,0.3,0.7,0.3c0.3,0,0.5-0.1,0.7-0.3l3.1-3.1l3.1,3.1l0,0l0.1,0.1c0,0,0.1,0,0.1,0.1c0,0,0,0,0.1,0h0.1
					c0,0,0,0,0.1,0s0.1,0,0.2,0l0,0l0,0c0.1,0,0.1,0,0.2,0c0,0,0,0,0.1,0h0.1h0.1c0,0,0.1,0,0.1-0.1c0.1,0,0.1-0.1,0.2-0.1l3.1-3.1
					l3.1,3.1c0.4,0.4,1.1,0.4,1.5,0C223.1,376.5,223.1,375.8,222.7,375.4z"/>
			</g>
			<g>
				<path class="st1" d="M222.7,369.4l-3.9-3.9c-0.2-0.2-0.5-0.3-0.7-0.3c-0.3,0-0.5,0.1-0.7,0.3l-3.1,3.1l-3.1-3.1l0,0l-0.1-0.1
					c0,0-0.1,0-0.1-0.1c0,0,0,0-0.1,0h-0.1c0,0,0,0-0.1,0s-0.1,0-0.2,0l0,0l0,0c-0.1,0-0.1,0-0.2,0c0,0,0,0-0.1,0h-0.1
					c0,0,0,0-0.1,0c0,0-0.1,0-0.1,0.1c-0.1,0-0.1,0.1-0.2,0.1l-3.1,3.1l-3.1-3.1c-0.4-0.4-1.1-0.4-1.5,0s-0.4,1.1,0,1.5l3.9,3.9
					c0.2,0.2,0.5,0.3,0.7,0.3c0.3,0,0.5-0.1,0.7-0.3l3.1-3.1l3.1,3.1l0,0l0.1,0.1c0,0,0.1,0,0.1,0.1c0,0,0,0,0.1,0h0.1
					c0,0,0,0,0.1,0s0.1,0,0.2,0l0,0l0,0c0.1,0,0.1,0,0.2,0c0,0,0,0,0.1,0h0.1h0.1c0,0,0.1,0,0.1-0.1c0.1,0,0.1-0.1,0.2-0.1l3.1-3.1
					l3.1,3.1c0.4,0.4,1.1,0.4,1.5,0C223.1,370.4,223.1,369.8,222.7,369.4z"/>
			</g>
		</g>
		<g>
			<g>
				<path class="st1" d="M57.2,170.4h3.6c0.2,0,0.4-0.1,0.5-0.2c0.1-0.1,0.2-0.3,0.2-0.5v-2.9h2.9l0,0h0.1h0.1l0,0h0.1l0,0
					c0,0,0.1,0,0.1-0.1l0,0l0,0l0.1-0.1l0,0v-0.1c0,0,0,0,0-0.1c0,0,0,0,0-0.1v-0.1v-2.9h2.9c0.4,0,0.7-0.3,0.7-0.7
					s-0.3-0.7-0.7-0.7h-3.6c-0.2,0-0.4,0.1-0.5,0.2c-0.1,0.1-0.2,0.3-0.2,0.5v2.9h-2.9l0,0h-0.1h-0.1l0,0h-0.1l0,0
					c0,0-0.1,0-0.1,0.1l0,0l0,0l-0.1,0.1l0,0v0.1c0,0,0,0,0,0.1c0,0,0,0,0,0.1v0.1v2.9h-2.9c-0.4,0-0.7,0.3-0.7,0.7
					C56.5,170.1,56.8,170.4,57.2,170.4z"/>
			</g>
			<g>
				<path class="st1" d="M60,173.1h3.6c0.2,0,0.4-0.1,0.5-0.2c0.1-0.1,0.2-0.3,0.2-0.5v-2.9h2.9l0,0h0.1h0.1l0,0h0.1l0,0
					c0,0,0.1,0,0.1-0.1l0,0l0,0l0.1-0.1l0,0v-0.1c0,0,0,0,0-0.1c0,0,0,0,0-0.1v-0.1V166h2.9c0.4,0,0.7-0.3,0.7-0.7s-0.3-0.7-0.7-0.7
					H67c-0.2,0-0.4,0.1-0.5,0.2c-0.1,0.1-0.2,0.3-0.2,0.5v2.9h-2.9l0,0h-0.1h-0.1l0,0h-0.1l0,0c0,0-0.1,0-0.1,0.1l0,0l0,0l-0.1,0.1
					l0,0v0.1c0,0,0,0,0,0.1c0,0,0,0,0,0.1v0.1v2.9H60c-0.4,0-0.7,0.3-0.7,0.7S59.6,173.1,60,173.1z"/>
			</g>
		</g>
		<g>
			<g>
				<path class="st7" d="M93.9,349.5h3.6c0.2,0,0.4-0.1,0.5-0.2s0.2-0.3,0.2-0.5v-2.9h2.9l0,0h0.1h0.1l0,0h0.1l0,0
					c0,0,0.1,0,0.1-0.1l0,0l0,0l0.1-0.1l0,0v-0.1c0,0,0,0,0-0.1c0,0,0,0,0-0.1v-0.1v-2.9h2.9c0.4,0,0.7-0.3,0.7-0.7
					c0-0.4-0.3-0.7-0.7-0.7h-3.6c-0.2,0-0.4,0.1-0.5,0.2s-0.2,0.3-0.2,0.5v2.9h-2.9l0,0h-0.1h-0.1l0,0H97l0,0c0,0-0.1,0-0.1,0.1l0,0
					l0,0l-0.1,0.1l0,0v0.1c0,0,0,0,0,0.1c0,0,0,0,0,0.1v0.1v2.9h-2.9c-0.4,0-0.7,0.3-0.7,0.7C93.3,349.2,93.6,349.5,93.9,349.5z"/>
			</g>
			<g>
				<path class="st7" d="M96.7,352.3h3.6c0.2,0,0.4-0.1,0.5-0.2s0.2-0.3,0.2-0.5v-2.9h2.9l0,0h0.1h0.1l0,0h0.1l0,0
					c0,0,0.1,0,0.1-0.1l0,0l0,0l0.1-0.1l0,0v-0.1c0,0,0,0,0-0.1c0,0,0,0,0-0.1v-0.1v-2.9h2.9c0.4,0,0.7-0.3,0.7-0.7
					c0-0.4-0.3-0.7-0.7-0.7h-3.6c-0.2,0-0.4,0.1-0.5,0.2s-0.2,0.3-0.2,0.5v2.9h-2.9l0,0H100h-0.1l0,0h-0.1l0,0c0,0-0.1,0-0.1,0.1
					l0,0l0,0l-0.1,0.1l0,0v0.1c0,0,0,0,0,0.1c0,0,0,0,0,0.1v0.1v2.9h-2.9c-0.4,0-0.7,0.3-0.7,0.7S96.3,352.3,96.7,352.3z"/>
			</g>
		</g>
		<g>
			<g>
				<path class="st3" d="M236.3,75.6c-0.2-0.2-0.3-0.5-0.3-0.7v-4.4h-4.4c-0.6,0-1.1-0.5-1.1-1.1v-5.5c0-0.6,0.5-1.1,1.1-1.1
					s1.1,0.5,1.1,1.1v4.4h4.4c0.6,0,1.1,0.5,1.1,1.1v4.4h4.4c0.6,0,1.1,0.5,1.1,1.1s-0.5,1.1-1.1,1.1h-5.5
					C236.7,75.9,236.5,75.8,236.3,75.6z"/>
			</g>
			<g>
				<path class="st3" d="M240.3,71.6c-0.2-0.2-0.3-0.5-0.3-0.7v-4.4h-4.4c-0.6,0-1.1-0.5-1.1-1.1v-5.5c0-0.6,0.5-1.1,1.1-1.1
					s1.1,0.5,1.1,1.1v4.4h4.4c0.6,0,1.1,0.5,1.1,1.1v4.4h4.4c0.6,0,1.1,0.5,1.1,1.1s-0.5,1.1-1.1,1.1h-5.5
					C240.7,71.9,240.5,71.8,240.3,71.6z"/>
			</g>
		</g>
		<g>
			<g>
				<path class="st3" d="M36.7,254.6c0.3,0,0.7,0.1,0.9,0.4l3.9,3.9l3.9-3.9c0.5-0.5,1.3-0.5,1.8,0l4.8,4.8c0.5,0.5,0.5,1.3,0,1.8
					s-1.3,0.5-1.8,0l-3.9-3.9l-3.9,3.9c-0.5,0.5-1.3,0.5-1.8,0l-3.9-3.9l-3.9,3.9c-0.5,0.5-1.3,0.5-1.8,0s-0.5-1.3,0-1.8l4.8-4.8
					C36.1,254.7,36.4,254.6,36.7,254.6z"/>
			</g>
			<g>
				<path class="st3" d="M36.7,261.5c0.3,0,0.7,0.1,0.9,0.4l3.9,3.9l3.9-3.9c0.5-0.5,1.3-0.5,1.8,0l4.8,4.8c0.5,0.5,0.5,1.3,0,1.8
					s-1.3,0.5-1.8,0l-3.9-3.9l-3.9,3.9c-0.5,0.5-1.3,0.5-1.8,0l-3.9-3.9l-3.9,3.9c-0.5,0.5-1.3,0.5-1.8,0s-0.5-1.3,0-1.8l4.8-4.8
					C36.1,261.7,36.4,261.5,36.7,261.5z"/>
			</g>
		</g>
		<g>
			<g>
				<circle class="st7" cx="327.3" cy="237.8" r="1.5"/>
			</g>
			<g>
				<circle class="st7" cx="331.7" cy="237.8" r="1.5"/>
			</g>
			<g>
				<circle class="st7" cx="336.2" cy="237.8" r="1.5"/>
			</g>
			<g>
				<circle class="st7" cx="327.3" cy="229.2" r="1.5"/>
			</g>
			<g>
				<circle class="st7" cx="331.7" cy="229.2" r="1.5"/>
			</g>
			<g>
				<circle class="st7" cx="336.2" cy="229.2" r="1.5"/>
			</g>
			<g>
				<circle class="st7" cx="327.3" cy="233.5" r="1.5"/>
			</g>
			<g>
				<circle class="st7" cx="331.7" cy="233.5" r="1.5"/>
			</g>
			<g>
				<circle class="st7" cx="336.2" cy="233.5" r="1.5"/>
			</g>
		</g>
		<g>
			<g>
				<circle class="st7" cx="283.1" cy="352.2" r="2.4"/>
			</g>
			<g>
				<circle class="st7" cx="289.9" cy="352.2" r="2.4"/>
			</g>
			<g>
				<circle class="st7" cx="283.1" cy="359.2" r="2.4"/>
			</g>
			<g>
				<circle class="st7" cx="289.9" cy="359.2" r="2.4"/>
			</g>
		</g>
		<g>
			<g>
				<circle class="st3" cx="30.7" cy="123.1" r="2.6"/>
			</g>
			<g>
				<circle class="st3" cx="36.1" cy="128.5" r="2.6"/>
			</g>
			<g>
				<circle class="st3" cx="25.3" cy="128.6" r="2.6"/>
			</g>
			<g>
				<circle class="st3" cx="30.6" cy="133.9" r="2.6"/>
			</g>
		</g>
	</g>
</g>
</svg>
