<?xml version="1.0" encoding="utf-8"?>
<!-- Generator: Adobe Illustrator 23.0.6, SVG Export Plug-In . SVG Version: 6.00 Build 0)  -->
<svg version="1.1" id="Capa_1" xmlns="http://www.w3.org/2000/svg" xmlns:xlink="http://www.w3.org/1999/xlink" x="0px" y="0px"
	 viewBox="0 0 661 496" style="enable-background:new 0 0 661 496;" xml:space="preserve">
<style type="text/css">
	.st0{fill:#FFFFFF;}
	.st1{clip-path:url(#SVGID_2_);fill:url(#SVGID_3_);}
	.st2{fill:#F2F3F4;}
	.st3{fill:#78B46F;}
</style>
<g>
	<path class="st0" d="M653,496H8c-4.4,0-8-3.6-8-8V8c0-4.4,3.6-8,8-8h645c4.4,0,8,3.6,8,8v480C661,492.4,657.4,496,653,496z"/>
	<g>
		<defs>
			<path id="SVGID_1_" d="M653,496H8c-4.4,0-8-3.6-8-8V8c0-4.4,3.6-8,8-8h645c4.4,0,8,3.6,8,8v480C661,492.4,657.4,496,653,496z"/>
		</defs>
		<clipPath id="SVGID_2_">
			<use xlink:href="#SVGID_1_"  style="overflow:visible;"/>
		</clipPath>
		
			<linearGradient id="SVGID_3_" gradientUnits="userSpaceOnUse" x1="73.175" y1="12.297" x2="73.175" y2="473.24" gradientTransform="matrix(1 0 0 -1 0 496)">
			<stop  offset="8.199999e-02" style="stop-color:#FFFFFF;stop-opacity:0"/>
			<stop  offset="0.316" style="stop-color:#F9F9FA;stop-opacity:0.3496"/>
			<stop  offset="0.751" style="stop-color:#F2F3F4"/>
		</linearGradient>
		<path class="st1" d="M0,0h146.4v496H0V0z"/>
	</g>
	<path d="M25.3,136.9h0.8l2.5,4.8l2.5-4.8h0.8v6.9h-0.8v-5.2l-2.5,4.8l-2.5-4.8v5.2h-0.8V136.9z M37.8,140.6v3.1h-0.8v-0.8
		c-0.4,0.6-1.1,0.9-1.8,0.9c-1.1,0-1.9-0.6-1.9-1.6c0-1,0.9-1.7,2-1.7c0.6,0,1.2,0.1,1.7,0.3v-0.2c0-0.7-0.3-1.5-1.4-1.5
		c-0.5,0-1,0.2-1.5,0.5l-0.3-0.6c0.7-0.4,1.4-0.5,1.9-0.5C37.2,138.5,37.8,139.3,37.8,140.6L37.8,140.6z M37.1,142.1v-0.8
		c-0.5-0.1-1-0.2-1.6-0.2c-0.8,0-1.4,0.4-1.4,1.1c0,0.6,0.6,1,1.3,1C36.1,143.2,36.9,142.9,37.1,142.1z M43.8,140.5v3.3H43v-3.2
		c0-0.8-0.5-1.4-1.3-1.4c-0.9,0-1.6,0.6-1.6,1.3v3.3h-0.8v-5.2h0.8v0.8c0.3-0.6,1-0.9,1.7-0.9C43,138.5,43.8,139.3,43.8,140.5z
		 M49.7,138.6v5.2h-0.8v-0.8c-0.3,0.6-1,0.9-1.7,0.9c-1.1,0-1.9-0.8-1.9-2v-3.3H46v3.2c0,0.8,0.5,1.4,1.3,1.4c0.9,0,1.6-0.6,1.6-1.3
		v-3.3H49.7z M55.4,140.6v3.1h-0.8v-0.8c-0.4,0.6-1.1,0.9-1.8,0.9c-1.1,0-1.9-0.6-1.9-1.6c0-1,0.9-1.7,2-1.7c0.6,0,1.2,0.1,1.7,0.3
		v-0.2c0-0.7-0.3-1.5-1.4-1.5c-0.5,0-1,0.2-1.5,0.5l-0.3-0.6c0.7-0.4,1.4-0.5,1.9-0.5C54.7,138.5,55.4,139.3,55.4,140.6L55.4,140.6z
		 M54.7,142.1v-0.8c-0.5-0.1-1-0.2-1.6-0.2c-0.8,0-1.4,0.4-1.4,1.1c0,0.6,0.6,1,1.3,1C53.7,143.2,54.5,142.9,54.7,142.1z
		 M56.9,136.8h0.8v7h-0.8V136.8z M65.3,140.1h2.8v2.7c-0.6,0.6-1.7,1.1-2.7,1.1c-1.9,0-3.5-1.6-3.5-3.6s1.6-3.6,3.5-3.6
		c0.9,0,2,0.4,2.7,1.1l-0.5,0.5c-0.5-0.5-1.4-0.9-2.1-0.9c-1.5,0-2.7,1.3-2.7,2.8c0,1.5,1.2,2.8,2.7,2.8c0.6,0,1.4-0.2,1.9-0.6v-1.6
		h-2V140.1z M72.4,138.5v0.7c-1.2,0-2,0.7-2,1.7v2.9h-0.8v-5.2h0.8v1C70.7,138.9,71.4,138.5,72.4,138.5L72.4,138.5z M77.6,140.6v3.1
		h-0.8v-0.8c-0.4,0.6-1.1,0.9-1.8,0.9c-1.1,0-1.9-0.6-1.9-1.6c0-1,0.9-1.7,2-1.7c0.6,0,1.2,0.1,1.7,0.3v-0.2c0-0.7-0.3-1.5-1.4-1.5
		c-0.5,0-1,0.2-1.5,0.5l-0.3-0.6c0.7-0.4,1.4-0.5,1.9-0.5C76.9,138.5,77.6,139.3,77.6,140.6L77.6,140.6z M76.9,142.1v-0.8
		c-0.5-0.1-1-0.2-1.6-0.2c-0.8,0-1.4,0.4-1.4,1.1c0,0.6,0.6,1,1.3,1C75.9,143.2,76.7,142.9,76.9,142.1z M83.9,136.8v7h-0.8v-1
		c-0.4,0.7-1.1,1.1-1.9,1.1c-1.4,0-2.4-1.1-2.4-2.7c0-1.6,1-2.7,2.4-2.7c0.8,0,1.5,0.4,1.9,1.1v-2.8H83.9z M83.2,141.2
		c0-1.2-0.7-2-1.7-2c-1,0-1.7,0.8-1.7,2s0.7,2,1.7,2C82.5,143.2,83.2,142.3,83.2,141.2z M85.4,137.1c0-0.3,0.2-0.5,0.5-0.5
		c0.3,0,0.5,0.2,0.5,0.5c0,0.3-0.2,0.5-0.5,0.5C85.6,137.6,85.4,137.4,85.4,137.1z M85.5,138.6h0.8v5.2h-0.8V138.6z M92.2,140.5v3.3
		h-0.8v-3.2c0-0.8-0.5-1.4-1.3-1.4c-0.9,0-1.6,0.6-1.6,1.3v3.3h-0.8v-5.2h0.8v0.8c0.3-0.6,1-0.9,1.7-0.9
		C91.4,138.5,92.2,139.3,92.2,140.5z M98.5,138.6v4.6c0,1.3-1.1,2.3-2.5,2.3c-0.8,0-1.6-0.3-2.1-0.7l0.3-0.6c0.4,0.4,1,0.6,1.7,0.6
		c1.2,0,1.9-0.6,1.9-1.6v-0.8c-0.4,0.6-1.1,1-1.9,1c-1.4,0-2.4-1-2.4-2.5s1-2.4,2.4-2.4c0.8,0,1.5,0.4,1.9,1v-0.9L98.5,138.6
		L98.5,138.6z M97.7,140.9c0-1-0.7-1.8-1.7-1.8c-1,0-1.7,0.7-1.7,1.8c0,1.1,0.7,1.8,1.7,1.8C97,142.7,97.7,142,97.7,140.9z
		 M25.3,157.1h0.8l2.5,4.8l2.5-4.8h0.8v6.9h-0.8v-5.2l-2.5,4.8l-2.5-4.8v5.2h-0.8V157.1z M37.8,160.9v3.1h-0.8v-0.8
		c-0.4,0.6-1.1,0.9-1.8,0.9c-1.1,0-1.9-0.6-1.9-1.6c0-1,0.9-1.7,2-1.7c0.6,0,1.2,0.1,1.7,0.3v-0.2c0-0.7-0.3-1.5-1.4-1.5
		c-0.5,0-1,0.2-1.5,0.5l-0.3-0.6c0.7-0.4,1.4-0.5,1.9-0.5C37.2,158.7,37.8,159.6,37.8,160.9L37.8,160.9z M37.1,162.4v-0.8
		c-0.5-0.1-1-0.2-1.6-0.2c-0.8,0-1.4,0.4-1.4,1.1c0,0.6,0.6,1,1.3,1C36.1,163.5,36.9,163.1,37.1,162.4z M43.8,160.7v3.3H43v-3.2
		c0-0.8-0.5-1.4-1.3-1.4c-0.9,0-1.6,0.6-1.6,1.3v3.3h-0.8v-5.2h0.8v0.8c0.3-0.6,1-0.9,1.7-0.9C43,158.7,43.8,159.6,43.8,160.7z
		 M49.5,160.9v3.1h-0.8v-0.8c-0.4,0.6-1.1,0.9-1.8,0.9c-1.1,0-1.9-0.6-1.9-1.6c0-1,0.9-1.7,2-1.7c0.6,0,1.2,0.1,1.7,0.3v-0.2
		c0-0.7-0.3-1.5-1.4-1.5c-0.5,0-1,0.2-1.5,0.5l-0.3-0.6c0.7-0.4,1.4-0.5,1.9-0.5C48.8,158.7,49.5,159.6,49.5,160.9L49.5,160.9z
		 M48.7,162.4v-0.8c-0.5-0.1-1-0.2-1.6-0.2c-0.8,0-1.4,0.4-1.4,1.1c0,0.6,0.6,1,1.3,1C47.7,163.5,48.5,163.1,48.7,162.4z
		 M55.8,158.9v4.6c0,1.3-1,2.3-2.5,2.3c-0.8,0-1.6-0.3-2.1-0.7l0.3-0.6c0.4,0.4,1,0.6,1.7,0.6c1.2,0,1.9-0.6,1.9-1.6v-0.8
		c-0.4,0.6-1.1,1-1.9,1c-1.4,0-2.4-1-2.4-2.5s1-2.4,2.4-2.4c0.8,0,1.5,0.4,1.9,1v-0.9L55.8,158.9L55.8,158.9z M55,161.2
		c0-1-0.7-1.8-1.7-1.8c-1,0-1.7,0.7-1.7,1.8c0,1.1,0.7,1.8,1.7,1.8C54.3,163,55,162.2,55,161.2z M61.3,162.9l0.5,0.5
		c-0.5,0.5-1.4,0.8-2.1,0.8c-1.4,0-2.6-1.1-2.6-2.7c0-1.5,1.2-2.7,2.5-2.7c1.6,0,2.5,1.2,2.5,3h-4.2c0.1,1,0.8,1.8,1.8,1.8
		C60.3,163.5,61,163.2,61.3,162.9L61.3,162.9z M57.9,161.1h3.5c-0.1-0.9-0.7-1.6-1.7-1.6C58.8,159.4,58,160.1,57.9,161.1z M65.9,163
		l0.5-0.6c0.6,0.6,1.3,1,2.2,1c1.1,0,1.6-0.6,1.6-1.2c0-0.7-0.7-1-1.8-1.3c-1.4-0.3-2.2-0.8-2.2-1.9c0-1.1,1-2,2.3-2
		c1,0,1.8,0.4,2.4,1l-0.5,0.6c-0.6-0.6-1.2-0.9-2-0.9c-0.8,0-1.5,0.6-1.5,1.2c0,0.7,0.7,1,1.8,1.2c1.3,0.3,2.2,0.8,2.2,2
		c0,1.1-0.8,2-2.4,2C67.5,164.1,66.6,163.7,65.9,163z M75,163.8c-0.3,0.2-0.6,0.3-1,0.3c-0.7,0-1.3-0.6-1.3-1.3v-3.3H72v-0.7h0.8
		v-1.4h0.8v1.4h1.3v0.7h-1.3v3.3c0,0.4,0.3,0.6,0.6,0.6c0.2,0,0.4-0.1,0.5-0.2L75,163.8L75,163.8z M80.4,158.9v5.2h-0.8v-0.8
		c-0.3,0.6-1,0.9-1.7,0.9c-1.1,0-1.9-0.8-1.9-2v-3.3h0.8v3.2c0,0.8,0.5,1.4,1.3,1.4c0.9,0,1.6-0.6,1.6-1.3v-3.3H80.4z M86.8,157v7
		H86v-1c-0.4,0.7-1.1,1.1-1.9,1.1c-1.4,0-2.4-1.1-2.4-2.7c0-1.6,1-2.7,2.4-2.7c0.8,0,1.5,0.4,1.9,1.1V157H86.8z M86,161.4
		c0-1.2-0.7-2-1.7-2c-1,0-1.7,0.8-1.7,2s0.7,2,1.7,2C85.3,163.5,86,162.6,86,161.4z M92.3,162.9l0.5,0.5c-0.4,0.5-1.4,0.8-2.1,0.8
		c-1.4,0-2.6-1.1-2.6-2.7c0-1.5,1.2-2.7,2.6-2.7c1.6,0,2.4,1.2,2.4,3h-4.2c0.1,1,0.8,1.8,1.8,1.8C91.3,163.5,92,163.2,92.3,162.9
		L92.3,162.9z M88.9,161.1h3.5c-0.1-0.9-0.7-1.6-1.7-1.6C89.7,159.4,89,160.1,88.9,161.1z M98.7,160.7v3.3H98v-3.2
		c0-0.8-0.5-1.4-1.3-1.4c-0.9,0-1.6,0.6-1.6,1.3v3.3h-0.8v-5.2h0.8v0.8c0.3-0.6,1-0.9,1.7-0.9C97.9,158.7,98.7,159.6,98.7,160.7z
		 M102.9,163.8c-0.3,0.2-0.6,0.3-1,0.3c-0.7,0-1.3-0.6-1.3-1.3v-3.3h-0.8v-0.7h0.8v-1.4h0.8v1.4h1.3v0.7h-1.3v3.3
		c0,0.4,0.3,0.6,0.6,0.6c0.2,0,0.4-0.1,0.5-0.2L102.9,163.8L102.9,163.8z M103.6,163.4l0.4-0.6c0.6,0.4,1.2,0.6,1.8,0.6
		c0.7,0,1.1-0.3,1.1-0.8c0-0.6-0.6-0.7-1.3-0.9c-1.2-0.4-1.7-0.7-1.7-1.5c0-0.9,0.8-1.5,1.8-1.5c0.6,0,1.3,0.2,1.8,0.6l-0.4,0.6
		c-0.5-0.3-1-0.5-1.5-0.5c-0.6,0-1.1,0.3-1.1,0.8c0,0.4,0.4,0.6,1.3,0.9c0.8,0.3,1.7,0.5,1.7,1.5c0,0.9-0.8,1.6-1.9,1.6
		C105,164.1,104.2,163.9,103.6,163.4L103.6,163.4z"/>
	<path class="st2" d="M623.1,41.5c-0.2-0.6-0.3-1.2-0.5-1.9c-0.5-2.8-1.4-5.6-1.2-8.5c0.1-2,0.7-3.8,2-5.3c1.4-1.6,3.3-2.6,5.5-2.9
		c2.7-0.4,5.2-0.2,7.6,1.1c1.5,0.8,2.5,2,3.2,3.6c0.7,1.6,0.9,3.2,0.8,4.9c0,0.3,0.2,0.6,0.3,0.8c0.8,0.8,1,2,0.4,2.9
		c-0.5,0.8-2,1.2-2.9,0.6c-1.2-0.9-1.6-2.6,0-3.6c0.6-0.4,0.8-0.8,0.8-1.5c0-1.7-0.3-3.3-1.3-4.8c-0.9-1.3-2.2-2.1-3.8-2.6
		c-2.3-0.6-4.5-0.6-6.8,0.2c-2,0.7-3.3,2-4,3.9c-0.6,1.5-0.7,3.1-0.5,4.7c0.3,1.9,0.7,3.8,1,5.7c0.8,4,1.5,8,1.4,12.1
		c-0.1,1.6,1,2.3,2.7,2.1c-0.7-1.2-0.7-2.6-0.7-3.9c0-2.4-0.1-4.8-0.6-7.1c-0.2-1.1-0.5-2.2-0.8-3.4c-0.5-2.3-0.8-4.5-0.2-6.9
		c0.3-1.4,1-2.5,2.1-3.2c1.7-1.2,3.7-1.4,5.7-0.4c2.3,1.1,2.9,3.1,3.2,5.4c0.2,1.8-0.2,3.7-0.6,5.5c0,0.2,0,0.6,0.2,0.8
		c0.8,1,0.9,1.7,0.3,2.7c-0.5,0.8-1.8,1.2-2.7,0.8c-0.9-0.5-1.4-1.4-1.2-2.5c0.2-0.9,0.8-1.2,1.5-1.5c0.2-0.1,0.4-0.2,0.5-0.4
		c0.8-2.2,1.2-4.5,0.5-6.7c-0.2-0.8-0.5-1.6-1.3-2.2c-1.8-1.4-4.4-1.4-5.9,0.3c-0.9,1-1.3,2.4-1.2,3.8c0,1.2,0.1,2.5,0.5,3.7
		c1.1,3.7,1.5,7.5,1.4,11.4c0,0.7,0,1.3,0.1,2c0.2,1.4,0.8,1.9,2.3,1.8c-0.8-2.2-0.6-4.4-0.6-6.6c0-3.1,0-6.2,0-9.2
		c0-0.5,0-0.8-0.6-1c-0.6-0.2-1-1.5-0.8-2.2c0.5-1.7,2.2-2.2,3.6-1.1c1,0.8,0.8,2.8-0.3,3.4c-0.2,0.1-0.5,0.5-0.5,0.7
		c0,4.3,0,8.6,0,12.8c0,0.6,0.1,1.2,0.1,1.7c0.1,1,0.9,1.7,2.3,1.8c0.8,0,1.7-0.1,2.5,0.4c1.5,0.9,1.7,2.6,0.9,3.7
		c-0.7,0.9-1.5,1.1-2.5,1.1c-2,0-4.1,0-6.1,0c-1.1,0-1.7,0.7-1.3,1.8c0.1,0.3,0.4,0.6,0.6,0.6c1,0.1,1.9,0.1,2.9,0.1
		c0.2,0,0.4-0.2,0.5-0.4c0.8-1.2,2.2-1.3,3.3-0.4c0.6,0.5,0.8,1.8,0.3,2.6c-0.4,0.7-1.6,1.2-2.3,1c-0.4-0.2-0.9-0.4-1.2-0.8
		c-0.3-0.5-0.7-0.7-1.3-0.6c-0.6,0-1.2,0-1.8,0c-1.2,0-2.1-0.8-2.5-1.8c-0.5-1.1,0-2,0.8-2.7c0.5-0.4,1.2-0.5,1.8-0.6
		c2.1-0.1,4.2-0.1,6.3,0c1.1,0,2-1.1,1.2-2.1c-0.2-0.2-0.6-0.5-0.9-0.5c-2.6,0-5.1,0-7.7,0c-1.4,0-2.5-0.5-3.3-1.8
		c-0.2-0.3-0.3-0.6-0.3-0.9c0-2.2-0.3-4.4-0.9-6.5c-0.3-1-0.8-2-1.3-3c-1.2-2.3-2.6-4.5-3.6-6.9c-1-2.3-1.2-4.7-0.5-7.2
		c0.6-2.1,1.6-4,3.1-5.6c1.7-1.9,3.9-3.3,6.4-3.9c2.2-0.5,4.4-0.6,6.7-0.2c2.3,0.4,4.4,1.4,6.2,2.9c2.8,2.4,4.5,5.5,4.7,9.2
		c0.1,1.2-0.3,2.4-0.5,3.6c-0.4,2.1-1.5,3.9-2.5,5.7c-0.9,1.7-1.7,3.4-2.5,5.1c-0.2,0.4-0.1,0.7,0.2,1c0.7,0.6,0.7,2,0.2,2.8
		c-0.5,0.7-1.7,1-2.4,0.7c-1-0.4-1.6-1.3-1.5-2.4c0.2-0.8,0.7-1.5,1.5-1.7c0.5-0.1,0.7-0.5,0.8-0.9c0.5-1.1,0.9-2.2,1.5-3.3
		c1.3-2.6,3-5,3.7-7.9c0.4-2,0.4-4.1-0.5-6.2c-1-2.5-2.6-4.4-4.8-5.8c-1.7-1.1-3.6-1.7-5.6-1.9c-2.8-0.3-5.5,0.3-7.8,1.7
		c-1.7,1-3.1,2.3-4,4.1c-0.3,0.7-0.7,1.3-1,2c-0.5,0.9-0.6,1.9-0.7,2.9c-0.1,1.9,0.2,3.8,1,5.5c0.6,1.3,1.4,2.6,2.2,3.9
		c0.4,0.7,0.8,1.3,1.1,2C623,41.5,623,41.5,623.1,41.5L623.1,41.5z M634.6,40.4c-0.6,0-1,0.3-1,0.9c0,0.6,0.4,1,1,1
		c0.5,0,0.9-0.4,0.9-1C635.6,40.7,635.2,40.4,634.6,40.4z M638.7,47.5c0-0.6-0.5-1-1.1-1c-0.5,0-0.9,0.5-0.8,1c0,0.6,0.4,0.9,1,0.9
		C638.4,48.4,638.8,48,638.7,47.5z M631.8,34.3c0-0.7-0.2-0.9-0.9-0.9c-0.5,0-1,0.2-0.9,0.9c0,0.7,0.3,1,0.9,1
		C631.6,35.3,631.8,35,631.8,34.3z M638.6,34.8c0,0.7,0.4,1.1,0.9,1.1c0.5,0,1.1-0.6,1.1-1.1c-0.1-0.6-0.5-0.8-1-0.9
		C638.9,34,638.6,34.4,638.6,34.8z M633.2,62.4c0.6,0,1-0.4,1.1-0.9c0-0.5-0.4-0.9-1-0.9c-0.7,0-0.9,0.3-1,0.9
		C632.3,62,632.7,62.4,633.2,62.4z M631.6,14.3c0,0.5,0.1,1,0,1.4c-0.1,0.3-0.4,0.5-0.6,0.8c-0.2-0.2-0.6-0.5-0.6-0.8
		c-0.1-1-0.1-2,0-3c0-0.2,0.4-0.6,0.6-0.6s0.6,0.3,0.6,0.6C631.7,13.3,631.6,13.8,631.6,14.3z M635.1,16.5c0.3-1,0.5-1.9,0.8-2.7
		c0.1-0.2,0.5-0.4,0.8-0.3c0.2,0,0.4,0.4,0.4,0.6c-0.2,0.9-0.4,1.7-0.7,2.5c-0.1,0.2-0.5,0.4-0.7,0.4
		C635.5,17,635.3,16.6,635.1,16.5z M622.4,18.4c-0.2,0.4-0.3,0.7-0.5,0.7c-0.2,0-0.6-0.1-0.7-0.3c-0.5-0.7-1-1.4-1.4-2.2
		c-0.1-0.2,0-0.6,0.1-0.8c0.1-0.1,0.6-0.2,0.7-0.1C621.2,16.6,621.8,17.5,622.4,18.4z M639.5,18.3c0.6-0.9,1.1-1.7,1.8-2.5
		c0.1-0.1,0.6-0.1,0.7,0c0.2,0.2,0.2,0.6,0.2,0.8c-0.4,0.8-0.9,1.5-1.4,2.2c-0.1,0.2-0.5,0.3-0.7,0.2
		C639.8,19,639.7,18.7,639.5,18.3L639.5,18.3z M626.7,16.4c-0.2,0.2-0.3,0.5-0.5,0.5c-0.2,0-0.7-0.1-0.7-0.3
		c-0.3-0.9-0.5-1.8-0.7-2.8c0-0.1,0.2-0.5,0.4-0.5c0.3,0,0.7,0.1,0.8,0.3C626.3,14.6,626.5,15.4,626.7,16.4L626.7,16.4z M618.5,21.6
		c0,0.5-0.5,0.9-0.9,0.6c-0.7-0.5-1.4-1.2-2-1.8c-0.1-0.1,0-0.5,0.1-0.7c0.1-0.1,0.6-0.3,0.7-0.2c0.7,0.6,1.4,1.3,2.1,1.9
		C618.5,21.5,618.5,21.6,618.5,21.6L618.5,21.6z M646.4,20c0,0.6-2,2.4-2.4,2.3c-0.2-0.1-0.5-0.3-0.6-0.5c-0.1-0.1,0.1-0.5,0.2-0.6
		c0.5-0.5,1-1,1.6-1.5c0.2-0.2,0.5-0.3,0.8-0.2C646.2,19.6,646.3,19.9,646.4,20z M615.2,26.7c-0.8-0.4-1.6-0.8-2.3-1.2
		c-0.1-0.1-0.2-0.5-0.1-0.6c0.2-0.2,0.5-0.4,0.7-0.4c0.7,0.2,1.4,0.5,2.1,0.9c0.2,0.1,0.3,0.5,0.3,0.7
		C615.8,26.3,615.5,26.5,615.2,26.7z M646.7,26.7c-0.3-0.2-0.6-0.3-0.6-0.5c0-0.2,0.1-0.6,0.2-0.7c0.7-0.4,1.4-0.7,2.1-0.9
		c0.2-0.1,0.5,0.2,0.7,0.4c0.1,0.1-0.1,0.5-0.3,0.6C648.1,26,647.4,26.3,646.7,26.7L646.7,26.7z M648.7,31.8c-0.3,0-0.6,0.1-0.9,0
		c-0.3-0.1-0.5-0.4-0.7-0.5c0.2-0.2,0.4-0.6,0.6-0.7c0.6-0.1,1.3,0,1.9,0.1c0.2,0,0.5,0.4,0.5,0.7c0,0.2-0.3,0.4-0.6,0.5
		C649.3,31.9,649,31.8,648.7,31.8L648.7,31.8z M613.2,31.8c-0.3,0-0.7,0-1-0.1c-0.2,0-0.5-0.3-0.5-0.5c0-0.2,0.2-0.6,0.3-0.6
		c0.8-0.1,1.5-0.1,2.3,0c0.2,0,0.4,0.4,0.4,0.6c0,0.1-0.3,0.4-0.5,0.5C613.9,31.8,613.5,31.8,613.2,31.8L613.2,31.8z M647.2,35.2
		c0.7,0.2,1.2,0.3,1.7,0.6c0.2,0.1,0.4,0.5,0.3,0.7c0,0.2-0.4,0.5-0.6,0.5c-0.6-0.1-1.2-0.2-1.8-0.4c-0.2-0.1-0.4-0.5-0.3-0.7
		C646.6,35.5,647,35.3,647.2,35.2L647.2,35.2z M614.7,35.2c0.2,0.2,0.7,0.3,0.7,0.5c0,0.2-0.2,0.7-0.5,0.8c-0.5,0.2-1.1,0.3-1.7,0.4
		c-0.2,0-0.6-0.2-0.6-0.5s0.1-0.6,0.3-0.7C613.5,35.5,614,35.4,614.7,35.2L614.7,35.2z M617.2,39.9c-0.2,0.3-0.3,0.5-0.5,0.7
		c-0.3,0.2-0.7,0.4-1,0.5c-0.3,0-0.7-0.1-0.8-0.3c-0.1-0.1,0-0.7,0.2-0.8c0.4-0.3,0.9-0.5,1.4-0.5C616.7,39.4,617,39.7,617.2,39.9z
		 M646.4,41.2c-0.6-0.3-1-0.5-1.5-0.8c-0.1-0.1-0.2-0.5-0.1-0.7c0-0.2,0.4-0.4,0.5-0.3c0.5,0.2,1,0.3,1.5,0.6
		c0.2,0.1,0.2,0.5,0.2,0.7C647,40.9,646.7,41,646.4,41.2L646.4,41.2z M643.4,43c0.8,0,1.5,0.5,1.4,0.9c-0.1,0.3-0.4,0.6-0.7,0.6
		c-0.5,0.1-1.3-0.7-1.2-1C643,43.3,643.3,43.1,643.4,43L643.4,43z M619,43.4c0,0.6-0.7,1.3-1.2,1.2c-0.3-0.1-0.6-0.4-0.7-0.7
		c-0.1-0.4,0.7-0.9,1.2-0.9C618.6,43,618.8,43.3,619,43.4z"/>
	<path class="st3" d="M130.4,122.8h-110c-1.7,0-3-1.3-3-3v-15.9c0-1.7,1.3-3,3-3h110c1.7,0,3,1.3,3,3v15.9
		C133.4,121.4,132.1,122.8,130.4,122.8L130.4,122.8z"/>
	<path class="st0" d="M25.3,108.6h0.8l2.5,4.8l2.5-4.8h0.8v6.9h-0.8v-5.2l-2.5,4.8l-2.5-4.8v5.2h-0.8V108.6z M37.8,112.3v3.2h-0.8
		v-0.8c-0.4,0.6-1.1,0.9-1.8,0.9c-1.1,0-1.9-0.6-1.9-1.7c0-1,0.9-1.7,2-1.7c0.6,0,1.2,0.1,1.7,0.3v-0.2c0-0.7-0.3-1.5-1.4-1.5
		c-0.5,0-1,0.2-1.5,0.5l-0.3-0.6c0.7-0.4,1.4-0.5,1.9-0.5C37.2,110.2,37.8,111.1,37.8,112.3z M37.1,113.8V113
		c-0.5-0.1-1-0.2-1.6-0.2c-0.8,0-1.4,0.4-1.4,1.1c0,0.6,0.6,1,1.3,1C36.1,114.9,36.9,114.6,37.1,113.8z M43.8,112.2v3.3H43v-3.2
		c0-0.8-0.5-1.4-1.3-1.4c-0.9,0-1.6,0.6-1.6,1.3v3.3h-0.8v-5.2h0.8v0.8c0.3-0.6,1-0.9,1.7-0.9C43,110.2,43.8,111,43.8,112.2z
		 M49.5,112.3v3.2h-0.8v-0.8c-0.4,0.6-1.1,0.9-1.8,0.9c-1.1,0-1.9-0.6-1.9-1.7c0-1,0.9-1.7,2-1.7c0.6,0,1.2,0.1,1.7,0.3v-0.2
		c0-0.7-0.3-1.5-1.4-1.5c-0.5,0-1,0.2-1.5,0.5l-0.3-0.6c0.7-0.4,1.4-0.5,1.9-0.5C48.8,110.2,49.5,111.1,49.5,112.3z M48.7,113.8V113
		c-0.5-0.1-1-0.2-1.6-0.2c-0.8,0-1.4,0.4-1.4,1.1c0,0.6,0.6,1,1.3,1C47.7,114.9,48.5,114.6,48.7,113.8z M55.8,110.3v4.6
		c0,1.3-1,2.3-2.5,2.3c-0.8,0-1.6-0.3-2.1-0.7l0.3-0.6c0.4,0.4,1,0.6,1.7,0.6c1.2,0,1.9-0.6,1.9-1.6v-0.8c-0.4,0.6-1.1,1-1.9,1
		c-1.4,0-2.4-1-2.4-2.5s1-2.4,2.4-2.4c0.8,0,1.5,0.4,1.9,1v-0.9L55.8,110.3L55.8,110.3z M55,112.6c0-1-0.7-1.8-1.7-1.8
		c-1,0-1.7,0.7-1.7,1.8c0,1.1,0.7,1.8,1.7,1.8C54.3,114.4,55,113.7,55,112.6z M61.3,114.3l0.5,0.5c-0.5,0.5-1.4,0.8-2.1,0.8
		c-1.4,0-2.6-1.1-2.6-2.7c0-1.5,1.2-2.7,2.5-2.7c1.6,0,2.5,1.2,2.5,3h-4.2c0.1,1,0.8,1.8,1.8,1.8C60.3,114.9,61,114.6,61.3,114.3z
		 M57.9,112.5h3.5c-0.1-0.9-0.7-1.7-1.7-1.7C58.8,110.8,58,111.5,57.9,112.5z M71.2,113.9h-3.8l-0.7,1.6h-0.8l3-6.9h0.8l3,6.9h-0.8
		C71.8,115.4,71.2,113.9,71.2,113.9z M70.8,113.2l-1.6-3.6l-1.6,3.6C67.7,113.2,70.8,113.2,70.8,113.2z M73.5,114.8l0.4-0.6
		c0.6,0.4,1.2,0.7,1.8,0.7c0.7,0,1.1-0.3,1.1-0.8c0-0.6-0.6-0.7-1.3-0.9c-1.2-0.4-1.7-0.7-1.7-1.5c0-0.9,0.8-1.5,1.8-1.5
		c0.6,0,1.3,0.2,1.8,0.6l-0.4,0.6c-0.5-0.3-1-0.5-1.5-0.5c-0.6,0-1.1,0.3-1.1,0.8c0,0.4,0.4,0.6,1.3,0.9c0.8,0.3,1.7,0.5,1.7,1.5
		c0,0.9-0.8,1.6-1.9,1.6C74.9,115.6,74.1,115.3,73.5,114.8z M78.4,114.8l0.4-0.6c0.6,0.4,1.2,0.7,1.8,0.7c0.7,0,1.1-0.3,1.1-0.8
		c0-0.6-0.6-0.7-1.3-0.9c-1.2-0.4-1.7-0.7-1.7-1.5c0-0.9,0.8-1.5,1.8-1.5c0.6,0,1.3,0.2,1.8,0.6l-0.4,0.6c-0.5-0.3-1-0.5-1.5-0.5
		c-0.6,0-1.1,0.3-1.1,0.8c0,0.4,0.4,0.6,1.3,0.9c0.8,0.3,1.7,0.5,1.7,1.5c0,0.9-0.8,1.6-1.9,1.6C79.8,115.6,79,115.3,78.4,114.8z
		 M83.6,108.8c0-0.3,0.2-0.5,0.5-0.5c0.3,0,0.5,0.2,0.5,0.5c0,0.3-0.2,0.5-0.5,0.5C83.8,109.3,83.6,109.1,83.6,108.8z M83.7,110.3
		h0.8v5.2h-0.8V110.3z M90.7,110.3v4.6c0,1.3-1.1,2.3-2.5,2.3c-0.8,0-1.6-0.3-2.1-0.7l0.3-0.6c0.4,0.4,1,0.6,1.7,0.6
		c1.2,0,1.9-0.6,1.9-1.6v-0.8c-0.4,0.6-1.1,1-1.9,1c-1.4,0-2.4-1-2.4-2.5s1-2.4,2.4-2.4c0.8,0,1.5,0.4,1.9,1v-0.9L90.7,110.3
		L90.7,110.3z M90,112.6c0-1-0.7-1.8-1.7-1.8c-1,0-1.7,0.7-1.7,1.8c0,1.1,0.7,1.8,1.7,1.8C89.2,114.4,90,113.7,90,112.6z
		 M96.7,112.2v3.3H96v-3.2c0-0.8-0.5-1.4-1.3-1.4c-0.9,0-1.6,0.6-1.6,1.3v3.3h-0.8v-5.2h0.8v0.8c0.3-0.6,1-0.9,1.7-0.9
		C95.9,110.2,96.7,111,96.7,112.2z M105.7,112.2v3.3h-0.8v-3.2c0-0.8-0.5-1.4-1.2-1.4c-0.8,0-1.4,0.6-1.4,1.3v3.3h-0.8v-3.2
		c0-0.8-0.5-1.4-1.2-1.4c-0.8,0-1.4,0.6-1.4,1.3v3.3h-0.8v-5.2H99v0.8c0.3-0.5,0.8-0.9,1.5-0.9c0.8,0,1.4,0.4,1.7,1.1
		c0.2-0.7,0.9-1.1,1.7-1.1C104.9,110.2,105.7,111,105.7,112.2L105.7,112.2z M111.1,114.3l0.5,0.5c-0.4,0.5-1.4,0.8-2.1,0.8
		c-1.4,0-2.6-1.1-2.6-2.7c0-1.5,1.2-2.7,2.6-2.7c1.6,0,2.4,1.2,2.4,3h-4.2c0.1,1,0.8,1.8,1.8,1.8
		C110.1,114.9,110.8,114.6,111.1,114.3L111.1,114.3z M107.7,112.5h3.5c-0.1-0.9-0.7-1.7-1.7-1.7
		C108.6,110.8,107.8,111.5,107.7,112.5z M117.5,112.2v3.3h-0.8v-3.2c0-0.8-0.5-1.4-1.3-1.4c-0.9,0-1.6,0.6-1.6,1.3v3.3h-0.8v-5.2
		h0.8v0.8c0.3-0.6,1-0.9,1.7-0.9C116.7,110.2,117.5,111,117.5,112.2z M121.7,115.2c-0.3,0.2-0.6,0.3-1,0.3c-0.7,0-1.3-0.6-1.3-1.3
		v-3.3h-0.8v-0.7h0.8v-1.4h0.8v1.4h1.3v0.7h-1.3v3.3c0,0.4,0.3,0.7,0.6,0.7c0.2,0,0.4-0.1,0.5-0.2
		C121.3,114.7,121.7,115.2,121.7,115.2z M122.4,114.8l0.4-0.6c0.6,0.4,1.2,0.7,1.8,0.7c0.7,0,1.1-0.3,1.1-0.8c0-0.6-0.6-0.7-1.3-0.9
		c-1.2-0.4-1.7-0.7-1.7-1.5c0-0.9,0.8-1.5,1.8-1.5c0.6,0,1.3,0.2,1.8,0.6l-0.4,0.6c-0.5-0.3-1-0.5-1.5-0.5c-0.6,0-1.1,0.3-1.1,0.8
		c0,0.4,0.4,0.6,1.3,0.9c0.8,0.3,1.7,0.5,1.7,1.5c0,0.9-0.8,1.6-1.9,1.6C123.9,115.6,123.1,115.3,122.4,114.8z"/>
	<g>
		<path d="M29.8,21.9c0.1-0.1,0.3-0.2,0.4-0.2s0.3-0.1,0.4-0.1c0.4,0,0.8,0.3,1.1,1c0.3,0.7,0.5,1.4,0.5,2.3c0,0.4-0.1,0.6-0.3,0.8
			S31.6,26,31.3,26c-0.3,0-0.6-0.2-1.1-0.7c-0.1-0.1-0.1-0.1-0.2-0.2c-0.7-0.8-1.4-1.3-2-1.6c-0.6-0.3-1.3-0.4-2.1-0.4
			c-1.2,0-2.2,0.4-2.8,1.2c-0.7,0.8-1,2-1,3.5c0,0.8,0.1,1.6,0.3,2.4c0.2,0.8,0.4,1.4,0.8,2.1c0.5,0.9,1.1,1.5,1.7,2
			c0.6,0.5,1.3,0.7,2.1,0.7c0.7,0,1.2-0.2,1.6-0.6c0.4-0.4,0.5-1,0.5-1.7c0-0.3-0.1-0.6-0.2-0.8c-0.1-0.2-0.3-0.3-0.5-0.4
			c-0.1,0-0.2,0-0.3,0c-0.8-0.1-1.2-0.4-1.2-1c0-0.5,0.3-0.8,0.9-1c0.6-0.2,1.7-0.3,3.4-0.3c1.4,0,2.4,0.1,2.9,0.3s0.7,0.5,0.7,0.9
			c0,0.2-0.1,0.4-0.2,0.5s-0.3,0.3-0.5,0.4c-0.1,0-0.2,0.1-0.4,0.1c-0.4,0.1-0.7,0.4-0.8,0.8c0,0.1,0,0.2-0.1,0.4
			c-0.2,0.9-0.4,1.6-0.8,2.2c-0.5,0.8-1.2,1.4-2.2,1.8s-2.1,0.6-3.4,0.6c-2.5,0-4.6-0.8-6.1-2.3s-2.3-3.5-2.3-6.1
			c0-0.9,0.1-1.8,0.4-2.6s0.6-1.6,1.2-2.2c0.7-1,1.6-1.7,2.8-2.2s2.4-0.8,3.8-0.8c0.6,0,1.2,0.1,1.8,0.2S29.2,21.6,29.8,21.9z
			 M36.8,32.6c0-1.2,0-2.2-0.1-2.8s-0.2-1-0.4-1.2c0,0-0.2-0.1-0.6-0.2c-0.4-0.1-0.6-0.4-0.6-0.7c0-0.2,0.1-0.3,0.2-0.5
			s0.4-0.3,0.6-0.4c0.6-0.3,1.3-0.5,1.9-0.7c0.7-0.2,1.2-0.3,1.6-0.3c0.2,0,0.4,0,0.5,0.1s0.2,0.2,0.2,0.4c0,0.2,0.1,0.5,0.1,0.7
			c0,0.3,0.1,0.4,0.2,0.4c0.1,0,0.3-0.1,0.5-0.4C41,27.1,41,27.1,41,27c0.3-0.4,0.7-0.7,1-0.9c0.3-0.2,0.6-0.3,1-0.3
			c0.5,0,1,0.2,1.3,0.6c0.3,0.4,0.5,0.9,0.5,1.5c0,0.5-0.2,1-0.5,1.4c-0.3,0.4-0.7,0.5-1.2,0.5c-0.4,0-0.8-0.2-1.2-0.5
			s-0.7-0.5-0.8-0.5c-0.3,0-0.5,0.2-0.6,0.7c-0.1,0.5-0.2,1.4-0.2,2.9c0,1,0,1.6,0,1.9s0.1,0.5,0.2,0.6c0,0.1,0.3,0.2,0.7,0.3
			c0.4,0.2,0.6,0.4,0.6,0.8c0,0.4-0.2,0.6-0.7,0.8c-0.5,0.2-1.3,0.2-2.6,0.2c-1.2,0-2-0.1-2.4-0.2c-0.4-0.2-0.7-0.4-0.7-0.8
			c0-0.3,0.2-0.6,0.7-0.8c0.2-0.1,0.3-0.2,0.3-0.2c0.1-0.1,0.2-0.2,0.2-0.5C36.7,34.2,36.8,33.6,36.8,32.6L36.8,32.6z M51.6,30.4v-1
			c0-0.7-0.1-1.2-0.2-1.4s-0.5-0.4-0.9-0.4c-0.5,0-1,0.3-1.5,0.8c0,0-0.1,0.1-0.1,0.1c0,0-0.1,0.1-0.1,0.1c-0.7,0.7-1.4,1-2,1
			c-0.4,0-0.7-0.1-0.9-0.3c-0.2-0.2-0.3-0.5-0.3-0.8c0-0.7,0.5-1.4,1.5-2s2.3-0.8,3.7-0.8c1.5,0,2.6,0.3,3.3,0.9s1,1.5,1,2.7
			c0,0.4,0,0.9,0,1.4c0,0.6,0,1,0,1.2v1.6c0,0.3,0,0.5,0,0.7s0.1,0.2,0.2,0.3c0.1,0.1,0.3,0.1,0.7,0.3s0.6,0.3,0.6,0.6
			s-0.1,0.5-0.3,0.7c-0.2,0.2-0.5,0.5-0.8,0.7c-0.3,0.2-0.6,0.3-0.9,0.4c-0.3,0.1-0.6,0.2-0.9,0.2c-0.4,0-0.8-0.2-1.2-0.6
			c-0.4-0.4-0.6-0.6-0.6-0.6c0,0-0.1,0.1-0.3,0.2c-0.9,0.7-1.9,1-2.9,1c-1.1,0-2-0.3-2.7-0.9s-1-1.4-1-2.4c0-1.1,0.4-2,1.3-2.6
			s2.1-1,3.6-1c0.2,0,0.5,0,0.8,0C50.9,30.3,51.3,30.3,51.6,30.4z M51.6,33.6v-1.7c-0.1,0-0.3-0.1-0.4-0.1s-0.3,0-0.5,0
			c-0.7,0-1.1,0.1-1.5,0.4c-0.3,0.3-0.5,0.7-0.5,1.3c0,0.5,0.1,0.8,0.4,1.1s0.6,0.4,1,0.4c0.5,0,0.9-0.1,1.1-0.3
			C51.5,34.4,51.6,34.1,51.6,33.6z M64.8,36.4v-0.3c0-0.1,0-0.2,0-0.2s-0.1-0.1-0.1-0.1c-0.1,0-0.2,0.1-0.4,0.2
			c-0.4,0.4-0.8,0.6-1.3,0.8c-0.5,0.2-0.9,0.2-1.4,0.2c-1.3,0-2.4-0.5-3.3-1.6S57,33.2,57,31.7c0-0.8,0.1-1.6,0.4-2.3
			s0.7-1.3,1.2-1.9c0.5-0.5,1.1-0.9,1.8-1.2s1.3-0.4,2-0.4c0.8,0,1.5,0.2,2.1,0.6c0.1,0.1,0.2,0.1,0.2,0.1c0,0,0.1-0.1,0.1-0.2
			s0-0.3,0-0.7c0-0.7,0-1.2-0.1-1.5s-0.2-0.4-0.3-0.5c-0.1,0-0.2-0.1-0.3-0.1c-0.5-0.1-0.7-0.4-0.7-0.7c0-0.2,0.1-0.4,0.3-0.5
			c0.2-0.1,0.5-0.3,1-0.5c0.6-0.3,1.2-0.5,1.7-0.6s1-0.2,1.4-0.2c0.3,0,0.5,0.1,0.6,0.2s0.2,0.4,0.2,0.9c0,0.2,0,1.2-0.1,2.9
			c-0.1,1.7-0.1,3.3-0.1,4.8c0,1.9,0,3.2,0.1,3.7c0.1,0.5,0.2,0.8,0.3,0.9c0,0,0.2,0.1,0.6,0.2c0.4,0.1,0.6,0.3,0.6,0.7
			c0,0.2-0.1,0.3-0.2,0.5s-0.3,0.3-0.6,0.4c-0.6,0.3-1.3,0.5-1.9,0.7c-0.6,0.2-1.2,0.2-1.6,0.2c-0.3,0-0.5,0-0.6-0.2
			C64.9,36.9,64.8,36.7,64.8,36.4L64.8,36.4z M64.8,30.3c0-0.9-0.1-1.5-0.4-1.8c-0.3-0.3-0.7-0.5-1.3-0.5c-0.7,0-1.2,0.3-1.7,0.9
			c-0.4,0.6-0.6,1.4-0.6,2.4c0,1,0.2,1.9,0.6,2.5c0.4,0.6,1,0.9,1.7,0.9c0.5,0,1-0.2,1.2-0.5c0.3-0.3,0.4-0.8,0.4-1.5L64.8,30.3
			L64.8,30.3z M80.1,31.6h-5.2c-0.2,0-0.4,0-0.5,0.1c-0.1,0-0.1,0.1-0.1,0.3c0,0.7,0.3,1.4,0.8,1.9s1.2,0.8,2,0.8
			c0.6,0,1.2-0.2,1.8-0.5c0.6-0.3,1-0.5,1.1-0.5c0.2,0,0.4,0.1,0.5,0.2s0.2,0.3,0.2,0.4c0,0.3-0.1,0.5-0.2,0.8s-0.4,0.5-0.7,0.8
			c-0.5,0.4-1.1,0.7-1.7,0.9s-1.3,0.3-2,0.3c-1.7,0-3-0.5-4.1-1.6s-1.6-2.4-1.6-4.1c0-1.7,0.5-3.1,1.6-4.2c1.1-1.1,2.4-1.6,4.1-1.6
			c1.4,0,2.6,0.4,3.6,1.2c0.9,0.8,1.4,1.8,1.4,3.1c0,0.7-0.1,1.1-0.2,1.3S80.5,31.6,80.1,31.6z M74.6,30.1h2.8c0.2,0,0.2,0,0.3-0.1
			s0.1-0.2,0.1-0.3c0-0.6-0.2-1.2-0.5-1.6s-0.8-0.6-1.3-0.6c-0.5,0-0.9,0.2-1.2,0.7c-0.3,0.4-0.5,1-0.5,1.6c0,0.1,0,0.2,0.1,0.2
			C74.4,30.1,74.5,30.1,74.6,30.1L74.6,30.1z M83.3,32.6c0-1.2,0-2.2-0.1-2.8s-0.2-1-0.4-1.2c0,0-0.2-0.1-0.6-0.2
			c-0.4-0.1-0.6-0.4-0.6-0.7c0-0.2,0.1-0.3,0.2-0.5s0.4-0.3,0.6-0.4c0.6-0.3,1.3-0.5,1.9-0.7c0.7-0.2,1.2-0.3,1.6-0.3
			c0.2,0,0.4,0,0.5,0.1s0.2,0.2,0.2,0.4c0.1,0.2,0.1,0.5,0.1,0.7c0,0.3,0.1,0.4,0.2,0.4c0.1,0,0.3-0.1,0.5-0.4
			c0.1-0.1,0.1-0.1,0.1-0.2c0.3-0.4,0.7-0.7,1-0.9s0.6-0.3,1-0.3c0.5,0,0.9,0.2,1.3,0.6c0.3,0.4,0.5,0.9,0.5,1.5
			c0,0.5-0.2,1-0.5,1.4c-0.3,0.4-0.7,0.5-1.2,0.5c-0.4,0-0.8-0.2-1.2-0.5s-0.7-0.5-0.8-0.5c-0.3,0-0.5,0.2-0.6,0.7
			c-0.1,0.5-0.2,1.4-0.2,2.9c0,1,0,1.6,0.1,1.9c0,0.3,0.1,0.5,0.2,0.6c0.1,0.1,0.3,0.2,0.7,0.3c0.4,0.2,0.6,0.4,0.6,0.8
			c0,0.4-0.2,0.6-0.7,0.8c-0.5,0.2-1.3,0.2-2.6,0.2c-1.2,0-2-0.1-2.4-0.2C82.3,36.6,82,36.4,82,36c0-0.3,0.2-0.6,0.7-0.8
			c0.2-0.1,0.3-0.2,0.3-0.2c0.1-0.1,0.2-0.2,0.2-0.5C83.3,34.2,83.3,33.6,83.3,32.6z M29.8,47.4c0.1-0.1,0.3-0.2,0.4-0.2
			s0.3-0.1,0.4-0.1c0.4,0,0.8,0.3,1.1,1c0.3,0.7,0.5,1.4,0.5,2.3c0,0.4-0.1,0.6-0.3,0.8s-0.4,0.3-0.7,0.3c-0.3,0-0.6-0.2-1.1-0.7
			c-0.1-0.1-0.1-0.1-0.2-0.2c-0.7-0.8-1.4-1.3-2-1.6c-0.6-0.3-1.3-0.4-2.1-0.4c-1.2,0-2.2,0.4-2.9,1.2s-1,2-1,3.5
			c0,2.2,0.5,3.9,1.4,5.1s2.3,1.8,4,1.8c0.5,0,1-0.1,1.5-0.2c0.5-0.2,0.8-0.4,1.2-0.7c0.1-0.1,0.3-0.3,0.5-0.5
			c0.3-0.4,0.6-0.6,0.9-0.6c0.3,0,0.5,0.1,0.7,0.4s0.2,0.6,0.2,1c0,0.6-0.1,1.1-0.3,1.6c-0.2,0.4-0.5,0.7-0.8,0.7
			c-0.1,0-0.3,0-0.4,0c-0.1,0-0.2-0.1-0.4-0.1c-0.7,0.4-1.4,0.7-2.1,0.9c-0.7,0.2-1.5,0.3-2.2,0.3c-0.9,0-1.8-0.1-2.6-0.4
			s-1.6-0.6-2.2-1c-1-0.7-1.9-1.7-2.4-2.9S18,56,18,54.5c0-0.9,0.1-1.8,0.4-2.6s0.6-1.6,1.2-2.2c0.7-1,1.6-1.7,2.8-2.2
			s2.4-0.8,3.8-0.8c0.6,0,1.2,0.1,1.8,0.2S29.2,47.2,29.8,47.4z M33.3,57.2c0-0.9,0.2-1.7,0.5-2.4s0.8-1.4,1.4-1.9
			c0.6-0.5,1.2-0.9,1.9-1.2s1.5-0.4,2.3-0.4c1.6,0,3,0.5,4,1.5c1,1,1.6,2.3,1.6,4c0,0.8-0.1,1.6-0.4,2.3c-0.3,0.7-0.7,1.3-1.2,1.9
			c-0.6,0.6-1.2,1-1.9,1.3s-1.5,0.4-2.3,0.4c-1.7,0-3-0.5-4.1-1.5S33.3,58.8,33.3,57.2z M39.5,60.8c0.5,0,0.9-0.2,1.2-0.6
			s0.4-1,0.4-1.8c0-1.4-0.2-2.6-0.8-3.6s-1.1-1.5-1.7-1.5c-0.5,0-0.9,0.2-1.1,0.7s-0.4,1.1-0.4,1.9c0,1.4,0.2,2.5,0.7,3.5
			S38.9,60.8,39.5,60.8z M50.8,52.2v0.7c0,0.1,0,0.2,0,0.2s0,0.1,0.1,0.1c0.1,0,0.2-0.1,0.4-0.3c0.1-0.1,0.2-0.2,0.2-0.3
			c0.4-0.4,0.8-0.7,1.2-0.9s1-0.3,1.6-0.3c1.4,0,2.4,0.4,3,1.2s0.9,2,0.9,3.8v1.8c0,0.8,0,1.4,0,1.7c0,0.3,0.1,0.5,0.2,0.6
			c0,0,0.2,0.2,0.6,0.4c0.3,0.2,0.5,0.4,0.5,0.7c0,0.4-0.2,0.6-0.7,0.8c-0.4,0.2-1.2,0.2-2.4,0.2s-2-0.1-2.4-0.2
			c-0.4-0.2-0.7-0.4-0.7-0.8c0-0.3,0.2-0.6,0.7-0.8c0.2-0.1,0.3-0.2,0.3-0.2c0.1-0.1,0.2-0.3,0.2-0.6c0-0.3,0.1-0.9,0.1-1.7
			c0-1.8-0.1-3-0.4-3.5C54.1,54.3,53.6,54,53,54c-0.7,0-1.3,0.3-1.6,0.9s-0.5,1.6-0.5,3c0,0.8,0,1.4,0,1.8s0.1,0.6,0.2,0.7
			c0,0.1,0.2,0.2,0.6,0.4c0.3,0.2,0.5,0.4,0.5,0.7c0,0.4-0.2,0.6-0.7,0.8c-0.4,0.2-1.2,0.2-2.4,0.2s-2-0.1-2.4-0.2
			c-0.5-0.2-0.7-0.4-0.7-0.8c0-0.3,0.2-0.6,0.7-0.8c0.2-0.1,0.3-0.2,0.3-0.2c0.1-0.1,0.2-0.3,0.2-0.6s0.1-1.1,0.1-2.3
			c0-1.3,0-2.2-0.1-2.6c-0.1-0.4-0.2-0.7-0.3-0.8c0,0-0.2-0.1-0.6-0.2c-0.4-0.1-0.6-0.3-0.6-0.7c0-0.2,0.1-0.3,0.2-0.5
			s0.4-0.3,0.6-0.4c0.6-0.3,1.3-0.5,1.9-0.7s1.2-0.2,1.6-0.2c0.3,0,0.5,0,0.6,0.2C50.8,51.7,50.8,51.9,50.8,52.2L50.8,52.2z
			 M60.2,54.7c0-1,0.3-1.8,1-2.4s1.5-0.9,2.6-0.9c0.3,0,0.6,0,0.9,0.1s0.5,0.1,0.6,0.1c0.1,0,0.3-0.1,0.6-0.2s0.5-0.2,0.6-0.2
			s0.3,0,0.5,0.2c0.2,0.1,0.3,0.2,0.5,0.4c0.3,0.4,0.5,0.8,0.7,1.3s0.3,0.9,0.3,1.3c0,0.3-0.1,0.5-0.2,0.7c-0.1,0.2-0.3,0.2-0.5,0.2
			c-0.2,0-0.3-0.1-0.5-0.2c-0.2-0.1-0.3-0.3-0.5-0.5c-0.1-0.1-0.1-0.2-0.2-0.3c-0.6-0.8-1.2-1.2-1.8-1.2c-0.3,0-0.5,0.1-0.7,0.2
			s-0.3,0.4-0.3,0.6c0,0.5,0.6,1,1.8,1.5c0.3,0.1,0.5,0.2,0.7,0.3c0.9,0.4,1.6,0.9,2,1.5s0.6,1.2,0.6,1.9c0,1-0.4,1.9-1.2,2.6
			s-1.8,1-3,1c-0.3,0-0.7,0-1.1-0.1s-0.7-0.1-0.7-0.1c-0.1,0-0.3,0-0.5,0.1s-0.4,0.1-0.5,0.1c-0.2,0-0.3,0-0.5-0.2s-0.3-0.2-0.4-0.4
			c-0.3-0.4-0.5-0.9-0.7-1.3c-0.2-0.5-0.2-0.9-0.2-1.2c0-0.3,0.1-0.6,0.2-0.8s0.4-0.3,0.6-0.3c0.3,0,0.8,0.4,1.3,1.1
			c0.2,0.2,0.3,0.4,0.3,0.5c0.2,0.3,0.5,0.6,0.9,0.8s0.8,0.3,1.2,0.3c0.4,0,0.7-0.1,0.9-0.3c0.2-0.2,0.3-0.4,0.3-0.7
			c0-0.5-0.7-1.1-2.2-1.9l-0.1-0.1c-1.3-0.6-2.2-1.2-2.6-1.7C60.4,56.1,60.2,55.5,60.2,54.7z M69.8,57.2c0-0.9,0.2-1.7,0.5-2.4
			s0.8-1.4,1.4-1.9c0.6-0.5,1.2-0.9,1.9-1.2s1.5-0.4,2.3-0.4c1.6,0,3,0.5,4,1.5c1.1,1,1.6,2.3,1.6,4c0,0.8-0.1,1.6-0.4,2.3
			c-0.3,0.7-0.7,1.3-1.2,1.9c-0.6,0.6-1.2,1-1.9,1.3s-1.5,0.4-2.3,0.4c-1.7,0-3.1-0.5-4.1-1.5C70.3,60.2,69.8,58.8,69.8,57.2z
			 M76,60.8c0.5,0,0.9-0.2,1.2-0.6s0.4-1,0.4-1.8c0-1.4-0.2-2.6-0.8-3.6s-1.1-1.5-1.7-1.5c-0.5,0-0.9,0.2-1.1,0.7s-0.4,1.1-0.4,1.9
			c0,1.4,0.2,2.5,0.7,3.5S75.4,60.8,76,60.8z M87.3,55.5c0,1.8,0,3,0.1,3.7c0,0.7,0.1,1.1,0.2,1.3c0,0,0.2,0.2,0.6,0.4
			c0.3,0.2,0.5,0.4,0.5,0.7c0,0.4-0.2,0.6-0.7,0.8c-0.4,0.2-1.2,0.2-2.4,0.2s-2-0.1-2.4-0.2c-0.4-0.2-0.7-0.4-0.7-0.8
			c0-0.3,0.2-0.5,0.5-0.8c0.3-0.2,0.5-0.3,0.6-0.4c0.1-0.1,0.1-0.4,0.2-0.9c0-0.5,0.1-1.6,0.1-3.5v-2.4c0-1.6,0-2.7-0.1-3.2
			c0-0.5-0.1-0.9-0.2-1c-0.1-0.1-0.3-0.2-0.7-0.3s-0.6-0.4-0.6-0.7c0-0.2,0.1-0.3,0.2-0.5s0.4-0.3,0.7-0.4c0.7-0.3,1.3-0.5,1.9-0.7
			c0.6-0.2,1.2-0.3,1.6-0.3c0.3,0,0.5,0.1,0.6,0.2c0.1,0.1,0.2,0.4,0.2,0.9c0,0.1,0,0.3,0,0.6C87.3,50.7,87.3,53.1,87.3,55.5z
			 M99.2,57.2h-5.2c-0.2,0-0.4,0-0.5,0.1c-0.1,0-0.1,0.1-0.1,0.3c0,0.7,0.3,1.4,0.8,1.9s1.2,0.8,2,0.8c0.6,0,1.2-0.2,1.8-0.5
			c0.6-0.3,1-0.5,1.1-0.5c0.2,0,0.4,0.1,0.5,0.2s0.2,0.3,0.2,0.4c0,0.3-0.1,0.5-0.2,0.8s-0.4,0.5-0.7,0.8c-0.5,0.4-1.1,0.7-1.7,0.9
			s-1.3,0.3-2,0.3c-1.7,0-3-0.5-4.1-1.6s-1.6-2.4-1.6-4.1c0-1.7,0.5-3.1,1.6-4.2c1.1-1.1,2.4-1.6,4.1-1.6c1.4,0,2.6,0.4,3.6,1.2
			c0.9,0.8,1.4,1.8,1.4,3.1c0,0.7-0.1,1.1-0.2,1.3S99.6,57.2,99.2,57.2z M93.7,55.6h2.8c0.2,0,0.2,0,0.3-0.1s0.1-0.2,0.1-0.3
			c0-0.6-0.2-1.2-0.5-1.6s-0.8-0.6-1.3-0.6c-0.5,0-0.9,0.2-1.2,0.7c-0.3,0.4-0.5,1-0.5,1.6c0,0.1,0,0.2,0.1,0.2
			C93.5,55.6,93.6,55.6,93.7,55.6L93.7,55.6z"/>
	</g>
	<g>
		<path d="M214,28.9c-0.7,1.4-1.5,3.2-2.4,5.5c-1.3,3-2.1,4.5-2.5,4.5c-0.3,0-0.8-0.6-1.5-1.9c-0.7-1.3-1.9-3.9-3.8-7.9
			c0,1.1-0.1,2.1-0.1,3c0,0.9,0,1.8,0,2.5c0,0.9,0,1.5,0.1,1.9c0.1,0.4,0.1,0.6,0.3,0.7c0.1,0.1,0.2,0.2,0.4,0.2
			c0.5,0.2,0.8,0.5,0.8,0.9c0,0.4-0.2,0.7-0.6,0.8c-0.4,0.2-1.1,0.3-1.9,0.3c-1,0-1.7-0.1-2.1-0.2c-0.4-0.2-0.6-0.5-0.6-0.8
			c0-0.4,0.2-0.7,0.6-0.9s0.7-0.4,0.7-0.5c0.1-0.2,0.2-1.2,0.3-3s0.2-3.9,0.2-6.2c0-0.5,0-0.9-0.1-1.2c-0.1-0.3-0.2-0.5-0.3-0.6
			c-0.1-0.1-0.2-0.1-0.4-0.2c-0.5-0.2-0.8-0.5-0.8-0.9s0.2-0.7,0.7-0.8s1.2-0.3,2.2-0.3c0.5,0,1,0,1.4,0.1c0.4,0,0.6,0.1,0.8,0.2
			c0.2,0.1,0.6,0.8,1.1,1.9c0.1,0.3,0.2,0.5,0.3,0.7l1.3,2.9c0.6,1.3,1,2.2,1.2,2.6c0.2,0.4,0.4,0.6,0.5,0.6c0.3,0,1-1.4,2.2-4.1
			c0.4-1,0.8-1.8,1-2.4c0.5-1.2,1-1.9,1.4-2.2s1.1-0.4,2-0.4c1.1,0,1.8,0.1,2.3,0.2c0.4,0.2,0.6,0.5,0.6,0.9c0,0.4-0.2,0.7-0.8,0.9
			c-0.2,0.1-0.4,0.2-0.4,0.2c-0.1,0.1-0.2,0.4-0.3,0.9c-0.1,0.5-0.1,1.2-0.1,2.1c0,2,0,3.7,0.1,5.2c0.1,1.5,0.1,2.4,0.2,2.7
			c0,0.2,0.2,0.3,0.6,0.5l0,0c0.3,0.1,0.5,0.3,0.6,0.4s0.1,0.3,0.1,0.5c0,0.4-0.2,0.7-0.7,0.9c-0.5,0.2-1.4,0.2-2.7,0.2
			c-1.4,0-2.3-0.1-2.8-0.2c-0.5-0.2-0.7-0.5-0.7-0.9c0-0.4,0.2-0.7,0.8-0.9c0.2-0.1,0.4-0.2,0.5-0.3c0.2-0.2,0.3-0.4,0.4-0.8
			s0.1-1.1,0.1-2.3c0-0.4,0-1,0-1.8C214.1,31.5,214.1,30.4,214,28.9L214,28.9z M227.2,32.9v-1c0-0.7-0.1-1.2-0.2-1.4
			s-0.5-0.4-0.9-0.4c-0.4,0-0.9,0.3-1.5,0.8c-0.1,0-0.1,0.1-0.1,0.1c0,0-0.1,0.1-0.1,0.1c-0.7,0.7-1.4,1.1-2,1.1
			c-0.4,0-0.7-0.1-0.9-0.3c-0.2-0.2-0.3-0.5-0.3-0.8c0-0.7,0.5-1.4,1.5-2s2.3-0.8,3.7-0.8c1.5,0,2.6,0.3,3.3,0.9s1,1.5,1,2.7
			c0,0.4,0,0.8,0,1.4c0,0.6,0,1,0,1.2V36c0,0.3,0,0.5,0.1,0.7s0.1,0.2,0.2,0.3c0.1,0.1,0.3,0.1,0.7,0.3c0.4,0.1,0.6,0.3,0.6,0.6
			s-0.1,0.5-0.3,0.7c-0.2,0.2-0.5,0.5-0.9,0.7c-0.3,0.2-0.6,0.3-0.9,0.4c-0.3,0.1-0.6,0.2-0.9,0.2c-0.4,0-0.8-0.2-1.1-0.6
			c-0.4-0.4-0.6-0.6-0.6-0.6c0,0-0.1,0.1-0.3,0.2c-0.9,0.7-1.9,1-2.9,1c-1.1,0-2-0.3-2.7-0.9s-1-1.4-1-2.4c0-1.1,0.4-2,1.3-2.7
			c0.9-0.6,2.1-1,3.6-1c0.2,0,0.5,0,0.8,0C226.6,32.8,226.9,32.9,227.2,32.9L227.2,32.9z M227.2,36.1v-1.7c-0.1,0-0.3-0.1-0.4-0.1
			s-0.3,0-0.5,0c-0.6,0-1.1,0.2-1.5,0.4c-0.3,0.3-0.5,0.7-0.5,1.3c0,0.5,0.1,0.8,0.4,1.1s0.6,0.4,1.1,0.4c0.5,0,0.9-0.1,1.1-0.3
			S227.2,36.6,227.2,36.1L227.2,36.1z M237.3,29.2v0.7c0,0.1,0,0.2,0,0.2s0.1,0.1,0.1,0.1c0.1,0,0.2-0.1,0.4-0.3
			c0.1-0.1,0.2-0.2,0.2-0.3c0.4-0.4,0.8-0.7,1.2-0.9s1-0.3,1.6-0.3c1.4,0,2.4,0.4,3,1.2s0.9,2,0.9,3.8v1.8c0,0.8,0,1.4,0,1.7
			s0.1,0.5,0.1,0.6c0,0,0.2,0.2,0.6,0.4c0.4,0.2,0.5,0.4,0.5,0.7c0,0.4-0.2,0.6-0.7,0.8c-0.4,0.2-1.2,0.2-2.4,0.2s-2-0.1-2.4-0.2
			c-0.4-0.2-0.7-0.4-0.7-0.8c0-0.3,0.2-0.6,0.7-0.8c0.2-0.1,0.3-0.2,0.4-0.2c0.1-0.1,0.2-0.3,0.2-0.6c0-0.3,0.1-0.9,0.1-1.7
			c0-1.8-0.1-3-0.4-3.5c-0.3-0.5-0.7-0.8-1.4-0.8c-0.7,0-1.3,0.3-1.6,0.9c-0.3,0.6-0.5,1.6-0.5,3c0,0.8,0,1.4,0.1,1.8
			s0.1,0.6,0.2,0.7c0,0.1,0.2,0.2,0.6,0.4c0.3,0.2,0.5,0.4,0.5,0.7c0,0.4-0.2,0.6-0.7,0.8c-0.4,0.2-1.2,0.2-2.4,0.2s-2-0.1-2.4-0.2
			c-0.4-0.2-0.7-0.4-0.7-0.8c0-0.3,0.2-0.6,0.7-0.8c0.2-0.1,0.3-0.2,0.4-0.2c0.1-0.1,0.2-0.3,0.2-0.6c0.1-0.3,0.1-1.1,0.1-2.3
			c0-1.3,0-2.2-0.1-2.6c-0.1-0.4-0.1-0.7-0.3-0.8c0,0-0.2-0.1-0.6-0.2s-0.6-0.4-0.6-0.7c0-0.2,0.1-0.3,0.2-0.5s0.4-0.3,0.6-0.4
			c0.6-0.3,1.3-0.5,1.9-0.7c0.6-0.2,1.2-0.2,1.6-0.2c0.3,0,0.5,0,0.6,0.2C237.3,28.7,237.3,28.9,237.3,29.2L237.3,29.2z M253.3,32.9
			v-1c0-0.7-0.1-1.2-0.2-1.4s-0.5-0.4-0.9-0.4c-0.4,0-0.9,0.3-1.5,0.8c-0.1,0-0.1,0.1-0.1,0.1c0,0-0.1,0.1-0.1,0.1
			c-0.7,0.7-1.4,1.1-2,1.1c-0.4,0-0.7-0.1-0.9-0.3c-0.2-0.2-0.3-0.5-0.3-0.8c0-0.7,0.5-1.4,1.5-2s2.3-0.8,3.7-0.8
			c1.5,0,2.6,0.3,3.3,0.9c0.7,0.6,1,1.5,1,2.7c0,0.4,0,0.8,0,1.4c0,0.6,0,1,0,1.2V36c0,0.3,0,0.5,0,0.7c0,0.1,0.1,0.2,0.2,0.3
			c0.1,0.1,0.3,0.1,0.7,0.3s0.6,0.3,0.6,0.6s-0.1,0.5-0.3,0.7c-0.2,0.2-0.5,0.5-0.9,0.7c-0.3,0.2-0.6,0.3-0.9,0.4
			c-0.3,0.1-0.6,0.2-0.9,0.2c-0.4,0-0.8-0.2-1.2-0.6c-0.4-0.4-0.6-0.6-0.6-0.6c0,0-0.1,0.1-0.3,0.2c-0.9,0.7-1.9,1-2.9,1
			c-1.1,0-2-0.3-2.7-0.9c-0.7-0.6-1-1.4-1-2.4c0-1.1,0.4-2,1.3-2.7c0.9-0.6,2.1-1,3.6-1c0.2,0,0.5,0,0.8,0S253,32.9,253.3,32.9z
			 M253.3,36.1v-1.7c-0.1,0-0.3-0.1-0.4-0.1s-0.3,0-0.5,0c-0.6,0-1.1,0.2-1.5,0.4c-0.3,0.3-0.5,0.7-0.5,1.3c0,0.5,0.1,0.8,0.4,1.1
			s0.6,0.4,1,0.4c0.5,0,0.9-0.1,1.1-0.3C253.2,37,253.3,36.6,253.3,36.1z M259.9,39.1c-0.4-0.2-0.7-0.4-0.9-0.7
			c-0.2-0.3-0.3-0.6-0.3-1c0-0.4,0.1-0.8,0.4-1.1s0.7-0.6,1.2-0.8c-0.4-0.3-0.7-0.7-0.9-1.2c-0.2-0.5-0.3-1-0.3-1.6
			c0-1.3,0.5-2.3,1.3-3.1c0.9-0.8,2.1-1.1,3.6-1.1c0.6,0,1.2,0.1,1.8,0.3s1,0.3,1,0.3c0.3,0,0.7-0.1,1.1-0.3s0.8-0.4,1.1-0.8
			c0.2,0.1,0.3,0.2,0.4,0.4c0.1,0.1,0.1,0.3,0.1,0.5c0,0.3-0.1,0.7-0.4,1c-0.2,0.3-0.6,0.6-1.1,0.8c0.1,0.2,0.2,0.5,0.3,0.8
			c0.1,0.3,0.1,0.5,0.1,0.8c0,1.2-0.5,2.3-1.4,3.1c-1,0.8-2.2,1.2-3.7,1.2c-0.5,0-0.9,0-1.2-0.1s-0.7-0.2-1-0.3
			c-0.1,0.1-0.2,0.2-0.2,0.3c0,0.1-0.1,0.2-0.1,0.3c0,0.3,0.2,0.5,0.5,0.7s0.8,0.2,1.5,0.2c0.4,0,1.1,0,1.9-0.1s1.5-0.1,1.9-0.1
			c1,0,1.7,0.2,2.2,0.6c0.5,0.4,0.8,1,0.8,1.8c0,1.2-0.6,2.1-1.8,2.9s-2.6,1.2-4.4,1.2c-1.6,0-2.9-0.3-3.8-0.8s-1.4-1.2-1.4-2.1
			c0-0.4,0.1-0.8,0.3-1.1C259.1,39.5,259.4,39.3,259.9,39.1L259.9,39.1z M261.4,39.7c-0.1,0.1-0.1,0.2-0.1,0.3c0,0.1,0,0.1,0,0.2
			c0,0.5,0.2,0.9,0.8,1.3s1.1,0.5,2,0.5c0.9,0,1.5-0.1,2-0.4s0.7-0.6,0.7-1.1c0-0.3-0.1-0.5-0.3-0.7s-0.4-0.2-0.8-0.2
			c-0.1,0-0.5,0-1,0.1s-1.1,0.1-1.6,0.1C262.5,39.8,262,39.8,261.4,39.7z M263.9,34.7c0.5,0,0.9-0.2,1.2-0.5
			c0.3-0.4,0.4-0.9,0.4-1.5c0-0.8-0.2-1.4-0.5-1.9s-0.8-0.8-1.3-0.8c-0.5,0-0.9,0.2-1.2,0.6s-0.5,0.9-0.5,1.5c0,0.8,0.2,1.4,0.5,1.9
			C263,34.4,263.4,34.7,263.9,34.7L263.9,34.7z M279.8,34.2h-5.2c-0.2,0-0.4,0-0.5,0.1s-0.1,0.1-0.1,0.3c0,0.7,0.3,1.4,0.8,1.9
			c0.5,0.5,1.2,0.8,2,0.8c0.6,0,1.2-0.2,1.8-0.5c0.6-0.3,1-0.5,1.1-0.5c0.2,0,0.4,0.1,0.5,0.2c0.1,0.1,0.2,0.3,0.2,0.4
			c0,0.3-0.1,0.5-0.2,0.8c-0.1,0.2-0.4,0.5-0.7,0.8c-0.5,0.4-1.1,0.7-1.7,0.9s-1.3,0.3-2,0.3c-1.7,0-3-0.5-4.1-1.6s-1.6-2.4-1.6-4.1
			c0-1.7,0.5-3.1,1.6-4.2c1.1-1.1,2.4-1.6,4.1-1.6c1.4,0,2.6,0.4,3.5,1.2c0.9,0.8,1.4,1.8,1.4,3.1c0,0.7-0.1,1.1-0.2,1.3
			S280.2,34.2,279.8,34.2L279.8,34.2z M274.4,32.6h2.8c0.1,0,0.2,0,0.3-0.1s0.1-0.2,0.1-0.3c0-0.6-0.2-1.2-0.5-1.6s-0.8-0.6-1.3-0.6
			c-0.5,0-0.9,0.2-1.2,0.7s-0.5,1-0.5,1.6c0,0.1,0,0.2,0.1,0.2S274.2,32.6,274.4,32.6z M300.1,39.5c-1.2,0-2-0.1-2.5-0.2
			c-0.5-0.2-0.7-0.4-0.7-0.8c0-0.2,0-0.3,0.1-0.4s0.1-0.2,0.2-0.3c0.1,0,0.2-0.1,0.3-0.1c0.3-0.2,0.5-0.3,0.5-0.5
			c0-0.3-0.1-0.7-0.3-1.1s-0.4-0.7-0.6-0.8c-0.1-0.1-0.4-0.1-0.8-0.2c-0.4,0-1,0-1.7,0c-0.9,0-1.5,0-1.9,0c-0.4,0-0.6,0.1-0.7,0.1
			c-0.1,0.1-0.3,0.3-0.4,0.7c-0.2,0.4-0.2,0.7-0.2,1c0,0.2,0,0.3,0.1,0.4c0.1,0.1,0.2,0.2,0.4,0.3c0,0,0.1,0,0.2,0.1
			c0.5,0.2,0.8,0.5,0.8,0.9c0,0.4-0.2,0.7-0.7,0.8c-0.4,0.2-1.3,0.2-2.5,0.2c-0.8,0-1.5-0.1-1.9-0.2s-0.6-0.4-0.6-0.8
			c0-0.4,0.3-0.7,1-1c0.2-0.1,0.4-0.2,0.5-0.2c0.4-0.2,1-1.4,1.9-3.7c0.3-0.7,0.5-1.2,0.6-1.6c0.1-0.3,0.3-0.7,0.5-1.3
			c1.1-2.8,1.8-4.8,2-5.8c0.1-0.5,0.2-0.8,0.4-1s0.5-0.2,1-0.2c0.4,0,0.8,0.1,1,0.2s0.5,0.3,0.7,0.6c0.3,0.4,0.7,1.3,1.3,2.8
			c0.6,1.5,1.8,4.3,3.4,8.6l0,0.1c0.3,0.8,0.7,1.3,1.2,1.5c0.4,0.1,0.6,0.3,0.8,0.4c0.2,0.2,0.3,0.4,0.3,0.6c0,0.4-0.3,0.7-0.9,0.9
			C302.5,39.4,301.5,39.5,300.1,39.5L300.1,39.5z M296.4,33.1l-0.2-0.7c-0.8-2.3-1.3-3.4-1.5-3.4c-0.2,0-0.8,1.2-1.7,3.6l-0.2,0.5
			c0.4,0,0.8,0,1,0c0.2,0,0.5,0,0.7,0c0.2,0,0.5,0,0.7,0C295.5,33,295.9,33.1,296.4,33.1z M304.3,31.7c0-1,0.3-1.8,1-2.4
			s1.5-0.9,2.6-0.9c0.3,0,0.6,0,0.9,0.1c0.3,0,0.5,0.1,0.6,0.1c0.1,0,0.3-0.1,0.6-0.2s0.5-0.2,0.6-0.2s0.3,0,0.5,0.2
			c0.2,0.1,0.3,0.2,0.5,0.4c0.3,0.4,0.5,0.8,0.7,1.3s0.3,0.9,0.3,1.3c0,0.3-0.1,0.5-0.2,0.7s-0.3,0.2-0.5,0.2
			c-0.2,0-0.3-0.1-0.5-0.2c-0.1-0.1-0.3-0.3-0.5-0.5c-0.1-0.1-0.1-0.2-0.2-0.3c-0.6-0.8-1.2-1.2-1.8-1.2c-0.3,0-0.5,0.1-0.7,0.2
			s-0.3,0.4-0.3,0.6c0,0.5,0.6,1,1.8,1.5c0.3,0.1,0.5,0.2,0.7,0.3c0.9,0.4,1.6,0.9,2,1.5s0.6,1.2,0.6,1.9c0,1-0.4,1.9-1.2,2.6
			s-1.8,1-3,1c-0.3,0-0.7,0-1.1-0.1s-0.6-0.1-0.7-0.1c-0.1,0-0.3,0-0.5,0.1s-0.4,0.1-0.5,0.1c-0.2,0-0.3,0-0.5-0.2
			c-0.2-0.1-0.3-0.3-0.4-0.4c-0.3-0.4-0.5-0.9-0.7-1.3c-0.2-0.5-0.2-0.9-0.2-1.2c0-0.3,0.1-0.6,0.2-0.8s0.4-0.3,0.6-0.3
			c0.4,0,0.8,0.4,1.3,1.1c0.1,0.2,0.3,0.4,0.3,0.5c0.2,0.3,0.5,0.6,0.9,0.8s0.8,0.3,1.2,0.3c0.4,0,0.7-0.1,0.9-0.3s0.3-0.4,0.3-0.7
			c0-0.5-0.7-1.1-2.2-1.9l-0.1-0.1c-1.3-0.6-2.2-1.2-2.6-1.7C304.5,33.1,304.3,32.4,304.3,31.7L304.3,31.7z M314,31.7
			c0-1,0.3-1.8,1-2.4s1.5-0.9,2.6-0.9c0.3,0,0.6,0,0.9,0.1c0.3,0,0.5,0.1,0.6,0.1c0.1,0,0.3-0.1,0.6-0.2s0.5-0.2,0.6-0.2
			s0.3,0,0.5,0.2c0.2,0.1,0.3,0.2,0.5,0.4c0.3,0.4,0.5,0.8,0.7,1.3s0.3,0.9,0.3,1.3c0,0.3-0.1,0.5-0.2,0.7s-0.3,0.2-0.5,0.2
			c-0.2,0-0.3-0.1-0.5-0.2c-0.1-0.1-0.3-0.3-0.5-0.5c-0.1-0.1-0.1-0.2-0.2-0.3c-0.6-0.8-1.2-1.2-1.8-1.2c-0.3,0-0.5,0.1-0.7,0.2
			c-0.2,0.2-0.3,0.4-0.3,0.6c0,0.5,0.6,1,1.8,1.5c0.3,0.1,0.5,0.2,0.7,0.3c0.9,0.4,1.6,0.9,2,1.5s0.6,1.2,0.6,1.9
			c0,1-0.4,1.9-1.2,2.6c-0.8,0.7-1.8,1-3,1c-0.3,0-0.7,0-1.1-0.1s-0.6-0.1-0.7-0.1c-0.1,0-0.3,0-0.5,0.1s-0.4,0.1-0.5,0.1
			c-0.2,0-0.3,0-0.5-0.2c-0.2-0.1-0.3-0.3-0.4-0.4c-0.3-0.4-0.5-0.9-0.7-1.3c-0.2-0.5-0.2-0.9-0.2-1.2c0-0.3,0.1-0.6,0.2-0.8
			c0.2-0.2,0.4-0.3,0.6-0.3c0.4,0,0.8,0.4,1.3,1.1c0.1,0.2,0.3,0.4,0.3,0.5c0.2,0.3,0.5,0.6,0.9,0.8s0.8,0.3,1.2,0.3
			c0.4,0,0.7-0.1,0.9-0.3s0.3-0.4,0.3-0.7c0-0.5-0.7-1.1-2.2-1.9l-0.1-0.1c-1.3-0.6-2.2-1.2-2.6-1.7C314.2,33.1,314,32.4,314,31.7
			L314,31.7z M328.6,32.6v2.7c0,0.9,0,1.4,0.1,1.7s0.1,0.5,0.2,0.6c0.1,0,0.2,0.1,0.4,0.2c0.4,0.2,0.7,0.5,0.7,0.8
			c0,0.4-0.2,0.6-0.7,0.8c-0.4,0.2-1.2,0.2-2.4,0.2c-1.2,0-2-0.1-2.4-0.2c-0.4-0.2-0.7-0.4-0.7-0.8c0-0.3,0.2-0.6,0.6-0.8
			c0.2-0.1,0.3-0.2,0.4-0.2c0.1-0.1,0.2-0.3,0.2-0.7c0-0.3,0.1-1,0.1-2c0-1.6,0-2.5-0.1-3c-0.1-0.4-0.2-0.7-0.3-0.8
			c0,0-0.2-0.1-0.6-0.2s-0.6-0.4-0.6-0.7c0-0.2,0.1-0.3,0.2-0.5c0.1-0.1,0.4-0.3,0.6-0.4c0.6-0.3,1.3-0.5,1.9-0.7s1.2-0.2,1.6-0.2
			c0.3,0,0.5,0.1,0.6,0.2c0.1,0.1,0.1,0.4,0.1,0.8c0,0.1,0,0.2,0,0.5C328.6,30.8,328.6,31.7,328.6,32.6z M324.2,25.5
			c0-0.5,0.2-0.9,0.7-1.3c0.5-0.4,1-0.5,1.7-0.5c0.6,0,1.1,0.2,1.5,0.5c0.4,0.3,0.6,0.7,0.6,1.2c0,0.5-0.2,0.9-0.7,1.2
			s-1,0.5-1.7,0.5c-0.6,0-1.2-0.1-1.6-0.5C324.4,26.3,324.2,25.9,324.2,25.5L324.2,25.5z M332,39.1c-0.4-0.2-0.7-0.4-0.9-0.7
			c-0.2-0.3-0.3-0.6-0.3-1c0-0.4,0.1-0.8,0.4-1.1s0.7-0.6,1.2-0.8c-0.4-0.3-0.7-0.7-0.9-1.2c-0.2-0.5-0.3-1-0.3-1.6
			c0-1.3,0.5-2.3,1.3-3.1c0.9-0.8,2.1-1.1,3.6-1.1c0.6,0,1.2,0.1,1.8,0.3s1,0.3,1,0.3c0.3,0,0.7-0.1,1.1-0.3s0.8-0.4,1.1-0.8
			c0.2,0.1,0.3,0.2,0.4,0.4c0.1,0.1,0.1,0.3,0.1,0.5c0,0.3-0.1,0.7-0.4,1c-0.2,0.3-0.6,0.6-1.1,0.8c0.1,0.2,0.2,0.5,0.3,0.8
			c0.1,0.3,0.1,0.5,0.1,0.8c0,1.2-0.5,2.3-1.4,3.1c-1,0.8-2.2,1.2-3.7,1.2c-0.5,0-0.9,0-1.2-0.1s-0.7-0.2-1-0.3
			c-0.1,0.1-0.2,0.2-0.2,0.3c0,0.1-0.1,0.2-0.1,0.3c0,0.3,0.2,0.5,0.5,0.7s0.8,0.2,1.5,0.2c0.4,0,1.1,0,1.9-0.1s1.5-0.1,1.9-0.1
			c1,0,1.7,0.2,2.2,0.6c0.5,0.4,0.8,1,0.8,1.8c0,1.2-0.6,2.1-1.8,2.9s-2.6,1.2-4.4,1.2c-1.6,0-2.9-0.3-3.8-0.8s-1.4-1.2-1.4-2.1
			c0-0.4,0.1-0.8,0.3-1.1C331.2,39.5,331.5,39.3,332,39.1L332,39.1z M333.5,39.7c-0.1,0.1-0.1,0.2-0.1,0.3c0,0.1,0,0.1,0,0.2
			c0,0.5,0.2,0.9,0.8,1.3s1.1,0.5,2,0.5c0.9,0,1.5-0.1,2-0.4s0.7-0.6,0.7-1.1c0-0.3-0.1-0.5-0.3-0.7s-0.4-0.2-0.8-0.2
			c-0.1,0-0.5,0-1,0.1s-1.1,0.1-1.6,0.1C334.6,39.8,334.1,39.8,333.5,39.7z M336,34.7c0.5,0,0.9-0.2,1.2-0.5
			c0.3-0.4,0.4-0.9,0.4-1.5c0-0.8-0.2-1.4-0.5-1.9s-0.8-0.8-1.3-0.8c-0.5,0-0.9,0.2-1.2,0.6s-0.5,0.9-0.5,1.5c0,0.8,0.2,1.4,0.5,1.9
			C335.1,34.4,335.5,34.7,336,34.7L336,34.7z M347.1,29.2v0.7c0,0.1,0,0.2,0,0.2s0,0.1,0.1,0.1c0.1,0,0.2-0.1,0.4-0.3
			c0.1-0.1,0.2-0.2,0.2-0.3c0.4-0.4,0.8-0.7,1.2-0.9s1-0.3,1.6-0.3c1.4,0,2.4,0.4,3,1.2s0.9,2,0.9,3.8v1.8c0,0.8,0,1.4,0,1.7
			s0.1,0.5,0.1,0.6c0,0,0.2,0.2,0.6,0.4c0.4,0.2,0.5,0.4,0.5,0.7c0,0.4-0.2,0.6-0.7,0.8c-0.4,0.2-1.2,0.2-2.4,0.2s-2-0.1-2.4-0.2
			c-0.4-0.2-0.7-0.4-0.7-0.8c0-0.3,0.2-0.6,0.7-0.8c0.2-0.1,0.3-0.2,0.4-0.2c0.1-0.1,0.2-0.3,0.2-0.6s0.1-0.9,0.1-1.7
			c0-1.8-0.1-3-0.4-3.5c-0.3-0.5-0.7-0.8-1.4-0.8c-0.7,0-1.3,0.3-1.6,0.9c-0.3,0.6-0.5,1.6-0.5,3c0,0.8,0,1.4,0,1.8s0.1,0.6,0.2,0.7
			c0,0.1,0.2,0.2,0.6,0.4c0.3,0.2,0.5,0.4,0.5,0.7c0,0.4-0.2,0.6-0.7,0.8c-0.4,0.2-1.2,0.2-2.4,0.2s-2-0.1-2.4-0.2
			c-0.5-0.2-0.7-0.4-0.7-0.8c0-0.3,0.2-0.6,0.7-0.8c0.2-0.1,0.3-0.2,0.4-0.2c0.1-0.1,0.2-0.3,0.2-0.6s0.1-1.1,0.1-2.3
			c0-1.3,0-2.2-0.1-2.6c-0.1-0.4-0.1-0.7-0.3-0.8c0,0-0.2-0.1-0.6-0.2c-0.4-0.1-0.6-0.4-0.6-0.7c0-0.2,0.1-0.3,0.2-0.5
			c0.1-0.1,0.4-0.3,0.6-0.4c0.6-0.3,1.3-0.5,1.9-0.7s1.2-0.2,1.6-0.2c0.3,0,0.5,0,0.6,0.2C347,28.7,347.1,28.9,347.1,29.2z
			 M361.2,29.2v0.7c0,0.1,0,0.2,0,0.2s0,0.1,0.1,0.1c0.1,0,0.3-0.1,0.5-0.4c0.1-0.2,0.3-0.3,0.4-0.4c0.3-0.3,0.7-0.5,1.1-0.7
			c0.4-0.1,0.9-0.2,1.4-0.2c0.5,0,1,0.1,1.4,0.2s0.8,0.4,1.2,0.7c0.2,0.1,0.3,0.3,0.5,0.5s0.3,0.3,0.3,0.3c0.1,0,0.2-0.1,0.5-0.3
			l0.2-0.2c0.5-0.5,1-0.8,1.5-1c0.5-0.2,1-0.3,1.6-0.3c0.6,0,1.1,0.1,1.6,0.3s0.9,0.5,1.2,0.9c0.3,0.4,0.5,0.9,0.7,1.5
			c0.1,0.6,0.2,1.4,0.2,2.4v1.6c0,0.8,0,1.4,0,1.7c0,0.3,0.1,0.5,0.1,0.6c0,0,0.2,0.2,0.6,0.4c0.4,0.2,0.5,0.4,0.5,0.7
			c0,0.4-0.2,0.6-0.7,0.8c-0.4,0.2-1.2,0.2-2.4,0.2s-2-0.1-2.4-0.2c-0.4-0.2-0.7-0.4-0.7-0.8c0-0.3,0.2-0.6,0.7-0.8
			c0.2-0.1,0.3-0.2,0.4-0.2c0.1-0.1,0.2-0.3,0.2-0.6c0-0.3,0.1-0.9,0.1-1.8c0-1.7-0.1-2.8-0.4-3.4c-0.2-0.5-0.7-0.8-1.3-0.8
			c-0.6,0-1.1,0.3-1.4,0.9c-0.3,0.6-0.5,1.5-0.5,2.7c0,0.9,0,1.6,0,2c0,0.4,0.1,0.7,0.2,0.8c0,0,0.2,0.2,0.6,0.4
			c0.4,0.2,0.5,0.4,0.5,0.7c0,0.4-0.2,0.6-0.7,0.8c-0.5,0.2-1.2,0.2-2.4,0.2s-2-0.1-2.4-0.2c-0.4-0.2-0.7-0.4-0.7-0.8
			c0-0.3,0.2-0.6,0.7-0.8c0.2-0.1,0.3-0.2,0.3-0.2c0.1-0.1,0.2-0.3,0.2-0.6s0.1-0.9,0.1-1.7c0-1.7-0.1-2.8-0.4-3.3
			c-0.2-0.5-0.7-0.8-1.3-0.8s-1.1,0.3-1.4,0.9c-0.3,0.6-0.5,1.6-0.5,2.9c0,0.8,0,1.5,0,1.8s0.1,0.6,0.2,0.7c0,0.1,0.2,0.2,0.6,0.4
			c0.3,0.2,0.5,0.4,0.5,0.7c0,0.4-0.2,0.6-0.7,0.8c-0.4,0.2-1.2,0.2-2.4,0.2s-2-0.1-2.4-0.2c-0.5-0.2-0.7-0.4-0.7-0.8
			c0-0.3,0.2-0.6,0.7-0.8c0.2-0.1,0.3-0.2,0.4-0.2c0.1-0.1,0.2-0.3,0.2-0.6c0-0.3,0.1-1.1,0.1-2.3c0-1.3,0-2.2-0.1-2.6
			c0-0.4-0.1-0.7-0.3-0.8c0,0-0.2-0.1-0.6-0.2s-0.6-0.4-0.6-0.7c0-0.2,0.1-0.3,0.2-0.5s0.4-0.3,0.6-0.4c0.6-0.3,1.3-0.5,1.9-0.7
			c0.6-0.2,1.2-0.2,1.6-0.2c0.3,0,0.5,0,0.6,0.2C361.1,28.7,361.2,28.9,361.2,29.2L361.2,29.2z M386.8,34.2h-5.2
			c-0.2,0-0.4,0-0.5,0.1s-0.1,0.1-0.1,0.3c0,0.7,0.3,1.4,0.8,1.9c0.5,0.5,1.2,0.8,2,0.8c0.6,0,1.2-0.2,1.8-0.5
			c0.6-0.3,1-0.5,1.1-0.5c0.2,0,0.4,0.1,0.5,0.2c0.1,0.1,0.2,0.3,0.2,0.4c0,0.3-0.1,0.5-0.2,0.8c-0.1,0.2-0.4,0.5-0.7,0.8
			c-0.5,0.4-1.1,0.7-1.7,0.9s-1.3,0.3-2,0.3c-1.7,0-3-0.5-4.1-1.6s-1.6-2.4-1.6-4.1c0-1.7,0.5-3.1,1.6-4.2c1.1-1.1,2.4-1.6,4.1-1.6
			c1.4,0,2.6,0.4,3.5,1.2c0.9,0.8,1.4,1.8,1.4,3.1c0,0.7-0.1,1.1-0.2,1.3S387.2,34.2,386.8,34.2L386.8,34.2z M381.4,32.6h2.8
			c0.1,0,0.2,0,0.3-0.1s0.1-0.2,0.1-0.3c0-0.6-0.2-1.2-0.5-1.6s-0.8-0.6-1.3-0.6c-0.5,0-0.9,0.2-1.2,0.7s-0.5,1-0.5,1.6
			c0,0.1,0,0.2,0.1,0.2C381.1,32.6,381.2,32.6,381.4,32.6z M393.5,29.2v0.7c0,0.1,0,0.2,0,0.2s0,0.1,0.1,0.1c0.1,0,0.2-0.1,0.4-0.3
			c0.1-0.1,0.2-0.2,0.2-0.3c0.4-0.4,0.8-0.7,1.2-0.9s1-0.3,1.6-0.3c1.4,0,2.4,0.4,3,1.2s0.9,2,0.9,3.8v1.8c0,0.8,0,1.4,0,1.7
			s0.1,0.5,0.1,0.6c0,0,0.2,0.2,0.6,0.4c0.4,0.2,0.5,0.4,0.5,0.7c0,0.4-0.2,0.6-0.7,0.8c-0.4,0.2-1.2,0.2-2.4,0.2s-2-0.1-2.4-0.2
			c-0.4-0.2-0.7-0.4-0.7-0.8c0-0.3,0.2-0.6,0.7-0.8c0.2-0.1,0.3-0.2,0.4-0.2c0.1-0.1,0.2-0.3,0.2-0.6s0.1-0.9,0.1-1.7
			c0-1.8-0.1-3-0.4-3.5c-0.3-0.5-0.7-0.8-1.4-0.8c-0.7,0-1.3,0.3-1.6,0.9c-0.3,0.6-0.5,1.6-0.5,3c0,0.8,0,1.4,0,1.8s0.1,0.6,0.2,0.7
			c0,0.1,0.2,0.2,0.6,0.4c0.3,0.2,0.5,0.4,0.5,0.7c0,0.4-0.2,0.6-0.7,0.8c-0.4,0.2-1.2,0.2-2.4,0.2s-2-0.1-2.4-0.2
			c-0.5-0.2-0.7-0.4-0.7-0.8c0-0.3,0.2-0.6,0.7-0.8c0.2-0.1,0.3-0.2,0.4-0.2c0.1-0.1,0.2-0.3,0.2-0.6s0.1-1.1,0.1-2.4
			c0-1.3,0-2.2-0.1-2.6c-0.1-0.4-0.1-0.7-0.3-0.8c0,0-0.2-0.1-0.6-0.2c-0.4-0.1-0.6-0.4-0.6-0.7c0-0.2,0.1-0.3,0.2-0.5
			c0.1-0.1,0.4-0.3,0.6-0.4c0.6-0.3,1.3-0.5,1.9-0.7s1.2-0.2,1.6-0.2c0.3,0,0.5,0,0.6,0.2C393.5,28.7,393.5,28.9,393.5,29.2z
			 M404.1,35.9l0-5.6h-1.3c-0.2,0-0.3,0-0.4-0.1s-0.1-0.3-0.1-0.7c0-0.3,0.2-0.7,0.8-1.1c0.1-0.1,0.2-0.1,0.2-0.2
			c0.2-0.1,0.4-0.3,0.7-0.5c1.4-1.1,2.4-1.6,2.8-1.6c0.3,0,0.4,0,0.5,0.1s0.1,0.3,0.1,0.7v1.8h2.6c0.2,0,0.4,0,0.4,0.1
			c0.1,0.1,0.1,0.2,0.1,0.4c0,0.5,0,0.9-0.1,1s-0.3,0.2-0.6,0.2h-2.5v5c0,0.9,0.1,1.5,0.2,1.8s0.5,0.5,0.9,0.5c0.3,0,0.6-0.1,1-0.3
			s0.7-0.3,0.8-0.3c0.2,0,0.3,0.1,0.4,0.2s0.2,0.3,0.2,0.5c0,0.5-0.4,1-1.1,1.4s-1.6,0.7-2.6,0.7c-1.2,0-2.1-0.3-2.6-0.9
			S404.1,37.3,404.1,35.9L404.1,35.9L404.1,35.9z M411.8,31.7c0-1,0.3-1.8,1-2.4s1.5-0.9,2.6-0.9c0.3,0,0.6,0,0.9,0.1
			c0.3,0,0.5,0.1,0.6,0.1c0.1,0,0.3-0.1,0.6-0.2s0.5-0.2,0.6-0.2s0.3,0,0.5,0.2c0.2,0.1,0.3,0.2,0.5,0.4c0.3,0.4,0.5,0.8,0.7,1.3
			s0.3,0.9,0.3,1.3c0,0.3-0.1,0.5-0.2,0.7s-0.3,0.2-0.5,0.2c-0.2,0-0.3-0.1-0.5-0.2c-0.1-0.1-0.3-0.3-0.5-0.5
			c-0.1-0.1-0.1-0.2-0.2-0.3c-0.6-0.8-1.2-1.2-1.8-1.2c-0.3,0-0.5,0.1-0.7,0.2c-0.2,0.2-0.3,0.4-0.3,0.6c0,0.5,0.6,1,1.8,1.5
			c0.3,0.1,0.5,0.2,0.7,0.3c0.9,0.4,1.6,0.9,2,1.5s0.6,1.2,0.6,1.9c0,1-0.4,1.9-1.2,2.6c-0.8,0.7-1.8,1-3,1c-0.3,0-0.7,0-1.1-0.1
			s-0.6-0.1-0.7-0.1c-0.1,0-0.3,0-0.5,0.1s-0.4,0.1-0.5,0.1c-0.2,0-0.3,0-0.5-0.2c-0.2-0.1-0.3-0.3-0.4-0.4
			c-0.3-0.4-0.5-0.9-0.7-1.3c-0.2-0.5-0.2-0.9-0.2-1.2c0-0.3,0.1-0.6,0.2-0.8c0.2-0.2,0.4-0.3,0.6-0.3c0.4,0,0.8,0.4,1.3,1.1
			c0.1,0.2,0.3,0.4,0.3,0.5c0.2,0.3,0.5,0.6,0.9,0.8s0.8,0.3,1.2,0.3c0.4,0,0.7-0.1,0.9-0.3s0.3-0.4,0.3-0.7c0-0.5-0.7-1.1-2.2-1.9
			l-0.1-0.1c-1.3-0.6-2.2-1.2-2.6-1.7C412,33.1,411.8,32.4,411.8,31.7L411.8,31.7z"/>
	</g>
	<path class="st2" d="M581.9,122.8H202.4c-1.7,0-3-1.3-3-3v-15.9c0-1.7,1.3-3,3-3h379.5c1.7,0,3,1.3,3,3v15.9
		C584.9,121.4,583.5,122.8,581.9,122.8z"/>
	<g>
		<path d="M219.1,113.9h-3.8l-0.7,1.6h-0.9l3-6.9h0.9l3,6.9h-0.9L219.1,113.9L219.1,113.9z M218.8,113.2l-1.6-3.6l-1.6,3.6H218.8z
			 M221.4,114.8l0.4-0.6c0.6,0.4,1.2,0.7,1.8,0.7c0.7,0,1.1-0.3,1.1-0.8c0-0.6-0.6-0.7-1.3-0.9c-1.2-0.4-1.7-0.7-1.7-1.5
			c0-0.9,0.8-1.5,1.8-1.5c0.6,0,1.3,0.2,1.9,0.6l-0.4,0.6c-0.5-0.3-1-0.5-1.5-0.5c-0.6,0-1.1,0.3-1.1,0.8c0,0.4,0.4,0.6,1.3,0.9
			c0.8,0.3,1.7,0.5,1.7,1.5c0,0.9-0.8,1.6-1.9,1.6C222.8,115.6,222,115.3,221.4,114.8z M226.3,114.8l0.4-0.6
			c0.6,0.4,1.2,0.7,1.8,0.7c0.7,0,1.1-0.3,1.1-0.8c0-0.6-0.6-0.7-1.3-0.9c-1.2-0.4-1.7-0.7-1.7-1.5c0-0.9,0.8-1.5,1.8-1.5
			c0.6,0,1.3,0.2,1.9,0.6l-0.4,0.6c-0.5-0.3-1-0.5-1.5-0.5c-0.6,0-1.1,0.3-1.1,0.8c0,0.4,0.4,0.6,1.3,0.9c0.8,0.3,1.7,0.5,1.7,1.5
			c0,0.9-0.8,1.6-1.9,1.6C227.8,115.6,227,115.3,226.3,114.8z M231.5,108.8c0-0.3,0.2-0.5,0.5-0.5c0.3,0,0.5,0.2,0.5,0.5
			c0,0.3-0.2,0.5-0.5,0.5C231.7,109.3,231.5,109.1,231.5,108.8z M231.6,110.3h0.8v5.2h-0.8V110.3z M238.6,110.3v4.6
			c0,1.3-1.1,2.3-2.5,2.3c-0.8,0-1.6-0.3-2.1-0.7l0.3-0.6c0.4,0.4,1,0.6,1.7,0.6c1.2,0,1.9-0.6,1.9-1.6v-0.8c-0.4,0.6-1.1,1-1.9,1
			c-1.4,0-2.4-1-2.4-2.5s1-2.4,2.4-2.4c0.8,0,1.5,0.4,1.9,1v-0.9L238.6,110.3L238.6,110.3z M237.9,112.6c0-1-0.7-1.8-1.7-1.8
			c-1,0-1.7,0.7-1.7,1.8c0,1.1,0.7,1.8,1.7,1.8C237.2,114.4,237.9,113.7,237.9,112.6z M244.6,112.2v3.3h-0.8v-3.2
			c0-0.8-0.5-1.4-1.3-1.4c-0.9,0-1.6,0.6-1.6,1.3v3.3h-0.8v-5.2h0.8v0.8c0.3-0.6,1-0.9,1.7-0.9C243.8,110.2,244.6,111,244.6,112.2z
			 M253.6,112.2v3.3h-0.8v-3.2c0-0.8-0.5-1.4-1.2-1.4c-0.8,0-1.4,0.6-1.4,1.3v3.3h-0.8v-3.2c0-0.8-0.5-1.4-1.2-1.4
			c-0.8,0-1.4,0.6-1.4,1.3v3.3h-0.8v-5.2h0.8v0.8c0.3-0.5,0.8-0.9,1.5-0.9c0.8,0,1.4,0.4,1.7,1.1c0.2-0.7,0.9-1.1,1.7-1.1
			C252.8,110.2,253.6,111,253.6,112.2z M259,114.3l0.5,0.5c-0.5,0.5-1.4,0.8-2.1,0.8c-1.4,0-2.6-1.1-2.6-2.7c0-1.5,1.2-2.7,2.5-2.7
			c1.6,0,2.5,1.2,2.5,3h-4.2c0.1,1,0.8,1.8,1.8,1.8C258,114.9,258.7,114.6,259,114.3L259,114.3z M255.6,112.5h3.5
			c-0.1-0.9-0.6-1.7-1.7-1.7C256.5,110.8,255.7,111.5,255.6,112.5z M265.4,112.2v3.3h-0.8v-3.2c0-0.8-0.5-1.4-1.3-1.4
			c-0.9,0-1.6,0.6-1.6,1.3v3.3H261v-5.2h0.8v0.8c0.3-0.6,1-0.9,1.7-0.9C264.6,110.2,265.4,111,265.4,112.2z M269.6,115.2
			c-0.3,0.2-0.6,0.3-1,0.3c-0.7,0-1.3-0.6-1.3-1.3v-3.3h-0.8v-0.7h0.8v-1.4h0.8v1.4h1.3v0.7h-1.3v3.3c0,0.4,0.3,0.7,0.6,0.7
			c0.2,0,0.4-0.1,0.5-0.2C269.2,114.7,269.6,115.2,269.6,115.2z M270.4,114.8l0.4-0.6c0.6,0.4,1.2,0.7,1.8,0.7
			c0.7,0,1.1-0.3,1.1-0.8c0-0.6-0.6-0.7-1.3-0.9c-1.2-0.4-1.7-0.7-1.7-1.5c0-0.9,0.8-1.5,1.8-1.5c0.6,0,1.3,0.2,1.9,0.6l-0.4,0.6
			c-0.5-0.3-1-0.5-1.5-0.5c-0.6,0-1.1,0.3-1.1,0.8c0,0.4,0.4,0.6,1.3,0.9c0.8,0.3,1.7,0.5,1.7,1.5c0,0.9-0.8,1.6-1.9,1.6
			C271.8,115.6,271,115.3,270.4,114.8L270.4,114.8z"/>
	</g>
	<path class="st2" d="M581.9,152.8H202.4c-1.7,0-3-1.3-3-3v-15.9c0-1.7,1.3-3,3-3h379.5c1.7,0,3,1.3,3,3v15.9
		C584.9,151.5,583.5,152.8,581.9,152.8z"/>
	<g>
		<path d="M214.2,138.6h0.8v6.9h-0.8V138.6z M220.9,142.2v3.3h-0.8v-3.2c0-0.8-0.5-1.4-1.3-1.4c-0.9,0-1.6,0.6-1.6,1.3v3.3h-0.8
			v-5.2h0.8v0.8c0.3-0.6,1-0.9,1.7-0.9C220.1,140.2,220.9,141.1,220.9,142.2z M222.1,144.9l0.4-0.6c0.6,0.4,1.2,0.6,1.8,0.6
			c0.7,0,1.1-0.3,1.1-0.8c0-0.6-0.6-0.7-1.3-0.9c-1.2-0.4-1.7-0.7-1.7-1.5c0-0.9,0.8-1.5,1.8-1.5c0.6,0,1.3,0.2,1.9,0.6l-0.4,0.6
			c-0.5-0.3-1-0.5-1.5-0.5c-0.6,0-1.1,0.3-1.1,0.8c0,0.4,0.4,0.6,1.3,0.9c0.8,0.3,1.7,0.5,1.7,1.5c0,0.9-0.8,1.6-1.9,1.6
			C223.5,145.6,222.7,145.3,222.1,144.9L222.1,144.9z M230,145.3c-0.3,0.2-0.6,0.3-1,0.3c-0.7,0-1.3-0.6-1.3-1.3V141H227v-0.7h0.8
			v-1.4h0.8v1.4h1.3v0.7h-1.3v3.3c0,0.4,0.3,0.6,0.6,0.6c0.2,0,0.4-0.1,0.5-0.2L230,145.3L230,145.3z M233.9,140.2v0.7
			c-1.2,0-2,0.7-2,1.7v2.9h-0.8v-5.2h0.8v1C232.2,140.7,232.9,140.2,233.9,140.2L233.9,140.2z M239.3,140.3v5.2h-0.8v-0.8
			c-0.3,0.6-1,0.9-1.7,0.9c-1.1,0-1.9-0.8-1.9-2v-3.3h0.8v3.2c0,0.8,0.5,1.4,1.3,1.4c0.9,0,1.6-0.6,1.6-1.3v-3.3H239.3z
			 M240.6,142.9c0-1.5,1.2-2.7,2.7-2.7c0.7,0,1.4,0.3,1.8,0.8l-0.5,0.5c-0.3-0.4-0.8-0.6-1.3-0.6c-1,0-1.9,0.9-1.9,2
			c0,1.1,0.9,2,1.9,2c0.5,0,1-0.2,1.4-0.6l0.5,0.5c-0.5,0.5-1.1,0.8-1.9,0.8C241.8,145.6,240.6,144.4,240.6,142.9L240.6,142.9z
			 M248.9,145.3c-0.3,0.2-0.6,0.3-1,0.3c-0.7,0-1.3-0.6-1.3-1.3V141h-0.8v-0.7h0.8v-1.4h0.8v1.4h1.3v0.7h-1.3v3.3
			c0,0.4,0.3,0.6,0.6,0.6c0.2,0,0.4-0.1,0.5-0.2L248.9,145.3L248.9,145.3z M249.9,138.9c0-0.3,0.2-0.5,0.5-0.5
			c0.3,0,0.5,0.2,0.5,0.5c0,0.3-0.2,0.5-0.5,0.5C250.1,139.4,249.9,139.2,249.9,138.9z M250,140.3h0.8v5.2H250V140.3z M251.9,142.9
			c0-1.5,1.2-2.7,2.7-2.7s2.7,1.2,2.7,2.7s-1.2,2.7-2.7,2.7S251.9,144.4,251.9,142.9z M256.5,142.9c0-1.1-0.9-2-1.9-2
			c-1,0-1.9,0.9-1.9,2c0,1.1,0.9,2,1.9,2C255.7,145,256.5,144,256.5,142.9z M262.9,142.2v3.3h-0.8v-3.2c0-0.8-0.5-1.4-1.3-1.4
			c-0.9,0-1.6,0.6-1.6,1.3v3.3h-0.8v-5.2h0.8v0.8c0.3-0.6,1-0.9,1.7-0.9C262.1,140.2,262.9,141.1,262.9,142.2z M264.1,144.9l0.4-0.6
			c0.6,0.4,1.2,0.6,1.8,0.6c0.7,0,1.1-0.3,1.1-0.8c0-0.6-0.6-0.7-1.3-0.9c-1.2-0.4-1.7-0.7-1.7-1.5c0-0.9,0.8-1.5,1.8-1.5
			c0.6,0,1.3,0.2,1.9,0.6l-0.4,0.6c-0.5-0.3-1-0.5-1.5-0.5c-0.6,0-1.1,0.3-1.1,0.8c0,0.4,0.4,0.6,1.3,0.9c0.8,0.3,1.7,0.5,1.7,1.5
			c0,0.9-0.8,1.6-1.9,1.6C265.6,145.6,264.8,145.3,264.1,144.9L264.1,144.9z M272.2,142.9c0-1.7,0.8-3.2,2.1-4.4l0.4,0.4
			c-1.1,1.1-1.7,2.3-1.7,3.9c0,1.6,0.6,2.8,1.7,3.9l-0.4,0.4C272.9,146.1,272.2,144.6,272.2,142.9L272.2,142.9z M275.6,142.9
			c0-1.5,1.2-2.7,2.7-2.7c0.7,0,1.4,0.3,1.8,0.8l-0.5,0.5c-0.3-0.4-0.8-0.6-1.3-0.6c-1,0-1.9,0.9-1.9,2c0,1.1,0.9,2,1.9,2
			c0.5,0,1-0.2,1.4-0.6l0.5,0.5c-0.5,0.5-1.1,0.8-1.9,0.8C276.8,145.6,275.6,144.4,275.6,142.9L275.6,142.9z M281.3,138.5h0.8v7
			h-0.8V138.5z M283.5,138.9c0-0.3,0.2-0.5,0.5-0.5c0.3,0,0.5,0.2,0.5,0.5c0,0.3-0.2,0.5-0.5,0.5
			C283.7,139.4,283.5,139.2,283.5,138.9z M283.6,140.3h0.8v5.2h-0.8V140.3z M285.5,142.9c0-1.5,1.2-2.7,2.7-2.7
			c0.7,0,1.4,0.3,1.8,0.8l-0.5,0.5c-0.3-0.4-0.8-0.6-1.3-0.6c-1,0-1.9,0.9-1.9,2c0,1.1,0.9,2,1.9,2c0.5,0,1-0.2,1.4-0.6l0.5,0.5
			c-0.5,0.5-1.1,0.8-1.9,0.8C286.8,145.6,285.5,144.4,285.5,142.9L285.5,142.9z M293.5,142.7l2.2,2.8h-0.9l-1.8-2.3l-0.9,0.9v1.4
			h-0.8v-7h0.8v4.7l2.8-2.9h1L293.5,142.7L293.5,142.7z M302.2,145.3c-0.3,0.2-0.6,0.3-1,0.3c-0.7,0-1.3-0.6-1.3-1.3V141h-0.8v-0.7
			h0.8v-1.4h0.8v1.4h1.3v0.7h-1.3v3.3c0,0.4,0.3,0.6,0.6,0.6c0.2,0,0.4-0.1,0.5-0.2L302.2,145.3L302.2,145.3z M303,142.9
			c0-1.5,1.2-2.7,2.7-2.7s2.7,1.2,2.7,2.7s-1.2,2.7-2.7,2.7S303,144.4,303,142.9z M307.6,142.9c0-1.1-0.9-2-1.9-2
			c-1,0-1.9,0.9-1.9,2c0,1.1,0.9,2,1.9,2C306.7,145,307.6,144,307.6,142.9z M316.5,144.3l0.5,0.5c-0.5,0.5-1.4,0.8-2.1,0.8
			c-1.4,0-2.6-1.1-2.6-2.7c0-1.5,1.2-2.7,2.5-2.7c1.6,0,2.5,1.2,2.5,3H313c0.1,1,0.8,1.8,1.8,1.8C315.4,145,316.1,144.7,316.5,144.3
			L316.5,144.3z M313,142.5h3.5c-0.1-0.9-0.6-1.6-1.7-1.6C313.9,140.9,313.1,141.5,313,142.5L313,142.5z M322,145.5l-1.5-2.1
			l-1.6,2.1H318l2-2.6l-1.9-2.5h0.9l1.5,1.9l1.5-1.9h0.9l-1.9,2.5l2,2.6H322z M329,142.9c0,1.6-1,2.7-2.4,2.7
			c-0.8,0-1.5-0.4-1.9-1.1v2.7H324v-6.9h0.8v1c0.4-0.7,1-1.1,1.9-1.1C328,140.2,329,141.3,329,142.9L329,142.9z M328.2,142.9
			c0-1.2-0.7-2-1.7-2c-1,0-1.7,0.8-1.7,2s0.7,2,1.7,2C327.5,145,328.2,144.1,328.2,142.9z M334.5,142.4v3.1h-0.8v-0.8
			c-0.4,0.6-1.1,0.9-1.8,0.9c-1.1,0-1.9-0.6-1.9-1.6c0-1,0.9-1.7,2-1.7c0.6,0,1.1,0.1,1.7,0.3v-0.2c0-0.7-0.3-1.5-1.4-1.5
			c-0.5,0-1,0.2-1.5,0.5l-0.3-0.6c0.7-0.4,1.4-0.5,1.9-0.5C333.8,140.2,334.5,141.1,334.5,142.4L334.5,142.4z M333.8,143.9v-0.8
			c-0.5-0.1-1-0.2-1.6-0.2c-0.8,0-1.4,0.4-1.4,1.1c0,0.6,0.6,1,1.3,1C332.8,145,333.6,144.6,333.8,143.9z M340.5,142.2v3.3h-0.8
			v-3.2c0-0.8-0.5-1.4-1.3-1.4c-0.9,0-1.6,0.6-1.6,1.3v3.3h-0.8v-5.2h0.8v0.8c0.3-0.6,1-0.9,1.7-0.9
			C339.7,140.2,340.5,141.1,340.5,142.2z M346.8,138.5v7H346v-1c-0.4,0.7-1,1.1-1.9,1.1c-1.4,0-2.4-1.1-2.4-2.7c0-1.6,1-2.7,2.4-2.7
			c0.8,0,1.5,0.4,1.9,1.1v-2.8H346.8z M346,142.9c0-1.2-0.7-2-1.7-2c-1,0-1.7,0.8-1.7,2s0.7,2,1.7,2C345.3,145,346,144.1,346,142.9z
			 M348.1,146.8c1.1-1.1,1.7-2.3,1.7-3.9c0-1.6-0.6-2.8-1.7-3.9l0.4-0.4c1.3,1.1,2.1,2.6,2.1,4.4c0,1.7-0.8,3.2-2.1,4.4L348.1,146.8
			L348.1,146.8z"/>
	</g>
	<path class="st2" d="M581.9,182.9H475.5c-1.7,0-3-1.3-3-3V164c0-1.7,1.3-3,3-3h106.3c1.7,0,3,1.3,3,3v15.9
		C584.9,181.6,583.5,182.9,581.9,182.9z"/>
	<g>
		<path d="M432.5,174.6l0.5-0.6c0.6,0.6,1.3,1,2.2,1c1.1,0,1.6-0.6,1.6-1.2c0-0.7-0.6-1-1.9-1.3c-1.4-0.3-2.2-0.8-2.2-1.9
			c0-1.1,1-2,2.3-2c1,0,1.8,0.4,2.4,1l-0.5,0.6c-0.6-0.6-1.2-0.9-2-0.9c-0.9,0-1.5,0.6-1.5,1.2c0,0.7,0.7,1,1.9,1.2
			c1.3,0.3,2.2,0.8,2.2,2c0,1.1-0.8,2-2.4,2C434.1,175.7,433.2,175.3,432.5,174.6L432.5,174.6z M442.9,174.4l0.5,0.5
			c-0.5,0.5-1.4,0.8-2.1,0.8c-1.4,0-2.6-1.1-2.6-2.7c0-1.5,1.2-2.7,2.5-2.7c1.6,0,2.5,1.2,2.5,3h-4.2c0.1,1,0.8,1.8,1.8,1.8
			C441.9,175,442.6,174.7,442.9,174.4L442.9,174.4z M439.5,172.6h3.5c-0.1-0.9-0.6-1.6-1.7-1.6C440.3,170.9,439.6,171.6,439.5,172.6
			L439.5,172.6z M449.1,172.4v3.1h-0.8v-0.8c-0.4,0.6-1.1,0.9-1.8,0.9c-1.1,0-1.9-0.6-1.9-1.6c0-1,0.9-1.7,2-1.7
			c0.6,0,1.1,0.1,1.7,0.3v-0.2c0-0.7-0.3-1.5-1.4-1.5c-0.5,0-1,0.2-1.5,0.5l-0.3-0.6c0.7-0.4,1.4-0.5,1.9-0.5
			C448.4,170.3,449.1,171.2,449.1,172.4L449.1,172.4z M448.4,173.9v-0.8c-0.5-0.1-1-0.2-1.6-0.2c-0.8,0-1.4,0.4-1.4,1.1
			c0,0.6,0.6,1,1.3,1C447.3,175,448.2,174.7,448.4,173.9z M453.5,170.3v0.7c-1.2,0-2,0.7-2,1.7v2.9h-0.8v-5.2h0.8v1
			C451.8,170.7,452.5,170.3,453.5,170.3L453.5,170.3z M454.2,173c0-1.5,1.2-2.7,2.7-2.7c0.7,0,1.4,0.3,1.8,0.8l-0.5,0.5
			c-0.3-0.4-0.8-0.6-1.3-0.6c-1,0-1.9,0.9-1.9,2c0,1.1,0.9,2,1.9,2c0.5,0,1-0.2,1.4-0.6l0.5,0.5c-0.5,0.5-1.1,0.8-1.9,0.8
			C455.4,175.7,454.2,174.4,454.2,173L454.2,173z M464.3,172.3v3.3h-0.8v-3.2c0-0.8-0.5-1.4-1.3-1.4c-0.9,0-1.6,0.6-1.6,1.3v3.3
			h-0.8v-7h0.8v2.6c0.3-0.6,1-0.9,1.7-0.9C463.5,170.3,464.3,171.1,464.3,172.3L464.3,172.3z M465.8,171c0-0.3,0.2-0.5,0.5-0.5
			c0.3,0,0.5,0.2,0.5,0.5c0,0.3-0.2,0.6-0.5,0.6C466,171.5,465.8,171.3,465.8,171z M465.8,175.1c0-0.3,0.2-0.5,0.5-0.5
			c0.3,0,0.5,0.2,0.5,0.5c0,0.3-0.2,0.6-0.5,0.6C466,175.7,465.8,175.4,465.8,175.1z"/>
	</g>
	<path d="M230.8,235H205c-3,0-5.4-2.4-5.4-5.4s2.4-5.4,5.4-5.4h25.8c3,0,5.4,2.4,5.4,5.4C236.2,232.6,233.8,235,230.8,235z"/>
	<path class="st2" d="M232.9,257h-30.1c-1.9,0-3.5-1.6-3.5-3.5c0-1.9,1.6-3.5,3.5-3.5h30.1c1.9,0,3.5,1.6,3.5,3.5
		S234.9,257,232.9,257z"/>
	<path d="M288.9,235h-25.8c-3,0-5.4-2.4-5.4-5.4s2.4-5.4,5.4-5.4h25.8c3,0,5.4,2.4,5.4,5.4C294.3,232.6,291.9,235,288.9,235z"/>
	<path class="st2" d="M291,257h-30.1c-1.9,0-3.5-1.6-3.5-3.5c0-1.9,1.6-3.5,3.5-3.5H291c1.9,0,3.5,1.6,3.5,3.5S292.9,257,291,257z"
		/>
	<path d="M347,235h-25.8c-3,0-5.4-2.4-5.4-5.4s2.4-5.4,5.4-5.4H347c3,0,5.4,2.4,5.4,5.4C352.4,232.6,349.9,235,347,235z"/>
	<path class="st2" d="M349.1,257H319c-1.9,0-3.5-1.6-3.5-3.5c0-1.9,1.6-3.5,3.5-3.5h30.1c1.9,0,3.5,1.6,3.5,3.5S351,257,349.1,257z"
		/>
	<path d="M405,235h-25.8c-3,0-5.4-2.4-5.4-5.4s2.4-5.4,5.4-5.4H405c3,0,5.4,2.4,5.4,5.4C410.4,232.6,408,235,405,235z"/>
	<path class="st2" d="M407.1,257h-30.1c-1.9,0-3.5-1.6-3.5-3.5c0-1.9,1.6-3.5,3.5-3.5h30.1c1.9,0,3.5,1.6,3.5,3.5
		S409.1,257,407.1,257z"/>
	<path d="M463.1,235h-25.8c-3,0-5.4-2.4-5.4-5.4s2.4-5.4,5.4-5.4h25.8c3,0,5.4,2.4,5.4,5.4C468.5,232.6,466.1,235,463.1,235z"/>
	<path class="st2" d="M465.2,257h-30.1c-1.9,0-3.5-1.6-3.5-3.5c0-1.9,1.6-3.5,3.5-3.5h30.1c1.9,0,3.5,1.6,3.5,3.5
		S467.1,257,465.2,257z"/>
	<path d="M521.2,235h-25.8c-3,0-5.4-2.4-5.4-5.4s2.4-5.4,5.4-5.4h25.8c3,0,5.4,2.4,5.4,5.4C526.6,232.6,524.1,235,521.2,235z"/>
	<path class="st2" d="M523.3,257h-30.1c-1.9,0-3.5-1.6-3.5-3.5c0-1.9,1.6-3.5,3.5-3.5h30.1c1.9,0,3.5,1.6,3.5,3.5
		S525.2,257,523.3,257z"/>
	<path d="M579.2,235h-25.8c-3,0-5.4-2.4-5.4-5.4s2.4-5.4,5.4-5.4h25.8c3,0,5.4,2.4,5.4,5.4C584.6,232.6,582.2,235,579.2,235z"/>
	<path class="st2" d="M581.4,257h-30.1c-1.9,0-3.5-1.6-3.5-3.5c0-1.9,1.6-3.5,3.5-3.5h30.1c1.9,0,3.5,1.6,3.5,3.5
		S583.3,257,581.4,257z M232.9,282.9h-30.1c-1.9,0-3.5-1.6-3.5-3.5c0-1.9,1.6-3.5,3.5-3.5h30.1c1.9,0,3.5,1.6,3.5,3.5
		S234.9,282.9,232.9,282.9z M291,282.9h-30.1c-1.9,0-3.5-1.6-3.5-3.5c0-1.9,1.6-3.5,3.5-3.5H291c1.9,0,3.5,1.6,3.5,3.5
		S292.9,282.9,291,282.9z M349.1,282.9H319c-1.9,0-3.5-1.6-3.5-3.5c0-1.9,1.6-3.5,3.5-3.5h30.1c1.9,0,3.5,1.6,3.5,3.5
		S351,282.9,349.1,282.9z M407.1,282.9h-30.1c-1.9,0-3.5-1.6-3.5-3.5c0-1.9,1.6-3.5,3.5-3.5h30.1c1.9,0,3.5,1.6,3.5,3.5
		S409.1,282.9,407.1,282.9z M465.2,282.9h-30.1c-1.9,0-3.5-1.6-3.5-3.5c0-1.9,1.6-3.5,3.5-3.5h30.1c1.9,0,3.5,1.6,3.5,3.5
		S467.1,282.9,465.2,282.9z M523.3,282.9h-30.1c-1.9,0-3.5-1.6-3.5-3.5c0-1.9,1.6-3.5,3.5-3.5h30.1c1.9,0,3.5,1.6,3.5,3.5
		S525.2,282.9,523.3,282.9z M581.4,282.9h-30.1c-1.9,0-3.5-1.6-3.5-3.5c0-1.9,1.6-3.5,3.5-3.5h30.1c1.9,0,3.5,1.6,3.5,3.5
		S583.3,282.9,581.4,282.9z M232.9,308.7h-30.1c-1.9,0-3.5-1.6-3.5-3.5c0-1.9,1.6-3.5,3.5-3.5h30.1c1.9,0,3.5,1.6,3.5,3.5
		C236.4,307.1,234.9,308.7,232.9,308.7z M291,308.7h-30.1c-1.9,0-3.5-1.6-3.5-3.5c0-1.9,1.6-3.5,3.5-3.5H291c1.9,0,3.5,1.6,3.5,3.5
		C294.5,307.1,292.9,308.7,291,308.7z M349.1,308.7H319c-1.9,0-3.5-1.6-3.5-3.5c0-1.9,1.6-3.5,3.5-3.5h30.1c1.9,0,3.5,1.6,3.5,3.5
		C352.6,307.1,351,308.7,349.1,308.7z M407.1,308.7h-30.1c-1.9,0-3.5-1.6-3.5-3.5c0-1.9,1.6-3.5,3.5-3.5h30.1c1.9,0,3.5,1.6,3.5,3.5
		C410.6,307.1,409.1,308.7,407.1,308.7z M465.2,308.7h-30.1c-1.9,0-3.5-1.6-3.5-3.5c0-1.9,1.6-3.5,3.5-3.5h30.1
		c1.9,0,3.5,1.6,3.5,3.5C468.7,307.1,467.1,308.7,465.2,308.7z M523.3,308.7h-30.1c-1.9,0-3.5-1.6-3.5-3.5c0-1.9,1.6-3.5,3.5-3.5
		h30.1c1.9,0,3.5,1.6,3.5,3.5C526.8,307.1,525.2,308.7,523.3,308.7z M581.4,308.7h-30.1c-1.9,0-3.5-1.6-3.5-3.5
		c0-1.9,1.6-3.5,3.5-3.5h30.1c1.9,0,3.5,1.6,3.5,3.5C584.9,307.1,583.3,308.7,581.4,308.7z M232.9,334.6h-30.1
		c-1.9,0-3.5-1.6-3.5-3.5c0-1.9,1.6-3.5,3.5-3.5h30.1c1.9,0,3.5,1.6,3.5,3.5S234.9,334.6,232.9,334.6z M291,334.6h-30.1
		c-1.9,0-3.5-1.6-3.5-3.5c0-1.9,1.6-3.5,3.5-3.5H291c1.9,0,3.5,1.6,3.5,3.5S292.9,334.6,291,334.6z M349.1,334.6H319
		c-1.9,0-3.5-1.6-3.5-3.5c0-1.9,1.6-3.5,3.5-3.5h30.1c1.9,0,3.5,1.6,3.5,3.5S351,334.6,349.1,334.6z M407.1,334.6h-30.1
		c-1.9,0-3.5-1.6-3.5-3.5c0-1.9,1.6-3.5,3.5-3.5h30.1c1.9,0,3.5,1.6,3.5,3.5S409.1,334.6,407.1,334.6z M465.2,334.6h-30.1
		c-1.9,0-3.5-1.6-3.5-3.5c0-1.9,1.6-3.5,3.5-3.5h30.1c1.9,0,3.5,1.6,3.5,3.5S467.1,334.6,465.2,334.6z M523.3,334.6h-30.1
		c-1.9,0-3.5-1.6-3.5-3.5c0-1.9,1.6-3.5,3.5-3.5h30.1c1.9,0,3.5,1.6,3.5,3.5S525.2,334.6,523.3,334.6z M581.4,334.6h-30.1
		c-1.9,0-3.5-1.6-3.5-3.5c0-1.9,1.6-3.5,3.5-3.5h30.1c1.9,0,3.5,1.6,3.5,3.5S583.3,334.6,581.4,334.6z M232.9,360.5h-30.1
		c-1.9,0-3.5-1.6-3.5-3.5c0-1.9,1.6-3.5,3.5-3.5h30.1c1.9,0,3.5,1.6,3.5,3.5C236.4,358.9,234.9,360.5,232.9,360.5z M291,360.5h-30.1
		c-1.9,0-3.5-1.6-3.5-3.5c0-1.9,1.6-3.5,3.5-3.5H291c1.9,0,3.5,1.6,3.5,3.5C294.5,358.9,292.9,360.5,291,360.5z M349.1,360.5H319
		c-1.9,0-3.5-1.6-3.5-3.5c0-1.9,1.6-3.5,3.5-3.5h30.1c1.9,0,3.5,1.6,3.5,3.5C352.6,358.9,351,360.5,349.1,360.5z M407.1,360.5h-30.1
		c-1.9,0-3.5-1.6-3.5-3.5c0-1.9,1.6-3.5,3.5-3.5h30.1c1.9,0,3.5,1.6,3.5,3.5C410.6,358.9,409.1,360.5,407.1,360.5z M465.2,360.5
		h-30.1c-1.9,0-3.5-1.6-3.5-3.5c0-1.9,1.6-3.5,3.5-3.5h30.1c1.9,0,3.5,1.6,3.5,3.5C468.7,358.9,467.1,360.5,465.2,360.5z
		 M523.3,360.5h-30.1c-1.9,0-3.5-1.6-3.5-3.5c0-1.9,1.6-3.5,3.5-3.5h30.1c1.9,0,3.5,1.6,3.5,3.5
		C526.8,358.9,525.2,360.5,523.3,360.5z M581.4,360.5h-30.1c-1.9,0-3.5-1.6-3.5-3.5c0-1.9,1.6-3.5,3.5-3.5h30.1
		c1.9,0,3.5,1.6,3.5,3.5C584.9,358.9,583.3,360.5,581.4,360.5z"/>
</g>
</svg>
