<?xml version="1.0" encoding="utf-8"?>
<!-- Generator: Adobe Illustrator 23.0.6, SVG Export Plug-In . SVG Version: 6.00 Build 0)  -->
<svg version="1.1" id="Capa_1" xmlns="http://www.w3.org/2000/svg" xmlns:xlink="http://www.w3.org/1999/xlink" x="0px" y="0px"
	 viewBox="0 0 661 496" style="enable-background:new 0 0 661 496;" xml:space="preserve">
<style type="text/css">
	.st0{fill:#FFFFFF;}
	.st1{fill:#5A84C6;}
	.st2{fill:#F2F3F4;}
</style>
<g>
	<path class="st0" d="M653,496H8c-4.4,0-8-3.6-8-8V8c0-4.4,3.6-8,8-8h645c4.4,0,8,3.6,8,8v480C661,492.4,657.4,496,653,496z"/>
	<path d="M18.3,31h0.8l3.2,4.3V31h0.8v5.6h-0.8l-3.2-4.3v4.3h-0.8V31z M28,34v2.6h-0.8V36c-0.3,0.4-0.9,0.7-1.4,0.7
		c-0.9,0-1.6-0.5-1.6-1.3c0-0.8,0.8-1.4,1.7-1.4c0.4,0,0.9,0.1,1.3,0.2V34c0-0.5-0.2-1.1-1.1-1.1c-0.4,0-0.8,0.2-1.2,0.3l-0.3-0.6
		c0.6-0.3,1.1-0.4,1.6-0.4C27.4,32.3,28,33,28,34z M27.2,35.3v-0.6c-0.3-0.1-0.7-0.2-1.2-0.2c-0.6,0-1,0.3-1,0.8s0.4,0.7,0.9,0.7
		C26.5,36.1,27.1,35.8,27.2,35.3z M35.5,33.9v2.7h-0.8V34c0-0.6-0.4-1.1-0.9-1.1c-0.6,0-1,0.4-1,1v2.7h-0.8V34
		c0-0.6-0.4-1.1-0.9-1.1c-0.6,0-1,0.4-1,1v2.7h-0.8v-4.2H30V33c0.2-0.4,0.7-0.7,1.2-0.7c0.6,0,1.1,0.3,1.4,0.8
		c0.2-0.5,0.7-0.8,1.4-0.8C34.8,32.3,35.5,33,35.5,33.9z M39.8,35.5l0.5,0.5c-0.4,0.4-1.1,0.7-1.7,0.7c-1.2,0-2.2-0.9-2.2-2.2
		c0-1.3,0.9-2.2,2.1-2.2c1.3,0,2,1,2,2.5h-3.3c0.1,0.7,0.6,1.2,1.3,1.2C39,36,39.5,35.8,39.8,35.5z M37.2,34.1h2.5
		c-0.1-0.7-0.5-1.1-1.2-1.1C37.9,33,37.3,33.4,37.2,34.1z M62.5,31h1.9c1.8,0,3.1,1.2,3.1,2.8s-1.3,2.8-3.1,2.8h-1.9V31z M64.5,35.8
		c1.3,0,2.2-0.8,2.2-2.1s-0.9-2.1-2.2-2.1h-1.2v4.1H64.5z M72.3,32.4v4.2h-0.8V36c-0.2,0.4-0.8,0.7-1.3,0.7c-0.9,0-1.6-0.7-1.6-1.6
		v-2.7h0.8v2.6c0,0.6,0.4,1.1,1,1.1c0.6,0,1.1-0.4,1.2-0.9v-2.8H72.3L72.3,32.4z M76.7,35.5l0.5,0.5c-0.4,0.4-1.1,0.7-1.7,0.7
		c-1.2,0-2.2-0.9-2.2-2.2c0-1.3,0.9-2.2,2.1-2.2c1.3,0,2,1,2,2.5h-3.3c0.1,0.7,0.6,1.2,1.3,1.2C75.9,36,76.4,35.8,76.7,35.5z
		 M74.1,34.1h2.5c-0.1-0.7-0.5-1.1-1.2-1.1C74.8,33,74.3,33.4,74.1,34.1z M80.9,31h1.9c1.8,0,3.1,1.2,3.1,2.8s-1.3,2.8-3.1,2.8h-1.9
		V31z M82.8,35.8c1.3,0,2.2-0.8,2.2-2.1s-0.9-2.1-2.2-2.1h-1.2v4.1H82.8z M90.5,34v2.6h-0.8V36c-0.3,0.4-0.9,0.7-1.4,0.7
		c-0.9,0-1.6-0.5-1.6-1.3c0-0.8,0.8-1.4,1.7-1.4c0.4,0,0.9,0.1,1.3,0.2V34c0-0.5-0.2-1.1-1.1-1.1c-0.4,0-0.8,0.2-1.2,0.3l-0.3-0.6
		c0.6-0.3,1.1-0.4,1.6-0.4C89.9,32.3,90.5,33,90.5,34z M89.7,35.3v-0.6c-0.3-0.1-0.7-0.2-1.2-0.2c-0.6,0-1,0.3-1,0.8
		s0.4,0.7,0.9,0.7C89,36.1,89.6,35.8,89.7,35.3z M94,36.4c-0.2,0.2-0.5,0.3-0.8,0.3c-0.7,0-1.1-0.5-1.1-1.2V33h-0.6v-0.7H92v-1.2
		h0.8v1.2h1V33h-1v2.4c0,0.3,0.2,0.5,0.4,0.5c0.2,0,0.3-0.1,0.4-0.2C93.7,35.8,94,36.4,94,36.4z M98,35.5l0.5,0.5
		c-0.4,0.4-1.1,0.7-1.7,0.7c-1.2,0-2.2-0.9-2.2-2.2c0-1.3,0.9-2.2,2.1-2.2c1.3,0,2,1,2,2.5h-3.3c0.1,0.7,0.6,1.2,1.3,1.2
		C97.2,36,97.7,35.8,98,35.5z M95.4,34.1h2.5c-0.1-0.7-0.5-1.1-1.2-1.1C96.1,33,95.5,33.4,95.4,34.1z M120.9,35.8l0.5-0.6
		c0.5,0.5,1.1,0.8,1.8,0.8c0.8,0,1.2-0.4,1.2-0.9c0-0.5-0.5-0.7-1.4-1c-1.2-0.3-1.9-0.6-1.9-1.6c0-0.9,0.8-1.6,1.9-1.6
		c0.9,0,1.5,0.3,2.1,0.8l-0.5,0.6c-0.5-0.4-1-0.7-1.6-0.7c-0.6,0-1.1,0.4-1.1,0.9c0,0.5,0.5,0.7,1.4,0.9c1.1,0.3,1.9,0.6,1.9,1.7
		c0,1-0.7,1.7-2.1,1.7C122.3,36.7,121.5,36.4,120.9,35.8L120.9,35.8z M128.6,36.4c-0.2,0.2-0.5,0.3-0.8,0.3c-0.7,0-1.1-0.5-1.1-1.2
		V33H126v-0.7h0.6v-1.2h0.8v1.2h1V33h-1v2.4c0,0.3,0.2,0.5,0.4,0.5c0.2,0,0.3-0.1,0.4-0.2L128.6,36.4L128.6,36.4z M132.9,34v2.6
		h-0.8V36c-0.3,0.4-0.9,0.7-1.4,0.7c-0.9,0-1.6-0.5-1.6-1.3c0-0.8,0.8-1.4,1.7-1.4c0.4,0,0.9,0.1,1.3,0.2V34c0-0.5-0.2-1.1-1.1-1.1
		c-0.4,0-0.8,0.2-1.2,0.3l-0.3-0.6c0.6-0.3,1.1-0.4,1.6-0.4C132.3,32.3,132.9,33,132.9,34L132.9,34z M132.1,35.3v-0.6
		c-0.3-0.1-0.7-0.2-1.2-0.2c-0.6,0-1,0.3-1,0.8s0.4,0.7,0.9,0.7C131.4,36.1,132,35.8,132.1,35.3z M136.4,36.4
		c-0.2,0.2-0.5,0.3-0.8,0.3c-0.7,0-1.1-0.5-1.1-1.2V33h-0.6v-0.7h0.6v-1.2h0.8v1.2h1V33h-1v2.4c0,0.3,0.2,0.5,0.4,0.5
		c0.2,0,0.3-0.1,0.4-0.2L136.4,36.4L136.4,36.4z M140.9,32.4v4.2h-0.8V36c-0.2,0.4-0.8,0.7-1.3,0.7c-0.9,0-1.6-0.7-1.6-1.6v-2.7h0.8
		v2.6c0,0.6,0.4,1.1,1,1.1c0.6,0,1.1-0.4,1.2-0.9v-2.8H140.9z M141.8,36.1l0.4-0.6c0.4,0.3,0.9,0.5,1.4,0.5c0.5,0,0.8-0.2,0.8-0.5
		c0-0.4-0.4-0.5-1-0.7c-1-0.3-1.5-0.5-1.5-1.2c0-0.8,0.6-1.3,1.5-1.3c0.6,0,1.1,0.2,1.6,0.5l-0.4,0.6c-0.4-0.2-0.8-0.4-1.2-0.4
		c-0.4,0-0.8,0.2-0.8,0.5c0,0.3,0.3,0.4,1,0.7c0.7,0.2,1.4,0.4,1.4,1.3c0,0.8-0.7,1.3-1.6,1.3C143,36.7,142.3,36.5,141.8,36.1
		L141.8,36.1z M168.8,31.7v1.6h3v0.8h-3v1.7h3.3v0.8H168V31h4.1v0.8C172.1,31.7,168.8,31.7,168.8,31.7z M177.2,30.9v5.7h-0.8v-0.7
		c-0.3,0.5-0.9,0.8-1.5,0.8c-1.1,0-1.9-0.9-1.9-2.2c0-1.3,0.8-2.2,1.9-2.2c0.7,0,1.2,0.3,1.5,0.8v-2.2L177.2,30.9L177.2,30.9z
		 M176.4,34.5c0-0.9-0.6-1.5-1.3-1.5c-0.8,0-1.3,0.6-1.3,1.5s0.6,1.5,1.3,1.5C175.8,36,176.4,35.4,176.4,34.5z M178.3,31.2
		c0-0.2,0.2-0.5,0.5-0.5c0.3,0,0.5,0.2,0.5,0.5c0,0.3-0.2,0.5-0.5,0.5C178.5,31.7,178.3,31.4,178.3,31.2
		C178.3,31.2,178.3,31.2,178.3,31.2z M178.4,32.4h0.8v4.2h-0.8C178.4,36.6,178.4,32.4,178.4,32.4z M182.6,36.4
		c-0.2,0.2-0.5,0.3-0.8,0.3c-0.7,0-1.1-0.5-1.1-1.2V33h-0.6v-0.7h0.6v-1.2h0.8v1.2h1V33h-1v2.4c0,0.3,0.2,0.5,0.4,0.5
		c0.2,0,0.3-0.1,0.4-0.2L182.6,36.4L182.6,36.4z"/>
	<path class="st1" d="M177.5,58.5l-3.8,3.8l-1.6,0.2c-0.2,0-0.4-0.2-0.4-0.4l0.2-1.6l3.8-3.8C175.7,56.7,177.5,58.5,177.5,58.5z
		 M178.6,57.4l-0.8,0.8l-1.8-1.8l0.8-0.8c0.3-0.3,0.7-0.3,0.9,0l0.8,0.8C178.8,56.7,178.8,57.1,178.6,57.4z M177.5,75l-3.8,3.8
		l-1.6,0.2c-0.2,0-0.4-0.2-0.4-0.4l0.2-1.6l3.8-3.8L177.5,75z M178.6,73.9l-0.8,0.8l-1.8-1.8l0.8-0.8c0.3-0.3,0.7-0.3,0.9,0l0.8,0.8
		C178.8,73.2,178.8,73.6,178.6,73.9z M177.5,91.5l-3.8,3.8l-1.6,0.2c-0.2,0-0.4-0.2-0.4-0.4l0.2-1.6l3.8-3.8L177.5,91.5z
		 M178.6,90.4l-0.8,0.8l-1.8-1.8l0.8-0.8c0.3-0.3,0.7-0.3,0.9,0l0.8,0.8C178.8,89.7,178.8,90.1,178.6,90.4z M177.5,108l-3.8,3.8
		l-1.6,0.2c-0.2,0-0.4-0.2-0.4-0.4l0.2-1.6l3.8-3.8L177.5,108z M178.6,106.9l-0.8,0.8l-1.8-1.8l0.8-0.8c0.3-0.3,0.7-0.3,0.9,0
		l0.8,0.8C178.8,106.2,178.8,106.6,178.6,106.9z M177.5,124.5l-3.8,3.8l-1.6,0.2c-0.2,0-0.4-0.1-0.4-0.4l0.2-1.6l3.8-3.8
		C175.7,122.7,177.5,124.5,177.5,124.5z M178.6,123.4l-0.8,0.8l-1.8-1.8l0.8-0.8c0.3-0.3,0.7-0.3,0.9,0l0.8,0.8
		C178.8,122.7,178.8,123.1,178.6,123.4z M177.5,141l-3.8,3.8l-1.6,0.2c-0.2,0-0.4-0.1-0.4-0.4l0.2-1.6l3.8-3.8L177.5,141z
		 M178.6,139.9l-0.8,0.8l-1.8-1.8l0.8-0.8c0.3-0.3,0.7-0.3,0.9,0l0.8,0.8C178.8,139.2,178.8,139.6,178.6,139.9z M229.2,58.2
		l-3.8,1.2c-0.3,0.1-0.5,0-0.6,0l-2.7-0.8c-0.2,0.1-0.3,0.3-0.3,0.5c0.2,0.1,0.3,0.4,0.2,0.6c0,0.1-0.1,0.1-0.1,0.1l0.4,1.6
		c0,0.1-0.1,0.3-0.2,0.3h-0.8c-0.1,0-0.2-0.1-0.2-0.3l0.4-1.6c-0.1-0.1-0.2-0.2-0.2-0.3c0-0.2,0.1-0.3,0.2-0.4
		c0-0.2,0.1-0.5,0.2-0.6l-0.7-0.2c-0.2,0-0.3-0.2-0.2-0.4c0-0.1,0.1-0.2,0.2-0.2l3.8-1.2c0.2-0.1,0.4-0.1,0.6,0l3.8,1.2
		C229.5,57.7,229.5,58.1,229.2,58.2z M227.5,59.1l0.2,1.5c0,0.5-1.2,0.9-2.6,0.9s-2.6-0.4-2.6-0.9l0.2-1.5l2,0.6
		c0.2,0,0.5,0.1,0.9,0L227.5,59.1z M229.2,74.7l-3.8,1.2c-0.3,0.1-0.5,0-0.6,0l-2.7-0.8c-0.2,0.1-0.3,0.3-0.3,0.5
		c0.2,0.1,0.3,0.4,0.2,0.6c0,0.1-0.1,0.1-0.1,0.1l0.4,1.6c0,0.1-0.1,0.3-0.2,0.3h-0.8c-0.1,0-0.2-0.1-0.2-0.3l0.4-1.6
		c-0.1-0.1-0.2-0.2-0.2-0.3c0-0.2,0.1-0.3,0.2-0.4c0-0.2,0.1-0.5,0.2-0.6l-0.7-0.2c-0.2,0-0.3-0.2-0.2-0.4c0-0.1,0.1-0.2,0.2-0.2
		l3.8-1.2c0.2-0.1,0.4-0.1,0.6,0l3.8,1.2C229.5,74.1,229.5,74.6,229.2,74.7z M227.5,75.7l0.2,1.6c0,0.5-1.2,0.9-2.6,0.9
		s-2.6-0.4-2.6-0.9l0.2-1.6l2,0.6c0.2,0.1,0.5,0.1,0.9,0L227.5,75.7z M229.2,91.2l-3.8,1.2c-0.3,0.1-0.5,0-0.6,0l-2.7-0.8
		c-0.2,0.1-0.3,0.3-0.3,0.5c0.2,0.1,0.3,0.4,0.2,0.6c0,0.1-0.1,0.1-0.1,0.1l0.4,1.6c0,0.1-0.1,0.3-0.2,0.3h-0.8
		c-0.1,0-0.2-0.1-0.2-0.3l0.4-1.6c-0.1-0.1-0.2-0.2-0.2-0.3c0-0.2,0.1-0.3,0.2-0.4c0-0.2,0.1-0.5,0.2-0.6l-0.7-0.2
		c-0.2,0-0.3-0.2-0.2-0.4c0-0.1,0.1-0.2,0.2-0.2l3.8-1.2c0.2-0.1,0.4-0.1,0.6,0l3.8,1.2C229.5,90.6,229.5,91.1,229.2,91.2z
		 M227.5,92.2l0.2,1.6c0,0.5-1.2,0.9-2.6,0.9s-2.6-0.4-2.6-0.9l0.2-1.6l2,0.6c0.2,0.1,0.5,0.1,0.9,0L227.5,92.2z M229.2,107.7
		l-3.8,1.2c-0.3,0.1-0.5,0-0.6,0l-2.7-0.8c-0.2,0.1-0.3,0.3-0.3,0.5c0.2,0.1,0.3,0.4,0.2,0.6c0,0.1-0.1,0.1-0.1,0.1l0.4,1.6
		c0,0.1-0.1,0.3-0.2,0.3h-0.8c-0.1,0-0.2-0.1-0.2-0.3l0.4-1.6c-0.1-0.1-0.2-0.2-0.2-0.3c0-0.2,0.1-0.3,0.2-0.4
		c0-0.2,0.1-0.5,0.2-0.6l-0.7-0.2c-0.2,0-0.3-0.2-0.2-0.4c0-0.1,0.1-0.2,0.2-0.2l3.8-1.2c0.2-0.1,0.4-0.1,0.6,0l3.8,1.2
		C229.5,107.1,229.5,107.6,229.2,107.7z M227.5,108.7l0.2,1.6c0,0.5-1.2,0.9-2.6,0.9s-2.6-0.4-2.6-0.9l0.2-1.6l2,0.6
		c0.2,0.1,0.5,0.1,0.9,0L227.5,108.7z M229.2,124.2l-3.8,1.2c-0.3,0.1-0.5,0-0.6,0l-2.7-0.8c-0.2,0.1-0.3,0.3-0.3,0.5
		c0.2,0.1,0.3,0.4,0.2,0.6c0,0.1-0.1,0.1-0.1,0.1l0.4,1.6c0,0.1-0.1,0.3-0.2,0.3h-0.8c-0.1,0-0.2-0.1-0.2-0.3l0.4-1.6
		c-0.1-0.1-0.2-0.2-0.2-0.3c0-0.2,0.1-0.3,0.2-0.4c0-0.2,0.1-0.5,0.2-0.6l-0.7-0.2c-0.2,0-0.3-0.2-0.2-0.4c0-0.1,0.1-0.2,0.2-0.2
		l3.8-1.2c0.2-0.1,0.4-0.1,0.6,0l3.8,1.2C229.5,123.6,229.5,124.1,229.2,124.2z M227.5,125.2l0.2,1.6c0,0.5-1.2,0.9-2.6,0.9
		s-2.6-0.4-2.6-0.9l0.2-1.6l2,0.6c0.2,0.1,0.5,0.1,0.9,0L227.5,125.2z M229.2,140.7l-3.8,1.2c-0.3,0.1-0.5,0-0.6,0l-2.7-0.8
		c-0.2,0.1-0.3,0.3-0.3,0.5c0.2,0.1,0.3,0.4,0.2,0.6c0,0.1-0.1,0.1-0.1,0.1l0.4,1.6c0,0.1-0.1,0.3-0.2,0.3h-0.8
		c-0.1,0-0.2-0.1-0.2-0.3l0.4-1.6c-0.1-0.1-0.2-0.2-0.2-0.4c0-0.2,0.1-0.3,0.2-0.4c0-0.2,0.1-0.5,0.2-0.6l-0.7-0.2
		c-0.2,0-0.3-0.2-0.2-0.4c0-0.1,0.1-0.2,0.2-0.2l3.8-1.2c0.2-0.1,0.4-0.1,0.6,0l3.8,1.2C229.5,140.1,229.5,140.6,229.2,140.7z
		 M227.5,141.6l0.2,1.6c0,0.5-1.2,0.9-2.6,0.9s-2.6-0.4-2.6-0.9l0.2-1.6l2,0.6c0.2,0.1,0.5,0.1,0.9,0L227.5,141.6z M285.8,62
		l-0.4,0.4c-0.1,0.1-0.3,0.1-0.5,0c0,0,0,0,0,0l-1.4-1.4c-0.1-0.1-0.1-0.1-0.1-0.2v-0.2c-0.5,0.4-1.1,0.6-1.8,0.6
		c-1.6,0-2.8-1.3-2.8-2.8s1.3-2.8,2.8-2.8s2.8,1.3,2.8,2.8c0,0.7-0.2,1.3-0.6,1.8h0.2c0.1,0,0.2,0,0.2,0.1l1.4,1.4
		C285.9,61.6,285.9,61.8,285.8,62L285.8,62z M283.5,58.3c0-1-0.8-1.8-1.8-1.8s-1.8,0.8-1.8,1.8s0.8,1.8,1.8,1.8
		C282.7,60.1,283.5,59.3,283.5,58.3z M285.8,78.5l-0.4,0.4c-0.1,0.1-0.3,0.1-0.5,0c0,0,0,0,0,0l-1.4-1.4c-0.1-0.1-0.1-0.1-0.1-0.2
		V77c-0.5,0.4-1.1,0.6-1.8,0.6c-1.6,0-2.8-1.3-2.8-2.8s1.3-2.8,2.8-2.8s2.8,1.3,2.8,2.8c0,0.7-0.2,1.3-0.6,1.8h0.2
		c0.1,0,0.2,0,0.2,0.1l1.4,1.4C285.9,78.1,285.9,78.3,285.8,78.5z M283.5,74.8c0-1-0.8-1.8-1.8-1.8s-1.8,0.8-1.8,1.8
		s0.8,1.8,1.8,1.8C282.7,76.6,283.5,75.8,283.5,74.8z M285.8,95l-0.4,0.4c-0.1,0.1-0.3,0.1-0.5,0c0,0,0,0,0,0l-1.4-1.4
		c-0.1-0.1-0.1-0.1-0.1-0.2v-0.2c-0.5,0.4-1.1,0.6-1.8,0.6c-1.6,0-2.8-1.3-2.8-2.8s1.3-2.8,2.8-2.8s2.8,1.3,2.8,2.8
		c0,0.7-0.2,1.3-0.6,1.8h0.2c0.1,0,0.2,0,0.2,0.1l1.4,1.4C285.9,94.6,285.9,94.8,285.8,95L285.8,95z M283.5,91.3
		c0-1-0.8-1.8-1.8-1.8s-1.8,0.8-1.8,1.8s0.8,1.8,1.8,1.8C282.7,93.1,283.5,92.3,283.5,91.3z M285.8,111.5l-0.4,0.4
		c-0.1,0.1-0.3,0.1-0.5,0c0,0,0,0,0,0l-1.4-1.4c-0.1-0.1-0.1-0.1-0.1-0.2V110c-0.5,0.4-1.1,0.6-1.8,0.6c-1.6,0-2.8-1.3-2.8-2.8
		s1.3-2.8,2.8-2.8s2.8,1.3,2.8,2.8c0,0.7-0.2,1.3-0.6,1.8h0.2c0.1,0,0.2,0,0.2,0.1l1.4,1.4C285.9,111.1,285.9,111.3,285.8,111.5z
		 M283.5,107.8c0-1-0.8-1.8-1.8-1.8s-1.8,0.8-1.8,1.8s0.8,1.8,1.8,1.8C282.7,109.6,283.5,108.8,283.5,107.8z M285.8,128l-0.4,0.4
		c-0.1,0.1-0.3,0.1-0.5,0c0,0,0,0,0,0l-1.4-1.4c-0.1-0.1-0.1-0.1-0.1-0.2v-0.2c-0.5,0.4-1.1,0.6-1.8,0.6c-1.6,0-2.8-1.3-2.8-2.8
		s1.3-2.8,2.8-2.8s2.8,1.3,2.8,2.8c0,0.7-0.2,1.3-0.6,1.8h0.2c0.1,0,0.2,0,0.2,0.1l1.4,1.4C285.9,127.6,285.9,127.8,285.8,128z
		 M283.5,124.3c0-1-0.8-1.8-1.8-1.8s-1.8,0.8-1.8,1.8s0.8,1.8,1.8,1.8C282.7,126.1,283.5,125.3,283.5,124.3z M285.8,144.5l-0.4,0.4
		c-0.1,0.1-0.3,0.1-0.5,0c0,0,0,0,0,0l-1.4-1.4c-0.1-0.1-0.1-0.1-0.1-0.2v-0.2c-0.5,0.4-1.1,0.6-1.8,0.6c-1.6,0-2.8-1.3-2.8-2.8
		s1.3-2.8,2.8-2.8s2.8,1.3,2.8,2.8c0,0.7-0.2,1.3-0.6,1.8h0.2c0.1,0,0.2,0,0.2,0.1l1.4,1.4C285.9,144.1,285.9,144.3,285.8,144.5
		L285.8,144.5z M283.5,140.8c0-1-0.8-1.8-1.8-1.8s-1.8,0.8-1.8,1.8s0.8,1.8,1.8,1.8C282.7,142.6,283.5,141.8,283.5,140.8z
		 M340.8,60.3c0,1-0.8,1.8-1.8,1.8h-5c-1.1,0-2-0.9-2-2c0-0.8,0.5-1.6,1.3-1.9v-0.1c0-1.2,1-2.2,2.2-2.2c0.8,0,1.5,0.4,1.9,1.1
		c0.6-0.4,1.4-0.2,1.8,0.4c0.1,0.2,0.2,0.5,0.2,0.7c0,0.2,0,0.3-0.1,0.5C340.2,58.7,340.8,59.4,340.8,60.3L340.8,60.3z M337.6,59
		l-1.4-1.4c-0.1-0.1-0.2-0.1-0.3,0l-1.4,1.4c-0.1,0.1,0,0.4,0.1,0.4h0.9v1.5c0,0.1,0.1,0.2,0.2,0.2h0.7c0.1,0,0.2-0.1,0.2-0.2v-1.5
		h0.9C337.7,59.4,337.8,59.2,337.6,59L337.6,59z M340.8,76.8c0,1-0.8,1.8-1.8,1.8h-5c-1.1,0-2-0.9-2-2c0-0.8,0.5-1.6,1.3-1.9v-0.1
		c0-1.2,1-2.2,2.2-2.2c0.8,0,1.5,0.4,1.9,1.1c0.6-0.4,1.4-0.2,1.8,0.4c0.1,0.2,0.2,0.5,0.2,0.7c0,0.2,0,0.3-0.1,0.5
		C340.2,75.2,340.8,75.9,340.8,76.8L340.8,76.8z M337.6,75.5l-1.4-1.4c-0.1-0.1-0.2-0.1-0.3,0l-1.4,1.4c-0.1,0.1,0,0.4,0.1,0.4h0.9
		v1.5c0,0.1,0.1,0.2,0.2,0.2h0.7c0.1,0,0.2-0.1,0.2-0.2v-1.5h0.9C337.7,75.9,337.8,75.7,337.6,75.5L337.6,75.5z M340.8,93.3
		c0,1-0.8,1.8-1.8,1.8h-5c-1.1,0-2-0.9-2-2c0-0.8,0.5-1.6,1.3-1.9v-0.1c0-1.2,1-2.2,2.2-2.2c0.8,0,1.5,0.4,1.9,1.1
		c0.6-0.4,1.4-0.2,1.8,0.4c0.1,0.2,0.2,0.5,0.2,0.7c0,0.2,0,0.3-0.1,0.5C340.2,91.7,340.8,92.4,340.8,93.3L340.8,93.3z M337.6,92
		l-1.4-1.4c-0.1-0.1-0.2-0.1-0.3,0l-1.4,1.4c-0.1,0.1,0,0.4,0.1,0.4h0.9v1.5c0,0.1,0.1,0.2,0.2,0.2h0.7c0.1,0,0.2-0.1,0.2-0.2v-1.5
		h0.9C337.7,92.4,337.8,92.2,337.6,92L337.6,92z M340.8,109.8c0,1-0.8,1.8-1.8,1.8h-5c-1.1,0-2-0.9-2-2c0-0.8,0.5-1.6,1.3-1.9v-0.1
		c0-1.2,1-2.2,2.2-2.2c0.8,0,1.5,0.4,1.9,1.1c0.6-0.4,1.4-0.2,1.8,0.4c0.1,0.2,0.2,0.5,0.2,0.7c0,0.2,0,0.3-0.1,0.5
		C340.2,108.2,340.8,108.9,340.8,109.8L340.8,109.8z M337.6,108.5l-1.4-1.4c-0.1-0.1-0.2-0.1-0.3,0l-1.4,1.4c-0.1,0.1,0,0.4,0.1,0.4
		h0.9v1.5c0,0.1,0.1,0.2,0.2,0.2h0.7c0.1,0,0.2-0.1,0.2-0.2v-1.5h0.9C337.7,108.9,337.8,108.7,337.6,108.5L337.6,108.5z
		 M340.8,126.3c0,1-0.8,1.7-1.8,1.7h-5c-1.1,0-2-0.9-2-2c0-0.8,0.5-1.6,1.3-1.9v-0.1c0-1.2,1-2.2,2.2-2.2c0.8,0,1.5,0.4,1.9,1.1
		c0.6-0.4,1.4-0.2,1.8,0.4c0.1,0.2,0.2,0.5,0.2,0.7c0,0.2,0,0.3-0.1,0.5C340.2,124.7,340.8,125.4,340.8,126.3L340.8,126.3z
		 M337.6,125l-1.4-1.4c-0.1-0.1-0.2-0.1-0.3,0l-1.4,1.4c-0.1,0.1,0,0.4,0.1,0.4h0.9v1.5c0,0.1,0.1,0.2,0.2,0.2h0.7
		c0.1,0,0.2-0.1,0.2-0.2v-1.5h0.9C337.7,125.4,337.8,125.2,337.6,125L337.6,125z M340.8,142.8c0,1-0.8,1.8-1.8,1.8h-5
		c-1.1,0-2-0.9-2-2c0-0.8,0.5-1.6,1.3-1.9v-0.1c0-1.2,1-2.2,2.2-2.2c0.8,0,1.5,0.4,1.9,1.1c0.6-0.4,1.4-0.2,1.8,0.4
		c0.1,0.2,0.2,0.5,0.2,0.7c0,0.2,0,0.3-0.1,0.5C340.2,141.2,340.8,141.9,340.8,142.8L340.8,142.8z M337.6,141.5l-1.4-1.4
		c-0.1-0.1-0.2-0.1-0.3,0l-1.4,1.4c-0.1,0.1,0,0.4,0.1,0.4h0.9v1.5c0,0.1,0.1,0.2,0.2,0.2h0.7c0.1,0,0.2-0.1,0.2-0.2v-1.5h0.9
		C337.7,141.9,337.8,141.6,337.6,141.5L337.6,141.5z M521.2,58.7c0,1.6-1.6,2.8-3.5,2.8c-0.5,0-1-0.1-1.5-0.3
		c-0.3,0.3-1,0.7-1.9,0.7c0,0-0.1,0-0.1-0.1c0,0,0-0.1,0-0.1c0,0,0.6-0.6,0.8-1.3c-0.5-0.5-0.8-1.1-0.8-1.8c0-1.6,1.6-2.8,3.5-2.8
		S521.2,57.2,521.2,58.7L521.2,58.7z M521.2,75.2c0,1.6-1.6,2.8-3.5,2.8c-0.5,0-1-0.1-1.5-0.3c-0.3,0.3-1,0.7-1.9,0.7
		c0,0-0.1,0-0.1-0.1c0,0,0-0.1,0-0.1c0,0,0.6-0.6,0.8-1.3c-0.5-0.5-0.8-1.1-0.8-1.8c0-1.6,1.6-2.8,3.5-2.8S521.2,73.7,521.2,75.2
		L521.2,75.2z M521.2,91.7c0,1.6-1.6,2.8-3.5,2.8c-0.5,0-1-0.1-1.5-0.3c-0.3,0.3-1,0.7-1.9,0.7c0,0-0.1,0-0.1-0.1c0,0,0-0.1,0-0.1
		c0,0,0.6-0.6,0.8-1.3c-0.5-0.5-0.8-1.1-0.8-1.8c0-1.6,1.6-2.8,3.5-2.8S521.2,90.2,521.2,91.7L521.2,91.7z M521.2,108.2
		c0,1.6-1.6,2.8-3.5,2.8c-0.5,0-1-0.1-1.5-0.3c-0.3,0.3-1,0.7-1.9,0.7c0,0-0.1,0-0.1-0.1c0,0,0-0.1,0-0.1c0,0,0.6-0.6,0.8-1.3
		c-0.5-0.5-0.8-1.1-0.8-1.8c0-1.6,1.6-2.8,3.5-2.8S521.2,106.7,521.2,108.2L521.2,108.2z M521.2,124.7c0,1.6-1.6,2.8-3.5,2.8
		c-0.5,0-1-0.1-1.5-0.3c-0.3,0.3-1,0.7-1.9,0.7c0,0-0.1,0-0.1-0.1c0,0,0-0.1,0-0.1c0,0,0.6-0.6,0.8-1.3c-0.5-0.5-0.8-1.1-0.8-1.8
		c0-1.6,1.6-2.8,3.5-2.8S521.2,123.2,521.2,124.7L521.2,124.7z M521.2,141.2c0,1.6-1.6,2.8-3.5,2.8c-0.5,0-1-0.1-1.5-0.3
		c-0.3,0.3-1,0.7-1.9,0.7c0,0-0.1,0-0.1-0.1c0,0,0-0.1,0-0.1c0,0,0.6-0.6,0.8-1.3c-0.5-0.5-0.8-1.1-0.8-1.8c0-1.6,1.6-2.8,3.5-2.8
		S521.2,139.7,521.2,141.2L521.2,141.2z M579.7,59.3c-1.8-1.3-2-1.4-2.4-1.8c-0.1-0.1-0.1-0.2-0.1-0.3V57c0-0.4,0.3-0.7,0.7-0.7h5.7
		c0.4,0,0.7,0.3,0.7,0.7v0.3c0,0.1,0,0.2-0.1,0.3c-0.4,0.3-0.6,0.4-2.4,1.8c-0.2,0.2-0.7,0.6-1,0.6
		C580.4,59.8,579.9,59.4,579.7,59.3L579.7,59.3z M584.2,58.1v2.8c0,0.4-0.3,0.7-0.7,0.7h-5.7c-0.4,0-0.7-0.3-0.7-0.7v-2.8
		c0-0.1,0.1-0.1,0.1-0.1c0.3,0.2,0.7,0.5,2.1,1.5c0.3,0.2,0.8,0.7,1.3,0.7c0.5,0,1-0.5,1.3-0.7c1.4-1,1.8-1.3,2.1-1.5
		C584.1,58,584.2,58.1,584.2,58.1L584.2,58.1z M579.7,75.8c-1.8-1.3-2-1.4-2.4-1.8c-0.1-0.1-0.1-0.2-0.1-0.3v-0.3
		c0-0.4,0.3-0.7,0.7-0.7h5.7c0.4,0,0.7,0.3,0.7,0.7v0.3c0,0.1,0,0.2-0.1,0.3c-0.4,0.3-0.6,0.4-2.4,1.8c-0.2,0.2-0.7,0.6-1,0.6
		C580.4,76.3,579.9,75.9,579.7,75.8L579.7,75.8z M584.2,74.6v2.8c0,0.4-0.3,0.7-0.7,0.7h-5.7c-0.4,0-0.7-0.3-0.7-0.7v-2.8
		c0-0.1,0.1-0.1,0.1-0.1c0.3,0.2,0.7,0.5,2.1,1.6c0.3,0.2,0.8,0.7,1.3,0.7c0.5,0,1-0.4,1.3-0.7c1.4-1,1.8-1.3,2.1-1.6
		C584.1,74.5,584.2,74.6,584.2,74.6L584.2,74.6z M579.7,92.3c-1.8-1.3-2-1.4-2.4-1.8c-0.1-0.1-0.1-0.2-0.1-0.3V90
		c0-0.4,0.3-0.7,0.7-0.7h5.7c0.4,0,0.7,0.3,0.7,0.7v0.3c0,0.1,0,0.2-0.1,0.3c-0.4,0.3-0.6,0.4-2.4,1.8c-0.2,0.2-0.7,0.6-1,0.6
		C580.4,92.8,579.9,92.4,579.7,92.3L579.7,92.3z M584.2,91.1v2.8c0,0.4-0.3,0.7-0.7,0.7h-5.7c-0.4,0-0.7-0.3-0.7-0.7v-2.8
		c0-0.1,0.1-0.1,0.1-0.1c0.3,0.2,0.7,0.5,2.1,1.6c0.3,0.2,0.8,0.7,1.3,0.7c0.5,0,1-0.4,1.3-0.7c1.4-1,1.8-1.3,2.1-1.6
		C584.1,91,584.2,91.1,584.2,91.1L584.2,91.1z M579.7,108.8c-1.8-1.3-2-1.4-2.4-1.8c-0.1-0.1-0.1-0.2-0.1-0.3v-0.3
		c0-0.4,0.3-0.7,0.7-0.7h5.7c0.4,0,0.7,0.3,0.7,0.7v0.3c0,0.1,0,0.2-0.1,0.3c-0.4,0.3-0.6,0.4-2.4,1.8c-0.2,0.2-0.7,0.6-1,0.6
		C580.4,109.3,579.9,108.9,579.7,108.8L579.7,108.8z M584.2,107.6v2.8c0,0.4-0.3,0.7-0.7,0.7h-5.7c-0.4,0-0.7-0.3-0.7-0.7v-2.8
		c0-0.1,0.1-0.1,0.1-0.1c0.3,0.2,0.7,0.5,2.1,1.6c0.3,0.2,0.8,0.7,1.3,0.7c0.5,0,1-0.4,1.3-0.7c1.4-1,1.8-1.3,2.1-1.6
		C584.1,107.5,584.2,107.6,584.2,107.6L584.2,107.6z M579.7,125.3c-1.8-1.3-2-1.4-2.4-1.8c-0.1-0.1-0.1-0.2-0.1-0.3V123
		c0-0.4,0.3-0.7,0.7-0.7h5.7c0.4,0,0.7,0.3,0.7,0.7v0.3c0,0.1,0,0.2-0.1,0.3c-0.4,0.3-0.6,0.4-2.4,1.8c-0.2,0.2-0.7,0.6-1,0.6
		C580.4,125.8,579.9,125.4,579.7,125.3L579.7,125.3z M584.2,124.1v2.8c0,0.4-0.3,0.7-0.7,0.7h-5.7c-0.4,0-0.7-0.3-0.7-0.7v-2.8
		c0-0.1,0.1-0.1,0.1-0.1c0.3,0.2,0.7,0.5,2.1,1.6c0.3,0.2,0.8,0.7,1.3,0.7c0.5,0,1-0.4,1.3-0.7c1.4-1,1.8-1.3,2.1-1.6
		C584.1,124,584.2,124.1,584.2,124.1L584.2,124.1z M579.7,141.8c-1.8-1.3-2-1.4-2.4-1.8c-0.1-0.1-0.1-0.2-0.1-0.3v-0.3
		c0-0.4,0.3-0.7,0.7-0.7h5.7c0.4,0,0.7,0.3,0.7,0.7v0.3c0,0.1,0,0.2-0.1,0.3c-0.4,0.3-0.6,0.4-2.4,1.8c-0.2,0.2-0.7,0.6-1,0.6
		C580.4,142.3,579.9,141.9,579.7,141.8L579.7,141.8z M584.2,140.6v2.8c0,0.4-0.3,0.7-0.7,0.7h-5.7c-0.4,0-0.7-0.3-0.7-0.7v-2.8
		c0-0.1,0.1-0.1,0.1-0.1c0.3,0.2,0.7,0.5,2.1,1.6c0.3,0.2,0.8,0.6,1.3,0.6c0.5,0,1-0.4,1.3-0.6c1.4-1,1.8-1.3,2.1-1.6
		C584.1,140.5,584.2,140.6,584.2,140.6L584.2,140.6z M638.6,55.8l-1,5.9c0,0.2-0.3,0.3-0.5,0.2l-1.7-0.7l-0.9,1.1
		c-0.2,0.2-0.6,0.1-0.6-0.2V61l3.3-4c0.1-0.1,0-0.2-0.1-0.1l-3.9,3.5l-1.5-0.6c-0.2-0.1-0.2-0.3-0.2-0.4c0-0.1,0.1-0.1,0.1-0.2
		l6.3-3.7C638.3,55.4,638.6,55.6,638.6,55.8L638.6,55.8z M638.6,72.3l-1,5.9c0,0.2-0.3,0.3-0.5,0.2l-1.7-0.7l-0.9,1.1
		c-0.2,0.2-0.6,0.1-0.6-0.2v-1.1l3.3-4c0.1-0.1,0-0.2-0.1-0.1l-3.9,3.5l-1.5-0.6c-0.2-0.1-0.2-0.3-0.2-0.4c0-0.1,0.1-0.1,0.1-0.2
		l6.3-3.7C638.3,71.9,638.6,72.1,638.6,72.3L638.6,72.3z M638.6,88.8l-1,5.9c0,0.2-0.3,0.3-0.5,0.2l-1.7-0.7l-0.9,1.1
		c-0.2,0.2-0.6,0.1-0.6-0.2V94l3.3-4c0.1-0.1,0-0.2-0.1-0.1l-3.9,3.5l-1.5-0.6c-0.2-0.1-0.2-0.3-0.2-0.4c0-0.1,0.1-0.1,0.1-0.2
		l6.3-3.7C638.3,88.4,638.6,88.6,638.6,88.8L638.6,88.8z M638.6,105.3l-1,5.9c0,0.2-0.3,0.3-0.5,0.2l-1.7-0.7l-0.9,1.1
		c-0.2,0.2-0.6,0.1-0.6-0.2v-1.1l3.3-4c0.1-0.1,0-0.2-0.1-0.1l-3.9,3.5l-1.5-0.6c-0.2-0.1-0.2-0.3-0.2-0.4c0-0.1,0.1-0.1,0.1-0.2
		l6.3-3.7C638.3,104.9,638.6,105.1,638.6,105.3L638.6,105.3z M638.6,121.8l-1,5.9c0,0.2-0.3,0.3-0.5,0.2l-1.7-0.7l-0.9,1.1
		c-0.2,0.2-0.6,0.1-0.6-0.2V127l3.3-4c0.1-0.1,0-0.2-0.1-0.1l-3.9,3.5l-1.5-0.6c-0.2-0.1-0.2-0.3-0.2-0.4c0-0.1,0.1-0.1,0.1-0.2
		l6.3-3.7C638.3,121.4,638.6,121.6,638.6,121.8L638.6,121.8z M638.6,138.3l-1,5.9c0,0.2-0.3,0.3-0.5,0.2l-1.7-0.7l-0.9,1.1
		c-0.2,0.2-0.6,0.1-0.6-0.2v-1.1l3.3-4c0.1-0.1,0-0.2-0.1-0.1l-3.9,3.5l-1.5-0.6c-0.2-0.1-0.2-0.3-0.2-0.4c0-0.1,0.1-0.1,0.1-0.2
		l6.3-3.7C638.3,137.9,638.6,138.1,638.6,138.3L638.6,138.3z"/>
	<path d="M211.2,33.6h2.3v2.2c-0.5,0.5-1.4,0.9-2.2,0.9c-1.6,0-2.9-1.3-2.9-2.9c0-1.6,1.4-2.9,2.9-2.9c0.8,0,1.7,0.3,2.2,0.9
		l-0.6,0.6c-0.4-0.4-1.1-0.7-1.6-0.7c-1.1,0-2.1,1-2.1,2.2s0.9,2.2,2.1,2.2c0.5,0,1-0.2,1.4-0.5v-1.2h-1.5V33.6z M217.9,35.5
		l0.5,0.5c-0.4,0.4-1.1,0.7-1.7,0.7c-1.2,0-2.2-0.9-2.2-2.2c0-1.3,0.9-2.2,2.1-2.2c1.3,0,2,1,2,2.5h-3.3c0.1,0.7,0.6,1.2,1.4,1.2
		C217.1,36,217.6,35.8,217.9,35.5z M215.3,34.1h2.5c-0.1-0.7-0.5-1.1-1.2-1.1C215.9,33,215.4,33.4,215.3,34.1L215.3,34.1z
		 M223.3,33.9v2.7h-0.8V34c0-0.6-0.4-1.1-1-1.1c-0.6,0-1.1,0.4-1.2,0.9v2.8h-0.8v-4.2h0.8V33c0.2-0.4,0.8-0.7,1.3-0.7
		C222.7,32.3,223.3,33,223.3,33.9z M227.6,35.5l0.5,0.5c-0.4,0.4-1.1,0.7-1.7,0.7c-1.2,0-2.2-0.9-2.2-2.2c0-1.3,0.9-2.2,2.1-2.2
		c1.3,0,2,1,2,2.5h-3.3c0.1,0.7,0.6,1.2,1.4,1.2C226.8,36,227.4,35.8,227.6,35.5z M225.1,34.1h2.5c-0.1-0.7-0.5-1.1-1.2-1.1
		C225.7,33,225.2,33.4,225.1,34.1L225.1,34.1z M231.8,32.3V33c-0.9,0-1.5,0.5-1.6,1.2v2.4h-0.8v-4.2h0.8v0.8
		C230.5,32.6,231,32.3,231.8,32.3z M236.1,34v2.6h-0.8V36c-0.3,0.4-0.9,0.7-1.4,0.7c-0.9,0-1.6-0.5-1.6-1.3c0-0.8,0.8-1.4,1.7-1.4
		c0.4,0,0.9,0.1,1.3,0.2V34c0-0.5-0.2-1.1-1.1-1.1c-0.4,0-0.8,0.2-1.2,0.3l-0.3-0.6c0.6-0.3,1.1-0.4,1.6-0.4
		C235.5,32.3,236.1,33,236.1,34L236.1,34z M235.3,35.3v-0.6c-0.3-0.1-0.7-0.2-1.2-0.2c-0.6,0-1,0.3-1,0.8s0.4,0.7,0.9,0.7
		C234.6,36.1,235.2,35.8,235.3,35.3z M239.6,36.4c-0.2,0.2-0.5,0.3-0.8,0.3c-0.7,0-1.1-0.5-1.1-1.2V33H237v-0.7h0.6v-1.2h0.8v1.2h1
		V33h-1v2.4c0,0.3,0.2,0.5,0.4,0.5c0.2,0,0.3-0.1,0.4-0.2L239.6,36.4L239.6,36.4z M243.5,35.5L244,36c-0.4,0.4-1.1,0.7-1.7,0.7
		c-1.2,0-2.2-0.9-2.2-2.2c0-1.3,0.9-2.2,2.1-2.2c1.3,0,2,1,2,2.5H241c0.1,0.7,0.6,1.2,1.4,1.2C242.8,36,243.3,35.8,243.5,35.5z
		 M241,34.1h2.5c-0.1-0.7-0.5-1.1-1.2-1.1C241.6,33,241.1,33.4,241,34.1L241,34.1z M268.6,31h2.4c1.2,0,2.1,0.8,2.1,1.8
		c0,1.1-0.9,1.8-2.1,1.8h-1.5v2h-0.8V31z M270.9,33.9c0.8,0,1.4-0.4,1.4-1.1c0-0.7-0.5-1.1-1.4-1.1h-1.4v2.1L270.9,33.9L270.9,33.9z
		 M276.4,32.3V33c-0.9,0-1.5,0.5-1.6,1.2v2.4H274v-4.2h0.8v0.8C275,32.6,275.6,32.3,276.4,32.3z M280.3,35.5l0.5,0.5
		c-0.4,0.4-1.1,0.7-1.7,0.7c-1.2,0-2.2-0.9-2.2-2.2c0-1.3,0.9-2.2,2.1-2.2c1.3,0,2,1,2,2.5h-3.3c0.1,0.7,0.6,1.2,1.4,1.2
		C279.5,36,280.1,35.8,280.3,35.5L280.3,35.5z M277.7,34.1h2.5c-0.1-0.7-0.5-1.1-1.2-1.1C278.4,33,277.9,33.4,277.7,34.1z
		 M281.6,32.4h0.9l1.3,3.3l1.3-3.3h0.9l-1.8,4.2h-0.8C283.4,36.6,281.6,32.4,281.6,32.4z M286.6,31.2c0-0.2,0.2-0.5,0.5-0.5
		c0.3,0,0.5,0.2,0.5,0.5c0,0.3-0.2,0.5-0.5,0.5C286.9,31.7,286.6,31.4,286.6,31.2z M286.7,32.4h0.8v4.2h-0.8
		C286.7,36.6,286.7,32.4,286.7,32.4z M291.9,35.5l0.5,0.5c-0.4,0.4-1.1,0.7-1.7,0.7c-1.2,0-2.2-0.9-2.2-2.2c0-1.3,0.9-2.2,2.1-2.2
		c1.3,0,2,1,2,2.5h-3.3c0.1,0.7,0.6,1.2,1.4,1.2C291.1,36,291.6,35.8,291.9,35.5L291.9,35.5z M289.3,34.1h2.5
		c-0.1-0.7-0.5-1.1-1.2-1.1C290,33,289.5,33.4,289.3,34.1z M293,32.4h0.8l1,3.2l1-3.2h0.7l1,3.2l1-3.2h0.8l-1.4,4.2h-0.8l-1-3.2
		l-1,3.2h-0.8L293,32.4L293,32.4z"/>
	<g>
		<path d="M326.2,34.6l1.4,2h-1l-1.4-2H324v2h-0.8V31h2.4c1.2,0,2.1,0.8,2.1,1.8C327.6,33.7,327,34.3,326.2,34.6L326.2,34.6z
			 M324,33.9h1.4c0.8,0,1.4-0.4,1.4-1.1c0-0.7-0.5-1.1-1.4-1.1H324V33.9z M331.7,35.5l0.5,0.5c-0.4,0.4-1.1,0.7-1.7,0.7
			c-1.2,0-2.2-0.9-2.2-2.2c0-1.3,0.9-2.2,2.1-2.2c1.3,0,2,1,2,2.5h-3.3c0.1,0.7,0.6,1.2,1.4,1.2C330.9,36,331.4,35.8,331.7,35.5
			L331.7,35.5z M329.1,34.1h2.5c-0.1-0.7-0.5-1.1-1.2-1.1C329.8,33,329.3,33.4,329.1,34.1z M333.4,30.9h0.8v5.7h-0.8
			C333.4,36.6,333.4,30.9,333.4,30.9z M338.5,35.5l0.5,0.5c-0.4,0.4-1.1,0.7-1.7,0.7c-1.2,0-2.2-0.9-2.2-2.2c0-1.3,0.9-2.2,2.1-2.2
			c1.3,0,2,1,2,2.5H336c0.1,0.7,0.6,1.2,1.4,1.2C337.8,36,338.3,35.8,338.5,35.5L338.5,35.5z M336,34.1h2.5
			c-0.1-0.7-0.5-1.1-1.2-1.1C336.7,33,336.1,33.4,336,34.1z M343.8,34v2.6H343V36c-0.3,0.4-0.9,0.7-1.4,0.7c-0.9,0-1.6-0.5-1.6-1.3
			c0-0.8,0.8-1.4,1.7-1.4c0.4,0,0.9,0.1,1.3,0.2V34c0-0.5-0.2-1.1-1.1-1.1c-0.4,0-0.8,0.2-1.2,0.3l-0.3-0.6c0.6-0.3,1.1-0.4,1.6-0.4
			C343.2,32.3,343.8,33,343.8,34L343.8,34z M343,35.3v-0.6c-0.3-0.1-0.7-0.2-1.2-0.2c-0.6,0-1,0.3-1,0.8s0.4,0.7,0.9,0.7
			C342.3,36.1,342.9,35.8,343,35.3z M344.7,36.1l0.4-0.6c0.5,0.3,0.9,0.5,1.4,0.5c0.5,0,0.8-0.2,0.8-0.5c0-0.4-0.4-0.5-1-0.7
			c-1-0.3-1.5-0.5-1.5-1.2c0-0.8,0.6-1.3,1.5-1.3c0.5,0,1.1,0.2,1.6,0.5l-0.4,0.6c-0.4-0.2-0.8-0.4-1.2-0.4c-0.4,0-0.8,0.2-0.8,0.5
			c0,0.3,0.3,0.4,1,0.7c0.7,0.2,1.4,0.4,1.4,1.3c0,0.8-0.7,1.3-1.6,1.3C345.9,36.7,345.2,36.5,344.7,36.1L344.7,36.1z M352.2,35.5
			l0.5,0.5c-0.4,0.4-1.1,0.7-1.7,0.7c-1.2,0-2.2-0.9-2.2-2.2c0-1.3,0.9-2.2,2.1-2.2c1.3,0,2,1,2,2.5h-3.3c0.1,0.7,0.6,1.2,1.4,1.2
			C351.4,36,352,35.8,352.2,35.5L352.2,35.5z M349.7,34.1h2.5c-0.1-0.7-0.5-1.1-1.2-1.1C350.3,33,349.8,33.4,349.7,34.1z"/>
	</g>
	<g>
		<path d="M380.3,33.8c0-1.6,1.3-2.9,2.9-2.9c0.8,0,1.5,0.3,2.1,0.9l-0.6,0.6c-0.4-0.4-0.9-0.7-1.5-0.7c-1.1,0-2.1,1-2.1,2.2
			s1,2.2,2.1,2.2c0.6,0,1.1-0.3,1.5-0.7l0.6,0.6c-0.5,0.5-1.3,0.9-2.1,0.9C381.6,36.7,380.3,35.4,380.3,33.8z M385.9,34.5
			c0-1.2,1-2.2,2.2-2.2c1.2,0,2.2,1,2.2,2.2s-1,2.2-2.2,2.2C386.9,36.7,385.9,35.7,385.9,34.5z M389.5,34.5c0-0.8-0.6-1.5-1.4-1.5
			c-0.8,0-1.4,0.7-1.4,1.5c0,0.8,0.6,1.5,1.4,1.5C388.9,36,389.5,35.3,389.5,34.5z M391.3,30.9h0.8v5.7h-0.8
			C391.3,36.6,391.3,30.9,391.3,30.9z M393.3,30.9h0.8v5.7h-0.8C393.3,36.6,393.3,30.9,393.3,30.9z M398.4,35.5l0.5,0.5
			c-0.4,0.4-1.1,0.7-1.7,0.7c-1.2,0-2.2-0.9-2.2-2.2c0-1.3,0.9-2.2,2.1-2.2c1.3,0,2,1,2,2.5h-3.3c0.1,0.7,0.6,1.2,1.4,1.2
			C397.6,36,398.2,35.8,398.4,35.5L398.4,35.5z M395.9,34.1h2.5c-0.1-0.7-0.5-1.1-1.2-1.1C396.5,33,396,33.4,395.9,34.1z
			 M399.9,34.5c0-1.2,1-2.2,2.2-2.2c0.6,0,1.2,0.2,1.6,0.7l-0.5,0.5c-0.2-0.3-0.6-0.5-1-0.5c-0.8,0-1.4,0.7-1.4,1.5
			c0,0.8,0.6,1.5,1.4,1.5c0.4,0,0.8-0.2,1-0.5l0.5,0.5c-0.4,0.4-1,0.7-1.6,0.7C400.9,36.7,399.9,35.7,399.9,34.5z M406.9,36.4
			c-0.2,0.2-0.5,0.3-0.8,0.3c-0.7,0-1.1-0.5-1.1-1.2V33h-0.6v-0.7h0.6v-1.2h0.8v1.2h1V33h-1v2.4c0,0.3,0.2,0.5,0.4,0.5
			c0.2,0,0.3-0.1,0.4-0.2C406.6,35.8,406.9,36.4,406.9,36.4z"/>
	</g>
	<g>
		<path d="M429,36.7l0.2-1.6h-0.7v-0.5h0.8l0.2-1.2h-0.7v-0.5h0.8l0.2-1.6h0.5l-0.2,1.6h0.9l0.2-1.6h0.5l-0.2,1.6h0.7v0.5h-0.8
			l-0.1,1.2h0.7v0.5H431l-0.2,1.6h-0.5l0.2-1.6h-0.9l-0.2,1.6H429L429,36.7z M430.6,34.6l0.2-1.2h-0.9l-0.2,1.2H430.6z M434.5,35.8
			c0.3,0.2,0.8,0.4,1.3,0.4c0.7,0,1.2-0.4,1.2-0.9c0-0.5-0.3-0.8-1-1.1c-0.9-0.3-1.5-0.8-1.5-1.6c0-0.9,0.7-1.5,1.8-1.5
			c0.6,0,1,0.1,1.2,0.3l-0.2,0.6c-0.2-0.1-0.5-0.3-1-0.3c-0.8,0-1,0.5-1,0.8c0,0.5,0.3,0.8,1.1,1.1c0.9,0.4,1.4,0.8,1.4,1.6
			c0,0.8-0.6,1.6-1.9,1.6c-0.5,0-1.1-0.2-1.4-0.3L434.5,35.8L434.5,35.8z M442,35.6c0,0.4,0,0.8,0,1.1h-0.6l0-0.7h0
			c-0.3,0.5-0.8,0.7-1.3,0.7c-0.6,0-1.4-0.3-1.4-1.7v-2.3h0.7v2.2c0,0.8,0.2,1.3,0.9,1.3c0.5,0,0.8-0.3,1-0.7c0-0.1,0.1-0.2,0.1-0.4
			v-2.4h0.7L442,35.6L442,35.6z M443.1,36.7c0-0.3,0-0.7,0-1v-4.8h0.7v2.5h0c0.2-0.4,0.7-0.7,1.4-0.7c1,0,1.7,0.8,1.7,2
			c0,1.4-0.9,2.1-1.8,2.1c-0.6,0-1-0.2-1.3-0.8h0l0,0.7H443.1L443.1,36.7z M443.9,35.1c0,0.1,0,0.2,0,0.3c0.1,0.5,0.6,0.8,1.1,0.8
			c0.8,0,1.2-0.6,1.2-1.5c0-0.8-0.4-1.5-1.2-1.5c-0.5,0-1,0.3-1.1,0.9c0,0.1,0,0.2,0,0.3L443.9,35.1L443.9,35.1z M447.8,33.8
			c0-0.4,0-0.8,0-1.1h0.6l0,0.6h0c0.2-0.4,0.6-0.7,1.2-0.7c0.5,0,1,0.3,1.1,0.8h0c0.1-0.2,0.3-0.4,0.4-0.5c0.2-0.2,0.5-0.3,0.9-0.3
			c0.5,0,1.3,0.3,1.3,1.7v2.3h-0.7v-2.2c0-0.8-0.3-1.2-0.9-1.2c-0.4,0-0.7,0.3-0.9,0.7c0,0.1-0.1,0.2-0.1,0.4v2.5h-0.7v-2.4
			c0-0.6-0.3-1.1-0.8-1.1c-0.5,0-0.8,0.4-0.9,0.7c0,0.1-0.1,0.2-0.1,0.3v2.4h-0.7L447.8,33.8L447.8,33.8z M455.5,31.6
			c0,0.2-0.2,0.4-0.5,0.4c-0.2,0-0.4-0.2-0.4-0.4c0-0.2,0.2-0.5,0.5-0.5S455.5,31.4,455.5,31.6L455.5,31.6z M454.7,36.7v-4h0.7v4
			H454.7z M456.5,36c0.2,0.1,0.6,0.3,1,0.3c0.5,0,0.8-0.3,0.8-0.6c0-0.3-0.2-0.5-0.7-0.7c-0.7-0.2-1-0.7-1-1.1
			c0-0.6,0.5-1.2,1.4-1.2c0.4,0,0.8,0.1,1,0.2l-0.2,0.5c-0.2-0.1-0.4-0.2-0.8-0.2c-0.4,0-0.7,0.2-0.7,0.5c0,0.3,0.2,0.5,0.8,0.7
			c0.7,0.3,1,0.6,1,1.2c0,0.7-0.5,1.2-1.5,1.2c-0.4,0-0.8-0.1-1.1-0.3L456.5,36L456.5,36z M459.7,36c0.2,0.1,0.6,0.3,1,0.3
			c0.5,0,0.8-0.3,0.8-0.6c0-0.3-0.2-0.5-0.7-0.7c-0.7-0.2-1-0.7-1-1.1c0-0.6,0.5-1.2,1.4-1.2c0.4,0,0.8,0.1,1,0.2l-0.2,0.5
			c-0.2-0.1-0.4-0.2-0.8-0.2c-0.4,0-0.7,0.2-0.7,0.5c0,0.3,0.2,0.5,0.8,0.7c0.7,0.3,1,0.6,1,1.2c0,0.7-0.5,1.2-1.5,1.2
			c-0.4,0-0.8-0.1-1.1-0.3L459.7,36L459.7,36z M463.9,31.6c0,0.2-0.2,0.4-0.5,0.4c-0.2,0-0.4-0.2-0.4-0.4c0-0.2,0.2-0.5,0.5-0.5
			C463.7,31.2,463.9,31.4,463.9,31.6L463.9,31.6z M463.1,36.7v-4h0.7v4H463.1z M468.6,34.7c0,1.5-1,2.1-2,2.1c-1.1,0-1.9-0.8-1.9-2
			c0-1.3,0.9-2.1,2-2.1C467.8,32.6,468.6,33.5,468.6,34.7z M465.4,34.7c0,0.9,0.5,1.5,1.2,1.5c0.7,0,1.2-0.7,1.2-1.5
			c0-0.7-0.3-1.5-1.2-1.5C465.8,33.2,465.4,34,465.4,34.7L465.4,34.7z M469.5,33.8c0-0.4,0-0.8,0-1.1h0.6l0,0.7h0
			c0.2-0.4,0.7-0.8,1.3-0.8c0.5,0,1.4,0.3,1.4,1.7v2.4h-0.7v-2.3c0-0.6-0.2-1.2-0.9-1.2c-0.5,0-0.8,0.3-1,0.7c0,0.1,0,0.2,0,0.3v2.4
			h-0.7V33.8z M474,36c0.2,0.1,0.6,0.3,1,0.3c0.5,0,0.8-0.3,0.8-0.6c0-0.3-0.2-0.5-0.7-0.7c-0.7-0.2-1-0.7-1-1.1
			c0-0.6,0.5-1.2,1.4-1.2c0.4,0,0.8,0.1,1,0.2l-0.2,0.5c-0.2-0.1-0.4-0.2-0.8-0.2c-0.4,0-0.7,0.2-0.7,0.5c0,0.3,0.2,0.5,0.8,0.7
			c0.7,0.3,1,0.6,1,1.2c0,0.7-0.5,1.2-1.5,1.2c-0.4,0-0.8-0.1-1.1-0.3L474,36L474,36z"/>
	</g>
	<g>
		<path d="M506.8,31.5c-0.3,0.1-1,0.3-1.7,0.3c-0.8,0-1.5-0.2-2.1-0.7c-0.5-0.5-0.8-1.2-0.8-2.1c0-1.6,1.1-2.9,3-2.9
			c0.6,0,1.1,0.1,1.4,0.2l-0.2,0.6c-0.3-0.1-0.7-0.2-1.2-0.2c-1.3,0-2.2,0.8-2.2,2.2c0,1.4,0.8,2.2,2.1,2.2c0.5,0,0.8-0.1,1-0.1
			v-1.6H505v-0.6h1.8L506.8,31.5L506.8,31.5z M508.3,29.9c0,1,0.6,1.4,1.4,1.4c0.5,0,0.8-0.1,1.1-0.2l0.1,0.5
			c-0.2,0.1-0.7,0.2-1.3,0.2c-1.2,0-2-0.8-2-2s0.7-2.1,1.9-2.1c1.3,0,1.6,1.1,1.6,1.9c0,0.1,0,0.3,0,0.3L508.3,29.9L508.3,29.9z
			 M510.4,29.4c0-0.5-0.2-1.2-1-1.2c-0.7,0-1,0.7-1.1,1.2H510.4z M512,28.9c0-0.4,0-0.8,0-1.1h0.6l0,0.7h0c0.2-0.4,0.7-0.8,1.3-0.8
			c0.5,0,1.4,0.3,1.4,1.7v2.4h-0.7v-2.3c0-0.6-0.2-1.2-0.9-1.2c-0.5,0-0.8,0.3-1,0.7c0,0.1,0,0.2,0,0.3v2.4H512L512,28.9L512,28.9z
			 M516.9,29.9c0,1,0.6,1.4,1.4,1.4c0.5,0,0.8-0.1,1.1-0.2l0.1,0.5c-0.2,0.1-0.7,0.2-1.3,0.2c-1.2,0-2-0.8-2-2s0.7-2.1,1.9-2.1
			c1.3,0,1.6,1.1,1.6,1.9c0,0.1,0,0.3,0,0.3L516.9,29.9L516.9,29.9z M519,29.4c0-0.5-0.2-1.2-1-1.2c-0.7,0-1,0.7-1.1,1.2H519z
			 M520.6,29.1c0-0.5,0-0.9,0-1.2h0.6l0,0.8h0c0.2-0.5,0.6-0.9,1.1-0.9c0.1,0,0.1,0,0.2,0v0.7c-0.1,0-0.2,0-0.2,0
			c-0.5,0-0.9,0.4-1,0.9c0,0.1,0,0.2,0,0.3v2.1h-0.7C520.6,31.8,520.6,29.1,520.6,29.1z M525.5,31.8l-0.1-0.5h0
			c-0.2,0.3-0.7,0.6-1.2,0.6c-0.8,0-1.2-0.6-1.2-1.1c0-1,0.8-1.5,2.4-1.5v-0.1c0-0.3-0.1-0.9-0.9-0.9c-0.4,0-0.8,0.1-1,0.3l-0.2-0.5
			c0.3-0.2,0.8-0.4,1.3-0.4c1.2,0,1.5,0.8,1.5,1.6v1.5c0,0.3,0,0.7,0.1,1L525.5,31.8L525.5,31.8z M525.4,29.8
			c-0.8,0-1.7,0.1-1.7,0.9c0,0.5,0.3,0.7,0.7,0.7c0.5,0,0.8-0.3,1-0.7c0-0.1,0-0.2,0-0.2V29.8z M528,26.7v1.1h1v0.5h-1v2.1
			c0,0.5,0.1,0.8,0.5,0.8c0.2,0,0.3,0,0.4,0l0,0.5c-0.1,0.1-0.4,0.1-0.6,0.1c-0.3,0-0.6-0.1-0.8-0.3c-0.2-0.2-0.3-0.6-0.3-1v-2.2
			h-0.6v-0.5h0.6v-1L528,26.7L528,26.7z M530.2,29.9c0,1,0.6,1.4,1.4,1.4c0.5,0,0.8-0.1,1.1-0.2l0.1,0.5c-0.2,0.1-0.7,0.2-1.3,0.2
			c-1.2,0-2-0.8-2-2s0.7-2.1,1.9-2.1c1.3,0,1.6,1.1,1.6,1.9c0,0.1,0,0.3,0,0.3L530.2,29.9L530.2,29.9z M532.4,29.4
			c0-0.5-0.2-1.2-1-1.2c-0.7,0-1,0.7-1.1,1.2H532.4z M501.9,36.1h3v0.6h-2.3v1.8h2.1v0.6h-2.1v2.5h-0.7V36.1z M506,39.8
			c0,1,0.6,1.4,1.4,1.4c0.5,0,0.8-0.1,1.1-0.2l0.1,0.5c-0.2,0.1-0.7,0.2-1.3,0.2c-1.2,0-2-0.8-2-2s0.7-2.1,1.9-2.1
			c1.3,0,1.6,1.1,1.6,1.9c0,0.2,0,0.3,0,0.3L506,39.8L506,39.8z M508.1,39.2c0-0.5-0.2-1.2-1-1.2c-0.7,0-1,0.7-1.1,1.2H508.1z
			 M510.1,39.8c0,1,0.6,1.4,1.4,1.4c0.5,0,0.8-0.1,1.1-0.2l0.1,0.5c-0.2,0.1-0.7,0.2-1.3,0.2c-1.2,0-2-0.8-2-2s0.7-2.1,1.9-2.1
			c1.3,0,1.6,1.1,1.6,1.9c0,0.2,0,0.3,0,0.3L510.1,39.8L510.1,39.8z M512.2,39.2c0-0.5-0.2-1.2-1-1.2c-0.7,0-1,0.7-1.1,1.2H512.2z
			 M517.3,35.8v4.8c0,0.3,0,0.8,0,1h-0.7l0-0.7h0c-0.2,0.4-0.7,0.8-1.3,0.8c-1,0-1.7-0.8-1.7-2c0-1.3,0.8-2.1,1.8-2.1
			c0.6,0,1,0.3,1.2,0.6h0v-2.4H517.3z M516.6,39.3c0-0.1,0-0.2,0-0.3c-0.1-0.5-0.5-0.8-1-0.8c-0.8,0-1.2,0.7-1.2,1.5
			c0,0.8,0.4,1.5,1.2,1.5c0.5,0,0.9-0.3,1.1-0.9c0-0.1,0-0.2,0-0.3C516.6,40,516.6,39.3,516.6,39.3z M518.4,41.6c0-0.3,0-0.7,0-1
			v-4.8h0.7v2.5h0c0.2-0.4,0.7-0.7,1.3-0.7c1,0,1.7,0.8,1.7,2c0,1.4-0.9,2.1-1.8,2.1c-0.6,0-1-0.2-1.3-0.8h0l0,0.7L518.4,41.6
			L518.4,41.6z M519.2,40c0,0.1,0,0.2,0,0.3c0.1,0.5,0.6,0.8,1.1,0.8c0.8,0,1.2-0.6,1.2-1.5c0-0.8-0.4-1.5-1.2-1.5
			c-0.5,0-1,0.3-1.1,0.9c0,0.1,0,0.2,0,0.3L519.2,40L519.2,40z M525.3,41.6l-0.1-0.5h0c-0.2,0.3-0.7,0.6-1.2,0.6
			c-0.8,0-1.2-0.6-1.2-1.1c0-1,0.8-1.5,2.4-1.5V39c0-0.3-0.1-0.9-0.9-0.9c-0.4,0-0.8,0.1-1,0.3l-0.2-0.5c0.3-0.2,0.8-0.3,1.3-0.3
			c1.2,0,1.5,0.8,1.5,1.6v1.5c0,0.3,0,0.7,0.1,1L525.3,41.6L525.3,41.6z M525.2,39.6c-0.8,0-1.7,0.1-1.7,0.9c0,0.5,0.3,0.7,0.7,0.7
			c0.5,0,0.8-0.3,1-0.7c0-0.1,0-0.2,0-0.2V39.6z M529.9,41.5c-0.2,0.1-0.6,0.2-1.1,0.2c-1.2,0-2-0.8-2-2c0-1.2,0.8-2.1,2.1-2.1
			c0.4,0,0.8,0.1,1,0.2l-0.2,0.6c-0.2-0.1-0.4-0.2-0.8-0.2c-0.9,0-1.4,0.7-1.4,1.5c0,0.9,0.6,1.5,1.4,1.5c0.3,0,0.6-0.1,0.9-0.2
			L529.9,41.5z M531.5,39.5L531.5,39.5c0.1-0.1,0.3-0.3,0.4-0.5l1.2-1.4h0.9l-1.5,1.6l1.8,2.3h-0.9l-1.4-1.9l-0.4,0.4v1.5h-0.7v-5.8
			h0.7L531.5,39.5L531.5,39.5z"/>
	</g>
	<g>
		<path d="M568.4,26.3c0.4-0.1,0.9-0.1,1.4-0.1c0.8,0,1.2,0.1,1.6,0.5c0.3,0.2,0.4,0.6,0.4,1c0,0.7-0.5,1.2-1,1.4v0
			c0.4,0.1,0.7,0.5,0.8,1.1c0.2,0.8,0.3,1.3,0.4,1.5h-0.7c-0.1-0.2-0.2-0.6-0.4-1.3c-0.2-0.8-0.5-1-1.1-1.1h-0.7v2.4h-0.7
			C568.4,31.8,568.4,26.3,568.4,26.3z M569.1,28.9h0.7c0.8,0,1.2-0.4,1.2-1c0-0.7-0.5-1-1.3-1c-0.3,0-0.6,0-0.7,0.1L569.1,28.9
			L569.1,28.9z M573.2,29.9c0,1,0.6,1.4,1.4,1.4c0.5,0,0.8-0.1,1.1-0.2l0.1,0.5c-0.2,0.1-0.7,0.2-1.3,0.2c-1.2,0-2-0.8-2-2
			s0.7-2.1,1.9-2.1c1.3,0,1.6,1.1,1.6,1.9c0,0.1,0,0.3,0,0.3L573.2,29.9L573.2,29.9z M575.3,29.4c0-0.5-0.2-1.2-1-1.2
			c-0.7,0-1,0.7-1.1,1.2H575.3z M576.9,26h0.7v5.8h-0.7V26z M579.2,29.9c0,1,0.6,1.4,1.4,1.4c0.5,0,0.8-0.1,1.1-0.2l0.1,0.5
			c-0.2,0.1-0.7,0.2-1.3,0.2c-1.2,0-2-0.8-2-2s0.7-2.1,1.9-2.1c1.3,0,1.6,1.1,1.6,1.9c0,0.1,0,0.3,0,0.3L579.2,29.9L579.2,29.9z
			 M581.4,29.4c0-0.5-0.2-1.2-1-1.2c-0.7,0-1,0.7-1.1,1.2H581.4z M585.2,31.8l-0.1-0.5h0c-0.2,0.3-0.7,0.6-1.2,0.6
			c-0.8,0-1.2-0.6-1.2-1.1c0-1,0.8-1.5,2.4-1.5v-0.1c0-0.3-0.1-0.9-0.9-0.9c-0.4,0-0.8,0.1-1,0.3l-0.2-0.5c0.3-0.2,0.8-0.4,1.3-0.4
			c1.2,0,1.5,0.8,1.5,1.6v1.5c0,0.3,0,0.7,0.1,1L585.2,31.8L585.2,31.8z M585,29.8c-0.8,0-1.7,0.1-1.7,0.9c0,0.5,0.3,0.7,0.7,0.7
			c0.5,0,0.8-0.3,1-0.7c0-0.1,0-0.2,0-0.2V29.8z M586.8,31c0.2,0.1,0.6,0.3,1,0.3c0.5,0,0.8-0.3,0.8-0.6c0-0.3-0.2-0.5-0.7-0.7
			c-0.7-0.2-1-0.6-1-1.1c0-0.6,0.5-1.2,1.4-1.2c0.4,0,0.8,0.1,1,0.2l-0.2,0.5c-0.2-0.1-0.4-0.2-0.8-0.2c-0.4,0-0.7,0.2-0.7,0.5
			c0,0.3,0.2,0.5,0.8,0.7c0.7,0.3,1,0.6,1,1.2c0,0.7-0.5,1.2-1.5,1.2c-0.4,0-0.8-0.1-1.1-0.3L586.8,31L586.8,31z M590.5,29.9
			c0,1,0.6,1.4,1.4,1.4c0.5,0,0.8-0.1,1.1-0.2l0.1,0.5c-0.2,0.1-0.7,0.2-1.3,0.2c-1.2,0-2-0.8-2-2s0.7-2.1,1.9-2.1
			c1.3,0,1.6,1.1,1.6,1.9c0,0.1,0,0.3,0,0.3L590.5,29.9L590.5,29.9z M592.7,29.4c0-0.5-0.2-1.2-1-1.2c-0.7,0-1,0.7-1.1,1.2H592.7z
			 M565,36.1h3v0.6h-2.3v1.8h2.1v0.6h-2.1v2.5H565L565,36.1L565,36.1z M569.1,39.8c0,1,0.6,1.4,1.4,1.4c0.5,0,0.8-0.1,1.1-0.2
			l0.1,0.5c-0.2,0.1-0.7,0.2-1.3,0.2c-1.2,0-2-0.8-2-2s0.7-2.1,1.9-2.1c1.3,0,1.6,1.1,1.6,1.9c0,0.2,0,0.3,0,0.3L569.1,39.8
			L569.1,39.8z M571.2,39.2c0-0.5-0.2-1.2-1-1.2c-0.7,0-1,0.7-1.1,1.2H571.2z M573.2,39.8c0,1,0.6,1.4,1.4,1.4
			c0.5,0,0.8-0.1,1.1-0.2l0.1,0.5c-0.2,0.1-0.7,0.2-1.3,0.2c-1.2,0-2-0.8-2-2s0.7-2.1,1.9-2.1c1.3,0,1.6,1.1,1.6,1.9
			c0,0.2,0,0.3,0,0.3L573.2,39.8L573.2,39.8z M575.3,39.2c0-0.5-0.2-1.2-1-1.2c-0.7,0-1,0.7-1.1,1.2H575.3z M580.3,35.8v4.8
			c0,0.3,0,0.8,0,1h-0.7l0-0.7h0c-0.2,0.4-0.7,0.8-1.3,0.8c-1,0-1.7-0.8-1.7-2c0-1.3,0.8-2.1,1.8-2.1c0.6,0,1,0.3,1.2,0.6h0v-2.4
			H580.3z M579.6,39.3c0-0.1,0-0.2,0-0.3c-0.1-0.5-0.5-0.8-1-0.8c-0.8,0-1.2,0.7-1.2,1.5c0,0.8,0.4,1.5,1.2,1.5
			c0.5,0,0.9-0.3,1.1-0.9c0-0.1,0-0.2,0-0.3C579.6,40,579.6,39.3,579.6,39.3z M581.5,41.6c0-0.3,0-0.7,0-1v-4.8h0.7v2.5h0
			c0.2-0.4,0.7-0.7,1.3-0.7c1,0,1.7,0.8,1.7,2c0,1.4-0.9,2.1-1.8,2.1c-0.6,0-1-0.2-1.3-0.8h0l0,0.7L581.5,41.6L581.5,41.6z
			 M582.2,40c0,0.1,0,0.2,0,0.3c0.1,0.5,0.6,0.8,1.1,0.8c0.8,0,1.2-0.6,1.2-1.5c0-0.8-0.4-1.5-1.2-1.5c-0.5,0-1,0.3-1.1,0.9
			c0,0.1,0,0.2,0,0.3L582.2,40L582.2,40z M588.4,41.6l-0.1-0.5h0c-0.2,0.3-0.7,0.6-1.2,0.6c-0.8,0-1.2-0.6-1.2-1.1
			c0-1,0.8-1.5,2.4-1.5V39c0-0.3-0.1-0.9-0.9-0.9c-0.4,0-0.8,0.1-1,0.3l-0.2-0.5c0.3-0.2,0.8-0.3,1.3-0.3c1.2,0,1.5,0.8,1.5,1.6v1.5
			c0,0.3,0,0.7,0.1,1L588.4,41.6L588.4,41.6z M588.3,39.6c-0.8,0-1.7,0.1-1.7,0.9c0,0.5,0.3,0.7,0.7,0.7c0.5,0,0.8-0.3,1-0.7
			c0-0.1,0-0.2,0-0.2V39.6z M593,41.5c-0.2,0.1-0.6,0.2-1.1,0.2c-1.2,0-2-0.8-2-2c0-1.2,0.8-2.1,2.1-2.1c0.4,0,0.8,0.1,1,0.2
			l-0.2,0.6c-0.2-0.1-0.4-0.2-0.8-0.2c-0.9,0-1.4,0.7-1.4,1.5c0,0.9,0.6,1.5,1.4,1.5c0.3,0,0.6-0.1,0.9-0.2L593,41.5z M594.5,39.5
			L594.5,39.5c0.1-0.1,0.3-0.3,0.4-0.5l1.2-1.4h0.9l-1.5,1.6l1.8,2.3h-0.9l-1.4-1.9l-0.4,0.4v1.5h-0.7v-5.8h0.7L594.5,39.5
			L594.5,39.5z"/>
	</g>
	<g>
		<path d="M623.3,30.9c0.3,0.2,0.8,0.4,1.3,0.4c0.7,0,1.2-0.4,1.2-0.9c0-0.5-0.3-0.8-1-1.1c-0.9-0.3-1.5-0.8-1.5-1.6
			c0-0.9,0.7-1.5,1.8-1.5c0.6,0,1,0.1,1.2,0.3L626,27c-0.2-0.1-0.5-0.3-1-0.3c-0.8,0-1,0.5-1,0.8c0,0.5,0.3,0.8,1.1,1.1
			c0.9,0.4,1.4,0.8,1.4,1.6c0,0.9-0.6,1.6-1.9,1.6c-0.5,0-1.1-0.2-1.4-0.4L623.3,30.9L623.3,30.9z M630.7,30.7c0,0.4,0,0.8,0,1.1
			h-0.6l0-0.6h0c-0.3,0.5-0.8,0.7-1.3,0.7c-0.6,0-1.4-0.3-1.4-1.7v-2.3h0.7V30c0,0.8,0.2,1.3,0.9,1.3c0.5,0,0.8-0.3,1-0.7
			c0-0.1,0.1-0.2,0.1-0.4v-2.4h0.7L630.7,30.7L630.7,30.7z M631.9,31.8c0-0.3,0-0.7,0-1V26h0.7v2.5h0c0.2-0.4,0.7-0.7,1.3-0.7
			c1,0,1.7,0.8,1.7,2c0,1.4-0.9,2.1-1.8,2.1c-0.6,0-1-0.2-1.3-0.8h0l0,0.7L631.9,31.8L631.9,31.8z M632.6,30.2c0,0.1,0,0.2,0,0.3
			c0.1,0.5,0.6,0.8,1.1,0.8c0.8,0,1.2-0.6,1.2-1.5c0-0.8-0.4-1.5-1.2-1.5c-0.5,0-1,0.3-1.1,0.9c0,0.1,0,0.2,0,0.3L632.6,30.2
			L632.6,30.2z M636.6,28.9c0-0.4,0-0.8,0-1.1h0.6l0,0.6h0c0.2-0.4,0.6-0.7,1.2-0.7c0.5,0,1,0.3,1.1,0.8h0c0.1-0.2,0.3-0.4,0.4-0.5
			c0.2-0.2,0.5-0.3,0.9-0.3c0.5,0,1.3,0.3,1.3,1.7v2.3h-0.7v-2.2c0-0.8-0.3-1.2-0.9-1.2c-0.4,0-0.7,0.3-0.8,0.7
			c0,0.1-0.1,0.2-0.1,0.4v2.5h-0.7v-2.4c0-0.6-0.3-1.1-0.8-1.1c-0.5,0-0.8,0.4-0.9,0.7c0,0.1-0.1,0.2-0.1,0.4v2.4h-0.7L636.6,28.9
			L636.6,28.9z M644.2,26.7c0,0.2-0.2,0.4-0.5,0.4c-0.2,0-0.4-0.2-0.4-0.4c0-0.2,0.2-0.5,0.5-0.5C644,26.2,644.2,26.5,644.2,26.7z
			 M643.4,31.8v-4h0.7v4H643.4z M646.2,26.7v1.1h1v0.5h-1v2.1c0,0.5,0.1,0.8,0.5,0.8c0.2,0,0.3,0,0.4,0l0,0.5
			c-0.1,0.1-0.4,0.1-0.6,0.1c-0.3,0-0.6-0.1-0.8-0.3c-0.2-0.2-0.3-0.6-0.3-1v-2.2h-0.6v-0.5h0.6v-1L646.2,26.7L646.2,26.7z
			 M628,41.4c-0.3,0.1-1,0.3-1.7,0.3c-0.8,0-1.5-0.2-2.1-0.7c-0.5-0.5-0.8-1.2-0.8-2.1c0-1.7,1.1-2.8,3-2.8c0.6,0,1.1,0.1,1.4,0.2
			l-0.2,0.6c-0.3-0.1-0.7-0.2-1.2-0.2c-1.3,0-2.2,0.8-2.2,2.2c0,1.4,0.8,2.2,2.1,2.2c0.5,0,0.8-0.1,1-0.2v-1.7h-1.1v-0.6h1.8
			C628,38.7,628,41.4,628,41.4z M629.1,38.9c0-0.5,0-0.9,0-1.2h0.6l0,0.8h0c0.2-0.5,0.6-0.9,1.1-0.9c0.1,0,0.1,0,0.2,0v0.7
			c-0.1,0-0.2,0-0.2,0c-0.5,0-0.9,0.4-1,0.9c0,0.1,0,0.2,0,0.3v2.1h-0.7V38.9z M633.9,41.6l-0.1-0.5h0c-0.2,0.3-0.7,0.6-1.2,0.6
			c-0.8,0-1.2-0.6-1.2-1.1c0-1,0.8-1.5,2.4-1.5V39c0-0.3-0.1-0.9-0.9-0.9c-0.4,0-0.8,0.1-1,0.3l-0.2-0.5c0.3-0.2,0.8-0.3,1.3-0.3
			c1.2,0,1.5,0.8,1.5,1.6v1.5c0,0.3,0,0.7,0.1,1L633.9,41.6L633.9,41.6z M633.8,39.6c-0.8,0-1.7,0.1-1.7,0.9c0,0.5,0.3,0.7,0.7,0.7
			c0.5,0,0.8-0.3,1-0.7c0-0.1,0-0.2,0-0.2V39.6z M639.1,35.8v4.8c0,0.3,0,0.8,0,1h-0.7l0-0.7h0c-0.2,0.4-0.7,0.8-1.3,0.8
			c-1,0-1.7-0.8-1.7-2c0-1.3,0.8-2.1,1.8-2.1c0.6,0,1,0.3,1.2,0.6h0v-2.4H639.1z M638.4,39.3c0-0.1,0-0.2,0-0.3
			c-0.1-0.5-0.5-0.8-1-0.8c-0.8,0-1.2,0.7-1.2,1.5c0,0.8,0.4,1.5,1.2,1.5c0.5,0,0.9-0.3,1.1-0.9c0-0.1,0-0.2,0-0.3
			C638.4,40,638.4,39.3,638.4,39.3z M640.7,39.8c0,1,0.6,1.4,1.4,1.4c0.5,0,0.8-0.1,1.1-0.2l0.1,0.5c-0.2,0.1-0.7,0.2-1.3,0.2
			c-1.2,0-2-0.8-2-2s0.7-2.1,1.9-2.1c1.3,0,1.6,1.1,1.6,1.9c0,0.2,0,0.3,0,0.3L640.7,39.8L640.7,39.8z M642.8,39.2
			c0-0.5-0.2-1.2-1-1.2c-0.7,0-1,0.7-1.1,1.2H642.8z M644.3,40.9c0.2,0.1,0.6,0.3,1,0.3c0.5,0,0.8-0.3,0.8-0.6
			c0-0.3-0.2-0.5-0.7-0.7c-0.7-0.2-1-0.7-1-1.1c0-0.6,0.5-1.2,1.4-1.2c0.4,0,0.8,0.1,1,0.2l-0.2,0.5c-0.2-0.1-0.4-0.2-0.8-0.2
			c-0.4,0-0.7,0.2-0.7,0.5c0,0.3,0.2,0.5,0.8,0.7c0.7,0.3,1,0.6,1,1.2c0,0.7-0.5,1.2-1.5,1.2c-0.4,0-0.8-0.1-1.1-0.3L644.3,40.9
			L644.3,40.9z"/>
	</g>
	<path class="st1" d="M44,62.6H21c-1.9,0-3.5-1.6-3.5-3.5c0-1.9,1.6-3.5,3.5-3.5h23c1.9,0,3.5,1.6,3.5,3.5S46,62.6,44,62.6z
		 M44,79.4H21c-1.9,0-3.5-1.6-3.5-3.5c0-1.9,1.6-3.5,3.5-3.5h23c1.9,0,3.5,1.6,3.5,3.5C47.5,77.8,46,79.4,44,79.4z M44,96.1H21
		c-1.9,0-3.5-1.6-3.5-3.5c0-1.9,1.6-3.5,3.5-3.5h23c1.9,0,3.5,1.6,3.5,3.5S46,96.1,44,96.1z M44,113H21c-1.9,0-3.5-1.6-3.5-3.5
		c0-1.9,1.6-3.5,3.5-3.5h23c1.9,0,3.5,1.6,3.5,3.5S46,113,44,113z M44,129.7H21c-1.9,0-3.5-1.6-3.5-3.5c0-1.9,1.6-3.5,3.5-3.5h23
		c1.9,0,3.5,1.6,3.5,3.5C47.5,128.1,46,129.7,44,129.7z M44,146.5H21c-1.9,0-3.5-1.6-3.5-3.5c0-1.9,1.6-3.5,3.5-3.5h23
		c1.9,0,3.5,1.6,3.5,3.5S46,146.5,44,146.5z"/>
	<path class="st2" d="M88.3,62.6h-23c-1.9,0-3.5-1.6-3.5-3.5c0-1.9,1.6-3.5,3.5-3.5h23c1.9,0,3.5,1.6,3.5,3.5
		C91.8,61,90.2,62.6,88.3,62.6z M88.3,79.4h-23c-1.9,0-3.5-1.6-3.5-3.5c0-1.9,1.6-3.5,3.5-3.5h23c1.9,0,3.5,1.6,3.5,3.5
		C91.7,77.8,90.2,79.4,88.3,79.4z M88.3,96.1h-23c-1.9,0-3.5-1.6-3.5-3.5c0-1.9,1.6-3.5,3.5-3.5h23c1.9,0,3.5,1.6,3.5,3.5
		C91.8,94.6,90.2,96.1,88.3,96.1z M88.3,113h-23c-1.9,0-3.5-1.6-3.5-3.5c0-1.9,1.6-3.5,3.5-3.5h23c1.9,0,3.5,1.6,3.5,3.5
		C91.8,111.4,90.2,113,88.3,113z M88.3,129.7h-23c-1.9,0-3.5-1.6-3.5-3.5c0-1.9,1.6-3.5,3.5-3.5h23c1.9,0,3.5,1.6,3.5,3.5
		C91.7,128.1,90.2,129.7,88.3,129.7z M88.3,146.5h-23c-1.9,0-3.5-1.6-3.5-3.5c0-1.9,1.6-3.5,3.5-3.5h23c1.9,0,3.5,1.6,3.5,3.5
		C91.8,144.9,90.2,146.5,88.3,146.5z M465.7,62.6h-23c-1.9,0-3.5-1.6-3.5-3.5c0-1.9,1.6-3.5,3.5-3.5h23c1.9,0,3.5,1.6,3.5,3.5
		S467.7,62.6,465.7,62.6z M465.7,79.4h-23c-1.9,0-3.5-1.6-3.5-3.5c0-1.9,1.6-3.5,3.5-3.5h23c1.9,0,3.5,1.6,3.5,3.5
		C469.2,77.8,467.7,79.4,465.7,79.4z M465.7,96.1h-23c-1.9,0-3.5-1.6-3.5-3.5c0-1.9,1.6-3.5,3.5-3.5h23c1.9,0,3.5,1.6,3.5,3.5
		S467.7,96.1,465.7,96.1z M465.7,113h-23c-1.9,0-3.5-1.6-3.5-3.5c0-1.9,1.6-3.5,3.5-3.5h23c1.9,0,3.5,1.6,3.5,3.5
		S467.7,113,465.7,113z M465.7,129.7h-23c-1.9,0-3.5-1.6-3.5-3.5c0-1.9,1.6-3.5,3.5-3.5h23c1.9,0,3.5,1.6,3.5,3.5
		C469.2,128.1,467.7,129.7,465.7,129.7z M465.7,146.5h-23c-1.9,0-3.5-1.6-3.5-3.5c0-1.9,1.6-3.5,3.5-3.5h23c1.9,0,3.5,1.6,3.5,3.5
		S467.7,146.5,465.7,146.5z"/>
	<path class="st1" d="M147.1,62.6h-23c-1.9,0-3.5-1.6-3.5-3.5c0-1.9,1.6-3.5,3.5-3.5h23c1.9,0,3.5,1.6,3.5,3.5S149,62.6,147.1,62.6z
		 M147.1,79.4h-23c-1.9,0-3.5-1.6-3.5-3.5c0-1.9,1.6-3.5,3.5-3.5h23c1.9,0,3.5,1.6,3.5,3.5C150.6,77.8,149,79.4,147.1,79.4z
		 M147.1,96.1h-23c-1.9,0-3.5-1.6-3.5-3.5c0-1.9,1.6-3.5,3.5-3.5h23c1.9,0,3.5,1.6,3.5,3.5S149,96.1,147.1,96.1z M147.1,113h-23
		c-1.9,0-3.5-1.6-3.5-3.5c0-1.9,1.6-3.5,3.5-3.5h23c1.9,0,3.5,1.6,3.5,3.5S149,113,147.1,113z M147.1,129.7h-23
		c-1.9,0-3.5-1.6-3.5-3.5c0-1.9,1.6-3.5,3.5-3.5h23c1.9,0,3.5,1.6,3.5,3.5C150.6,128.1,149,129.7,147.1,129.7z M147.1,146.5h-23
		c-1.9,0-3.5-1.6-3.5-3.5c0-1.9,1.6-3.5,3.5-3.5h23c1.9,0,3.5,1.6,3.5,3.5S149,146.5,147.1,146.5z"/>
</g>
</svg>
