<?xml version="1.0" encoding="utf-8"?>
<!-- Generator: Adobe Illustrator 23.0.6, SVG Export Plug-In . SVG Version: 6.00 Build 0)  -->
<svg version="1.1" id="Capa_1" xmlns="http://www.w3.org/2000/svg" xmlns:xlink="http://www.w3.org/1999/xlink" x="0px" y="0px"
	 viewBox="0 0 570 429" style="enable-background:new 0 0 570 429;" xml:space="preserve">
<style type="text/css">
	.st0{fill:#FFFFFF;}
	.st1{clip-path:url(#SVGID_2_);fill:#F2F3F4;}
	.st2{clip-path:url(#SVGID_4_);}
	.st3{clip-path:url(#SVGID_6_);}
	.st4{clip-path:url(#SVGID_8_);}
	.st5{fill:#002638;}
	.st6{clip-path:url(#SVGID_10_);}
	.st7{fill:#78B46F;}
	.st8{clip-path:url(#SVGID_12_);}
	.st9{clip-path:url(#SVGID_14_);}
	.st10{clip-path:url(#SVGID_16_);}
	.st11{clip-path:url(#SVGID_18_);}
	.st12{clip-path:url(#SVGID_20_);}
	.st13{clip-path:url(#SVGID_22_);}
	.st14{fill:none;}
	.st15{fill:#F2F3F4;}
</style>
<path class="st0" d="M563.1,428.8H6.9c-3.8,0-6.9-3.1-6.9-6.9V7.1c0-3.8,3.1-6.9,6.9-6.9h556.3c3.8,0,6.9,3.1,6.9,6.9V422
	C570,425.7,566.9,428.8,563.1,428.8z"/>
<g>
	<g>
		<defs>
			<path id="SVGID_1_" d="M563.1,428.8H6.9c-3.8,0-6.9-3.1-6.9-6.9V7.1c0-3.8,3.1-6.9,6.9-6.9h556.3c3.8,0,6.9,3.1,6.9,6.9V422
				C570,425.7,566.9,428.8,563.1,428.8z"/>
		</defs>
		<clipPath id="SVGID_2_">
			<use xlink:href="#SVGID_1_"  style="overflow:visible;"/>
		</clipPath>
		<path class="st1" d="M0,0.2h126.2v428.6H0V0.2z"/>
	</g>
</g>
<g>
	<g>
		<defs>
			<path id="SVGID_3_" d="M563.1,428.8H6.9c-3.8,0-6.9-3.1-6.9-6.9V7.1c0-3.8,3.1-6.9,6.9-6.9h556.3c3.8,0,6.9,3.1,6.9,6.9V422
				C570,425.7,566.9,428.8,563.1,428.8z"/>
		</defs>
		<clipPath id="SVGID_4_">
			<use xlink:href="#SVGID_3_"  style="overflow:visible;"/>
		</clipPath>
		<g class="st2">
			<g>
				<g>
					<defs>
						<circle id="SVGID_5_" cx="18.7" cy="92.4" r="8.8"/>
					</defs>
					<clipPath id="SVGID_6_">
						<use xlink:href="#SVGID_5_"  style="overflow:visible;"/>
					</clipPath>
					<g class="st3">
						
							<image style="overflow:visible;enable-background:new    ;" width="402" height="299" id="o8R5C3_1_" xlink:href="4968A34B2425794.jpeg"  transform="matrix(9.455586e-02 0 0 9.455586e-02 -0.2737 82.2839)">
						</image>
					</g>
				</g>
			</g>
		</g>
	</g>
</g>
<g>
	<g>
		<defs>
			<path id="SVGID_7_" d="M563.1,428.8H6.9c-3.8,0-6.9-3.1-6.9-6.9V7.1c0-3.8,3.1-6.9,6.9-6.9h556.3c3.8,0,6.9,3.1,6.9,6.9V422
				C570,425.7,566.9,428.8,563.1,428.8z"/>
		</defs>
		<clipPath id="SVGID_8_">
			<use xlink:href="#SVGID_7_"  style="overflow:visible;"/>
		</clipPath>
		<g class="st4">
			<path class="st5" d="M23.4,123.9v6.4c0,0.5-0.4,1-1,1h-1v1c0,0.5-0.4,1-1,1H14c-0.5,0-1-0.4-1-1v-6.4c0-0.5,0.4-1,1-1h1v-1
				c0-0.5,0.4-1,1-1h6.4C23,122.9,23.4,123.3,23.4,123.9z M20.5,128.1h-6.4v4.2h6.4V128.1z M22.5,123.9H16v1h4.5c0.5,0,1,0.4,1,1
				v4.5h1V123.9L22.5,123.9z"/>
		</g>
	</g>
</g>
<g>
	<g>
		<defs>
			<path id="SVGID_9_" d="M563.1,428.8H6.9c-3.8,0-6.9-3.1-6.9-6.9V7.1c0-3.8,3.1-6.9,6.9-6.9h556.3c3.8,0,6.9,3.1,6.9,6.9V422
				C570,425.7,566.9,428.8,563.1,428.8z"/>
		</defs>
		<clipPath id="SVGID_10_">
			<use xlink:href="#SVGID_9_"  style="overflow:visible;"/>
		</clipPath>
		<g class="st6">
			<path class="st7" d="M109.2,175.3c-0.2-0.2-0.2-0.5,0-0.7l0,0l0.5-0.5c0.2-0.2,0.5-0.2,0.7,0l1.9,1.9l1.9-1.9
				c0.2-0.2,0.5-0.2,0.7,0l0.5,0.5c0.2,0.2,0.2,0.5,0,0.7l-2.7,2.7c-0.2,0.2-0.5,0.2-0.7,0L109.2,175.3L109.2,175.3z"/>
		</g>
	</g>
</g>
<g>
	<g>
		<defs>
			<path id="SVGID_11_" d="M563.1,428.8H6.9c-3.8,0-6.9-3.1-6.9-6.9V7.1c0-3.8,3.1-6.9,6.9-6.9h556.3c3.8,0,6.9,3.1,6.9,6.9V422
				C570,425.7,566.9,428.8,563.1,428.8z"/>
		</defs>
		<clipPath id="SVGID_12_">
			<use xlink:href="#SVGID_11_"  style="overflow:visible;"/>
		</clipPath>
		<g class="st8">
			<path class="st7" d="M109.2,96.3c-0.2-0.2-0.2-0.5,0-0.7l0,0l0.5-0.5c0.2-0.2,0.5-0.2,0.7,0l1.9,1.9l1.9-1.9
				c0.2-0.2,0.5-0.2,0.7,0l0.5,0.5c0.2,0.2,0.2,0.5,0,0.7l-2.7,2.7c-0.2,0.2-0.5,0.2-0.7,0L109.2,96.3L109.2,96.3z"/>
		</g>
	</g>
</g>
<g>
	<g>
		<defs>
			<path id="SVGID_13_" d="M563.1,428.8H6.9c-3.8,0-6.9-3.1-6.9-6.9V7.1c0-3.8,3.1-6.9,6.9-6.9h556.3c3.8,0,6.9,3.1,6.9,6.9V422
				C570,425.7,566.9,428.8,563.1,428.8z"/>
		</defs>
		<clipPath id="SVGID_14_">
			<use xlink:href="#SVGID_13_"  style="overflow:visible;"/>
		</clipPath>
		<g class="st9">
			<path class="st7" d="M115.3,90.2c0.2,0.2,0.2,0.5,0,0.7l-0.5,0.5c-0.2,0.2-0.5,0.2-0.7,0l-1.9-1.9l-1.9,1.9
				c-0.2,0.2-0.5,0.2-0.7,0l-0.5-0.5c-0.2-0.2-0.2-0.5,0-0.7l0,0l2.7-2.7c0.2-0.2,0.5-0.2,0.7,0L115.3,90.2z"/>
		</g>
	</g>
</g>
<g>
	<g>
		<defs>
			<path id="SVGID_15_" d="M563.1,428.8H6.9c-3.8,0-6.9-3.1-6.9-6.9V7.1c0-3.8,3.1-6.9,6.9-6.9h556.3c3.8,0,6.9,3.1,6.9,6.9V422
				C570,425.7,566.9,428.8,563.1,428.8z"/>
		</defs>
		<clipPath id="SVGID_16_">
			<use xlink:href="#SVGID_15_"  style="overflow:visible;"/>
		</clipPath>
		<g class="st10">
			<path class="st5" d="M15.1,155.2h-1.3c-0.4,0-0.6-0.3-0.6-0.6V154c0-0.7,0.6-1.3,1.3-1.3h1.3c0.4,0,0.7,0.1,0.9,0.4
				C15.8,153.5,15.2,154.3,15.1,155.2z M13.8,150.7c0-0.7,0.6-1.3,1.3-1.3s1.3,0.6,1.3,1.3s-0.6,1.3-1.3,1.3S13.8,151.4,13.8,150.7z
				 M23.4,155.6v0.6c0,0.5-0.4,1-1,1h-5.8c-0.5,0-1-0.4-1-1v-0.6c0-1.3,1-2.3,2.3-2.3h0.2c0.4,0.2,0.9,0.3,1.4,0.3s1-0.1,1.4-0.3
				h0.2C22.4,153.3,23.4,154.3,23.4,155.6z M17.3,150.4c0-1.2,1-2.2,2.2-2.2s2.2,1,2.2,2.2s-1,2.2-2.2,2.2
				C18.3,152.6,17.3,151.6,17.3,150.4z M26,153.9v0.6c0,0.4-0.3,0.6-0.6,0.6H24c-0.1-0.9-0.7-1.7-1.5-2.2c0.2-0.2,0.5-0.4,0.9-0.4
				h1.3C25.4,152.6,26,153.2,26,153.9z M22.8,150.7c0-0.7,0.6-1.3,1.3-1.3c0.7,0,1.3,0.6,1.3,1.3s-0.6,1.3-1.3,1.3
				S22.8,151.4,22.8,150.7z"/>
		</g>
	</g>
</g>
<g>
	<g>
		<defs>
			<path id="SVGID_17_" d="M563.1,428.8H6.9c-3.8,0-6.9-3.1-6.9-6.9V7.1c0-3.8,3.1-6.9,6.9-6.9h556.3c3.8,0,6.9,3.1,6.9,6.9V422
				C570,425.7,566.9,428.8,563.1,428.8z"/>
		</defs>
		<clipPath id="SVGID_18_">
			<use xlink:href="#SVGID_17_"  style="overflow:visible;"/>
		</clipPath>
		<g class="st11">
			<path class="st5" d="M23.4,172.7v0.6c0,0.2-0.1,0.3-0.3,0.3h-4.2v0.3c0,0.2-0.1,0.3-0.3,0.3H18c-0.2,0-0.3-0.1-0.3-0.3l0,0v-0.3
				h-4.2c-0.2,0-0.3-0.1-0.3-0.3l0,0v-0.6c0-0.2,0.1-0.3,0.3-0.3h4.2V172c0-0.2,0.1-0.3,0.3-0.3h0.6c0.2,0,0.3,0.1,0.3,0.3v0.3h4.2
				C23.3,172.3,23.4,172.5,23.4,172.7z M23.4,175.9v0.6c0,0.2-0.1,0.3-0.3,0.3h-1.6v0.3c0,0.2-0.1,0.3-0.3,0.3h-0.6
				c-0.2,0-0.3-0.1-0.3-0.3l0,0v-0.3h-6.8c-0.2,0-0.3-0.1-0.3-0.3l0,0v-0.6c0-0.2,0.1-0.3,0.3-0.3h6.8v-0.3c0-0.2,0.1-0.3,0.3-0.3
				h0.6c0.2,0,0.3,0.1,0.3,0.3v0.3h1.6C23.3,175.6,23.4,175.7,23.4,175.9z M23.4,179.1v0.6c0,0.2-0.1,0.3-0.3,0.3h-6.7v0.3
				c0,0.2-0.1,0.3-0.3,0.3h-0.6c-0.2,0-0.3-0.1-0.3-0.3l0,0V180h-1.6c-0.2,0-0.3-0.1-0.3-0.3l0,0v-0.6c0-0.2,0.1-0.3,0.3-0.3h1.6
				v-0.3c0-0.2,0.1-0.3,0.3-0.3H16c0.2,0,0.3,0.1,0.3,0.3v0.3h6.8C23.3,178.8,23.4,178.9,23.4,179.1z"/>
		</g>
	</g>
</g>
<g>
	<g>
		<defs>
			<path id="SVGID_19_" d="M563.1,428.8H6.9c-3.8,0-6.9-3.1-6.9-6.9V7.1c0-3.8,3.1-6.9,6.9-6.9h556.3c3.8,0,6.9,3.1,6.9,6.9V422
				C570,425.7,566.9,428.8,563.1,428.8z"/>
		</defs>
		<clipPath id="SVGID_20_">
			<use xlink:href="#SVGID_19_"  style="overflow:visible;"/>
		</clipPath>
		<g class="st12">
			<path class="st5" d="M22.2,388.9v0.8c0,0.5-0.4,1-1,1h-7.1c-0.5,0-1-0.4-1-1v-0.8c0-1.5,1.2-2.7,2.7-2.7h0.3
				c0.4,0.2,0.9,0.3,1.5,0.3s1-0.1,1.5-0.3h0.3C20.9,386.2,22.2,387.5,22.2,388.9z M15.1,383c0-1.4,1.1-2.6,2.6-2.6s2.6,1.1,2.6,2.6
				c0,1.4-1.1,2.6-2.6,2.6S15.1,384.5,15.1,383z M26,385v0.6c0,0.2-0.1,0.3-0.3,0.3h-1.3v1.3c0,0.2-0.1,0.3-0.3,0.3h-0.6
				c-0.2,0-0.3-0.1-0.3-0.3l0,0v-1.3h-1.3c-0.2,0-0.3-0.1-0.3-0.3l0,0V385c0-0.2,0.1-0.3,0.3-0.3h1.3v-1.3c0-0.2,0.1-0.3,0.3-0.3
				h0.6c0.2,0,0.3,0.1,0.3,0.3v1.3h1.3C25.9,384.6,26,384.8,26,385z"/>
		</g>
	</g>
</g>
<g>
	<g>
		<defs>
			<path id="SVGID_21_" d="M563.1,428.8H6.9c-3.8,0-6.9-3.1-6.9-6.9V7.1c0-3.8,3.1-6.9,6.9-6.9h556.3c3.8,0,6.9,3.1,6.9,6.9V422
				C570,425.7,566.9,428.8,563.1,428.8z"/>
		</defs>
		<clipPath id="SVGID_22_">
			<use xlink:href="#SVGID_21_"  style="overflow:visible;"/>
		</clipPath>
		<g class="st13">
			<path class="st5" d="M17.8,411l-2.5,2.5c-0.5,0.5-1.3,0.5-1.8,0s-0.5-1.3,0-1.8l3.1-3.1l1.1,1.1C17.6,410.1,17.7,410.6,17.8,411
				L17.8,411z M23.2,412.5l-1.1,1.1c-0.3,0.3-0.8,0.3-1.1,0l-2.3-2.3c-0.4-0.5-0.6-1.1-0.3-1.7l-2.1-2.1h-1.2l-1.9-2.6l1.3-1.3
				l2.6,1.9v1.3l2.1,2.1c0.6-0.3,1.3-0.2,1.7,0.3l2.3,2.4C23.5,411.8,23.5,412.2,23.2,412.5L23.2,412.5z M14.9,412.5
				c0-0.3-0.2-0.5-0.5-0.5s-0.5,0.2-0.5,0.5s0.2,0.5,0.5,0.5S14.9,412.8,14.9,412.5z M19.3,408.1l-1.6-1.6c0-0.8,0.3-1.5,0.8-2.1
				c0.7-0.7,1.8-1,2.7-0.8c0.2,0,0.2,0.3,0.1,0.4l-1.5,1.5l0.2,1.4l1.4,0.2l1.5-1.5c0.1-0.1,0.4-0.1,0.4,0.1c0.2,1,0,2-0.8,2.7
				c-0.3,0.3-0.6,0.5-0.9,0.6l-0.4-0.4c-0.4-0.4-0.9-0.6-1.5-0.6C19.7,408.1,19.5,408.1,19.3,408.1L19.3,408.1z"/>
		</g>
	</g>
</g>
<path class="st14" d="M563.1,428.8H6.9c-3.8,0-6.9-3.1-6.9-6.9V7.1c0-3.8,3.1-6.9,6.9-6.9h556.3c3.8,0,6.9,3.1,6.9,6.9V422
	C570,425.7,566.9,428.8,563.1,428.8z"/>
<path class="st14" d="M563.1,428.8H6.9c-3.8,0-6.9-3.1-6.9-6.9V7.1c0-3.8,3.1-6.9,6.9-6.9h556.3c3.8,0,6.9,3.1,6.9,6.9V422
	C570,425.7,566.9,428.8,563.1,428.8z"/>
<path class="st14" d="M563.1,428.8H6.9c-3.8,0-6.9-3.1-6.9-6.9V7.1c0-3.8,3.1-6.9,6.9-6.9h556.3c3.8,0,6.9,3.1,6.9,6.9V422
	C570,425.7,566.9,428.8,563.1,428.8z"/>
<path class="st14" d="M563.1,428.8H6.9c-3.8,0-6.9-3.1-6.9-6.9V7.1c0-3.8,3.1-6.9,6.9-6.9h556.3c3.8,0,6.9,3.1,6.9,6.9V422
	C570,425.7,566.9,428.8,563.1,428.8z"/>
<g>
	<path d="M40,93.9l1.5,2.2h-0.8L39.2,94h-1.6v2.1H37v-5.9h2.4c1.2,0,2.2,0.8,2.2,1.9C41.6,93,40.9,93.7,40,93.9z M37.7,93.3h1.6
		c1,0,1.6-0.5,1.6-1.3s-0.7-1.3-1.6-1.3h-1.6V93.3z M42.3,93.8c0-1.3,1.1-2.3,2.3-2.3s2.3,1.1,2.3,2.3c0,1.3-1,2.3-2.3,2.3
		C43.4,96.2,42.3,95.1,42.3,93.8z M46.2,93.8c0-0.9-0.7-1.7-1.6-1.7c-0.9,0-1.6,0.8-1.6,1.7c0,1,0.7,1.7,1.6,1.7
		C45.5,95.6,46.2,94.8,46.2,93.8z M52.3,93.8c0,1.4-0.9,2.3-2,2.3c-0.7,0-1.3-0.4-1.6-0.9V96H48v-6h0.6v2.4c0.3-0.6,0.9-0.9,1.6-0.9
		C51.5,91.5,52.3,92.5,52.3,93.8z M51.7,93.8c0-1-0.6-1.7-1.5-1.7s-1.5,0.7-1.5,1.7s0.6,1.7,1.5,1.7C51,95.6,51.7,94.9,51.7,93.8z
		 M56.8,95.1l0.4,0.4c-0.4,0.4-1.2,0.7-1.8,0.7c-1.2,0-2.2-1-2.2-2.3s1-2.3,2.2-2.3c1.3,0,2.1,1,2.1,2.6h-3.6
		c0.1,0.9,0.7,1.5,1.6,1.5C56,95.6,56.6,95.4,56.8,95.1z M53.9,93.5h3c-0.1-0.8-0.6-1.4-1.4-1.4C54.6,92.1,54,92.7,53.9,93.5z
		 M61,91.5v0.6c-1,0-1.7,0.6-1.7,1.5v2.5h-0.6v-4.4h0.6v0.9C59.5,91.9,60.1,91.5,61,91.5z M64.1,95.9c-0.2,0.2-0.5,0.3-0.8,0.3
		c-0.6,0-1.1-0.5-1.1-1.1v-2.8h-0.7v-0.6h0.7v-1.2h0.6v1.2h1.1v0.6h-1.1V95c0,0.3,0.2,0.6,0.5,0.6c0.2,0,0.4-0.1,0.5-0.2L64.1,95.9z
		 M65.2,90.2h2.7c1,0,1.6,0.6,1.6,1.5c0,0.6-0.3,1-0.8,1.3c0.7,0.3,1.1,0.9,1.1,1.5c0,0.9-0.7,1.6-1.7,1.6h-2.8
		C65.2,96.1,65.2,90.2,65.2,90.2z M67.7,92.7c0.7,0,1.1-0.4,1.1-0.9s-0.5-0.9-1.1-0.9h-1.9v1.9L67.7,92.7L67.7,92.7z M67.8,95.5
		c0.7,0,1.2-0.5,1.2-1.1s-0.5-1.1-1.2-1.1h-2v2.2H67.8z M70.8,95.7c0-0.3,0.2-0.5,0.5-0.5s0.5,0.2,0.5,0.5s-0.2,0.5-0.5,0.5
		S70.8,96,70.8,95.7z"/>
</g>
<g>
	<path d="M36.8,128.3c0-1.7,1.4-3,3-3c0.8,0,1.6,0.3,2.1,0.9l-0.5,0.5c-0.4-0.5-1-0.7-1.7-0.7c-1.3,0-2.3,1.1-2.3,2.4
		s1.1,2.4,2.3,2.4c0.6,0,1.2-0.3,1.7-0.7l0.5,0.5c-0.5,0.5-1.3,0.9-2.1,0.9C38.2,131.3,36.8,129.9,36.8,128.3z M46.4,128.5v2.7h-0.6
		v-0.7c-0.3,0.5-1,0.8-1.6,0.8c-0.9,0-1.6-0.5-1.6-1.4s0.8-1.5,1.7-1.5c0.5,0,1,0.1,1.4,0.2v-0.2c0-0.6-0.2-1.3-1.2-1.3
		c-0.4,0-0.9,0.2-1.3,0.4l-0.3-0.5c0.6-0.3,1.2-0.4,1.6-0.4C45.8,126.7,46.4,127.4,46.4,128.5L46.4,128.5z M45.8,129.8v-0.7
		c-0.4-0.1-0.9-0.2-1.3-0.2c-0.7,0-1.2,0.4-1.2,0.9s0.5,0.9,1.1,0.9C44.9,130.8,45.6,130.5,45.8,129.8z M54.1,128.4v2.8h-0.6v-2.7
		c0-0.7-0.4-1.2-1-1.2c-0.7,0-1.2,0.5-1.2,1.1v2.8h-0.6v-2.7c0-0.7-0.4-1.2-1-1.2c-0.7,0-1.2,0.5-1.2,1.1v2.8h-0.6v-4.4h0.6v0.7
		c0.2-0.5,0.7-0.8,1.3-0.8c0.7,0,1.2,0.4,1.4,0.9c0.2-0.6,0.8-0.9,1.4-0.9C53.5,126.7,54.1,127.4,54.1,128.4L54.1,128.4z M59.8,129
		c0,1.4-0.9,2.3-2,2.3c-0.7,0-1.3-0.4-1.6-0.9v2.3h-0.6v-5.9h0.6v0.8c0.3-0.6,0.9-0.9,1.6-0.9C58.9,126.7,59.8,127.6,59.8,129
		L59.8,129z M59.1,129c0-1-0.6-1.7-1.5-1.7s-1.5,0.7-1.5,1.7s0.6,1.7,1.5,1.7S59.1,130,59.1,129z M64.6,126.8v4.4H64v-0.7
		c-0.3,0.5-0.8,0.8-1.5,0.8c-1,0-1.7-0.7-1.7-1.7v-2.8h0.6v2.7c0,0.7,0.5,1.2,1.1,1.2c0.7,0,1.4-0.5,1.4-1.1v-2.8L64.6,126.8
		L64.6,126.8z M65.7,130.7l0.3-0.5c0.5,0.4,1,0.6,1.5,0.6c0.6,0,1-0.3,1-0.7c0-0.5-0.5-0.6-1.1-0.8c-1.1-0.3-1.5-0.6-1.5-1.3
		c0-0.8,0.7-1.3,1.6-1.3c0.5,0,1.1,0.2,1.6,0.5l-0.3,0.5c-0.4-0.3-0.9-0.4-1.3-0.4c-0.5,0-0.9,0.2-0.9,0.7c0,0.4,0.3,0.5,1.1,0.8
		c0.7,0.2,1.4,0.5,1.4,1.3s-0.7,1.3-1.6,1.3C66.9,131.3,66.2,131.1,65.7,130.7L65.7,130.7z M73.6,130.2l0.4,0.4
		c-0.4,0.4-1.2,0.7-1.8,0.7c-1.2,0-2.2-1-2.2-2.3s1-2.3,2.2-2.3c1.3,0,2.1,1,2.1,2.6h-3.6c0.1,0.9,0.7,1.5,1.6,1.5
		C72.7,130.7,73.3,130.5,73.6,130.2L73.6,130.2z M70.6,128.7h3c-0.1-0.8-0.6-1.4-1.4-1.4C71.4,127.3,70.7,127.8,70.6,128.7z
		 M75,130.7l0.3-0.5c0.5,0.4,1,0.6,1.5,0.6c0.6,0,1-0.3,1-0.7c0-0.5-0.5-0.6-1.1-0.8c-1.1-0.3-1.5-0.6-1.5-1.3
		c0-0.8,0.7-1.3,1.6-1.3c0.5,0,1.1,0.2,1.6,0.5l-0.3,0.5c-0.4-0.3-0.9-0.4-1.3-0.4c-0.5,0-0.9,0.2-0.9,0.7c0,0.4,0.3,0.5,1.1,0.8
		c0.7,0.2,1.4,0.5,1.4,1.3s-0.7,1.3-1.6,1.3C76.3,131.3,75.6,131.1,75,130.7L75,130.7z"/>
</g>
<g>
	<path d="M38.7,150.3h-2v-0.6h4.6v0.6h-2v5.3h-0.7v-5.3H38.7z M45.8,154.6l0.4,0.4c-0.4,0.4-1.2,0.7-1.8,0.7c-1.2,0-2.2-1-2.2-2.3
		s1-2.3,2.2-2.3c1.3,0,2.1,1,2.1,2.6h-3.6c0.1,0.9,0.7,1.5,1.6,1.5C44.9,155.1,45.5,154.9,45.8,154.6L45.8,154.6z M42.8,153h3
		c-0.1-0.8-0.6-1.4-1.4-1.4C43.6,151.6,42.9,152.2,42.8,153z M51.1,152.9v2.7h-0.6v-0.7c-0.3,0.5-1,0.8-1.6,0.8
		c-0.9,0-1.6-0.5-1.6-1.4s0.8-1.5,1.7-1.5c0.5,0,1,0.1,1.4,0.2v-0.2c0-0.6-0.2-1.3-1.2-1.3c-0.4,0-0.9,0.2-1.3,0.4l-0.3-0.5
		c0.6-0.3,1.2-0.4,1.6-0.4C50.5,151.1,51.1,151.8,51.1,152.9L51.1,152.9z M50.5,154.2v-0.7c-0.4-0.1-0.9-0.2-1.3-0.2
		c-0.7,0-1.2,0.4-1.2,0.9s0.5,0.9,1.1,0.9C49.6,155.1,50.3,154.8,50.5,154.2z M58.8,152.8v2.8h-0.6v-2.7c0-0.7-0.4-1.2-1-1.2
		c-0.7,0-1.2,0.5-1.2,1.1v2.8h-0.6v-2.7c0-0.7-0.4-1.2-1-1.2c-0.7,0-1.2,0.5-1.2,1.1v2.8h-0.6v-4.4H53v0.7c0.2-0.5,0.7-0.8,1.3-0.8
		c0.7,0,1.2,0.4,1.4,0.9c0.2-0.6,0.8-0.9,1.4-0.9C58.1,151.1,58.8,151.8,58.8,152.8L58.8,152.8z M59.8,155l0.3-0.5
		c0.5,0.4,1,0.6,1.5,0.6c0.6,0,1-0.3,1-0.7c0-0.5-0.5-0.6-1.1-0.8c-1.1-0.3-1.5-0.6-1.5-1.3c0-0.8,0.7-1.3,1.6-1.3
		c0.5,0,1.1,0.2,1.6,0.5l-0.3,0.5c-0.4-0.3-0.9-0.4-1.3-0.4c-0.5,0-0.9,0.2-0.9,0.7c0,0.4,0.3,0.5,1.1,0.8c0.7,0.2,1.4,0.5,1.4,1.3
		s-0.7,1.3-1.6,1.3C61,155.7,60.3,155.5,59.8,155L59.8,155z"/>
</g>
<g>
	<path d="M40,175.8l1.5,2.2h-0.8l-1.5-2.1h-1.6v2.1H37v-5.9h2.4c1.2,0,2.2,0.8,2.2,1.9C41.6,174.9,40.9,175.6,40,175.8z M37.7,175.2
		h1.6c1,0,1.6-0.5,1.6-1.3s-0.7-1.3-1.6-1.3h-1.6V175.2L37.7,175.2z M46,176.9l0.4,0.4c-0.4,0.4-1.2,0.7-1.8,0.7
		c-1.2,0-2.2-1-2.2-2.3s1-2.3,2.2-2.3c1.3,0,2.1,1,2.1,2.6H43c0.1,0.9,0.7,1.5,1.6,1.5C45.1,177.5,45.7,177.2,46,176.9L46,176.9z
		 M43,175.4h3c-0.1-0.8-0.6-1.4-1.4-1.4C43.7,174,43.1,174.5,43,175.4z M47.4,177.4l0.3-0.5c0.5,0.4,1,0.6,1.5,0.6
		c0.6,0,1-0.3,1-0.7c0-0.5-0.5-0.6-1.1-0.8c-1.1-0.3-1.5-0.6-1.5-1.3c0-0.8,0.7-1.3,1.6-1.3c0.5,0,1.1,0.2,1.6,0.5l-0.3,0.5
		c-0.4-0.3-0.9-0.4-1.3-0.4c-0.5,0-0.9,0.2-0.9,0.7c0,0.4,0.3,0.5,1.1,0.8c0.7,0.2,1.4,0.5,1.4,1.3s-0.7,1.3-1.6,1.3
		C48.6,178.1,47.9,177.8,47.4,177.4L47.4,177.4z M51.7,175.7c0-1.3,1.1-2.3,2.3-2.3s2.3,1.1,2.3,2.3c0,1.3-1,2.3-2.3,2.3
		C52.7,178.1,51.7,177,51.7,175.7z M55.6,175.7c0-0.9-0.7-1.7-1.6-1.7c-0.9,0-1.6,0.8-1.6,1.7c0,1,0.7,1.7,1.6,1.7
		C54.8,177.5,55.6,176.7,55.6,175.7z M61.1,173.5v4.4h-0.6v-0.7c-0.3,0.5-0.8,0.8-1.5,0.8c-1,0-1.7-0.7-1.7-1.7v-2.8H58v2.7
		c0,0.7,0.5,1.2,1.1,1.2c0.7,0,1.4-0.5,1.4-1.1v-2.8L61.1,173.5L61.1,173.5z M64.8,173.4v0.6c-1,0-1.7,0.6-1.7,1.5v2.5h-0.6v-4.4
		h0.6v0.9C63.4,173.8,64,173.4,64.8,173.4L64.8,173.4z M65.5,175.7c0-1.3,1.1-2.3,2.3-2.3c0.6,0,1.2,0.2,1.6,0.7l-0.4,0.4
		c-0.3-0.3-0.7-0.5-1.1-0.5c-0.9,0-1.6,0.8-1.6,1.7c0,1,0.7,1.7,1.6,1.7c0.4,0,0.9-0.2,1.2-0.5l0.4,0.4c-0.4,0.4-1,0.7-1.6,0.7
		C66.5,178.1,65.5,177,65.5,175.7L65.5,175.7z M73.7,176.9l0.4,0.4c-0.4,0.4-1.2,0.7-1.8,0.7c-1.2,0-2.2-1-2.2-2.3s1-2.3,2.2-2.3
		c1.3,0,2.1,1,2.1,2.6h-3.6c0.1,0.9,0.7,1.5,1.6,1.5C72.9,177.5,73.5,177.2,73.7,176.9L73.7,176.9z M70.8,175.4h3
		c-0.1-0.8-0.6-1.4-1.4-1.4C71.5,174,70.9,174.5,70.8,175.4z M75.2,177.4l0.3-0.5c0.5,0.4,1,0.6,1.5,0.6c0.6,0,1-0.3,1-0.7
		c0-0.5-0.5-0.6-1.1-0.8c-1.1-0.3-1.5-0.6-1.5-1.3c0-0.8,0.7-1.3,1.6-1.3c0.5,0,1.1,0.2,1.6,0.5l-0.3,0.5c-0.4-0.3-0.9-0.4-1.3-0.4
		c-0.5,0-0.9,0.2-0.9,0.7c0,0.4,0.3,0.5,1.1,0.8c0.7,0.2,1.4,0.5,1.4,1.3s-0.7,1.3-1.6,1.3C76.4,178.1,75.7,177.8,75.2,177.4
		L75.2,177.4z"/>
</g>
<g>
	<path d="M37,382.6h0.7v5.9H37V382.6z M42.8,385.6v2.8h-0.6v-2.7c0-0.7-0.5-1.2-1.1-1.2c-0.7,0-1.4,0.5-1.4,1.1v2.8H39V384h0.6v0.7
		c0.3-0.5,0.8-0.8,1.5-0.8C42.1,383.9,42.8,384.6,42.8,385.6L42.8,385.6z M43.7,384h0.7l1.5,3.7l1.4-3.7H48l-1.9,4.4h-0.6L43.7,384z
		 M48.8,382.8c0-0.2,0.2-0.4,0.4-0.4s0.4,0.2,0.4,0.4c0,0.2-0.2,0.4-0.4,0.4C49,383.2,48.8,383,48.8,382.8z M48.9,384h0.6v4.4h-0.6
		V384z M53.1,388.3c-0.2,0.2-0.5,0.3-0.8,0.3c-0.6,0-1.1-0.5-1.1-1.1v-2.8h-0.7V384h0.7v-1.2h0.6v1.2h1.1v0.6h-1.1v2.8
		c0,0.3,0.2,0.6,0.5,0.6c0.2,0,0.4-0.1,0.5-0.2L53.1,388.3L53.1,388.3z M57.4,387.5l0.4,0.4c-0.4,0.4-1.2,0.7-1.8,0.7
		c-1.2,0-2.2-1-2.2-2.3s1-2.3,2.2-2.3c1.3,0,2.1,1,2.1,2.6h-3.6c0.1,0.9,0.7,1.5,1.6,1.5C56.5,388,57.1,387.8,57.4,387.5L57.4,387.5
		z M54.4,385.9h3c-0.1-0.8-0.6-1.4-1.4-1.4C55.2,384.5,54.6,385.1,54.4,385.9z M61.8,382.6h0.7l2.2,4.1l2.2-4.1h0.7v5.9h-0.7V384
		l-2.2,4.1l-2.2-4.1v4.4h-0.7C61.8,388.4,61.8,382.6,61.8,382.6z M72.3,387.5l0.4,0.4c-0.4,0.4-1.2,0.7-1.8,0.7
		c-1.2,0-2.2-1-2.2-2.3s1-2.3,2.2-2.3c1.3,0,2.1,1,2.1,2.6h-3.6c0.1,0.9,0.7,1.5,1.6,1.5C71.4,388,72,387.8,72.3,387.5L72.3,387.5z
		 M69.4,385.9h3c-0.1-0.8-0.6-1.4-1.4-1.4C70.1,384.5,69.5,385.1,69.4,385.9z M80.4,385.6v2.8h-0.6v-2.7c0-0.7-0.4-1.2-1-1.2
		c-0.7,0-1.2,0.5-1.2,1.1v2.8H77v-2.7c0-0.7-0.4-1.2-1-1.2c-0.7,0-1.2,0.5-1.2,1.1v2.8H74V384h0.6v0.7c0.2-0.5,0.7-0.8,1.3-0.8
		c0.7,0,1.2,0.4,1.4,0.9c0.2-0.6,0.8-0.9,1.4-0.9C79.7,383.9,80.4,384.6,80.4,385.6L80.4,385.6z M86,386.2c0,1.4-0.9,2.3-2,2.3
		c-0.7,0-1.3-0.4-1.6-0.9v0.8h-0.6v-6h0.6v2.4c0.3-0.6,0.9-0.9,1.6-0.9C85.2,383.9,86,384.9,86,386.2L86,386.2z M85.4,386.2
		c0-1-0.6-1.7-1.5-1.7s-1.5,0.7-1.5,1.7s0.6,1.7,1.5,1.7C84.8,388,85.4,387.3,85.4,386.2z M90.6,387.5l0.4,0.4
		c-0.4,0.4-1.2,0.7-1.8,0.7c-1.2,0-2.2-1-2.2-2.3s1-2.3,2.2-2.3c1.3,0,2.1,1,2.1,2.6h-3.6c0.1,0.9,0.7,1.5,1.6,1.5
		C89.7,388,90.3,387.8,90.6,387.5L90.6,387.5z M87.6,385.9h3c-0.1-0.8-0.6-1.4-1.4-1.4C88.3,384.5,87.7,385.1,87.6,385.9z
		 M94.7,383.9v0.6c-1,0-1.7,0.6-1.7,1.5v2.5h-0.6V384H93v0.9C93.2,384.3,93.9,383.9,94.7,383.9L94.7,383.9z"/>
</g>
<g>
	<path d="M36.7,410.8l0.4-0.5c0.5,0.5,1.1,0.8,1.9,0.8c0.9,0,1.4-0.5,1.4-1c0-0.6-0.6-0.9-1.6-1.1c-1.2-0.3-1.9-0.6-1.9-1.7
		c0-0.9,0.8-1.7,2-1.7c0.9,0,1.5,0.3,2.1,0.8l-0.4,0.5c-0.5-0.5-1.1-0.8-1.7-0.8c-0.7,0-1.3,0.5-1.3,1c0,0.6,0.6,0.8,1.6,1.1
		c1.1,0.3,1.9,0.7,1.9,1.7c0,0.9-0.7,1.7-2.1,1.7C38.1,411.7,37.3,411.4,36.7,410.8z M45.6,410.6L46,411c-0.4,0.4-1.2,0.7-1.8,0.7
		c-1.2,0-2.2-1-2.2-2.3s1-2.3,2.2-2.3c1.3,0,2.1,1,2.1,2.6h-3.6c0.1,0.9,0.7,1.5,1.6,1.5C44.8,411.2,45.4,410.9,45.6,410.6
		L45.6,410.6z M42.7,409.1h3c-0.1-0.8-0.6-1.4-1.4-1.4C43.4,407.7,42.8,408.2,42.7,409.1z M49.6,411.4c-0.2,0.2-0.5,0.3-0.8,0.3
		c-0.6,0-1.1-0.5-1.1-1.1v-2.8H47v-0.6h0.7V406h0.6v1.2h1.1v0.6h-1.1v2.8c0,0.3,0.2,0.6,0.5,0.6c0.2,0,0.4-0.1,0.5-0.2L49.6,411.4
		L49.6,411.4z M52.8,411.4c-0.2,0.2-0.5,0.3-0.8,0.3c-0.6,0-1.1-0.5-1.1-1.1v-2.8h-0.7v-0.6h0.7V406h0.6v1.2h1.1v0.6h-1.1v2.8
		c0,0.3,0.2,0.6,0.5,0.6c0.2,0,0.4-0.1,0.5-0.2L52.8,411.4L52.8,411.4z M53.6,406c0-0.2,0.2-0.4,0.4-0.4s0.4,0.2,0.4,0.4
		c0,0.2-0.2,0.4-0.4,0.4S53.6,406.2,53.6,406z M53.7,407.2h0.6v4.4h-0.6V407.2z M59.4,408.8v2.8h-0.6v-2.7c0-0.7-0.5-1.2-1.1-1.2
		c-0.7,0-1.4,0.5-1.4,1.1v2.8h-0.6v-4.4h0.6v0.7c0.3-0.5,0.8-0.8,1.5-0.8C58.7,407.1,59.4,407.8,59.4,408.8L59.4,408.8z M64.8,407.2
		v4c0,1.1-0.9,1.9-2.2,1.9c-0.7,0-1.4-0.2-1.8-0.6l0.3-0.5c0.3,0.3,0.9,0.5,1.4,0.5c1,0,1.6-0.5,1.6-1.4v-0.7
		c-0.3,0.5-0.9,0.9-1.6,0.9c-1.2,0-2-0.9-2-2.1s0.8-2.1,2-2.1c0.7,0,1.3,0.3,1.6,0.9v-0.8L64.8,407.2L64.8,407.2z M64.1,409.2
		c0-0.9-0.6-1.5-1.5-1.5s-1.5,0.6-1.5,1.5s0.6,1.5,1.5,1.5S64.1,410.1,64.1,409.2z M65.9,411.1l0.3-0.5c0.5,0.4,1,0.6,1.5,0.6
		c0.6,0,1-0.3,1-0.7c0-0.5-0.5-0.6-1.1-0.8c-1.1-0.3-1.5-0.6-1.5-1.3c0-0.8,0.7-1.3,1.6-1.3c0.5,0,1.1,0.2,1.6,0.5l-0.3,0.5
		c-0.4-0.3-0.9-0.4-1.3-0.4c-0.5,0-0.9,0.2-0.9,0.7c0,0.4,0.3,0.5,1.1,0.8c0.7,0.2,1.4,0.5,1.4,1.3s-0.7,1.3-1.6,1.3
		C67.1,411.7,66.4,411.5,65.9,411.1z"/>
</g>
<g>
	<path class="st7" d="M19.9,28.3c-0.1-0.3-0.2-0.7-0.3-1c-0.3-1.5-0.7-3-0.7-4.6c0.1-1.1,0.4-2.1,1.1-2.9c0.8-0.9,1.8-1.4,2.9-1.5
		c1.4-0.2,2.8-0.1,4.1,0.6c0.8,0.4,1.4,1.1,1.7,1.9c0.4,0.8,0.5,1.7,0.4,2.6c0,0.1,0.1,0.3,0.2,0.4c0.5,0.4,0.6,1.1,0.2,1.6
		c-0.3,0.4-1.1,0.6-1.5,0.3c-0.7-0.5-0.8-1.4,0-1.9c0.3-0.2,0.4-0.4,0.4-0.8c0-0.9-0.2-1.8-0.7-2.5s-1.2-1.2-2-1.4
		c-1.2-0.3-2.4-0.3-3.6,0.1c-1.1,0.4-1.8,1.1-2.2,2.1c-0.3,0.8-0.4,1.7-0.2,2.5c0.2,1,0.4,2,0.6,3.1c0.4,2.1,0.8,4.3,0.7,6.5
		c0,0.9,0.5,1.2,1.4,1.1C22,33.8,22,33.1,22,32.4c0-1.3,0-2.6-0.3-3.8c-0.1-0.6-0.3-1.2-0.4-1.8c-0.2-1.2-0.5-2.4-0.1-3.7
		c0.2-0.7,0.5-1.3,1.1-1.7c0.9-0.6,2-0.7,3-0.2c1.2,0.6,1.6,1.7,1.7,2.9c0.1,1-0.1,2-0.3,2.9c0,0.1,0,0.3,0.1,0.4
		c0.4,0.5,0.5,0.9,0.2,1.5c-0.2,0.4-1,0.7-1.4,0.4c-0.5-0.2-0.7-0.7-0.6-1.3c0.1-0.5,0.4-0.7,0.8-0.8c0.1,0,0.2-0.1,0.2-0.2
		c0.4-1.2,0.7-2.4,0.3-3.6c-0.1-0.4-0.3-0.9-0.7-1.2c-1-0.8-2.4-0.7-3.2,0.2c-0.5,0.6-0.7,1.3-0.7,2s0.1,1.3,0.2,2
		c0.6,2,0.8,4,0.8,6.1c0,0.4,0,0.7,0,1c0.1,0.7,0.4,1,1.2,1c-0.4-1.2-0.3-2.3-0.3-3.5c0-1.7,0-3.3,0-5c0-0.2,0-0.4-0.3-0.5
		s-0.5-0.8-0.4-1.2c0.3-0.9,1.2-1.2,1.9-0.6c0.5,0.4,0.4,1.5-0.2,1.8c-0.1,0.1-0.2,0.2-0.2,0.4c0,2.3,0,4.6,0,6.9
		c0,0.3,0,0.6,0.1,0.9c0,0.6,0.5,0.9,1.2,0.9c0.4,0,0.9-0.1,1.3,0.2c0.8,0.5,0.9,1.4,0.5,2c-0.4,0.5-0.8,0.6-1.3,0.6
		c-1.1,0-2.2,0-3.3,0c-0.6,0-0.9,0.4-0.7,0.9c0,0.1,0.2,0.3,0.3,0.3c0.5,0.1,1,0.1,1.6,0.1c0.1,0,0.2-0.1,0.3-0.2
		c0.4-0.6,1.2-0.7,1.8-0.2c0.3,0.3,0.4,1,0.2,1.4c-0.2,0.4-0.8,0.7-1.2,0.5c-0.2-0.1-0.5-0.2-0.6-0.4c-0.2-0.2-0.4-0.4-0.7-0.3
		c-0.3,0-0.7,0-1,0c-0.7,0-1.1-0.4-1.3-1c-0.2-0.6,0-1.1,0.4-1.5c0.2-0.2,0.6-0.3,1-0.3c1.1,0,2.3,0,3.4,0c0.6,0,1.1-0.6,0.7-1.1
		c-0.1-0.1-0.3-0.3-0.5-0.3c-1.4,0-2.8,0-4.1,0c-0.7,0-1.4-0.3-1.8-1c-0.1-0.1-0.2-0.3-0.2-0.5c0-1.2-0.2-2.4-0.5-3.5
		c-0.2-0.6-0.4-1.1-0.7-1.6c-0.6-1.3-1.4-2.4-1.9-3.7c-0.5-1.2-0.6-2.5-0.2-3.8c0.3-1.1,0.9-2.1,1.7-3c0.9-1,2.1-1.8,3.4-2.1
		c1.2-0.3,2.4-0.3,3.6-0.1c1.3,0.2,2.4,0.8,3.3,1.6c1.5,1.3,2.4,2.9,2.5,4.9c0,0.6-0.1,1.3-0.3,2c-0.2,1.1-0.8,2.1-1.4,3.1
		c-0.5,0.9-0.9,1.8-1.3,2.7c-0.1,0.2-0.1,0.4,0.1,0.5c0.4,0.3,0.4,1.1,0.1,1.5c-0.2,0.4-0.9,0.5-1.3,0.4c-0.6-0.2-0.9-0.7-0.8-1.3
		c0.1-0.4,0.4-0.8,0.8-0.9c0.3-0.1,0.4-0.3,0.4-0.5c0.3-0.6,0.5-1.2,0.8-1.8c0.7-1.4,1.6-2.7,2-4.3c0.2-1.1,0.2-2.2-0.2-3.3
		c-0.5-1.3-1.4-2.4-2.6-3.1c-0.9-0.6-1.9-0.9-3-1c-1.5-0.2-2.9,0.2-4.2,0.9c-0.9,0.5-1.7,1.2-2.2,2.2c-0.2,0.4-0.4,0.7-0.5,1.1
		c-0.2,0.5-0.3,1-0.4,1.6c-0.1,1,0.1,2,0.5,2.9c0.3,0.7,0.8,1.4,1.2,2.1C19.4,27.7,19.6,28.1,19.9,28.3
		C19.8,28.4,19.8,28.4,19.9,28.3L19.9,28.3z M26.1,27.8c-0.3,0-0.5,0.2-0.5,0.5s0.2,0.5,0.5,0.5s0.5-0.2,0.5-0.5
		S26.4,27.8,26.1,27.8z M28.3,31.6c0-0.3-0.3-0.5-0.6-0.5c-0.3,0-0.5,0.3-0.4,0.6c0,0.3,0.2,0.5,0.5,0.5
		C28.1,32.1,28.3,31.9,28.3,31.6z M24.6,24.5c0-0.4-0.1-0.5-0.5-0.5c-0.3,0-0.5,0.1-0.5,0.5s0.2,0.5,0.5,0.5S24.6,24.9,24.6,24.5z
		 M28.2,24.8c0,0.4,0.2,0.6,0.5,0.6s0.6-0.3,0.6-0.6c0-0.3-0.3-0.5-0.6-0.5S28.2,24.5,28.2,24.8z M25.3,39.6c0.3,0,0.6-0.2,0.6-0.5
		s-0.2-0.5-0.5-0.5c-0.4,0-0.5,0.2-0.5,0.5C24.8,39.4,25,39.6,25.3,39.6z M24.4,13.8c0,0.3,0,0.5,0,0.8c0,0.2-0.2,0.3-0.3,0.4
		c-0.1-0.1-0.3-0.3-0.3-0.4c0-0.5,0-1.1,0-1.6c0-0.1,0.2-0.3,0.3-0.3s0.3,0.2,0.3,0.3C24.5,13.2,24.4,13.5,24.4,13.8z M26.3,14.9
		c0.1-0.5,0.3-1,0.4-1.5c0-0.1,0.3-0.2,0.4-0.2s0.2,0.2,0.2,0.3c-0.1,0.5-0.2,0.9-0.4,1.3c0,0.1-0.2,0.2-0.4,0.2
		C26.5,15.2,26.4,15,26.3,14.9z M19.5,15.9c-0.1,0.2-0.2,0.4-0.3,0.4c-0.1,0-0.3,0-0.4-0.1c-0.3-0.4-0.5-0.8-0.7-1.2
		c-0.1-0.1,0-0.3,0.1-0.4c0.1-0.1,0.3-0.1,0.4,0C18.9,15,19.2,15.5,19.5,15.9z M28.7,15.9c0.3-0.5,0.6-0.9,0.9-1.3
		c0-0.1,0.3-0.1,0.4,0s0.1,0.3,0.1,0.4c-0.2,0.4-0.5,0.8-0.8,1.2c-0.1,0.1-0.3,0.2-0.4,0.1C28.9,16.3,28.8,16.1,28.7,15.9z
		 M21.8,14.9c-0.1,0.1-0.2,0.3-0.3,0.3c-0.1,0-0.4-0.1-0.4-0.2c-0.2-0.5-0.3-1-0.4-1.5c0-0.1,0.1-0.3,0.2-0.3s0.4,0.1,0.4,0.2
		C21.6,13.9,21.7,14.4,21.8,14.9z M17.4,17.7c0,0.2-0.3,0.5-0.5,0.3c-0.4-0.3-0.8-0.6-1.1-1c-0.1-0.1,0-0.3,0.1-0.4s0.3-0.2,0.4-0.1
		c0.4,0.3,0.8,0.7,1.1,1C17.4,17.6,17.4,17.7,17.4,17.7z M32.4,16.8c0,0.3-1.1,1.3-1.3,1.2c-0.1,0-0.3-0.1-0.3-0.2s0-0.2,0.1-0.3
		c0.3-0.3,0.5-0.5,0.8-0.8c0.1-0.1,0.3-0.1,0.4-0.1C32.3,16.6,32.3,16.8,32.4,16.8z M15.6,20.4c-0.4-0.2-0.8-0.4-1.3-0.6
		c-0.1,0-0.1-0.3-0.1-0.3c0.1-0.1,0.3-0.2,0.4-0.2c0.4,0.1,0.8,0.3,1.1,0.5c0.1,0,0.2,0.3,0.1,0.4C16,20.2,15.8,20.3,15.6,20.4z
		 M32.5,20.4c-0.1-0.1-0.3-0.2-0.3-0.3c0-0.1,0-0.3,0.1-0.4c0.4-0.2,0.7-0.4,1.1-0.5c0.1,0,0.3,0.1,0.4,0.2c0,0-0.1,0.3-0.2,0.3
		C33.3,20,32.9,20.2,32.5,20.4z M33.6,23.2c-0.2,0-0.3,0-0.5,0c-0.1-0.1-0.3-0.2-0.4-0.3c0.1-0.1,0.2-0.3,0.3-0.4c0.3,0,0.7,0,1,0
		c0.1,0,0.2,0.2,0.2,0.4c0,0.1-0.2,0.2-0.3,0.3C34,23.2,33.8,23.2,33.6,23.2z M14.5,23.2c-0.2,0-0.4,0-0.5,0S13.8,23,13.8,23
		c0-0.1,0.1-0.3,0.2-0.3c0.4,0,0.8,0,1.2,0c0.1,0,0.2,0.2,0.2,0.3c0,0.1-0.2,0.2-0.3,0.2C14.9,23.2,14.7,23.2,14.5,23.2z M32.8,25
		c0.4,0.1,0.7,0.2,0.9,0.3c0.1,0.1,0.2,0.3,0.2,0.4s-0.2,0.3-0.3,0.2c-0.3,0-0.7-0.1-1-0.2c-0.1,0-0.2-0.3-0.2-0.4
		C32.5,25.1,32.7,25.1,32.8,25z M15.4,25c0.1,0.1,0.4,0.2,0.4,0.3c0,0.1-0.1,0.4-0.3,0.4c-0.3,0.1-0.6,0.2-0.9,0.2
		c-0.1,0-0.3-0.1-0.3-0.2s0.1-0.3,0.2-0.4C14.7,25.1,15,25.1,15.4,25z M16.7,27.5c-0.1,0.2-0.2,0.3-0.3,0.4
		c-0.2,0.1-0.4,0.2-0.6,0.3c-0.2,0-0.3-0.1-0.4-0.2c-0.1-0.1,0-0.4,0.1-0.4c0.2-0.1,0.5-0.2,0.8-0.3C16.4,27.2,16.6,27.4,16.7,27.5z
		 M32.4,28.2c-0.3-0.2-0.6-0.3-0.8-0.4c-0.1-0.1-0.1-0.3-0.1-0.4s0.2-0.2,0.3-0.2c0.3,0.1,0.6,0.2,0.8,0.3c0.1,0,0.1,0.3,0.1,0.4
		C32.7,28.1,32.5,28.1,32.4,28.2z M30.8,29.2c0.4,0,0.8,0.3,0.7,0.5c0,0.1-0.2,0.3-0.4,0.3c-0.2,0.1-0.7-0.4-0.6-0.6
		C30.6,29.3,30.7,29.2,30.8,29.2z M17.6,29.4c0,0.3-0.4,0.7-0.6,0.6c-0.1,0-0.3-0.2-0.4-0.4c-0.1-0.2,0.4-0.5,0.7-0.5
		C17.4,29.2,17.6,29.3,17.6,29.4z M63.9,25.1c1.4-1.4,3-1.6,4.6-0.8c0.5,0.3,0.9,0.7,1.3,1.1c0.1,0.2,0.2,0.3,0.4,0
		c1.4-1.9,3.8-2.2,5.5-0.7c0.8,0.7,1.2,1.6,1.2,2.7c0,1.5,0,3,0,4.6c0,0.3-0.1,0.6-0.4,0.6c-0.4,0-0.4-0.3-0.4-0.6
		c0-1.4,0-2.8,0-4.3c0-1-0.4-1.9-1.1-2.5c-0.4-0.4-1-0.6-1.7-0.6c-1.7,0-3,1.2-2.9,2.9c0,1.5,0,2.9,0,4.4c0,0.3,0,0.5-0.3,0.6
		c-0.3,0.1-0.6-0.1-0.6-0.6c0-1.4,0-2.8,0-4.2c0-1-0.2-1.9-1-2.5c-1.5-1.1-3.4-0.6-4.2,0.6c-0.3,0.5-0.4,1-0.4,1.5
		c0,1.5,0,3.1,0,4.6c0,0.4-0.3,0.7-0.6,0.5C63,32.3,63,32,63,31.8V25c0-0.3,0-0.5,0-0.8s0.1-0.5,0.5-0.5s0.5,0.2,0.5,0.5
		C63.9,24.6,63.9,24.9,63.9,25.1z M112.6,26.4v-5.6c0-0.2,0-0.5,0.2-0.6c0.3-0.2,0.7,0,0.7,0.5c0,1.4,0,2.7,0,4.1c0,1.3,0,2.5,0,3.8
		c0,0.1-0.1,0.3,0.1,0.3c0.1,0.1,0.2-0.1,0.3-0.1c0.5-0.7,1.2-1.2,1.8-1.8c0.6-0.6,1.2-1.2,1.9-1.8c0.4-0.3,0.6-0.7,1-1
		c0.2-0.1,0.3-0.3,0.5-0.4s0.4,0,0.5,0.1c0.1,0.2,0,0.3-0.1,0.5c-0.7,0.7-1.4,1.4-2.1,2.1c-0.4,0.4-0.7,0.9-1.2,1.2
		c-0.1,0.1,0,0.2,0.1,0.3c0.9,1.1,1.9,2.2,2.8,3.3c0.2,0.2,0.3,0.5,0.5,0.7c0.1,0.1,0.2,0.3,0,0.5c-0.1,0.2-0.3,0.2-0.5,0.2
		c-0.2-0.1-0.3-0.2-0.5-0.3c-1-1.2-2.1-2.4-3.1-3.6c-0.1-0.1-0.2-0.1-0.4,0c-0.6,0.4-1,1.1-1.6,1.5c-0.1,0.1-0.1,0.2-0.1,0.4
		c0,0.5,0,1,0,1.5c0,0.3,0,0.6-0.4,0.6s-0.5-0.3-0.5-0.6c0-0.7,0-1.5,0-2.2C112.6,28.7,112.6,27.6,112.6,26.4z M107.6,23.9
		c1-0.1,1.9,0.4,2.7,1c0.2,0.1,0.3,0.3,0.2,0.5c-0.2,0.2-0.4,0.3-0.6,0.2c-0.4-0.2-0.8-0.5-1.2-0.6c-1-0.4-1.9-0.3-2.7,0.2
		c-0.4,0.2-0.6,0.6-0.6,1.1s0.3,0.8,0.7,1c0.4,0.2,0.9,0.4,1.4,0.4c1.1,0.1,2.1,0.4,2.9,1.2c0.9,0.8,0.7,2,0.1,2.8
		c-0.8,1-1.9,1.2-3.1,1.1c-1.1-0.1-2.1-0.4-2.9-1.2c-0.2-0.2-0.3-0.3-0.2-0.6c0.2-0.3,0.4-0.2,0.6-0.1c0.8,0.5,1.6,0.9,2.6,1
		c0.8,0.1,1.6-0.2,2.2-0.7c0.3-0.3,0.5-0.6,0.4-1.1c-0.2-0.5-0.5-0.9-1-1.1c-0.8-0.2-1.6-0.4-2.4-0.6c-0.6-0.1-1.1-0.5-1.7-0.8
		c-0.6-0.4-0.7-1.8-0.2-2.4C105.5,24.2,106.5,23.9,107.6,23.9L107.6,23.9z M60.4,27c0,0.7,0,1.4,0,2.1c0,1.6-1,3.1-2.5,3.5
		c-1.3,0.4-2.7,0.4-3.8-0.7c-0.8-0.8-1.1-1.7-1.2-2.8c0-1.4,0-2.9,0-4.3v-0.3c0-0.3,0.1-0.5,0.4-0.5c0.3,0,0.4,0.2,0.4,0.5
		c0,0.7,0,1.5,0,2.2v2.6c0,0.8,0.3,1.4,0.8,1.9c0.8,0.8,2.2,0.9,3.2,0.4c1.1-0.5,1.5-1.4,1.5-2.5c0-1.5,0-3,0-4.5
		c0-0.2,0-0.5,0.3-0.6c0.4-0.2,0.7,0.1,0.7,0.5C60.4,25.3,60.4,26.1,60.4,27z M50,26.4v-5.6c0-0.3,0-0.6,0.4-0.6
		c0.3,0,0.5,0.1,0.5,0.4c0,0.1,0,0.3,0,0.4v10.9c0,0.3,0.1,0.8-0.4,0.8c-0.6,0-0.5-0.5-0.5-0.8C50,30.1,50,28.2,50,26.4z M46.9,26.4
		v-5.6c0-0.3,0-0.7,0.5-0.6c0.2,0,0.4,0.1,0.4,0.4c0,0.1,0,0.2,0,0.4v11c0,0.1,0,0.3,0,0.4c0,0.3-0.3,0.3-0.5,0.3s-0.4-0.1-0.4-0.3
		s0-0.4,0-0.5C46.9,30.1,46.9,28.3,46.9,26.4z M44.4,28.4c0,1.2,0,2.5,0,3.7c0,0.4-0.1,0.6-0.5,0.6s-0.5-0.3-0.5-0.6
		c0-2.5,0-5.1,0-7.6c0-0.4,0.1-0.6,0.5-0.6s0.5,0.3,0.5,0.6C44.4,25.8,44.4,27.1,44.4,28.4z M79.3,28.3v-3.8c0-0.3,0-0.7,0.5-0.7
		c0.4,0,0.4,0.3,0.4,0.7c0,2.5,0,5.1,0,7.6c0,0.3-0.1,0.6-0.4,0.6c-0.4,0-0.5-0.2-0.5-0.6C79.3,30.9,79.3,29.6,79.3,28.3z
		 M91.2,22.6c-1-1.2-2.1-1.9-3.5-2.3c-1.3-0.3-2.6-0.2-4-0.1c-0.4,0-0.5,0.3-0.5,0.7c0,1.9,0,3.7,0,5.6V32c0,0.6,0.1,0.7,0.7,0.7
		c0.8,0,1.6,0,2.3,0c1,0,2.1-0.2,3-0.7c1.5-0.9,2.6-2,3.1-3.7C93,26.2,92.6,24.3,91.2,22.6z M91.7,27.3c-0.2,1.2-0.7,2.2-1.6,3
		c-1.2,1.1-2.5,1.5-4,1.5c-0.5,0-0.9,0-1.4,0c-0.4,0-0.5-0.1-0.5-0.5c0-1.6,0-3.3,0-5c0-1.6,0-3.2,0-4.9c0-0.4,0.1-0.5,0.5-0.5
		c1.3,0,2.5,0,3.7,0.4c0.2,0.1,0.4,0.2,0.6,0.3C91,22.9,92.1,25.2,91.7,27.3z M103.2,27.8c-0.3-1.8-1.3-3-3-3.7
		c-2.6-1-5.6,0.9-5.8,3.8c-0.1,1.2,0.2,2.4,1.1,3.3c0.8,0.8,1.7,1.4,2.9,1.4c1.7,0.1,3-0.4,4-1.8c0.2-0.2,0.3-0.5,0-0.7
		s-0.5-0.1-0.7,0.2c-0.4,0.6-1,1-1.7,1.3c-1.8,0.7-4.1-0.3-4.7-2.6c-0.1-0.4,0-0.5,0.4-0.5c1.1,0,2.3,0,3.4,0s2.3,0,3.5,0
		C103.1,28.5,103.3,28.3,103.2,27.8z M101.6,27.7h-2.9c-1,0-2,0-3,0c-0.4,0-0.5-0.1-0.3-0.5c0.7-1.9,2.4-2.7,4.1-2.3
		c1,0.2,1.7,0.9,2.3,1.7c0.1,0.1,0.2,0.3,0.2,0.5C102.2,27.5,102.1,27.7,101.6,27.7z M79.8,20.5c-0.6,0-1,0.5-1,1.1
		c0,0.7,0.3,1.1,1,1.1c0.6,0,1.1-0.4,1.1-1S80.3,20.5,79.8,20.5z M79.8,22.1c-0.2-0.1-0.4-0.2-0.4-0.4c0-0.3,0.2-0.4,0.4-0.4
		c0.2,0,0.4,0.1,0.4,0.4C80.2,21.9,80.1,22.1,79.8,22.1z M43.9,20.5c-0.5,0-1,0.5-1.1,1.1c0,0.6,0.4,1.1,1,1.1s1.1-0.4,1.1-1
		C45,21.1,44.4,20.5,43.9,20.5z M43.9,22.1c-0.3,0-0.4-0.2-0.5-0.4c0-0.3,0.2-0.4,0.5-0.4c0.2,0,0.4,0.1,0.4,0.4
		C44.3,21.9,44.1,22.1,43.9,22.1z"/>
</g>
<g>
	<path class="st15" d="M534.1,35.8c-0.1-0.5-0.3-1.1-0.4-1.6c-0.5-2.4-1.2-4.8-1.1-7.3c0.1-1.7,0.6-3.3,1.7-4.6
		c1.2-1.4,2.8-2.2,4.7-2.5c2.3-0.3,4.5-0.2,6.5,1c1.3,0.7,2.2,1.7,2.8,3.1c0.6,1.3,0.8,2.7,0.7,4.2c0,0.2,0.1,0.5,0.3,0.7
		c0.7,0.7,0.9,1.7,0.4,2.5c-0.5,0.7-1.7,1-2.5,0.5c-1.1-0.8-1.3-2.2,0-3.1c0.5-0.3,0.7-0.7,0.7-1.2c0-1.5-0.3-2.8-1.1-4.1
		c-0.8-1.1-1.9-1.8-3.2-2.2c-1.9-0.5-3.9-0.5-5.8,0.1c-1.7,0.6-2.8,1.7-3.5,3.3c-0.5,1.3-0.6,2.6-0.4,4c0.2,1.6,0.6,3.3,0.9,4.9
		c0.7,3.4,1.3,6.9,1.2,10.4c-0.1,1.4,0.8,2,2.3,1.8c-0.6-1.1-0.6-2.2-0.6-3.4c0-2.1-0.1-4.1-0.5-6.1c-0.2-1-0.4-1.9-0.6-2.9
		c-0.4-1.9-0.7-3.9-0.2-5.9c0.3-1.2,0.9-2.1,1.8-2.8c1.5-1,3.1-1.2,4.8-0.4c2,0.9,2.5,2.7,2.7,4.6c0.2,1.6-0.2,3.1-0.5,4.7
		c0,0.2,0,0.5,0.2,0.7c0.7,0.9,0.7,1.5,0.3,2.3c-0.4,0.7-1.6,1-2.3,0.7c-0.8-0.4-1.2-1.2-1-2.1c0.1-0.7,0.6-1,1.2-1.3
		c0.1-0.1,0.3-0.2,0.4-0.3c0.7-1.9,1-3.8,0.4-5.8c-0.2-0.7-0.4-1.4-1.1-1.9c-1.5-1.2-3.8-1.2-5.1,0.3c-0.8,0.9-1.1,2.1-1.1,3.2
		c0,1,0.1,2.1,0.4,3.1c1,3.2,1.2,6.4,1.2,9.8c0,0.6,0,1.1,0.1,1.7c0.1,1.2,0.7,1.6,2,1.6c-0.7-1.8-0.5-3.7-0.5-5.6
		c0-2.6,0-5.3,0-7.9c0-0.4,0-0.7-0.5-0.9c-0.5-0.2-0.9-1.3-0.7-1.9c0.4-1.5,1.9-1.9,3.1-1c0.9,0.7,0.7,2.4-0.3,2.9
		c-0.2,0.1-0.4,0.4-0.4,0.6c0,3.7,0,7.3,0,11c0,0.5,0.1,1,0.1,1.5c0.1,0.9,0.8,1.5,1.9,1.5c0.7,0,1.4-0.1,2.1,0.3
		c1.3,0.8,1.5,2.2,0.7,3.1c-0.6,0.7-1.3,1-2.2,1c-1.7,0-3.5,0-5.2,0c-1,0-1.4,0.6-1.1,1.5c0.1,0.2,0.3,0.5,0.5,0.5
		c0.8,0.1,1.6,0.1,2.5,0.1c0.1,0,0.3-0.2,0.4-0.4c0.7-1,1.9-1.1,2.9-0.4c0.5,0.4,0.7,1.6,0.3,2.3c-0.3,0.6-1.3,1.1-2,0.8
		c-0.4-0.1-0.8-0.4-1-0.7c-0.3-0.4-0.6-0.6-1.1-0.5c-0.5,0-1,0-1.6,0c-1,0-1.8-0.7-2.2-1.6c-0.4-0.9,0-1.8,0.7-2.3
		c0.4-0.3,1-0.5,1.5-0.5c1.8-0.1,3.6-0.1,5.4,0c0.9,0,1.7-0.9,1-1.8c-0.2-0.2-0.5-0.4-0.8-0.4c-2.2,0-4.4,0-6.6,0
		c-1.2,0-2.2-0.4-2.8-1.5c-0.1-0.2-0.2-0.5-0.2-0.8c0-1.9-0.3-3.8-0.8-5.6c-0.3-0.9-0.7-1.8-1.1-2.6c-1-2-2.2-3.9-3.1-5.9
		c-0.8-1.9-1-4-0.4-6.1c0.5-1.8,1.4-3.4,2.6-4.8c1.5-1.7,3.3-2.8,5.5-3.3c1.9-0.5,3.8-0.5,5.7-0.1c2,0.4,3.8,1.2,5.3,2.5
		c2.4,2.1,3.8,4.7,4,7.9c0.1,1-0.2,2.1-0.4,3.1c-0.4,1.8-1.3,3.3-2.2,4.9c-0.8,1.4-1.4,2.9-2.1,4.4c-0.2,0.3-0.1,0.6,0.2,0.9
		c0.6,0.5,0.6,1.7,0.2,2.4c-0.4,0.6-1.4,0.9-2.1,0.6c-0.9-0.3-1.4-1.2-1.2-2c0.1-0.7,0.6-1.2,1.3-1.4c0.4-0.1,0.6-0.4,0.7-0.8
		c0.4-0.9,0.8-1.9,1.2-2.8c1.1-2.2,2.6-4.3,3.1-6.8c0.4-1.8,0.3-3.5-0.4-5.3c-0.9-2.1-2.2-3.8-4.1-5c-1.4-1-3.1-1.4-4.8-1.6
		c-2.4-0.3-4.7,0.3-6.7,1.5c-1.4,0.8-2.7,2-3.4,3.5c-0.3,0.6-0.6,1.1-0.9,1.7c-0.4,0.8-0.5,1.6-0.6,2.5c-0.1,1.6,0.1,3.2,0.8,4.7
		c0.5,1.2,1.2,2.2,1.8,3.4c0.3,0.6,0.6,1.1,1,1.7C534,35.8,534,35.8,534.1,35.8L534.1,35.8z M544,34.8c-0.5,0-0.8,0.3-0.8,0.8
		s0.4,0.8,0.9,0.8c0.4,0,0.8-0.4,0.8-0.8C544.8,35.1,544.5,34.8,544,34.8z M547.5,40.9c0-0.5-0.4-0.9-1-0.8c-0.4,0-0.7,0.4-0.7,0.9
		s0.3,0.8,0.8,0.7C547.2,41.7,547.5,41.4,547.5,40.9z M541.6,29.6c0-0.6-0.2-0.8-0.8-0.8c-0.5,0-0.8,0.1-0.8,0.8
		c0,0.6,0.3,0.9,0.8,0.9C541.4,30.4,541.6,30.2,541.6,29.6z M547.4,30.1c0,0.6,0.3,1,0.7,1s1-0.5,0.9-0.9c-0.1-0.5-0.4-0.7-0.9-0.7
		C547.6,29.4,547.4,29.7,547.4,30.1z M542.8,53.7c0.5,0,0.9-0.3,0.9-0.8c0-0.4-0.3-0.7-0.8-0.8c-0.6,0-0.8,0.2-0.8,0.7
		C542,53.4,542.3,53.7,542.8,53.7z M541.4,12.5c0,0.4,0.1,0.8,0,1.2c-0.1,0.2-0.4,0.4-0.5,0.6c-0.2-0.2-0.5-0.4-0.5-0.6
		c-0.1-0.8-0.1-1.7,0-2.5c0-0.2,0.4-0.5,0.5-0.5s0.5,0.3,0.5,0.5C541.4,11.6,541.4,12.1,541.4,12.5z M544.4,14.3
		c0.2-0.8,0.4-1.6,0.7-2.3c0.1-0.2,0.4-0.3,0.6-0.3c0.1,0,0.4,0.4,0.3,0.5c-0.1,0.7-0.3,1.4-0.6,2.1c-0.1,0.2-0.4,0.4-0.6,0.4
		C544.7,14.8,544.5,14.5,544.4,14.3z M533.5,16c-0.2,0.3-0.3,0.6-0.4,0.6c-0.2,0-0.5-0.1-0.6-0.2c-0.4-0.6-0.8-1.2-1.2-1.9
		c-0.1-0.2,0-0.5,0.1-0.7c0.1-0.1,0.5-0.2,0.6-0.1C532.4,14.5,532.9,15.2,533.5,16z M548.2,15.9c0.5-0.7,1-1.5,1.5-2.2
		c0.1-0.1,0.5-0.1,0.6,0s0.2,0.5,0.1,0.7c-0.4,0.7-0.8,1.3-1.2,1.9c-0.1,0.1-0.4,0.3-0.6,0.2C548.4,16.5,548.3,16.2,548.2,15.9
		L548.2,15.9z M537.2,14.3c-0.1,0.2-0.3,0.4-0.4,0.5c-0.2,0-0.6-0.1-0.6-0.3c-0.3-0.8-0.4-1.6-0.6-2.4c0-0.1,0.2-0.4,0.3-0.4
		c0.2,0,0.6,0.1,0.7,0.3C536.8,12.7,537,13.5,537.2,14.3L537.2,14.3z M530.2,18.8c0,0.4-0.5,0.7-0.8,0.5c-0.6-0.5-1.2-1-1.7-1.5
		c-0.1-0.1,0-0.5,0.1-0.6s0.5-0.2,0.6-0.2c0.6,0.5,1.2,1.1,1.8,1.6C530.1,18.6,530.1,18.7,530.2,18.8L530.2,18.8z M554.1,17.4
		c0,0.5-1.7,2.1-2.1,2c-0.2-0.1-0.4-0.2-0.5-0.4c-0.1-0.1,0.1-0.4,0.2-0.5c0.4-0.4,0.9-0.9,1.3-1.2c0.2-0.1,0.4-0.2,0.7-0.2
		C553.9,17,554,17.3,554.1,17.4z M527.3,23.1c-0.7-0.3-1.3-0.6-2-1c-0.1-0.1-0.2-0.4-0.1-0.5c0.1-0.2,0.4-0.4,0.6-0.3
		c0.6,0.2,1.2,0.5,1.8,0.8c0.1,0.1,0.3,0.4,0.2,0.6C527.8,22.8,527.5,22.9,527.3,23.1z M554.3,23.1c-0.2-0.2-0.5-0.3-0.5-0.4
		c0-0.2,0.1-0.5,0.2-0.6c0.6-0.3,1.2-0.6,1.8-0.8c0.2-0.1,0.5,0.2,0.6,0.4c0.1,0.1-0.1,0.4-0.3,0.5
		C555.5,22.5,554.9,22.8,554.3,23.1L554.3,23.1z M556,27.5c-0.2,0-0.5,0.1-0.7,0s-0.4-0.3-0.6-0.5c0.2-0.2,0.3-0.5,0.5-0.6
		c0.5-0.1,1.1,0,1.6,0.1c0.2,0,0.4,0.4,0.4,0.6c0,0.1-0.3,0.4-0.5,0.4C556.6,27.5,556.3,27.5,556,27.5L556,27.5z M525.6,27.5
		c-0.3,0-0.6,0-0.9-0.1c-0.2,0-0.4-0.2-0.4-0.4c0-0.2,0.2-0.5,0.3-0.5c0.6-0.1,1.3-0.1,1.9,0c0.1,0,0.3,0.4,0.4,0.5
		c0,0.1-0.3,0.3-0.4,0.4C526.2,27.5,525.9,27.5,525.6,27.5L525.6,27.5z M554.8,30.4c0.6,0.2,1,0.3,1.5,0.5c0.2,0.1,0.3,0.4,0.3,0.6
		s-0.4,0.4-0.5,0.4c-0.5-0.1-1.1-0.2-1.6-0.4c-0.2-0.1-0.4-0.5-0.3-0.6C554.2,30.6,554.5,30.5,554.8,30.4L554.8,30.4z M526.9,30.4
		c0.2,0.2,0.6,0.3,0.6,0.5s-0.2,0.6-0.4,0.6c-0.4,0.2-0.9,0.3-1.4,0.3c-0.2,0-0.5-0.2-0.5-0.4s0.1-0.5,0.3-0.6
		C525.8,30.6,526.3,30.5,526.9,30.4L526.9,30.4z M529.1,34.4c-0.2,0.3-0.3,0.5-0.4,0.6c-0.3,0.2-0.6,0.4-0.9,0.4
		c-0.2,0-0.6-0.1-0.7-0.3c-0.1-0.1,0-0.6,0.2-0.7c0.4-0.2,0.8-0.4,1.2-0.5C528.6,34,528.8,34.3,529.1,34.4z M554.1,35.6
		c-0.5-0.2-0.9-0.4-1.3-0.7c-0.1-0.1-0.1-0.4-0.1-0.6c0-0.1,0.3-0.3,0.4-0.3c0.4,0.1,0.9,0.3,1.3,0.5c0.1,0.1,0.2,0.4,0.2,0.6
		C554.5,35.3,554.3,35.4,554.1,35.6L554.1,35.6z M551.5,37.1c0.7,0,1.3,0.4,1.2,0.8c-0.1,0.2-0.3,0.5-0.6,0.5
		c-0.4,0.1-1.1-0.6-1-0.9C551.2,37.3,551.4,37.2,551.5,37.1L551.5,37.1z M530.5,37.4c0,0.5-0.6,1.1-1,1c-0.2-0.1-0.5-0.3-0.6-0.6
		s0.6-0.8,1-0.7C530.2,37.1,530.4,37.3,530.5,37.4z"/>
</g>
<g>
	<path class="st7" d="M263.9,102.1h-93.5c-1.4,0-2.6-1.1-2.6-2.6V85.9c0-1.4,1.1-2.6,2.6-2.6h93.5c1.4,0,2.6,1.1,2.6,2.6v13.6
		C266.4,100.9,265.3,102.1,263.9,102.1L263.9,102.1z"/>
	<g>
		<path d="M171.1,21.9h-0.2c-0.9,0-1.5,0-1.7-0.1s-0.3-0.3-0.3-0.5s0.1-0.4,0.4-0.6s0.4-0.2,0.4-0.3c0.1-0.1,0.1-0.5,0.2-1.2
			c0-0.7,0.1-1.6,0.1-2.8c0-0.9,0-1.6-0.1-2.2c0-0.5-0.1-0.9-0.2-1c0-0.1-0.2-0.1-0.5-0.3c-0.3-0.1-0.4-0.3-0.4-0.5
			c0-0.3,0.1-0.4,0.4-0.5c0.3-0.1,0.9-0.2,1.8-0.2s1.5,0.1,1.8,0.2s0.4,0.3,0.4,0.5s-0.1,0.4-0.4,0.6c-0.3,0.1-0.4,0.2-0.4,0.3
			c-0.1,0.1-0.1,0.5-0.2,1.1c0,0.7-0.1,1.6-0.1,2.9c0,0.4,0,0.8,0,1.3c0,0.1,0,0.1,0,0.2c0,0.4,0,0.8,0.1,1.1c0,0.3,0.1,0.5,0.2,0.5
			c0,0,0.2,0.1,0.3,0.1c0.2,0,0.4,0,0.8,0c0.5,0,0.9-0.1,1.2-0.2s0.5-0.3,0.7-0.5c0.1-0.2,0.2-0.4,0.3-0.7c0.2-0.4,0.4-0.6,0.6-0.6
			c0.2,0,0.4,0.1,0.5,0.2c0.1,0.2,0.1,0.4,0.1,0.8c0,0.7-0.1,1.2-0.3,1.7s-0.4,0.7-0.6,0.7c0,0-0.1,0-0.2,0
			c-0.3-0.1-0.6-0.1-0.9-0.1L171.1,21.9L171.1,21.9z M182,17.7V17c0-0.4-0.1-0.7-0.2-0.9c-0.1-0.2-0.3-0.2-0.6-0.2s-0.6,0.2-1,0.5
			l-0.1,0.1c0,0,0,0-0.1,0.1c-0.5,0.5-0.9,0.7-1.3,0.7c-0.2,0-0.4-0.1-0.6-0.2c-0.1-0.1-0.2-0.3-0.2-0.5c0-0.5,0.3-0.9,1-1.3
			c0.7-0.4,1.5-0.5,2.4-0.5c1,0,1.7,0.2,2.1,0.5c0.4,0.4,0.7,1,0.7,1.7c0,0.2,0,0.5,0,0.9s0,0.6,0,0.8v1c0,0.2,0,0.3,0,0.4
			s0.1,0.2,0.1,0.2c0.1,0,0.2,0.1,0.4,0.2s0.4,0.2,0.4,0.4c0,0.2-0.1,0.3-0.2,0.5c-0.1,0.1-0.3,0.3-0.5,0.4s-0.4,0.2-0.6,0.3
			s-0.4,0.1-0.6,0.1c-0.2,0-0.5-0.1-0.7-0.4s-0.4-0.4-0.4-0.4s-0.1,0-0.2,0.1c-0.6,0.4-1.2,0.7-1.9,0.7s-1.3-0.2-1.7-0.6
			s-0.7-0.9-0.7-1.6s0.3-1.3,0.8-1.7c0.6-0.4,1.3-0.6,2.3-0.6c0.2,0,0.3,0,0.5,0C181.6,17.6,181.8,17.6,182,17.7L182,17.7z
			 M182,19.7v-1.1c-0.1,0-0.2,0-0.3-0.1c-0.1,0-0.2,0-0.3,0c-0.4,0-0.7,0.1-1,0.3c-0.2,0.2-0.3,0.5-0.3,0.8s0.1,0.5,0.2,0.7
			c0.2,0.2,0.4,0.3,0.7,0.3s0.5-0.1,0.7-0.2C182,20.3,182,20.1,182,19.7L182,19.7z M190.8,21.5v-0.3c0-0.1,0-0.1,0-0.1
			s0-0.1-0.1-0.1s-0.1,0.1-0.2,0.2c-0.1,0.1-0.2,0.2-0.3,0.3c-0.2,0.2-0.5,0.3-0.8,0.4s-0.6,0.1-1,0.1c-0.5,0-1-0.1-1.3-0.3
			c-0.4-0.2-0.6-0.5-0.8-0.9c-0.1-0.2-0.2-0.5-0.2-0.9c0-0.3-0.1-0.8-0.1-1.4v-1.1c0-0.3,0-0.5-0.1-0.6c0-0.1-0.1-0.2-0.2-0.2
			c-0.1,0-0.1,0-0.2-0.1c-0.3-0.1-0.5-0.3-0.5-0.5c0-0.1,0-0.2,0.1-0.3s0.2-0.2,0.4-0.3c0.4-0.2,0.8-0.3,1.2-0.5
			c0.4-0.1,0.8-0.2,1-0.2s0.3,0,0.4,0.1c0.1,0.1,0.1,0.3,0.1,0.6c0,0.2,0,0.6,0,1.2s0,1.1,0,1.5c0,0.8,0.1,1.3,0.3,1.7
			c0.2,0.3,0.5,0.5,0.9,0.5c0.5,0,0.8-0.2,1.1-0.6c0.2-0.4,0.3-1.1,0.3-2.2c0-0.4,0-0.7,0-0.8c0-0.1-0.1-0.2-0.2-0.3
			c0,0-0.1-0.1-0.2-0.1c-0.4-0.1-0.5-0.2-0.5-0.5c0-0.1,0-0.2,0.1-0.3s0.2-0.2,0.4-0.3c0.4-0.2,0.8-0.3,1.2-0.5
			c0.4-0.1,0.8-0.2,1-0.2s0.3,0,0.4,0.1c0.1,0.1,0.1,0.3,0.1,0.6c0,0.1,0,0.4,0,1.1c0,0.7,0,1.3,0,1.9s0,1.1,0.1,1.3
			c0,0.2,0.1,0.4,0.2,0.4c0,0,0.2,0.1,0.4,0.1s0.4,0.2,0.4,0.4c0,0.1,0,0.2-0.1,0.3c-0.1,0.1-0.2,0.2-0.4,0.3
			c-0.4,0.2-0.8,0.4-1.3,0.5c-0.4,0.1-0.7,0.2-1,0.2c-0.2,0-0.3,0-0.4-0.1S190.8,21.7,190.8,21.5L190.8,21.5z M197.6,15.3v0.4
			c0,0.1,0,0.1,0,0.1s0,0.1,0.1,0.1s0.2-0.1,0.3-0.2c0.1-0.1,0.1-0.1,0.1-0.2c0.2-0.3,0.5-0.5,0.8-0.6s0.6-0.2,1-0.2
			c0.9,0,1.5,0.2,1.9,0.8c0.4,0.5,0.6,1.3,0.6,2.5v1.2c0,0.5,0,0.9,0,1.1s0.1,0.3,0.1,0.4c0,0,0.2,0.1,0.4,0.2s0.3,0.3,0.3,0.5
			s-0.1,0.4-0.4,0.5c-0.3,0.1-0.8,0.1-1.6,0.1s-1.3-0.1-1.6-0.1s-0.4-0.3-0.4-0.5s0.1-0.4,0.4-0.5c0.1-0.1,0.2-0.1,0.2-0.1
			c0.1-0.1,0.1-0.2,0.1-0.4c0-0.2,0-0.6,0-1.1c0-1.2-0.1-1.9-0.2-2.2c-0.2-0.3-0.5-0.5-0.9-0.5c-0.5,0-0.8,0.2-1,0.6s-0.3,1-0.3,1.9
			c0,0.5,0,0.9,0,1.1s0.1,0.4,0.1,0.5c0,0,0.2,0.1,0.4,0.2s0.3,0.3,0.3,0.5s-0.1,0.4-0.4,0.5c-0.3,0.1-0.8,0.1-1.6,0.1
			s-1.3-0.1-1.6-0.1c-0.3-0.1-0.4-0.3-0.4-0.5s0.1-0.4,0.4-0.5c0.1-0.1,0.2-0.1,0.2-0.1c0.1-0.1,0.1-0.2,0.2-0.4c0-0.2,0-0.7,0-1.5
			c0-0.9,0-1.4-0.1-1.7c0-0.3-0.1-0.4-0.2-0.5c0,0-0.2-0.1-0.4-0.1c-0.2-0.1-0.4-0.2-0.4-0.4c0-0.1,0-0.2,0.1-0.3
			c0.1-0.1,0.2-0.2,0.4-0.3c0.4-0.2,0.8-0.3,1.2-0.5s0.8-0.2,1-0.2s0.3,0,0.4,0.1S197.6,15.1,197.6,15.3L197.6,15.3z M203.6,18.5
			c0-1.1,0.4-2,1.1-2.7c0.7-0.7,1.7-1.1,2.8-1.1c0.8,0,1.5,0.2,2,0.6c0.5,0.4,0.8,0.9,0.8,1.4c0,0.3-0.1,0.6-0.3,0.8
			c-0.2,0.2-0.5,0.3-0.8,0.3s-0.5-0.1-0.7-0.2c-0.2-0.2-0.4-0.5-0.6-1.1c-0.1-0.2-0.2-0.3-0.3-0.4c-0.2-0.1-0.3-0.2-0.5-0.2
			c-0.4,0-0.6,0.1-0.8,0.4c-0.2,0.3-0.3,0.7-0.3,1.2c0,0.8,0.2,1.5,0.6,2.1c0.4,0.5,0.9,0.8,1.5,0.8c0.3,0,0.6-0.1,1-0.3
			c0.4-0.2,0.6-0.3,0.7-0.3c0.1,0,0.3,0,0.3,0.1c0.1,0.1,0.1,0.2,0.1,0.3s-0.1,0.3-0.1,0.4c-0.1,0.2-0.2,0.3-0.4,0.4
			c-0.4,0.3-0.8,0.5-1.2,0.7c-0.4,0.1-0.8,0.2-1.3,0.2c-1.1,0-2-0.3-2.7-1C204,20.4,203.6,19.5,203.6,18.5L203.6,18.5z M213.8,15.7
			c0,0.1,0,0.1,0,0.1s0,0.1,0.1,0.1s0.2-0.1,0.3-0.2c0.1-0.1,0.1-0.1,0.1-0.2c0.2-0.3,0.5-0.5,0.8-0.6s0.6-0.2,1-0.2
			c0.9,0,1.5,0.3,1.9,0.8c0.4,0.5,0.6,1.3,0.6,2.5v1.2c0,0.5,0,0.9,0,1.1s0.1,0.3,0.1,0.4c0,0,0.1,0.1,0.4,0.2
			c0.2,0.1,0.3,0.3,0.3,0.5s-0.1,0.4-0.4,0.5c-0.3,0.1-0.8,0.1-1.5,0.1c-0.8,0-1.3-0.1-1.6-0.1c-0.3-0.1-0.4-0.3-0.4-0.5
			s0.1-0.4,0.4-0.5c0.1-0.1,0.2-0.1,0.2-0.1c0.1-0.1,0.1-0.2,0.1-0.4c0-0.2,0-0.6,0-1.1c0-1.1-0.1-1.9-0.2-2.2
			c-0.2-0.3-0.5-0.5-0.9-0.5c-0.5,0-0.8,0.2-1,0.6s-0.3,1-0.3,1.9c0,0.5,0,0.9,0,1.1s0.1,0.4,0.1,0.5c0,0,0.2,0.1,0.4,0.2
			s0.3,0.3,0.3,0.5s-0.1,0.4-0.4,0.5c-0.3,0.1-0.8,0.1-1.5,0.1c-0.8,0-1.3-0.1-1.6-0.1c-0.3-0.1-0.4-0.3-0.4-0.5s0.1-0.4,0.4-0.5
			c0.1-0.1,0.2-0.1,0.2-0.1c0.1-0.1,0.1-0.3,0.2-0.7c0-0.4,0-1.5,0-3.2c0-1.3,0-2.2-0.1-2.6s-0.1-0.6-0.2-0.7c0,0-0.1-0.1-0.4-0.1
			c-0.2-0.1-0.4-0.2-0.4-0.4c0-0.1,0.1-0.2,0.2-0.3c0.1-0.1,0.3-0.2,0.7-0.4s0.8-0.3,1.1-0.4c0.4-0.1,0.7-0.1,0.9-0.1s0.3,0,0.4,0.1
			c0.1,0.1,0.1,0.3,0.1,0.6c0,0.2,0,0.7,0,1.3s0,1.1,0,1.5L213.8,15.7L213.8,15.7z M226.1,11.8c0.9,0,1.5,0.1,1.8,0.2
			c0.3,0.1,0.4,0.3,0.4,0.6c0,0.2-0.1,0.4-0.4,0.5c-0.3,0.1-0.4,0.2-0.5,0.3s-0.1,0.4-0.1,1c0,0.5-0.1,1.3-0.1,2.2
			c0,1.1,0,2.1,0.1,2.8c0,0.7,0.1,1.1,0.1,1.2c0,0,0.2,0.1,0.4,0.3c0.3,0.1,0.4,0.3,0.4,0.6c0,0.3-0.2,0.4-0.5,0.5s-0.9,0.2-1.7,0.2
			c-0.9,0-1.4-0.1-1.7-0.2s-0.5-0.3-0.5-0.5s0.1-0.4,0.4-0.6s0.4-0.2,0.4-0.3c0.1-0.1,0.1-0.5,0.2-1.2c0-0.7,0.1-1.6,0.1-2.8
			c0-0.9,0-1.6-0.1-2.2c0-0.5-0.1-0.9-0.2-1c0,0-0.2-0.1-0.4-0.3c-0.3-0.1-0.4-0.3-0.4-0.6s0.2-0.5,0.5-0.6
			C224.6,11.8,225.2,11.8,226.1,11.8L226.1,11.8z M232,15.3v0.4c0,0.1,0,0.1,0,0.1s0,0.1,0.1,0.1s0.2-0.1,0.3-0.2
			c0.1-0.1,0.1-0.1,0.1-0.2c0.2-0.3,0.5-0.5,0.8-0.6s0.6-0.2,1-0.2c0.9,0,1.5,0.2,1.9,0.8c0.4,0.5,0.6,1.3,0.6,2.5v1.2
			c0,0.5,0,0.9,0,1.1s0.1,0.3,0.1,0.4c0,0,0.2,0.1,0.4,0.2s0.3,0.3,0.3,0.5s-0.1,0.4-0.4,0.5s-0.8,0.1-1.6,0.1s-1.3-0.1-1.6-0.1
			c-0.3-0.1-0.4-0.3-0.4-0.5s0.1-0.4,0.4-0.5c0.1-0.1,0.2-0.1,0.2-0.1c0.1-0.1,0.1-0.2,0.1-0.4c0-0.2,0-0.6,0-1.1
			c0-1.2-0.1-1.9-0.2-2.2c-0.2-0.3-0.5-0.5-0.9-0.5c-0.5,0-0.8,0.2-1,0.6s-0.3,1-0.3,1.9c0,0.5,0,0.9,0,1.1s0.1,0.4,0.1,0.5
			c0,0,0.2,0.1,0.4,0.2s0.3,0.3,0.3,0.5s-0.1,0.4-0.4,0.5c-0.3,0.1-0.8,0.1-1.6,0.1s-1.3-0.1-1.6-0.1s-0.4-0.3-0.4-0.5
			s0.1-0.4,0.4-0.5c0.1-0.1,0.2-0.1,0.2-0.1c0.1-0.1,0.1-0.2,0.2-0.4c0-0.2,0-0.7,0-1.5c0-0.9,0-1.4-0.1-1.7c0-0.3-0.1-0.4-0.2-0.5
			c0,0-0.2-0.1-0.4-0.1c-0.2-0.1-0.4-0.2-0.4-0.4c0-0.1,0-0.2,0.1-0.3c0.1-0.1,0.2-0.2,0.4-0.3c0.4-0.2,0.8-0.3,1.2-0.5
			s0.8-0.2,1-0.2s0.3,0,0.4,0.1S232,15.1,232,15.3L232,15.3z M238.8,19.6V16H238c-0.1,0-0.2,0-0.2-0.1s-0.1-0.2-0.1-0.5
			c0-0.2,0.2-0.4,0.5-0.7c0.1-0.1,0.1-0.1,0.2-0.1c0.1-0.1,0.3-0.2,0.5-0.4c0.9-0.7,1.5-1,1.8-1c0.2,0,0.3,0,0.3,0.1
			c0.1,0,0.1,0.2,0.1,0.4v1.1h1.7c0.1,0,0.2,0,0.3,0.1c0,0,0.1,0.1,0.1,0.2c0,0.4,0,0.6-0.1,0.7c0,0.1-0.2,0.1-0.4,0.1H241v3.2
			c0,0.6,0.1,1,0.2,1.2c0.1,0.2,0.3,0.3,0.5,0.3s0.4-0.1,0.7-0.2s0.4-0.2,0.5-0.2s0.2,0,0.3,0.1s0.1,0.2,0.1,0.3
			c0,0.3-0.2,0.6-0.7,0.9s-1,0.4-1.7,0.4c-0.8,0-1.3-0.2-1.7-0.6C238.9,21.1,238.7,20.5,238.8,19.6L238.8,19.6L238.8,19.6z
			 M249.9,18.5h-3.4c-0.2,0-0.3,0-0.3,0s-0.1,0.1-0.1,0.2c0,0.5,0.2,0.9,0.5,1.2c0.4,0.4,0.8,0.5,1.3,0.5c0.4,0,0.8-0.1,1.2-0.3
			s0.7-0.3,0.7-0.3c0.1,0,0.2,0,0.3,0.1s0.1,0.2,0.1,0.3c0,0.2,0,0.3-0.1,0.5c-0.1,0.1-0.2,0.3-0.5,0.5c-0.3,0.3-0.7,0.5-1.1,0.6
			c-0.4,0.1-0.9,0.2-1.3,0.2c-1.1,0-1.9-0.3-2.6-1s-1-1.5-1-2.6s0.3-2,1-2.7s1.6-1.1,2.6-1.1c0.9,0,1.7,0.3,2.3,0.8s0.9,1.2,0.9,2
			c0,0.4,0,0.7-0.1,0.8C250.3,18.4,250.1,18.5,249.9,18.5z M246.4,17.5h1.8c0.1,0,0.2,0,0.2-0.1c0,0,0.1-0.1,0.1-0.2
			c0-0.4-0.1-0.7-0.3-1c-0.2-0.3-0.5-0.4-0.8-0.4s-0.6,0.1-0.8,0.4s-0.3,0.6-0.3,1c0,0.1,0,0.1,0.1,0.1
			C246.2,17.5,246.3,17.5,246.4,17.5z M252,19.1c0-0.8,0-1.4-0.1-1.8s-0.1-0.7-0.2-0.7c0,0-0.2-0.1-0.4-0.1
			c-0.2-0.1-0.4-0.2-0.4-0.4c0-0.1,0-0.2,0.1-0.3s0.2-0.2,0.4-0.3c0.4-0.2,0.8-0.3,1.2-0.4c0.4-0.1,0.8-0.2,1-0.2
			c0.1,0,0.2,0,0.3,0.1s0.1,0.1,0.2,0.3c0,0.1,0.1,0.3,0.1,0.5c0,0.2,0,0.3,0.1,0.3s0.2-0.1,0.3-0.2c0-0.1,0.1-0.1,0.1-0.1
			c0.2-0.3,0.4-0.5,0.6-0.6c0.2-0.1,0.4-0.2,0.6-0.2c0.3,0,0.6,0.1,0.8,0.4c0.2,0.2,0.3,0.6,0.3,1s-0.1,0.7-0.3,0.9
			c-0.2,0.2-0.4,0.4-0.7,0.4c-0.2,0-0.5-0.1-0.8-0.3c-0.3-0.2-0.4-0.3-0.5-0.3c-0.2,0-0.3,0.1-0.4,0.4c-0.1,0.3-0.1,0.9-0.1,1.9
			c0,0.6,0,1,0,1.2s0.1,0.3,0.1,0.4c0,0,0.2,0.1,0.4,0.2c0.3,0.1,0.4,0.3,0.4,0.5s-0.2,0.4-0.5,0.5s-0.9,0.1-1.7,0.1
			s-1.3-0.1-1.6-0.1c-0.3-0.1-0.4-0.3-0.4-0.5s0.1-0.4,0.4-0.5c0.1-0.1,0.2-0.1,0.2-0.1c0.1-0.1,0.1-0.2,0.1-0.3
			C252,20.1,252,19.7,252,19.1L252,19.1z M261.6,17.7V17c0-0.4-0.1-0.7-0.2-0.9c-0.1-0.2-0.3-0.2-0.6-0.2c-0.3,0-0.6,0.2-1,0.5
			l-0.1,0.1c0,0,0,0-0.1,0.1c-0.5,0.5-0.9,0.7-1.3,0.7c-0.2,0-0.4-0.1-0.6-0.2s-0.2-0.3-0.2-0.5c0-0.5,0.3-0.9,1-1.3
			c0.7-0.4,1.5-0.5,2.4-0.5c1,0,1.7,0.2,2.1,0.5c0.4,0.4,0.7,1,0.7,1.7c0,0.2,0,0.5,0,0.9s0,0.6,0,0.8v1c0,0.2,0,0.3,0,0.4
			s0.1,0.2,0.1,0.2c0.1,0,0.2,0.1,0.4,0.2c0.2,0.1,0.4,0.2,0.4,0.4c0,0.2-0.1,0.3-0.2,0.5c-0.1,0.1-0.3,0.3-0.5,0.4
			s-0.4,0.2-0.6,0.3c-0.2,0.1-0.4,0.1-0.6,0.1s-0.5-0.1-0.7-0.4s-0.4-0.4-0.4-0.4s-0.1,0-0.2,0.1c-0.6,0.4-1.2,0.7-1.9,0.7
			c-0.7,0-1.3-0.2-1.7-0.6c-0.4-0.4-0.7-0.9-0.7-1.6s0.3-1.3,0.8-1.7c0.6-0.4,1.3-0.6,2.3-0.6c0.2,0,0.3,0,0.5,0
			C261.1,17.6,261.3,17.6,261.6,17.7L261.6,17.7z M261.5,19.7v-1.1c-0.1,0-0.2,0-0.3-0.1c-0.1,0-0.2,0-0.3,0c-0.4,0-0.7,0.1-1,0.3
			c-0.2,0.2-0.3,0.5-0.3,0.8s0.1,0.5,0.2,0.7c0.2,0.2,0.4,0.3,0.7,0.3c0.3,0,0.5-0.1,0.7-0.2C261.5,20.3,261.5,20.1,261.5,19.7
			L261.5,19.7z M265,18.5c0-1.1,0.4-2,1.1-2.7s1.7-1.1,2.8-1.1c0.8,0,1.5,0.2,2,0.6c0.5,0.4,0.8,0.9,0.8,1.4c0,0.3-0.1,0.6-0.3,0.8
			c-0.2,0.2-0.5,0.3-0.8,0.3s-0.5-0.1-0.7-0.2c-0.2-0.2-0.4-0.5-0.6-1.1c-0.1-0.2-0.2-0.3-0.3-0.4c-0.2-0.1-0.3-0.2-0.5-0.2
			c-0.4,0-0.6,0.1-0.8,0.4c-0.2,0.3-0.3,0.7-0.3,1.2c0,0.8,0.2,1.5,0.6,2.1c0.4,0.5,0.9,0.8,1.5,0.8c0.3,0,0.6-0.1,1-0.3
			c0.4-0.2,0.6-0.3,0.7-0.3s0.3,0,0.3,0.1c0.1,0.1,0.1,0.2,0.1,0.3s-0.1,0.3-0.1,0.4c-0.1,0.2-0.2,0.3-0.4,0.4
			c-0.4,0.3-0.8,0.5-1.2,0.7c-0.4,0.1-0.8,0.2-1.3,0.2c-1.1,0-2-0.3-2.7-1C265.3,20.4,265,19.5,265,18.5L265,18.5z M273,19.6V16
			h-0.8c-0.1,0-0.2,0-0.2-0.1s-0.1-0.2-0.1-0.5c0-0.2,0.2-0.4,0.5-0.7c0.1-0.1,0.1-0.1,0.2-0.1c0.1-0.1,0.3-0.2,0.5-0.4
			c0.9-0.7,1.5-1,1.8-1c0.2,0,0.3,0,0.3,0.1c0.1,0,0.1,0.2,0.1,0.4v1.1h1.7c0.1,0,0.2,0,0.3,0.1c0,0,0.1,0.1,0.1,0.2
			c0,0.4,0,0.6-0.1,0.7c0,0.1-0.2,0.1-0.4,0.1h-1.6v3.2c0,0.6,0.1,1,0.2,1.2s0.3,0.3,0.5,0.3s0.4-0.1,0.7-0.2
			c0.3-0.1,0.4-0.2,0.5-0.2s0.2,0,0.3,0.1c0.1,0.1,0.1,0.2,0.1,0.3c0,0.3-0.2,0.6-0.7,0.9s-1,0.4-1.7,0.4c-0.8,0-1.3-0.2-1.7-0.6
			C273.1,21.1,272.9,20.5,273,19.6L273,19.6L273,19.6z M281.1,17.5v1.7c0,0.6,0,0.9,0,1.1s0.1,0.3,0.1,0.4c0,0,0.1,0.1,0.2,0.1
			c0.3,0.1,0.4,0.3,0.4,0.5s-0.1,0.4-0.4,0.5s-0.8,0.1-1.6,0.1c-0.7,0-1.3-0.1-1.5-0.1c-0.3-0.1-0.4-0.3-0.4-0.5s0.1-0.4,0.4-0.5
			c0.1-0.1,0.2-0.1,0.2-0.1c0.1-0.1,0.1-0.2,0.1-0.4c0-0.2,0-0.6,0-1.3c0-1,0-1.6-0.1-1.9s-0.1-0.4-0.2-0.5c0,0-0.1-0.1-0.4-0.1
			c-0.2-0.1-0.4-0.2-0.4-0.4c0-0.1,0-0.2,0.1-0.3s0.2-0.2,0.4-0.3c0.4-0.2,0.8-0.3,1.2-0.5c0.4-0.1,0.8-0.2,1-0.2s0.3,0,0.4,0.1
			s0.1,0.3,0.1,0.5c0,0,0,0.1,0,0.3L281.1,17.5L281.1,17.5z M278.3,12.9c0-0.3,0.2-0.6,0.5-0.8s0.7-0.4,1.1-0.4s0.7,0.1,1,0.3
			s0.4,0.5,0.4,0.8s-0.1,0.6-0.4,0.8s-0.7,0.3-1.1,0.3s-0.8-0.1-1-0.3C278.4,13.4,278.3,13.2,278.3,12.9L278.3,12.9z M289.1,14.8
			c0.5,0,0.9,0.1,1.1,0.2s0.4,0.3,0.4,0.5s-0.2,0.4-0.5,0.5c-0.1,0-0.2,0.1-0.2,0.1c-0.2,0.1-0.5,0.4-0.7,0.8c0,0.1-0.1,0.2-0.1,0.2
			c-0.2,0.3-0.4,0.8-0.6,1.3c-1.2,2.4-1.9,3.6-2.2,3.6c-0.4,0-1.2-1.3-2.4-4c-0.2-0.4-0.3-0.7-0.4-0.9c-0.2-0.4-0.3-0.7-0.4-0.8
			c-0.1-0.1-0.2-0.2-0.2-0.2c-0.1,0-0.2-0.1-0.3-0.1c-0.3-0.1-0.5-0.3-0.5-0.5s0.2-0.4,0.5-0.5s0.9-0.2,1.7-0.2
			c0.7,0,1.2,0.1,1.4,0.1s0.4,0.3,0.4,0.5c0,0.1-0.1,0.3-0.3,0.4c-0.2,0.1-0.3,0.2-0.3,0.3s0,0.2,0.1,0.4c0.1,0.2,0.2,0.5,0.4,1
			l0.1,0.3c0.4,0.8,0.6,1.2,0.7,1.2c0,0,0.1-0.1,0.1-0.2c0.1-0.1,0.2-0.3,0.3-0.6c0.3-0.6,0.5-1.1,0.7-1.4c0.1-0.3,0.2-0.5,0.2-0.6
			s-0.1-0.2-0.3-0.3c-0.2-0.1-0.3-0.3-0.3-0.5s0.1-0.4,0.4-0.5C288.2,14.9,288.6,14.8,289.1,14.8L289.1,14.8z M297,18.5h-3.4
			c-0.2,0-0.3,0-0.3,0s-0.1,0.1-0.1,0.2c0,0.5,0.2,0.9,0.5,1.2c0.4,0.4,0.8,0.5,1.3,0.5c0.4,0,0.8-0.1,1.2-0.3s0.7-0.3,0.7-0.3
			c0.1,0,0.2,0,0.3,0.1c0.1,0.1,0.1,0.2,0.1,0.3c0,0.2,0,0.3-0.1,0.5c-0.1,0.1-0.2,0.3-0.5,0.5c-0.3,0.3-0.7,0.5-1.1,0.6
			s-0.9,0.2-1.3,0.2c-1.1,0-1.9-0.3-2.6-1s-1-1.5-1-2.6s0.3-2,1-2.7s1.6-1.1,2.6-1.1c0.9,0,1.7,0.3,2.3,0.8s0.9,1.2,0.9,2
			c0,0.4,0,0.7-0.1,0.8C297.4,18.4,297.2,18.5,297,18.5z M293.5,17.5h1.8c0.1,0,0.2,0,0.2-0.1s0.1-0.1,0.1-0.2c0-0.4-0.1-0.7-0.3-1
			c-0.2-0.3-0.5-0.4-0.8-0.4s-0.6,0.1-0.8,0.4s-0.3,0.6-0.3,1c0,0.1,0,0.1,0.1,0.1C293.3,17.5,293.4,17.5,293.5,17.5z M304.5,21.9
			h-0.2c-0.9,0-1.5,0-1.7-0.1s-0.3-0.3-0.3-0.5s0.1-0.4,0.4-0.6s0.4-0.2,0.4-0.3c0.1-0.1,0.1-0.5,0.2-1.2c0-0.7,0.1-1.6,0.1-2.8
			c0-0.9,0-1.6-0.1-2.2c0-0.5-0.1-0.9-0.2-1c0-0.1-0.2-0.1-0.5-0.3c-0.3-0.1-0.4-0.3-0.4-0.5c0-0.3,0.1-0.4,0.4-0.5s0.9-0.2,1.8-0.2
			s1.5,0.1,1.8,0.2s0.4,0.3,0.4,0.5s-0.1,0.4-0.4,0.6s-0.4,0.2-0.4,0.3c-0.1,0.1-0.1,0.5-0.2,1.1c0,0.7-0.1,1.6-0.1,2.9
			c0,0.4,0,0.8,0,1.3c0,0.1,0,0.1,0,0.2c0,0.4,0,0.8,0.1,1.1c0,0.3,0.1,0.5,0.2,0.5c0,0,0.2,0.1,0.3,0.1c0.2,0,0.4,0,0.8,0
			c0.5,0,0.9-0.1,1.2-0.2c0.3-0.1,0.5-0.3,0.7-0.5c0.1-0.2,0.2-0.4,0.3-0.7c0.2-0.4,0.4-0.6,0.6-0.6s0.4,0.1,0.5,0.2
			c0.1,0.2,0.1,0.4,0.1,0.8c0,0.7-0.1,1.2-0.3,1.7s-0.4,0.7-0.6,0.7c0,0-0.1,0-0.2,0c-0.3-0.1-0.6-0.1-0.9-0.1L304.5,21.9
			L304.5,21.9z M317.1,18.5h-3.4c-0.2,0-0.3,0-0.3,0s-0.1,0.1-0.1,0.2c0,0.5,0.2,0.9,0.5,1.2c0.4,0.4,0.8,0.5,1.3,0.5
			c0.4,0,0.8-0.1,1.2-0.3s0.7-0.3,0.7-0.3c0.1,0,0.2,0,0.3,0.1c0.1,0.1,0.1,0.2,0.1,0.3c0,0.2,0,0.3-0.1,0.5
			c-0.1,0.1-0.2,0.3-0.5,0.5c-0.3,0.3-0.7,0.5-1.1,0.6s-0.9,0.2-1.3,0.2c-1.1,0-1.9-0.3-2.6-1s-1-1.5-1-2.6s0.3-2,1-2.7
			s1.6-1.1,2.6-1.1c0.9,0,1.7,0.3,2.3,0.8c0.6,0.5,0.9,1.2,0.9,2c0,0.4,0,0.7-0.1,0.8C317.5,18.4,317.3,18.5,317.1,18.5z
			 M313.6,17.5h1.8c0.1,0,0.2,0,0.2-0.1c0,0,0.1-0.1,0.1-0.2c0-0.4-0.1-0.7-0.3-1c-0.2-0.3-0.5-0.4-0.8-0.4s-0.6,0.1-0.8,0.4
			s-0.3,0.6-0.3,1c0,0.1,0,0.1,0.1,0.1C313.4,17.5,313.5,17.5,313.6,17.5z M322.6,17.7V17c0-0.4-0.1-0.7-0.2-0.9
			c-0.1-0.2-0.3-0.2-0.6-0.2c-0.3,0-0.6,0.2-1,0.5l-0.1,0.1c0,0,0,0-0.1,0.1c-0.5,0.5-0.9,0.7-1.3,0.7c-0.2,0-0.4-0.1-0.6-0.2
			s-0.2-0.3-0.2-0.5c0-0.5,0.3-0.9,1-1.3c0.7-0.4,1.5-0.5,2.4-0.5c1,0,1.7,0.2,2.1,0.5c0.4,0.4,0.7,1,0.7,1.7c0,0.2,0,0.5,0,0.9
			s0,0.6,0,0.8v1c0,0.2,0,0.3,0,0.4s0.1,0.2,0.1,0.2c0.1,0,0.2,0.1,0.4,0.2c0.2,0.1,0.4,0.2,0.4,0.4c0,0.2-0.1,0.3-0.2,0.5
			c-0.1,0.1-0.3,0.3-0.5,0.4s-0.4,0.2-0.6,0.3c-0.2,0.1-0.4,0.1-0.6,0.1s-0.5-0.1-0.7-0.4s-0.4-0.4-0.4-0.4s-0.1,0-0.2,0.1
			c-0.6,0.4-1.2,0.7-1.9,0.7c-0.7,0-1.3-0.2-1.7-0.6c-0.4-0.4-0.7-0.9-0.7-1.6s0.3-1.3,0.8-1.7c0.6-0.4,1.3-0.6,2.3-0.6
			c0.2,0,0.3,0,0.5,0C322.2,17.6,322.4,17.6,322.6,17.7L322.6,17.7z M322.6,19.7v-1.1c-0.1,0-0.2,0-0.3-0.1c-0.1,0-0.2,0-0.3,0
			c-0.4,0-0.7,0.1-1,0.3c-0.2,0.2-0.3,0.5-0.3,0.8s0.1,0.5,0.2,0.7c0.2,0.2,0.4,0.3,0.7,0.3c0.3,0,0.5-0.1,0.7-0.2
			C322.5,20.3,322.6,20.1,322.6,19.7L322.6,19.7z M326.9,19.1c0-0.8,0-1.4-0.1-1.8s-0.1-0.7-0.2-0.7c0,0-0.2-0.1-0.4-0.1
			c-0.2-0.1-0.4-0.2-0.4-0.4c0-0.1,0-0.2,0.1-0.3s0.2-0.2,0.4-0.3c0.4-0.2,0.8-0.3,1.2-0.4c0.4-0.1,0.8-0.2,1-0.2
			c0.1,0,0.2,0,0.3,0.1c0.1,0.1,0.1,0.1,0.2,0.3c0,0.1,0.1,0.3,0.1,0.5c0,0.2,0,0.3,0.1,0.3s0.2-0.1,0.3-0.2c0-0.1,0.1-0.1,0.1-0.1
			c0.2-0.3,0.4-0.5,0.6-0.6s0.4-0.2,0.6-0.2c0.3,0,0.6,0.1,0.8,0.4c0.2,0.2,0.3,0.6,0.3,1s-0.1,0.7-0.3,0.9
			c-0.2,0.2-0.4,0.4-0.7,0.4c-0.2,0-0.5-0.1-0.8-0.3c-0.3-0.2-0.4-0.3-0.5-0.3c-0.2,0-0.3,0.1-0.4,0.4s-0.1,0.9-0.1,1.9
			c0,0.6,0,1,0,1.2s0.1,0.3,0.1,0.4c0,0,0.2,0.1,0.4,0.2c0.3,0.1,0.4,0.3,0.4,0.5s-0.2,0.4-0.5,0.5s-0.9,0.1-1.7,0.1
			c-0.8,0-1.3-0.1-1.6-0.1c-0.3-0.1-0.4-0.3-0.4-0.5s0.1-0.4,0.4-0.5c0.1-0.1,0.2-0.1,0.2-0.1c0.1-0.1,0.1-0.2,0.1-0.3
			C326.9,20.1,326.9,19.7,326.9,19.1L326.9,19.1z"/>
		<path d="M335.2,15.3v0.4c0,0.1,0,0.1,0,0.1s0,0.1,0.1,0.1s0.2-0.1,0.3-0.2c0.1-0.1,0.1-0.1,0.1-0.2c0.2-0.3,0.5-0.5,0.8-0.6
			s0.6-0.2,1-0.2c0.9,0,1.5,0.2,1.9,0.8c0.4,0.5,0.6,1.3,0.6,2.5v1.2c0,0.5,0,0.9,0,1.1s0.1,0.3,0.1,0.4c0,0,0.2,0.1,0.4,0.2
			c0.2,0.1,0.3,0.3,0.3,0.5s-0.1,0.4-0.4,0.5s-0.8,0.1-1.6,0.1c-0.8,0-1.3-0.1-1.6-0.1c-0.3-0.1-0.4-0.3-0.4-0.5s0.1-0.4,0.4-0.5
			c0.1-0.1,0.2-0.1,0.2-0.1c0.1-0.1,0.1-0.2,0.1-0.4c0-0.2,0-0.6,0-1.1c0-1.2-0.1-1.9-0.2-2.2c-0.2-0.3-0.5-0.5-0.9-0.5
			c-0.5,0-0.8,0.2-1,0.6s-0.3,1-0.3,1.9c0,0.5,0,0.9,0,1.1s0.1,0.4,0.1,0.5c0,0,0.2,0.1,0.4,0.2c0.2,0.1,0.3,0.3,0.3,0.5
			s-0.1,0.4-0.4,0.5s-0.8,0.1-1.6,0.1c-0.8,0-1.3-0.1-1.6-0.1c-0.3-0.1-0.4-0.3-0.4-0.5s0.1-0.4,0.4-0.5c0.1-0.1,0.2-0.1,0.2-0.1
			c0.1-0.1,0.1-0.2,0.2-0.4c0-0.2,0-0.7,0-1.5c0-0.9,0-1.4-0.1-1.7c0-0.3-0.1-0.4-0.2-0.5c0,0-0.2-0.1-0.4-0.1
			c-0.2-0.1-0.4-0.2-0.4-0.4c0-0.1,0-0.2,0.1-0.3c0.1-0.1,0.2-0.2,0.4-0.3c0.4-0.2,0.8-0.3,1.2-0.5s0.8-0.2,1-0.2s0.3,0,0.4,0.1
			C335.2,14.9,335.2,15.1,335.2,15.3L335.2,15.3z M344.5,17.5v1.7c0,0.6,0,0.9,0,1.1s0.1,0.3,0.1,0.4c0,0,0.1,0.1,0.2,0.1
			c0.3,0.1,0.4,0.3,0.4,0.5s-0.1,0.4-0.4,0.5s-0.8,0.1-1.6,0.1c-0.7,0-1.3-0.1-1.5-0.1c-0.3-0.1-0.4-0.3-0.4-0.5s0.1-0.4,0.4-0.5
			c0.1-0.1,0.2-0.1,0.2-0.1c0.1-0.1,0.1-0.2,0.1-0.4c0-0.2,0-0.6,0-1.3c0-1,0-1.6-0.1-1.9c0-0.3-0.1-0.4-0.2-0.5
			c0,0-0.1-0.1-0.4-0.1c-0.2-0.1-0.4-0.2-0.4-0.4c0-0.1,0-0.2,0.1-0.3s0.2-0.2,0.4-0.3c0.4-0.2,0.8-0.3,1.2-0.5
			c0.4-0.1,0.8-0.2,1-0.2s0.3,0,0.4,0.1s0.1,0.3,0.1,0.5c0,0,0,0.1,0,0.3C344.5,16.3,344.5,16.9,344.5,17.5L344.5,17.5z M341.6,12.9
			c0-0.3,0.2-0.6,0.5-0.8s0.7-0.4,1.1-0.4s0.7,0.1,1,0.3s0.4,0.5,0.4,0.8s-0.1,0.6-0.4,0.8s-0.7,0.3-1.1,0.3s-0.8-0.1-1-0.3
			C341.8,13.4,341.6,13.2,341.6,12.9L341.6,12.9z M348.9,15.3v0.4c0,0.1,0,0.1,0,0.1s0,0.1,0.1,0.1s0.2-0.1,0.3-0.2
			c0.1-0.1,0.1-0.1,0.1-0.2c0.2-0.3,0.5-0.5,0.8-0.6s0.6-0.2,1-0.2c0.9,0,1.5,0.2,1.9,0.8c0.4,0.5,0.6,1.3,0.6,2.5v1.2
			c0,0.5,0,0.9,0,1.1s0.1,0.3,0.1,0.4c0,0,0.2,0.1,0.4,0.2s0.3,0.3,0.3,0.5s-0.1,0.4-0.4,0.5s-0.8,0.1-1.6,0.1
			c-0.8,0-1.3-0.1-1.6-0.1c-0.3-0.1-0.4-0.3-0.4-0.5s0.1-0.4,0.4-0.5c0.1-0.1,0.2-0.1,0.2-0.1c0.1-0.1,0.1-0.2,0.1-0.4
			c0-0.2,0-0.6,0-1.1c0-1.2-0.1-1.9-0.2-2.2c-0.2-0.3-0.5-0.5-0.9-0.5c-0.5,0-0.8,0.2-1,0.6s-0.3,1-0.3,1.9c0,0.5,0,0.9,0,1.1
			s0.1,0.4,0.1,0.5c0,0,0.2,0.1,0.4,0.2c0.2,0.1,0.3,0.3,0.3,0.5s-0.1,0.4-0.4,0.5s-0.8,0.1-1.6,0.1s-1.3-0.1-1.6-0.1
			c-0.3-0.1-0.4-0.3-0.4-0.5s0.1-0.4,0.4-0.5c0.1-0.1,0.2-0.1,0.2-0.1c0.1-0.1,0.1-0.2,0.2-0.4c0-0.2,0-0.7,0-1.5
			c0-0.9,0-1.4-0.1-1.7c0-0.3-0.1-0.4-0.2-0.5c0,0-0.2-0.1-0.4-0.1c-0.2-0.1-0.4-0.2-0.4-0.4c0-0.1,0-0.2,0.1-0.3
			c0.1-0.1,0.2-0.2,0.4-0.3c0.4-0.2,0.8-0.3,1.2-0.5s0.8-0.2,1-0.2s0.3,0,0.4,0.1S348.9,15.1,348.9,15.3L348.9,15.3z M355.7,21.6
			c-0.3-0.1-0.5-0.3-0.6-0.4c-0.1-0.2-0.2-0.4-0.2-0.6c0-0.3,0.1-0.5,0.3-0.7c0.2-0.2,0.4-0.4,0.8-0.5c-0.2-0.2-0.4-0.5-0.6-0.8
			c-0.1-0.3-0.2-0.7-0.2-1.1c0-0.8,0.3-1.5,0.9-2s1.3-0.7,2.3-0.7c0.4,0,0.8,0.1,1.2,0.2c0.4,0.1,0.6,0.2,0.6,0.2
			c0.2,0,0.4-0.1,0.7-0.2c0.3-0.1,0.5-0.3,0.7-0.5c0.1,0.1,0.2,0.1,0.3,0.2c0.1,0.1,0.1,0.2,0.1,0.3c0,0.2-0.1,0.4-0.2,0.6
			c-0.2,0.2-0.4,0.4-0.7,0.5c0.1,0.2,0.1,0.3,0.2,0.5c0,0.2,0.1,0.4,0.1,0.5c0,0.8-0.3,1.5-0.9,2s-1.4,0.8-2.4,0.8
			c-0.3,0-0.5,0-0.8-0.1c-0.2,0-0.4-0.1-0.6-0.2c-0.1,0.1-0.1,0.1-0.1,0.2s0,0.1,0,0.2c0,0.2,0.1,0.3,0.3,0.4s0.5,0.1,1,0.1
			c0.3,0,0.7,0,1.2-0.1s0.9-0.1,1.2-0.1c0.6,0,1.1,0.1,1.4,0.4s0.5,0.7,0.5,1.2c0,0.7-0.4,1.4-1.1,1.9c-0.8,0.5-1.7,0.8-2.8,0.8
			c-1,0-1.9-0.2-2.5-0.5s-0.9-0.8-0.9-1.4c0-0.3,0.1-0.5,0.2-0.7S355.4,21.8,355.7,21.6L355.7,21.6z M356.7,22
			c0,0.1-0.1,0.1-0.1,0.2s0,0.1,0,0.1c0,0.3,0.2,0.6,0.5,0.8s0.7,0.3,1.3,0.3c0.6,0,1-0.1,1.3-0.2c0.3-0.2,0.5-0.4,0.5-0.7
			c0-0.2-0.1-0.3-0.2-0.4s-0.3-0.1-0.5-0.1c-0.1,0-0.3,0-0.7,0.1c-0.4,0-0.7,0.1-1,0.1c-0.2,0-0.3,0-0.5,0
			C357.1,22.1,356.9,22.1,356.7,22L356.7,22z M358.3,18.8c0.3,0,0.6-0.1,0.8-0.4c0.2-0.2,0.3-0.6,0.3-1c0-0.5-0.1-0.9-0.3-1.2
			c-0.2-0.3-0.5-0.5-0.8-0.5s-0.6,0.1-0.8,0.4c-0.2,0.2-0.3,0.5-0.3,0.9c0,0.5,0.1,0.9,0.3,1.2C357.7,18.7,358,18.8,358.3,18.8z
			 M175.4,28.3c0.2,0,0.5,0,0.7-0.1c0.3,0,0.4-0.1,0.4-0.1c0.2,0,0.4,0.2,0.5,0.5c0.1,0.4,0.2,0.8,0.2,1.3c0,0.2,0,0.4-0.1,0.5
			s-0.2,0.2-0.4,0.2s-0.4-0.1-0.5-0.4c-0.2-0.3-0.3-0.4-0.4-0.5c-0.2-0.1-0.4-0.2-0.7-0.3c-0.3-0.1-0.7-0.1-1.2-0.1
			c-0.6,0-1,0-1.2,0.1c-0.2,0-0.3,0.1-0.3,0.2s-0.1,0.4-0.1,0.7c0,0.4,0,0.9,0,1.4c0,0.3,0.3,0.5,0.8,0.5c0.6,0,0.9,0,1.1-0.1
			c0.2-0.1,0.3-0.2,0.3-0.5c0-0.1,0-0.2,0-0.3c0.1-0.4,0.2-0.6,0.5-0.6c0.2,0,0.4,0.2,0.5,0.5s0.2,0.8,0.2,1.6
			c0,0.9-0.1,1.4-0.2,1.7c-0.1,0.3-0.3,0.4-0.6,0.4s-0.4-0.2-0.4-0.6c0-0.2,0-0.3-0.1-0.4c-0.1-0.2-0.2-0.4-0.3-0.5s-0.5-0.1-1-0.1
			H173c-0.4,0-0.6,0-0.6,0.1c-0.1,0-0.1,0.2-0.1,0.4v0.3c0,0.6,0,1.1,0,1.5s0.1,0.6,0.1,0.7c0.1,0.2,0.2,0.3,0.4,0.3
			c0.2,0.1,0.5,0.1,1,0.1c0.7,0,1.2,0,1.6-0.1c0.4-0.1,0.6-0.2,0.8-0.5c0.1-0.1,0.2-0.4,0.4-0.8c0.2-0.4,0.3-0.5,0.6-0.5
			c0.2,0,0.3,0.1,0.4,0.2c0.1,0.1,0.1,0.3,0.1,0.6c0,0.7-0.1,1.3-0.3,1.8s-0.4,0.8-0.6,0.8c0,0-0.1,0-0.2,0
			c-0.3-0.1-0.6-0.1-0.9-0.1h-4.9c-0.9,0-1.5,0-1.7-0.1s-0.3-0.3-0.3-0.5s0.1-0.4,0.4-0.6c0.3-0.1,0.4-0.2,0.4-0.3
			c0.1-0.1,0.1-0.5,0.2-1.2c0-0.7,0.1-1.6,0.1-2.8c0-0.9,0-1.6-0.1-2.2c0-0.5-0.1-0.9-0.2-1c0,0-0.2-0.1-0.4-0.3
			c-0.3-0.1-0.4-0.3-0.4-0.6c0-0.2,0.1-0.4,0.3-0.5s0.8-0.1,1.8-0.1L175.4,28.3L175.4,28.3z M181.2,31.7v0.4c0,0.1,0,0.1,0,0.1
			s0,0.1,0.1,0.1s0.2-0.1,0.3-0.2c0.1-0.1,0.1-0.1,0.1-0.2c0.2-0.3,0.5-0.5,0.8-0.6s0.6-0.2,1-0.2c0.9,0,1.5,0.2,1.9,0.8
			c0.4,0.5,0.6,1.3,0.6,2.5v1.2c0,0.5,0,0.9,0,1.1c0,0.2,0.1,0.3,0.1,0.4c0,0,0.2,0.1,0.4,0.2s0.3,0.3,0.3,0.5s-0.1,0.4-0.4,0.5
			c-0.3,0.1-0.8,0.1-1.6,0.1s-1.3-0.1-1.6-0.1c-0.3-0.1-0.4-0.3-0.4-0.5s0.1-0.4,0.4-0.5c0.1-0.1,0.2-0.1,0.2-0.1
			c0.1-0.1,0.1-0.2,0.1-0.4s0-0.6,0-1.1c0-1.2-0.1-1.9-0.2-2.2c-0.2-0.3-0.5-0.5-0.9-0.5c-0.5,0-0.8,0.2-1,0.6s-0.3,1-0.3,1.9
			c0,0.5,0,0.9,0,1.1c0,0.2,0.1,0.4,0.1,0.5c0,0,0.2,0.1,0.4,0.2c0.2,0.1,0.3,0.3,0.3,0.5s-0.1,0.4-0.4,0.5
			c-0.3,0.1-0.8,0.1-1.6,0.1s-1.3-0.1-1.6-0.1c-0.3-0.1-0.4-0.3-0.4-0.5s0.1-0.4,0.4-0.5c0.1-0.1,0.2-0.1,0.2-0.1
			c0.1-0.1,0.1-0.2,0.2-0.4c0-0.2,0-0.7,0-1.5c0-0.9,0-1.4-0.1-1.7c0-0.3-0.1-0.4-0.2-0.5c0,0-0.2-0.1-0.4-0.1
			c-0.2-0.1-0.4-0.2-0.4-0.4c0-0.1,0-0.2,0.1-0.3s0.2-0.2,0.4-0.3c0.4-0.2,0.8-0.3,1.2-0.5c0.4-0.1,0.8-0.2,1-0.2s0.3,0,0.4,0.1
			S181.2,31.5,181.2,31.7L181.2,31.7z M193.9,31.3c0.5,0,0.9,0.1,1.1,0.2s0.4,0.3,0.4,0.5s-0.2,0.4-0.5,0.5c-0.1,0-0.2,0.1-0.2,0.1
			c-0.2,0.1-0.5,0.4-0.7,0.8c0,0.1-0.1,0.2-0.1,0.2c-0.2,0.3-0.4,0.8-0.6,1.3c-1.2,2.4-1.9,3.6-2.2,3.6c-0.4,0-1.2-1.3-2.4-4
			c-0.2-0.4-0.3-0.7-0.4-0.9c-0.2-0.4-0.3-0.7-0.4-0.8s-0.2-0.2-0.2-0.2c-0.1,0-0.2-0.1-0.3-0.1c-0.3-0.1-0.5-0.3-0.5-0.5
			s0.2-0.4,0.5-0.5s0.9-0.2,1.7-0.2c0.7,0,1.2,0.1,1.4,0.1c0.3,0.1,0.4,0.3,0.4,0.5c0,0.1-0.1,0.3-0.3,0.4s-0.3,0.2-0.3,0.3
			s0,0.2,0.1,0.4s0.2,0.5,0.4,1l0.1,0.3c0.4,0.8,0.6,1.2,0.7,1.2c0,0,0.1-0.1,0.1-0.2s0.2-0.3,0.3-0.6c0.3-0.6,0.5-1.1,0.7-1.4
			c0.1-0.3,0.2-0.5,0.2-0.6s-0.1-0.2-0.3-0.3s-0.3-0.3-0.3-0.5s0.1-0.4,0.4-0.5C192.9,31.3,193.3,31.3,193.9,31.3L193.9,31.3z
			 M198.7,33.9v1.7c0,0.6,0,0.9,0,1.1s0.1,0.3,0.1,0.4c0,0,0.1,0.1,0.2,0.1c0.3,0.1,0.4,0.3,0.4,0.5s-0.1,0.4-0.4,0.5
			c-0.3,0.1-0.8,0.1-1.6,0.1c-0.7,0-1.3-0.1-1.5-0.1c-0.3-0.1-0.4-0.3-0.4-0.5s0.1-0.4,0.4-0.5c0.1-0.1,0.2-0.1,0.2-0.1
			c0.1-0.1,0.1-0.2,0.1-0.4s0-0.6,0-1.3c0-1,0-1.6-0.1-1.9c0-0.3-0.1-0.4-0.2-0.5c0,0-0.1-0.1-0.4-0.1c-0.2-0.1-0.4-0.2-0.4-0.4
			c0-0.1,0-0.2,0.1-0.3s0.2-0.2,0.4-0.3c0.4-0.2,0.8-0.3,1.2-0.5c0.4-0.1,0.8-0.2,1-0.2s0.3,0,0.4,0.1c0.1,0.1,0.1,0.3,0.1,0.5
			c0,0,0,0.1,0,0.3L198.7,33.9L198.7,33.9z M195.9,29.3c0-0.3,0.2-0.6,0.5-0.8c0.3-0.2,0.7-0.4,1.1-0.4c0.4,0,0.7,0.1,1,0.3
			c0.3,0.2,0.4,0.5,0.4,0.8s-0.1,0.6-0.4,0.8s-0.7,0.3-1.1,0.3c-0.4,0-0.8-0.1-1-0.3C196,29.9,195.9,29.6,195.9,29.3L195.9,29.3z
			 M200.9,35.5c0-0.8,0-1.4-0.1-1.8c-0.1-0.4-0.1-0.7-0.2-0.7c0,0-0.2-0.1-0.4-0.1c-0.2-0.1-0.4-0.2-0.4-0.4c0-0.1,0-0.2,0.1-0.3
			s0.2-0.2,0.4-0.3c0.4-0.2,0.8-0.3,1.2-0.4s0.8-0.2,1-0.2c0.1,0,0.2,0,0.3,0.1s0.1,0.1,0.2,0.3c0,0.1,0.1,0.3,0.1,0.5
			s0,0.3,0.1,0.3s0.2-0.1,0.3-0.2c0-0.1,0.1-0.1,0.1-0.1c0.2-0.3,0.4-0.5,0.6-0.6c0.2-0.1,0.4-0.2,0.6-0.2c0.3,0,0.6,0.1,0.8,0.4
			c0.2,0.2,0.3,0.6,0.3,1s-0.1,0.7-0.3,0.9s-0.4,0.4-0.7,0.4c-0.2,0-0.5-0.1-0.8-0.3s-0.4-0.3-0.5-0.3c-0.2,0-0.3,0.1-0.4,0.4
			c-0.1,0.3-0.1,0.9-0.1,1.9c0,0.6,0,1,0,1.2s0.1,0.3,0.1,0.4c0,0,0.2,0.1,0.4,0.2c0.3,0.1,0.4,0.3,0.4,0.5s-0.2,0.4-0.5,0.5
			s-0.9,0.1-1.7,0.1s-1.3-0.1-1.6-0.1S200,38,200,37.7c0-0.2,0.1-0.4,0.4-0.5c0.1-0.1,0.2-0.1,0.2-0.1c0.1-0.1,0.1-0.2,0.1-0.3
			C200.9,36.6,200.9,36.2,200.9,35.5L200.9,35.5z M206.2,34.9c0-0.6,0.1-1.1,0.3-1.5c0.2-0.5,0.5-0.9,0.9-1.2s0.8-0.6,1.2-0.8
			c0.5-0.2,0.9-0.3,1.5-0.3c1,0,1.9,0.3,2.6,1c0.7,0.7,1,1.5,1,2.5c0,0.5-0.1,1-0.3,1.5s-0.5,0.9-0.8,1.2c-0.4,0.4-0.8,0.6-1.2,0.8
			s-1,0.3-1.5,0.3c-1.1,0-2-0.3-2.6-1C206.5,36.8,206.2,36,206.2,34.9L206.2,34.9z M210.2,37.3c0.3,0,0.6-0.1,0.8-0.4
			c0.2-0.3,0.3-0.7,0.3-1.2c0-0.9-0.2-1.7-0.5-2.3s-0.7-1-1.1-1c-0.3,0-0.6,0.1-0.7,0.4c-0.2,0.3-0.3,0.7-0.3,1.2
			c0,0.9,0.2,1.6,0.5,2.3C209.4,36.9,209.8,37.3,210.2,37.3z M217.4,31.7v0.4c0,0.1,0,0.1,0,0.1s0,0.1,0.1,0.1s0.2-0.1,0.3-0.2
			c0.1-0.1,0.1-0.1,0.1-0.2c0.2-0.3,0.5-0.5,0.8-0.6s0.6-0.2,1-0.2c0.9,0,1.5,0.2,1.9,0.8c0.4,0.5,0.6,1.3,0.6,2.5v1.2
			c0,0.5,0,0.9,0,1.1c0,0.2,0.1,0.3,0.1,0.4c0,0,0.2,0.1,0.4,0.2s0.3,0.3,0.3,0.5s-0.1,0.4-0.4,0.5c-0.3,0.1-0.8,0.1-1.6,0.1
			s-1.3-0.1-1.6-0.1c-0.3-0.1-0.4-0.3-0.4-0.5s0.1-0.4,0.4-0.5c0.1-0.1,0.2-0.1,0.2-0.1c0.1-0.1,0.1-0.2,0.1-0.4s0-0.6,0-1.1
			c0-1.2-0.1-1.9-0.2-2.2c-0.2-0.3-0.5-0.5-0.9-0.5c-0.5,0-0.8,0.2-1,0.6c-0.2,0.4-0.3,1-0.3,1.9c0,0.5,0,0.9,0,1.1s0.1,0.4,0.1,0.5
			c0,0,0.2,0.1,0.4,0.2c0.2,0.1,0.3,0.3,0.3,0.5s-0.1,0.4-0.4,0.5c-0.3,0.1-0.8,0.1-1.6,0.1s-1.3-0.1-1.6-0.1
			c-0.3-0.1-0.4-0.3-0.4-0.5s0.1-0.4,0.4-0.5c0.1-0.1,0.2-0.1,0.2-0.1c0.1-0.1,0.1-0.2,0.2-0.4c0-0.2,0-0.7,0-1.5
			c0-0.9,0-1.4-0.1-1.7c0-0.3-0.1-0.4-0.2-0.5c0,0-0.2-0.1-0.4-0.1c-0.2-0.1-0.4-0.2-0.4-0.4c0-0.1,0-0.2,0.1-0.3s0.2-0.2,0.4-0.3
			c0.4-0.2,0.8-0.3,1.2-0.5c0.4-0.1,0.8-0.2,1-0.2s0.3,0,0.4,0.1S217.4,31.5,217.4,31.7L217.4,31.7z M226.5,31.7v0.4
			c0,0.1,0,0.1,0,0.1s0,0.1,0.1,0.1s0.2-0.1,0.3-0.2c0.1-0.1,0.2-0.2,0.2-0.3c0.2-0.2,0.4-0.3,0.7-0.4s0.6-0.1,0.9-0.1
			s0.6,0.1,0.9,0.1c0.3,0.1,0.5,0.3,0.8,0.5c0.1,0.1,0.2,0.2,0.3,0.3c0.1,0.1,0.2,0.2,0.2,0.2c0.1,0,0.2-0.1,0.3-0.2l0.1-0.1
			c0.3-0.3,0.6-0.5,0.9-0.7c0.3-0.1,0.6-0.2,1-0.2s0.7,0.1,1,0.2s0.6,0.3,0.8,0.6c0.2,0.2,0.4,0.6,0.4,0.9c0.1,0.4,0.1,0.9,0.1,1.6
			v1.1c0,0.5,0,0.9,0,1.1c0,0.2,0.1,0.3,0.1,0.4c0,0,0.2,0.1,0.4,0.2s0.3,0.3,0.3,0.5s-0.1,0.4-0.4,0.5c-0.3,0.1-0.8,0.1-1.6,0.1
			s-1.3-0.1-1.6-0.1c-0.3-0.1-0.4-0.3-0.4-0.5s0.1-0.4,0.4-0.5c0.1-0.1,0.2-0.1,0.2-0.1c0.1-0.1,0.1-0.2,0.1-0.4s0-0.6,0-1.1
			c0-1.1-0.1-1.8-0.2-2.2c-0.2-0.3-0.4-0.5-0.8-0.5s-0.7,0.2-0.9,0.6c-0.2,0.4-0.3,1-0.3,1.7c0,0.6,0,1,0,1.3s0.1,0.4,0.1,0.5
			c0,0,0.2,0.1,0.4,0.2c0.2,0.1,0.3,0.3,0.3,0.5s-0.1,0.4-0.4,0.5c-0.3,0.1-0.8,0.1-1.6,0.1s-1.3-0.1-1.6-0.1
			c-0.3-0.1-0.4-0.3-0.4-0.5s0.1-0.4,0.4-0.5c0.1-0.1,0.2-0.1,0.2-0.1c0.1-0.1,0.1-0.2,0.2-0.4c0-0.2,0-0.6,0-1.1
			c0-1.1-0.1-1.8-0.2-2.2c-0.2-0.3-0.4-0.5-0.8-0.5c-0.4,0-0.7,0.2-0.9,0.6c-0.2,0.4-0.3,1-0.3,1.9c0,0.5,0,0.9,0,1.2
			s0.1,0.4,0.1,0.5c0,0,0.2,0.1,0.4,0.2c0.2,0.1,0.3,0.3,0.3,0.5s-0.1,0.4-0.4,0.5c-0.3,0.1-0.8,0.1-1.6,0.1s-1.3-0.1-1.6-0.1
			c-0.3-0.1-0.4-0.3-0.4-0.5s0.1-0.4,0.4-0.5c0.1-0.1,0.2-0.1,0.2-0.1c0.1-0.1,0.1-0.2,0.2-0.4c0-0.2,0-0.7,0-1.5
			c0-0.9,0-1.4-0.1-1.7c0-0.3-0.1-0.4-0.2-0.5c0,0-0.2-0.1-0.4-0.1c-0.2-0.1-0.4-0.2-0.4-0.4c0-0.1,0-0.2,0.1-0.3s0.2-0.2,0.4-0.3
			c0.4-0.2,0.8-0.3,1.2-0.5c0.4-0.1,0.8-0.2,1-0.2s0.3,0,0.4,0.1S226.5,31.5,226.5,31.7L226.5,31.7z M243,34.9h-3.4
			c-0.2,0-0.3,0-0.3,0s-0.1,0.1-0.1,0.2c0,0.5,0.2,0.9,0.5,1.2c0.4,0.4,0.8,0.5,1.3,0.5c0.4,0,0.8-0.1,1.2-0.3s0.7-0.3,0.7-0.3
			c0.1,0,0.2,0,0.3,0.1s0.1,0.2,0.1,0.3c0,0.2,0,0.3-0.1,0.5c-0.1,0.1-0.2,0.3-0.5,0.5c-0.3,0.3-0.7,0.5-1.1,0.6
			c-0.4,0.1-0.9,0.2-1.3,0.2c-1.1,0-1.9-0.3-2.6-1c-0.7-0.7-1-1.5-1-2.6s0.3-2,1-2.7s1.6-1.1,2.6-1.1c0.9,0,1.7,0.3,2.3,0.8
			c0.6,0.5,0.9,1.2,0.9,2c0,0.4,0,0.7-0.1,0.8C243.5,34.9,243.3,34.9,243,34.9L243,34.9z M239.5,34h1.8c0.1,0,0.2,0,0.2-0.1
			c0,0,0.1-0.1,0.1-0.2c0-0.4-0.1-0.7-0.3-1s-0.5-0.4-0.8-0.4s-0.6,0.1-0.8,0.4s-0.3,0.6-0.3,1c0,0.1,0,0.1,0.1,0.1
			C239.4,33.9,239.4,33.9,239.5,34z M247.4,31.7v0.4c0,0.1,0,0.1,0,0.1s0,0.1,0.1,0.1s0.2-0.1,0.3-0.2c0.1-0.1,0.1-0.1,0.1-0.2
			c0.2-0.3,0.5-0.5,0.8-0.6s0.6-0.2,1-0.2c0.9,0,1.5,0.2,1.9,0.8c0.4,0.5,0.6,1.3,0.6,2.5v1.2c0,0.5,0,0.9,0,1.1
			c0,0.2,0.1,0.3,0.1,0.4c0,0,0.2,0.1,0.4,0.2c0.2,0.1,0.3,0.3,0.3,0.5s-0.1,0.4-0.4,0.5c-0.3,0.1-0.8,0.1-1.6,0.1s-1.3-0.1-1.6-0.1
			c-0.3-0.1-0.4-0.3-0.4-0.5s0.1-0.4,0.4-0.5c0.1-0.1,0.2-0.1,0.2-0.1c0.1-0.1,0.1-0.2,0.1-0.4s0-0.6,0-1.1c0-1.2-0.1-1.9-0.2-2.2
			c-0.2-0.3-0.5-0.5-0.9-0.5c-0.5,0-0.8,0.2-1,0.6s-0.3,1-0.3,1.9c0,0.5,0,0.9,0,1.1s0.1,0.4,0.1,0.5c0,0,0.2,0.1,0.4,0.2
			c0.2,0.1,0.3,0.3,0.3,0.5s-0.1,0.4-0.4,0.5c-0.3,0.1-0.8,0.1-1.6,0.1s-1.3-0.1-1.6-0.1s-0.4-0.3-0.4-0.5s0.1-0.4,0.4-0.5
			c0.1-0.1,0.2-0.1,0.2-0.1c0.1-0.1,0.1-0.2,0.2-0.4c0-0.2,0-0.7,0-1.5c0-0.9,0-1.4-0.1-1.7c0-0.3-0.1-0.4-0.2-0.5
			c0,0-0.2-0.1-0.4-0.1c-0.2-0.1-0.4-0.2-0.4-0.4c0-0.1,0-0.2,0.1-0.3s0.2-0.2,0.4-0.3c0.4-0.2,0.8-0.3,1.2-0.5
			c0.4-0.1,0.8-0.2,1-0.2s0.3,0,0.4,0.1S247.4,31.5,247.4,31.7L247.4,31.7z M254.2,36v-3.6h-0.8c-0.1,0-0.2,0-0.2-0.1
			s-0.1-0.2-0.1-0.5c0-0.2,0.2-0.4,0.5-0.7c0.1-0.1,0.1-0.1,0.2-0.1c0.1-0.1,0.3-0.2,0.5-0.4c0.9-0.7,1.5-1,1.8-1
			c0.2,0,0.3,0,0.3,0.1s0.1,0.2,0.1,0.4v1.1h1.7c0.1,0,0.2,0,0.3,0.1c0,0,0.1,0.1,0.1,0.2c0,0.4,0,0.6-0.1,0.7
			c0,0.1-0.2,0.1-0.4,0.1h-1.6v3.2c0,0.6,0.1,1,0.2,1.2s0.3,0.3,0.5,0.3s0.4-0.1,0.7-0.2c0.3-0.1,0.4-0.2,0.5-0.2s0.2,0,0.3,0.1
			c0.1,0.1,0.1,0.2,0.1,0.3c0,0.3-0.2,0.6-0.7,0.9c-0.5,0.3-1,0.4-1.7,0.4c-0.8,0-1.3-0.2-1.7-0.6C254.3,37.6,254.1,37,254.2,36
			L254.2,36L254.2,36z M259.1,33.3c0-0.6,0.2-1.2,0.6-1.6s1-0.6,1.7-0.6c0.2,0,0.4,0,0.6,0s0.3,0,0.4,0s0.2,0,0.4-0.1
			c0.2-0.1,0.3-0.1,0.4-0.1s0.2,0,0.3,0.1c0.1,0.1,0.2,0.2,0.3,0.3c0.2,0.3,0.3,0.5,0.5,0.8c0.1,0.3,0.2,0.6,0.2,0.8s0,0.3-0.1,0.4
			c-0.1,0.1-0.2,0.2-0.3,0.2c-0.1,0-0.2,0-0.3-0.1c-0.1-0.1-0.2-0.2-0.3-0.4c0,0-0.1-0.1-0.2-0.2c-0.4-0.5-0.8-0.8-1.1-0.8
			c-0.2,0-0.3,0.1-0.4,0.2c-0.1,0.1-0.2,0.2-0.2,0.4c0,0.3,0.4,0.6,1.1,1c0.2,0.1,0.3,0.2,0.4,0.2c0.6,0.3,1,0.6,1.3,0.9
			s0.4,0.8,0.4,1.2c0,0.7-0.3,1.2-0.8,1.7c-0.5,0.4-1.2,0.7-2,0.7c-0.2,0-0.4,0-0.7-0.1c-0.3,0-0.4-0.1-0.5-0.1s-0.2,0-0.3,0.1
			c-0.1,0-0.2,0.1-0.3,0.1c-0.1,0-0.2,0-0.3-0.1c-0.1-0.1-0.2-0.2-0.3-0.3c-0.2-0.3-0.3-0.6-0.4-0.9c-0.1-0.3-0.2-0.6-0.2-0.8
			s0.1-0.4,0.2-0.5s0.2-0.2,0.4-0.2c0.2,0,0.5,0.2,0.8,0.7c0.1,0.1,0.2,0.2,0.2,0.3c0.1,0.2,0.3,0.4,0.6,0.5
			c0.2,0.1,0.5,0.2,0.8,0.2c0.2,0,0.4-0.1,0.6-0.2c0.1-0.1,0.2-0.3,0.2-0.5c0-0.3-0.5-0.7-1.4-1.2h-0.1c-0.8-0.4-1.4-0.8-1.7-1.1
			C259.3,34.2,259.1,33.8,259.1,33.3L259.1,33.3z M275.3,34.6l-0.1,0.3c-1.1,2.4-1.8,3.6-2.2,3.6c-0.3,0-1-1.1-2-3.4
			c-0.3-0.7-0.6-1.3-0.7-1.6c0,0,0-0.1-0.1-0.2c-0.2-0.4-0.4-0.6-0.6-0.7c0,0,0,0-0.1,0c-0.3-0.1-0.5-0.3-0.5-0.5
			c0-0.3,0.1-0.4,0.4-0.5s0.8-0.2,1.6-0.2c0.6,0,1.1,0.1,1.4,0.2s0.4,0.3,0.4,0.5c0,0.1-0.1,0.3-0.3,0.4c-0.2,0.1-0.3,0.2-0.3,0.3
			s0,0.2,0.1,0.4s0.2,0.5,0.5,1.1c0,0.1,0.1,0.2,0.2,0.4c0.3,0.8,0.5,1.1,0.6,1.1s0.4-0.7,1.1-2.1v-0.1l0,0
			c-0.2-0.4-0.4-0.7-0.6-0.8H274c-0.3-0.1-0.5-0.3-0.5-0.5s0.1-0.4,0.4-0.5s0.8-0.2,1.6-0.2c0.6,0,1.1,0.1,1.4,0.2s0.4,0.3,0.4,0.5
			c0,0.1-0.1,0.3-0.3,0.4s-0.3,0.2-0.3,0.3s0,0.2,0.1,0.4s0.2,0.5,0.4,1c0,0.1,0.1,0.2,0.2,0.4c0.3,0.7,0.5,1.1,0.6,1.1
			c0,0,0.1,0,0.1-0.1c0.1-0.1,0.2-0.3,0.3-0.7c0.3-0.6,0.5-1,0.6-1.3s0.2-0.5,0.2-0.6s-0.1-0.2-0.3-0.3c-0.2-0.1-0.3-0.3-0.3-0.5
			s0.1-0.4,0.4-0.5s0.6-0.2,1.2-0.2c0.5,0,0.8,0.1,1.1,0.2c0.2,0.1,0.4,0.3,0.4,0.5s-0.2,0.4-0.5,0.5L281,33
			c-0.2,0.1-0.5,0.4-0.7,0.9c0,0.1-0.1,0.1-0.1,0.2c-0.1,0.3-0.3,0.7-0.6,1.3c-1.1,2.4-1.9,3.7-2.2,3.7c-0.3,0-1-1.2-2.1-3.5V34.6
			L275.3,34.6z M285.1,33.9v1.7c0,0.6,0,0.9,0,1.1c0,0.2,0.1,0.3,0.1,0.4c0,0,0.1,0.1,0.2,0.1c0.3,0.1,0.4,0.3,0.4,0.5
			s-0.1,0.4-0.4,0.5s-0.8,0.1-1.6,0.1c-0.7,0-1.3-0.1-1.5-0.1c-0.3-0.1-0.4-0.3-0.4-0.5s0.1-0.4,0.4-0.5c0.1-0.1,0.2-0.1,0.2-0.1
			c0.1-0.1,0.1-0.2,0.1-0.4s0-0.6,0-1.3c0-1,0-1.6-0.1-1.9c0-0.3-0.1-0.4-0.2-0.5c0,0-0.1-0.1-0.4-0.1c-0.2-0.1-0.4-0.2-0.4-0.4
			c0-0.1,0-0.2,0.1-0.3s0.2-0.2,0.4-0.3c0.4-0.2,0.8-0.3,1.2-0.5c0.4-0.1,0.8-0.2,1-0.2s0.3,0,0.4,0.1s0.1,0.3,0.1,0.5
			c0,0,0,0.1,0,0.3L285.1,33.9L285.1,33.9z M282.3,29.3c0-0.3,0.2-0.6,0.5-0.8c0.3-0.2,0.7-0.4,1.1-0.4s0.7,0.1,1,0.3
			c0.3,0.2,0.4,0.5,0.4,0.8s-0.1,0.6-0.4,0.8c-0.3,0.2-0.7,0.3-1.1,0.3s-0.8-0.1-1-0.3C282.4,29.9,282.3,29.6,282.3,29.3L282.3,29.3
			z M287.3,36v-3.6h-0.8c-0.1,0-0.2,0-0.2-0.1s-0.1-0.2-0.1-0.5c0-0.2,0.2-0.4,0.5-0.7c0.1-0.1,0.1-0.1,0.2-0.1
			c0.1-0.1,0.3-0.2,0.5-0.4c0.9-0.7,1.5-1,1.8-1c0.2,0,0.3,0,0.3,0.1s0.1,0.2,0.1,0.4v1.1h1.7c0.1,0,0.2,0,0.3,0.1
			c0,0,0.1,0.1,0.1,0.2c0,0.4,0,0.6-0.1,0.7c0,0.1-0.2,0.1-0.4,0.1h-1.6v3.2c0,0.6,0.1,1,0.2,1.2s0.3,0.3,0.5,0.3s0.4-0.1,0.7-0.2
			s0.4-0.2,0.5-0.2s0.2,0,0.3,0.1c0.1,0.1,0.1,0.2,0.1,0.3c0,0.3-0.2,0.6-0.7,0.9c-0.5,0.3-1,0.4-1.7,0.4c-0.8,0-1.3-0.2-1.7-0.6
			C287.4,37.6,287.3,37,287.3,36L287.3,36L287.3,36z M295.2,32.1C295.2,32.2,295.2,32.2,295.2,32.1c0,0.1,0,0.2,0.1,0.2
			s0.2-0.1,0.3-0.2c0.1-0.1,0.1-0.1,0.1-0.2c0.2-0.3,0.5-0.5,0.8-0.6s0.6-0.2,1-0.2c0.9,0,1.5,0.3,1.9,0.8c0.4,0.5,0.6,1.3,0.6,2.5
			v1.2c0,0.5,0,0.9,0,1.1c0,0.2,0.1,0.3,0.1,0.4c0,0,0.1,0.1,0.4,0.2s0.3,0.3,0.3,0.5s-0.1,0.4-0.4,0.5s-0.8,0.1-1.5,0.1
			c-0.8,0-1.3-0.1-1.6-0.1c-0.3-0.1-0.4-0.3-0.4-0.5s0.1-0.4,0.4-0.5c0.1-0.1,0.2-0.1,0.2-0.1c0.1-0.1,0.1-0.2,0.1-0.4s0-0.6,0-1.1
			c0-1.1-0.1-1.9-0.2-2.2c-0.2-0.3-0.5-0.5-0.9-0.5c-0.5,0-0.8,0.2-1,0.6c-0.2,0.4-0.3,1-0.3,1.9c0,0.5,0,0.9,0,1.1
			c0,0.2,0.1,0.4,0.1,0.5c0,0,0.2,0.1,0.4,0.2c0.2,0.1,0.3,0.3,0.3,0.5s-0.1,0.4-0.4,0.5s-0.8,0.1-1.5,0.1c-0.8,0-1.3-0.1-1.6-0.1
			c-0.3-0.1-0.4-0.3-0.4-0.5s0.1-0.4,0.4-0.5c0.1-0.1,0.2-0.1,0.2-0.1c0.1-0.1,0.1-0.3,0.2-0.7c0-0.4,0-1.5,0-3.2
			c0-1.3,0-2.2-0.1-2.6c0-0.4-0.1-0.6-0.2-0.7c0,0-0.1-0.1-0.4-0.1c-0.2-0.1-0.4-0.2-0.4-0.4c0-0.1,0.1-0.2,0.2-0.3
			c0.1-0.1,0.3-0.2,0.7-0.4c0.4-0.2,0.8-0.3,1.1-0.4c0.4-0.1,0.7-0.1,0.9-0.1c0.2,0,0.3,0,0.4,0.1s0.1,0.3,0.1,0.6
			c0,0.2,0,0.7,0,1.3c0,0.6,0,1.1,0,1.5L295.2,32.1L295.2,32.1z"/>
		<path class="st7" d="M308.5,33.9v1.7c0,0.6,0,0.9,0,1.1c0,0.2,0.1,0.3,0.1,0.4c0,0,0.1,0.1,0.2,0.1c0.3,0.1,0.4,0.3,0.4,0.5
			s-0.1,0.4-0.4,0.5s-0.8,0.1-1.6,0.1c-0.7,0-1.3-0.1-1.5-0.1c-0.3-0.1-0.4-0.3-0.4-0.5s0.1-0.4,0.4-0.5c0.1-0.1,0.2-0.1,0.2-0.1
			c0.1-0.1,0.1-0.2,0.1-0.4s0-0.6,0-1.3c0-1,0-1.6-0.1-1.9c0-0.3-0.1-0.4-0.2-0.5c0,0-0.1-0.1-0.4-0.1c-0.2-0.1-0.4-0.2-0.4-0.4
			c0-0.1,0-0.2,0.1-0.3s0.2-0.2,0.4-0.3c0.4-0.2,0.8-0.3,1.2-0.5c0.4-0.1,0.8-0.2,1-0.2s0.3,0,0.4,0.1s0.1,0.3,0.1,0.5
			c0,0,0,0.1,0,0.3C308.5,32.8,308.5,33.4,308.5,33.9L308.5,33.9z M305.7,29.3c0-0.3,0.2-0.6,0.5-0.8c0.3-0.2,0.7-0.4,1.1-0.4
			s0.7,0.1,1,0.3c0.3,0.2,0.4,0.5,0.4,0.8s-0.1,0.6-0.4,0.8c-0.3,0.2-0.7,0.3-1.1,0.3s-0.8-0.1-1-0.3
			C305.9,29.9,305.7,29.6,305.7,29.3L305.7,29.3z M313,33.9c0,1.1,0,1.9,0,2.4s0.1,0.7,0.1,0.8c0,0,0.1,0.1,0.4,0.2
			c0.2,0.1,0.3,0.3,0.3,0.5s-0.1,0.4-0.4,0.5s-0.8,0.1-1.6,0.1s-1.3-0.1-1.6-0.1c-0.3-0.1-0.4-0.3-0.4-0.5s0.1-0.4,0.3-0.5
			c0.2-0.1,0.3-0.2,0.4-0.2c0.1-0.1,0.1-0.3,0.1-0.6s0-1.1,0-2.2v-1.6c0-1,0-1.7,0-2s-0.1-0.6-0.1-0.6s-0.2-0.1-0.4-0.2
			c-0.3-0.1-0.4-0.2-0.4-0.4c0-0.1,0-0.2,0.1-0.3c0.1-0.1,0.2-0.2,0.4-0.3c0.4-0.2,0.8-0.4,1.2-0.5c0.4-0.1,0.8-0.2,1-0.2
			s0.3,0,0.4,0.1s0.1,0.3,0.1,0.6c0,0,0,0.2,0,0.4C313,30.7,313,32.3,313,33.9L313,33.9z M317.5,33.9c0,1.1,0,1.9,0,2.4
			s0.1,0.7,0.1,0.8c0,0,0.1,0.1,0.4,0.2c0.2,0.1,0.3,0.3,0.3,0.5s-0.1,0.4-0.4,0.5s-0.8,0.1-1.6,0.1s-1.3-0.1-1.6-0.1
			c-0.3-0.1-0.4-0.3-0.4-0.5s0.1-0.4,0.3-0.5c0.2-0.1,0.3-0.2,0.4-0.2c0.1-0.1,0.1-0.3,0.1-0.6s0-1.1,0-2.2v-1.6c0-1,0-1.7,0-2
			s-0.1-0.6-0.1-0.6s-0.2-0.1-0.4-0.2c-0.3-0.1-0.4-0.2-0.4-0.4c0-0.1,0-0.2,0.1-0.3c0.1-0.1,0.2-0.2,0.4-0.3
			c0.4-0.2,0.8-0.4,1.2-0.5c0.4-0.1,0.8-0.2,1-0.2s0.3,0,0.4,0.1s0.1,0.3,0.1,0.6c0,0,0,0.2,0,0.4C317.5,30.7,317.5,32.3,317.5,33.9
			L317.5,33.9z M324.3,38v-0.3c0-0.1,0-0.1,0-0.1s0-0.1-0.1-0.1s-0.1,0.1-0.2,0.2c-0.1,0.1-0.2,0.2-0.3,0.3
			c-0.2,0.2-0.5,0.3-0.8,0.4c-0.3,0.1-0.6,0.1-1,0.1c-0.5,0-1-0.1-1.3-0.3c-0.4-0.2-0.6-0.5-0.8-0.9c-0.1-0.2-0.2-0.5-0.2-0.9
			s-0.1-0.8-0.1-1.4v-1.1c0-0.3,0-0.5-0.1-0.6c0-0.1-0.1-0.2-0.2-0.2s-0.1,0-0.2-0.1c-0.3-0.1-0.5-0.3-0.5-0.5c0-0.1,0-0.2,0.1-0.3
			s0.2-0.2,0.4-0.3c0.4-0.2,0.8-0.3,1.2-0.5c0.4-0.1,0.8-0.2,1-0.2s0.3,0,0.4,0.1s0.1,0.3,0.1,0.6c0,0.2,0,0.6,0,1.2
			c0,0.6,0,1.1,0,1.5c0,0.8,0.1,1.3,0.3,1.7s0.5,0.5,0.9,0.5c0.5,0,0.8-0.2,1.1-0.6c0.2-0.4,0.3-1.1,0.3-2.2c0-0.4,0-0.7,0-0.8
			s-0.1-0.2-0.2-0.3c0,0-0.1-0.1-0.2-0.1c-0.4-0.1-0.5-0.2-0.5-0.5c0-0.1,0-0.2,0.1-0.3c0.1-0.1,0.2-0.2,0.4-0.3
			c0.4-0.2,0.8-0.3,1.2-0.5c0.4-0.1,0.8-0.2,1-0.2s0.3,0,0.4,0.1s0.1,0.3,0.1,0.6c0,0.1,0,0.4,0,1.1c0,0.7,0,1.3,0,1.9
			c0,0.6,0,1.1,0.1,1.3s0.1,0.4,0.2,0.4c0,0,0.2,0.1,0.4,0.1c0.2,0.1,0.4,0.2,0.4,0.4c0,0.1,0,0.2-0.1,0.3s-0.2,0.2-0.4,0.3
			c-0.4,0.2-0.8,0.4-1.3,0.5c-0.4,0.1-0.7,0.2-1,0.2c-0.2,0-0.3,0-0.4-0.1C324.3,38.3,324.3,38.2,324.3,38L324.3,38z M331.1,31.7
			v0.4c0,0.1,0,0.1,0,0.1s0,0.1,0.1,0.1s0.2-0.1,0.3-0.2c0.1-0.1,0.2-0.2,0.2-0.3c0.2-0.2,0.4-0.3,0.7-0.4c0.3-0.1,0.6-0.1,0.9-0.1
			s0.6,0.1,0.9,0.1c0.3,0.1,0.5,0.3,0.8,0.5c0.1,0.1,0.2,0.2,0.3,0.3c0.1,0.1,0.2,0.2,0.2,0.2c0.1,0,0.2-0.1,0.3-0.2l0.1-0.1
			c0.3-0.3,0.6-0.5,0.9-0.7c0.3-0.1,0.6-0.2,1-0.2s0.7,0.1,1,0.2s0.6,0.3,0.8,0.6c0.2,0.2,0.4,0.6,0.4,0.9c0.1,0.4,0.1,0.9,0.1,1.6
			v1.1c0,0.5,0,0.9,0,1.1c0,0.2,0.1,0.3,0.1,0.4c0,0,0.2,0.1,0.4,0.2s0.3,0.3,0.3,0.5s-0.1,0.4-0.4,0.5s-0.8,0.1-1.6,0.1
			s-1.3-0.1-1.6-0.1c-0.3-0.1-0.4-0.3-0.4-0.5s0.1-0.4,0.4-0.5c0.1-0.1,0.2-0.1,0.2-0.1c0.1-0.1,0.1-0.2,0.1-0.4s0-0.6,0-1.1
			c0-1.1-0.1-1.8-0.2-2.2c-0.2-0.3-0.4-0.5-0.8-0.5s-0.7,0.2-0.9,0.6c-0.2,0.4-0.3,1-0.3,1.7c0,0.6,0,1,0,1.3s0.1,0.4,0.1,0.5
			c0,0,0.2,0.1,0.4,0.2s0.3,0.3,0.3,0.5s-0.1,0.4-0.4,0.5s-0.8,0.1-1.6,0.1c-0.8,0-1.3-0.1-1.6-0.1c-0.3-0.1-0.4-0.3-0.4-0.5
			s0.1-0.4,0.4-0.5c0.1-0.1,0.2-0.1,0.2-0.1c0.1-0.1,0.1-0.2,0.2-0.4c0-0.2,0-0.6,0-1.1c0-1.1-0.1-1.8-0.2-2.2
			c-0.2-0.3-0.4-0.5-0.8-0.5s-0.7,0.2-0.9,0.6c-0.2,0.4-0.3,1-0.3,1.9c0,0.5,0,0.9,0,1.2c0,0.2,0.1,0.4,0.1,0.5c0,0,0.2,0.1,0.4,0.2
			c0.2,0.1,0.3,0.3,0.3,0.5s-0.1,0.4-0.4,0.5s-0.8,0.1-1.6,0.1c-0.8,0-1.3-0.1-1.6-0.1c-0.3-0.1-0.4-0.3-0.4-0.5s0.1-0.4,0.4-0.5
			c0.1-0.1,0.2-0.1,0.2-0.1c0.1-0.1,0.1-0.2,0.2-0.4c0-0.2,0-0.7,0-1.5c0-0.9,0-1.4-0.1-1.7c0-0.3-0.1-0.4-0.2-0.5
			c0,0-0.2-0.1-0.4-0.1c-0.2-0.1-0.4-0.2-0.4-0.4c0-0.1,0-0.2,0.1-0.3s0.2-0.2,0.4-0.3c0.4-0.2,0.8-0.3,1.2-0.5
			c0.4-0.1,0.8-0.2,1-0.2s0.3,0,0.4,0.1C331,31.4,331.1,31.5,331.1,31.7L331.1,31.7z M344.6,33.9v1.7c0,0.6,0,0.9,0,1.1
			c0,0.2,0.1,0.3,0.1,0.4c0,0,0.1,0.1,0.2,0.1c0.3,0.1,0.4,0.3,0.4,0.5s-0.1,0.4-0.4,0.5s-0.8,0.1-1.6,0.1c-0.7,0-1.3-0.1-1.5-0.1
			c-0.3-0.1-0.4-0.3-0.4-0.5s0.1-0.4,0.4-0.5c0.1-0.1,0.2-0.1,0.2-0.1c0.1-0.1,0.1-0.2,0.1-0.4s0-0.6,0-1.3c0-1,0-1.6-0.1-1.9
			c0-0.3-0.1-0.4-0.2-0.5c0,0-0.1-0.1-0.4-0.1c-0.2-0.1-0.4-0.2-0.4-0.4c0-0.1,0-0.2,0.1-0.3s0.2-0.2,0.4-0.3
			c0.4-0.2,0.8-0.3,1.2-0.5c0.4-0.1,0.8-0.2,1-0.2s0.3,0,0.4,0.1s0.1,0.3,0.1,0.5c0,0,0,0.1,0,0.3C344.6,32.8,344.6,33.4,344.6,33.9
			L344.6,33.9z M341.8,29.3c0-0.3,0.2-0.6,0.5-0.8c0.3-0.2,0.7-0.4,1.1-0.4s0.7,0.1,1,0.3c0.3,0.2,0.4,0.5,0.4,0.8s-0.1,0.6-0.4,0.8
			s-0.7,0.3-1.1,0.3s-0.8-0.1-1-0.3C341.9,29.9,341.8,29.6,341.8,29.3L341.8,29.3z M351.2,38.4c-0.4,0-1,0-1.7,0s-1.2,0-1.4,0
			c-0.1,0-0.3,0-0.5,0s-0.4,0-0.4,0c-0.2,0-0.3,0-0.4,0s-0.2,0-0.3,0c-0.2,0-0.4-0.1-0.4-0.2S346,38,346,37.8s0.1-0.4,0.4-0.6
			c0.3-0.1,0.4-0.2,0.4-0.3c0.1-0.1,0.1-0.5,0.2-1.2c0-0.7,0.1-1.6,0.1-2.8c0-0.9,0-1.6-0.1-2.2c0-0.5-0.1-0.9-0.2-1
			c0,0-0.2-0.1-0.4-0.3c-0.3-0.1-0.4-0.3-0.4-0.6c0-0.2,0.1-0.4,0.3-0.5s0.7-0.1,1.5-0.1c0.5,0,1.1,0,1.7,0c0.7,0,1.1,0,1.2,0
			c0.9,0,1.6,0.1,2.2,0.2c0.5,0.1,1,0.3,1.4,0.6c0.6,0.4,1.1,1,1.5,1.8c0.3,0.7,0.5,1.6,0.5,2.5c0,1.6-0.4,2.8-1.3,3.7
			C353.9,37.9,352.7,38.4,351.2,38.4L351.2,38.4z M353.4,33.5c0-1.2-0.3-2.2-0.8-3c-0.5-0.7-1.2-1.1-2.1-1.1c-0.3,0-0.6,0-0.7,0.1
			s-0.3,0.2-0.3,0.3c-0.1,0.2-0.1,0.5-0.1,1s0,1.2,0,2c0,1,0,1.8,0,2.5s0.1,1.1,0.1,1.3c0,0.1,0.2,0.2,0.4,0.3
			c0.2,0.1,0.5,0.1,0.8,0.1c0.9,0,1.5-0.3,2-1C353.2,35.6,353.4,34.7,353.4,33.5z M363.3,34.9H360c-0.2,0-0.3,0-0.3,0
			s-0.1,0.1-0.1,0.2c0,0.5,0.2,0.9,0.5,1.2c0.4,0.4,0.8,0.5,1.3,0.5c0.4,0,0.8-0.1,1.2-0.3s0.7-0.3,0.7-0.3c0.1,0,0.2,0,0.3,0.1
			c0.1,0.1,0.1,0.2,0.1,0.3c0,0.2,0,0.3-0.1,0.5c-0.1,0.1-0.2,0.3-0.5,0.5c-0.3,0.3-0.7,0.5-1.1,0.6s-0.9,0.2-1.3,0.2
			c-1.1,0-1.9-0.3-2.6-1s-1-1.5-1-2.6s0.3-2,1-2.7s1.6-1.1,2.6-1.1c0.9,0,1.7,0.3,2.3,0.8c0.6,0.5,0.9,1.2,0.9,2
			c0,0.4,0,0.7-0.1,0.8C363.8,34.9,363.6,34.9,363.3,34.9L363.3,34.9z M359.8,34h1.8c0.1,0,0.2,0,0.2-0.1c0,0,0.1-0.1,0.1-0.2
			c0-0.4-0.1-0.7-0.3-1c-0.2-0.3-0.5-0.4-0.8-0.4s-0.6,0.1-0.8,0.4s-0.3,0.6-0.3,1c0,0.1,0,0.1,0.1,0.1
			C359.7,33.9,359.7,33.9,359.8,34z M364.6,33.3c0-0.6,0.2-1.2,0.6-1.6s1-0.6,1.7-0.6c0.2,0,0.4,0,0.6,0s0.3,0,0.4,0s0.2,0,0.4-0.1
			c0.2-0.1,0.3-0.1,0.4-0.1s0.2,0,0.3,0.1c0.1,0.1,0.2,0.2,0.3,0.3c0.2,0.3,0.3,0.5,0.5,0.8c0.1,0.3,0.2,0.6,0.2,0.8s0,0.3-0.1,0.4
			c-0.1,0.1-0.2,0.2-0.3,0.2c-0.1,0-0.2,0-0.3-0.1c-0.1-0.1-0.2-0.2-0.3-0.4c0,0-0.1-0.1-0.2-0.2c-0.4-0.5-0.8-0.8-1.1-0.8
			c-0.2,0-0.3,0.1-0.4,0.2c-0.1,0.1-0.2,0.2-0.2,0.4c0,0.3,0.4,0.6,1.1,1c0.2,0.1,0.3,0.2,0.4,0.2c0.6,0.3,1,0.6,1.3,0.9
			s0.4,0.8,0.4,1.2c0,0.7-0.3,1.2-0.8,1.7c-0.5,0.4-1.2,0.7-2,0.7c-0.2,0-0.4,0-0.7-0.1c-0.3,0-0.4-0.1-0.5-0.1s-0.2,0-0.3,0.1
			c-0.1,0-0.2,0.1-0.3,0.1c-0.1,0-0.2,0-0.3-0.1c-0.1-0.1-0.2-0.2-0.3-0.3c-0.2-0.3-0.3-0.6-0.4-0.9c-0.1-0.3-0.2-0.6-0.2-0.8
			s0.1-0.4,0.2-0.5s0.2-0.2,0.4-0.2c0.2,0,0.5,0.2,0.8,0.7c0.1,0.1,0.2,0.2,0.2,0.3c0.1,0.2,0.3,0.4,0.6,0.5
			c0.2,0.1,0.5,0.2,0.8,0.2c0.2,0,0.4-0.1,0.6-0.2s0.2-0.3,0.2-0.5c0-0.3-0.5-0.7-1.4-1.2h-0.1c-0.8-0.4-1.4-0.8-1.7-1.1
			C364.8,34.2,364.6,33.8,364.6,33.3L364.6,33.3z M373.9,32.2v1.6c0,0.1,0,0.1,0,0.2h0.1c0,0,0.1,0,0.1-0.1s0.1-0.1,0.3-0.2l0.8-0.8
			c0.1-0.1,0.2-0.2,0.2-0.3s0.1-0.1,0.1-0.2c0-0.1,0-0.2-0.1-0.3s-0.1-0.2-0.1-0.3c0-0.2,0.1-0.3,0.4-0.4s0.7-0.1,1.3-0.1
			c0.5,0,0.9,0.1,1.1,0.2s0.3,0.3,0.3,0.5c0,0.1,0,0.2-0.1,0.3c0,0.1-0.1,0.1-0.2,0.1l-0.6,0.1c0,0,0,0-0.1,0
			c-0.4,0.1-0.7,0.2-1,0.5l-0.4,0.4l-0.1,0.1c-0.1,0.1-0.2,0.2-0.2,0.2c0,0.1,0.1,0.2,0.2,0.3s0.3,0.4,0.5,0.6
			c0.4,0.5,0.8,0.9,1.1,1.3c0.4,0.4,0.6,0.7,0.9,0.9c0.2,0.2,0.5,0.4,0.9,0.5c0.1,0,0.1,0,0.1,0c0.1,0,0.2,0.1,0.3,0.2
			c0.1,0.1,0.1,0.2,0.1,0.3c0,0.2-0.1,0.4-0.4,0.5s-0.8,0.1-1.6,0.1h-0.3c-0.3,0-0.5,0-0.7-0.1s-0.3-0.2-0.5-0.4
			c-0.4-0.5-0.9-1-1.4-1.7s-0.8-1-0.9-1h-0.1c0,0,0,0.1,0,0.2V36c0,0.4,0,0.7,0,0.8c0,0.2,0.1,0.3,0.1,0.3s0.1,0.1,0.2,0.1
			c0.3,0.1,0.4,0.3,0.4,0.5s-0.1,0.4-0.4,0.5s-0.8,0.1-1.6,0.1c-0.8,0-1.3-0.1-1.6-0.1c-0.3-0.1-0.4-0.3-0.4-0.5s0.1-0.4,0.3-0.5
			c0.2-0.1,0.3-0.2,0.4-0.2c0.1-0.1,0.1-0.3,0.1-0.6s0-1.1,0-2.2v-1.6c0-1,0-1.7,0-2s-0.1-0.6-0.1-0.6s-0.2-0.1-0.4-0.2
			c-0.3-0.1-0.4-0.2-0.4-0.4c0-0.1,0-0.2,0.1-0.3c0.1-0.1,0.2-0.2,0.4-0.3c0.4-0.2,0.8-0.4,1.2-0.5c0.4-0.1,0.8-0.2,1-0.2
			s0.3,0,0.4,0.1s0.1,0.3,0.1,0.6c0,0.1,0,0.5,0,1.3C373.9,30.9,373.9,31.5,373.9,32.2L373.9,32.2z"/>
	</g>
	<g>
		<path d="M174.4,53.9l0.7,0.6l-0.4,0.5l-0.7-0.6c-0.5,0.4-1.2,0.7-1.9,0.7c-1.6,0-3-1.4-3-3.1c0-1.7,1.4-3,3-3s3,1.4,3,3
			C175,52.7,174.8,53.4,174.4,53.9L174.4,53.9z M173.4,54l-0.9-0.8l0.4-0.5l0.9,0.8c0.3-0.4,0.5-0.9,0.5-1.4c0-1.3-1.1-2.4-2.3-2.4
			s-2.3,1.1-2.3,2.4c0,1.3,1.1,2.4,2.3,2.4C172.5,54.5,173,54.3,173.4,54z M179.9,50.6V55h-0.6v-0.7c-0.3,0.5-0.8,0.8-1.5,0.8
			c-1,0-1.7-0.7-1.7-1.7v-2.8h0.6v2.7c0,0.7,0.5,1.2,1.1,1.2c0.7,0,1.4-0.5,1.4-1.1v-2.8C179.2,50.6,179.9,50.6,179.9,50.6z
			 M181.1,49.3c0-0.2,0.2-0.4,0.4-0.4s0.4,0.2,0.4,0.4s-0.2,0.4-0.4,0.4C181.3,49.8,181.1,49.6,181.1,49.3z M181.2,50.6h0.6V55h-0.6
			V50.6z M182.9,52.8c0-1.3,1.1-2.3,2.3-2.3c0.6,0,1.2,0.2,1.6,0.7l-0.4,0.4c-0.3-0.3-0.7-0.5-1.1-0.5c-0.9,0-1.6,0.8-1.6,1.7
			c0,1,0.7,1.7,1.6,1.7c0.4,0,0.9-0.2,1.2-0.5l0.4,0.4c-0.4,0.4-1,0.7-1.6,0.7C183.9,55.1,182.9,54,182.9,52.8L182.9,52.8z
			 M189.6,52.6l1.9,2.4h-0.8l-1.5-2l-0.8,0.8V55h-0.6v-6h0.6v4l2.4-2.5h0.8L189.6,52.6L189.6,52.6z M192.4,49h0.6v6h-0.6V49z
			 M194.3,56.4l0.2-0.5c0.2,0.1,0.3,0.1,0.5,0.1c0.3,0,0.5-0.1,0.6-0.4l0.3-0.5l-1.9-4.4h0.7l1.6,3.7l1.5-3.7h0.7l-2,4.9
			c-0.3,0.8-0.7,1-1.3,1C194.8,56.5,194.5,56.5,194.3,56.4L194.3,56.4z M201.7,52.8c0-1.3,1.1-2.3,2.3-2.3c0.6,0,1.2,0.2,1.6,0.7
			l-0.4,0.4c-0.3-0.3-0.7-0.5-1.1-0.5c-0.9,0-1.6,0.8-1.6,1.7c0,1,0.7,1.7,1.6,1.7c0.4,0,0.9-0.2,1.2-0.5l0.4,0.4
			c-0.4,0.4-1,0.7-1.6,0.7C202.7,55.1,201.7,54,201.7,52.8L201.7,52.8z M209,50.5V51c-1,0-1.7,0.6-1.7,1.5V55h-0.6v-4.4h0.6v0.9
			C207.5,50.8,208.2,50.5,209,50.5L209,50.5z M213.3,54l0.4,0.4c-0.4,0.4-1.2,0.7-1.8,0.7c-1.2,0-2.2-1-2.2-2.3s1-2.3,2.2-2.3
			c1.3,0,2.1,1,2.1,2.6h-3.6c0.1,0.9,0.7,1.5,1.6,1.5C212.4,54.5,213,54.3,213.3,54L213.3,54z M210.3,52.4h3
			c-0.1-0.8-0.6-1.4-1.4-1.4C211.1,51,210.4,51.6,210.3,52.4L210.3,52.4z M218.6,52.3V55H218v-0.7c-0.3,0.5-1,0.8-1.6,0.8
			c-0.9,0-1.6-0.5-1.6-1.4s0.8-1.5,1.7-1.5c0.5,0,1,0.1,1.4,0.2v-0.2c0-0.6-0.2-1.3-1.2-1.3c-0.4,0-0.9,0.2-1.3,0.4l-0.3-0.5
			c0.6-0.3,1.2-0.4,1.6-0.4C218,50.5,218.6,51.2,218.6,52.3L218.6,52.3z M217.9,53.6v-0.7c-0.4-0.1-0.9-0.2-1.3-0.2
			c-0.7,0-1.2,0.4-1.2,0.9s0.5,0.9,1.1,0.9S217.8,54.2,217.9,53.6z M222.2,54.8c-0.2,0.2-0.5,0.3-0.8,0.3c-0.6,0-1.1-0.5-1.1-1.1
			v-2.8h-0.7v-0.6h0.7v-1.2h0.6v1.2h1.1v0.6h-1.1V54c0,0.3,0.2,0.6,0.5,0.6c0.2,0,0.4-0.1,0.5-0.2L222.2,54.8L222.2,54.8z M226.5,54
			l0.4,0.4c-0.4,0.4-1.2,0.7-1.8,0.7c-1.2,0-2.2-1-2.2-2.3s1-2.3,2.2-2.3c1.3,0,2.1,1,2.1,2.6h-3.6c0.1,0.9,0.7,1.5,1.6,1.5
			C225.6,54.5,226.2,54.3,226.5,54L226.5,54z M223.5,52.4h3c-0.1-0.8-0.6-1.4-1.4-1.4C224.2,51,223.6,51.6,223.5,52.4L223.5,52.4z
			 M234,54l0.4,0.4c-0.4,0.4-1.2,0.7-1.8,0.7c-1.2,0-2.2-1-2.2-2.3s1-2.3,2.2-2.3c1.3,0,2.1,1,2.1,2.6h-3.6c0.1,0.9,0.7,1.5,1.6,1.5
			C233.2,54.5,233.8,54.3,234,54L234,54z M231.1,52.4h3c-0.1-0.8-0.6-1.4-1.4-1.4C231.8,51,231.2,51.6,231.1,52.4L231.1,52.4z
			 M239.5,52.2V55h-0.6v-2.7c0-0.7-0.5-1.2-1.1-1.2c-0.7,0-1.4,0.5-1.4,1.1V55h-0.6v-4.4h0.6v0.7c0.3-0.5,0.8-0.8,1.5-0.8
			C238.8,50.5,239.5,51.2,239.5,52.2z M244.9,50.6v4c0,1.1-0.9,1.9-2.2,1.9c-0.7,0-1.4-0.2-1.8-0.6l0.3-0.5c0.3,0.3,0.9,0.5,1.4,0.5
			c1,0,1.6-0.5,1.6-1.4v-0.7c-0.3,0.5-0.9,0.9-1.6,0.9c-1.2,0-2-0.9-2-2.1s0.8-2.1,2-2.1c0.7,0,1.3,0.3,1.6,0.9v-0.8L244.9,50.6
			L244.9,50.6z M244.3,52.6c0-0.9-0.6-1.5-1.5-1.5s-1.5,0.6-1.5,1.5s0.6,1.5,1.5,1.5S244.3,53.5,244.3,52.6z M249.9,52.3V55h-0.6
			v-0.7c-0.3,0.5-1,0.8-1.6,0.8c-0.9,0-1.6-0.5-1.6-1.4s0.8-1.5,1.7-1.5c0.5,0,1,0.1,1.4,0.2v-0.2c0-0.6-0.2-1.3-1.2-1.3
			c-0.4,0-0.9,0.2-1.3,0.4l-0.3-0.5c0.6-0.3,1.2-0.4,1.6-0.4C249.3,50.5,249.9,51.2,249.9,52.3L249.9,52.3z M249.2,53.6v-0.7
			c-0.4-0.1-0.9-0.2-1.3-0.2c-0.7,0-1.2,0.4-1.2,0.9s0.5,0.9,1.1,0.9C248.4,54.5,249.1,54.2,249.2,53.6z M255.3,50.6v4
			c0,1.1-0.9,1.9-2.2,1.9c-0.7,0-1.4-0.2-1.8-0.6l0.3-0.5c0.3,0.3,0.9,0.5,1.4,0.5c1,0,1.6-0.5,1.6-1.4v-0.7
			c-0.3,0.5-0.9,0.9-1.6,0.9c-1.2,0-2-0.9-2-2.1s0.8-2.1,2-2.1c0.7,0,1.3,0.3,1.6,0.9v-0.8L255.3,50.6L255.3,50.6z M254.6,52.6
			c0-0.9-0.6-1.5-1.5-1.5s-1.5,0.6-1.5,1.5s0.6,1.5,1.5,1.5S254.6,53.5,254.6,52.6z M256.5,49.3c0-0.2,0.2-0.4,0.4-0.4
			c0.2,0,0.4,0.2,0.4,0.4s-0.2,0.4-0.4,0.4C256.7,49.8,256.5,49.6,256.5,49.3z M256.6,50.6h0.6V55h-0.6V50.6z M262.3,52.2V55h-0.6
			v-2.7c0-0.7-0.5-1.2-1.1-1.2c-0.7,0-1.4,0.5-1.4,1.1V55h-0.6v-4.4h0.6v0.7c0.3-0.5,0.8-0.8,1.5-0.8
			C261.7,50.5,262.3,51.2,262.3,52.2z M267.7,50.6v4c0,1.1-0.9,1.9-2.2,1.9c-0.7,0-1.4-0.2-1.8-0.6l0.3-0.5c0.3,0.3,0.9,0.5,1.4,0.5
			c1,0,1.6-0.5,1.6-1.4v-0.7c-0.3,0.5-0.9,0.9-1.6,0.9c-1.2,0-2-0.9-2-2.1s0.8-2.1,2-2.1c0.7,0,1.3,0.3,1.6,0.9v-0.8L267.7,50.6
			L267.7,50.6z M267.1,52.6c0-0.9-0.6-1.5-1.5-1.5s-1.5,0.6-1.5,1.5s0.6,1.5,1.5,1.5S267.1,53.5,267.1,52.6z M271.5,49.3
			c0-0.2,0.2-0.4,0.4-0.4c0.2,0,0.4,0.2,0.4,0.4s-0.2,0.4-0.4,0.4C271.7,49.8,271.5,49.6,271.5,49.3z M271.6,50.6h0.6V55h-0.6V50.6z
			 M277.3,52.2V55h-0.6v-2.7c0-0.7-0.5-1.2-1.1-1.2c-0.7,0-1.4,0.5-1.4,1.1V55h-0.6v-4.4h0.6v0.7c0.3-0.5,0.8-0.8,1.5-0.8
			C276.6,50.5,277.3,51.2,277.3,52.2z M280.8,54.8c-0.2,0.2-0.5,0.3-0.8,0.3c-0.6,0-1.1-0.5-1.1-1.1v-2.8h-0.7v-0.6h0.7v-1.2h0.6
			v1.2h1.1v0.6h-1.1V54c0,0.3,0.2,0.6,0.5,0.6c0.2,0,0.4-0.1,0.5-0.2L280.8,54.8L280.8,54.8z M285.1,54l0.4,0.4
			c-0.4,0.4-1.2,0.7-1.8,0.7c-1.2,0-2.2-1-2.2-2.3s1-2.3,2.2-2.3c1.3,0,2.1,1,2.1,2.6h-3.6c0.1,0.9,0.7,1.5,1.6,1.5
			C284.3,54.5,284.9,54.3,285.1,54L285.1,54z M282.2,52.4h3c-0.1-0.8-0.6-1.4-1.4-1.4C282.9,51,282.3,51.6,282.2,52.4L282.2,52.4z
			 M289.3,50.5V51c-1,0-1.7,0.6-1.7,1.5V55H287v-4.4h0.6v0.9C287.8,50.8,288.5,50.5,289.3,50.5L289.3,50.5z M293.8,52.3V55h-0.6
			v-0.7c-0.3,0.5-1,0.8-1.6,0.8c-0.9,0-1.6-0.5-1.6-1.4s0.8-1.5,1.7-1.5c0.5,0,1,0.1,1.4,0.2v-0.2c0-0.6-0.2-1.3-1.2-1.3
			c-0.4,0-0.9,0.2-1.3,0.4l-0.3-0.5c0.6-0.3,1.2-0.4,1.6-0.4C293.2,50.5,293.8,51.2,293.8,52.3L293.8,52.3z M293.1,53.6v-0.7
			c-0.4-0.1-0.9-0.2-1.3-0.2c-0.7,0-1.2,0.4-1.2,0.9s0.5,0.9,1.1,0.9C292.3,54.5,292.9,54.2,293.1,53.6z M294.8,52.8
			c0-1.3,1.1-2.3,2.3-2.3c0.6,0,1.2,0.2,1.6,0.7l-0.4,0.4c-0.3-0.3-0.7-0.5-1.1-0.5c-0.9,0-1.6,0.8-1.6,1.7c0,1,0.7,1.7,1.6,1.7
			c0.4,0,0.9-0.2,1.2-0.5l0.4,0.4c-0.4,0.4-1,0.7-1.6,0.7C295.9,55.1,294.8,54,294.8,52.8L294.8,52.8z M302,54.8
			c-0.2,0.2-0.5,0.3-0.8,0.3c-0.6,0-1.1-0.5-1.1-1.1v-2.8h-0.7v-0.6h0.7v-1.2h0.6v1.2h1.1v0.6h-1.1V54c0,0.3,0.2,0.6,0.5,0.6
			c0.2,0,0.4-0.1,0.5-0.2L302,54.8L302,54.8z M302.8,49.3c0-0.2,0.2-0.4,0.4-0.4c0.2,0,0.4,0.2,0.4,0.4s-0.2,0.4-0.4,0.4
			C303,49.8,302.8,49.6,302.8,49.3z M302.9,50.6h0.6V55h-0.6V50.6z M304.4,50.6h0.7l1.5,3.7l1.4-3.7h0.7l-1.9,4.4h-0.6L304.4,50.6
			L304.4,50.6z M312.7,54l0.4,0.4c-0.4,0.4-1.2,0.7-1.8,0.7c-1.2,0-2.2-1-2.2-2.3s1-2.3,2.2-2.3c1.3,0,2.1,1,2.1,2.6h-3.6
			c0.1,0.9,0.7,1.5,1.6,1.5C311.9,54.5,312.5,54.3,312.7,54L312.7,54z M309.8,52.4h3c-0.1-0.8-0.6-1.4-1.4-1.4
			C310.5,51,309.9,51.6,309.8,52.4L309.8,52.4z M316.6,50.6h0.7l1.1,3.6l1.2-3.6h0.6l1.2,3.6l1.1-3.6h0.7l-1.5,4.4H321l-1.2-3.5
			l-1.2,3.5H318L316.6,50.6z M327.2,54l0.4,0.4c-0.4,0.4-1.2,0.7-1.8,0.7c-1.2,0-2.2-1-2.2-2.3s1-2.3,2.2-2.3c1.3,0,2.1,1,2.1,2.6
			h-3.6c0.1,0.9,0.7,1.5,1.6,1.5C326.4,54.5,327,54.3,327.2,54L327.2,54z M324.3,52.4h3c-0.1-0.8-0.6-1.4-1.4-1.4
			C325,51,324.4,51.6,324.3,52.4L324.3,52.4z M333.3,52.8c0,1.4-0.9,2.3-2,2.3c-0.7,0-1.3-0.4-1.6-0.9V55H329v-6h0.6v2.4
			c0.3-0.6,0.9-0.9,1.6-0.9C332.4,50.5,333.3,51.4,333.3,52.8z M332.6,52.8c0-1-0.6-1.7-1.5-1.7s-1.5,0.7-1.5,1.7s0.6,1.7,1.5,1.7
			S332.6,53.8,332.6,52.8z M334.3,52.4h2.2V53h-2.2V52.4z M342,52.8c0,1.4-0.9,2.3-2,2.3c-0.7,0-1.3-0.4-1.6-0.9V55h-0.6v-6h0.6v2.4
			c0.3-0.6,0.9-0.9,1.6-0.9C341.1,50.5,342,51.4,342,52.8z M341.3,52.8c0-1-0.6-1.7-1.5-1.7s-1.5,0.7-1.5,1.7s0.6,1.7,1.5,1.7
			C340.7,54.5,341.3,53.8,341.3,52.8z M346.7,52.3V55H346v-0.7c-0.3,0.5-1,0.8-1.6,0.8c-0.9,0-1.6-0.5-1.6-1.4s0.8-1.5,1.7-1.5
			c0.5,0,1,0.1,1.4,0.2v-0.2c0-0.6-0.2-1.3-1.2-1.3c-0.4,0-0.9,0.2-1.3,0.4l-0.3-0.5c0.6-0.3,1.2-0.4,1.6-0.4
			C346.1,50.5,346.7,51.2,346.7,52.3L346.7,52.3z M346,53.6v-0.7c-0.4-0.1-0.9-0.2-1.3-0.2c-0.7,0-1.2,0.4-1.2,0.9s0.5,0.9,1.1,0.9
			S345.9,54.2,346,53.6z M347.7,54.4l0.3-0.5c0.5,0.4,1,0.6,1.5,0.6c0.6,0,1-0.3,1-0.7c0-0.5-0.5-0.6-1.1-0.8
			c-1.1-0.3-1.5-0.6-1.5-1.3c0-0.8,0.7-1.3,1.6-1.3c0.5,0,1.1,0.2,1.6,0.5l-0.3,0.5c-0.4-0.3-0.9-0.4-1.3-0.4
			c-0.5,0-0.9,0.2-0.9,0.7c0,0.4,0.3,0.5,1.1,0.8c0.7,0.2,1.4,0.5,1.4,1.3s-0.7,1.3-1.6,1.3C348.9,55.1,348.2,54.9,347.7,54.4
			L347.7,54.4z M355.6,54l0.4,0.4c-0.4,0.4-1.2,0.7-1.8,0.7c-1.2,0-2.2-1-2.2-2.3s1-2.3,2.2-2.3c1.3,0,2.1,1,2.1,2.6h-3.6
			c0.1,0.9,0.7,1.5,1.6,1.5C354.8,54.5,355.4,54.3,355.6,54L355.6,54z M352.7,52.4h3c-0.1-0.8-0.6-1.4-1.4-1.4
			C353.4,51,352.8,51.6,352.7,52.4L352.7,52.4z M361.4,49v6h-0.6v-0.8c-0.3,0.6-0.9,0.9-1.6,0.9c-1.2,0-2-1-2-2.3
			c0-1.4,0.9-2.3,2-2.3c0.7,0,1.3,0.4,1.6,0.9V49H361.4z M360.8,52.8c0-1-0.6-1.7-1.5-1.7s-1.5,0.7-1.5,1.7s0.6,1.7,1.5,1.7
			C360.2,54.5,360.8,53.8,360.8,52.8z M365.3,49h0.6v6h-0.6V49z M370.6,54l0.4,0.4c-0.4,0.4-1.2,0.7-1.8,0.7c-1.2,0-2.2-1-2.2-2.3
			s1-2.3,2.2-2.3c1.3,0,2.1,1,2.1,2.6h-3.6c0.1,0.9,0.7,1.5,1.6,1.5C369.8,54.5,370.4,54.3,370.6,54L370.6,54z M367.7,52.4h3
			c-0.1-0.8-0.6-1.4-1.4-1.4C368.4,51,367.8,51.6,367.7,52.4L367.7,52.4z M375.9,52.3V55h-0.6v-0.7c-0.3,0.5-1,0.8-1.6,0.8
			c-0.9,0-1.6-0.5-1.6-1.4s0.8-1.5,1.7-1.5c0.5,0,1,0.1,1.4,0.2v-0.2c0-0.6-0.2-1.3-1.2-1.3c-0.4,0-0.9,0.2-1.3,0.4l-0.3-0.5
			c0.6-0.3,1.2-0.4,1.6-0.4C375.3,50.5,375.9,51.2,375.9,52.3L375.9,52.3z M375.3,53.6v-0.7c-0.4-0.1-0.9-0.2-1.3-0.2
			c-0.7,0-1.2,0.4-1.2,0.9s0.5,0.9,1.1,0.9C374.4,54.5,375.1,54.2,375.3,53.6z M379.7,50.5V51c-1,0-1.7,0.6-1.7,1.5V55h-0.6v-4.4
			h0.6v0.9C378.2,50.8,378.8,50.5,379.7,50.5L379.7,50.5z M384.3,52.2V55h-0.6v-2.7c0-0.7-0.5-1.2-1.1-1.2c-0.7,0-1.4,0.5-1.4,1.1
			V55h-0.6v-4.4h0.6v0.7c0.3-0.5,0.8-0.8,1.5-0.8C383.6,50.5,384.3,51.2,384.3,52.2z M385.5,49.3c0-0.2,0.2-0.4,0.4-0.4
			c0.2,0,0.4,0.2,0.4,0.4s-0.2,0.4-0.4,0.4C385.7,49.8,385.5,49.6,385.5,49.3z M385.6,50.6h0.6V55h-0.6V50.6z M391.3,52.2V55h-0.6
			v-2.7c0-0.7-0.5-1.2-1.1-1.2c-0.7,0-1.4,0.5-1.4,1.1V55h-0.6v-4.4h0.6v0.7c0.3-0.5,0.8-0.8,1.5-0.8
			C390.6,50.5,391.3,51.2,391.3,52.2z M396.7,50.6v4c0,1.1-0.9,1.9-2.2,1.9c-0.7,0-1.4-0.2-1.8-0.6l0.3-0.5c0.3,0.3,0.9,0.5,1.4,0.5
			c1,0,1.6-0.5,1.6-1.4v-0.7c-0.3,0.5-0.9,0.9-1.6,0.9c-1.2,0-2-0.9-2-2.1s0.8-2.1,2-2.1c0.7,0,1.3,0.3,1.6,0.9v-0.8L396.7,50.6
			L396.7,50.6z M396.1,52.6c0-0.9-0.6-1.5-1.5-1.5s-1.5,0.6-1.5,1.5s0.6,1.5,1.5,1.5S396.1,53.5,396.1,52.6z M172.6,64.3l0.4,0.4
			c-0.4,0.4-1.2,0.7-1.8,0.7c-1.2,0-2.2-1-2.2-2.3s1-2.3,2.2-2.3c1.3,0,2.1,1,2.1,2.6h-3.6c0.1,0.9,0.7,1.5,1.6,1.5
			C171.7,64.8,172.3,64.6,172.6,64.3L172.6,64.3z M169.6,62.7h3c-0.1-0.8-0.6-1.4-1.4-1.4C170.4,61.3,169.7,61.9,169.6,62.7z
			 M177.3,65.3l-1.3-1.8l-1.3,1.8h-0.8l1.7-2.3l-1.6-2.2h0.8l1.3,1.7l1.3-1.7h0.8l-1.6,2.2l1.7,2.3H177.3z M183.4,63.1
			c0,1.4-0.9,2.3-2,2.3c-0.7,0-1.3-0.4-1.6-0.9v2.3h-0.6v-5.9h0.6v0.8c0.3-0.6,0.9-0.9,1.6-0.9C182.5,60.7,183.4,61.7,183.4,63.1
			L183.4,63.1z M182.7,63.1c0-1-0.6-1.7-1.5-1.7s-1.5,0.7-1.5,1.7s0.6,1.7,1.5,1.7C182.1,64.8,182.7,64.1,182.7,63.1z M187.9,64.3
			l0.4,0.4c-0.4,0.4-1.2,0.7-1.8,0.7c-1.2,0-2.2-1-2.2-2.3s1-2.3,2.2-2.3c1.3,0,2.1,1,2.1,2.6H185c0.1,0.9,0.7,1.5,1.6,1.5
			C187,64.8,187.6,64.6,187.9,64.3L187.9,64.3z M184.9,62.7h3c-0.1-0.8-0.6-1.4-1.4-1.4C185.7,61.3,185,61.9,184.9,62.7z M192,60.7
			v0.6c-1,0-1.7,0.6-1.7,1.5v2.5h-0.6v-4.4h0.6v0.9C190.6,61.1,191.2,60.7,192,60.7L192,60.7z M192.8,59.6c0-0.2,0.2-0.4,0.4-0.4
			s0.4,0.2,0.4,0.4s-0.2,0.4-0.4,0.4S192.8,59.8,192.8,59.6z M192.9,60.8h0.6v4.4h-0.6V60.8z M198.2,64.3l0.4,0.4
			c-0.4,0.4-1.2,0.7-1.8,0.7c-1.2,0-2.2-1-2.2-2.3s1-2.3,2.2-2.3c1.3,0,2.1,1,2.1,2.6h-3.6c0.1,0.9,0.7,1.5,1.6,1.5
			C197.3,64.8,197.9,64.6,198.2,64.3L198.2,64.3z M195.2,62.7h3c-0.1-0.8-0.6-1.4-1.4-1.4C196,61.3,195.4,61.9,195.2,62.7z
			 M203.7,62.5v2.8H203v-2.7c0-0.7-0.5-1.2-1.1-1.2c-0.7,0-1.4,0.5-1.4,1.1v2.8h-0.6v-4.4h0.6v0.7c0.3-0.5,0.8-0.8,1.5-0.8
			C203,60.7,203.7,61.5,203.7,62.5z M204.8,63.1c0-1.3,1.1-2.3,2.3-2.3c0.6,0,1.2,0.2,1.6,0.7l-0.4,0.4c-0.3-0.3-0.7-0.5-1.1-0.5
			c-0.9,0-1.6,0.8-1.6,1.7c0,1,0.7,1.7,1.6,1.7c0.4,0,0.9-0.2,1.2-0.5l0.4,0.4c-0.4,0.4-1,0.7-1.6,0.7
			C205.8,65.4,204.8,64.3,204.8,63.1L204.8,63.1z M213,64.3l0.4,0.4c-0.4,0.4-1.2,0.7-1.8,0.7c-1.2,0-2.2-1-2.2-2.3s1-2.3,2.2-2.3
			c1.3,0,2.1,1,2.1,2.6h-3.6c0.1,0.9,0.7,1.5,1.6,1.5C212.2,64.8,212.8,64.6,213,64.3L213,64.3z M210.1,62.7h3
			c-0.1-0.8-0.6-1.4-1.4-1.4C210.8,61.3,210.2,61.9,210.1,62.7L210.1,62.7z M214.5,64.7l0.3-0.5c0.5,0.4,1,0.6,1.5,0.6
			c0.6,0,1-0.3,1-0.7c0-0.5-0.5-0.6-1.1-0.8c-1.1-0.3-1.5-0.6-1.5-1.3c0-0.8,0.7-1.3,1.6-1.3c0.5,0,1.1,0.2,1.6,0.5l-0.3,0.5
			c-0.4-0.3-0.9-0.4-1.3-0.4c-0.5,0-0.9,0.2-0.9,0.7c0,0.4,0.3,0.5,1.1,0.8c0.7,0.2,1.4,0.5,1.4,1.3c0,0.8-0.7,1.3-1.6,1.3
			C215.7,65.4,215,65.2,214.5,64.7L214.5,64.7z M223.7,65.1c-0.2,0.2-0.5,0.3-0.8,0.3c-0.6,0-1.1-0.5-1.1-1.1v-2.8h-0.7v-0.6h0.7
			v-1.2h0.6v1.2h1.1v0.6h-1.1v2.8c0,0.3,0.2,0.6,0.5,0.6c0.2,0,0.4-0.1,0.5-0.2L223.7,65.1L223.7,65.1z M228.4,62.5v2.8h-0.6v-2.7
			c0-0.7-0.5-1.2-1.1-1.2c-0.7,0-1.4,0.5-1.4,1.1v2.8h-0.6v-6h0.6v2.3c0.3-0.5,0.8-0.8,1.5-0.8C227.7,60.7,228.4,61.5,228.4,62.5
			L228.4,62.5z M233.3,62.6v2.7h-0.6v-0.7c-0.3,0.5-1,0.8-1.6,0.8c-0.9,0-1.6-0.5-1.6-1.4s0.8-1.5,1.7-1.5c0.5,0,1,0.1,1.4,0.2v-0.2
			c0-0.6-0.2-1.3-1.2-1.3c-0.4,0-0.9,0.2-1.3,0.4l-0.3-0.5c0.6-0.3,1.2-0.4,1.6-0.4C232.7,60.7,233.3,61.5,233.3,62.6L233.3,62.6z
			 M232.7,63.9v-0.7c-0.4-0.1-0.9-0.2-1.3-0.2c-0.7,0-1.2,0.4-1.2,0.9s0.5,0.9,1.1,0.9C231.8,64.8,232.5,64.5,232.7,63.9z
			 M236.9,65.1c-0.2,0.2-0.5,0.3-0.8,0.3c-0.6,0-1.1-0.5-1.1-1.1v-2.8h-0.7v-0.6h0.7v-1.2h0.6v1.2h1.1v0.6h-1.1v2.8
			c0,0.3,0.2,0.6,0.5,0.6c0.2,0,0.4-0.1,0.5-0.2L236.9,65.1L236.9,65.1z M240.2,66.7l0.2-0.5c0.2,0.1,0.3,0.1,0.5,0.1
			c0.3,0,0.5-0.1,0.6-0.4l0.3-0.5l-1.9-4.4h0.7l1.6,3.7l1.5-3.7h0.7l-2,4.9c-0.3,0.8-0.7,1-1.3,1C240.7,66.8,240.5,66.8,240.2,66.7
			L240.2,66.7z M245,63.1c0-1.3,1.1-2.3,2.3-2.3s2.3,1.1,2.3,2.3c0,1.3-1,2.3-2.3,2.3S245,64.3,245,63.1z M248.9,63.1
			c0-0.9-0.7-1.7-1.6-1.7c-0.9,0-1.6,0.8-1.6,1.7c0,1,0.7,1.7,1.6,1.7C248.1,64.8,248.9,64,248.9,63.1z M254.4,60.8v4.4h-0.6v-0.7
			c-0.3,0.5-0.8,0.8-1.5,0.8c-1,0-1.7-0.7-1.7-1.7v-2.8h0.6v2.7c0,0.7,0.5,1.2,1.1,1.2c0.7,0,1.4-0.5,1.4-1.1v-2.8
			C253.7,60.8,254.4,60.8,254.4,60.8z M257.8,60.8h0.7l1.1,3.6l1.2-3.6h0.6l1.2,3.6l1.1-3.6h0.7l-1.5,4.4h-0.6l-1.2-3.5l-1.2,3.5
			h-0.6L257.8,60.8z M265.2,59.6c0-0.2,0.2-0.4,0.4-0.4c0.2,0,0.4,0.2,0.4,0.4s-0.2,0.4-0.4,0.4C265.4,60,265.2,59.8,265.2,59.6z
			 M265.3,60.8h0.6v4.4h-0.6V60.8z M267.2,59.3h0.6v6h-0.6V59.3z M269.2,59.3h0.6v6h-0.6V59.3z M273.6,59.3h0.6v6h-0.6V59.3z
			 M275.3,63.1c0-1.3,1.1-2.3,2.3-2.3c1.2,0,2.3,1.1,2.3,2.3c0,1.3-1,2.3-2.3,2.3C276.4,65.4,275.3,64.3,275.3,63.1z M279.2,63.1
			c0-0.9-0.7-1.7-1.6-1.7s-1.6,0.8-1.6,1.7c0,1,0.7,1.7,1.6,1.7C278.5,64.8,279.2,64,279.2,63.1z M280.4,60.8h0.7l1.5,3.7l1.4-3.7
			h0.7l-1.9,4.4h-0.6L280.4,60.8L280.4,60.8z M288.7,64.3l0.4,0.4c-0.4,0.4-1.2,0.7-1.8,0.7c-1.2,0-2.2-1-2.2-2.3s1-2.3,2.2-2.3
			c1.3,0,2.1,1,2.1,2.6h-3.6c0.1,0.9,0.7,1.5,1.6,1.5C287.8,64.8,288.4,64.6,288.7,64.3L288.7,64.3z M285.8,62.7h3
			c-0.1-0.8-0.6-1.4-1.4-1.4C286.5,61.3,285.9,61.9,285.8,62.7L285.8,62.7z M290.4,64.9c0-0.3,0.2-0.5,0.5-0.5s0.5,0.2,0.5,0.5
			s-0.2,0.5-0.5,0.5S290.4,65.2,290.4,64.9z"/>
	</g>
	<g>
		<path class="st0" d="M174.1,93.3c0-1.4,1.2-2.6,2.5-2.6c0.7,0,1.3,0.3,1.8,0.8l-0.4,0.4c-0.4-0.4-0.9-0.6-1.4-0.6
			c-1.1,0-2,0.9-2,2s0.9,2,2,2c0.5,0,1-0.2,1.4-0.6l0.4,0.4c-0.5,0.5-1.1,0.8-1.8,0.8C175.2,95.9,174.1,94.7,174.1,93.3L174.1,93.3z
			 M181.2,92v0.5c-0.8,0-1.4,0.5-1.4,1.3v2.1h-0.5V92h0.5v0.7C179.9,92.3,180.5,92,181.2,92z M184.8,94.9l0.3,0.4
			c-0.3,0.4-1,0.6-1.5,0.6c-1,0-1.9-0.8-1.9-2c0-1.1,0.8-1.9,1.8-1.9c1.1,0,1.8,0.8,1.8,2.2h-3.1c0.1,0.7,0.6,1.3,1.3,1.3
			C184,95.4,184.5,95.2,184.8,94.9L184.8,94.9z M182.3,93.6h2.5c-0.1-0.7-0.5-1.2-1.2-1.2C182.9,92.4,182.4,92.9,182.3,93.6
			L182.3,93.6z M189.2,93.5v2.3h-0.5v-0.6c-0.3,0.4-0.8,0.7-1.3,0.7c-0.8,0-1.4-0.5-1.4-1.2s0.7-1.2,1.5-1.2c0.4,0,0.8,0.1,1.2,0.2
			v-0.1c0-0.5-0.2-1.1-1-1.1c-0.4,0-0.7,0.2-1.1,0.3l-0.2-0.4c0.5-0.3,1-0.4,1.3-0.4C188.7,92,189.2,92.6,189.2,93.5L189.2,93.5z
			 M188.7,94.6V94c-0.3-0.1-0.7-0.2-1.1-0.2c-0.6,0-1,0.3-1,0.8s0.4,0.7,0.9,0.7C188,95.4,188.5,95.1,188.7,94.6z M192.2,95.6
			c-0.2,0.2-0.4,0.2-0.7,0.2c-0.5,0-0.9-0.4-0.9-1v-2.4H190v-0.5h0.6v-1h0.5v1h0.9v0.5h-0.9v2.4c0,0.3,0.2,0.5,0.4,0.5
			s0.3-0.1,0.4-0.2L192.2,95.6L192.2,95.6z M195.8,94.9l0.3,0.4c-0.3,0.4-1,0.6-1.5,0.6c-1,0-1.9-0.8-1.9-2c0-1.1,0.8-1.9,1.8-1.9
			c1.1,0,1.8,0.8,1.8,2.2h-3.1c0.1,0.7,0.6,1.3,1.3,1.3C195.1,95.4,195.6,95.2,195.8,94.9L195.8,94.9z M193.4,93.6h2.5
			c-0.1-0.7-0.5-1.2-1.2-1.2S193.5,92.9,193.4,93.6L193.4,93.6z M201,93.8l-2-2.9h0.7l1.6,2.4l1.6-2.4h0.7l-2,2.9v2H201V93.8
			L201,93.8z M203.2,93.9c0-1.1,0.9-1.9,1.9-1.9s1.9,0.9,1.9,1.9c0,1.1-0.9,2-1.9,2C204.1,95.9,203.2,95,203.2,93.9z M206.5,93.9
			c0-0.8-0.6-1.5-1.4-1.5c-0.7,0-1.4,0.7-1.4,1.5s0.6,1.5,1.4,1.5S206.5,94.7,206.5,93.9z M211.1,92v3.7h-0.5v-0.6
			c-0.2,0.4-0.7,0.7-1.2,0.7c-0.8,0-1.4-0.6-1.4-1.4V92h0.5v2.3c0,0.6,0.4,1,0.9,1c0.6,0,1.2-0.4,1.2-1V92H211.1L211.1,92z
			 M214.2,92v0.5c-0.8,0-1.4,0.5-1.4,1.3v2.1h-0.5V92h0.5v0.7C213,92.3,213.6,92,214.2,92z M217.7,91.4V93h2.7v0.5h-2.7v2.3h-0.6v-5
			h3.6v0.5L217.7,91.4L217.7,91.4z M221.4,91c0-0.2,0.2-0.4,0.4-0.4s0.4,0.2,0.4,0.4c0,0.2-0.2,0.4-0.4,0.4
			C221.5,91.4,221.4,91.2,221.4,91z M221.5,92h0.5v3.7h-0.5V92z M225.1,92v0.5c-0.8,0-1.4,0.5-1.4,1.3v2.1h-0.5V92h0.5v0.7
			C223.9,92.3,224.4,92,225.1,92z M225.7,95.3l0.3-0.4c0.4,0.3,0.8,0.5,1.3,0.5s0.8-0.2,0.8-0.6s-0.4-0.5-0.9-0.7
			c-0.9-0.3-1.2-0.5-1.2-1.1c0-0.7,0.6-1.1,1.3-1.1c0.5,0,0.9,0.2,1.3,0.4l-0.3,0.4c-0.4-0.2-0.7-0.4-1.1-0.4
			c-0.4,0-0.8,0.2-0.8,0.5s0.3,0.4,1,0.7c0.6,0.2,1.2,0.4,1.2,1.1s-0.6,1.1-1.4,1.1C226.7,95.9,226.1,95.7,225.7,95.3L225.7,95.3z
			 M231.4,95.6c-0.2,0.2-0.4,0.2-0.7,0.2c-0.5,0-0.9-0.4-0.9-1v-2.4h-0.6v-0.5h0.6v-1h0.5v1h0.9v0.5h-0.9v2.4c0,0.3,0.2,0.5,0.4,0.5
			s0.3-0.1,0.4-0.2L231.4,95.6L231.4,95.6z M234,93.3c0-1.4,1.2-2.6,2.5-2.6c0.7,0,1.3,0.3,1.8,0.8l-0.4,0.4
			c-0.4-0.4-0.9-0.6-1.4-0.6c-1.1,0-2,0.9-2,2s0.9,2,2,2c0.5,0,1-0.2,1.4-0.6l0.4,0.4c-0.5,0.5-1.1,0.8-1.8,0.8
			C235.2,95.9,234,94.7,234,93.3L234,93.3z M242.1,93.5v2.3h-0.5v-0.6c-0.3,0.4-0.8,0.7-1.3,0.7c-0.8,0-1.4-0.5-1.4-1.2
			s0.7-1.2,1.5-1.2c0.4,0,0.8,0.1,1.2,0.2v-0.1c0-0.5-0.2-1.1-1-1.1c-0.4,0-0.7,0.2-1.1,0.3l-0.2-0.4c0.5-0.3,1-0.4,1.3-0.4
			C241.6,92,242.1,92.6,242.1,93.5L242.1,93.5z M241.6,94.6V94c-0.3-0.1-0.7-0.2-1.1-0.2c-0.6,0-1,0.3-1,0.8s0.4,0.7,0.9,0.7
			C240.9,95.4,241.5,95.1,241.6,94.6z M248.6,93.4v2.4h-0.5v-2.3c0-0.6-0.4-1-0.9-1c-0.6,0-1,0.4-1,1v2.4h-0.5v-2.3
			c0-0.6-0.4-1-0.9-1c-0.6,0-1,0.4-1,1V96h-0.5v-3.7h0.5v0.5c0.2-0.4,0.6-0.6,1.1-0.6c0.6,0,1,0.3,1.2,0.8c0.2-0.5,0.6-0.8,1.2-0.8
			C248.1,92,248.6,92.6,248.6,93.4L248.6,93.4z M253.4,93.9c0,1.1-0.7,2-1.7,2c-0.6,0-1.1-0.3-1.4-0.8V97h-0.5v-5h0.5v0.7
			c0.3-0.5,0.8-0.8,1.4-0.8C252.6,92,253.4,92.8,253.4,93.9L253.4,93.9z M252.8,93.9c0-0.9-0.5-1.5-1.2-1.5s-1.3,0.6-1.3,1.5
			s0.5,1.5,1.3,1.5C252.3,95.4,252.8,94.8,252.8,93.9z M257.5,92v3.7H257v-0.6c-0.2,0.4-0.7,0.7-1.2,0.7c-0.8,0-1.4-0.6-1.4-1.4V92
			h0.5v2.3c0,0.6,0.4,1,0.9,1c0.6,0,1.2-0.4,1.2-1V92H257.5L257.5,92z M258.3,95.3l0.3-0.4c0.4,0.3,0.8,0.5,1.3,0.5s0.8-0.2,0.8-0.6
			s-0.4-0.5-0.9-0.7c-0.9-0.3-1.2-0.5-1.2-1.1c0-0.7,0.6-1.1,1.3-1.1c0.5,0,0.9,0.2,1.3,0.4l-0.3,0.4c-0.4-0.2-0.7-0.4-1.1-0.4
			s-0.8,0.2-0.8,0.5s0.3,0.4,1,0.7c0.6,0.2,1.2,0.4,1.2,1.1s-0.6,1.1-1.4,1.1C259.4,95.9,258.8,95.7,258.3,95.3L258.3,95.3z"/>
	</g>
</g>
</svg>
