<?xml version="1.0" encoding="utf-8"?>
<!-- Generator: Adobe Illustrator 23.0.6, SVG Export Plug-In . SVG Version: 6.00 Build 0)  -->
<svg version="1.1" id="Capa_1" xmlns="http://www.w3.org/2000/svg" xmlns:xlink="http://www.w3.org/1999/xlink" x="0px" y="0px"
	 viewBox="0 0 661 496" style="enable-background:new 0 0 661 496;" xml:space="preserve">
<style type="text/css">
	.st0{fill:#FFFFFF;}
	.st1{fill:#F2F3F4;}
	.st2{fill:#5A84C6;}
	.st3{fill:#211915;}
	.st4{fill:#954665;}
	.st5{font-family:'Metropolis-Regular';}
	.st6{font-size:10px;}
</style>
<g>
	<path class="st0" d="M653,496H8c-4.4,0-8-3.6-8-8V8c0-4.4,3.6-8,8-8h645c4.4,0,8,3.6,8,8v480C661,492.4,657.4,496,653,496z"/>
	<path class="st1" d="M266,72.4h-85.7c-1.7,0-3-1.3-3-3v-6.3c0-1.7,1.3-3,3-3H266c1.7,0,3,1.3,3,3v6.3C269,71.1,267.7,72.4,266,72.4
		z"/>
	<path class="st2" d="M13.8,13.1c0.3-0.3,0.7-0.3,1,0c0,0,0,0,0,0l0.7,0.7c0.3,0.3,0.3,0.7,0,1c0,0,0,0,0,0l-2.9,2.8l2.9,2.9
		c0.3,0.3,0.3,0.7,0,1c0,0,0,0,0,0l-0.7,0.7c-0.3,0.3-0.7,0.3-1,0c0,0,0,0,0,0l-4-4c-0.3-0.3-0.3-0.7,0-1c0,0,0,0,0,0
		C9.8,17.1,13.8,13,13.8,13.1z M651.2,22.1c-0.3,0.3-0.7,0.3-1,0c0,0,0,0,0,0l-0.7-0.7c-0.3-0.3-0.3-0.7,0-1c0,0,0,0,0,0l2.9-2.9
		l-2.9-2.9c-0.3-0.3-0.3-0.7,0-1c0,0,0,0,0,0l0.7-0.7c0.3-0.3,0.7-0.3,1,0c0,0,0,0,0,0l4,4c0.3,0.3,0.3,0.7,0,1c0,0,0,0,0,0
		L651.2,22.1z"/>
	<g>
		<path class="st2" d="M177.9,15.3h0.8l2.6,4.8l2.6-4.8h0.8v6.9h-0.8V17l-2.6,4.8l-2.6-4.8v5.2h-0.8V15.3z M190.5,19v3.1h-0.8v-0.8
			c-0.4,0.6-1.1,0.9-1.8,0.9c-1.1,0-1.9-0.6-1.9-1.6c0-1,0.9-1.7,2-1.7c0.6,0,1.1,0.1,1.7,0.3V19c0-0.7-0.3-1.5-1.4-1.5
			c-0.5,0-1,0.2-1.5,0.5l-0.3-0.6c0.7-0.4,1.4-0.5,1.9-0.5C189.8,16.9,190.5,17.8,190.5,19z M189.7,20.5v-0.8
			c-0.5-0.1-1-0.2-1.6-0.2c-0.8,0-1.4,0.4-1.4,1.1c0,0.6,0.6,1,1.3,1C188.7,21.6,189.5,21.3,189.7,20.5z M196.4,18.9v3.3h-0.8V19
			c0-0.8-0.5-1.4-1.3-1.4c-0.9,0-1.6,0.6-1.6,1.3v3.3H192V17h0.8v0.8c0.3-0.5,1-1,1.7-1C195.6,16.9,196.4,17.7,196.4,18.9z
			 M202.3,17v5.2h-0.8v-0.8c-0.3,0.5-1,1-1.7,1c-1.1,0-1.9-0.8-1.9-2V17h0.8v3.2c0,0.8,0.5,1.4,1.3,1.4c0.9,0,1.6-0.6,1.6-1.3V17
			H202.3z M208.1,19v3.1h-0.8v-0.8c-0.4,0.6-1.1,0.9-1.8,0.9c-1.1,0-1.9-0.6-1.9-1.6c0-1,0.9-1.7,2-1.7c0.6,0,1.1,0.1,1.7,0.3V19
			c0-0.7-0.3-1.5-1.4-1.5c-0.5,0-1,0.2-1.5,0.5l-0.3-0.6c0.7-0.4,1.4-0.5,1.9-0.5C207.4,16.9,208.1,17.8,208.1,19z M207.3,20.5v-0.8
			c-0.5-0.1-1-0.2-1.6-0.2c-0.8,0-1.4,0.4-1.4,1.1c0,0.6,0.6,1,1.3,1C206.3,21.6,207.1,21.3,207.3,20.5z M209.6,15.2h0.8v7h-0.8
			V15.2z M217.9,18.5h2.8v2.7c-0.6,0.6-1.7,1-2.7,1c-1.9,0-3.5-1.6-3.5-3.6s1.6-3.6,3.5-3.6c0.9,0,2,0.4,2.7,1.1l-0.5,0.5
			c-0.5-0.5-1.4-0.9-2.1-0.9c-1.5,0-2.7,1.3-2.7,2.8c0,1.5,1.2,2.8,2.7,2.8c0.6,0,1.4-0.2,1.9-0.6v-1.6h-2
			C217.9,19.3,217.9,18.6,217.9,18.5z M225,16.9v0.7c-1.2,0-2,0.7-2,1.7v2.9h-0.8V17h0.8v1C223.3,17.3,224.1,16.9,225,16.9z
			 M230.3,19v3.1h-0.8v-0.8c-0.4,0.6-1.1,0.9-1.8,0.9c-1.1,0-1.9-0.6-1.9-1.6c0-1,0.9-1.7,2-1.7c0.6,0,1.1,0.1,1.7,0.3V19
			c0-0.7-0.3-1.5-1.4-1.5c-0.5,0-1,0.2-1.5,0.5l-0.3-0.6c0.7-0.4,1.4-0.5,1.9-0.5C229.6,16.9,230.3,17.8,230.3,19z M229.5,20.5v-0.8
			c-0.5-0.1-1-0.2-1.6-0.2c-0.8,0-1.4,0.4-1.4,1.1c0,0.6,0.6,1,1.3,1C228.5,21.6,229.3,21.3,229.5,20.5z M236.6,15.2v7h-0.8v-1
			c-0.4,0.7-1.1,1.1-1.9,1.1c-1.4,0-2.4-1.1-2.4-2.7c0-1.6,1-2.7,2.4-2.7c0.8,0,1.5,0.4,1.9,1.1v-2.8
			C235.8,15.2,236.6,15.2,236.6,15.2z M235.8,19.6c0-1.2-0.7-2-1.7-2c-1,0-1.7,0.8-1.7,2s0.7,2,1.7,2
			C235.1,21.6,235.8,20.8,235.8,19.6z M238,15.6c0-0.3,0.2-0.5,0.5-0.5c0.3,0,0.5,0.2,0.5,0.5c0,0.3-0.2,0.5-0.5,0.5
			C238.3,16.1,238,15.8,238,15.6z M238.2,17h0.8v5.2h-0.8V17z M244.8,18.9v3.3h-0.8V19c0-0.8-0.5-1.4-1.3-1.4
			c-0.9,0-1.6,0.6-1.6,1.3v3.3h-0.8V17h0.8v0.8c0.3-0.5,1-1,1.7-1C244,16.9,244.8,17.7,244.8,18.9z M251.1,17v4.6
			c0,1.3-1.1,2.3-2.5,2.3c-0.8,0-1.6-0.3-2.1-0.7l0.3-0.6c0.4,0.4,1,0.6,1.7,0.6c1.2,0,1.9-0.6,1.9-1.6v-0.8c-0.4,0.6-1.1,1-1.9,1
			c-1.4,0-2.4-1-2.4-2.5s1-2.5,2.4-2.5c0.8,0,1.5,0.4,1.9,1V17H251.1L251.1,17z M250.4,19.3c0-1-0.7-1.8-1.7-1.8
			c-1,0-1.7,0.7-1.7,1.8c0,1,0.7,1.8,1.7,1.8C249.6,21.1,250.4,20.4,250.4,19.3z M258.2,14.7h0.9l-3.5,8.2h-0.9L258.2,14.7z
			 M262.2,17h0.8l1.3,4.2l1.4-4.2h0.6l1.4,4.2l1.3-4.2h0.8l-1.7,5.2h-0.7l-1.4-4.1l-1.4,4.1H264L262.2,17z M270.7,21.5l2.5-2.1
			c1-0.8,1.4-1.5,1.4-2.2c0-0.8-0.7-1.3-1.4-1.3c-0.8,0-1.4,0.4-1.8,1.1l-0.5-0.5c0.6-0.8,1.3-1.3,2.4-1.3c1.2,0,2.2,0.8,2.2,2
			c0,0.9-0.5,1.7-1.6,2.7l-1.8,1.6h3.5v0.7h-4.7L270.7,21.5L270.7,21.5z M276.1,22.9h6v0.7h-6V22.9z M282.5,19.6
			c0-1.5,1.2-2.7,2.7-2.7c0.7,0,1.4,0.3,1.8,0.8l-0.5,0.5c-0.3-0.4-0.8-0.6-1.3-0.6c-1,0-1.9,0.9-1.9,2c0,1.1,0.9,2,1.9,2
			c0.5,0,1-0.2,1.4-0.6l0.5,0.5c-0.5,0.5-1.1,0.8-1.9,0.8C283.7,22.3,282.5,21,282.5,19.6z M291.4,20.5H288l-0.1-0.6l3.4-4.6h0.9
			v4.5h1v0.7h-1v1.7h-0.8C291.4,22.2,291.4,20.5,291.4,20.5z M291.4,19.8v-3.5l-2.6,3.5H291.4z M293.7,22.9h6v0.7h-6V22.9z
			 M304.6,19v3.1h-0.8v-0.8c-0.4,0.6-1.1,0.9-1.8,0.9c-1.1,0-1.9-0.6-1.9-1.6c0-1,0.9-1.7,2-1.7c0.6,0,1.1,0.1,1.7,0.3V19
			c0-0.7-0.3-1.5-1.4-1.5c-0.5,0-1,0.2-1.5,0.5l-0.3-0.6c0.7-0.4,1.4-0.5,1.9-0.5C303.9,16.9,304.6,17.8,304.6,19L304.6,19z
			 M303.8,20.5v-0.8c-0.5-0.1-1-0.2-1.6-0.2c-0.8,0-1.4,0.4-1.4,1.1c0,0.6,0.6,1,1.3,1C302.8,21.6,303.6,21.3,303.8,20.5z
			 M311.2,19.6c0,1.6-1,2.7-2.4,2.7c-0.8,0-1.5-0.4-1.9-1.1v2.7h-0.8V17h0.8v1c0.4-0.7,1-1.1,1.9-1.1
			C310.1,16.9,311.2,18,311.2,19.6z M310.4,19.6c0-1.2-0.7-2-1.7-2c-1,0-1.7,0.8-1.7,2s0.7,2,1.7,2
			C309.7,21.6,310.4,20.8,310.4,19.6z M312.3,15.6c0-0.3,0.2-0.5,0.5-0.5c0.3,0,0.5,0.2,0.5,0.5c0,0.3-0.2,0.5-0.5,0.5
			C312.6,16.1,312.3,15.8,312.3,15.6z M312.5,17h0.8v5.2h-0.8V17z M313.9,22.9h6v0.7h-6V22.9z M320.3,21.5l0.4-0.5
			c0.6,0.4,1.2,0.6,1.8,0.6c0.7,0,1.1-0.3,1.1-0.8c0-0.6-0.6-0.7-1.3-0.9c-1.2-0.4-1.7-0.7-1.7-1.5c0-0.9,0.8-1.5,1.8-1.5
			c0.6,0,1.3,0.2,1.9,0.6l-0.4,0.6c-0.5-0.3-1-0.5-1.5-0.5c-0.6,0-1.1,0.3-1.1,0.8c0,0.5,0.4,0.6,1.3,0.9c0.8,0.3,1.7,0.5,1.7,1.5
			c0,1-0.8,1.6-1.9,1.6C321.8,22.3,321,22,320.3,21.5L320.3,21.5z M325.3,19.6c0-1.5,1.2-2.7,2.7-2.7c0.7,0,1.4,0.3,1.8,0.8
			l-0.5,0.5c-0.3-0.4-0.8-0.6-1.3-0.6c-1,0-1.9,0.9-1.9,2c0,1.1,0.9,2,1.9,2c0.5,0,1-0.2,1.4-0.6l0.5,0.5c-0.5,0.5-1.1,0.8-1.9,0.8
			C326.5,22.3,325.3,21,325.3,19.6z M333.8,16.9v0.7c-1.2,0-2,0.7-2,1.7v2.9h-0.8V17h0.8v1C332.1,17.3,332.9,16.9,333.8,16.9z
			 M339.1,19v3.1h-0.8v-0.8c-0.4,0.6-1.1,0.9-1.8,0.9c-1.1,0-1.9-0.6-1.9-1.6c0-1,0.9-1.7,2-1.7c0.6,0,1.1,0.1,1.7,0.3V19
			c0-0.7-0.3-1.5-1.4-1.5c-0.5,0-1,0.2-1.5,0.5l-0.3-0.6c0.7-0.4,1.4-0.5,1.9-0.5C338.4,16.9,339.1,17.8,339.1,19L339.1,19z
			 M338.3,20.5v-0.8c-0.5-0.1-1-0.2-1.6-0.2c-0.8,0-1.4,0.4-1.4,1.1c0,0.6,0.6,1,1.3,1C337.3,21.6,338.1,21.3,338.3,20.5z
			 M345.7,19.6c0,1.6-1,2.7-2.4,2.7c-0.8,0-1.5-0.4-1.9-1.1v2.7h-0.8V17h0.8v1c0.4-0.7,1-1.1,1.9-1.1
			C344.7,16.9,345.7,18,345.7,19.6z M344.9,19.6c0-1.2-0.7-2-1.7-2c-1,0-1.7,0.8-1.7,2s0.7,2,1.7,2
			C344.2,21.6,344.9,20.8,344.9,19.6z M346.9,15.6c0-0.3,0.2-0.5,0.5-0.5c0.3,0,0.5,0.2,0.5,0.5c0,0.3-0.2,0.5-0.5,0.5
			C347.1,16.1,346.9,15.8,346.9,15.6z M347,17h0.8v5.2H347V17z M353.6,18.9v3.3h-0.8V19c0-0.8-0.5-1.4-1.3-1.4
			c-0.9,0-1.6,0.6-1.6,1.3v3.3h-0.8V17h0.8v0.8c0.3-0.5,1-1,1.7-1C352.8,16.9,353.6,17.7,353.6,18.9z M359.9,17v4.6
			c0,1.3-1,2.3-2.5,2.3c-0.8,0-1.6-0.3-2.1-0.7l0.3-0.6c0.4,0.4,1,0.6,1.7,0.6c1.2,0,1.9-0.6,1.9-1.6v-0.8c-0.4,0.6-1.1,1-1.9,1
			c-1.4,0-2.4-1-2.4-2.5s1-2.5,2.4-2.5c0.8,0,1.5,0.4,1.9,1V17H359.9z M359.2,19.3c0-1-0.7-1.8-1.7-1.8c-1,0-1.7,0.7-1.7,1.8
			c0,1,0.7,1.8,1.7,1.8C358.5,21.1,359.2,20.4,359.2,19.3z M367,14.7h0.9l-3.5,8.2h-0.9L367,14.7z M371.3,15.6
			c0-0.3,0.2-0.5,0.5-0.5c0.3,0,0.5,0.2,0.5,0.5c0,0.3-0.2,0.5-0.5,0.5C371.6,16.1,371.3,15.8,371.3,15.6z M371.5,17h0.8v5.2h-0.8
			V17z M378.1,18.9v3.3h-0.8V19c0-0.8-0.5-1.4-1.3-1.4c-0.9,0-1.6,0.6-1.6,1.3v3.3h-0.8V17h0.8v0.8c0.3-0.5,1-1,1.7-1
			C377.3,16.9,378.1,17.7,378.1,18.9z M384.4,15.2v7h-0.8v-1c-0.4,0.7-1,1.1-1.9,1.1c-1.4,0-2.4-1.1-2.4-2.7c0-1.6,1-2.7,2.4-2.7
			c0.8,0,1.5,0.4,1.9,1.1v-2.8C383.7,15.2,384.4,15.2,384.4,15.2z M383.7,19.6c0-1.2-0.7-2-1.7-2c-1,0-1.7,0.8-1.7,2s0.7,2,1.7,2
			C383,21.6,383.7,20.8,383.7,19.6z M390,21l0.5,0.5c-0.5,0.5-1.4,0.8-2.1,0.8c-1.4,0-2.6-1.1-2.6-2.7c0-1.5,1.2-2.7,2.5-2.7
			c1.6,0,2.5,1.2,2.5,3h-4.2c0.1,1,0.8,1.8,1.8,1.8C389,21.6,389.7,21.3,390,21z M386.5,19.2h3.5c-0.1-0.9-0.6-1.6-1.7-1.6
			C387.4,17.6,386.7,18.2,386.5,19.2z M395.5,22.2l-1.5-2.1l-1.6,2.1h-0.9l2-2.6l-1.9-2.5h0.9l1.5,2l1.5-2h0.9l-1.9,2.5l2,2.6
			L395.5,22.2L395.5,22.2z M403,14.7h0.9l-3.5,8.2h-0.9L403,14.7z M407.1,21.5l0.4-0.5c0.6,0.4,1.2,0.6,1.8,0.6
			c0.7,0,1.1-0.3,1.1-0.8c0-0.6-0.6-0.7-1.3-0.9c-1.2-0.4-1.7-0.7-1.7-1.5c0-0.9,0.8-1.5,1.8-1.5c0.6,0,1.3,0.2,1.9,0.6l-0.4,0.6
			c-0.5-0.3-1-0.5-1.5-0.5c-0.6,0-1.1,0.3-1.1,0.8c0,0.5,0.4,0.6,1.3,0.9c0.8,0.3,1.7,0.5,1.7,1.5c0,1-0.8,1.6-1.9,1.6
			C408.5,22.3,407.7,22,407.1,21.5L407.1,21.5z M416.8,17v5.2H416v-0.8c-0.3,0.5-1,1-1.7,1c-1.1,0-1.9-0.8-1.9-2V17h0.8v3.2
			c0,0.8,0.5,1.4,1.3,1.4c0.9,0,1.6-0.6,1.6-1.3V17H416.8z M423.4,19.6c0,1.6-1,2.7-2.4,2.7c-0.8,0-1.5-0.4-1.9-1.1v1h-0.8v-7h0.8
			V18c0.4-0.7,1-1.1,1.9-1.1C422.4,16.9,423.4,18,423.4,19.6z M422.6,19.6c0-1.2-0.7-2-1.7-2c-1,0-1.7,0.8-1.7,2s0.7,2,1.7,2
			C421.9,21.6,422.6,20.8,422.6,19.6z M432.1,18.9v3.3h-0.8V19c0-0.8-0.5-1.4-1.2-1.4c-0.8,0-1.4,0.5-1.4,1.3v3.3H428V19
			c0-0.8-0.5-1.4-1.2-1.4c-0.8,0-1.4,0.5-1.4,1.3v3.3h-0.8V17h0.8v0.8c0.3-0.5,0.8-0.9,1.5-0.9c0.8,0,1.4,0.4,1.7,1.1
			c0.2-0.7,0.9-1.1,1.7-1.1C431.4,16.9,432.1,17.7,432.1,18.9L432.1,18.9z M433.5,15.6c0-0.3,0.2-0.5,0.5-0.5c0.3,0,0.5,0.2,0.5,0.5
			c0,0.3-0.2,0.5-0.5,0.5C433.7,16.1,433.5,15.8,433.5,15.6z M433.6,17h0.8v5.2h-0.8V17z M435.6,21.5L436,21
			c0.6,0.4,1.2,0.6,1.8,0.6c0.7,0,1.1-0.3,1.1-0.8c0-0.6-0.6-0.7-1.3-0.9c-1.2-0.4-1.7-0.7-1.7-1.5c0-0.9,0.8-1.5,1.8-1.5
			c0.6,0,1.3,0.2,1.9,0.6l-0.4,0.6c-0.5-0.3-1-0.5-1.5-0.5c-0.6,0-1.1,0.3-1.1,0.8c0,0.5,0.4,0.6,1.3,0.9c0.8,0.3,1.7,0.5,1.7,1.5
			c0,1-0.8,1.6-1.9,1.6C437,22.3,436.2,22,435.6,21.5L435.6,21.5z M440.5,21.5l0.4-0.5c0.6,0.4,1.2,0.6,1.8,0.6
			c0.7,0,1.1-0.3,1.1-0.8c0-0.6-0.6-0.7-1.3-0.9c-1.2-0.4-1.7-0.7-1.7-1.5c0-0.9,0.8-1.5,1.8-1.5c0.6,0,1.3,0.2,1.9,0.6l-0.4,0.6
			c-0.5-0.3-1-0.5-1.5-0.5c-0.6,0-1.1,0.3-1.1,0.8c0,0.5,0.4,0.6,1.3,0.9c0.8,0.3,1.7,0.5,1.7,1.5c0,1-0.8,1.6-1.9,1.6
			C442,22.3,441.2,22,440.5,21.5L440.5,21.5z M445.7,15.6c0-0.3,0.2-0.5,0.5-0.5c0.3,0,0.5,0.2,0.5,0.5c0,0.3-0.2,0.5-0.5,0.5
			C445.9,16.1,445.7,15.8,445.7,15.6z M445.8,17h0.8v5.2h-0.8V17z M447.8,19.6c0-1.5,1.2-2.7,2.7-2.7s2.7,1.2,2.7,2.7
			c0,1.5-1.2,2.7-2.7,2.7S447.8,21,447.8,19.6z M452.3,19.6c0-1.1-0.9-2-1.9-2c-1,0-1.9,0.9-1.9,2c0,1.1,0.9,2,1.9,2
			C451.5,21.6,452.3,20.7,452.3,19.6z M458.8,18.9v3.3H458V19c0-0.8-0.5-1.4-1.3-1.4c-0.9,0-1.6,0.6-1.6,1.3v3.3h-0.8V17h0.8v0.8
			c0.3-0.5,1-1,1.7-1C458,16.9,458.8,17.7,458.8,18.9z M463.4,22.2l0.3-2h-0.8v-0.6h0.9l0.2-1.5H463v-0.6h1l0.3-1.9h0.6l-0.2,1.9h1
			l0.3-1.9h0.6l-0.2,1.9h0.8v0.6h-0.9l-0.2,1.5h0.9v0.6h-1l-0.3,2H465l0.3-2h-1l-0.3,2H463.4z M465.3,19.6l0.2-1.5h-1l-0.2,1.5
			H465.3z M468.1,21.1c0.2,0.2,0.8,0.4,1.4,0.4c1.1,0,1.5-0.7,1.5-1.3c0-0.9-0.8-1.3-1.7-1.3h-0.5v-0.7h0.5c0.6,0,1.5-0.3,1.5-1.1
			c0-0.5-0.3-1-1.1-1c-0.5,0-1,0.2-1.3,0.4l-0.2-0.6c0.3-0.2,1-0.5,1.7-0.5c1.3,0,1.9,0.8,1.9,1.5c0,0.7-0.4,1.2-1.2,1.5v0
			c0.8,0.2,1.5,0.8,1.5,1.7c0,1-0.8,2-2.4,2c-0.7,0-1.4-0.2-1.7-0.4C467.8,21.8,468.1,21.2,468.1,21.1z"/>
		<path class="st3" d="M488,18.4c0,0.1,0,0.2-0.1,0.3c-1.1,2.1-3.2,3.5-5.6,3.5s-4.5-1.4-5.6-3.5c0-0.1-0.1-0.2-0.1-0.3
			s0-0.2,0.1-0.3c1.1-2.1,3.2-3.5,5.6-3.5s4.5,1.4,5.6,3.5C488,18.2,488,18.3,488,18.4z M487,18.4c-1-1.7-2.7-2.8-4.6-2.8
			s-3.7,1.1-4.6,2.8c1,1.7,2.7,2.8,4.6,2.8S486.1,20.1,487,18.4z M482.4,16.2c1.2,0,2.2,1,2.2,2.2s-1,2.2-2.2,2.2
			c-1.2,0-2.2-1-2.2-2.2c0-0.2,0-0.4,0.1-0.6c0.1,0.1,0.4,0.1,0.5,0.1c0.6,0,1.1-0.5,1.1-1.1c0-0.2-0.1-0.4-0.1-0.5
			C481.9,16.3,482.2,16.2,482.4,16.2C482.4,16.2,482.4,16.2,482.4,16.2L482.4,16.2z"/>
	</g>
	<g>
		<path class="st1" d="M214.9,84.8h-56.4c-1.7,0-3-1.3-3-3v-6.3c0-1.7,1.3-3,3-3h56.4c1.7,0,3,1.3,3,3v6.3
			C217.9,83.4,216.6,84.8,214.9,84.8z M234.7,105.4h-38.5c-1.7,0-3-1.3-3-3v-6.3c0-1.7,1.3-3,3-3h38.5c1.7,0,3,1.3,3,3v6.3
			C237.7,104.1,236.4,105.4,234.7,105.4z"/>
		<path d="M149.8,66.3v3.1h-1v-0.7c-0.4,0.5-1.1,0.8-1.7,0.8c-1.1,0-1.9-0.6-1.9-1.7c0-1,0.9-1.7,2.1-1.7c0.5,0,1.1,0.1,1.6,0.3
			v-0.2c0-0.7-0.3-1.3-1.3-1.3c-0.5,0-1,0.2-1.5,0.4l-0.4-0.7c0.7-0.4,1.4-0.5,2-0.5C149,64.1,149.8,65,149.8,66.3z M148.8,67.8
			v-0.7c-0.4-0.1-0.9-0.2-1.4-0.2c-0.7,0-1.3,0.4-1.3,0.9s0.5,0.9,1.1,0.9C147.9,68.8,148.6,68.5,148.8,67.8L148.8,67.8z
			 M150.9,70.6c1.1-1.1,1.6-2.2,1.6-3.8c0-1.6-0.6-2.7-1.6-3.8l0.5-0.5c1.4,1.1,2.1,2.6,2.1,4.4c0,1.7-0.8,3.3-2.1,4.3
			C151.4,71.1,150.9,70.6,150.9,70.6z M157.9,62.6h1l2.4,4.5l2.4-4.5h1v6.9h-1v-4.9l-2.4,4.5l-2.4-4.5v4.9h-1
			C157.9,69.4,157.9,62.6,157.9,62.6z M170.6,66.3v3.1h-1v-0.7c-0.4,0.5-1.1,0.8-1.7,0.8c-1.1,0-1.9-0.6-1.9-1.7
			c0-1,0.9-1.7,2.1-1.7c0.5,0,1.1,0.1,1.6,0.3v-0.2c0-0.7-0.3-1.3-1.3-1.3c-0.5,0-1,0.2-1.5,0.4l-0.4-0.7c0.7-0.4,1.4-0.5,2-0.5
			C169.8,64.1,170.6,65,170.6,66.3z M169.6,67.8v-0.7c-0.4-0.1-0.9-0.2-1.4-0.2c-0.7,0-1.3,0.4-1.3,0.9s0.5,0.9,1.1,0.9
			C168.8,68.8,169.5,68.5,169.6,67.8L169.6,67.8z M174.5,66.6l2.1,2.8h-1.2l-1.6-2.2l-0.8,0.8v1.3h-1v-7h1v4.5l2.5-2.6h1.2
			L174.5,66.6L174.5,66.6z M181.4,68.1l0.6,0.6c-0.5,0.5-1.4,0.8-2.1,0.8c-1.4,0-2.7-1.1-2.7-2.7c0-1.6,1.1-2.7,2.6-2.7
			c1.6,0,2.5,1.2,2.5,3.1h-4.1c0.1,0.9,0.8,1.5,1.6,1.5C180.5,68.7,181.1,68.4,181.4,68.1L181.4,68.1z M178.3,66.4h3.1
			c-0.1-0.8-0.6-1.4-1.5-1.4C179.1,65,178.5,65.6,178.3,66.4z M190.7,66.3v3.1h-1v-0.7c-0.4,0.5-1.1,0.8-1.7,0.8
			c-1.1,0-1.9-0.6-1.9-1.7c0-1,0.9-1.7,2.1-1.7c0.5,0,1.1,0.1,1.6,0.3v-0.2c0-0.7-0.3-1.3-1.3-1.3c-0.5,0-1,0.2-1.5,0.4l-0.4-0.7
			c0.7-0.4,1.4-0.5,2-0.5C189.9,64.1,190.7,65,190.7,66.3z M189.7,67.8v-0.7c-0.4-0.1-0.9-0.2-1.4-0.2c-0.7,0-1.3,0.4-1.3,0.9
			s0.5,0.9,1.1,0.9C188.8,68.8,189.6,68.5,189.7,67.8L189.7,67.8z M194.6,64.3h1l1.2,3.8l1.3-3.8h0.8l1.3,3.8l1.2-3.8h1l-1.7,5.2
			h-0.9l-1.2-3.8l-1.2,3.8h-0.9L194.6,64.3L194.6,64.3z M206.9,68.1l0.6,0.6c-0.5,0.5-1.4,0.8-2.1,0.8c-1.4,0-2.7-1.1-2.7-2.7
			c0-1.6,1.1-2.7,2.6-2.7c1.6,0,2.5,1.2,2.5,3.1h-4.1c0.1,0.9,0.8,1.5,1.6,1.5C206,68.7,206.6,68.4,206.9,68.1L206.9,68.1z
			 M203.8,66.4h3.1c-0.1-0.8-0.6-1.4-1.5-1.4C204.6,65,204,65.6,203.8,66.4z M214.3,66.8c0,1.6-1,2.7-2.4,2.7c-0.8,0-1.4-0.4-1.8-1
			v0.9h-1v-7h1v2.7c0.4-0.6,1-1,1.8-1C213.3,64.1,214.3,65.3,214.3,66.8z M213.3,66.8c0-1.1-0.7-1.8-1.6-1.8c-0.9,0-1.6,0.8-1.6,1.8
			s0.7,1.8,1.6,1.8C212.6,68.7,213.3,67.9,213.3,66.8z M221.3,64.1V65c-1.1,0-1.8,0.6-1.9,1.5v2.9h-1v-5.2h1v1
			C219.7,64.6,220.4,64.1,221.3,64.1z M226.1,68.1l0.6,0.6c-0.5,0.5-1.4,0.8-2.1,0.8c-1.4,0-2.7-1.1-2.7-2.7c0-1.6,1.1-2.7,2.6-2.7
			c1.6,0,2.5,1.2,2.5,3.1H223c0.1,0.9,0.8,1.5,1.6,1.5C225.2,68.7,225.8,68.4,226.1,68.1z M223,66.4h3.1c-0.1-0.8-0.6-1.4-1.5-1.4
			C223.8,65,223.2,65.6,223,66.4z M233.2,64.3v6.9h-1v-2.6c-0.4,0.6-1,1-1.8,1c-1.4,0-2.4-1.1-2.4-2.7c0-1.6,1-2.7,2.4-2.7
			c0.8,0,1.4,0.4,1.8,1v-0.9H233.2z M232.2,66.8c0-1.1-0.7-1.8-1.6-1.8c-0.9,0-1.6,0.8-1.6,1.8s0.7,1.8,1.6,1.8
			C231.5,68.7,232.2,67.9,232.2,66.8z M239.2,64.3v5.2h-1v-0.8c-0.3,0.5-0.9,0.9-1.6,0.9c-1.1,0-1.9-0.8-1.9-2v-3.3h1v3.1
			c0,0.8,0.5,1.3,1.2,1.3c0.7,0,1.3-0.5,1.4-1.1v-3.3H239.2z M244.5,68.1l0.6,0.6c-0.5,0.5-1.4,0.8-2.1,0.8c-1.4,0-2.7-1.1-2.7-2.7
			c0-1.6,1.1-2.7,2.6-2.7c1.6,0,2.5,1.2,2.5,3.1h-4.1c0.1,0.9,0.8,1.5,1.6,1.5C243.6,68.7,244.2,68.4,244.5,68.1L244.5,68.1z
			 M241.4,66.4h3.1c-0.1-0.8-0.6-1.4-1.5-1.4C242.2,65,241.6,65.6,241.4,66.4z M246.3,68.8l0.5-0.7c0.6,0.4,1.1,0.6,1.8,0.6
			c0.6,0,1-0.3,1-0.7c0-0.5-0.5-0.6-1.2-0.8c-1.2-0.3-1.8-0.7-1.8-1.5c0-0.9,0.8-1.6,1.9-1.6c0.7,0,1.4,0.2,1.9,0.6l-0.4,0.7
			c-0.5-0.3-1-0.5-1.5-0.5c-0.5,0-0.9,0.2-0.9,0.6c0,0.4,0.3,0.5,1.2,0.8c0.9,0.2,1.8,0.5,1.8,1.6c0,1-0.8,1.6-2,1.6
			C247.7,69.5,246.9,69.3,246.3,68.8L246.3,68.8z M254.4,69.2c-0.3,0.2-0.7,0.4-1,0.4c-0.8,0-1.4-0.6-1.4-1.4v-3h-0.8v-0.8h0.8v-1.4
			h1v1.4h1.2v0.8h-1.2v3c0,0.4,0.2,0.6,0.5,0.6c0.2,0,0.4-0.1,0.5-0.2L254.4,69.2z M261,69.2c-0.3,0.2-0.7,0.4-1,0.4
			c-0.8,0-1.4-0.6-1.4-1.4v-3h-0.8v-0.8h0.8v-1.4h1v1.4h1.2v0.8h-1.2v3c0,0.4,0.2,0.6,0.5,0.6c0.2,0,0.4-0.1,0.5-0.2L261,69.2z
			 M261.7,66.8c0-1.5,1.2-2.7,2.7-2.7c1.5,0,2.7,1.2,2.7,2.7c0,1.5-1.2,2.7-2.7,2.7C263,69.5,261.7,68.3,261.7,66.8z M266.2,66.8
			c0-1-0.8-1.8-1.7-1.8c-1,0-1.7,0.8-1.7,1.8c0,1,0.8,1.8,1.7,1.8C265.4,68.7,266.2,67.8,266.2,66.8z M268.3,64.9
			c0-0.3,0.3-0.7,0.7-0.7c0.4,0,0.6,0.3,0.6,0.7c0,0.4-0.3,0.7-0.6,0.7C268.6,65.6,268.3,65.3,268.3,64.9z M268.3,68.9
			c0-0.3,0.3-0.7,0.7-0.7c0.4,0,0.6,0.3,0.6,0.7c0,0.4-0.3,0.7-0.6,0.7C268.6,69.6,268.3,69.2,268.3,68.9z M278.4,66.1v3.3h-1v-3.1
			c0-0.8-0.5-1.3-1.2-1.3c-0.8,0-1.4,0.6-1.4,1.2v3.2h-1v-7h1V65c0.3-0.5,0.9-0.9,1.6-0.9C277.6,64.1,278.4,65,278.4,66.1z
			 M282.6,69.2c-0.3,0.2-0.7,0.4-1,0.4c-0.8,0-1.4-0.6-1.4-1.4v-3h-0.8v-0.8h0.8v-1.4h1v1.4h1.2v0.8h-1.2v3c0,0.4,0.2,0.6,0.5,0.6
			c0.2,0,0.4-0.1,0.5-0.2L282.6,69.2z M286.4,69.2c-0.3,0.2-0.7,0.4-1,0.4c-0.8,0-1.4-0.6-1.4-1.4v-3h-0.8v-0.8h0.8v-1.4h1v1.4h1.2
			v0.8H285v3c0,0.4,0.2,0.6,0.5,0.6c0.2,0,0.4-0.1,0.5-0.2L286.4,69.2z M292.7,66.8c0,1.6-1,2.7-2.4,2.7c-0.8,0-1.4-0.4-1.8-1v2.6
			h-1v-6.9h1v0.9c0.4-0.6,1-1,1.8-1C291.6,64.1,292.7,65.3,292.7,66.8z M291.7,66.8c0-1.1-0.7-1.8-1.6-1.8c-0.9,0-1.6,0.8-1.6,1.8
			s0.7,1.8,1.6,1.8C291,68.7,291.7,67.9,291.7,66.8z M293.8,64.9c0-0.3,0.3-0.7,0.7-0.7c0.4,0,0.6,0.3,0.6,0.7
			c0,0.4-0.3,0.7-0.6,0.7C294.1,65.6,293.8,65.3,293.8,64.9z M293.8,68.9c0-0.3,0.3-0.7,0.7-0.7c0.4,0,0.6,0.3,0.6,0.7
			c0,0.4-0.3,0.7-0.6,0.7C294.1,69.6,293.8,69.2,293.8,68.9z M299.1,62h1.1l-3.5,8.2h-1.1L299.1,62z M302.1,62h1.1l-3.5,8.2h-1.1
			L302.1,62z M309.1,66.8c0,1.6-1,2.7-2.4,2.7c-0.8,0-1.4-0.4-1.8-1v2.6h-1v-6.9h1v0.9c0.4-0.6,1-1,1.8-1
			C308.1,64.1,309.1,65.3,309.1,66.8z M308.1,66.8c0-1.1-0.7-1.8-1.6-1.8c-0.9,0-1.6,0.8-1.6,1.8s0.7,1.8,1.6,1.8
			C307.4,68.7,308.1,67.9,308.1,66.8z M310,66.8c0-1.5,1.2-2.7,2.7-2.7c1.5,0,2.7,1.2,2.7,2.7c0,1.5-1.2,2.7-2.7,2.7
			C311.3,69.5,310,68.3,310,66.8z M314.5,66.8c0-1-0.8-1.8-1.7-1.8c-1,0-1.7,0.8-1.7,1.8c0,1,0.8,1.8,1.7,1.8
			C313.7,68.7,314.5,67.8,314.5,66.8z M319.1,66.6l2.1,2.8h-1.2l-1.6-2.2l-0.8,0.8v1.3h-1v-7h1v4.5l2.5-2.6h1.2L319.1,66.6
			L319.1,66.6z M326,68.1l0.6,0.6c-0.5,0.5-1.4,0.8-2.1,0.8c-1.4,0-2.7-1.1-2.7-2.7c0-1.6,1.1-2.7,2.6-2.7c1.6,0,2.5,1.2,2.5,3.1
			h-4.1c0.1,0.9,0.8,1.5,1.6,1.5C325.1,68.7,325.7,68.4,326,68.1L326,68.1z M322.9,66.4h3.1c-0.1-0.8-0.6-1.4-1.5-1.4
			C323.7,65,323.1,65.6,322.9,66.4L322.9,66.4z M332.4,66.3v3.1h-1v-0.7c-0.4,0.5-1.1,0.8-1.7,0.8c-1.1,0-1.9-0.6-1.9-1.7
			c0-1,0.9-1.7,2.1-1.7c0.5,0,1.1,0.1,1.6,0.3v-0.2c0-0.7-0.3-1.3-1.3-1.3c-0.5,0-1,0.2-1.5,0.4l-0.4-0.7c0.7-0.4,1.4-0.5,2-0.5
			C331.7,64.1,332.4,65,332.4,66.3L332.4,66.3z M331.5,67.8v-0.7c-0.4-0.1-0.9-0.2-1.4-0.2c-0.7,0-1.3,0.4-1.3,0.9s0.5,0.9,1.1,0.9
			S331.3,68.5,331.5,67.8z M339.1,66.8c0,1.6-1,2.7-2.4,2.7c-0.8,0-1.4-0.4-1.8-1v2.6h-1v-6.9h1v0.9c0.4-0.6,1-1,1.8-1
			C338.1,64.1,339.1,65.3,339.1,66.8z M338.1,66.8c0-1.1-0.7-1.8-1.6-1.8c-0.9,0-1.6,0.8-1.6,1.8s0.7,1.8,1.6,1.8
			C337.4,68.7,338.1,67.9,338.1,66.8z M340.2,62.8c0-0.3,0.3-0.6,0.6-0.6c0.3,0,0.6,0.3,0.6,0.6c0,0.3-0.3,0.6-0.6,0.6
			C340.5,63.4,340.2,63.1,340.2,62.8z M340.3,64.3h1v5.2h-1V64.3z M342.7,68.9c0-0.3,0.3-0.7,0.7-0.7c0.4,0,0.6,0.3,0.6,0.7
			c0,0.4-0.3,0.7-0.6,0.7C343,69.6,342.7,69.2,342.7,68.9z M345.1,66.8c0-1.5,1.2-2.7,2.7-2.7c0.7,0,1.4,0.3,1.9,0.8l-0.7,0.6
			c-0.3-0.4-0.8-0.6-1.2-0.6c-0.9,0-1.7,0.8-1.7,1.8c0,1,0.8,1.8,1.7,1.8c0.5,0,0.9-0.2,1.3-0.6l0.7,0.6c-0.5,0.5-1.2,0.8-1.9,0.8
			C346.3,69.6,345.1,68.3,345.1,66.8L345.1,66.8z M350.4,66.8c0-1.5,1.2-2.7,2.7-2.7c1.5,0,2.7,1.2,2.7,2.7c0,1.5-1.2,2.7-2.7,2.7
			C351.7,69.5,350.4,68.3,350.4,66.8z M354.9,66.8c0-1-0.8-1.8-1.7-1.8c-1,0-1.7,0.8-1.7,1.8c0,1,0.8,1.8,1.7,1.8
			C354.1,68.7,354.9,67.8,354.9,66.8z M359.6,62h1.1l-3.5,8.2h-1.1L359.6,62z M368.5,66.3v3.1h-1v-0.7c-0.4,0.5-1.1,0.8-1.7,0.8
			c-1.1,0-1.9-0.6-1.9-1.7c0-1,0.9-1.7,2.1-1.7c0.5,0,1.1,0.1,1.6,0.3v-0.2c0-0.7-0.3-1.3-1.3-1.3c-0.5,0-1,0.2-1.5,0.4l-0.4-0.7
			c0.7-0.4,1.4-0.5,2-0.5C367.7,64.1,368.5,65,368.5,66.3L368.5,66.3z M367.5,67.8v-0.7c-0.4-0.1-0.9-0.2-1.4-0.2
			c-0.7,0-1.3,0.4-1.3,0.9s0.5,0.9,1.1,0.9C366.7,68.8,367.4,68.5,367.5,67.8z M374.5,66.1v3.3h-1v-3.1c0-0.8-0.5-1.3-1.2-1.3
			c-0.7,0-1.3,0.5-1.4,1.1v3.3h-1v-5.2h1V65c0.3-0.5,0.9-0.9,1.6-0.9C373.7,64.1,374.5,65,374.5,66.1z M380.9,62.4v7h-1v-0.9
			c-0.4,0.6-1,1-1.8,1c-1.4,0-2.4-1.1-2.4-2.7c0-1.6,1-2.7,2.4-2.7c0.8,0,1.4,0.4,1.8,1v-2.7C379.9,62.4,380.9,62.4,380.9,62.4z
			 M379.9,66.8c0-1.1-0.7-1.8-1.6-1.8c-1,0-1.6,0.8-1.6,1.8s0.7,1.8,1.6,1.8C379.2,68.7,379.9,67.9,379.9,66.8z M389.6,66.3v3.1h-1
			v-0.7c-0.4,0.5-1.1,0.8-1.7,0.8c-1.1,0-1.9-0.6-1.9-1.7c0-1,0.9-1.7,2.1-1.7c0.5,0,1.1,0.1,1.6,0.3v-0.2c0-0.7-0.3-1.3-1.3-1.3
			c-0.5,0-1,0.2-1.5,0.4l-0.4-0.7c0.7-0.4,1.4-0.5,2-0.5C388.8,64.1,389.6,65,389.6,66.3L389.6,66.3z M388.6,67.8v-0.7
			c-0.4-0.1-0.9-0.2-1.4-0.2c-0.7,0-1.3,0.4-1.3,0.9s0.5,0.9,1.1,0.9C387.7,68.8,388.4,68.5,388.6,67.8z M390.7,68.8l0.5-0.7
			c0.5,0.4,1.1,0.6,1.8,0.6c0.6,0,1-0.3,1-0.7c0-0.5-0.5-0.6-1.2-0.8c-1.2-0.3-1.8-0.7-1.8-1.5c0-0.9,0.8-1.6,1.9-1.6
			c0.7,0,1.4,0.2,1.9,0.6l-0.4,0.7c-0.5-0.3-1-0.5-1.5-0.5c-0.5,0-0.9,0.2-0.9,0.6c0,0.4,0.3,0.5,1.2,0.8c0.9,0.2,1.8,0.5,1.8,1.6
			c0,1-0.8,1.6-2,1.6C392.1,69.5,391.3,69.3,390.7,68.8L390.7,68.8z M395.6,68.8l0.5-0.7c0.5,0.4,1.1,0.6,1.8,0.6c0.6,0,1-0.3,1-0.7
			c0-0.5-0.5-0.6-1.2-0.8c-1.2-0.3-1.8-0.7-1.8-1.5c0-0.9,0.8-1.6,1.9-1.6c0.7,0,1.4,0.2,1.9,0.6l-0.4,0.7c-0.5-0.3-1-0.5-1.5-0.5
			c-0.5,0-0.9,0.2-0.9,0.6c0,0.4,0.3,0.5,1.2,0.8c0.9,0.2,1.8,0.5,1.8,1.6c0,1-0.8,1.6-2,1.6C397.1,69.5,396.3,69.3,395.6,68.8
			L395.6,68.8z M400.9,62.8c0-0.3,0.3-0.6,0.6-0.6c0.3,0,0.6,0.3,0.6,0.6c0,0.3-0.3,0.6-0.6,0.6C401.1,63.4,400.9,63.1,400.9,62.8z
			 M401,64.3h1v5.2h-1V64.3z M408.3,64.3v4.6c0,1.3-1.1,2.3-2.6,2.3c-0.9,0-1.7-0.3-2.2-0.7l0.4-0.7c0.4,0.4,1,0.6,1.6,0.6
			c1.1,0,1.8-0.5,1.8-1.4v-0.8c-0.4,0.6-1,0.9-1.8,0.9c-1.4,0-2.4-1-2.4-2.5s1-2.4,2.4-2.4c0.8,0,1.4,0.4,1.8,0.9v-0.8H408.3z
			 M407.3,66.6c0-0.9-0.7-1.6-1.6-1.6s-1.6,0.7-1.6,1.6c0,0.9,0.6,1.6,1.6,1.6S407.3,67.5,407.3,66.6z M414.3,66.1v3.3h-1v-3.1
			c0-0.8-0.5-1.3-1.2-1.3c-0.7,0-1.3,0.5-1.4,1.1v3.3h-1v-5.2h1V65c0.3-0.5,0.9-0.9,1.6-0.9C413.5,64.1,414.3,65,414.3,66.1z
			 M421.4,69.2c-0.3,0.2-0.7,0.4-1,0.4c-0.8,0-1.4-0.6-1.4-1.4v-3h-0.8v-0.8h0.8v-1.4h1v1.4h1.2v0.8H420v3c0,0.4,0.2,0.6,0.5,0.6
			c0.2,0,0.4-0.1,0.5-0.2L421.4,69.2z M427,66.1v3.3h-1v-3.1c0-0.8-0.5-1.3-1.2-1.3c-0.8,0-1.4,0.6-1.4,1.2v3.2h-1v-7h1V65
			c0.3-0.5,0.9-0.9,1.6-0.9C426.2,64.1,427,65,427,66.1z M432.2,68.1l0.6,0.6c-0.5,0.5-1.4,0.8-2.1,0.8c-1.4,0-2.7-1.1-2.7-2.7
			c0-1.6,1.1-2.7,2.6-2.7c1.6,0,2.5,1.2,2.5,3.1h-4.1c0.1,0.9,0.8,1.5,1.6,1.5C431.3,68.7,431.9,68.4,432.2,68.1L432.2,68.1z
			 M429.1,66.4h3.1c-0.1-0.8-0.6-1.4-1.5-1.4C429.9,65,429.3,65.6,429.1,66.4L429.1,66.4z M440.2,64.1V65c-1.1,0-1.8,0.6-1.9,1.5
			v2.9h-1v-5.2h1v1C438.6,64.6,439.3,64.1,440.2,64.1z M445,68.1l0.6,0.6c-0.5,0.5-1.4,0.8-2.1,0.8c-1.4,0-2.7-1.1-2.7-2.7
			c0-1.6,1.1-2.7,2.6-2.7c1.6,0,2.5,1.2,2.5,3.1h-4.1c0.1,0.9,0.8,1.5,1.6,1.5C444,68.7,444.7,68.4,445,68.1L445,68.1z M441.9,66.4
			h3.1c-0.1-0.8-0.6-1.4-1.5-1.4C442.7,65,442,65.6,441.9,66.4L441.9,66.4z M446.7,68.8l0.5-0.7c0.5,0.4,1.1,0.6,1.8,0.6
			c0.6,0,1-0.3,1-0.7c0-0.5-0.5-0.6-1.2-0.8c-1.2-0.3-1.8-0.7-1.8-1.5c0-0.9,0.8-1.6,1.9-1.6c0.7,0,1.4,0.2,1.9,0.6l-0.4,0.7
			c-0.5-0.3-1-0.5-1.5-0.5c-0.5,0-0.9,0.2-0.9,0.6c0,0.4,0.3,0.5,1.2,0.8c0.9,0.2,1.8,0.5,1.8,1.6c0,1-0.8,1.6-2,1.6
			C448.2,69.5,447.4,69.3,446.7,68.8L446.7,68.8z M457.3,66.8c0,1.6-1,2.7-2.4,2.7c-0.8,0-1.4-0.4-1.8-1v2.6h-1v-6.9h1v0.9
			c0.4-0.6,1-1,1.8-1C456.3,64.1,457.3,65.3,457.3,66.8z M456.3,66.8c0-1.1-0.7-1.8-1.6-1.8c-0.9,0-1.6,0.8-1.6,1.8s0.7,1.8,1.6,1.8
			C455.6,68.7,456.3,67.9,456.3,66.8z M458.2,66.8c0-1.5,1.2-2.7,2.7-2.7c1.5,0,2.7,1.2,2.7,2.7c0,1.5-1.2,2.7-2.7,2.7
			C459.5,69.5,458.2,68.3,458.2,66.8z M462.7,66.8c0-1-0.8-1.8-1.7-1.8c-1,0-1.7,0.8-1.7,1.8c0,1,0.8,1.8,1.7,1.8
			C461.9,68.7,462.7,67.8,462.7,66.8z M469.4,66.1v3.3h-1v-3.1c0-0.8-0.5-1.3-1.2-1.3c-0.7,0-1.3,0.5-1.4,1.1v3.3h-1v-5.2h1V65
			c0.3-0.5,0.9-0.9,1.6-0.9C468.6,64.1,469.4,65,469.4,66.1z M470.5,68.8l0.5-0.7c0.5,0.4,1.1,0.6,1.8,0.6c0.6,0,1-0.3,1-0.7
			c0-0.5-0.5-0.6-1.2-0.8c-1.2-0.3-1.8-0.7-1.8-1.5c0-0.9,0.8-1.6,1.9-1.6c0.7,0,1.4,0.2,1.9,0.6l-0.4,0.7c-0.5-0.3-1-0.5-1.5-0.5
			c-0.5,0-0.9,0.2-0.9,0.6c0,0.4,0.3,0.5,1.2,0.8c0.9,0.2,1.8,0.5,1.8,1.6c0,1-0.8,1.6-2,1.6C471.9,69.5,471.1,69.3,470.5,68.8
			L470.5,68.8z M479.6,68.1l0.6,0.6c-0.5,0.5-1.4,0.8-2.1,0.8c-1.4,0-2.7-1.1-2.7-2.7c0-1.6,1.1-2.7,2.6-2.7c1.6,0,2.5,1.2,2.5,3.1
			h-4.1c0.1,0.9,0.8,1.5,1.6,1.5C478.7,68.7,479.3,68.4,479.6,68.1L479.6,68.1z M476.5,66.4h3.1c-0.1-0.8-0.6-1.4-1.5-1.4
			C477.3,65,476.7,65.6,476.5,66.4L476.5,66.4z M481.8,64.9c0.3-0.3,0.5-0.6,0.5-0.9c-0.4,0-0.7-0.3-0.6-0.7c0,0,0,0,0,0
			c0-0.3,0.3-0.7,0.7-0.7c0.4,0,0.7,0.4,0.7,1c0,0.5-0.2,0.9-0.9,1.6L481.8,64.9z M484.1,68.8l0.5-0.7c0.5,0.4,1.1,0.6,1.8,0.6
			c0.6,0,1-0.3,1-0.7c0-0.5-0.5-0.6-1.2-0.8c-1.2-0.3-1.8-0.7-1.8-1.5c0-0.9,0.8-1.6,1.9-1.6c0.7,0,1.4,0.2,1.9,0.6l-0.4,0.7
			c-0.5-0.3-1-0.5-1.5-0.5c-0.5,0-0.9,0.2-0.9,0.6c0,0.4,0.3,0.5,1.2,0.8c0.9,0.2,1.8,0.5,1.8,1.6c0,1-0.8,1.6-2,1.6
			C485.6,69.5,484.8,69.3,484.1,68.8L484.1,68.8z M492,68.8l0.5-0.7c0.5,0.4,1.1,0.6,1.8,0.6c0.6,0,1-0.3,1-0.7
			c0-0.5-0.5-0.6-1.2-0.8c-1.2-0.3-1.8-0.7-1.8-1.5c0-0.9,0.8-1.6,1.9-1.6c0.7,0,1.4,0.2,1.9,0.6l-0.4,0.7c-0.5-0.3-1-0.5-1.5-0.5
			c-0.5,0-0.9,0.2-0.9,0.6c0,0.4,0.3,0.5,1.2,0.8c0.9,0.2,1.8,0.5,1.8,1.6c0,1-0.8,1.6-2,1.6C493.4,69.5,492.6,69.3,492,68.8
			L492,68.8z M500.1,69.2c-0.3,0.2-0.7,0.4-1,0.4c-0.8,0-1.4-0.6-1.4-1.4v-3h-0.8v-0.8h0.8v-1.4h1v1.4h1.2v0.8h-1.2v3
			c0,0.4,0.2,0.6,0.5,0.6c0.2,0,0.4-0.1,0.5-0.2L500.1,69.2z M505.4,66.3v3.1h-1v-0.7c-0.4,0.5-1.1,0.8-1.7,0.8
			c-1.1,0-1.9-0.6-1.9-1.7c0-1,0.9-1.7,2.1-1.7c0.5,0,1.1,0.1,1.6,0.3v-0.2c0-0.7-0.3-1.3-1.3-1.3c-0.5,0-1,0.2-1.5,0.4l-0.4-0.7
			c0.7-0.4,1.4-0.5,2-0.5C504.6,64.1,505.4,65,505.4,66.3L505.4,66.3z M504.4,67.8v-0.7c-0.4-0.1-0.9-0.2-1.4-0.2
			c-0.7,0-1.3,0.4-1.3,0.9s0.5,0.9,1.1,0.9C503.6,68.8,504.3,68.5,504.4,67.8z M509.6,69.2c-0.3,0.2-0.7,0.4-1,0.4
			c-0.8,0-1.4-0.6-1.4-1.4v-3h-0.8v-0.8h0.8v-1.4h1v1.4h1.2v0.8h-1.2v3c0,0.4,0.2,0.6,0.5,0.6c0.2,0,0.4-0.1,0.5-0.2L509.6,69.2z
			 M515.2,64.3v5.2h-1v-0.8c-0.3,0.5-0.9,0.9-1.6,0.9c-1.1,0-1.9-0.8-1.9-2v-3.3h1v3.1c0,0.8,0.5,1.3,1.2,1.3c0.7,0,1.3-0.5,1.4-1.1
			v-3.3H515.2L515.2,64.3z M516.3,68.8l0.5-0.7c0.5,0.4,1.1,0.6,1.8,0.6c0.6,0,1-0.3,1-0.7c0-0.5-0.5-0.6-1.2-0.8
			c-1.2-0.3-1.8-0.7-1.8-1.5c0-0.9,0.8-1.6,1.9-1.6c0.7,0,1.3,0.2,1.9,0.6l-0.4,0.7c-0.5-0.3-1-0.5-1.5-0.5c-0.5,0-0.9,0.2-0.9,0.6
			c0,0.4,0.3,0.5,1.2,0.8c0.8,0.2,1.8,0.5,1.8,1.6c0,1-0.8,1.6-2,1.6C517.7,69.5,516.9,69.3,516.3,68.8L516.3,68.8z M524.2,66.8
			c0-1.5,1.2-2.7,2.7-2.7c0.7,0,1.4,0.3,1.9,0.8l-0.7,0.6c-0.3-0.4-0.8-0.6-1.2-0.6c-0.9,0-1.7,0.8-1.7,1.8c0,1,0.8,1.8,1.7,1.8
			c0.5,0,0.9-0.2,1.3-0.6l0.7,0.6c-0.5,0.5-1.2,0.8-1.9,0.8C525.4,69.6,524.2,68.3,524.2,66.8L524.2,66.8z M529.5,66.8
			c0-1.5,1.2-2.7,2.7-2.7c1.5,0,2.7,1.2,2.7,2.7c0,1.5-1.2,2.7-2.7,2.7C530.8,69.5,529.5,68.3,529.5,66.8z M534,66.8
			c0-1-0.8-1.8-1.7-1.8c-1,0-1.7,0.8-1.7,1.8c0,1,0.8,1.8,1.7,1.8C533.2,68.7,534,67.8,534,66.8z M541.1,62.4v7h-1v-0.9
			c-0.4,0.6-1,1-1.8,1c-1.4,0-2.4-1.1-2.4-2.7c0-1.6,1-2.7,2.4-2.7c0.8,0,1.4,0.4,1.8,1v-2.7C540.1,62.4,541.1,62.4,541.1,62.4z
			 M540.1,66.8c0-1.1-0.7-1.8-1.6-1.8c-1,0-1.6,0.8-1.6,1.8s0.7,1.8,1.6,1.8C539.4,68.7,540.1,67.9,540.1,66.8z M546.4,68.1l0.6,0.6
			c-0.5,0.5-1.4,0.8-2.1,0.8c-1.4,0-2.7-1.1-2.7-2.7c0-1.6,1.2-2.7,2.6-2.7c1.6,0,2.5,1.2,2.5,3.1h-4.1c0.1,0.9,0.8,1.5,1.7,1.5
			C545.5,68.7,546.1,68.4,546.4,68.1z M543.3,66.4h3.1c-0.1-0.8-0.6-1.4-1.5-1.4C544.1,65,543.4,65.6,543.3,66.4z M554.1,69.2
			c-0.3,0.2-0.7,0.4-1,0.4c-0.8,0-1.4-0.6-1.4-1.4v-3H551v-0.8h0.8v-1.4h1v1.4h1.2v0.8h-1.2v3c0,0.4,0.2,0.6,0.5,0.6
			c0.2,0,0.4-0.1,0.5-0.2L554.1,69.2z M554.9,66.8c0-1.5,1.2-2.7,2.7-2.7c1.5,0,2.7,1.2,2.7,2.7c0,1.5-1.2,2.7-2.7,2.7
			C556.1,69.5,554.9,68.3,554.9,66.8z M559.3,66.8c0-1-0.8-1.8-1.7-1.8c-1,0-1.7,0.8-1.7,1.8c0,1,0.8,1.8,1.7,1.8
			C558.5,68.7,559.3,67.8,559.3,66.8z M156.5,80.8l0.5-0.7c0.6,0.4,1.1,0.6,1.8,0.6c0.6,0,1-0.3,1-0.7c0-0.5-0.5-0.6-1.2-0.8
			c-1.2-0.3-1.8-0.7-1.8-1.5c0-0.9,0.8-1.6,1.9-1.6c0.7,0,1.4,0.2,1.9,0.6l-0.4,0.7c-0.5-0.3-1-0.5-1.5-0.5c-0.5,0-0.9,0.2-0.9,0.6
			c0,0.4,0.3,0.5,1.2,0.8c0.9,0.2,1.8,0.5,1.8,1.6c0,1-0.8,1.6-2,1.6C158,81.5,157.1,81.3,156.5,80.8L156.5,80.8z M164.6,81.2
			c-0.3,0.2-0.7,0.4-1,0.4c-0.8,0-1.4-0.6-1.4-1.4v-3h-0.8v-0.8h0.8v-1.4h1v1.4h1.2v0.8h-1.2v3c0,0.4,0.2,0.6,0.5,0.6
			c0.2,0,0.4-0.1,0.5-0.2L164.6,81.2z M170,78.3v3.1h-1v-0.7c-0.4,0.5-1.1,0.8-1.7,0.8c-1.1,0-1.9-0.6-1.9-1.7c0-1,0.9-1.7,2.1-1.7
			c0.5,0,1.1,0.1,1.6,0.3v-0.2c0-0.7-0.3-1.3-1.3-1.3c-0.5,0-1,0.2-1.5,0.4l-0.4-0.7c0.7-0.4,1.4-0.5,2-0.5
			C169.2,76.1,170,77,170,78.3z M169,79.8v-0.7c-0.4-0.1-0.9-0.2-1.4-0.2c-0.7,0-1.3,0.4-1.3,0.9s0.5,0.9,1.1,0.9
			C168.1,80.8,168.8,80.5,169,79.8L169,79.8z M174.2,81.2c-0.3,0.2-0.7,0.4-1,0.4c-0.8,0-1.4-0.6-1.4-1.4v-3H171v-0.8h0.8v-1.4h1
			v1.4h1.2v0.8h-1.2v3c0,0.4,0.2,0.6,0.5,0.6c0.2,0,0.4-0.1,0.5-0.2L174.2,81.2z M179.7,76.3v5.2h-1v-0.8c-0.3,0.5-0.9,0.9-1.6,0.9
			c-1.1,0-1.9-0.8-1.9-2v-3.3h1v3.1c0,0.8,0.5,1.3,1.2,1.3c0.7,0,1.3-0.5,1.4-1.1v-3.3H179.7z M180.8,80.8l0.5-0.7
			c0.6,0.4,1.1,0.6,1.8,0.6c0.6,0,1-0.3,1-0.7c0-0.5-0.5-0.6-1.2-0.8c-1.2-0.3-1.8-0.7-1.8-1.5c0-0.9,0.8-1.6,1.9-1.6
			c0.7,0,1.4,0.2,1.9,0.6l-0.4,0.7c-0.5-0.3-1-0.5-1.5-0.5c-0.5,0-0.9,0.2-0.9,0.6c0,0.4,0.3,0.5,1.2,0.8c0.9,0.2,1.8,0.5,1.8,1.6
			c0,1-0.8,1.6-2,1.6C182.3,81.5,181.5,81.3,180.8,80.8L180.8,80.8z M185.4,82.2h6v0.7h-6V82.2z M191.8,78.8c0-1.5,1.2-2.7,2.7-2.7
			c0.7,0,1.4,0.3,1.9,0.8l-0.7,0.6c-0.3-0.4-0.8-0.6-1.2-0.6c-0.9,0-1.7,0.8-1.7,1.8c0,1,0.8,1.8,1.7,1.8c0.5,0,0.9-0.2,1.3-0.6
			l0.7,0.6c-0.5,0.5-1.2,0.8-1.9,0.8C193,81.6,191.8,80.3,191.8,78.8L191.8,78.8z M197.1,78.8c0-1.5,1.2-2.7,2.7-2.7
			c1.5,0,2.7,1.2,2.7,2.7c0,1.5-1.2,2.7-2.7,2.7C198.4,81.5,197.1,80.3,197.1,78.8z M201.6,78.8c0-1-0.8-1.8-1.7-1.8
			c-0.9,0-1.7,0.8-1.7,1.8c0,1,0.8,1.8,1.7,1.8C200.8,80.7,201.6,79.8,201.6,78.8z M208.7,74.4v7h-1v-0.9c-0.4,0.6-1,1-1.8,1
			c-1.4,0-2.4-1.1-2.4-2.7c0-1.6,1-2.7,2.4-2.7c0.8,0,1.4,0.4,1.8,1v-2.7H208.7z M207.7,78.8c0-1.1-0.7-1.8-1.6-1.8
			c-0.9,0-1.6,0.8-1.6,1.8s0.7,1.8,1.6,1.8C207,80.7,207.7,79.9,207.7,78.8z M214,80.1l0.6,0.6c-0.5,0.5-1.4,0.8-2.1,0.8
			c-1.4,0-2.7-1.1-2.7-2.7c0-1.6,1.1-2.7,2.6-2.7c1.6,0,2.5,1.2,2.5,3.1h-4.1c0.1,0.9,0.8,1.5,1.6,1.5
			C213.1,80.7,213.7,80.4,214,80.1L214,80.1z M210.9,78.4h3.1c-0.1-0.8-0.6-1.4-1.5-1.4C211.7,77,211.1,77.6,210.9,78.4z"/>
		<g>
			<path d="M156.4,99.7v-4h0.8v4c0,1.3,0.9,2.3,2.1,2.3s2.1-0.9,2.1-2.3v-4h0.8v4c0,1.7-1.2,3-2.9,3S156.4,101.4,156.4,99.7z
				 M163.4,101.9l0.4-0.6c0.6,0.4,1.2,0.7,1.8,0.7c0.7,0,1.1-0.3,1.1-0.8c0-0.6-0.6-0.7-1.3-0.9c-1.2-0.4-1.7-0.7-1.7-1.5
				c0-0.9,0.8-1.5,1.8-1.5c0.6,0,1.3,0.2,1.9,0.6l-0.4,0.6c-0.5-0.3-1-0.5-1.5-0.5c-0.6,0-1.1,0.3-1.1,0.8c0,0.4,0.4,0.6,1.3,0.9
				c0.8,0.3,1.7,0.5,1.7,1.5c0,0.9-0.8,1.6-1.9,1.6C164.8,102.6,164,102.4,163.4,101.9z M172.6,101.3l0.5,0.5
				c-0.4,0.5-1.4,0.8-2.1,0.8c-1.4,0-2.6-1.1-2.6-2.7c0-1.5,1.2-2.7,2.6-2.7c1.6,0,2.4,1.2,2.4,3h-4.2c0.1,1,0.8,1.8,1.8,1.8
				C171.6,102,172.3,101.7,172.6,101.3L172.6,101.3z M169.2,99.5h3.5c-0.1-0.9-0.6-1.7-1.7-1.7C170.1,97.9,169.3,98.5,169.2,99.5z
				 M180.2,102.3c-0.3,0.2-0.6,0.3-1,0.3c-0.7,0-1.3-0.6-1.3-1.3V98h-0.8v-0.7h0.8v-1.4h0.8v1.4h1.3V98h-1.3v3.3
				c0,0.4,0.3,0.7,0.6,0.7c0.2,0,0.4-0.1,0.5-0.2L180.2,102.3L180.2,102.3z M185.6,99.2v3.3h-0.8v-3.2c0-0.8-0.5-1.4-1.3-1.4
				c-0.9,0-1.6,0.6-1.6,1.3v3.3h-0.8v-7h0.8v2.7c0.3-0.6,1-0.9,1.7-0.9C184.8,97.2,185.6,98.1,185.6,99.2z M191.1,101.3l0.5,0.5
				c-0.4,0.5-1.4,0.8-2.1,0.8c-1.4,0-2.6-1.1-2.6-2.7c0-1.5,1.2-2.7,2.6-2.7c1.6,0,2.4,1.2,2.4,3h-4.2c0.1,1,0.8,1.8,1.8,1.8
				C190.1,102,190.8,101.7,191.1,101.3L191.1,101.3z M187.7,99.5h3.5c-0.1-0.9-0.6-1.7-1.7-1.7C188.5,97.9,187.8,98.5,187.7,99.5z
				 M198.8,97.2v0.7c-1.2,0-2,0.7-2,1.7v2.9h-0.8v-5.2h0.8v1C197.1,97.7,197.9,97.2,198.8,97.2z M203.8,101.3l0.5,0.5
				c-0.4,0.5-1.4,0.8-2.1,0.8c-1.4,0-2.6-1.1-2.6-2.7c0-1.5,1.2-2.7,2.6-2.7c1.6,0,2.4,1.2,2.4,3h-4.2c0.1,1,0.8,1.8,1.8,1.8
				C202.8,102,203.5,101.7,203.8,101.3L203.8,101.3z M200.4,99.5h3.5c-0.1-0.9-0.6-1.7-1.7-1.7C201.2,97.9,200.5,98.5,200.4,99.5z
				 M210.6,97.3v6.9h-0.8v-2.7c-0.4,0.7-1.1,1.1-1.9,1.1c-1.4,0-2.4-1.1-2.4-2.7c0-1.6,1-2.7,2.4-2.7c0.8,0,1.5,0.4,1.9,1.1v-1
				C209.9,97.3,210.6,97.3,210.6,97.3z M209.9,99.9c0-1.2-0.7-2-1.7-2c-1,0-1.7,0.8-1.7,2s0.7,2,1.7,2
				C209.1,102,209.9,101.1,209.9,99.9z M216.6,97.3v5.2h-0.8v-0.8c-0.3,0.6-1,0.9-1.7,0.9c-1.1,0-1.9-0.8-1.9-2v-3.3h0.8v3.2
				c0,0.8,0.5,1.4,1.3,1.4c0.9,0,1.6-0.6,1.6-1.3v-3.3C215.8,97.3,216.6,97.3,216.6,97.3z M222.1,101.3l0.5,0.5
				c-0.4,0.5-1.4,0.8-2.1,0.8c-1.4,0-2.6-1.1-2.6-2.7c0-1.5,1.2-2.7,2.6-2.7c1.6,0,2.4,1.2,2.4,3h-4.2c0.1,1,0.8,1.8,1.8,1.8
				C221.1,102,221.8,101.7,222.1,101.3L222.1,101.3z M218.6,99.5h3.5c-0.1-0.9-0.6-1.7-1.7-1.7C219.5,97.9,218.8,98.5,218.6,99.5z
				 M223.8,101.9l0.4-0.6c0.6,0.4,1.2,0.7,1.8,0.7c0.7,0,1.1-0.3,1.1-0.8c0-0.6-0.6-0.7-1.3-0.9c-1.2-0.4-1.7-0.7-1.7-1.5
				c0-0.9,0.8-1.5,1.8-1.5c0.6,0,1.3,0.2,1.9,0.6l-0.4,0.6c-0.5-0.3-1-0.5-1.5-0.5c-0.6,0-1.1,0.3-1.1,0.8c0,0.4,0.4,0.6,1.3,0.9
				c0.8,0.3,1.7,0.5,1.7,1.5c0,0.9-0.8,1.6-1.9,1.6C225.2,102.6,224.4,102.4,223.8,101.9z M231.7,102.3c-0.3,0.2-0.6,0.3-1,0.3
				c-0.7,0-1.3-0.6-1.3-1.3V98h-0.8v-0.7h0.8v-1.4h0.8v1.4h1.3V98h-1.3v3.3c0,0.4,0.3,0.7,0.6,0.7c0.2,0,0.4-0.1,0.5-0.2
				L231.7,102.3L231.7,102.3z M232.4,101.9l0.4-0.6c0.6,0.4,1.2,0.7,1.8,0.7c0.7,0,1.1-0.3,1.1-0.8c0-0.6-0.6-0.7-1.3-0.9
				c-1.2-0.4-1.7-0.7-1.7-1.5c0-0.9,0.8-1.5,1.8-1.5c0.6,0,1.3,0.2,1.9,0.6l-0.4,0.6c-0.5-0.3-1-0.5-1.5-0.5c-0.6,0-1.1,0.3-1.1,0.8
				c0,0.4,0.4,0.6,1.3,0.9c0.8,0.3,1.7,0.5,1.7,1.5c0,0.9-0.8,1.6-1.9,1.6C233.8,102.6,233,102.4,232.4,101.9z M240.6,95.5h0.8v7
				h-0.8V95.5z M242.7,95.9c0-0.3,0.2-0.5,0.5-0.5c0.3,0,0.5,0.2,0.5,0.5c0,0.3-0.2,0.5-0.5,0.5C242.9,96.4,242.7,96.2,242.7,95.9z
				 M242.8,97.4h0.8v5.2h-0.8V97.4z M250.2,99.9c0,1.6-1,2.7-2.4,2.7c-0.8,0-1.5-0.4-1.9-1.1v1h-0.8v-7h0.8v2.8
				c0.4-0.7,1.1-1.1,1.9-1.1C249.2,97.2,250.2,98.4,250.2,99.9z M249.4,99.9c0-1.2-0.7-2-1.7-2c-1,0-1.7,0.8-1.7,2s0.7,2,1.7,2
				S249.4,101.1,249.4,99.9z M254.3,97.2v0.7c-1.2,0-2,0.7-2,1.7v2.9h-0.8v-5.2h0.8v1C252.6,97.7,253.4,97.2,254.3,97.2z
				 M259.5,99.4v3.2h-0.8v-0.8c-0.4,0.6-1.1,0.9-1.8,0.9c-1.1,0-1.9-0.6-1.9-1.7c0-1,0.9-1.7,2-1.7c0.6,0,1.1,0.1,1.7,0.3v-0.2
				c0-0.7-0.3-1.5-1.4-1.5c-0.5,0-1,0.2-1.5,0.5l-0.3-0.6c0.7-0.4,1.4-0.5,1.9-0.5C258.9,97.2,259.5,98.1,259.5,99.4z M258.8,100.9
				v-0.8c-0.5-0.1-1-0.2-1.6-0.2c-0.8,0-1.4,0.4-1.4,1.1c0,0.6,0.6,1,1.3,1C257.8,102,258.6,101.6,258.8,100.9z M263.9,97.2v0.7
				c-1.2,0-2,0.7-2,1.7v2.9h-0.8v-5.2h0.8v1C262.2,97.7,262.9,97.2,263.9,97.2z M264.9,104.2l0.2-0.6c0.2,0.1,0.4,0.1,0.6,0.1
				c0.3,0,0.5-0.1,0.8-0.5l0.3-0.6l-2.2-5.2h0.8l1.8,4.3l1.7-4.3h0.8l-2.4,5.8c-0.4,0.9-0.9,1.2-1.6,1.2
				C265.4,104.3,265.1,104.3,264.9,104.2L264.9,104.2z M273.6,99.9c0-1.7,0.8-3.2,2.1-4.3l0.4,0.4c-1.1,1.1-1.7,2.3-1.7,3.9
				c0,1.6,0.6,2.8,1.7,3.9l-0.4,0.4C274.4,103.1,273.6,101.6,273.6,99.9z"/>
			<path class="st2" d="M282.1,95.5v7h-0.8v-1c-0.4,0.7-1,1.1-1.9,1.1c-1.4,0-2.4-1.1-2.4-2.7c0-1.6,1-2.7,2.4-2.7
				c0.8,0,1.5,0.4,1.9,1.1v-2.8C281.4,95.5,282.1,95.5,282.1,95.5z M281.4,99.9c0-1.2-0.7-2-1.7-2c-1,0-1.7,0.8-1.7,2s0.7,2,1.7,2
				C280.7,102,281.4,101.1,281.4,99.9z M283.4,99.9c0-1.5,1.2-2.7,2.7-2.7s2.7,1.2,2.7,2.7c0,1.5-1.2,2.7-2.7,2.7
				S283.4,101.4,283.4,99.9z M288,99.9c0-1.1-0.9-2-1.9-2c-1,0-1.9,0.9-1.9,2c0,1.1,0.9,2,1.9,2C287.1,102,288,101,288,99.9z
				 M289.8,99.9c0-1.5,1.2-2.7,2.7-2.7c0.7,0,1.4,0.3,1.8,0.8l-0.5,0.5c-0.3-0.4-0.8-0.6-1.3-0.6c-1,0-1.9,0.9-1.9,2
				c0,1.1,0.9,2,1.9,2c0.5,0,1-0.2,1.4-0.6l0.5,0.5c-0.5,0.5-1.1,0.8-1.9,0.8C291,102.6,289.8,101.4,289.8,99.9L289.8,99.9z
				 M299.8,97.3v5.2h-0.8v-0.8c-0.3,0.6-1,0.9-1.7,0.9c-1.1,0-1.9-0.8-1.9-2v-3.3h0.8v3.2c0,0.8,0.5,1.4,1.3,1.4
				c0.9,0,1.6-0.6,1.6-1.3v-3.3C299.1,97.3,299.8,97.3,299.8,97.3z M308.8,99.2v3.3H308v-3.2c0-0.8-0.5-1.4-1.2-1.4
				c-0.8,0-1.4,0.6-1.4,1.3v3.3h-0.8v-3.2c0-0.8-0.5-1.4-1.2-1.4c-0.8,0-1.4,0.6-1.4,1.3v3.3h-0.8v-5.2h0.8v0.8
				c0.3-0.5,0.8-0.9,1.5-0.9c0.8,0,1.4,0.4,1.7,1.1c0.2-0.7,0.9-1.1,1.7-1.1C308,97.2,308.8,98.1,308.8,99.2L308.8,99.2z
				 M314.3,101.3l0.5,0.5c-0.5,0.5-1.4,0.8-2.1,0.8c-1.4,0-2.6-1.1-2.6-2.7c0-1.5,1.2-2.7,2.5-2.7c1.6,0,2.5,1.2,2.5,3h-4.2
				c0.1,1,0.8,1.8,1.8,1.8C313.3,102,313.9,101.7,314.3,101.3z M310.8,99.5h3.5c-0.1-0.9-0.6-1.7-1.7-1.7
				C311.7,97.9,311,98.5,310.8,99.5L310.8,99.5z M320.7,99.2v3.3h-0.8v-3.2c0-0.8-0.5-1.4-1.3-1.4c-0.9,0-1.6,0.6-1.6,1.3v3.3h-0.8
				v-5.2h0.8v0.8c0.3-0.6,1-0.9,1.7-0.9C319.9,97.2,320.7,98.1,320.7,99.2z M324.8,102.3c-0.3,0.2-0.6,0.3-1,0.3
				c-0.7,0-1.3-0.6-1.3-1.3V98h-0.8v-0.7h0.8v-1.4h0.8v1.4h1.3V98h-1.3v3.3c0,0.4,0.3,0.7,0.6,0.7c0.2,0,0.4-0.1,0.5-0.2
				C324.5,101.8,324.8,102.3,324.8,102.3z M330.1,99.4v3.2h-0.8v-0.8c-0.4,0.6-1.1,0.9-1.8,0.9c-1.1,0-1.9-0.6-1.9-1.7
				c0-1,0.9-1.7,2-1.7c0.6,0,1.1,0.1,1.7,0.3v-0.2c0-0.7-0.3-1.5-1.4-1.5c-0.5,0-1,0.2-1.5,0.5l-0.3-0.6c0.7-0.4,1.4-0.5,1.9-0.5
				C329.4,97.2,330.1,98.1,330.1,99.4L330.1,99.4z M329.3,100.9v-0.8c-0.5-0.1-1-0.2-1.6-0.2c-0.8,0-1.4,0.4-1.4,1.1
				c0,0.6,0.6,1,1.3,1C328.3,102,329.1,101.6,329.3,100.9z M334.3,102.3c-0.3,0.2-0.6,0.3-1,0.3c-0.7,0-1.3-0.6-1.3-1.3V98h-0.8
				v-0.7h0.8v-1.4h0.8v1.4h1.3V98h-1.3v3.3c0,0.4,0.3,0.7,0.6,0.7c0.2,0,0.4-0.1,0.5-0.2C333.9,101.8,334.3,102.3,334.3,102.3z
				 M335.2,95.9c0-0.3,0.2-0.5,0.5-0.5c0.3,0,0.5,0.2,0.5,0.5c0,0.3-0.2,0.5-0.5,0.5C335.4,96.4,335.2,96.2,335.2,95.9z M335.3,97.4
				h0.8v5.2h-0.8V97.4z M337.3,99.9c0-1.5,1.2-2.7,2.7-2.7s2.7,1.2,2.7,2.7c0,1.5-1.2,2.7-2.7,2.7S337.3,101.4,337.3,99.9z
				 M341.8,99.9c0-1.1-0.9-2-1.9-2c-1,0-1.9,0.9-1.9,2c0,1.1,0.9,2,1.9,2C341,102,341.8,101,341.8,99.9z M348.3,99.2v3.3h-0.8v-3.2
				c0-0.8-0.5-1.4-1.3-1.4c-0.9,0-1.6,0.6-1.6,1.3v3.3h-0.8v-5.2h0.8v0.8c0.3-0.6,1-0.9,1.7-0.9C347.5,97.2,348.3,98.1,348.3,99.2z
				 M357.1,99.2v3.3h-0.8v-3.2c0-0.8-0.5-1.4-1.3-1.4c-0.9,0-1.6,0.6-1.6,1.3v3.3h-0.8v-7h0.8v2.7c0.3-0.6,1-0.9,1.7-0.9
				C356.3,97.2,357.1,98.1,357.1,99.2z M362.6,101.3l0.5,0.5c-0.5,0.5-1.4,0.8-2.1,0.8c-1.4,0-2.6-1.1-2.6-2.7
				c0-1.5,1.2-2.7,2.5-2.7c1.6,0,2.5,1.2,2.5,3h-4.2c0.1,1,0.8,1.8,1.8,1.8C361.6,102,362.2,101.7,362.6,101.3z M359.1,99.5h3.5
				c-0.1-0.9-0.6-1.7-1.7-1.7C360,97.9,359.3,98.5,359.1,99.5L359.1,99.5z M367.4,97.2v0.7c-1.2,0-2,0.7-2,1.7v2.9h-0.8v-5.2h0.8v1
				C365.7,97.7,366.4,97.2,367.4,97.2z M372.4,101.3l0.5,0.5c-0.5,0.5-1.4,0.8-2.1,0.8c-1.4,0-2.6-1.1-2.6-2.7
				c0-1.5,1.2-2.7,2.5-2.7c1.6,0,2.5,1.2,2.5,3h-4.2c0.1,1,0.8,1.8,1.8,1.8C371.4,102,372.1,101.7,372.4,101.3z M368.9,99.5h3.5
				c-0.1-0.9-0.6-1.7-1.7-1.7C369.8,97.9,369.1,98.5,368.9,99.5L368.9,99.5z"/>
			<path d="M374.1,103.8c1.1-1.1,1.7-2.3,1.7-3.9c0-1.6-0.6-2.8-1.7-3.9l0.4-0.4c1.3,1.1,2.1,2.6,2.1,4.3c0,1.7-0.8,3.2-2.1,4.3
				L374.1,103.8z"/>
		</g>
		<g>
			<path d="M105,127.8h0.8v6.9H105V127.8z M111.8,131.4v3.3H111v-3.2c0-0.8-0.5-1.4-1.3-1.4c-0.9,0-1.6,0.6-1.6,1.3v3.3h-0.8v-5.2
				h0.8v0.8c0.3-0.6,1-0.9,1.7-0.9C111,129.4,111.8,130.3,111.8,131.4z M116.2,127.4h2.4v0.6h-1.7v7.4h1.7v0.6h-2.4V127.4
				L116.2,127.4z M119.6,134.1l2.5-2.1c1-0.8,1.4-1.5,1.4-2.2c0-0.8-0.7-1.3-1.4-1.3c-0.8,0-1.4,0.4-1.8,1.1l-0.6-0.4
				c0.6-0.8,1.3-1.3,2.4-1.3c1.2,0,2.2,0.8,2.2,2c0,0.9-0.5,1.7-1.6,2.7l-1.8,1.6h3.5v0.7h-4.7V134.1L119.6,134.1z M125.5,135.3h1.7
				V128h-1.7v-0.6h2.4v8.5h-2.4V135.3z M129.4,130.1c0-0.3,0.2-0.5,0.5-0.5c0.3,0,0.5,0.2,0.5,0.5c0,0.3-0.2,0.6-0.5,0.6
				C129.6,130.7,129.4,130.4,129.4,130.1z M129.4,134.3c0-0.3,0.2-0.5,0.5-0.5c0.3,0,0.5,0.2,0.5,0.5c0,0.3-0.2,0.6-0.5,0.6
				C129.6,134.8,129.4,134.6,129.4,134.3z"/>
		</g>
		<g>
			<path class="st4" d="M104.8,240.8c0-1.9,1.6-3.6,3.5-3.6c1.9,0,3.5,1.6,3.5,3.6c0,1.9-1.6,3.6-3.5,3.6
				C106.4,244.3,104.8,242.7,104.8,240.8z M111,240.8c0-1.5-1.2-2.8-2.7-2.8s-2.7,1.3-2.7,2.8c0,1.5,1.2,2.8,2.7,2.8
				S111,242.3,111,240.8z M117.5,239.1v5.2h-0.8v-0.8c-0.3,0.6-1,0.9-1.7,0.9c-1.1,0-1.9-0.8-1.9-2v-3.3h0.8v3.2
				c0,0.8,0.5,1.4,1.3,1.4c0.9,0,1.6-0.6,1.6-1.3v-3.3H117.5z M121.6,244c-0.3,0.2-0.6,0.3-1,0.3c-0.7,0-1.3-0.6-1.3-1.3v-3.3h-0.8
				v-0.7h0.8v-1.4h0.8v1.4h1.3v0.7h-1.3v3.3c0,0.4,0.3,0.6,0.6,0.6c0.2,0,0.4-0.1,0.5-0.2L121.6,244L121.6,244z M125.7,236.9h2.3
				v0.6h-1.7v7.4h1.7v0.6h-2.4L125.7,236.9L125.7,236.9z M129,243.6l2.5-2.1c1-0.8,1.4-1.5,1.4-2.2c0-0.8-0.7-1.3-1.4-1.3
				c-0.8,0-1.4,0.4-1.8,1.1l-0.6-0.4c0.6-0.8,1.3-1.3,2.4-1.3c1.2,0,2.2,0.8,2.2,2c0,0.9-0.5,1.7-1.6,2.7l-1.8,1.6h3.5v0.7H129
				V243.6L129,243.6z M134.9,244.8h1.7v-7.4h-1.7v-0.6h2.4v8.5h-2.4V244.8L134.9,244.8z M138.8,239.6c0-0.3,0.2-0.5,0.5-0.5
				c0.3,0,0.5,0.2,0.5,0.5c0,0.3-0.2,0.6-0.5,0.6C139,240.2,138.8,239.9,138.8,239.6z M138.8,243.8c0-0.3,0.2-0.5,0.5-0.5
				c0.3,0,0.5,0.2,0.5,0.5c0,0.3-0.2,0.6-0.5,0.6C139,244.3,138.8,244.1,138.8,243.8z"/>
		</g>
		<path class="st2" d="M144.7,121.2h325.2v21H144.7V121.2z"/>
		<path class="st1" d="M144.7,183.1h325.2v31.2H144.7V183.1z"/>
		<text transform="matrix(1 0 0 1 155.51 134.718)" class="st0 st5 st6">Student’s answer</text>
		<g>
			<path d="M156,159.3l0.4-0.6c0.6,0.4,1.2,0.6,1.8,0.6c0.7,0,1.1-0.3,1.1-0.8c0-0.6-0.6-0.7-1.3-0.9c-1.2-0.4-1.7-0.7-1.7-1.5
				c0-0.9,0.8-1.5,1.8-1.5c0.6,0,1.3,0.2,1.9,0.6l-0.4,0.6c-0.5-0.3-1-0.5-1.5-0.5c-0.6,0-1.1,0.3-1.1,0.8c0,0.4,0.4,0.6,1.3,0.9
				c0.8,0.3,1.7,0.5,1.7,1.5c0,0.9-0.8,1.6-1.9,1.6C157.4,160.1,156.6,159.8,156,159.3L156,159.3z M163.9,159.7
				c-0.3,0.2-0.6,0.3-1,0.3c-0.7,0-1.3-0.6-1.3-1.3v-3.3h-0.8v-0.7h0.8v-1.4h0.8v1.4h1.3v0.7h-1.3v3.3c0,0.4,0.3,0.6,0.6,0.6
				c0.2,0,0.4-0.1,0.5-0.2L163.9,159.7L163.9,159.7z M169.1,156.8v3.1h-0.8v-0.8c-0.4,0.6-1.1,0.9-1.8,0.9c-1.1,0-1.9-0.6-1.9-1.6
				c0-1,0.9-1.7,2-1.7c0.6,0,1.1,0.1,1.7,0.3v-0.2c0-0.7-0.3-1.5-1.4-1.5c-0.5,0-1,0.2-1.5,0.5l-0.3-0.6c0.7-0.4,1.4-0.5,1.9-0.5
				C168.4,154.6,169.1,155.5,169.1,156.8L169.1,156.8z M168.4,158.3v-0.8c-0.5-0.1-1-0.2-1.6-0.2c-0.8,0-1.4,0.4-1.4,1.1
				c0,0.6,0.6,1,1.3,1C167.4,159.4,168.2,159,168.4,158.3z M173.3,159.7c-0.3,0.2-0.6,0.3-1,0.3c-0.7,0-1.3-0.6-1.3-1.3v-3.3h-0.8
				v-0.7h0.8v-1.4h0.8v1.4h1.3v0.7h-1.3v3.3c0,0.4,0.3,0.6,0.6,0.6c0.2,0,0.4-0.1,0.5-0.2L173.3,159.7L173.3,159.7z M178.8,154.8
				v5.2H178v-0.8c-0.3,0.6-1,0.9-1.7,0.9c-1.1,0-1.9-0.8-1.9-2v-3.3h0.8v3.2c0,0.8,0.5,1.4,1.3,1.4c0.9,0,1.6-0.6,1.6-1.3v-3.3
				H178.8z M180,159.3l0.4-0.6c0.6,0.4,1.2,0.6,1.8,0.6c0.7,0,1.1-0.3,1.1-0.8c0-0.6-0.6-0.7-1.3-0.9c-1.2-0.4-1.7-0.7-1.7-1.5
				c0-0.9,0.8-1.5,1.8-1.5c0.6,0,1.3,0.2,1.9,0.6l-0.4,0.6c-0.5-0.3-1-0.5-1.5-0.5c-0.6,0-1.1,0.3-1.1,0.8c0,0.4,0.4,0.6,1.3,0.9
				c0.8,0.3,1.7,0.5,1.7,1.5c0,0.9-0.8,1.6-1.9,1.6C181.4,160.1,180.6,159.8,180,159.3L180,159.3z M184.5,160.7h6v0.7h-6V160.7z
				 M190.9,157.4c0-1.5,1.2-2.7,2.7-2.7c0.7,0,1.4,0.3,1.8,0.8l-0.5,0.5c-0.3-0.4-0.8-0.6-1.3-0.6c-1,0-1.9,0.9-1.9,2
				c0,1.1,0.9,2,1.9,2c0.5,0,1-0.2,1.4-0.6l0.5,0.5c-0.5,0.5-1.1,0.8-1.9,0.8C192.1,160.1,190.9,158.8,190.9,157.4L190.9,157.4z
				 M196.2,157.4c0-1.5,1.2-2.7,2.7-2.7s2.7,1.2,2.7,2.7s-1.2,2.7-2.7,2.7S196.2,158.8,196.2,157.4z M200.8,157.4c0-1.1-0.9-2-1.9-2
				c-1,0-1.9,0.9-1.9,2c0,1.1,0.9,2,1.9,2C199.9,159.4,200.8,158.5,200.8,157.4z M207.6,152.9v7h-0.8v-1c-0.4,0.7-1.1,1.1-1.9,1.1
				c-1.4,0-2.4-1.1-2.4-2.7c0-1.6,1-2.7,2.4-2.7c0.8,0,1.5,0.4,1.9,1.1v-2.8H207.6z M206.8,157.3c0-1.2-0.7-2-1.7-2
				c-1,0-1.7,0.8-1.7,2s0.7,2,1.7,2C206.1,159.4,206.8,158.5,206.8,157.3z M213.1,158.8l0.5,0.5c-0.4,0.5-1.4,0.8-2.1,0.8
				c-1.4,0-2.6-1.1-2.6-2.7c0-1.5,1.2-2.7,2.6-2.7c1.6,0,2.4,1.2,2.4,3h-4.2c0.1,1,0.8,1.8,1.8,1.8
				C212.1,159.4,212.8,159.1,213.1,158.8L213.1,158.8z M209.7,157h3.5c-0.1-0.9-0.6-1.6-1.7-1.6C210.5,155.3,209.8,156,209.7,157z
				 M217.9,155.1h4.6v0.7h-4.6V155.1z M217.9,157.3h4.6v0.7h-4.6V157.3z M229.7,154.6v0.7c-1.2,0-2,0.7-2,1.7v2.9h-0.8v-5.2h0.8v1
				C228,155.1,228.7,154.6,229.7,154.6L229.7,154.6z M234.7,158.8l0.5,0.5c-0.4,0.5-1.4,0.8-2.1,0.8c-1.4,0-2.6-1.1-2.6-2.7
				c0-1.5,1.2-2.7,2.6-2.7c1.6,0,2.4,1.2,2.4,3h-4.2c0.1,1,0.8,1.8,1.8,1.8C233.6,159.4,234.3,159.1,234.7,158.8L234.7,158.8z
				 M231.2,157h3.5c-0.1-0.9-0.6-1.6-1.7-1.6C232.1,155.3,231.3,156,231.2,157z M241.4,154.8v6.9h-0.8V159c-0.4,0.7-1.1,1.1-1.9,1.1
				c-1.4,0-2.4-1.1-2.4-2.7c0-1.6,1-2.7,2.4-2.7c0.8,0,1.5,0.4,1.9,1.1v-1L241.4,154.8L241.4,154.8z M240.7,157.4c0-1.2-0.7-2-1.7-2
				c-1,0-1.7,0.8-1.7,2s0.7,2,1.7,2C240,159.4,240.7,158.5,240.7,157.4z M247.4,154.8v5.2h-0.8v-0.8c-0.3,0.6-1,0.9-1.7,0.9
				c-1.1,0-1.9-0.8-1.9-2v-3.3h0.8v3.2c0,0.8,0.5,1.4,1.3,1.4c0.9,0,1.6-0.6,1.6-1.3v-3.3H247.4z M252.9,158.8l0.5,0.5
				c-0.4,0.5-1.4,0.8-2.1,0.8c-1.4,0-2.6-1.1-2.6-2.7c0-1.5,1.2-2.7,2.6-2.7c1.6,0,2.4,1.2,2.4,3h-4.2c0.1,1,0.8,1.8,1.8,1.8
				C251.9,159.4,252.6,159.1,252.9,158.8L252.9,158.8z M249.4,157h3.5c-0.1-0.9-0.6-1.6-1.7-1.6C250.3,155.3,249.6,156,249.4,157z
				 M254.6,159.3l0.4-0.6c0.6,0.4,1.2,0.6,1.7,0.6c0.7,0,1.1-0.3,1.1-0.8c0-0.6-0.6-0.7-1.3-0.9c-1.2-0.4-1.7-0.7-1.7-1.5
				c0-0.9,0.8-1.5,1.8-1.5c0.6,0,1.3,0.2,1.9,0.6l-0.4,0.6c-0.5-0.3-1-0.5-1.5-0.5c-0.6,0-1.1,0.3-1.1,0.8c0,0.4,0.4,0.6,1.3,0.9
				c0.8,0.3,1.7,0.5,1.7,1.5c0,0.9-0.8,1.6-1.9,1.6C256,160.1,255.2,159.8,254.6,159.3L254.6,159.3z M262.5,159.7
				c-0.3,0.2-0.6,0.3-1,0.3c-0.7,0-1.3-0.6-1.3-1.3v-3.3h-0.8v-0.7h0.8v-1.4h0.8v1.4h1.3v0.7H261v3.3c0,0.4,0.3,0.6,0.6,0.6
				c0.2,0,0.4-0.1,0.5-0.2L262.5,159.7L262.5,159.7z M263.2,159.3l0.4-0.6c0.6,0.4,1.2,0.6,1.8,0.6c0.7,0,1.1-0.3,1.1-0.8
				c0-0.6-0.6-0.7-1.3-0.9c-1.2-0.4-1.7-0.7-1.7-1.5c0-0.9,0.8-1.5,1.8-1.5c0.6,0,1.3,0.2,1.9,0.6l-0.4,0.6c-0.5-0.3-1-0.5-1.5-0.5
				c-0.6,0-1.1,0.3-1.1,0.8c0,0.4,0.4,0.6,1.3,0.9c0.8,0.3,1.7,0.5,1.7,1.5c0,0.9-0.8,1.6-1.9,1.6
				C264.7,160.1,263.9,159.8,263.2,159.3L263.2,159.3z M268.5,159.5c0-0.3,0.2-0.5,0.5-0.5c0.3,0,0.5,0.2,0.5,0.5
				c0,0.3-0.2,0.6-0.5,0.6C268.7,160.1,268.5,159.8,268.5,159.5z M275.8,154.8v4.6c0,1.3-1,2.3-2.5,2.3c-0.8,0-1.6-0.3-2.1-0.7
				l0.3-0.6c0.4,0.4,1,0.6,1.7,0.6c1.2,0,1.9-0.6,1.9-1.6v-0.8c-0.4,0.6-1.1,1-1.9,1c-1.4,0-2.4-1-2.4-2.5s1-2.4,2.4-2.4
				c0.8,0,1.5,0.4,1.9,1v-0.9L275.8,154.8L275.8,154.8z M275.1,157.1c0-1-0.7-1.8-1.7-1.8c-1,0-1.7,0.7-1.7,1.8
				c0,1.1,0.7,1.8,1.7,1.8C274.4,158.9,275.1,158.1,275.1,157.1z M281.4,158.8l0.5,0.5c-0.5,0.5-1.4,0.8-2.1,0.8
				c-1.4,0-2.6-1.1-2.6-2.7c0-1.5,1.2-2.7,2.5-2.7c1.6,0,2.5,1.2,2.5,3h-4.2c0.1,1,0.8,1.8,1.8,1.8
				C280.3,159.4,281,159.1,281.4,158.8L281.4,158.8z M277.9,157h3.5c-0.1-0.9-0.6-1.6-1.7-1.6C278.8,155.3,278.1,156,277.9,157
				L277.9,157z M286,159.7c-0.3,0.2-0.6,0.3-1,0.3c-0.7,0-1.3-0.6-1.3-1.3v-3.3H283v-0.7h0.8v-1.4h0.8v1.4h1.3v0.7h-1.3v3.3
				c0,0.4,0.3,0.6,0.6,0.6c0.2,0,0.4-0.1,0.5-0.2L286,159.7L286,159.7z M289.8,157.3c0-1.7,0.8-3.2,2.1-4.4l0.4,0.4
				c-1.1,1.1-1.7,2.3-1.7,3.9c0,1.6,0.6,2.8,1.7,3.9l-0.4,0.4C290.6,160.5,289.8,159,289.8,157.3L289.8,157.3z M293.6,155.2
				c0.3-0.3,0.4-0.6,0.5-0.9c-0.3,0-0.5-0.2-0.5-0.6c0-0.3,0.2-0.5,0.5-0.5c0.4,0,0.6,0.3,0.6,0.8c0,0.4-0.2,0.7-0.8,1.5
				L293.6,155.2L293.6,155.2z"/>
			<path class="st4" d="M300.6,156.6v3.3h-0.8v-3.2c0-0.8-0.5-1.4-1.3-1.4c-0.9,0-1.6,0.6-1.6,1.3v3.3h-0.8v-7h0.8v2.6
				c0.3-0.6,1-0.9,1.7-0.9C299.8,154.6,300.6,155.5,300.6,156.6L300.6,156.6z M304.7,159.7c-0.3,0.2-0.6,0.3-1,0.3
				c-0.7,0-1.3-0.6-1.3-1.3v-3.3h-0.8v-0.7h0.8v-1.4h0.8v1.4h1.3v0.7h-1.3v3.3c0,0.4,0.3,0.6,0.6,0.6c0.2,0,0.4-0.1,0.5-0.2
				L304.7,159.7L304.7,159.7z M308.4,159.7c-0.3,0.2-0.6,0.3-1,0.3c-0.7,0-1.3-0.6-1.3-1.3v-3.3h-0.8v-0.7h0.8v-1.4h0.8v1.4h1.3v0.7
				H307v3.3c0,0.4,0.3,0.6,0.6,0.6c0.2,0,0.4-0.1,0.5-0.2L308.4,159.7L308.4,159.7z M314.6,157.4c0,1.6-1,2.7-2.4,2.7
				c-0.8,0-1.5-0.4-1.9-1.1v2.7h-0.8v-6.9h0.8v1c0.4-0.7,1-1.1,1.9-1.1C313.5,154.7,314.6,155.8,314.6,157.4L314.6,157.4z
				 M313.8,157.4c0-1.2-0.7-2-1.7-2c-1,0-1.7,0.8-1.7,2s0.7,2,1.7,2S313.8,158.5,313.8,157.4z M315.6,159.3l0.4-0.6
				c0.6,0.4,1.2,0.6,1.8,0.6c0.7,0,1.1-0.3,1.1-0.8c0-0.6-0.6-0.7-1.3-0.9c-1.2-0.4-1.7-0.7-1.7-1.5c0-0.9,0.8-1.5,1.8-1.5
				c0.6,0,1.3,0.2,1.9,0.6l-0.4,0.6c-0.5-0.3-1-0.5-1.5-0.5c-0.6,0-1.1,0.3-1.1,0.8c0,0.4,0.4,0.6,1.3,0.9c0.8,0.3,1.7,0.5,1.7,1.5
				c0,0.9-0.8,1.6-1.9,1.6C317,160.1,316.2,159.8,315.6,159.3L315.6,159.3z M320.8,155.4c0-0.3,0.2-0.5,0.5-0.5
				c0.3,0,0.5,0.2,0.5,0.5c0,0.3-0.2,0.6-0.5,0.6C321,155.9,320.8,155.7,320.8,155.4z M320.8,159.5c0-0.3,0.2-0.5,0.5-0.5
				c0.3,0,0.5,0.2,0.5,0.5c0,0.3-0.2,0.6-0.5,0.6C321,160.1,320.8,159.8,320.8,159.5z M326,152.5h0.9l-3.5,8.2h-0.9L326,152.5z
				 M328.9,152.5h0.9l-3.5,8.2h-0.9L328.9,152.5z M335.5,157.4c0,1.6-1,2.7-2.4,2.7c-0.8,0-1.5-0.4-1.9-1.1v2.7h-0.8v-6.9h0.8v1
				c0.4-0.7,1-1.1,1.9-1.1C334.5,154.7,335.5,155.8,335.5,157.4L335.5,157.4z M334.7,157.4c0-1.2-0.7-2-1.7-2c-1,0-1.7,0.8-1.7,2
				s0.7,2,1.7,2C334,159.4,334.7,158.5,334.7,157.4z M336.5,157.4c0-1.5,1.2-2.7,2.7-2.7s2.7,1.2,2.7,2.7s-1.2,2.7-2.7,2.7
				S336.5,158.8,336.5,157.4z M341.1,157.4c0-1.1-0.9-2-1.9-2c-1,0-1.9,0.9-1.9,2c0,1.1,0.9,2,1.9,2
				C340.2,159.4,341.1,158.5,341.1,157.4z M345.3,157.1l2.2,2.8h-0.9l-1.8-2.3l-0.9,0.9v1.4h-0.8v-7h0.8v4.7l2.8-2.9h1L345.3,157.1
				L345.3,157.1z M352.5,158.8l0.5,0.5c-0.5,0.5-1.4,0.8-2.1,0.8c-1.4,0-2.6-1.1-2.6-2.7c0-1.5,1.2-2.7,2.5-2.7c1.6,0,2.5,1.2,2.5,3
				H349c0.1,1,0.8,1.8,1.8,1.8C351.5,159.4,352.2,159.1,352.5,158.8L352.5,158.8z M349,157h3.5c-0.1-0.9-0.6-1.6-1.7-1.6
				C349.9,155.3,349.2,156,349,157L349,157z M358.7,156.8v3.1h-0.8v-0.8c-0.4,0.6-1.1,0.9-1.8,0.9c-1.1,0-1.9-0.6-1.9-1.6
				c0-1,0.9-1.7,2-1.7c0.6,0,1.1,0.1,1.7,0.3v-0.2c0-0.7-0.3-1.5-1.4-1.5c-0.5,0-1,0.2-1.5,0.5l-0.3-0.6c0.7-0.4,1.4-0.5,1.9-0.5
				C358,154.6,358.7,155.5,358.7,156.8L358.7,156.8z M357.9,158.3v-0.8c-0.5-0.1-1-0.2-1.6-0.2c-0.8,0-1.4,0.4-1.4,1.1
				c0,0.6,0.6,1,1.3,1C356.9,159.4,357.7,159,357.9,158.3z M365.3,157.4c0,1.6-1,2.7-2.4,2.7c-0.8,0-1.5-0.4-1.9-1.1v2.7h-0.8v-6.9
				h0.8v1c0.4-0.7,1-1.1,1.9-1.1C364.3,154.7,365.3,155.8,365.3,157.4L365.3,157.4z M364.5,157.4c0-1.2-0.7-2-1.7-2
				c-1,0-1.7,0.8-1.7,2s0.7,2,1.7,2C363.8,159.4,364.5,158.5,364.5,157.4z M366.5,153.3c0-0.3,0.2-0.5,0.5-0.5
				c0.3,0,0.5,0.2,0.5,0.5c0,0.3-0.2,0.5-0.5,0.5C366.7,153.8,366.5,153.6,366.5,153.3z M366.6,154.8h0.8v5.2h-0.8V154.8z
				 M368.8,159.5c0-0.3,0.2-0.5,0.5-0.5c0.3,0,0.5,0.2,0.5,0.5c0,0.3-0.2,0.6-0.5,0.6C369,160.1,368.8,159.8,368.8,159.5z
				 M371.1,157.4c0-1.5,1.2-2.7,2.7-2.7c0.7,0,1.4,0.3,1.8,0.8l-0.5,0.5c-0.3-0.4-0.8-0.6-1.3-0.6c-1,0-1.9,0.9-1.9,2
				c0,1.1,0.9,2,1.9,2c0.5,0,1-0.2,1.4-0.6l0.5,0.5c-0.5,0.5-1.1,0.8-1.9,0.8C372.3,160.1,371.1,158.8,371.1,157.4L371.1,157.4z
				 M376.4,157.4c0-1.5,1.2-2.7,2.7-2.7s2.7,1.2,2.7,2.7s-1.2,2.7-2.7,2.7S376.4,158.8,376.4,157.4z M380.9,157.4c0-1.1-0.9-2-1.9-2
				c-1,0-1.9,0.9-1.9,2c0,1.1,0.9,2,1.9,2C380.1,159.4,380.9,158.5,380.9,157.4z M385.6,152.5h0.9l-3.5,8.2h-0.9L385.6,152.5z"/>
			<path d="M387.2,155.2c0.3-0.3,0.4-0.6,0.5-0.9c-0.3,0-0.5-0.2-0.5-0.6c0-0.3,0.2-0.5,0.5-0.5c0.4,0,0.6,0.3,0.6,0.8
				c0,0.4-0.2,0.7-0.8,1.5L387.2,155.2L387.2,155.2z M389.5,161.2c1.1-1.1,1.7-2.3,1.7-3.9c0-1.6-0.6-2.8-1.7-3.9l0.4-0.4
				c1.3,1.1,2.1,2.6,2.1,4.4c0,1.7-0.8,3.2-2.1,4.4L389.5,161.2L389.5,161.2z M393.3,159.5c0-0.3,0.2-0.5,0.5-0.5
				c0.3,0,0.5,0.2,0.5,0.5c0,0.3-0.2,0.6-0.5,0.6C393.6,160.1,393.3,159.8,393.3,159.5z M395.6,159.3l0.4-0.6
				c0.6,0.4,1.2,0.6,1.8,0.6c0.7,0,1.1-0.3,1.1-0.8c0-0.6-0.6-0.7-1.3-0.9c-1.2-0.4-1.7-0.7-1.7-1.5c0-0.9,0.8-1.5,1.8-1.5
				c0.6,0,1.3,0.2,1.9,0.6l-0.4,0.6c-0.5-0.3-1-0.5-1.5-0.5c-0.6,0-1.1,0.3-1.1,0.8c0,0.4,0.4,0.6,1.3,0.9c0.8,0.3,1.7,0.5,1.7,1.5
				c0,0.9-0.8,1.6-1.9,1.6C397,160.1,396.2,159.8,395.6,159.3L395.6,159.3z M403.5,159.7c-0.3,0.2-0.6,0.3-1,0.3
				c-0.7,0-1.3-0.6-1.3-1.3v-3.3h-0.8v-0.7h0.8v-1.4h0.8v1.4h1.3v0.7H402v3.3c0,0.4,0.3,0.6,0.6,0.6c0.2,0,0.4-0.1,0.5-0.2
				L403.5,159.7L403.5,159.7z M408.7,156.8v3.1H408v-0.8c-0.4,0.6-1.1,0.9-1.8,0.9c-1.1,0-1.9-0.6-1.9-1.6c0-1,0.9-1.7,2-1.7
				c0.6,0,1.1,0.1,1.7,0.3v-0.2c0-0.7-0.3-1.5-1.4-1.5c-0.5,0-1,0.2-1.5,0.5l-0.3-0.6c0.7-0.4,1.4-0.5,1.9-0.5
				C408,154.6,408.7,155.5,408.7,156.8L408.7,156.8z M408,158.3v-0.8c-0.5-0.1-1-0.2-1.6-0.2c-0.8,0-1.4,0.4-1.4,1.1
				c0,0.6,0.6,1,1.3,1C407,159.4,407.8,159,408,158.3z M412.9,159.7c-0.3,0.2-0.6,0.3-1,0.3c-0.7,0-1.3-0.6-1.3-1.3v-3.3h-0.8v-0.7
				h0.8v-1.4h0.8v1.4h1.3v0.7h-1.3v3.3c0,0.4,0.3,0.6,0.6,0.6c0.2,0,0.4-0.1,0.5-0.2L412.9,159.7L412.9,159.7z M418.4,154.8v5.2
				h-0.8v-0.8c-0.3,0.6-1,0.9-1.7,0.9c-1.1,0-1.9-0.8-1.9-2v-3.3h0.8v3.2c0,0.8,0.5,1.4,1.3,1.4c0.9,0,1.6-0.6,1.6-1.3v-3.3H418.4z
				 M419.6,159.3l0.4-0.6c0.6,0.4,1.2,0.6,1.8,0.6c0.7,0,1.1-0.3,1.1-0.8c0-0.6-0.6-0.7-1.3-0.9c-1.2-0.4-1.7-0.7-1.7-1.5
				c0-0.9,0.8-1.5,1.8-1.5c0.6,0,1.3,0.2,1.9,0.6l-0.4,0.6c-0.5-0.3-1-0.5-1.5-0.5c-0.6,0-1.1,0.3-1.1,0.8c0,0.4,0.4,0.6,1.3,0.9
				c0.8,0.3,1.7,0.5,1.7,1.5c0,0.9-0.8,1.6-1.9,1.6C421,160.1,420.2,159.8,419.6,159.3L419.6,159.3z M424.1,160.7h6v0.7h-6V160.7z
				 M430.5,157.4c0-1.5,1.2-2.7,2.7-2.7c0.7,0,1.4,0.3,1.8,0.8l-0.5,0.5c-0.3-0.4-0.8-0.6-1.3-0.6c-1,0-1.9,0.9-1.9,2
				c0,1.1,0.9,2,1.9,2c0.5,0,1-0.2,1.4-0.6l0.5,0.5c-0.5,0.5-1.1,0.8-1.9,0.8C431.7,160.1,430.5,158.8,430.5,157.4L430.5,157.4z
				 M435.8,157.4c0-1.5,1.2-2.7,2.7-2.7c1.5,0,2.7,1.2,2.7,2.7s-1.2,2.7-2.7,2.7S435.8,158.8,435.8,157.4z M440.3,157.4
				c0-1.1-0.9-2-1.9-2c-1,0-1.9,0.9-1.9,2c0,1.1,0.9,2,1.9,2C439.5,159.4,440.3,158.5,440.3,157.4z M447.2,152.9v7h-0.8v-1
				c-0.4,0.7-1,1.1-1.9,1.1c-1.4,0-2.4-1.1-2.4-2.7c0-1.6,1-2.7,2.4-2.7c0.8,0,1.5,0.4,1.9,1.1v-2.8H447.2z M446.4,157.3
				c0-1.2-0.7-2-1.7-2c-1,0-1.7,0.8-1.7,2s0.7,2,1.7,2C445.7,159.4,446.4,158.5,446.4,157.3z M452.7,158.8l0.5,0.5
				c-0.5,0.5-1.4,0.8-2.1,0.8c-1.4,0-2.6-1.1-2.6-2.7c0-1.5,1.2-2.7,2.5-2.7c1.6,0,2.5,1.2,2.5,3h-4.2c0.1,1,0.8,1.8,1.8,1.8
				C451.7,159.4,452.4,159.1,452.7,158.8L452.7,158.8z M449.3,157h3.5c-0.1-0.9-0.6-1.6-1.7-1.6C450.1,155.3,449.4,156,449.3,157
				L449.3,157z M156,171.3l0.4-0.6c0.6,0.4,1.2,0.6,1.8,0.6c0.7,0,1.1-0.3,1.1-0.8c0-0.6-0.6-0.7-1.3-0.9c-1.2-0.4-1.7-0.7-1.7-1.5
				c0-0.9,0.8-1.5,1.8-1.5c0.6,0,1.3,0.2,1.9,0.6l-0.4,0.6c-0.5-0.3-1-0.5-1.5-0.5c-0.6,0-1.1,0.3-1.1,0.8c0,0.4,0.4,0.6,1.3,0.9
				c0.8,0.3,1.7,0.5,1.7,1.5c0,0.9-0.8,1.6-1.9,1.6C157.4,172.1,156.6,171.8,156,171.3L156,171.3z M163.9,171.7
				c-0.3,0.2-0.6,0.3-1,0.3c-0.7,0-1.3-0.6-1.3-1.3v-3.3h-0.8v-0.7h0.8v-1.4h0.8v1.4h1.3v0.7h-1.3v3.3c0,0.4,0.3,0.6,0.6,0.6
				c0.2,0,0.4-0.1,0.5-0.2L163.9,171.7L163.9,171.7z M169.1,168.8v3.1h-0.8v-0.8c-0.4,0.6-1.1,0.9-1.8,0.9c-1.1,0-1.9-0.6-1.9-1.6
				c0-1,0.9-1.7,2-1.7c0.6,0,1.1,0.1,1.7,0.3v-0.2c0-0.7-0.3-1.5-1.4-1.5c-0.5,0-1,0.2-1.5,0.5l-0.3-0.6c0.7-0.4,1.4-0.5,1.9-0.5
				C168.4,166.6,169.1,167.5,169.1,168.8L169.1,168.8z M168.4,170.3v-0.8c-0.5-0.1-1-0.2-1.6-0.2c-0.8,0-1.4,0.4-1.4,1.1
				c0,0.6,0.6,1,1.3,1C167.4,171.4,168.2,171,168.4,170.3z M173.3,171.7c-0.3,0.2-0.6,0.3-1,0.3c-0.7,0-1.3-0.6-1.3-1.3v-3.3h-0.8
				v-0.7h0.8v-1.4h0.8v1.4h1.3v0.7h-1.3v3.3c0,0.4,0.3,0.6,0.6,0.6c0.2,0,0.4-0.1,0.5-0.2L173.3,171.7L173.3,171.7z M178.8,166.8
				v5.2H178v-0.8c-0.3,0.6-1,0.9-1.7,0.9c-1.1,0-1.9-0.8-1.9-2v-3.3h0.8v3.2c0,0.8,0.5,1.4,1.3,1.4c0.9,0,1.6-0.6,1.6-1.3v-3.3
				H178.8z M180,171.3l0.4-0.6c0.6,0.4,1.2,0.6,1.8,0.6c0.7,0,1.1-0.3,1.1-0.8c0-0.6-0.6-0.7-1.3-0.9c-1.2-0.4-1.7-0.7-1.7-1.5
				c0-0.9,0.8-1.5,1.8-1.5c0.6,0,1.3,0.2,1.9,0.6l-0.4,0.6c-0.5-0.3-1-0.5-1.5-0.5c-0.6,0-1.1,0.3-1.1,0.8c0,0.4,0.4,0.6,1.3,0.9
				c0.8,0.3,1.7,0.5,1.7,1.5c0,0.9-0.8,1.6-1.9,1.6C181.4,172.1,180.6,171.8,180,171.3L180,171.3z M184.5,172.7h6v0.7h-6V172.7z
				 M190.9,169.4c0-1.5,1.2-2.7,2.7-2.7c0.7,0,1.4,0.3,1.8,0.8l-0.5,0.5c-0.3-0.4-0.8-0.6-1.3-0.6c-1,0-1.9,0.9-1.9,2
				c0,1.1,0.9,2,1.9,2c0.5,0,1-0.2,1.4-0.6l0.5,0.5c-0.5,0.5-1.1,0.8-1.9,0.8C192.1,172.1,190.9,170.8,190.9,169.4L190.9,169.4z
				 M196.2,169.4c0-1.5,1.2-2.7,2.7-2.7s2.7,1.2,2.7,2.7s-1.2,2.7-2.7,2.7S196.2,170.8,196.2,169.4z M200.8,169.4c0-1.1-0.9-2-1.9-2
				c-1,0-1.9,0.9-1.9,2c0,1.1,0.9,2,1.9,2C199.9,171.4,200.8,170.5,200.8,169.4z M207.6,164.9v7h-0.8v-1c-0.4,0.7-1.1,1.1-1.9,1.1
				c-1.4,0-2.4-1.1-2.4-2.7c0-1.6,1-2.7,2.4-2.7c0.8,0,1.5,0.4,1.9,1.1v-2.8H207.6z M206.8,169.3c0-1.2-0.7-2-1.7-2
				c-1,0-1.7,0.8-1.7,2s0.7,2,1.7,2C206.1,171.4,206.8,170.5,206.8,169.3z M213.1,170.8l0.5,0.5c-0.4,0.5-1.4,0.8-2.1,0.8
				c-1.4,0-2.6-1.1-2.6-2.7c0-1.5,1.2-2.7,2.6-2.7c1.6,0,2.4,1.2,2.4,3h-4.2c0.1,1,0.8,1.8,1.8,1.8
				C212.1,171.4,212.8,171.1,213.1,170.8L213.1,170.8z M209.7,169h3.5c-0.1-0.9-0.6-1.6-1.7-1.6C210.5,167.3,209.8,168,209.7,169z"
				/>
		</g>
		<g>
			<path d="M156,243.6l2.5-2.1c1-0.8,1.4-1.5,1.4-2.2c0-0.8-0.7-1.3-1.4-1.3c-0.8,0-1.4,0.4-1.8,1.1l-0.6-0.4
				c0.6-0.8,1.3-1.3,2.4-1.3c1.2,0,2.2,0.8,2.2,2c0,0.9-0.5,1.7-1.6,2.7l-1.8,1.6h3.5v0.7H156V243.6L156,243.6z M162,240.8
				c0-2.1,1.2-3.6,2.9-3.6c1.7,0,2.9,1.5,2.9,3.6c0,2.1-1.2,3.6-2.9,3.6C163.2,244.3,162,242.9,162,240.8z M166.9,240.8
				c0-1.7-0.9-2.8-2.1-2.8s-2.1,1.2-2.1,2.8s0.9,2.8,2.1,2.8S166.9,242.4,166.9,240.8z M168.9,240.8c0-2.1,1.2-3.6,2.9-3.6
				c1.7,0,2.9,1.5,2.9,3.6c0,2.1-1.2,3.6-2.9,3.6C170.1,244.3,168.9,242.9,168.9,240.8z M173.8,240.8c0-1.7-0.9-2.8-2.1-2.8
				s-2.1,1.2-2.1,2.8s0.9,2.8,2.1,2.8S173.8,242.4,173.8,240.8z"/>
		</g>
		<g>
			<path d="M156,199.3c0-1.9,1.6-3.6,3.5-3.6c0.9,0,1.8,0.4,2.5,1.1l-0.5,0.5c-0.5-0.5-1.2-0.9-1.9-0.9c-1.5,0-2.7,1.3-2.7,2.8
				c0,1.5,1.2,2.8,2.7,2.8c0.8,0,1.4-0.3,1.9-0.9l0.5,0.5c-0.6,0.6-1.5,1.1-2.5,1.1C157.7,202.8,156,201.2,156,199.3z M162.8,200.1
				c0-1.5,1.2-2.7,2.7-2.7s2.7,1.2,2.7,2.7s-1.2,2.7-2.7,2.7S162.8,201.6,162.8,200.1z M167.3,200.1c0-1.1-0.9-2-1.9-2
				c-1,0-1.9,0.9-1.9,2c0,1.1,0.9,2,1.9,2C166.5,202.2,167.3,201.2,167.3,200.1z M172.2,197.4v0.7c-1.2,0-2,0.7-2,1.7v2.9h-0.8v-5.2
				h0.8v1C170.5,197.9,171.2,197.4,172.2,197.4L172.2,197.4z M176.1,197.4v0.7c-1.2,0-2,0.7-2,1.7v2.9h-0.8v-5.2h0.8v1
				C174.4,197.9,175.1,197.4,176.1,197.4L176.1,197.4z M181.1,201.5l0.5,0.5c-0.4,0.5-1.4,0.8-2.1,0.8c-1.4,0-2.6-1.1-2.6-2.7
				c0-1.5,1.2-2.7,2.6-2.7c1.6,0,2.4,1.2,2.4,3h-4.2c0.1,1,0.8,1.8,1.8,1.8C180,202.2,180.7,201.9,181.1,201.5L181.1,201.5z
				 M177.6,199.7h3.5c-0.1-0.9-0.6-1.6-1.7-1.6C178.5,198.1,177.7,198.7,177.6,199.7z M182.8,200.1c0-1.5,1.2-2.7,2.7-2.7
				c0.7,0,1.4,0.3,1.8,0.8l-0.5,0.5c-0.3-0.4-0.8-0.6-1.3-0.6c-1,0-1.9,0.9-1.9,2c0,1.1,0.9,2,1.9,2c0.5,0,1-0.2,1.4-0.6l0.5,0.5
				c-0.5,0.5-1.1,0.8-1.9,0.8C184,202.8,182.8,201.6,182.8,200.1L182.8,200.1z M191.1,202.5c-0.3,0.2-0.6,0.3-1,0.3
				c-0.7,0-1.3-0.6-1.3-1.3v-3.3h-0.8v-0.7h0.8v-1.4h0.8v1.4h1.3v0.7h-1.3v3.3c0,0.4,0.3,0.6,0.6,0.6c0.2,0,0.4-0.1,0.5-0.2
				L191.1,202.5L191.1,202.5z M192.2,202.3c0-0.3,0.2-0.5,0.5-0.5c0.3,0,0.5,0.2,0.5,0.5c0,0.3-0.2,0.6-0.5,0.6
				C192.5,202.8,192.2,202.6,192.2,202.3z M192.3,195.9h0.9l-0.2,4.9h-0.5L192.3,195.9z"/>
			<path class="st2" d="M202,203.8c-2.7,0-4.8-2.2-4.8-4.8s2.2-4.8,4.8-4.8s4.8,2.2,4.8,4.8S204.7,203.8,202,203.8z M205.1,197.9
				c0.1-0.1,0.1-0.3,0-0.4l-0.4-0.4c-0.1-0.1-0.3-0.1-0.4,0l-2.9,2.9l-1.4-1.4c-0.1-0.1-0.3-0.1-0.4,0L199,199
				c-0.1,0.1-0.1,0.3,0,0.4l2,2c0.1,0.1,0.3,0.1,0.4,0L205.1,197.9z"/>
		</g>
	</g>
</g>
</svg>
