<?xml version="1.0" encoding="utf-8"?>
<!-- Generator: Adobe Illustrator 23.0.6, SVG Export Plug-In . SVG Version: 6.00 Build 0)  -->
<svg version="1.1" id="Capa_1" xmlns="http://www.w3.org/2000/svg" xmlns:xlink="http://www.w3.org/1999/xlink" x="0px" y="0px"
	 viewBox="0 0 661 496" style="enable-background:new 0 0 661 496;" xml:space="preserve">
<style type="text/css">
	.st0{fill:#FFFFFF;}
	.st1{fill:#78B46F;}
	.st2{fill:#F2F3F4;}
	.st3{font-family:'FontAwesome5Free-Solid';}
	.st4{font-size:15.1673px;}
	.st5{fill:#211915;}
</style>
<g>
	<path class="st0" d="M653,496H8c-4.4,0-8-3.6-8-8V8c0-4.4,3.6-8,8-8h645c4.4,0,8,3.6,8,8v480C661,492.4,657.4,496,653,496z"/>
	<path d="M30,30.3c0.3,0,0.5,0,0.8-0.1c0.3,0,0.4-0.1,0.5-0.1c0.2,0,0.4,0.2,0.6,0.6c0.2,0.4,0.2,0.9,0.2,1.5c0,0.3,0,0.5-0.1,0.6
		c-0.1,0.1-0.2,0.2-0.4,0.2c-0.1,0-0.2,0-0.3-0.1s-0.2-0.2-0.3-0.3c0,0-0.1-0.1-0.1-0.2c-0.2-0.3-0.3-0.4-0.5-0.5
		c-0.2-0.1-0.5-0.2-0.8-0.2c-0.3,0-0.7-0.1-1.3-0.1c-0.6,0-1,0-1.2,0.1s-0.3,0.1-0.3,0.2c0,0.1-0.1,0.4-0.1,0.8s0,0.9,0,1.6
		c0,0.3,0.3,0.5,0.9,0.5c0.6,0,1,0,1.2-0.1c0.2-0.1,0.3-0.3,0.4-0.5c0-0.1,0-0.2,0.1-0.4c0-0.4,0.2-0.7,0.5-0.7
		c0.3,0,0.5,0.2,0.6,0.5s0.2,0.9,0.2,1.8c0,1-0.1,1.6-0.2,1.9c-0.1,0.3-0.3,0.5-0.6,0.5c-0.3,0-0.5-0.2-0.5-0.6c0-0.1,0-0.3-0.1-0.4
		c-0.1-0.3-0.2-0.4-0.4-0.5s-0.6-0.1-1.2-0.1h-0.2c-0.3,0-0.5,0-0.6,0.1c-0.1,0.1-0.1,0.3-0.1,0.6c0,1.2,0,1.9,0,2.2
		s0.1,0.5,0.1,0.6c0,0.1,0.2,0.2,0.4,0.2c0.1,0,0.1,0,0.2,0.1c0.2,0.1,0.3,0.2,0.3,0.2s0.1,0.2,0.1,0.3c0,0.3-0.1,0.5-0.5,0.6
		c-0.3,0.1-1,0.2-2,0.2c-1,0-1.7,0-2-0.2c-0.3-0.1-0.5-0.3-0.5-0.6c0-0.3,0.1-0.5,0.4-0.6c0.3-0.2,0.5-0.2,0.5-0.3
		c0.1-0.1,0.1-0.5,0.2-1.3c0-0.8,0.1-1.8,0.1-3c0-1,0-1.8-0.1-2.4c0-0.6-0.1-1-0.2-1.1c0,0-0.2-0.1-0.5-0.3s-0.4-0.4-0.4-0.6
		c0-0.3,0.1-0.5,0.4-0.6s0.9-0.1,2-0.1L30,30.3L30,30.3z M35.9,36.5v1.9c0,0.6,0,1,0,1.2s0.1,0.3,0.2,0.4c0,0,0.1,0.1,0.3,0.1
		c0.3,0.2,0.5,0.3,0.5,0.6c0,0.3-0.2,0.5-0.5,0.5s-0.9,0.2-1.7,0.2c-0.8,0-1.4,0-1.7-0.2s-0.5-0.3-0.5-0.5c0-0.2,0.2-0.4,0.5-0.6
		c0.1-0.1,0.2-0.1,0.2-0.1c0.1-0.1,0.1-0.2,0.2-0.5c0-0.2,0-0.7,0-1.4c0-1.1,0-1.8-0.1-2.1c0-0.3-0.1-0.5-0.2-0.6
		c0,0-0.2-0.1-0.4-0.2s-0.4-0.2-0.4-0.5c0-0.1,0-0.2,0.2-0.3c0.1-0.1,0.2-0.2,0.5-0.3c0.5-0.2,0.9-0.4,1.4-0.5s0.8-0.2,1.2-0.2
		c0.2,0,0.4,0,0.4,0.1s0.1,0.3,0.1,0.6c0,0,0,0.2,0,0.3C35.9,35.2,35.9,35.9,35.9,36.5z M32.8,31.4c0-0.4,0.2-0.7,0.5-0.9
		s0.7-0.4,1.2-0.4c0.4,0,0.8,0.1,1.1,0.3c0.3,0.2,0.4,0.5,0.4,0.9s-0.2,0.6-0.5,0.9c-0.3,0.2-0.7,0.4-1.2,0.4
		c-0.5,0-0.8-0.1-1.1-0.3C32.9,32,32.8,31.7,32.8,31.4z M40.8,36.4c0,1.2,0,2.1,0,2.6c0,0.5,0.1,0.8,0.1,0.9c0,0,0.2,0.1,0.4,0.3
		s0.4,0.3,0.4,0.5c0,0.3-0.2,0.5-0.5,0.5c-0.3,0.1-0.9,0.2-1.7,0.2c-0.8,0-1.4,0-1.7-0.2s-0.5-0.3-0.5-0.5c0-0.2,0.1-0.4,0.4-0.5
		s0.4-0.2,0.4-0.3c0-0.1,0.1-0.3,0.1-0.6c0-0.3,0-1.2,0-2.5v-1.7c0-1.1,0-1.9,0-2.3s-0.1-0.6-0.1-0.7c0,0-0.2-0.1-0.5-0.2
		s-0.4-0.3-0.4-0.5c0-0.1,0-0.2,0.2-0.3s0.3-0.2,0.5-0.3c0.5-0.2,0.9-0.4,1.4-0.5c0.5-0.1,0.8-0.2,1.1-0.2c0.2,0,0.3,0,0.4,0.1
		s0.1,0.3,0.1,0.6c0,0,0,0.2,0,0.4C40.8,32.9,40.8,34.6,40.8,36.4z M49.2,37.6h-3.7c-0.2,0-0.3,0-0.3,0c0,0-0.1,0.1-0.1,0.2
		c0,0.5,0.2,1,0.6,1.4c0.4,0.4,0.9,0.6,1.4,0.6c0.4,0,0.8-0.1,1.3-0.3c0.5-0.2,0.7-0.3,0.8-0.3c0.1,0,0.3,0,0.4,0.1s0.2,0.2,0.2,0.3
		c0,0.2,0,0.4-0.2,0.5c-0.1,0.2-0.3,0.3-0.5,0.5c-0.4,0.3-0.8,0.5-1.2,0.7c-0.5,0.2-1,0.2-1.5,0.2c-1.2,0-2.2-0.4-2.9-1.1
		s-1.1-1.7-1.1-2.9c0-1.2,0.4-2.2,1.2-3c0.8-0.8,1.7-1.2,2.9-1.2c1,0,1.9,0.3,2.5,0.9c0.7,0.6,1,1.3,1,2.2c0,0.5,0,0.8-0.2,0.9
		C49.7,37.5,49.5,37.6,49.2,37.6z M45.4,36.5h2c0.1,0,0.2,0,0.2-0.1s0.1-0.1,0.1-0.2c0-0.5-0.1-0.8-0.4-1.1s-0.5-0.4-0.9-0.4
		c-0.3,0-0.6,0.2-0.9,0.5c-0.2,0.3-0.4,0.7-0.4,1.1c0,0.1,0,0.1,0.1,0.2C45.2,36.5,45.2,36.5,45.4,36.5z M50.7,35.8
		c0-0.7,0.2-1.3,0.7-1.7s1.1-0.7,1.9-0.7c0.2,0,0.4,0,0.6,0s0.4,0,0.4,0c0.1,0,0.2,0,0.4-0.1s0.3-0.1,0.4-0.1s0.2,0,0.3,0.1
		c0.1,0.1,0.2,0.2,0.3,0.3c0.2,0.3,0.4,0.6,0.5,0.9c0.1,0.3,0.2,0.6,0.2,0.9c0,0.2,0,0.4-0.1,0.5s-0.2,0.2-0.4,0.2
		c-0.1,0-0.2,0-0.3-0.1s-0.2-0.2-0.4-0.4c0,0-0.1-0.1-0.2-0.2c-0.4-0.6-0.8-0.9-1.3-0.9c-0.2,0-0.3,0.1-0.5,0.2s-0.2,0.3-0.2,0.4
		c0,0.3,0.4,0.7,1.3,1.1c0.2,0.1,0.4,0.2,0.5,0.2c0.7,0.3,1.1,0.7,1.4,1s0.4,0.8,0.4,1.4c0,0.7-0.3,1.4-0.8,1.8
		c-0.6,0.5-1.3,0.7-2.2,0.7c-0.2,0-0.5,0-0.8-0.1s-0.5-0.1-0.5-0.1c-0.1,0-0.2,0-0.4,0.1s-0.3,0.1-0.4,0.1c-0.1,0-0.2,0-0.4-0.1
		c-0.1-0.1-0.2-0.2-0.3-0.3c-0.2-0.3-0.4-0.6-0.5-1s-0.2-0.6-0.2-0.9c0-0.2,0.1-0.4,0.2-0.6c0.1-0.1,0.3-0.2,0.4-0.2
		c0.2,0,0.5,0.3,0.9,0.8c0.1,0.2,0.2,0.3,0.2,0.4c0.2,0.2,0.4,0.4,0.7,0.6s0.6,0.2,0.9,0.2c0.3,0,0.5-0.1,0.7-0.2s0.2-0.3,0.2-0.5
		c0-0.4-0.5-0.8-1.6-1.3l-0.1,0c-0.9-0.4-1.5-0.8-1.8-1.2S50.7,36.3,50.7,35.8z M102.2,36.5c0,0.2,0,0.3,0,0.6v0.5
		c0,0.6,0,1.1,0,1.4s0.1,0.5,0.1,0.6c0,0,0.2,0.1,0.5,0.3s0.4,0.4,0.4,0.6c0,0.3-0.2,0.5-0.5,0.6c-0.3,0.1-1,0.2-1.9,0.2
		c-1,0-1.6-0.1-2-0.2c-0.3-0.1-0.5-0.3-0.5-0.6c0-0.3,0.2-0.5,0.4-0.6c0.3-0.2,0.5-0.2,0.5-0.3c0.1-0.1,0.1-0.5,0.2-1.3
		c0-0.8,0.1-1.8,0.1-3c0-1,0-1.8-0.1-2.4s-0.1-1-0.2-1.1c0,0-0.2-0.1-0.5-0.3s-0.4-0.4-0.4-0.6c0-0.2,0.1-0.4,0.3-0.5
		s0.5-0.2,0.9-0.2c0.3,0,0.6,0,0.9,0s0.6,0,0.7,0c0.4,0,0.9,0,1.5,0c0.6,0,1.1,0,1.4,0c1.2,0,2.2,0.2,2.8,0.7s0.9,1.2,0.9,2.2
		c0,0.7-0.2,1.3-0.6,1.8c-0.4,0.5-0.9,0.8-1.5,1l-0.1,0c0,0,0,0,0,0c0,0,0,0,0,0s0,0,0.1,0.1c0.2,0.1,0.5,0.2,0.7,0.3
		s0.4,0.2,0.5,0.4c0.1,0.1,0.2,0.2,0.3,0.4s0.2,0.3,0.2,0.5c0.1,0.2,0.2,0.6,0.3,1c0.1,0.5,0.2,0.8,0.3,0.9c0.1,0.2,0.3,0.3,0.6,0.4
		c0.1,0,0.1,0,0.2,0c0.2,0.1,0.3,0.1,0.4,0.2s0.1,0.2,0.1,0.3c0,0.3-0.2,0.5-0.5,0.7s-0.8,0.2-1.4,0.2c-0.4,0-0.7,0-1-0.1
		s-0.5-0.2-0.7-0.4c-0.3-0.3-0.6-1-0.9-1.9c-0.1-0.2-0.1-0.4-0.1-0.5c-0.3-0.8-0.5-1.4-0.8-1.6s-0.7-0.4-1.3-0.4h-0.3
		C102.3,36.5,102.2,36.5,102.2,36.5z M102.2,34.4V35c0.1,0,0.2,0,0.3,0s0.2,0,0.4,0c0.8,0,1.4-0.1,1.7-0.4s0.5-0.7,0.5-1.3
		c0-0.5-0.2-1-0.5-1.3c-0.3-0.3-0.8-0.5-1.4-0.5c-0.3,0-0.5,0-0.7,0.1c-0.1,0.1-0.2,0.2-0.3,0.3c0,0.1-0.1,0.3-0.1,0.6
		C102.2,32.9,102.2,33.5,102.2,34.4z M115.1,41v-0.4c0-0.1,0-0.1,0-0.2s0-0.1-0.1-0.1c-0.1,0-0.1,0.1-0.3,0.2s-0.2,0.2-0.3,0.3
		c-0.3,0.2-0.6,0.4-0.9,0.5c-0.3,0.1-0.7,0.2-1.1,0.2c-0.6,0-1.1-0.1-1.5-0.4s-0.7-0.6-0.9-1c-0.1-0.3-0.2-0.6-0.2-1
		s-0.1-0.9-0.1-1.6v-1.3c0-0.4,0-0.6-0.1-0.7s-0.1-0.2-0.2-0.2c-0.1,0-0.2-0.1-0.3-0.1c-0.3-0.1-0.5-0.3-0.5-0.5
		c0-0.1,0.1-0.2,0.2-0.3s0.2-0.2,0.5-0.3c0.5-0.2,0.9-0.4,1.4-0.5s0.8-0.2,1.2-0.2c0.2,0,0.4,0,0.4,0.2s0.1,0.3,0.1,0.7
		c0,0.2,0,0.7,0,1.3s0,1.2,0,1.7c0,0.9,0.1,1.5,0.3,1.8c0.2,0.4,0.5,0.5,1,0.5c0.5,0,0.9-0.2,1.2-0.7c0.2-0.5,0.3-1.3,0.3-2.4
		c0-0.4,0-0.7-0.1-0.9s-0.1-0.2-0.2-0.3c0,0-0.1-0.1-0.3-0.1c-0.4-0.1-0.6-0.3-0.6-0.5c0-0.1,0.1-0.2,0.2-0.3s0.2-0.2,0.5-0.3
		c0.5-0.2,0.9-0.4,1.4-0.5s0.8-0.2,1.2-0.2c0.2,0,0.4,0,0.4,0.2c0.1,0.1,0.1,0.3,0.1,0.6c0,0.1,0,0.5,0,1.2c0,0.8,0,1.5,0,2.1
		c0,0.7,0,1.2,0.1,1.4s0.1,0.4,0.2,0.5c0,0,0.2,0.1,0.4,0.2s0.4,0.2,0.4,0.5c0,0.1-0.1,0.2-0.2,0.3s-0.2,0.2-0.5,0.3
		c-0.5,0.2-0.9,0.4-1.4,0.5c-0.4,0.1-0.8,0.2-1.1,0.2c-0.2,0-0.3,0-0.4-0.1C115.1,41.3,115.1,41.2,115.1,41L115.1,41z M122.6,34v0.5
		c0,0.1,0,0.1,0,0.2c0,0,0,0.1,0.1,0.1c0.1,0,0.2-0.1,0.3-0.2c0.1-0.1,0.1-0.2,0.2-0.2c0.3-0.3,0.6-0.5,0.9-0.6s0.7-0.2,1.1-0.2
		c1,0,1.7,0.3,2.2,0.8c0.4,0.5,0.7,1.5,0.7,2.7v1.3c0,0.6,0,1,0,1.2s0.1,0.3,0.1,0.4c0,0,0.2,0.1,0.4,0.3s0.4,0.3,0.4,0.5
		c0,0.3-0.2,0.5-0.5,0.5s-0.9,0.2-1.7,0.2s-1.4,0-1.7-0.2s-0.5-0.3-0.5-0.5c0-0.2,0.2-0.4,0.5-0.6c0.1-0.1,0.2-0.1,0.2-0.1
		c0.1-0.1,0.1-0.2,0.2-0.4c0-0.2,0-0.6,0-1.2c0-1.3-0.1-2.1-0.3-2.5s-0.5-0.5-1-0.5c-0.5,0-0.9,0.2-1.2,0.7
		c-0.2,0.4-0.4,1.2-0.4,2.1c0,0.6,0,1,0,1.3s0.1,0.4,0.1,0.5c0,0,0.2,0.1,0.4,0.3c0.2,0.1,0.4,0.3,0.4,0.5c0,0.3-0.2,0.5-0.5,0.5
		s-0.9,0.2-1.7,0.2s-1.4,0-1.7-0.2s-0.5-0.3-0.5-0.5c0-0.2,0.2-0.4,0.5-0.6c0.1-0.1,0.2-0.1,0.2-0.1c0.1-0.1,0.1-0.2,0.2-0.5
		c0-0.2,0.1-0.8,0.1-1.7c0-1,0-1.6-0.1-1.9s-0.1-0.5-0.2-0.5c0,0-0.2-0.1-0.4-0.2c-0.3-0.1-0.4-0.2-0.4-0.5c0-0.1,0.1-0.2,0.2-0.3
		s0.2-0.2,0.5-0.3c0.4-0.2,0.9-0.4,1.4-0.5s0.8-0.2,1.2-0.2c0.2,0,0.3,0,0.4,0.1C122.5,33.7,122.6,33.8,122.6,34z M132.6,34v0.5
		c0,0.1,0,0.1,0,0.2c0,0,0,0.1,0.1,0.1c0.1,0,0.2-0.1,0.3-0.2c0.1-0.1,0.1-0.2,0.1-0.2c0.3-0.3,0.6-0.5,0.9-0.6s0.7-0.2,1.1-0.2
		c1,0,1.7,0.3,2.1,0.8c0.4,0.5,0.7,1.5,0.7,2.7v1.3c0,0.6,0,1,0,1.2s0.1,0.3,0.1,0.4c0,0,0.2,0.1,0.4,0.3s0.4,0.3,0.4,0.5
		c0,0.3-0.2,0.5-0.5,0.5s-0.9,0.2-1.7,0.2s-1.4,0-1.7-0.2c-0.3-0.1-0.5-0.3-0.5-0.5c0-0.2,0.2-0.4,0.5-0.6c0.1-0.1,0.2-0.1,0.2-0.1
		c0.1-0.1,0.1-0.2,0.2-0.4s0-0.6,0-1.2c0-1.3-0.1-2.1-0.3-2.5c-0.2-0.4-0.5-0.5-1-0.5c-0.5,0-0.9,0.2-1.2,0.7
		c-0.2,0.4-0.4,1.2-0.4,2.1c0,0.6,0,1,0,1.3s0.1,0.4,0.1,0.5c0,0,0.2,0.1,0.4,0.3c0.2,0.1,0.4,0.3,0.4,0.5c0,0.3-0.2,0.5-0.5,0.5
		s-0.9,0.2-1.7,0.2s-1.4,0-1.7-0.2s-0.5-0.3-0.5-0.5c0-0.2,0.2-0.4,0.5-0.6c0.1-0.1,0.2-0.1,0.2-0.1c0.1-0.1,0.1-0.2,0.2-0.5
		c0-0.2,0.1-0.8,0.1-1.7c0-1,0-1.6-0.1-1.9s-0.1-0.5-0.2-0.5c0,0-0.2-0.1-0.4-0.2c-0.3-0.1-0.4-0.2-0.4-0.5c0-0.1,0.1-0.2,0.1-0.3
		s0.2-0.2,0.5-0.3c0.4-0.2,0.9-0.4,1.4-0.5s0.8-0.2,1.2-0.2c0.2,0,0.3,0,0.4,0.1C132.6,33.7,132.6,33.8,132.6,34L132.6,34z
		 M142.8,36.5v1.9c0,0.6,0,1,0,1.2s0.1,0.3,0.2,0.4c0.1,0,0.1,0.1,0.3,0.1c0.3,0.2,0.5,0.3,0.5,0.6c0,0.3-0.2,0.5-0.5,0.5
		s-0.9,0.2-1.7,0.2c-0.8,0-1.4,0-1.7-0.2s-0.5-0.3-0.5-0.5c0-0.2,0.1-0.4,0.5-0.6c0.1-0.1,0.2-0.1,0.2-0.1c0.1-0.1,0.1-0.2,0.2-0.5
		c0-0.2,0-0.7,0-1.4c0-1.1,0-1.8-0.1-2.1c0-0.3-0.1-0.5-0.2-0.6c0,0-0.2-0.1-0.4-0.2s-0.4-0.2-0.4-0.5c0-0.1,0.1-0.2,0.1-0.3
		c0.1-0.1,0.2-0.2,0.5-0.3c0.5-0.2,0.9-0.4,1.4-0.5s0.8-0.2,1.2-0.2c0.2,0,0.4,0,0.4,0.1s0.1,0.3,0.1,0.6c0,0,0,0.2,0,0.3
		C142.8,35.2,142.8,35.9,142.8,36.5z M139.7,31.4c0-0.4,0.2-0.7,0.5-0.9s0.7-0.4,1.2-0.4c0.4,0,0.8,0.1,1.1,0.3
		c0.3,0.2,0.4,0.5,0.4,0.9s-0.2,0.6-0.5,0.9c-0.3,0.2-0.7,0.4-1.2,0.4c-0.5,0-0.8-0.1-1.1-0.3C139.8,32,139.7,31.7,139.7,31.4z
		 M147.7,34v0.5c0,0.1,0,0.1,0,0.2c0,0,0,0.1,0.1,0.1c0.1,0,0.2-0.1,0.3-0.2c0.1-0.1,0.1-0.2,0.1-0.2c0.3-0.3,0.6-0.5,0.9-0.6
		s0.7-0.2,1.1-0.2c1,0,1.7,0.3,2.1,0.8c0.4,0.5,0.7,1.5,0.7,2.7v1.3c0,0.6,0,1,0,1.2s0.1,0.3,0.1,0.4c0,0,0.2,0.1,0.4,0.3
		s0.4,0.3,0.4,0.5c0,0.3-0.2,0.5-0.5,0.5s-0.9,0.2-1.7,0.2s-1.4,0-1.7-0.2c-0.3-0.1-0.5-0.3-0.5-0.5c0-0.2,0.2-0.4,0.5-0.6
		c0.1-0.1,0.2-0.1,0.2-0.1c0.1-0.1,0.1-0.2,0.2-0.4s0-0.6,0-1.2c0-1.3-0.1-2.1-0.3-2.5c-0.2-0.4-0.5-0.5-1-0.5
		c-0.5,0-0.9,0.2-1.2,0.7c-0.2,0.4-0.4,1.2-0.4,2.1c0,0.6,0,1,0,1.3s0.1,0.4,0.1,0.5c0,0,0.2,0.1,0.4,0.3c0.2,0.1,0.4,0.3,0.4,0.5
		c0,0.3-0.2,0.5-0.5,0.5s-0.9,0.2-1.7,0.2s-1.4,0-1.7-0.2s-0.5-0.3-0.5-0.5c0-0.2,0.2-0.4,0.5-0.6c0.1-0.1,0.2-0.1,0.2-0.1
		c0.1-0.1,0.1-0.2,0.2-0.5c0-0.2,0.1-0.8,0.1-1.7c0-1,0-1.6-0.1-1.9s-0.1-0.5-0.2-0.5c0,0-0.2-0.1-0.4-0.2c-0.3-0.1-0.4-0.2-0.4-0.5
		c0-0.1,0.1-0.2,0.1-0.3s0.2-0.2,0.5-0.3c0.4-0.2,0.9-0.4,1.4-0.5s0.8-0.2,1.2-0.2c0.2,0,0.3,0,0.4,0.1
		C147.7,33.7,147.7,33.8,147.7,34L147.7,34z M155.3,41.1c-0.3-0.1-0.5-0.3-0.6-0.5c-0.1-0.2-0.2-0.4-0.2-0.7c0-0.3,0.1-0.6,0.3-0.8
		c0.2-0.2,0.5-0.4,0.9-0.6c-0.3-0.2-0.5-0.5-0.6-0.9c-0.2-0.4-0.2-0.8-0.2-1.2c0-0.9,0.3-1.7,0.9-2.2c0.6-0.5,1.5-0.8,2.6-0.8
		c0.4,0,0.9,0.1,1.3,0.2s0.7,0.2,0.7,0.2c0.2,0,0.5-0.1,0.8-0.2s0.6-0.3,0.8-0.5c0.1,0.1,0.2,0.2,0.3,0.3c0.1,0.1,0.1,0.2,0.1,0.4
		c0,0.2-0.1,0.5-0.2,0.7s-0.4,0.4-0.8,0.6c0.1,0.2,0.2,0.3,0.2,0.5c0.1,0.2,0.1,0.4,0.1,0.6c0,0.9-0.3,1.6-1,2.2
		c-0.7,0.6-1.6,0.9-2.6,0.9c-0.3,0-0.6,0-0.9-0.1s-0.5-0.1-0.7-0.2c-0.1,0.1-0.1,0.2-0.2,0.2c0,0.1-0.1,0.1-0.1,0.2
		c0,0.2,0.1,0.4,0.4,0.5s0.6,0.2,1.1,0.2c0.3,0,0.8,0,1.4-0.1s1-0.1,1.3-0.1c0.7,0,1.2,0.2,1.6,0.5s0.6,0.7,0.6,1.3
		c0,0.8-0.4,1.5-1.2,2.1c-0.8,0.6-1.9,0.8-3.1,0.8c-1.2,0-2.1-0.2-2.7-0.6s-1-0.9-1-1.5c0-0.3,0.1-0.5,0.2-0.8
		S154.9,41.2,155.3,41.1z M156.4,41.5c0,0.1-0.1,0.2-0.1,0.2c0,0,0,0.1,0,0.1c0,0.4,0.2,0.7,0.5,0.9c0.4,0.2,0.8,0.4,1.4,0.4
		c0.6,0,1.1-0.1,1.4-0.3s0.5-0.4,0.5-0.8c0-0.2-0.1-0.4-0.2-0.5c-0.1-0.1-0.3-0.2-0.6-0.2c-0.1,0-0.3,0-0.7,0.1s-0.8,0.1-1.1,0.1
		c-0.2,0-0.4,0-0.6,0S156.6,41.5,156.4,41.5L156.4,41.5z M158.1,37.9c0.4,0,0.7-0.1,0.9-0.4c0.2-0.3,0.3-0.6,0.3-1.1
		c0-0.5-0.1-1-0.4-1.3s-0.6-0.5-0.9-0.5c-0.3,0-0.6,0.1-0.8,0.4c-0.2,0.3-0.3,0.6-0.3,1c0,0.5,0.1,1,0.4,1.4S157.8,37.9,158.1,37.9
		L158.1,37.9z M213.7,30.6c0.1-0.1,0.2-0.1,0.3-0.2s0.2-0.1,0.3-0.1c0.3,0,0.6,0.2,0.8,0.7s0.4,1,0.4,1.6c0,0.3-0.1,0.5-0.2,0.6
		s-0.3,0.2-0.5,0.2c-0.2,0-0.5-0.2-0.8-0.5c-0.1-0.1-0.1-0.1-0.1-0.1c-0.5-0.5-1-0.9-1.4-1.1c-0.4-0.2-0.9-0.3-1.5-0.3
		c-0.9,0-1.6,0.3-2,0.9c-0.5,0.6-0.7,1.4-0.7,2.5c0,1.6,0.3,2.8,1,3.6s1.6,1.3,2.8,1.3c0.4,0,0.7-0.1,1.1-0.2
		c0.3-0.1,0.6-0.3,0.8-0.5c0.1-0.1,0.2-0.2,0.3-0.4c0.2-0.3,0.4-0.4,0.6-0.4c0.2,0,0.4,0.1,0.5,0.3c0.1,0.2,0.2,0.4,0.2,0.7
		c0,0.4-0.1,0.8-0.2,1.1s-0.4,0.5-0.6,0.5c-0.1,0-0.2,0-0.3,0s-0.2,0-0.3-0.1c-0.5,0.3-1,0.5-1.5,0.7s-1,0.2-1.6,0.2
		c-0.6,0-1.3-0.1-1.9-0.3c-0.6-0.2-1.1-0.4-1.6-0.7c-0.8-0.5-1.3-1.2-1.7-2.1s-0.6-1.8-0.6-2.9c0-0.7,0.1-1.3,0.3-1.8
		c0.2-0.6,0.5-1.1,0.8-1.6c0.5-0.7,1.2-1.2,2-1.6s1.7-0.6,2.7-0.6c0.4,0,0.9,0,1.3,0.1S213.3,30.4,213.7,30.6z M219.6,36.4
		c0,1.2,0,2.1,0,2.6c0,0.5,0.1,0.8,0.1,0.9c0,0,0.2,0.1,0.4,0.3s0.4,0.3,0.4,0.5c0,0.3-0.2,0.5-0.5,0.5c-0.3,0.1-0.9,0.2-1.7,0.2
		c-0.8,0-1.4,0-1.7-0.2s-0.5-0.3-0.5-0.5c0-0.2,0.1-0.4,0.4-0.5s0.4-0.2,0.4-0.3c0.1-0.1,0.1-0.3,0.1-0.6c0-0.3,0-1.2,0-2.5v-1.7
		c0-1.1,0-1.9,0-2.3s-0.1-0.6-0.1-0.7c0,0-0.2-0.1-0.5-0.2s-0.4-0.3-0.4-0.5c0-0.1,0.1-0.2,0.1-0.3s0.3-0.2,0.5-0.3
		c0.5-0.2,0.9-0.4,1.4-0.5c0.4-0.1,0.8-0.2,1.1-0.2c0.2,0,0.4,0,0.4,0.1s0.1,0.3,0.1,0.6c0,0,0,0.2,0,0.4
		C219.6,32.9,219.6,34.6,219.6,36.4L219.6,36.4z M227.1,41v-0.4c0-0.1,0-0.1,0-0.2s0-0.1-0.1-0.1c-0.1,0-0.1,0.1-0.3,0.2
		s-0.2,0.2-0.3,0.3c-0.3,0.2-0.6,0.4-0.9,0.5c-0.3,0.1-0.7,0.2-1.1,0.2c-0.6,0-1.1-0.1-1.5-0.4s-0.7-0.6-0.9-1
		c-0.1-0.3-0.2-0.6-0.2-1s-0.1-0.9-0.1-1.6v-1.3c0-0.4,0-0.6-0.1-0.7s-0.1-0.2-0.2-0.2c-0.1,0-0.2-0.1-0.3-0.1
		c-0.4-0.1-0.5-0.3-0.5-0.5c0-0.1,0.1-0.2,0.1-0.3c0.1-0.1,0.2-0.2,0.5-0.3c0.5-0.2,0.9-0.4,1.4-0.5s0.8-0.2,1.2-0.2
		c0.2,0,0.4,0,0.4,0.2s0.1,0.3,0.1,0.7c0,0.2,0,0.7,0,1.3s0,1.2,0,1.7c0,0.9,0.1,1.5,0.3,1.8s0.5,0.5,1,0.5c0.5,0,0.9-0.2,1.2-0.7
		c0.2-0.5,0.4-1.3,0.4-2.4c0-0.4,0-0.7-0.1-0.9s-0.1-0.2-0.2-0.3c0,0-0.1-0.1-0.3-0.1c-0.4-0.1-0.6-0.3-0.6-0.5
		c0-0.1,0.1-0.2,0.1-0.3c0.1-0.1,0.2-0.2,0.5-0.3c0.5-0.2,0.9-0.4,1.4-0.5s0.8-0.2,1.2-0.2c0.2,0,0.4,0,0.4,0.2
		c0.1,0.1,0.1,0.3,0.1,0.6c0,0.1,0,0.5,0,1.2c0,0.8,0,1.5,0,2.1c0,0.7,0,1.2,0.1,1.4s0.1,0.4,0.2,0.5c0,0,0.2,0.1,0.4,0.2
		s0.4,0.2,0.4,0.5c0,0.1-0.1,0.2-0.1,0.3s-0.2,0.2-0.5,0.3c-0.5,0.2-0.9,0.4-1.4,0.5c-0.4,0.1-0.8,0.2-1.1,0.2c-0.2,0-0.3,0-0.4-0.1
		C227.1,41.3,227.1,41.2,227.1,41L227.1,41z M231.2,35.8c0-0.7,0.2-1.3,0.7-1.7s1.1-0.7,1.9-0.7c0.2,0,0.4,0,0.6,0
		c0.2,0,0.4,0,0.4,0c0.1,0,0.2,0,0.4-0.1s0.3-0.1,0.4-0.1s0.2,0,0.3,0.1s0.2,0.2,0.3,0.3c0.2,0.3,0.4,0.6,0.5,0.9
		c0.1,0.3,0.2,0.6,0.2,0.9c0,0.2-0.1,0.4-0.1,0.5s-0.2,0.2-0.4,0.2c-0.1,0-0.2,0-0.3-0.1s-0.2-0.2-0.4-0.4c0,0-0.1-0.1-0.2-0.2
		c-0.4-0.6-0.8-0.9-1.3-0.9c-0.2,0-0.3,0.1-0.5,0.2s-0.2,0.3-0.2,0.4c0,0.3,0.4,0.7,1.3,1.1c0.2,0.1,0.4,0.2,0.5,0.2
		c0.7,0.3,1.1,0.7,1.4,1s0.4,0.8,0.4,1.4c0,0.7-0.3,1.4-0.8,1.8c-0.6,0.5-1.3,0.7-2.2,0.7c-0.2,0-0.5,0-0.8-0.1s-0.5-0.1-0.5-0.1
		c-0.1,0-0.2,0-0.4,0.1s-0.3,0.1-0.4,0.1c-0.1,0-0.2,0-0.4-0.1c-0.1-0.1-0.2-0.2-0.3-0.3c-0.2-0.3-0.4-0.6-0.5-1s-0.2-0.6-0.2-0.9
		c0-0.2,0.1-0.4,0.2-0.6c0.1-0.1,0.3-0.2,0.4-0.2c0.2,0,0.6,0.3,0.9,0.8c0.1,0.2,0.2,0.3,0.2,0.4c0.2,0.2,0.4,0.4,0.7,0.6
		s0.6,0.2,0.9,0.2c0.3,0,0.5-0.1,0.6-0.2s0.2-0.3,0.2-0.5c0-0.4-0.5-0.8-1.6-1.3l-0.1,0c-0.9-0.4-1.5-0.8-1.8-1.2
		S231.2,36.3,231.2,35.8z M239,38.8l0-4h-0.9c-0.1,0-0.2,0-0.3-0.1c0,0-0.1-0.2-0.1-0.5c0-0.2,0.2-0.5,0.5-0.8
		c0.1,0,0.1-0.1,0.2-0.1c0.1-0.1,0.3-0.2,0.5-0.4c1-0.8,1.7-1.2,2-1.2c0.2,0,0.3,0,0.4,0.1c0.1,0,0.1,0.2,0.1,0.5v1.3h1.9
		c0.2,0,0.3,0,0.3,0.1s0.1,0.1,0.1,0.3c0,0.4,0,0.6-0.1,0.7c-0.1,0.1-0.2,0.1-0.4,0.1h-1.8v3.6c0,0.6,0.1,1.1,0.2,1.3
		c0.1,0.2,0.3,0.3,0.6,0.3c0.2,0,0.4-0.1,0.7-0.2s0.5-0.2,0.6-0.2c0.1,0,0.2,0,0.3,0.1s0.1,0.2,0.1,0.3c0,0.4-0.3,0.7-0.8,1
		s-1.1,0.5-1.8,0.5c-0.9,0-1.5-0.2-1.8-0.6C239.2,40.5,239,39.8,239,38.8L239,38.8L239,38.8z M251.3,37.6h-3.7c-0.2,0-0.3,0-0.3,0
		c0,0-0.1,0.1-0.1,0.2c0,0.5,0.2,1,0.6,1.4c0.4,0.4,0.9,0.6,1.4,0.6c0.4,0,0.9-0.1,1.3-0.3c0.5-0.2,0.7-0.3,0.8-0.3
		c0.1,0,0.3,0,0.4,0.1c0.1,0.1,0.1,0.2,0.1,0.3c0,0.2-0.1,0.4-0.1,0.5c-0.1,0.2-0.3,0.3-0.5,0.5c-0.4,0.3-0.8,0.5-1.2,0.7
		c-0.5,0.2-0.9,0.2-1.5,0.2c-1.2,0-2.2-0.4-2.9-1.1c-0.7-0.7-1.1-1.7-1.1-2.9c0-1.2,0.4-2.2,1.1-3c0.8-0.8,1.7-1.2,2.9-1.2
		c1,0,1.9,0.3,2.5,0.9c0.7,0.6,1,1.3,1,2.2c0,0.5-0.1,0.8-0.1,0.9C251.7,37.5,251.5,37.6,251.3,37.6L251.3,37.6z M247.4,36.5h2
		c0.1,0,0.2,0,0.2-0.1c0,0,0.1-0.1,0.1-0.2c0-0.5-0.1-0.8-0.4-1.1s-0.6-0.4-0.9-0.4c-0.3,0-0.6,0.2-0.9,0.5
		c-0.2,0.3-0.4,0.7-0.4,1.1c0,0.1,0,0.1,0.1,0.2C247.2,36.5,247.3,36.5,247.4,36.5L247.4,36.5z M253.6,38.2c0-0.9,0-1.5-0.1-2
		s-0.1-0.7-0.3-0.8c0,0-0.2-0.1-0.4-0.2c-0.3-0.1-0.4-0.2-0.4-0.5c0-0.1,0.1-0.2,0.1-0.3c0.1-0.1,0.2-0.2,0.5-0.3
		c0.4-0.2,0.9-0.4,1.4-0.5c0.5-0.1,0.9-0.2,1.2-0.2c0.2,0,0.3,0,0.4,0.1s0.1,0.2,0.2,0.3s0.1,0.3,0.1,0.5s0,0.3,0.1,0.3
		c0.1,0,0.2-0.1,0.3-0.3c0,0,0.1-0.1,0.1-0.1c0.2-0.3,0.5-0.5,0.7-0.6s0.5-0.2,0.7-0.2c0.4,0,0.7,0.1,0.9,0.4
		c0.2,0.3,0.3,0.6,0.3,1.1c0,0.4-0.1,0.7-0.3,1s-0.5,0.4-0.8,0.4c-0.3,0-0.5-0.1-0.8-0.4s-0.5-0.4-0.6-0.4c-0.2,0-0.4,0.2-0.5,0.5
		c-0.1,0.3-0.1,1-0.1,2.1c0,0.7,0,1.2,0,1.4c0,0.2,0.1,0.3,0.1,0.4c0,0,0.2,0.1,0.5,0.2c0.3,0.1,0.4,0.3,0.4,0.5
		c0,0.3-0.2,0.5-0.5,0.5s-0.9,0.2-1.8,0.2c-0.8,0-1.4,0-1.7-0.2s-0.5-0.3-0.5-0.5c0-0.2,0.2-0.4,0.5-0.6c0.1-0.1,0.2-0.1,0.2-0.1
		c0.1,0,0.1-0.2,0.2-0.4C253.6,39.4,253.6,39,253.6,38.2L253.6,38.2z M259.5,35.8c0-0.7,0.2-1.3,0.7-1.7s1.1-0.7,1.9-0.7
		c0.2,0,0.4,0,0.6,0s0.4,0,0.4,0c0.1,0,0.2,0,0.4-0.1s0.3-0.1,0.4-0.1s0.2,0,0.3,0.1s0.2,0.2,0.3,0.3c0.2,0.3,0.4,0.6,0.5,0.9
		c0.1,0.3,0.2,0.6,0.2,0.9c0,0.2,0,0.4-0.1,0.5c-0.1,0.1-0.2,0.2-0.4,0.2c-0.1,0-0.2,0-0.3-0.1s-0.2-0.2-0.4-0.4
		c0,0-0.1-0.1-0.2-0.2c-0.4-0.6-0.8-0.9-1.3-0.9c-0.2,0-0.3,0.1-0.5,0.2S262,35,262,35.2c0,0.3,0.4,0.7,1.3,1.1
		c0.2,0.1,0.4,0.2,0.5,0.2c0.7,0.3,1.1,0.7,1.4,1c0.3,0.4,0.4,0.8,0.4,1.4c0,0.7-0.3,1.4-0.8,1.8c-0.6,0.5-1.3,0.7-2.2,0.7
		c-0.2,0-0.5,0-0.8-0.1s-0.5-0.1-0.5-0.1c-0.1,0-0.2,0-0.4,0.1s-0.3,0.1-0.4,0.1c-0.1,0-0.2,0-0.4-0.1c-0.1-0.1-0.2-0.2-0.3-0.3
		c-0.2-0.3-0.4-0.6-0.5-1s-0.2-0.6-0.2-0.9c0-0.2,0.1-0.4,0.2-0.6c0.1-0.1,0.3-0.2,0.4-0.2c0.2,0,0.5,0.3,0.9,0.8
		c0.1,0.2,0.2,0.3,0.2,0.4c0.2,0.2,0.4,0.4,0.7,0.6s0.6,0.2,0.9,0.2c0.3,0,0.5-0.1,0.6-0.2s0.2-0.3,0.2-0.5c0-0.4-0.5-0.8-1.6-1.3
		l-0.1,0c-0.9-0.4-1.5-0.8-1.8-1.2S259.5,36.3,259.5,35.8L259.5,35.8z"/>
	<path class="st1" d="M313.9,41.4c-0.8,0-1.4-0.1-1.8-0.2s-0.5-0.3-0.5-0.6c0-0.1,0-0.2,0.1-0.3c0-0.1,0.1-0.2,0.2-0.2
		c0,0,0.1-0.1,0.2-0.1c0.2-0.1,0.3-0.2,0.3-0.3c0-0.2-0.1-0.5-0.2-0.8c-0.1-0.3-0.3-0.5-0.4-0.6c-0.1,0-0.3-0.1-0.5-0.1
		s-0.7,0-1.2,0c-0.6,0-1.1,0-1.4,0s-0.4,0-0.5,0.1c-0.1,0-0.2,0.2-0.3,0.5s-0.2,0.5-0.2,0.7c0,0.1,0,0.2,0.1,0.3s0.1,0.1,0.3,0.2
		c0,0,0.1,0,0.1,0.1c0.4,0.2,0.6,0.4,0.6,0.6c0,0.3-0.2,0.5-0.5,0.6c-0.3,0.1-0.9,0.2-1.8,0.2c-0.6,0-1-0.1-1.3-0.2
		s-0.5-0.3-0.5-0.5c0-0.3,0.2-0.5,0.7-0.7c0.2-0.1,0.3-0.1,0.3-0.2c0.3-0.1,0.7-1,1.4-2.6c0.2-0.5,0.4-0.9,0.5-1.2
		c0.1-0.2,0.2-0.5,0.4-0.9c0.8-2,1.3-3.4,1.4-4.2c0-0.4,0.1-0.6,0.3-0.7s0.4-0.1,0.7-0.1c0.3,0,0.6,0,0.7,0.1s0.3,0.2,0.5,0.4
		c0.2,0.3,0.5,0.9,0.9,2s1.2,3.1,2.4,6.1l0,0.1c0.2,0.6,0.5,0.9,0.9,1c0.3,0.1,0.5,0.2,0.6,0.3c0.1,0.1,0.2,0.3,0.2,0.4
		c0,0.3-0.2,0.5-0.6,0.6S314.9,41.4,313.9,41.4L313.9,41.4z M311.3,36.8l-0.2-0.5c-0.6-1.6-0.9-2.4-1.1-2.4c-0.2,0-0.6,0.9-1.2,2.6
		l-0.1,0.4c0.3,0,0.6,0,0.7,0h1C310.7,36.8,311,36.8,311.3,36.8L311.3,36.8z M317,35.8c0-0.7,0.2-1.3,0.7-1.7s1.1-0.7,1.9-0.7
		c0.2,0,0.4,0,0.6,0s0.4,0,0.4,0c0.1,0,0.2,0,0.4-0.1s0.3-0.1,0.4-0.1s0.2,0,0.3,0.1s0.2,0.2,0.3,0.3c0.2,0.3,0.4,0.6,0.5,0.9
		c0.1,0.3,0.2,0.6,0.2,0.9c0,0.2,0,0.4-0.1,0.5c-0.1,0.1-0.2,0.2-0.4,0.2c-0.1,0-0.2,0-0.3-0.1s-0.2-0.2-0.4-0.4
		c0,0-0.1-0.1-0.2-0.2c-0.4-0.6-0.8-0.9-1.3-0.9c-0.2,0-0.3,0.1-0.5,0.2s-0.2,0.3-0.2,0.4c0,0.3,0.4,0.7,1.3,1.1
		c0.2,0.1,0.4,0.2,0.5,0.2c0.7,0.3,1.1,0.7,1.4,1c0.3,0.4,0.4,0.8,0.4,1.4c0,0.7-0.3,1.4-0.8,1.8c-0.6,0.5-1.3,0.7-2.2,0.7
		c-0.2,0-0.5,0-0.8-0.1s-0.5-0.1-0.5-0.1c-0.1,0-0.2,0-0.4,0.1s-0.3,0.1-0.4,0.1c-0.1,0-0.2,0-0.4-0.1c-0.1-0.1-0.2-0.2-0.3-0.3
		c-0.2-0.3-0.4-0.6-0.5-1s-0.2-0.6-0.2-0.9c0-0.2,0.1-0.4,0.2-0.6c0.1-0.1,0.3-0.2,0.4-0.2c0.2,0,0.5,0.3,0.9,0.8
		c0.1,0.2,0.2,0.3,0.2,0.4c0.2,0.2,0.4,0.4,0.7,0.6s0.6,0.2,0.9,0.2c0.3,0,0.5-0.1,0.6-0.2s0.2-0.3,0.2-0.5c0-0.4-0.5-0.8-1.6-1.3
		l-0.1,0c-0.9-0.4-1.5-0.8-1.8-1.2S317,36.3,317,35.8L317,35.8z M323.9,35.8c0-0.7,0.2-1.3,0.7-1.7s1.1-0.7,1.9-0.7
		c0.2,0,0.4,0,0.6,0s0.4,0,0.4,0c0.1,0,0.2,0,0.4-0.1s0.3-0.1,0.4-0.1s0.2,0,0.3,0.1s0.2,0.2,0.3,0.3c0.2,0.3,0.4,0.6,0.5,0.9
		c0.1,0.3,0.2,0.6,0.2,0.9c0,0.2,0,0.4-0.1,0.5c-0.1,0.1-0.2,0.2-0.4,0.2c-0.1,0-0.2,0-0.3-0.1s-0.2-0.2-0.4-0.4
		c0,0-0.1-0.1-0.2-0.2c-0.4-0.6-0.8-0.9-1.3-0.9c-0.2,0-0.3,0.1-0.5,0.2s-0.2,0.3-0.2,0.4c0,0.3,0.4,0.7,1.3,1.1
		c0.2,0.1,0.4,0.2,0.5,0.2c0.7,0.3,1.1,0.7,1.4,1c0.3,0.4,0.4,0.8,0.4,1.4c0,0.7-0.3,1.4-0.8,1.8c-0.6,0.5-1.3,0.7-2.2,0.7
		c-0.2,0-0.5,0-0.8-0.1s-0.5-0.1-0.5-0.1c-0.1,0-0.2,0-0.4,0.1s-0.3,0.1-0.4,0.1c-0.1,0-0.2,0-0.4-0.1c-0.1-0.1-0.2-0.2-0.3-0.3
		c-0.2-0.3-0.4-0.6-0.5-1s-0.2-0.6-0.2-0.9c0-0.2,0.1-0.4,0.2-0.6c0.1-0.1,0.3-0.2,0.4-0.2c0.2,0,0.5,0.3,0.9,0.8
		c0.1,0.2,0.2,0.3,0.2,0.4c0.2,0.2,0.4,0.4,0.7,0.6s0.6,0.2,0.9,0.2c0.3,0,0.5-0.1,0.6-0.2s0.2-0.3,0.2-0.5c0-0.4-0.5-0.8-1.6-1.3
		l-0.1,0c-0.9-0.4-1.5-0.8-1.8-1.2S323.8,36.3,323.9,35.8L323.9,35.8z M334.2,36.5v1.9c0,0.6,0,1,0,1.2s0.1,0.3,0.2,0.4
		c0,0,0.1,0.1,0.3,0.1c0.3,0.2,0.5,0.3,0.5,0.6c0,0.3-0.2,0.5-0.5,0.5s-0.9,0.2-1.7,0.2c-0.8,0-1.4,0-1.7-0.2s-0.5-0.3-0.5-0.5
		c0-0.2,0.1-0.4,0.5-0.6c0.1-0.1,0.2-0.1,0.2-0.1c0.1-0.1,0.1-0.2,0.2-0.5c0-0.2,0-0.7,0-1.4c0-1.1,0-1.8-0.1-2.1
		c0-0.3-0.1-0.5-0.2-0.6c0,0-0.2-0.1-0.4-0.2s-0.4-0.2-0.4-0.5c0-0.1,0-0.2,0.1-0.3s0.2-0.2,0.5-0.3c0.5-0.2,0.9-0.4,1.4-0.5
		s0.8-0.2,1.2-0.2c0.2,0,0.4,0,0.4,0.1s0.1,0.3,0.1,0.6c0,0,0,0.2,0,0.3C334.2,35.2,334.2,35.9,334.2,36.5L334.2,36.5z M331.1,31.4
		c0-0.4,0.2-0.7,0.5-0.9s0.7-0.4,1.2-0.4c0.4,0,0.8,0.1,1.1,0.3c0.3,0.2,0.4,0.5,0.4,0.9s-0.2,0.6-0.5,0.9c-0.3,0.2-0.7,0.4-1.2,0.4
		c-0.5,0-0.8-0.1-1.1-0.3C331.3,32,331.1,31.7,331.1,31.4z M336.7,41.1c-0.3-0.1-0.5-0.3-0.6-0.5c-0.1-0.2-0.2-0.4-0.2-0.7
		c0-0.3,0.1-0.6,0.3-0.8c0.2-0.2,0.5-0.4,0.9-0.6c-0.3-0.2-0.5-0.5-0.6-0.9c-0.2-0.4-0.2-0.8-0.2-1.2c0-0.9,0.3-1.7,1-2.2
		s1.5-0.8,2.6-0.8c0.4,0,0.9,0.1,1.3,0.2s0.7,0.2,0.7,0.2c0.2,0,0.5-0.1,0.8-0.2s0.6-0.3,0.8-0.5c0.1,0.1,0.2,0.2,0.3,0.3
		c0.1,0.1,0.1,0.2,0.1,0.4c0,0.2-0.1,0.5-0.2,0.7s-0.4,0.4-0.8,0.6c0.1,0.2,0.2,0.3,0.2,0.5c0,0.2,0.1,0.4,0.1,0.6
		c0,0.9-0.3,1.6-1,2.2c-0.7,0.6-1.5,0.9-2.6,0.9c-0.3,0-0.6,0-0.9-0.1s-0.5-0.1-0.7-0.2c-0.1,0.1-0.1,0.2-0.2,0.2c0,0.1,0,0.1,0,0.2
		c0,0.2,0.1,0.4,0.4,0.5s0.6,0.2,1.1,0.2c0.3,0,0.8,0,1.4-0.1c0.6-0.1,1-0.1,1.3-0.1c0.7,0,1.2,0.2,1.6,0.5s0.5,0.7,0.5,1.3
		c0,0.8-0.4,1.5-1.2,2.1c-0.8,0.6-1.9,0.8-3.1,0.8c-1.2,0-2.1-0.2-2.7-0.6s-1-0.9-1-1.5c0-0.3,0.1-0.5,0.2-0.8
		S336.3,41.2,336.7,41.1L336.7,41.1z M337.8,41.5c0,0.1-0.1,0.2-0.1,0.2c0,0,0,0.1,0,0.1c0,0.4,0.2,0.7,0.5,0.9
		c0.4,0.2,0.8,0.4,1.4,0.4c0.6,0,1.1-0.1,1.4-0.3s0.5-0.4,0.5-0.8c0-0.2-0.1-0.4-0.2-0.5c-0.1-0.1-0.3-0.2-0.6-0.2
		c-0.1,0-0.3,0-0.7,0.1s-0.8,0.1-1.1,0.1c-0.2,0-0.4,0-0.6,0S338,41.5,337.8,41.5L337.8,41.5z M339.5,37.9c0.4,0,0.7-0.1,0.9-0.4
		s0.3-0.6,0.3-1.1c0-0.5-0.1-1-0.4-1.3s-0.5-0.5-0.9-0.5c-0.3,0-0.6,0.1-0.8,0.4c-0.2,0.3-0.3,0.6-0.3,1c0,0.5,0.1,1,0.4,1.4
		S339.2,37.9,339.5,37.9L339.5,37.9z M347.4,34v0.5c0,0.1,0,0.1,0,0.2c0,0,0,0.1,0.1,0.1c0.1,0,0.2-0.1,0.3-0.2
		c0.1-0.1,0.1-0.2,0.1-0.2c0.3-0.3,0.5-0.5,0.9-0.6s0.7-0.2,1.1-0.2c1,0,1.7,0.3,2.1,0.8c0.4,0.5,0.7,1.5,0.7,2.7v1.3
		c0,0.6,0,1,0,1.2s0,0.3,0.1,0.4c0,0,0.2,0.1,0.4,0.3s0.4,0.3,0.4,0.5c0,0.3-0.2,0.5-0.5,0.5s-0.9,0.2-1.7,0.2s-1.4,0-1.7-0.2
		s-0.5-0.3-0.5-0.5c0-0.2,0.2-0.4,0.5-0.6c0.1-0.1,0.2-0.1,0.2-0.1c0.1-0.1,0.1-0.2,0.2-0.4s0-0.6,0-1.2c0-1.3-0.1-2.1-0.3-2.5
		s-0.5-0.5-1-0.5c-0.5,0-0.9,0.2-1.2,0.7c-0.2,0.4-0.4,1.2-0.4,2.1c0,0.6,0,1,0,1.3s0.1,0.4,0.1,0.5c0,0,0.2,0.1,0.4,0.3
		c0.2,0.1,0.4,0.3,0.4,0.5c0,0.3-0.2,0.5-0.5,0.5s-0.9,0.2-1.7,0.2s-1.4,0-1.7-0.2s-0.5-0.3-0.5-0.5c0-0.2,0.2-0.4,0.5-0.6
		c0.1-0.1,0.2-0.1,0.2-0.1c0.1-0.1,0.1-0.2,0.2-0.5c0-0.2,0-0.8,0-1.7c0-1,0-1.6-0.1-1.9s-0.1-0.5-0.2-0.5c0,0-0.2-0.1-0.4-0.2
		c-0.3-0.1-0.4-0.2-0.4-0.5c0-0.1,0-0.2,0.1-0.3s0.2-0.2,0.5-0.3c0.5-0.2,0.9-0.4,1.4-0.5c0.5-0.1,0.8-0.2,1.2-0.2
		c0.2,0,0.3,0,0.4,0.1C347.4,33.7,347.4,33.8,347.4,34z M357.4,34v0.5c0,0.1,0,0.1,0,0.2c0,0,0,0.1,0.1,0.1c0.1,0,0.2-0.1,0.3-0.3
		c0.1-0.1,0.2-0.2,0.3-0.3c0.2-0.2,0.5-0.4,0.8-0.5s0.6-0.2,1-0.2s0.7,0,1,0.2s0.6,0.3,0.9,0.5c0.1,0.1,0.2,0.2,0.4,0.4
		c0.1,0.2,0.2,0.2,0.2,0.2c0.1,0,0.2-0.1,0.3-0.2l0.1-0.1c0.3-0.3,0.7-0.6,1-0.7s0.7-0.2,1.1-0.2c0.4,0,0.8,0.1,1.1,0.2
		c0.4,0.2,0.6,0.4,0.9,0.6c0.2,0.3,0.4,0.6,0.5,1c0.1,0.4,0.1,1,0.1,1.7v1.2c0,0.6,0,1,0,1.2c0,0.2,0,0.4,0.1,0.4
		c0,0,0.2,0.1,0.4,0.3s0.4,0.3,0.4,0.5c0,0.3-0.2,0.5-0.5,0.5s-0.9,0.2-1.7,0.2s-1.4,0-1.7-0.2S364,41,364,40.7
		c0-0.2,0.2-0.4,0.5-0.6c0.1-0.1,0.2-0.1,0.2-0.1c0.1-0.1,0.1-0.2,0.2-0.4c0-0.2,0-0.6,0-1.3c0-1.2-0.1-2-0.2-2.4s-0.5-0.5-0.9-0.5
		s-0.8,0.2-1,0.6c-0.2,0.4-0.3,1.1-0.3,1.9c0,0.7,0,1.1,0,1.4s0.1,0.5,0.1,0.6c0,0,0.2,0.1,0.4,0.3s0.4,0.3,0.4,0.5
		c0,0.3-0.2,0.5-0.5,0.5s-0.9,0.2-1.7,0.2s-1.4,0-1.7-0.2S359,41,359,40.7c0-0.2,0.2-0.4,0.5-0.6c0.1-0.1,0.2-0.1,0.2-0.1
		c0.1-0.1,0.1-0.2,0.2-0.5c0-0.2,0-0.6,0-1.2c0-1.2-0.1-2-0.2-2.4c-0.2-0.4-0.5-0.5-0.9-0.5c-0.5,0-0.8,0.2-1,0.7
		c-0.2,0.4-0.3,1.1-0.3,2.1c0,0.6,0,1,0,1.3s0.1,0.4,0.1,0.5c0,0,0.2,0.1,0.4,0.3c0.2,0.1,0.4,0.3,0.4,0.5c0,0.3-0.2,0.5-0.5,0.5
		s-0.9,0.2-1.7,0.2s-1.4,0-1.7-0.2S354,41,354,40.7c0-0.2,0.2-0.4,0.5-0.6c0.1-0.1,0.2-0.1,0.2-0.1c0.1-0.1,0.1-0.2,0.2-0.5
		c0-0.2,0-0.8,0-1.7c0-1,0-1.6-0.1-1.9s-0.1-0.5-0.2-0.5c0,0-0.2-0.1-0.4-0.2c-0.3-0.1-0.4-0.2-0.4-0.5c0-0.1,0-0.2,0.1-0.3
		s0.2-0.2,0.5-0.3c0.5-0.2,0.9-0.4,1.4-0.5c0.5-0.1,0.8-0.2,1.2-0.2c0.2,0,0.3,0,0.4,0.1C357.4,33.7,357.4,33.8,357.4,34L357.4,34z
		 M375.7,37.6H372c-0.2,0-0.3,0-0.3,0c0,0-0.1,0.1-0.1,0.2c0,0.5,0.2,1,0.6,1.4c0.4,0.4,0.9,0.6,1.4,0.6c0.4,0,0.9-0.1,1.3-0.3
		s0.7-0.3,0.8-0.3c0.1,0,0.3,0,0.4,0.1s0.1,0.2,0.1,0.3c0,0.2,0,0.4-0.1,0.5c-0.1,0.2-0.3,0.3-0.5,0.5c-0.4,0.3-0.8,0.5-1.2,0.7
		c-0.5,0.2-1,0.2-1.5,0.2c-1.2,0-2.2-0.4-2.9-1.1s-1.1-1.7-1.1-2.9c0-1.2,0.4-2.2,1.1-3c0.8-0.8,1.7-1.2,2.9-1.2
		c1,0,1.9,0.3,2.5,0.9c0.7,0.6,1,1.3,1,2.2c0,0.5,0,0.8-0.1,0.9C376.2,37.5,376,37.6,375.7,37.6L375.7,37.6z M371.8,36.5h2
		c0.1,0,0.2,0,0.2-0.1s0.1-0.1,0.1-0.2c0-0.5-0.1-0.8-0.4-1.1s-0.5-0.4-0.9-0.4c-0.3,0-0.6,0.2-0.9,0.5c-0.2,0.3-0.4,0.7-0.4,1.1
		c0,0.1,0,0.1,0.1,0.2C371.6,36.5,371.7,36.5,371.8,36.5L371.8,36.5z M380.5,34v0.5c0,0.1,0,0.1,0,0.2c0,0,0,0.1,0.1,0.1
		c0.1,0,0.2-0.1,0.3-0.2c0.1-0.1,0.1-0.2,0.1-0.2c0.3-0.3,0.5-0.5,0.9-0.6s0.7-0.2,1.1-0.2c1,0,1.7,0.3,2.1,0.8
		c0.4,0.5,0.7,1.5,0.7,2.7v1.3c0,0.6,0,1,0,1.2s0,0.3,0.1,0.4c0,0,0.2,0.1,0.4,0.3s0.4,0.3,0.4,0.5c0,0.3-0.2,0.5-0.5,0.5
		s-0.9,0.2-1.7,0.2s-1.4,0-1.7-0.2s-0.5-0.3-0.5-0.5c0-0.2,0.2-0.4,0.5-0.6c0.1-0.1,0.2-0.1,0.2-0.1c0.1-0.1,0.1-0.2,0.2-0.4
		s0-0.6,0-1.2c0-1.3-0.1-2.1-0.3-2.5s-0.5-0.5-1-0.5c-0.5,0-0.9,0.2-1.2,0.7c-0.2,0.4-0.4,1.2-0.4,2.1c0,0.6,0,1,0,1.3
		s0.1,0.4,0.1,0.5c0,0,0.2,0.1,0.4,0.3c0.2,0.1,0.4,0.3,0.4,0.5c0,0.3-0.2,0.5-0.5,0.5s-0.9,0.2-1.7,0.2s-1.4,0-1.7-0.2
		S377,41,377,40.7c0-0.2,0.2-0.4,0.5-0.6c0.1-0.1,0.2-0.1,0.2-0.1c0.1-0.1,0.1-0.2,0.2-0.5c0-0.2,0-0.8,0-1.7c0-1,0-1.6-0.1-1.9
		s-0.1-0.5-0.2-0.5c0,0-0.2-0.1-0.4-0.2c-0.3-0.1-0.4-0.2-0.4-0.5c0-0.1,0-0.2,0.1-0.3s0.2-0.2,0.5-0.3c0.5-0.2,0.9-0.4,1.4-0.5
		c0.5-0.1,0.8-0.2,1.2-0.2c0.2,0,0.3,0,0.4,0.1C380.4,33.7,380.5,33.8,380.5,34z M388,38.8l0-4h-0.9c-0.1,0-0.2,0-0.3-0.1
		c0,0-0.1-0.2-0.1-0.5c0-0.2,0.2-0.5,0.5-0.8c0.1,0,0.1-0.1,0.2-0.1c0.1-0.1,0.3-0.2,0.5-0.4c1-0.8,1.7-1.2,2-1.2
		c0.2,0,0.3,0,0.4,0.1s0.1,0.2,0.1,0.5v1.3h1.9c0.2,0,0.3,0,0.3,0.1s0.1,0.1,0.1,0.3c0,0.4,0,0.6-0.1,0.7c0,0.1-0.2,0.1-0.4,0.1
		h-1.8v3.6c0,0.6,0.1,1.1,0.2,1.3c0.1,0.2,0.3,0.3,0.6,0.3c0.2,0,0.4-0.1,0.7-0.2s0.5-0.2,0.6-0.2c0.1,0,0.2,0,0.3,0.1
		s0.1,0.2,0.1,0.3c0,0.4-0.3,0.7-0.8,1s-1.1,0.5-1.8,0.5c-0.9,0-1.5-0.2-1.8-0.6C388.2,40.5,388,39.8,388,38.8L388,38.8L388,38.8z
		 M393.5,35.8c0-0.7,0.2-1.3,0.7-1.7s1.1-0.7,1.9-0.7c0.2,0,0.4,0,0.6,0s0.4,0,0.4,0c0.1,0,0.2,0,0.4-0.1s0.3-0.1,0.4-0.1
		s0.2,0,0.3,0.1s0.2,0.2,0.3,0.3c0.2,0.3,0.4,0.6,0.5,0.9c0.1,0.3,0.2,0.6,0.2,0.9c0,0.2,0,0.4-0.1,0.5c-0.1,0.1-0.2,0.2-0.4,0.2
		c-0.1,0-0.2,0-0.3-0.1s-0.2-0.2-0.4-0.4c0,0-0.1-0.1-0.2-0.2c-0.4-0.6-0.8-0.9-1.3-0.9c-0.2,0-0.3,0.1-0.5,0.2S396,35,396,35.2
		c0,0.3,0.4,0.7,1.3,1.1c0.2,0.1,0.4,0.2,0.5,0.2c0.7,0.3,1.1,0.7,1.4,1c0.3,0.4,0.4,0.8,0.4,1.4c0,0.7-0.3,1.4-0.8,1.8
		c-0.6,0.5-1.3,0.7-2.2,0.7c-0.2,0-0.5,0-0.8-0.1s-0.5-0.1-0.5-0.1c-0.1,0-0.2,0-0.4,0.1s-0.3,0.1-0.4,0.1c-0.1,0-0.2,0-0.4-0.1
		c-0.1-0.1-0.2-0.2-0.3-0.3c-0.2-0.3-0.4-0.6-0.5-1s-0.2-0.6-0.2-0.9c0-0.2,0.1-0.4,0.2-0.6c0.1-0.1,0.3-0.2,0.4-0.2
		c0.2,0,0.5,0.3,0.9,0.8c0.1,0.2,0.2,0.3,0.2,0.4c0.2,0.2,0.4,0.4,0.7,0.6s0.6,0.2,0.9,0.2c0.3,0,0.5-0.1,0.6-0.2s0.2-0.3,0.2-0.5
		c0-0.4-0.5-0.8-1.6-1.3l-0.1,0c-0.9-0.4-1.5-0.8-1.8-1.2S393.5,36.3,393.5,35.8L393.5,35.8z"/>
	<path class="st2" d="M127.9,164.6H19.2c-1.7,0-3-1.3-3-3v-11.1c0-1.7,1.3-3,3-3h108.7c1.7,0,3,1.3,3,3v11.1
		C130.9,163.2,129.5,164.6,127.9,164.6z M127.9,196.9H19.2c-1.7,0-3-1.3-3-3v-11.1c0-1.7,1.3-3,3-3h108.7c1.7,0,3,1.3,3,3v11.1
		C130.9,195.5,129.5,196.9,127.9,196.9z"/>
	<path class="st1" d="M644.9,164.6H536.2c-1.7,0-3-1.3-3-3v-11.1c0-1.7,1.3-3,3-3h108.7c1.7,0,3,1.3,3,3v11.1
		C647.9,163.2,646.5,164.6,644.9,164.6z M644.9,196.9H536.2c-1.7,0-3-1.3-3-3v-11.1c0-1.7,1.3-3,3-3h108.7c1.7,0,3,1.3,3,3v11.1
		C647.9,195.5,646.5,196.9,644.9,196.9z"/>
	<path class="st2" d="M386.4,164.6H277.7c-1.7,0-3-1.3-3-3v-11.1c0-1.7,1.3-3,3-3h108.7c1.7,0,3,1.3,3,3v11.1
		C389.4,163.2,388,164.6,386.4,164.6z M386.4,196.9H277.7c-1.7,0-3-1.3-3-3v-11.1c0-1.7,1.3-3,3-3h108.7c1.7,0,3,1.3,3,3v11.1
		C389.4,195.5,388,196.9,386.4,196.9z M127.9,269.6H19.2c-1.7,0-3-1.3-3-3v-11.1c0-1.7,1.3-3,3-3h108.7c1.7,0,3,1.3,3,3v11.1
		C130.9,268.2,129.5,269.6,127.9,269.6z M224.9,374.6H19.2c-1.7,0-3-1.3-3-3v-11.1c0-1.7,1.3-3,3-3h205.7c1.7,0,3,1.3,3,3v11.1
		C227.9,373.2,226.5,374.6,224.9,374.6z M386.4,269.6H277.7c-1.7,0-3-1.3-3-3v-11.1c0-1.7,1.3-3,3-3h108.7c1.7,0,3,1.3,3,3v11.1
		C389.4,268.2,388,269.6,386.4,269.6z M127.9,301.8H19.2c-1.7,0-3-1.3-3-3v-11.1c0-1.7,1.3-3,3-3h108.7c1.7,0,3,1.3,3,3v11.1
		C130.9,300.5,129.5,301.8,127.9,301.8z"/>
	<path class="st1" d="M644.9,269.6H536.2c-1.7,0-3-1.3-3-3v-11.1c0-1.7,1.3-3,3-3h108.7c1.7,0,3,1.3,3,3v11.1
		C647.9,268.2,646.5,269.6,644.9,269.6z"/>
	<path class="st2" d="M644.9,301.8H536.2c-1.7,0-3-1.3-3-3v-11.1c0-1.7,1.3-3,3-3h108.7c1.7,0,3,1.3,3,3v11.1
		C647.9,300.5,646.5,301.8,644.9,301.8z M414.9,88.2h-90.6c-1.7,0-3-1.3-3-3V74.2c0-1.7,1.3-3,3-3h90.6c1.7,0,3,1.3,3,3v11.1
		C417.9,86.9,416.6,88.2,414.9,88.2z"/>
	<text transform="matrix(1 0 0 1 403.769 86.145)" class="st1 st3 st4"></text>
	<g>
		<path d="M20.5,80.2l1.8,2.5h-0.9l-1.7-2.5h-1.8v2.5H17v-6.9h2.8c1.4,0,2.5,0.9,2.5,2.2C22.3,79.1,21.5,79.9,20.5,80.2z M17.8,79.5
			h1.9c1.1,0,1.9-0.5,1.9-1.5s-0.8-1.5-1.9-1.5h-1.9V79.5z M27.4,81.5l0.5,0.5c-0.5,0.5-1.4,0.8-2.1,0.8c-1.4,0-2.6-1.1-2.6-2.7
			c0-1.5,1.2-2.7,2.5-2.7c1.6,0,2.5,1.2,2.5,3H24c0.1,1,0.8,1.8,1.8,1.8C26.4,82.2,27.1,81.9,27.4,81.5z M24,79.7h3.5
			c-0.1-0.9-0.6-1.7-1.7-1.7C24.9,78.1,24.1,78.7,24,79.7z M29.4,75.7h0.8v7h-0.8V75.7z M35.7,81.5l0.5,0.5
			c-0.5,0.5-1.4,0.8-2.1,0.8c-1.4,0-2.6-1.1-2.6-2.7c0-1.5,1.2-2.7,2.5-2.7c1.6,0,2.5,1.2,2.5,3h-4.2c0.1,1,0.8,1.8,1.8,1.8
			C34.6,82.2,35.3,81.9,35.7,81.5z M32.2,79.7h3.5c-0.1-0.9-0.7-1.7-1.7-1.7C33.1,78.1,32.3,78.7,32.2,79.7z M41.8,79.6v3.2h-0.8
			v-0.8c-0.4,0.6-1.1,0.9-1.8,0.9c-1.1,0-1.9-0.6-1.9-1.7c0-1,0.9-1.7,2-1.7c0.6,0,1.2,0.1,1.7,0.3v-0.2c0-0.7-0.3-1.5-1.4-1.5
			c-0.5,0-1,0.2-1.5,0.5l-0.3-0.6c0.7-0.4,1.4-0.5,1.9-0.5C41.2,77.4,41.8,78.3,41.8,79.6z M41.1,81.1v-0.8c-0.5-0.1-1-0.2-1.6-0.2
			c-0.8,0-1.4,0.4-1.4,1.1c0,0.6,0.6,1,1.3,1C40.1,82.2,40.9,81.8,41.1,81.1z M43.1,82.1l0.4-0.6c0.6,0.4,1.2,0.7,1.8,0.7
			c0.7,0,1.1-0.3,1.1-0.8c0-0.6-0.6-0.7-1.3-0.9c-1.2-0.4-1.7-0.7-1.7-1.5c0-0.9,0.8-1.5,1.8-1.5c0.6,0,1.3,0.2,1.8,0.6l-0.4,0.6
			c-0.5-0.3-1-0.5-1.5-0.5c-0.6,0-1.1,0.3-1.1,0.8c0,0.4,0.4,0.6,1.3,0.9c0.8,0.3,1.7,0.5,1.7,1.5c0,0.9-0.8,1.6-1.9,1.6
			C44.5,82.8,43.7,82.6,43.1,82.1z M52.3,81.5l0.5,0.5c-0.5,0.5-1.4,0.8-2.1,0.8c-1.4,0-2.6-1.1-2.6-2.7c0-1.5,1.2-2.7,2.5-2.7
			c1.6,0,2.5,1.2,2.5,3h-4.2c0.1,1,0.8,1.8,1.8,1.8C51.3,82.2,52,81.9,52.3,81.5z M48.8,79.7h3.5c-0.1-0.9-0.7-1.7-1.7-1.7
			C49.7,78.1,49,78.7,48.8,79.7z M59.1,75.7v7h-0.8v-1c-0.4,0.7-1,1.1-1.9,1.1c-1.4,0-2.4-1.1-2.4-2.7c0-1.6,1-2.7,2.4-2.7
			c0.8,0,1.5,0.4,1.9,1.1v-2.8C58.3,75.7,59.1,75.7,59.1,75.7z M58.3,80.1c0-1.2-0.7-2-1.7-2c-1,0-1.7,0.8-1.7,2s0.7,2,1.7,2
			C57.6,82.2,58.3,81.3,58.3,80.1z M60.7,83.8c0.3-0.3,0.4-0.6,0.5-0.9c-0.3,0-0.5-0.2-0.5-0.6c0-0.3,0.2-0.5,0.5-0.5
			c0.4,0,0.6,0.3,0.6,0.8c0,0.4-0.2,0.7-0.8,1.5L60.7,83.8z M71,75.7v7h-0.8v-1c-0.4,0.7-1.1,1.1-1.9,1.1c-1.4,0-2.4-1.1-2.4-2.7
			c0-1.6,1-2.7,2.4-2.7c0.8,0,1.5,0.4,1.9,1.1v-2.8C70.2,75.7,71,75.7,71,75.7z M70.2,80.1c0-1.2-0.7-2-1.7-2c-1,0-1.7,0.8-1.7,2
			s0.7,2,1.7,2C69.5,82.2,70.2,81.3,70.2,80.1z M72.3,80.1c0-1.5,1.2-2.7,2.7-2.7s2.7,1.2,2.7,2.7c0,1.5-1.2,2.7-2.7,2.7
			S72.3,81.6,72.3,80.1z M76.9,80.1c0-1.1-0.9-2-1.9-2c-1,0-1.9,0.9-1.9,2c0,1.1,0.9,2,1.9,2C76,82.2,76.9,81.2,76.9,80.1z
			 M78.3,77.6h0.8l1.3,4.2l1.4-4.2h0.7l1.4,4.2l1.3-4.2h0.8l-1.7,5.2h-0.7l-1.4-4.1l-1.4,4.1H80L78.3,77.6L78.3,77.6z M91.4,79.4
			v3.3h-0.8v-3.2c0-0.8-0.5-1.4-1.3-1.4c-0.9,0-1.6,0.6-1.6,1.3v3.3H87v-5.2h0.8v0.8c0.3-0.6,1-0.9,1.7-0.9
			C90.6,77.4,91.4,78.3,91.4,79.4z M92.9,75.7h0.8v7h-0.8V75.7z M94.9,80.1c0-1.5,1.2-2.7,2.7-2.7s2.7,1.2,2.7,2.7
			c0,1.5-1.2,2.7-2.7,2.7S94.9,81.6,94.9,80.1z M99.5,80.1c0-1.1-0.9-2-1.9-2c-1,0-1.9,0.9-1.9,2c0,1.1,0.9,2,1.9,2
			C98.6,82.2,99.5,81.2,99.5,80.1z M105.7,79.6v3.2H105v-0.8c-0.4,0.6-1.1,0.9-1.8,0.9c-1.1,0-1.9-0.6-1.9-1.7c0-1,0.9-1.7,2-1.7
			c0.6,0,1.2,0.1,1.7,0.3v-0.2c0-0.7-0.3-1.5-1.4-1.5c-0.5,0-1,0.2-1.5,0.5l-0.3-0.6c0.7-0.4,1.4-0.5,1.9-0.5
			C105,77.4,105.7,78.3,105.7,79.6z M105,81.1v-0.8c-0.5-0.1-1-0.2-1.6-0.2c-0.8,0-1.4,0.4-1.4,1.1c0,0.6,0.6,1,1.3,1
			C104,82.2,104.8,81.8,105,81.1z M112,75.7v7h-0.8v-1c-0.4,0.7-1.1,1.1-1.9,1.1c-1.4,0-2.4-1.1-2.4-2.7c0-1.6,1-2.7,2.4-2.7
			c0.8,0,1.5,0.4,1.9,1.1v-2.8C111.3,75.7,112,75.7,112,75.7z M111.3,80.1c0-1.2-0.7-2-1.7-2c-1,0-1.7,0.8-1.7,2s0.7,2,1.7,2
			C110.6,82.2,111.3,81.3,111.3,80.1z M117.6,81.5L118,82c-0.4,0.5-1.4,0.8-2.1,0.8c-1.4,0-2.6-1.1-2.6-2.7c0-1.5,1.2-2.7,2.6-2.7
			c1.6,0,2.4,1.2,2.4,3h-4.2c0.1,1,0.8,1.8,1.8,1.8C116.6,82.2,117.3,81.9,117.6,81.5L117.6,81.5z M114.1,79.7h3.5
			c-0.1-0.9-0.7-1.7-1.7-1.7C115,78.1,114.3,78.7,114.1,79.7z M124.4,75.7v7h-0.8v-1c-0.4,0.7-1.1,1.1-1.9,1.1
			c-1.4,0-2.4-1.1-2.4-2.7c0-1.6,1-2.7,2.4-2.7c0.8,0,1.5,0.4,1.9,1.1v-2.8C123.6,75.7,124.4,75.7,124.4,75.7z M123.6,80.1
			c0-1.2-0.7-2-1.7-2c-1,0-1.7,0.8-1.7,2s0.7,2,1.7,2C122.9,82.2,123.6,81.3,123.6,80.1z M126,83.8c0.3-0.3,0.4-0.6,0.5-0.9
			c-0.3,0-0.5-0.2-0.5-0.6c0-0.3,0.2-0.5,0.6-0.5c0.4,0,0.6,0.3,0.6,0.8c0,0.4-0.2,0.7-0.8,1.5L126,83.8z M135.7,79.6v3.2h-0.8v-0.8
			c-0.4,0.6-1.1,0.9-1.8,0.9c-1.1,0-1.9-0.6-1.9-1.7c0-1,0.9-1.7,2-1.7c0.6,0,1.1,0.1,1.7,0.3v-0.2c0-0.7-0.3-1.5-1.4-1.5
			c-0.5,0-1,0.2-1.5,0.5l-0.3-0.6c0.7-0.4,1.4-0.5,1.9-0.5C135,77.4,135.7,78.3,135.7,79.6z M134.9,81.1v-0.8
			c-0.5-0.1-1-0.2-1.6-0.2c-0.8,0-1.4,0.4-1.4,1.1c0,0.6,0.6,1,1.3,1C133.9,82.2,134.8,81.8,134.9,81.1z M141.6,79.4v3.3h-0.8v-3.2
			c0-0.8-0.5-1.4-1.3-1.4c-0.9,0-1.6,0.6-1.6,1.3v3.3h-0.8v-5.2h0.8v0.8c0.3-0.6,1-0.9,1.7-0.9C140.8,77.4,141.6,78.3,141.6,79.4
			L141.6,79.4z M147.9,75.7v7h-0.8v-1c-0.4,0.7-1.1,1.1-1.9,1.1c-1.4,0-2.4-1.1-2.4-2.7c0-1.6,1-2.7,2.4-2.7c0.8,0,1.5,0.4,1.9,1.1
			v-2.8C147.2,75.7,147.9,75.7,147.9,75.7z M147.2,80.1c0-1.2-0.7-2-1.7-2c-1,0-1.7,0.8-1.7,2s0.7,2,1.7,2
			C146.5,82.2,147.2,81.3,147.2,80.1z M152.1,82.1l0.4-0.6c0.6,0.4,1.2,0.7,1.8,0.7c0.7,0,1.1-0.3,1.1-0.8c0-0.6-0.6-0.7-1.3-0.9
			c-1.2-0.4-1.7-0.7-1.7-1.5c0-0.9,0.8-1.5,1.8-1.5c0.6,0,1.3,0.2,1.9,0.6l-0.4,0.6c-0.5-0.3-1-0.5-1.5-0.5c-0.6,0-1.1,0.3-1.1,0.8
			c0,0.4,0.4,0.6,1.3,0.9c0.8,0.3,1.7,0.5,1.7,1.5c0,0.9-0.8,1.6-1.9,1.6C153.6,82.8,152.8,82.6,152.1,82.1z M161.8,77.6v5.2H161
			v-0.8c-0.3,0.6-1,0.9-1.7,0.9c-1.1,0-1.9-0.8-1.9-2v-3.3h0.8v3.2c0,0.8,0.5,1.4,1.3,1.4c0.9,0,1.6-0.6,1.6-1.3v-3.3
			C161,77.5,161.8,77.5,161.8,77.6z M168.4,80.1c0,1.6-1,2.7-2.4,2.7c-0.8,0-1.5-0.4-1.9-1.1v1h-0.8v-7h0.8v2.8
			c0.4-0.7,1.1-1.1,1.9-1.1C167.4,77.4,168.4,78.5,168.4,80.1z M167.6,80.1c0-1.2-0.7-2-1.7-2c-1,0-1.7,0.8-1.7,2s0.7,2,1.7,2
			C166.9,82.2,167.6,81.3,167.6,80.1z M177.1,79.4v3.3h-0.8v-3.2c0-0.8-0.5-1.4-1.2-1.4c-0.8,0-1.4,0.6-1.4,1.3v3.3H173v-3.2
			c0-0.8-0.5-1.4-1.2-1.4c-0.8,0-1.4,0.6-1.4,1.3v3.3h-0.8v-5.2h0.8v0.8c0.3-0.5,0.8-0.9,1.5-0.9c0.8,0,1.4,0.4,1.7,1.1
			c0.2-0.7,0.9-1.1,1.7-1.1C176.4,77.4,177.1,78.3,177.1,79.4z M178.5,76.1c0-0.3,0.2-0.5,0.5-0.5c0.3,0,0.5,0.2,0.5,0.5
			c0,0.3-0.2,0.5-0.5,0.5C178.7,76.6,178.5,76.4,178.5,76.1z M178.6,77.6h0.8v5.2h-0.8V77.6z M183.5,82.5c-0.3,0.2-0.6,0.3-1,0.3
			c-0.7,0-1.3-0.6-1.3-1.3v-3.3h-0.8v-0.7h0.8v-1.4h0.8v1.4h1.3v0.7h-1.3v3.3c0,0.4,0.3,0.7,0.6,0.7c0.2,0,0.4-0.1,0.5-0.2
			L183.5,82.5L183.5,82.5z M187.2,82.5c-0.3,0.2-0.6,0.3-1,0.3c-0.7,0-1.3-0.6-1.3-1.3v-3.3h-0.8v-0.7h0.8v-1.4h0.8v1.4h1.3v0.7
			h-1.3v3.3c0,0.4,0.3,0.7,0.6,0.7c0.2,0,0.4-0.1,0.5-0.2L187.2,82.5L187.2,82.5z M192.2,81.5l0.5,0.5c-0.4,0.5-1.4,0.8-2.1,0.8
			c-1.4,0-2.6-1.1-2.6-2.7c0-1.5,1.2-2.7,2.6-2.7c1.6,0,2.4,1.2,2.4,3h-4.2c0.1,1,0.8,1.8,1.8,1.8C191.2,82.2,191.9,81.9,192.2,81.5
			L192.2,81.5z M188.8,79.7h3.5c-0.1-0.9-0.6-1.7-1.7-1.7C189.7,78.1,188.9,78.7,188.8,79.7z M199,75.7v7h-0.8v-1
			c-0.4,0.7-1.1,1.1-1.9,1.1c-1.4,0-2.4-1.1-2.4-2.7c0-1.6,1-2.7,2.4-2.7c0.8,0,1.5,0.4,1.9,1.1v-2.8C198.3,75.7,199,75.7,199,75.7z
			 M198.3,80.1c0-1.2-0.7-2-1.7-2c-1,0-1.7,0.8-1.7,2s0.7,2,1.7,2C197.6,82.2,198.3,81.3,198.3,80.1z M207.7,79.6v3.2H207v-0.8
			c-0.4,0.6-1.1,0.9-1.8,0.9c-1.1,0-1.9-0.6-1.9-1.7c0-1,0.9-1.7,2-1.7c0.6,0,1.1,0.1,1.7,0.3v-0.2c0-0.7-0.3-1.5-1.4-1.5
			c-0.5,0-1,0.2-1.5,0.5l-0.3-0.6c0.7-0.4,1.4-0.5,1.9-0.5C207,77.4,207.7,78.3,207.7,79.6z M207,81.1v-0.8c-0.5-0.1-1-0.2-1.6-0.2
			c-0.8,0-1.4,0.4-1.4,1.1c0,0.6,0.6,1,1.3,1C206,82.2,206.8,81.8,207,81.1z M208.9,82.1l0.4-0.6c0.6,0.4,1.2,0.7,1.8,0.7
			c0.7,0,1.1-0.3,1.1-0.8c0-0.6-0.6-0.7-1.3-0.9c-1.2-0.4-1.7-0.7-1.7-1.5c0-0.9,0.8-1.5,1.8-1.5c0.6,0,1.3,0.2,1.9,0.6l-0.4,0.6
			c-0.5-0.3-1-0.5-1.5-0.5c-0.6,0-1.1,0.3-1.1,0.8c0,0.4,0.4,0.6,1.3,0.9c0.8,0.3,1.7,0.5,1.7,1.5c0,0.9-0.8,1.6-1.9,1.6
			C210.4,82.8,209.6,82.6,208.9,82.1z M213.9,82.1l0.4-0.6c0.6,0.4,1.2,0.7,1.8,0.7c0.7,0,1.1-0.3,1.1-0.8c0-0.6-0.6-0.7-1.3-0.9
			c-1.2-0.4-1.7-0.7-1.7-1.5c0-0.9,0.8-1.5,1.8-1.5c0.6,0,1.3,0.2,1.9,0.6l-0.4,0.6c-0.5-0.3-1-0.5-1.5-0.5c-0.6,0-1.1,0.3-1.1,0.8
			c0,0.4,0.4,0.6,1.3,0.9c0.8,0.3,1.7,0.5,1.7,1.5c0,0.9-0.8,1.6-1.9,1.6C215.3,82.8,214.5,82.6,213.9,82.1z M219,76.1
			c0-0.3,0.2-0.5,0.5-0.5c0.3,0,0.5,0.2,0.5,0.5c0,0.3-0.2,0.5-0.5,0.5C219.3,76.6,219,76.4,219,76.1z M219.2,77.6h0.8v5.2h-0.8
			V77.6z M226.2,77.6v4.6c0,1.3-1.1,2.3-2.5,2.3c-0.8,0-1.6-0.3-2.1-0.7l0.3-0.6c0.4,0.4,1,0.6,1.7,0.6c1.2,0,1.9-0.6,1.9-1.6v-0.8
			c-0.4,0.6-1.1,1-1.9,1c-1.4,0-2.4-1-2.4-2.5s1-2.4,2.4-2.4c0.8,0,1.5,0.4,1.9,1v-0.9L226.2,77.6L226.2,77.6z M225.4,79.9
			c0-1-0.7-1.8-1.7-1.8c-1,0-1.7,0.7-1.7,1.8c0,1.1,0.7,1.8,1.7,1.8C224.7,81.7,225.4,80.9,225.4,79.9z M235.2,79.4v3.3h-0.8v-3.2
			c0-0.8-0.5-1.4-1.2-1.4c-0.8,0-1.4,0.6-1.4,1.3v3.3h-0.8v-3.2c0-0.8-0.5-1.4-1.2-1.4c-0.8,0-1.4,0.6-1.4,1.3v3.3h-0.8v-5.2h0.8
			v0.8c0.3-0.5,0.8-0.9,1.5-0.9c0.8,0,1.4,0.4,1.7,1.1c0.2-0.7,0.9-1.1,1.7-1.1C234.5,77.4,235.2,78.3,235.2,79.4z M240.7,81.5
			l0.5,0.5c-0.4,0.5-1.4,0.8-2.1,0.8c-1.4,0-2.6-1.1-2.6-2.7c0-1.5,1.2-2.7,2.6-2.7c1.6,0,2.4,1.2,2.4,3h-4.2c0.1,1,0.8,1.8,1.8,1.8
			C239.7,82.2,240.4,81.9,240.7,81.5L240.7,81.5z M237.2,79.7h3.5c-0.1-0.9-0.6-1.7-1.7-1.7C238.1,78.1,237.4,78.7,237.2,79.7z
			 M247.1,79.4v3.3h-0.8v-3.2c0-0.8-0.5-1.4-1.3-1.4c-0.9,0-1.6,0.6-1.6,1.3v3.3h-0.8v-5.2h0.8v0.8c0.3-0.6,1-0.9,1.7-0.9
			C246.3,77.4,247.1,78.3,247.1,79.4z M251.2,82.5c-0.3,0.2-0.6,0.3-1,0.3c-0.7,0-1.3-0.6-1.3-1.3v-3.3h-0.8v-0.7h0.8v-1.4h0.8v1.4
			h1.3v0.7h-1.3v3.3c0,0.4,0.3,0.7,0.6,0.7c0.2,0,0.4-0.1,0.5-0.2L251.2,82.5L251.2,82.5z M252,82.1l0.4-0.6
			c0.6,0.4,1.2,0.7,1.8,0.7c0.7,0,1.1-0.3,1.1-0.8c0-0.6-0.6-0.7-1.3-0.9c-1.2-0.4-1.7-0.7-1.7-1.5c0-0.9,0.8-1.5,1.8-1.5
			c0.6,0,1.3,0.2,1.9,0.6l-0.4,0.6c-0.5-0.3-1-0.5-1.5-0.5c-0.6,0-1.1,0.3-1.1,0.8c0,0.4,0.4,0.6,1.3,0.9c0.8,0.3,1.7,0.5,1.7,1.5
			c0,0.9-0.8,1.6-1.9,1.6C253.4,82.8,252.6,82.6,252,82.1L252,82.1z M261.3,77.6h1.3v0.7h-1.3v4.5h-0.8v-4.5h-0.8v-0.7h0.8v-0.7
			c0-0.8,0.5-1.3,1.3-1.3c0.4,0,0.7,0.1,1,0.3l-0.4,0.6c-0.1-0.1-0.3-0.2-0.5-0.2c-0.3,0-0.6,0.3-0.6,0.7
			C261.3,76.8,261.3,77.6,261.3,77.6z M263.4,80.1c0-1.5,1.2-2.7,2.7-2.7s2.7,1.2,2.7,2.7c0,1.5-1.2,2.7-2.7,2.7
			S263.4,81.6,263.4,80.1z M268,80.1c0-1.1-0.9-2-1.9-2c-1,0-1.9,0.9-1.9,2c0,1.1,0.9,2,1.9,2C267.1,82.2,268,81.2,268,80.1z
			 M272.8,77.4v0.7c-1.2,0-2,0.7-2,1.7v2.9H270v-5.2h0.8v1C271.1,77.9,271.8,77.4,272.8,77.4z M276.5,80.1c0-1.5,1.2-2.7,2.7-2.7
			c0.7,0,1.4,0.3,1.8,0.8l-0.5,0.5c-0.3-0.4-0.8-0.6-1.3-0.6c-1,0-1.9,0.9-1.9,2c0,1.1,0.9,2,1.9,2c0.5,0,1-0.2,1.4-0.6L281,82
			c-0.5,0.5-1.1,0.8-1.9,0.8C277.7,82.8,276.5,81.6,276.5,80.1L276.5,80.1z M281.8,80.1c0-1.5,1.2-2.7,2.7-2.7s2.7,1.2,2.7,2.7
			c0,1.5-1.2,2.7-2.7,2.7S281.8,81.6,281.8,80.1z M286.3,80.1c0-1.1-0.9-2-1.9-2c-1,0-1.9,0.9-1.9,2c0,1.1,0.9,2,1.9,2
			C285.5,82.2,286.3,81.2,286.3,80.1z M292.8,77.6v5.2H292v-0.8c-0.3,0.6-1,0.9-1.7,0.9c-1.1,0-1.9-0.8-1.9-2v-3.3h0.8v3.2
			c0,0.8,0.5,1.4,1.3,1.4c0.9,0,1.6-0.6,1.6-1.3v-3.3C292,77.5,292.8,77.5,292.8,77.6z M297.1,77.4v0.7c-1.2,0-2,0.7-2,1.7v2.9h-0.8
			v-5.2h0.8v1C295.4,77.9,296.1,77.4,297.1,77.4z M297.8,82.1l0.4-0.6c0.6,0.4,1.2,0.7,1.8,0.7c0.7,0,1.1-0.3,1.1-0.8
			c0-0.6-0.6-0.7-1.3-0.9c-1.2-0.4-1.7-0.7-1.7-1.5c0-0.9,0.8-1.5,1.8-1.5c0.6,0,1.3,0.2,1.9,0.6l-0.4,0.6c-0.5-0.3-1-0.5-1.5-0.5
			c-0.6,0-1.1,0.3-1.1,0.8c0,0.4,0.4,0.6,1.3,0.9c0.8,0.3,1.7,0.5,1.7,1.5c0,0.9-0.8,1.6-1.9,1.6C299.3,82.8,298.5,82.6,297.8,82.1
			L297.8,82.1z M307.1,81.5l0.5,0.5c-0.5,0.5-1.4,0.8-2.1,0.8c-1.4,0-2.6-1.1-2.6-2.7c0-1.5,1.2-2.7,2.5-2.7c1.6,0,2.5,1.2,2.5,3
			h-4.2c0.1,1,0.8,1.8,1.8,1.8C306,82.2,306.7,81.9,307.1,81.5z M303.6,79.7h3.5c-0.1-0.9-0.6-1.7-1.7-1.7
			C304.5,78.1,303.7,78.7,303.6,79.7L303.6,79.7z M309,78.1c0-0.3,0.2-0.5,0.5-0.5c0.3,0,0.5,0.2,0.5,0.5c0,0.3-0.2,0.6-0.5,0.6
			C309.3,78.7,309,78.4,309,78.1z M309,82.3c0-0.3,0.2-0.5,0.5-0.5c0.3,0,0.5,0.2,0.5,0.5c0,0.3-0.2,0.6-0.5,0.6
			C309.3,82.8,309,82.6,309,82.3z"/>
	</g>
	<g>
		<path d="M20.5,125.6l1.8,2.5h-0.9l-1.7-2.5h-1.8v2.5H17v-6.9h2.8c1.4,0,2.5,0.9,2.5,2.2C22.3,124.6,21.5,125.4,20.5,125.6
			L20.5,125.6z M17.8,124.9h1.9c1.1,0,1.9-0.5,1.9-1.5s-0.8-1.5-1.9-1.5h-1.9V124.9z M27.4,127l0.5,0.5c-0.5,0.5-1.4,0.8-2.1,0.8
			c-1.4,0-2.6-1.1-2.6-2.7c0-1.5,1.2-2.7,2.5-2.7c1.6,0,2.5,1.2,2.5,3H24c0.1,1,0.8,1.8,1.8,1.8C26.4,127.6,27.1,127.3,27.4,127z
			 M24,125.2h3.5c-0.1-0.9-0.6-1.7-1.7-1.7C24.9,123.5,24.1,124.2,24,125.2z M29.4,121.2h0.8v7h-0.8
			C29.4,128.2,29.4,121.2,29.4,121.2z M35.7,127l0.5,0.5c-0.5,0.5-1.4,0.8-2.1,0.8c-1.4,0-2.6-1.1-2.6-2.7c0-1.5,1.2-2.7,2.5-2.7
			c1.6,0,2.5,1.2,2.5,3h-4.2c0.1,1,0.8,1.8,1.8,1.8C34.6,127.6,35.3,127.3,35.7,127z M32.2,125.2h3.5c-0.1-0.9-0.7-1.7-1.7-1.7
			C33.1,123.5,32.3,124.2,32.2,125.2z M41.8,125v3.1h-0.8v-0.8c-0.4,0.6-1.1,0.9-1.8,0.9c-1.1,0-1.9-0.6-1.9-1.7c0-1,0.9-1.7,2-1.7
			c0.6,0,1.2,0.1,1.7,0.3V125c0-0.7-0.3-1.5-1.4-1.5c-0.5,0-1,0.2-1.5,0.5l-0.3-0.6c0.7-0.4,1.4-0.5,1.9-0.5
			C41.2,122.9,41.8,123.8,41.8,125z M41.1,126.5v-0.8c-0.5-0.1-1-0.2-1.6-0.2c-0.8,0-1.4,0.4-1.4,1.1c0,0.6,0.6,1,1.3,1
			C40.1,127.6,40.9,127.3,41.1,126.5z M43.1,127.5l0.4-0.6c0.6,0.4,1.2,0.7,1.8,0.7c0.7,0,1.1-0.3,1.1-0.8c0-0.6-0.6-0.7-1.3-0.9
			c-1.2-0.4-1.7-0.7-1.7-1.5c0-0.9,0.8-1.5,1.8-1.5c0.6,0,1.3,0.2,1.8,0.6l-0.4,0.6c-0.5-0.3-1-0.5-1.5-0.5c-0.6,0-1.1,0.3-1.1,0.8
			c0,0.4,0.4,0.6,1.3,0.9c0.8,0.3,1.7,0.5,1.7,1.5c0,0.9-0.8,1.6-1.9,1.6C44.5,128.3,43.7,128,43.1,127.5z M52.3,127l0.5,0.5
			c-0.5,0.5-1.4,0.8-2.1,0.8c-1.4,0-2.6-1.1-2.6-2.7c0-1.5,1.2-2.7,2.5-2.7c1.6,0,2.5,1.2,2.5,3h-4.2c0.1,1,0.8,1.8,1.8,1.8
			C51.3,127.6,52,127.3,52.3,127z M48.8,125.2h3.5c-0.1-0.9-0.7-1.7-1.7-1.7C49.7,123.5,49,124.2,48.8,125.2z M59.1,121.2v7h-0.8v-1
			c-0.4,0.7-1,1.1-1.9,1.1c-1.4,0-2.4-1.1-2.4-2.7c0-1.6,1-2.7,2.4-2.7c0.8,0,1.5,0.4,1.9,1.1v-2.8H59.1z M58.3,125.6
			c0-1.2-0.7-2-1.7-2c-1,0-1.7,0.8-1.7,2s0.7,2,1.7,2C57.6,127.6,58.3,126.8,58.3,125.6z M67.8,125v3.1H67v-0.8
			c-0.4,0.6-1.1,0.9-1.8,0.9c-1.1,0-1.9-0.6-1.9-1.7c0-1,0.9-1.7,2-1.7c0.6,0,1.2,0.1,1.7,0.3V125c0-0.7-0.3-1.5-1.4-1.5
			c-0.5,0-1,0.2-1.5,0.5l-0.3-0.6c0.7-0.4,1.4-0.5,1.9-0.5C67.1,122.9,67.8,123.8,67.8,125z M67,126.5v-0.8c-0.5-0.1-1-0.2-1.6-0.2
			c-0.8,0-1.4,0.4-1.4,1.1c0,0.6,0.6,1,1.3,1C66,127.6,66.8,127.3,67,126.5z M69,127.5l0.4-0.6c0.6,0.4,1.2,0.7,1.8,0.7
			c0.7,0,1.1-0.3,1.1-0.8c0-0.6-0.6-0.7-1.3-0.9c-1.2-0.4-1.7-0.7-1.7-1.5c0-0.9,0.8-1.5,1.8-1.5c0.6,0,1.3,0.2,1.8,0.6l-0.4,0.6
			c-0.5-0.3-1-0.5-1.5-0.5c-0.6,0-1.1,0.3-1.1,0.8c0,0.4,0.4,0.6,1.3,0.9c0.8,0.3,1.7,0.5,1.7,1.5c0,0.9-0.8,1.6-1.9,1.6
			C70.4,128.3,69.6,128,69,127.5z M73.9,127.5l0.4-0.6c0.6,0.4,1.2,0.7,1.8,0.7c0.7,0,1.1-0.3,1.1-0.8c0-0.6-0.6-0.7-1.3-0.9
			c-1.2-0.4-1.7-0.7-1.7-1.5c0-0.9,0.8-1.5,1.8-1.5c0.6,0,1.3,0.2,1.8,0.6l-0.4,0.6c-0.5-0.3-1-0.5-1.5-0.5c-0.6,0-1.1,0.3-1.1,0.8
			c0,0.4,0.4,0.6,1.3,0.9c0.8,0.3,1.7,0.5,1.7,1.5c0,0.9-0.8,1.6-1.9,1.6C75.4,128.3,74.6,128,73.9,127.5z M79.1,121.5
			c0-0.3,0.2-0.5,0.5-0.5c0.3,0,0.5,0.2,0.5,0.5c0,0.3-0.2,0.5-0.5,0.5C79.3,122,79.1,121.8,79.1,121.5z M79.2,123H80v5.2h-0.8
			C79.2,128.2,79.2,123,79.2,123z M86.2,123v4.6c0,1.3-1.1,2.3-2.5,2.3c-0.8,0-1.6-0.3-2.1-0.7l0.3-0.6c0.4,0.4,1,0.6,1.7,0.6
			c1.2,0,1.9-0.6,1.9-1.6v-0.8c-0.4,0.6-1.1,1-1.9,1c-1.4,0-2.4-1-2.4-2.5s1-2.4,2.4-2.4c0.8,0,1.5,0.4,1.9,1V123L86.2,123L86.2,123
			z M85.5,125.3c0-1-0.7-1.8-1.7-1.8c-1,0-1.7,0.7-1.7,1.8c0,1.1,0.7,1.8,1.7,1.8C84.8,127.1,85.5,126.4,85.5,125.3z M92.2,124.9
			v3.3h-0.8V125c0-0.8-0.5-1.4-1.3-1.4c-0.9,0-1.6,0.6-1.6,1.3v3.3h-0.8V123h0.8v0.8c0.3-0.6,1-0.9,1.7-0.9
			C91.4,122.9,92.2,123.7,92.2,124.9z M101.2,124.9v3.3h-0.8V125c0-0.8-0.5-1.4-1.2-1.4c-0.8,0-1.4,0.6-1.4,1.3v3.3h-0.8V125
			c0-0.8-0.5-1.4-1.2-1.4c-0.8,0-1.4,0.6-1.4,1.3v3.3h-0.8V123h0.8v0.8c0.3-0.5,0.8-0.9,1.5-0.9c0.8,0,1.4,0.4,1.7,1.1
			c0.2-0.7,0.9-1.1,1.7-1.1C100.4,122.9,101.2,123.7,101.2,124.9L101.2,124.9z M106.7,127l0.5,0.5c-0.4,0.5-1.4,0.8-2.1,0.8
			c-1.4,0-2.6-1.1-2.6-2.7c0-1.5,1.2-2.7,2.6-2.7c1.6,0,2.4,1.2,2.4,3h-4.2c0.1,1,0.8,1.8,1.8,1.8
			C105.6,127.6,106.3,127.3,106.7,127L106.7,127z M103.2,125.2h3.5c-0.1-0.9-0.7-1.7-1.7-1.7C104.1,123.5,103.3,124.2,103.2,125.2z
			 M113,124.9v3.3h-0.8V125c0-0.8-0.5-1.4-1.3-1.4c-0.9,0-1.6,0.6-1.6,1.3v3.3h-0.8V123h0.8v0.8c0.3-0.6,1-0.9,1.7-0.9
			C112.2,122.9,113,123.7,113,124.9z M117.2,127.9c-0.3,0.2-0.6,0.3-1,0.3c-0.7,0-1.3-0.6-1.3-1.3v-3.3h-0.8V123h0.8v-1.4h0.8v1.4
			h1.3v0.7h-1.3v3.3c0,0.4,0.3,0.7,0.6,0.7c0.2,0,0.4-0.1,0.5-0.2C116.8,127.4,117.2,127.9,117.2,127.9z M118,127.5l0.4-0.6
			c0.6,0.4,1.2,0.7,1.8,0.7c0.7,0,1.1-0.3,1.1-0.8c0-0.6-0.6-0.7-1.3-0.9c-1.2-0.4-1.7-0.7-1.7-1.5c0-0.9,0.8-1.5,1.8-1.5
			c0.6,0,1.3,0.2,1.8,0.6l-0.4,0.6c-0.5-0.3-1-0.5-1.5-0.5c-0.6,0-1.1,0.3-1.1,0.8c0,0.4,0.4,0.6,1.3,0.9c0.8,0.3,1.7,0.5,1.7,1.5
			c0,0.9-0.8,1.6-1.9,1.6C119.4,128.3,118.6,128,118,127.5z"/>
	</g>
	<g>
		<path d="M17.2,224.7h2.3c2.2,0,3.7,1.4,3.7,3.4s-1.5,3.4-3.7,3.4h-2.3V224.7z M19.5,230.9c1.7,0,2.9-1.1,2.9-2.7
			c0-1.6-1.2-2.7-2.9-2.7h-1.5v5.4H19.5z M24.3,229c0-1.5,1.2-2.7,2.7-2.7s2.7,1.2,2.7,2.7s-1.2,2.7-2.7,2.7S24.3,230.5,24.3,229z
			 M28.9,229c0-1.1-0.9-2-1.9-2c-1,0-1.9,0.9-1.9,2c0,1.1,0.9,2,1.9,2C28,231.1,28.9,230.1,28.9,229z M30.3,226.4h0.8l1.3,4.2
			l1.4-4.2h0.7l1.4,4.2l1.3-4.2H38l-1.7,5.2h-0.7l-1.4-4.1l-1.4,4.1H32C32,231.6,30.3,226.4,30.3,226.4z M43.4,228.3v3.3h-0.8v-3.2
			c0-0.8-0.5-1.4-1.3-1.4c-0.9,0-1.6,0.6-1.6,1.3v3.3H39v-5.2h0.8v0.8c0.3-0.6,1-0.9,1.7-0.9C42.6,226.3,43.4,227.2,43.4,228.3z
			 M45,224.6h0.8v7H45V224.6z M47,229c0-1.5,1.2-2.7,2.7-2.7s2.7,1.2,2.7,2.7s-1.2,2.7-2.7,2.7S47,230.5,47,229z M51.5,229
			c0-1.1-0.9-2-1.9-2c-1,0-1.9,0.9-1.9,2c0,1.1,0.9,2,1.9,2C50.7,231.1,51.5,230.1,51.5,229z M57.7,228.5v3.1H57v-0.8
			c-0.4,0.6-1.1,0.9-1.8,0.9c-1.1,0-1.9-0.6-1.9-1.6c0-1,0.9-1.7,2-1.7c0.6,0,1.2,0.1,1.7,0.3v-0.2c0-0.7-0.3-1.5-1.4-1.5
			c-0.5,0-1,0.2-1.5,0.5l-0.3-0.6c0.7-0.4,1.4-0.5,1.9-0.5C57,226.3,57.7,227.2,57.7,228.5L57.7,228.5z M57,230v-0.8
			c-0.5-0.1-1-0.2-1.6-0.2c-0.8,0-1.4,0.4-1.4,1.1c0,0.6,0.6,1,1.3,1C56,231.1,56.8,230.7,57,230z M64.1,224.6v7h-0.8v-1
			c-0.4,0.7-1,1.1-1.9,1.1c-1.4,0-2.4-1.1-2.4-2.7c0-1.6,1-2.7,2.4-2.7c0.8,0,1.5,0.4,1.9,1.1v-2.8H64.1z M63.3,229
			c0-1.2-0.7-2-1.7-2c-1,0-1.7,0.8-1.7,2s0.7,2,1.7,2C62.6,231.1,63.3,230.2,63.3,229z M69.6,230.4l0.5,0.5
			c-0.4,0.5-1.4,0.8-2.1,0.8c-1.4,0-2.6-1.1-2.6-2.7c0-1.5,1.2-2.7,2.6-2.7c1.6,0,2.4,1.2,2.4,3h-4.2c0.1,1,0.8,1.8,1.8,1.8
			C68.6,231.1,69.3,230.8,69.6,230.4L69.6,230.4z M66.2,228.6h3.5c-0.1-0.9-0.7-1.6-1.7-1.6C67,227,66.3,227.6,66.2,228.6z
			 M76.4,224.6v7h-0.8v-1c-0.4,0.7-1.1,1.1-1.9,1.1c-1.4,0-2.4-1.1-2.4-2.7c0-1.6,1-2.7,2.4-2.7c0.8,0,1.5,0.4,1.9,1.1v-2.8H76.4z
			 M75.6,229c0-1.2-0.7-2-1.7-2c-1,0-1.7,0.8-1.7,2s0.7,2,1.7,2C74.9,231.1,75.6,230.2,75.6,229z M85.1,228.5v3.1h-0.8v-0.8
			c-0.4,0.6-1.1,0.9-1.8,0.9c-1.1,0-1.9-0.6-1.9-1.6c0-1,0.9-1.7,2-1.7c0.6,0,1.2,0.1,1.7,0.3v-0.2c0-0.7-0.3-1.5-1.4-1.5
			c-0.5,0-1,0.2-1.5,0.5l-0.3-0.6c0.7-0.4,1.4-0.5,1.9-0.5C84.4,226.3,85.1,227.2,85.1,228.5L85.1,228.5z M84.3,230v-0.8
			c-0.5-0.1-1-0.2-1.6-0.2c-0.8,0-1.4,0.4-1.4,1.1c0,0.6,0.6,1,1.3,1C83.3,231.1,84.1,230.7,84.3,230z M86.3,231l0.4-0.6
			c0.6,0.4,1.2,0.6,1.8,0.6c0.7,0,1.1-0.3,1.1-0.8c0-0.6-0.6-0.7-1.3-0.9c-1.2-0.4-1.7-0.7-1.7-1.5c0-0.9,0.8-1.5,1.8-1.5
			c0.6,0,1.3,0.2,1.8,0.6l-0.4,0.6c-0.5-0.3-1-0.5-1.5-0.5c-0.6,0-1.1,0.3-1.1,0.8c0,0.4,0.4,0.6,1.3,0.9c0.8,0.3,1.7,0.5,1.7,1.5
			c0,0.9-0.8,1.6-1.9,1.6C87.7,231.7,86.9,231.4,86.3,231L86.3,231z M91.3,231l0.4-0.6c0.6,0.4,1.2,0.6,1.8,0.6
			c0.7,0,1.1-0.3,1.1-0.8c0-0.6-0.6-0.7-1.3-0.9c-1.2-0.4-1.7-0.7-1.7-1.5c0-0.9,0.8-1.5,1.8-1.5c0.6,0,1.3,0.2,1.8,0.6l-0.4,0.6
			c-0.5-0.3-1-0.5-1.5-0.5c-0.6,0-1.1,0.3-1.1,0.8c0,0.4,0.4,0.6,1.3,0.9c0.8,0.3,1.7,0.5,1.7,1.5c0,0.9-0.8,1.6-1.9,1.6
			C92.7,231.7,91.9,231.4,91.3,231L91.3,231z M96.4,225c0-0.3,0.2-0.5,0.5-0.5c0.3,0,0.5,0.2,0.5,0.5c0,0.3-0.2,0.5-0.5,0.5
			C96.6,225.5,96.4,225.3,96.4,225z M96.5,226.4h0.8v5.2h-0.8V226.4z M103.5,226.4v4.6c0,1.3-1.1,2.3-2.5,2.3
			c-0.8,0-1.6-0.3-2.1-0.7l0.3-0.6c0.4,0.4,1,0.6,1.7,0.6c1.2,0,1.9-0.6,1.9-1.6v-0.8c-0.4,0.6-1.1,1-1.9,1c-1.4,0-2.4-1-2.4-2.5
			s1-2.4,2.4-2.4c0.8,0,1.5,0.4,1.9,1v-0.9L103.5,226.4L103.5,226.4z M102.8,228.8c0-1-0.7-1.8-1.7-1.8c-1,0-1.7,0.7-1.7,1.8
			c0,1.1,0.7,1.8,1.7,1.8C102.1,230.6,102.8,229.8,102.8,228.8z M109.5,228.3v3.3h-0.8v-3.2c0-0.8-0.5-1.4-1.3-1.4
			c-0.9,0-1.6,0.6-1.6,1.3v3.3h-0.8v-5.2h0.8v0.8c0.3-0.6,1-0.9,1.7-0.9C108.7,226.3,109.5,227.2,109.5,228.3z M118.5,228.3v3.3
			h-0.8v-3.2c0-0.8-0.5-1.4-1.2-1.4c-0.8,0-1.4,0.6-1.4,1.3v3.3h-0.8v-3.2c0-0.8-0.5-1.4-1.2-1.4c-0.8,0-1.4,0.6-1.4,1.3v3.3H111
			v-5.2h0.8v0.8c0.3-0.5,0.8-0.9,1.5-0.9c0.8,0,1.4,0.4,1.7,1.1c0.2-0.7,0.9-1.1,1.7-1.1C117.7,226.3,118.5,227.1,118.5,228.3
			L118.5,228.3z M124,230.4l0.5,0.5c-0.4,0.5-1.4,0.8-2.1,0.8c-1.4,0-2.6-1.1-2.6-2.7c0-1.5,1.2-2.7,2.6-2.7c1.6,0,2.4,1.2,2.4,3
			h-4.2c0.1,1,0.8,1.8,1.8,1.8C122.9,231.1,123.6,230.8,124,230.4L124,230.4z M120.5,228.6h3.5c-0.1-0.9-0.7-1.6-1.7-1.6
			C121.4,227,120.7,227.6,120.5,228.6z M130.4,228.3v3.3h-0.8v-3.2c0-0.8-0.5-1.4-1.3-1.4c-0.9,0-1.6,0.6-1.6,1.3v3.3H126v-5.2h0.8
			v0.8c0.3-0.6,1-0.9,1.7-0.9C129.6,226.3,130.4,227.2,130.4,228.3L130.4,228.3z M134.5,231.4c-0.3,0.2-0.6,0.3-1,0.3
			c-0.7,0-1.3-0.6-1.3-1.3v-3.3h-0.8v-0.7h0.8V225h0.8v1.4h1.3v0.7H133v3.3c0,0.4,0.3,0.6,0.6,0.6c0.2,0,0.4-0.1,0.5-0.2
			L134.5,231.4L134.5,231.4z M135.3,231l0.4-0.6c0.6,0.4,1.2,0.6,1.8,0.6c0.7,0,1.1-0.3,1.1-0.8c0-0.6-0.6-0.7-1.3-0.9
			c-1.2-0.4-1.7-0.7-1.7-1.5c0-0.9,0.8-1.5,1.8-1.5c0.6,0,1.3,0.2,1.9,0.6l-0.4,0.6c-0.5-0.3-1-0.5-1.5-0.5c-0.6,0-1.1,0.3-1.1,0.8
			c0,0.4,0.4,0.6,1.3,0.9c0.8,0.3,1.7,0.5,1.7,1.5c0,0.9-0.8,1.6-1.9,1.6C136.7,231.7,135.9,231.4,135.3,231L135.3,231z"/>
	</g>
	<g>
		<path d="M16.7,336.9l0.5-0.6c0.6,0.6,1.3,1,2.2,1c1.1,0,1.6-0.6,1.6-1.2c0-0.7-0.6-1-1.9-1.3c-1.4-0.3-2.2-0.8-2.2-1.9
			c0-1.1,1-2,2.3-2c1,0,1.8,0.4,2.4,1l-0.5,0.6c-0.6-0.5-1.2-0.9-2-0.9c-0.9,0-1.5,0.6-1.5,1.2c0,0.7,0.7,1,1.9,1.2
			c1.3,0.3,2.2,0.8,2.2,2c0,1.1-0.8,2-2.4,2C18.3,338,17.4,337.6,16.7,336.9z M27.5,332.7v5.2h-0.8V337c-0.3,0.5-1,1-1.7,1
			c-1.1,0-1.9-0.8-1.9-2v-3.3h0.8v3.2c0,0.8,0.5,1.4,1.3,1.4c0.9,0,1.6-0.6,1.6-1.3v-3.3L27.5,332.7L27.5,332.7z M34.1,335.3
			c0,1.6-1,2.7-2.4,2.7c-0.8,0-1.5-0.4-1.9-1.1v1h-0.7v-7h0.8v2.8c0.4-0.7,1-1.1,1.9-1.1C33.1,332.6,34.1,333.7,34.1,335.3
			L34.1,335.3z M33.3,335.3c0-1.2-0.7-2-1.7-2c-1,0-1.7,0.8-1.7,2s0.7,2,1.7,2S33.3,336.5,33.3,335.3z M42.8,334.6v3.3h-0.8v-3.2
			c0-0.8-0.5-1.4-1.2-1.4c-0.8,0-1.4,0.5-1.4,1.3v3.3h-0.8v-3.2c0-0.8-0.5-1.4-1.2-1.4c-0.8,0-1.4,0.5-1.4,1.3v3.3h-0.8v-5.2h0.8
			v0.8c0.3-0.5,0.8-0.9,1.5-0.9c0.8,0,1.4,0.4,1.7,1.1c0.2-0.7,0.9-1.1,1.7-1.1C42.1,332.6,42.8,333.4,42.8,334.6z M44.2,331.2
			c0-0.3,0.2-0.5,0.5-0.5c0.3,0,0.5,0.2,0.5,0.5c0,0.3-0.2,0.5-0.5,0.5C44.5,331.8,44.2,331.5,44.2,331.2z M44.3,332.7h0.8v5.2h-0.8
			V332.7z M49.2,337.6c-0.3,0.2-0.6,0.3-1,0.3c-0.7,0-1.3-0.5-1.3-1.3v-3.3h-0.8v-0.7H47v-1.4h0.8v1.4h1.3v0.7h-1.3v3.3
			c0,0.4,0.3,0.6,0.6,0.6c0.2,0,0.4-0.1,0.5-0.2L49.2,337.6L49.2,337.6z M53,337.6c-0.3,0.2-0.6,0.3-1,0.3c-0.7,0-1.3-0.5-1.3-1.3
			v-3.3h-0.8v-0.7h0.8v-1.4h0.8v1.4h1.3v0.7h-1.3v3.3c0,0.4,0.3,0.6,0.6,0.6c0.2,0,0.4-0.1,0.5-0.2L53,337.6L53,337.6z M58,336.7
			l0.5,0.5c-0.5,0.5-1.4,0.8-2.1,0.8c-1.4,0-2.6-1.1-2.6-2.7c0-1.5,1.2-2.7,2.5-2.7c1.6,0,2.5,1.2,2.5,3h-4.2c0.1,1,0.8,1.8,1.8,1.8
			C57,337.3,57.6,337,58,336.7L58,336.7z M54.5,334.9H58c-0.1-0.9-0.7-1.6-1.7-1.6C55.4,333.2,54.7,333.9,54.5,334.9z M64.7,330.9v7
			H64v-1c-0.4,0.7-1,1.1-1.9,1.1c-1.4,0-2.4-1.1-2.4-2.7c0-1.6,1-2.7,2.4-2.7c0.8,0,1.5,0.4,1.9,1.1v-2.8L64.7,330.9L64.7,330.9z
			 M64,335.3c0-1.2-0.7-2-1.7-2c-1,0-1.7,0.8-1.7,2s0.7,2,1.7,2C63.3,337.3,64,336.5,64,335.3z M73.4,334.7v3.1h-0.8V337
			c-0.4,0.6-1.1,0.9-1.8,0.9c-1.1,0-1.9-0.6-1.9-1.6c0-1,0.9-1.7,2-1.7c0.6,0,1.2,0.1,1.7,0.3v-0.2c0-0.7-0.3-1.5-1.4-1.5
			c-0.5,0-1,0.2-1.5,0.5l-0.3-0.6c0.7-0.4,1.4-0.5,1.9-0.5C72.7,332.6,73.4,333.5,73.4,334.7L73.4,334.7z M72.7,336.2v-0.8
			c-0.5-0.1-1-0.2-1.6-0.2c-0.8,0-1.4,0.4-1.4,1.1c0,0.6,0.6,1,1.3,1C71.7,337.3,72.5,337,72.7,336.2z M74.7,337.2l0.4-0.5
			c0.6,0.4,1.2,0.6,1.8,0.6c0.7,0,1.1-0.3,1.1-0.8c0-0.6-0.6-0.7-1.3-0.9c-1.2-0.4-1.7-0.7-1.7-1.5c0-0.9,0.8-1.5,1.8-1.5
			c0.6,0,1.3,0.2,1.8,0.6l-0.4,0.6c-0.5-0.3-1-0.5-1.5-0.5c-0.6,0-1.1,0.3-1.1,0.8c0,0.5,0.4,0.6,1.3,0.9c0.8,0.3,1.7,0.5,1.7,1.5
			c0,1-0.8,1.6-1.9,1.6C76.1,338,75.3,337.7,74.7,337.2z M79.6,337.2l0.4-0.5c0.6,0.4,1.2,0.6,1.8,0.6c0.7,0,1.1-0.3,1.1-0.8
			c0-0.6-0.6-0.7-1.3-0.9c-1.2-0.4-1.7-0.7-1.7-1.5c0-0.9,0.8-1.5,1.8-1.5c0.6,0,1.3,0.2,1.8,0.6l-0.4,0.6c-0.5-0.3-1-0.5-1.5-0.5
			c-0.6,0-1.1,0.3-1.1,0.8c0,0.5,0.4,0.6,1.3,0.9c0.8,0.3,1.7,0.5,1.7,1.5c0,1-0.8,1.6-1.9,1.6C81,338,80.2,337.7,79.6,337.2z
			 M84.8,331.2c0-0.3,0.2-0.5,0.5-0.5c0.3,0,0.5,0.2,0.5,0.5c0,0.3-0.2,0.5-0.5,0.5C85,331.8,84.8,331.5,84.8,331.2z M84.9,332.7
			h0.8v5.2h-0.8V332.7z M91.9,332.7v4.6c0,1.3-1.1,2.3-2.5,2.3c-0.8,0-1.6-0.3-2.1-0.7l0.3-0.6c0.4,0.4,1,0.6,1.7,0.6
			c1.2,0,1.9-0.6,1.9-1.6v-0.8c-0.4,0.6-1.1,1-1.9,1c-1.4,0-2.4-1-2.4-2.5s1-2.5,2.4-2.5c0.8,0,1.5,0.4,1.9,1v-0.9L91.9,332.7
			L91.9,332.7z M91.2,335c0-1-0.7-1.8-1.7-1.8c-1,0-1.7,0.7-1.7,1.8c0,1,0.7,1.8,1.7,1.8C90.4,336.8,91.2,336.1,91.2,335z
			 M97.9,334.6v3.3h-0.8v-3.2c0-0.8-0.5-1.4-1.3-1.4c-0.9,0-1.6,0.6-1.6,1.3v3.3h-0.8v-5.2h0.8v0.8c0.3-0.5,1-1,1.7-1
			C97.1,332.6,97.9,333.4,97.9,334.6L97.9,334.6z M106.8,334.6v3.3h-0.8v-3.2c0-0.8-0.5-1.4-1.2-1.4c-0.8,0-1.4,0.5-1.4,1.3v3.3
			h-0.8v-3.2c0-0.8-0.5-1.4-1.2-1.4c-0.8,0-1.4,0.5-1.4,1.3v3.3h-0.8v-5.2h0.8v0.8c0.3-0.5,0.8-0.9,1.5-0.9c0.8,0,1.4,0.4,1.7,1.1
			c0.2-0.7,0.9-1.1,1.7-1.1C106.1,332.6,106.8,333.4,106.8,334.6L106.8,334.6z M112.3,336.7l0.5,0.5c-0.4,0.5-1.4,0.8-2.1,0.8
			c-1.4,0-2.6-1.1-2.6-2.7c0-1.5,1.2-2.7,2.6-2.7c1.6,0,2.4,1.2,2.4,3h-4.2c0.1,1,0.8,1.8,1.8,1.8C111.3,337.3,112,337,112.3,336.7
			L112.3,336.7z M108.9,334.9h3.5c-0.1-0.9-0.7-1.6-1.7-1.6C109.8,333.2,109,333.9,108.9,334.9z M118.7,334.6v3.3H118v-3.2
			c0-0.8-0.5-1.4-1.3-1.4c-0.9,0-1.6,0.6-1.6,1.3v3.3h-0.8v-5.2h0.8v0.8c0.3-0.5,1-1,1.7-1C117.9,332.6,118.7,333.4,118.7,334.6
			L118.7,334.6z M122.9,337.6c-0.3,0.2-0.6,0.3-1,0.3c-0.7,0-1.3-0.5-1.3-1.3v-3.3h-0.8v-0.7h0.8v-1.4h0.8v1.4h1.3v0.7h-1.3v3.3
			c0,0.4,0.3,0.6,0.6,0.6c0.2,0,0.4-0.1,0.5-0.2L122.9,337.6L122.9,337.6z M123.6,337.2l0.4-0.5c0.6,0.4,1.2,0.6,1.8,0.6
			c0.7,0,1.1-0.3,1.1-0.8c0-0.6-0.6-0.7-1.3-0.9c-1.2-0.4-1.7-0.7-1.7-1.5c0-0.9,0.8-1.5,1.8-1.5c0.6,0,1.3,0.2,1.8,0.6l-0.4,0.6
			c-0.5-0.3-1-0.5-1.5-0.5c-0.6,0-1.1,0.3-1.1,0.8c0,0.5,0.4,0.6,1.3,0.9c0.8,0.3,1.7,0.5,1.7,1.5c0,1-0.8,1.6-1.9,1.6
			C125,338,124.2,337.7,123.6,337.2z"/>
	</g>
	<g>
		<path class="st0" d="M578.6,153.8v2.3h3.7v0.7h-3.7v3.1h-0.8v-6.9h4.9v0.7L578.6,153.8L578.6,153.8z M587.8,158.8l0.5,0.5
			c-0.5,0.5-1.4,0.8-2.1,0.8c-1.4,0-2.6-1.1-2.6-2.7c0-1.5,1.2-2.7,2.5-2.7c1.6,0,2.5,1.2,2.5,3h-4.2c0.1,1,0.8,1.8,1.8,1.8
			C586.8,159.4,587.5,159.1,587.8,158.8L587.8,158.8z M584.3,157h3.5c-0.1-0.9-0.7-1.6-1.7-1.6C585.2,155.3,584.5,156,584.3,157z
			 M592.4,159.7c-0.3,0.2-0.6,0.3-1,0.3c-0.7,0-1.3-0.6-1.3-1.3v-3.3h-0.8v-0.7h0.8v-1.4h0.8v1.4h1.3v0.7H591v3.3
			c0,0.4,0.3,0.6,0.6,0.6c0.2,0,0.4-0.1,0.5-0.2L592.4,159.7L592.4,159.7z M593.2,157.4c0-1.5,1.2-2.7,2.7-2.7
			c0.7,0,1.3,0.3,1.8,0.8l-0.5,0.5c-0.3-0.4-0.8-0.6-1.3-0.6c-1,0-1.9,0.9-1.9,2c0,1.1,0.9,2,1.9,2c0.5,0,1-0.2,1.3-0.6l0.5,0.5
			c-0.5,0.5-1.2,0.8-1.9,0.8C594.4,160.1,593.2,158.8,593.2,157.4L593.2,157.4z M603.3,156.6v3.3h-0.8v-3.2c0-0.8-0.5-1.4-1.3-1.4
			c-0.9,0-1.6,0.6-1.6,1.3v3.3h-0.8v-7h0.8v2.6c0.3-0.6,1-0.9,1.7-0.9C602.5,154.6,603.3,155.5,603.3,156.6L603.3,156.6z"/>
	</g>
	<g>
		<path class="st0" d="M578.6,185.5v2.3h3.7v0.7h-3.7v3.1h-0.8v-6.9h4.9v0.7L578.6,185.5L578.6,185.5z M587.8,190.5l0.5,0.5
			c-0.5,0.5-1.4,0.8-2.1,0.8c-1.4,0-2.6-1.1-2.6-2.7c0-1.5,1.2-2.7,2.5-2.7c1.6,0,2.5,1.2,2.5,3h-4.2c0.1,1,0.8,1.8,1.8,1.8
			C586.8,191.1,587.5,190.8,587.8,190.5L587.8,190.5z M584.3,188.7h3.5c-0.1-0.9-0.7-1.6-1.7-1.6C585.2,187,584.5,187.7,584.3,188.7
			z M592.4,191.4c-0.3,0.2-0.6,0.3-1,0.3c-0.7,0-1.3-0.6-1.3-1.3v-3.3h-0.8v-0.7h0.8V185h0.8v1.4h1.3v0.7H591v3.3
			c0,0.4,0.3,0.6,0.6,0.6c0.2,0,0.4-0.1,0.5-0.2L592.4,191.4L592.4,191.4z M593.2,189c0-1.5,1.2-2.7,2.7-2.7c0.7,0,1.3,0.3,1.8,0.8
			l-0.5,0.5c-0.3-0.4-0.8-0.6-1.3-0.6c-1,0-1.9,0.9-1.9,2c0,1.1,0.9,2,1.9,2c0.5,0,1-0.2,1.3-0.6l0.5,0.5c-0.5,0.5-1.2,0.8-1.9,0.8
			C594.4,191.7,593.2,190.5,593.2,189L593.2,189z M603.3,188.3v3.3h-0.8v-3.2c0-0.8-0.5-1.4-1.3-1.4c-0.9,0-1.6,0.6-1.6,1.3v3.3
			h-0.8v-7h0.8v2.6c0.3-0.6,1-0.9,1.7-0.9C602.5,186.3,603.3,187.2,603.3,188.3L603.3,188.3z"/>
	</g>
	<g>
		<path class="st0" d="M574.3,264.1l0.5-0.6c0.6,0.6,1.3,1,2.2,1c1.1,0,1.6-0.6,1.6-1.2c0-0.7-0.7-1-1.8-1.3
			c-1.4-0.3-2.2-0.8-2.2-1.9c0-1.1,1-2,2.3-2c1,0,1.8,0.4,2.4,1l-0.5,0.6c-0.6-0.5-1.2-0.9-2-0.9c-0.8,0-1.5,0.6-1.5,1.2
			c0,0.7,0.7,1,1.8,1.2c1.3,0.3,2.2,0.8,2.2,2c0,1.1-0.8,2-2.4,2C575.9,265.1,575,264.7,574.3,264.1z M585.1,259.9v5.2h-0.8v-0.8
			c-0.3,0.5-1,1-1.7,1c-1.1,0-1.9-0.8-1.9-2v-3.3h0.8v3.2c0,0.8,0.5,1.4,1.3,1.4c0.9,0,1.6-0.6,1.6-1.3v-3.3L585.1,259.9
			L585.1,259.9z M591.8,262.5c0,1.6-1,2.7-2.4,2.7c-0.8,0-1.5-0.4-1.9-1.1v1h-0.8v-7h0.8v2.8c0.4-0.7,1-1.1,1.9-1.1
			C590.7,259.8,591.8,260.9,591.8,262.5L591.8,262.5z M591,262.5c0-1.2-0.7-2-1.7-2c-1,0-1.7,0.8-1.7,2s0.7,2,1.7,2
			C590.2,264.5,591,263.6,591,262.5z M600.5,261.8v3.3h-0.8v-3.2c0-0.8-0.5-1.4-1.2-1.4c-0.8,0-1.4,0.5-1.4,1.3v3.3h-0.8v-3.2
			c0-0.8-0.5-1.4-1.2-1.4c-0.8,0-1.4,0.5-1.4,1.3v3.3H593v-5.2h0.8v0.8c0.3-0.5,0.8-0.9,1.5-0.9c0.8,0,1.4,0.4,1.7,1.1
			c0.2-0.7,0.9-1.1,1.7-1.1C599.7,259.8,600.5,260.6,600.5,261.8L600.5,261.8z M601.9,258.4c0-0.3,0.2-0.5,0.5-0.5
			c0.3,0,0.5,0.2,0.5,0.5c0,0.3-0.2,0.5-0.5,0.5C602.1,258.9,601.9,258.7,601.9,258.4z M602,259.9h0.8v5.2H602V259.9z M606.9,264.8
			c-0.3,0.2-0.6,0.3-1,0.3c-0.7,0-1.3-0.5-1.3-1.3v-3.3h-0.8v-0.7h0.8v-1.4h0.8v1.4h1.3v0.7h-1.3v3.3c0,0.4,0.3,0.6,0.6,0.6
			c0.2,0,0.4-0.1,0.5-0.2L606.9,264.8L606.9,264.8z"/>
	</g>
	<g>
		<path class="st5" d="M578.1,290.3l-3,6.9h-0.8l-3-6.9h0.8l2.6,5.9l2.6-5.9H578.1L578.1,290.3z M583.1,294v3.1h-0.8v-0.8
			c-0.4,0.6-1.1,0.9-1.8,0.9c-1.1,0-1.9-0.6-1.9-1.6c0-1,0.9-1.7,2-1.7c0.6,0,1.2,0.1,1.7,0.3V294c0-0.7-0.3-1.5-1.4-1.5
			c-0.5,0-1,0.2-1.5,0.5l-0.3-0.6c0.7-0.4,1.4-0.5,1.9-0.5C582.4,291.9,583.1,292.8,583.1,294L583.1,294z M582.4,295.6v-0.8
			c-0.5-0.1-1-0.2-1.6-0.2c-0.8,0-1.4,0.4-1.4,1.1c0,0.6,0.6,1,1.3,1C581.3,296.6,582.2,296.3,582.4,295.6z M584.6,290.2h0.8v7h-0.8
			V290.2z M586.8,290.6c0-0.3,0.2-0.5,0.5-0.5c0.3,0,0.5,0.2,0.5,0.5c0,0.3-0.2,0.5-0.5,0.5C587,291.1,586.8,290.9,586.8,290.6z
			 M586.9,292h0.8v5.2h-0.8V292z M594,290.2v7h-0.8v-1c-0.4,0.7-1,1.1-1.9,1.1c-1.4,0-2.4-1.1-2.4-2.7c0-1.6,1-2.7,2.4-2.7
			c0.8,0,1.5,0.4,1.9,1.1v-2.8L594,290.2L594,290.2z M593.2,294.6c0-1.2-0.7-2-1.7-2c-1,0-1.7,0.8-1.7,2s0.7,2,1.7,2
			C592.5,296.6,593.2,295.8,593.2,294.6z M599.7,294v3.1H599v-0.8c-0.4,0.6-1.1,0.9-1.8,0.9c-1.1,0-1.9-0.6-1.9-1.6
			c0-1,0.9-1.7,2-1.7c0.6,0,1.2,0.1,1.7,0.3V294c0-0.7-0.3-1.5-1.4-1.5c-0.5,0-1,0.2-1.5,0.5l-0.3-0.6c0.7-0.4,1.4-0.5,1.9-0.5
			C599,291.9,599.7,292.8,599.7,294L599.7,294z M599,295.6v-0.8c-0.5-0.1-1-0.2-1.6-0.2c-0.8,0-1.4,0.4-1.4,1.1c0,0.6,0.6,1,1.3,1
			C598,296.6,598.8,296.3,599,295.6z M603.9,297c-0.3,0.2-0.6,0.3-1,0.3c-0.7,0-1.3-0.5-1.3-1.3v-3.3h-0.8V292h0.8v-1.4h0.8v1.4h1.3
			v0.7h-1.3v3.3c0,0.4,0.3,0.6,0.6,0.6c0.2,0,0.4-0.1,0.5-0.2L603.9,297L603.9,297z M608.9,296l0.5,0.5c-0.5,0.5-1.4,0.8-2.1,0.8
			c-1.4,0-2.6-1.1-2.6-2.7c0-1.5,1.2-2.7,2.5-2.7c1.6,0,2.5,1.2,2.5,3h-4.2c0.1,1,0.8,1.8,1.8,1.8
			C607.9,296.6,608.6,296.4,608.9,296L608.9,296z M605.5,294.2h3.5c-0.1-0.9-0.7-1.6-1.7-1.6C606.3,292.6,605.6,293.2,605.5,294.2z"
			/>
	</g>
	<g>
		<path class="st2" d="M623.1,41.5c-0.2-0.6-0.3-1.2-0.5-1.9c-0.5-2.8-1.4-5.6-1.2-8.5c0.1-2,0.7-3.8,2-5.3c1.4-1.6,3.3-2.6,5.5-2.9
			c2.7-0.4,5.2-0.2,7.6,1.1c1.5,0.8,2.5,2,3.2,3.6c0.7,1.6,0.9,3.2,0.8,4.9c0,0.3,0.2,0.6,0.3,0.8c0.8,0.8,1,2,0.4,2.9
			c-0.5,0.8-2,1.2-2.9,0.6c-1.2-0.9-1.6-2.6,0-3.6c0.6-0.4,0.8-0.8,0.8-1.5c0-1.7-0.3-3.3-1.3-4.8c-0.9-1.3-2.2-2.1-3.8-2.6
			c-2.3-0.6-4.5-0.6-6.8,0.2c-2,0.7-3.3,2-4,3.9c-0.6,1.5-0.7,3.1-0.5,4.7c0.3,1.9,0.7,3.8,1,5.7c0.8,4,1.5,8,1.4,12.1
			c-0.1,1.6,1,2.3,2.7,2.1c-0.7-1.2-0.7-2.6-0.7-3.9c0-2.4-0.1-4.8-0.6-7.1c-0.2-1.1-0.5-2.2-0.8-3.4c-0.5-2.3-0.8-4.5-0.2-6.9
			c0.3-1.4,1-2.5,2.1-3.2c1.7-1.2,3.7-1.4,5.7-0.4c2.3,1.1,2.9,3.1,3.2,5.4c0.2,1.8-0.2,3.7-0.6,5.5c0,0.2,0,0.6,0.2,0.8
			c0.8,1,0.9,1.7,0.3,2.7c-0.5,0.8-1.8,1.2-2.7,0.8c-0.9-0.5-1.4-1.4-1.2-2.5c0.2-0.9,0.8-1.2,1.5-1.5c0.2-0.1,0.4-0.2,0.5-0.4
			c0.8-2.2,1.2-4.5,0.5-6.7c-0.2-0.8-0.5-1.6-1.3-2.2c-1.8-1.4-4.4-1.4-5.9,0.3c-0.9,1-1.3,2.4-1.2,3.8c0,1.2,0.1,2.5,0.5,3.7
			c1.1,3.7,1.5,7.5,1.4,11.4c0,0.7,0,1.3,0.1,2c0.2,1.4,0.8,1.9,2.3,1.8c-0.8-2.2-0.6-4.4-0.6-6.6c0-3.1,0-6.2,0-9.2
			c0-0.5,0-0.8-0.6-1c-0.6-0.2-1-1.5-0.8-2.2c0.5-1.7,2.2-2.2,3.6-1.1c1,0.8,0.8,2.8-0.3,3.4c-0.2,0.1-0.5,0.5-0.5,0.7
			c0,4.3,0,8.6,0,12.8c0,0.6,0.1,1.2,0.1,1.7c0.1,1,0.9,1.7,2.3,1.8c0.8,0,1.7-0.1,2.5,0.4c1.5,0.9,1.7,2.6,0.9,3.7
			c-0.7,0.9-1.5,1.1-2.5,1.1c-2,0-4.1,0-6.1,0c-1.1,0-1.7,0.7-1.3,1.8c0.1,0.3,0.4,0.6,0.6,0.6c1,0.1,1.9,0.1,2.9,0.1
			c0.2,0,0.4-0.2,0.5-0.4c0.8-1.2,2.2-1.3,3.3-0.4c0.6,0.5,0.8,1.8,0.3,2.6c-0.4,0.7-1.6,1.2-2.3,1c-0.4-0.2-0.9-0.4-1.2-0.8
			c-0.3-0.5-0.7-0.7-1.3-0.6c-0.6,0-1.2,0-1.8,0c-1.2,0-2.1-0.8-2.5-1.8c-0.5-1.1,0-2,0.8-2.7c0.5-0.4,1.2-0.5,1.8-0.6
			c2.1-0.1,4.2-0.1,6.3,0c1.1,0,2-1.1,1.2-2.1c-0.2-0.2-0.6-0.5-0.9-0.5c-2.6,0-5.1,0-7.7,0c-1.4,0-2.5-0.5-3.3-1.8
			c-0.2-0.3-0.3-0.6-0.3-0.9c0-2.2-0.3-4.4-0.9-6.5c-0.3-1-0.8-2-1.3-3c-1.2-2.3-2.6-4.5-3.6-6.9c-1-2.3-1.2-4.7-0.5-7.2
			c0.6-2.1,1.6-4,3.1-5.6c1.7-1.9,3.9-3.3,6.4-3.9c2.2-0.5,4.4-0.6,6.7-0.2c2.3,0.4,4.4,1.4,6.2,2.9c2.8,2.4,4.5,5.5,4.7,9.2
			c0.1,1.2-0.3,2.4-0.5,3.6c-0.4,2.1-1.5,3.9-2.5,5.7c-0.9,1.7-1.7,3.4-2.5,5.1c-0.2,0.4-0.1,0.7,0.2,1c0.7,0.6,0.7,2,0.2,2.8
			c-0.5,0.7-1.7,1-2.4,0.7c-1-0.4-1.6-1.3-1.5-2.4c0.2-0.8,0.7-1.5,1.5-1.7c0.5-0.1,0.7-0.5,0.8-0.9c0.5-1.1,0.9-2.2,1.5-3.3
			c1.3-2.6,3-5,3.7-7.9c0.4-2,0.4-4.1-0.5-6.2c-1-2.5-2.6-4.4-4.8-5.8c-1.7-1.1-3.6-1.7-5.6-1.9c-2.8-0.3-5.5,0.3-7.8,1.7
			c-1.7,1-3.1,2.3-4,4.1c-0.3,0.7-0.7,1.3-1,2c-0.5,0.9-0.6,1.9-0.7,2.9c-0.1,1.9,0.2,3.8,1,5.5c0.6,1.3,1.4,2.6,2.2,3.9
			c0.4,0.7,0.8,1.3,1.1,2C623,41.5,623,41.5,623.1,41.5L623.1,41.5z M634.6,40.4c-0.6,0-1,0.3-1,0.9c0,0.6,0.4,1,1,1
			c0.5,0,0.9-0.4,0.9-1C635.6,40.7,635.2,40.4,634.6,40.4z M638.7,47.5c0-0.6-0.5-1-1.1-1c-0.5,0-0.9,0.5-0.8,1c0,0.6,0.4,0.9,1,0.9
			C638.4,48.4,638.8,48,638.7,47.5z M631.8,34.3c0-0.7-0.2-0.9-0.9-0.9c-0.5,0-1,0.2-0.9,0.9c0,0.7,0.3,1,0.9,1
			C631.6,35.3,631.8,35,631.8,34.3z M638.6,34.8c0,0.7,0.4,1.1,0.9,1.1c0.5,0,1.1-0.6,1.1-1.1c-0.1-0.6-0.5-0.8-1-0.9
			C638.9,34,638.6,34.4,638.6,34.8z M633.2,62.4c0.6,0,1-0.4,1.1-0.9c0-0.5-0.4-0.9-1-0.9c-0.7,0-0.9,0.3-1,0.9
			C632.3,62,632.7,62.4,633.2,62.4z M631.6,14.3c0,0.5,0.1,1,0,1.4c-0.1,0.3-0.4,0.5-0.6,0.8c-0.2-0.2-0.6-0.5-0.6-0.8
			c-0.1-1-0.1-2,0-3c0-0.2,0.4-0.6,0.6-0.6s0.6,0.3,0.6,0.6C631.7,13.3,631.6,13.8,631.6,14.3z M635.1,16.5c0.3-1,0.5-1.9,0.8-2.7
			c0.1-0.2,0.5-0.4,0.8-0.3c0.2,0,0.4,0.4,0.4,0.6c-0.2,0.9-0.4,1.7-0.7,2.5c-0.1,0.2-0.5,0.4-0.7,0.4
			C635.5,17,635.3,16.6,635.1,16.5z M622.4,18.4c-0.2,0.4-0.3,0.7-0.5,0.7c-0.2,0-0.6-0.1-0.7-0.3c-0.5-0.7-1-1.4-1.4-2.2
			c-0.1-0.2,0-0.6,0.1-0.8c0.1-0.1,0.6-0.2,0.7-0.1C621.2,16.6,621.8,17.5,622.4,18.4z M639.5,18.3c0.6-0.9,1.1-1.7,1.8-2.5
			c0.1-0.1,0.6-0.1,0.7,0c0.2,0.2,0.2,0.6,0.2,0.8c-0.4,0.8-0.9,1.5-1.4,2.2c-0.1,0.2-0.5,0.3-0.7,0.2
			C639.8,19,639.7,18.7,639.5,18.3L639.5,18.3z M626.7,16.4c-0.2,0.2-0.3,0.5-0.5,0.5c-0.2,0-0.7-0.1-0.7-0.3
			c-0.3-0.9-0.5-1.8-0.7-2.8c0-0.1,0.2-0.5,0.4-0.5c0.3,0,0.7,0.1,0.8,0.3C626.3,14.6,626.5,15.4,626.7,16.4L626.7,16.4z
			 M618.5,21.6c0,0.5-0.5,0.9-0.9,0.6c-0.7-0.5-1.4-1.2-2-1.8c-0.1-0.1,0-0.5,0.1-0.7c0.1-0.1,0.6-0.3,0.7-0.2
			c0.7,0.6,1.4,1.3,2.1,1.9C618.5,21.5,618.5,21.6,618.5,21.6L618.5,21.6z M646.4,20c0,0.6-2,2.4-2.4,2.3c-0.2-0.1-0.5-0.3-0.6-0.5
			c-0.1-0.1,0.1-0.5,0.2-0.6c0.5-0.5,1-1,1.6-1.5c0.2-0.2,0.5-0.3,0.8-0.2C646.2,19.6,646.3,19.9,646.4,20z M615.2,26.7
			c-0.8-0.4-1.6-0.8-2.3-1.2c-0.1-0.1-0.2-0.5-0.1-0.6c0.2-0.2,0.5-0.4,0.7-0.4c0.7,0.2,1.4,0.5,2.1,0.9c0.2,0.1,0.3,0.5,0.3,0.7
			C615.8,26.3,615.5,26.5,615.2,26.7z M646.7,26.7c-0.3-0.2-0.6-0.3-0.6-0.5c0-0.2,0.1-0.6,0.2-0.7c0.7-0.4,1.4-0.7,2.1-0.9
			c0.2-0.1,0.5,0.2,0.7,0.4c0.1,0.1-0.1,0.5-0.3,0.6C648.1,26,647.4,26.3,646.7,26.7L646.7,26.7z M648.7,31.8c-0.3,0-0.6,0.1-0.9,0
			c-0.3-0.1-0.5-0.4-0.7-0.5c0.2-0.2,0.4-0.6,0.6-0.7c0.6-0.1,1.3,0,1.9,0.1c0.2,0,0.5,0.4,0.5,0.7c0,0.2-0.3,0.4-0.6,0.5
			C649.3,31.9,649,31.8,648.7,31.8L648.7,31.8z M613.2,31.8c-0.3,0-0.7,0-1-0.1c-0.2,0-0.5-0.3-0.5-0.5c0-0.2,0.2-0.6,0.3-0.6
			c0.8-0.1,1.5-0.1,2.3,0c0.2,0,0.4,0.4,0.4,0.6c0,0.1-0.3,0.4-0.5,0.5C613.9,31.8,613.5,31.8,613.2,31.8L613.2,31.8z M647.2,35.2
			c0.7,0.2,1.2,0.3,1.7,0.6c0.2,0.1,0.4,0.5,0.3,0.7c0,0.2-0.4,0.5-0.6,0.5c-0.6-0.1-1.2-0.2-1.8-0.4c-0.2-0.1-0.4-0.5-0.3-0.7
			C646.6,35.5,647,35.3,647.2,35.2L647.2,35.2z M614.7,35.2c0.2,0.2,0.7,0.3,0.7,0.5c0,0.2-0.2,0.7-0.5,0.8
			c-0.5,0.2-1.1,0.3-1.7,0.4c-0.2,0-0.6-0.2-0.6-0.5s0.1-0.6,0.3-0.7C613.5,35.5,614,35.4,614.7,35.2L614.7,35.2z M617.2,39.9
			c-0.2,0.3-0.3,0.5-0.5,0.7c-0.3,0.2-0.7,0.4-1,0.5c-0.3,0-0.7-0.1-0.8-0.3c-0.1-0.1,0-0.7,0.2-0.8c0.4-0.3,0.9-0.5,1.4-0.5
			C616.7,39.4,617,39.7,617.2,39.9z M646.4,41.2c-0.6-0.3-1-0.5-1.5-0.8c-0.1-0.1-0.2-0.5-0.1-0.7c0-0.2,0.4-0.4,0.5-0.3
			c0.5,0.2,1,0.3,1.5,0.6c0.2,0.1,0.2,0.5,0.2,0.7C647,40.9,646.7,41,646.4,41.2L646.4,41.2z M643.4,43c0.8,0,1.5,0.5,1.4,0.9
			c-0.1,0.3-0.4,0.6-0.7,0.6c-0.5,0.1-1.3-0.7-1.2-1C643,43.3,643.3,43.1,643.4,43L643.4,43z M619,43.4c0,0.6-0.7,1.3-1.2,1.2
			c-0.3-0.1-0.6-0.4-0.7-0.7c-0.1-0.4,0.7-0.9,1.2-0.9C618.6,43,618.8,43.3,619,43.4z"/>
	</g>
</g>
</svg>
